<?xml version="1.0" encoding="UTF-8"?>
<svg width="32px" height="32px" viewBox="0 0 32 32" version="1.1" xmlns="http://www.w3.org/2000/svg" xmlns:xlink="http://www.w3.org/1999/xlink">
    <title>Icn / Amenity / Entertainment / Bluetooth Speaker</title>
    <g id="Icn-/-Amenity-/-Entertainment-/-Bluetooth-Speaker" stroke="none" stroke-width="1" fill="none" fill-rule="evenodd">
        <g id="Group" transform="translate(2.000000, 5.000000)" fill="#13284C">
            <path d="M0.644210526,20.7530526 L12.1995789,20.7530526 L12.1995789,0.643578947 L0.644210526,0.643578947 L0.644210526,20.7530526 Z M12.5216842,21.3985263 L0.322105263,21.3985263 C0.144,21.3985263 0,21.2545263 0,21.0764211 L0,0.321473684 C0,0.143368421 0.144,0.000631578947 0.322105263,0.000631578947 L12.5216842,0.000631578947 C12.6997895,0.000631578947 12.8437895,0.143368421 12.8437895,0.321473684 L12.8437895,21.0764211 C12.8437895,21.2545263 12.6997895,21.3985263 12.5216842,21.3985263 L12.5216842,21.3985263 Z" id="Fill-1"></path>
            <path d="M1.94147368,22.5252632 L2.95452632,22.5252632 L2.95452632,21.468 L1.94147368,21.468 L1.94147368,22.5252632 Z M3.27789474,23.1682105 L1.61936842,23.1682105 C1.44252632,23.1682105 1.29726316,23.0242105 1.29726316,22.8461053 L1.29726316,21.1458947 C1.29726316,20.9665263 1.44252632,20.8225263 1.61936842,20.8225263 L3.27789474,20.8225263 C3.45473684,20.8225263 3.6,20.9665263 3.6,21.1458947 L3.6,22.8461053 C3.6,23.0242105 3.45473684,23.1682105 3.27789474,23.1682105 L3.27789474,23.1682105 Z" id="Fill-3"></path>
            <path d="M6.39423158,3.89936842 C6.19717895,3.89936842 6.03549474,4.05978947 6.03549474,4.25684211 C6.03549474,4.45389474 6.19717895,4.61431579 6.39423158,4.61431579 C6.59128421,4.61431579 6.75296842,4.45389474 6.75296842,4.25684211 C6.75296842,4.05978947 6.59128421,3.89936842 6.39423158,3.89936842 M6.39423158,5.25978947 C5.84223158,5.25978947 5.39254737,4.81010526 5.39254737,4.25684211 C5.39254737,3.70484211 5.84223158,3.25389474 6.39423158,3.25389474 C6.94623158,3.25389474 7.39591579,3.70484211 7.39591579,4.25684211 C7.39591579,4.81010526 6.94623158,5.25978947 6.39423158,5.25978947" id="Fill-4"></path>
            <path d="M6.39423158,10.2151579 C3.93991579,10.2151579 1.9416,12.2122105 1.9416,14.6665263 C1.9416,17.1233684 3.93991579,19.1204211 6.39423158,19.1204211 C8.84981053,19.1204211 10.8468632,17.1233684 10.8468632,14.6665263 C10.8468632,12.2122105 8.84981053,10.2151579 6.39423158,10.2151579 M6.39423158,19.7646316 C3.58370526,19.7646316 1.29738947,17.4783158 1.29738947,14.6665263 C1.29738947,11.8572632 3.58370526,9.57094737 6.39423158,9.57094737 C9.20475789,9.57094737 11.4910737,11.8572632 11.4910737,14.6665263 C11.4910737,17.4783158 9.20475789,19.7646316 6.39423158,19.7646316" id="Fill-5"></path>
            <path d="M6.39423158,18.2528842 C4.41738947,18.2528842 2.80938947,16.6448842 2.80938947,14.6667789 C2.80938947,14.4899368 2.95338947,14.3446737 3.13149474,14.3446737 C3.3096,14.3446737 3.4536,14.4899368 3.4536,14.6667789 C3.4536,16.2886737 4.77233684,17.6074105 6.39423158,17.6074105 C8.01612632,17.6074105 9.33612632,16.2886737 9.33612632,14.6667789 C9.33612632,13.0461474 8.01612632,11.7261474 6.39423158,11.7261474 C6.21612632,11.7261474 6.07212632,11.5834105 6.07212632,11.4040421 C6.07212632,11.2272 6.21612632,11.0819368 6.39423158,11.0819368 C8.37107368,11.0819368 9.97907368,12.6912 9.97907368,14.6667789 C9.97907368,16.6448842 8.37107368,18.2528842 6.39423158,18.2528842" id="Fill-6"></path>
            <path d="M6.39423158,13.7060211 C5.86496842,13.7060211 5.43296842,14.1380211 5.43296842,14.6672842 C5.43296842,15.1978105 5.86496842,15.6285474 6.39423158,15.6285474 C6.92475789,15.6285474 7.35549474,15.1978105 7.35549474,14.6672842 C7.35549474,14.1380211 6.92475789,13.7060211 6.39423158,13.7060211 M6.39423158,16.2727579 C5.50875789,16.2727579 4.78875789,15.5527579 4.78875789,14.6672842 C4.78875789,13.7830737 5.50875789,13.0618105 6.39423158,13.0618105 C7.27970526,13.0618105 7.99970526,13.7830737 7.99970526,14.6672842 C7.99970526,15.5527579 7.27970526,16.2727579 6.39423158,16.2727579" id="Fill-7"></path>
            <path d="M9.888,22.596 L10.9023158,22.596 L10.9023158,21.4717895 L9.888,21.4717895 L9.888,22.596 Z M11.2244211,23.2402105 L9.56589474,23.2402105 C9.38905263,23.2402105 9.24378947,23.0974737 9.24378947,22.9193684 L9.24378947,21.1509474 C9.24378947,20.9728421 9.38905263,20.8288421 9.56589474,20.8288421 L11.2244211,20.8288421 C11.4012632,20.8288421 11.5465263,20.9728421 11.5465263,21.1509474 L11.5465263,22.9193684 C11.5465263,23.0974737 11.4012632,23.2402105 11.2244211,23.2402105 L11.2244211,23.2402105 Z" id="Fill-8"></path>
            <path d="M6.39423158,2.32282105 C5.32812632,2.32282105 4.46033684,3.19061053 4.46033684,4.25671579 C4.46033684,5.32408421 5.32812632,6.19187368 6.39423158,6.19187368 C7.46033684,6.19187368 8.32812632,5.32408421 8.32812632,4.25671579 C8.32812632,3.19061053 7.46033684,2.32282105 6.39423158,2.32282105 M6.39423158,6.83482105 C4.97317895,6.83482105 3.81612632,5.67903158 3.81612632,4.25671579 C3.81612632,2.8344 4.97317895,1.67861053 6.39423158,1.67861053 C7.81528421,1.67861053 8.9736,2.8344 8.9736,4.25671579 C8.9736,5.67903158 7.81528421,6.83482105 6.39423158,6.83482105" id="Fill-9"></path>
            <path d="M19.2102316,12.4021895 L19.2102316,12.4021895 L19.2077053,12.4021895 C18.8616,12.7495579 18.3778105,12.9680842 17.8460211,12.9680842 C17.3154947,12.9680842 16.8342316,12.7495579 16.4843368,12.4021895 C16.1344421,12.0510316 15.9184421,11.5710316 15.9184421,11.0392421 C15.9184421,10.5061895 16.1344421,10.0261895 16.4818105,9.67629474 L16.4843368,9.67629474 L16.4843368,9.67503158 C16.8342316,9.3264 17.3154947,9.10913684 17.8460211,9.10913684 C18.3778105,9.10913684 18.8616,9.3264 19.2077053,9.67503158 L19.2102316,9.67503158 L19.2102316,9.67629474 C19.5601263,10.0261895 19.7736,10.5061895 19.7736,11.0392421 C19.7736,11.5710316 19.5601263,12.0510316 19.2102316,12.4021895 L19.2102316,12.4021895 Z M21.8679158,10.5731368 C21.8363368,10.4910316 21.8009684,10.4064 21.7630737,10.3192421 L21.7605474,10.3141895 L21.7517053,10.2914526 C21.5773895,9.90113684 21.3639158,9.52724211 21.1112842,9.17987368 C20.8599158,8.82871579 20.5719158,8.50534737 20.2561263,8.21861053 L20.2258105,8.19082105 L20.2131789,8.18197895 L20.1803368,8.1504 L20.1803368,8.14913684 L20.1209684,8.09608421 L20.1184421,8.09608421 L20.1083368,8.08597895 L20.1058105,8.08597895 L20.0994947,8.07966316 L20.0944421,8.07713684 C19.7634947,7.79671579 19.4047579,7.54913684 19.0258105,7.34450526 C18.6443368,7.14113684 18.2401263,6.9744 17.8194947,6.84934737 L17.8157053,6.84934737 L17.8030737,6.84682105 L17.7980211,6.84682105 L17.7917053,6.84682105 L17.7917053,6.84429474 C17.7171789,6.82155789 17.6338105,6.80008421 17.5390737,6.77987368 C17.4468632,6.75461053 17.3634947,6.73692632 17.2826526,6.72176842 L17.2738105,6.72050526 L17.2687579,6.72050526 L17.2687579,6.71797895 L17.2637053,6.71797895 L17.2586526,6.71797895 L17.2371789,6.71292632 L17.2232842,6.7104 C17.1740211,6.70029474 17.1159158,6.68892632 17.0590737,6.68261053 C17.0022316,6.67250526 16.9428632,6.66492632 16.8809684,6.65482105 C16.7053895,6.63461053 16.5525474,6.54871579 16.4439158,6.42366316 C16.3340211,6.30113684 16.2696,6.13692632 16.2696,5.96134737 L16.2696,5.61524211 C16.2696,5.5104 16.2885474,5.41061053 16.3277053,5.32471579 C16.3681263,5.23629474 16.4274947,5.15924211 16.5058105,5.08724211 C16.5841263,5.02029474 16.6700211,4.96724211 16.7622316,4.93945263 C16.8519158,4.9104 16.9517053,4.90534737 17.0565474,4.91797895 C17.2472842,4.93945263 17.4367579,4.97229474 17.6249684,5.00766316 C17.8169684,5.04682105 18.0051789,5.09229474 18.1858105,5.13903158 L18.2401263,5.15418947 L18.2401263,5.15671579 L18.2527579,5.15924211 L18.2603368,5.16176842 L18.3070737,5.1744 C18.8704421,5.33861053 19.4072842,5.56218947 19.9112842,5.83882105 C20.4228632,6.11797895 20.9003368,6.45650526 21.3348632,6.83924211 L21.3424421,6.84682105 C21.7706526,7.22071579 22.1597053,7.64892632 22.4994947,8.11503158 C22.8380211,8.57355789 23.1247579,9.07503158 23.3609684,9.61061053 L23.3811789,9.65987368 L23.3862316,9.66997895 L23.4102316,9.72682105 L23.4367579,9.78871579 L23.4342316,9.78871579 L23.4594947,9.84934737 L23.4645474,9.85945263 L23.4670737,9.86450526 C23.5883368,10.1727158 23.6931789,10.4960842 23.7816,10.8270316 C23.8649684,11.1554526 23.9256,11.4901895 23.9685474,11.8274526 C23.9799158,11.9348211 23.9710737,12.0320842 23.9432842,12.1217684 C23.9142316,12.2177684 23.8662316,12.3036632 23.7980211,12.3781895 C23.7260211,12.4602947 23.6477053,12.5171368 23.5592842,12.5575579 C23.4721263,12.5967158 23.3773895,12.6169263 23.2700211,12.6169263 L22.9251789,12.6169263 C22.7470737,12.6169263 22.5853895,12.5499789 22.4590737,12.4400842 C22.3365474,12.3314526 22.2506526,12.1786105 22.2291789,12.0042947 C22.2051789,11.8110316 22.1698105,11.6228211 22.1293895,11.4371368 C22.0864421,11.2476632 22.0359158,11.0619789 21.9765474,10.8813474 L21.9740211,10.8725053 L21.9702316,10.8649263 L21.9702316,10.8598737 L21.9651789,10.8447158 L21.9601263,10.8396632 L21.9601263,10.8320842 C21.9272842,10.7373474 21.8957053,10.6489263 21.8679158,10.5731368 L21.8679158,10.5731368 Z M21.6279158,10.9432421 C21.6039158,10.8674526 21.5736,10.7866105 21.5394947,10.6956632 C21.5066526,10.6110316 21.4750737,10.5327158 21.4422316,10.4581895 L21.4321263,10.4341895 L21.4296,10.4341895 C21.2666526,10.0615579 21.0645474,9.70661053 20.8296,9.38324211 C20.5908632,9.05734737 20.3205474,8.75166316 20.0211789,8.47629474 L19.9896,8.44724211 L19.9832842,8.44218947 L19.9491789,8.4144 L19.8923368,8.36261053 L19.8834947,8.35503158 L19.8759158,8.34745263 L19.8708632,8.34492632 C19.5576,8.07966316 19.2178105,7.84976842 18.8590737,7.65397895 C18.4978105,7.45945263 18.1176,7.30282105 17.7222316,7.18787368 L17.7197053,7.18787368 L17.7146526,7.18534737 L17.7058105,7.18282105 L17.6982316,7.18029474 L17.6957053,7.18029474 C17.6110737,7.15755789 17.5302316,7.13608421 17.4582316,7.1184 C17.3874947,7.10324211 17.3066526,7.08303158 17.2157053,7.06661053 L17.2043368,7.06408421 L17.1967579,7.06155789 L17.1929684,7.06029474 L17.1689684,7.05524211 L17.1613895,7.05524211 C17.1070737,7.04513684 17.0540211,7.03629474 17.0047579,7.02618947 C16.9479158,7.01608421 16.8910737,7.00976842 16.8367579,7.00345263 C16.5727579,6.96934737 16.3441263,6.84176842 16.1799158,6.65482105 C16.0157053,6.4704 15.9184421,6.22534737 15.9184421,5.96134737 L15.9184421,5.61524211 C15.9184421,5.45987368 15.9487579,5.31587368 16.0081263,5.18197895 C16.0687579,5.04934737 16.1584421,4.93061053 16.2746526,4.82576842 C16.3896,4.72345263 16.5197053,4.64892632 16.6573895,4.60724211 C16.7976,4.56429474 16.9453895,4.54913684 17.0994947,4.56934737 C17.2965474,4.59208421 17.4973895,4.62618947 17.6919158,4.66408421 C17.8839158,4.70197895 18.0809684,4.74871579 18.2767579,4.80176842 L18.3336,4.81818947 L18.3474947,4.82071579 L18.3576,4.82576842 L18.4043368,4.83966316 C18.9942316,5.00766316 19.5550737,5.24387368 20.0805474,5.53187368 C20.6148632,5.82618947 21.1138105,6.17482105 21.5660211,6.57524211 L21.5736,6.58534737 C22.0220211,6.97945263 22.4262316,7.42155789 22.7824421,7.90787368 C23.1348632,8.38534737 23.4367579,8.90829474 23.6818105,9.4704 L23.7020211,9.52218947 L23.7070737,9.53229474 L23.7096,9.53608421 L23.7336,9.59292632 L23.7601263,9.65482105 L23.7853895,9.71924211 L23.7879158,9.72934737 L23.7904421,9.73692632 C23.9230737,10.0640842 24.0329684,10.3988211 24.1188632,10.7424 C24.2060211,11.0809263 24.2729684,11.4295579 24.3159158,11.7895579 C24.3348632,11.9424 24.3222316,12.0889263 24.2780211,12.2266105 C24.2350737,12.3680842 24.1605474,12.4956632 24.0582316,12.6118737 C23.9571789,12.7280842 23.8359158,12.8165053 23.7045474,12.8784 C23.5719158,12.9352421 23.4241263,12.9680842 23.2700211,12.9680842 L22.9251789,12.9680842 C22.6586526,12.9680842 22.4148632,12.8682947 22.2291789,12.7066105 C22.0434947,12.5398737 21.9159158,12.3125053 21.8818105,12.0459789 C21.8578105,11.8653474 21.8274947,11.6897684 21.7870737,11.5141895 C21.7491789,11.3373474 21.6986526,11.1630316 21.6443368,10.9912421 L21.6418105,10.9861895 L21.6392842,10.9786105 L21.6342316,10.9647158 L21.6317053,10.9533474 L21.6279158,10.9432421 Z M25.8013895,11.0076632 C25.7445474,10.6868211 25.6674947,10.3735579 25.5778105,10.0615579 L25.5778105,10.0602947 L25.5727579,10.0350316 C25.5702316,10.0312421 25.5689684,10.0261895 25.5689684,10.0211368 L25.5639158,10.0072421 L25.5613895,10.0047158 L25.5563368,9.98576842 C25.5020211,9.8064 25.4451789,9.62703158 25.3782316,9.4464 C25.3138105,9.26576842 25.2443368,9.09018947 25.1710737,8.9184 L25.1685474,8.91334737 L25.1357053,8.83755789 L25.1306526,8.82366316 L25.1306526,8.82113684 L25.0927579,8.73524211 L25.0851789,8.72387368 L25.0510737,8.64682105 L25.0485474,8.64176842 L25.0093895,8.56218947 L25.0093895,8.55713684 L25.0068632,8.55461053 L25.0093895,8.55461053 C24.7403368,7.99629474 24.4220211,7.45945263 24.0569684,6.95924211 C23.6881263,6.46029474 23.2750737,5.99545263 22.8178105,5.56976842 L22.8178105,5.56724211 L22.8064421,5.55461053 L22.7420211,5.49776842 L22.7394947,5.49524211 L22.6788632,5.4384 L22.6687579,5.43082105 L22.5992842,5.37271579 L22.5992842,5.37018947 L22.5336,5.31334737 L22.5234947,5.30324211 L22.4666526,5.25650526 L22.4641263,5.25397895 L22.3997053,5.1984 L22.3883368,5.19208421 L22.3807579,5.18450526 C21.9007579,4.78787368 21.3853895,4.44050526 20.8447579,4.14113684 C20.3041263,3.84429474 19.7331789,3.59671579 19.1420211,3.40471579 L19.1319158,3.40218947 L19.1230737,3.39966316 L19.1129684,3.39461053 L19.0371789,3.37187368 L18.9512842,3.34408421 L18.9487579,3.34282105 L18.8893895,3.32513684 L18.8818105,3.32387368 L18.8274947,3.30997895 L18.8199158,3.30745263 L18.7630737,3.28976842 C18.5799158,3.23797895 18.3942316,3.18997895 18.2098105,3.15208421 C18.0317053,3.11292632 17.8434947,3.07629474 17.6514947,3.04850526 L17.6514947,3.04597895 L17.6388632,3.04345263 L17.6249684,3.04092632 L17.6009684,3.03587368 L17.5845474,3.03334737 L17.5706526,3.03334737 L17.5681263,3.03082105 C17.4632842,3.0144 17.3546526,3.00050526 17.2422316,2.98661053 C17.1310737,2.97397895 17.0186526,2.96134737 16.9125474,2.95376842 C16.7319158,2.93861053 16.5702316,2.85524211 16.4527579,2.72892632 C16.3390737,2.60513684 16.2696,2.4384 16.2696,2.25397895 L16.2696,1.91166316 C16.2696,1.80682105 16.2872842,1.71208421 16.3251789,1.62871579 C16.3630737,1.54282105 16.4199158,1.46450526 16.4944421,1.39376842 C16.5702316,1.32682105 16.6536,1.27376842 16.7407579,1.24597895 C16.8291789,1.21313684 16.9264421,1.20303158 17.0287579,1.21061053 C17.3950737,1.24092632 17.7588632,1.28892632 18.1176,1.35082105 C18.4801263,1.41776842 18.8401263,1.49734737 19.1887579,1.59208421 C19.2291789,1.60471579 19.2632842,1.61482105 19.2936,1.62366316 L19.3037053,1.62618947 L19.3239158,1.63124211 L19.3630737,1.64261053 L19.3605474,1.64261053 L19.4211789,1.65903158 C20.1752842,1.88766316 20.8952842,2.18197895 21.5710737,2.54576842 C22.2594947,2.91461053 22.9062316,3.35166316 23.5024421,3.84682105 L23.5176,3.85566316 L23.5264421,3.86450526 C23.5693895,3.90113684 23.6199158,3.94155789 23.6742316,3.98955789 L23.7525474,4.06029474 L23.7576,4.06155789 L23.8409684,4.13608421 L23.9142316,4.20303158 L23.9824421,4.26492632 L23.9925474,4.27376842 L24.0089684,4.28766316 L24.0089684,4.29018947 C24.5723368,4.81566316 25.0877053,5.39797895 25.5449684,6.03334737 L25.5500211,6.04218947 C25.9933895,6.6624 26.3786526,7.33313684 26.6969684,8.04429474 L26.7373895,8.13397895 L26.7399158,8.14408421 L26.7538105,8.17187368 L26.7538105,8.1744 L26.7664421,8.20597895 L26.7702316,8.21482105 L26.7917053,8.26282105 C27.0317053,8.83124211 27.2300211,9.41987368 27.3790737,10.0261895 C27.5243368,10.6198737 27.6241263,11.2337684 27.6746526,11.8577684 C27.6809684,11.9600842 27.6696,12.0586105 27.6405474,12.1457684 C27.6102316,12.2316632 27.5597053,12.3150316 27.4889684,12.3908211 C27.4207579,12.4653474 27.3411789,12.5221895 27.2565474,12.5600842 C27.1706526,12.5967158 27.0784421,12.6169263 26.9736,12.6169263 L26.6312842,12.6169263 C26.4456,12.6169263 26.2788632,12.5449263 26.1538105,12.4312421 C26.0287579,12.3150316 25.9466526,12.1558737 25.9289684,11.9727158 C25.9037053,11.6493474 25.8607579,11.3285053 25.8013895,11.0076632 L25.8013895,11.0076632 Z M25.5803368,11.9992421 C25.5538105,11.6859789 25.5133895,11.3739789 25.4590737,11.0695579 C25.4022316,10.7600842 25.3277053,10.4556632 25.2430737,10.1600842 L25.2354947,10.1348211 L25.2354947,10.1322947 L25.2304421,10.1184 L25.2279158,10.1120842 L25.2216,10.0880842 L25.2190737,10.0830316 C25.1660211,9.90618947 25.1091789,9.73187368 25.0510737,9.56513684 C24.9879158,9.39587368 24.9209684,9.22408421 24.8502316,9.05734737 L24.8477053,9.05229474 L24.8148632,8.97524211 L24.8098105,8.96008421 L24.7693895,8.87545263 L24.7668632,8.86787368 L24.7340211,8.79082105 L24.7314947,8.79082105 L24.6936,8.70618947 L24.6936,8.70366316 C24.4346526,8.16303158 24.1251789,7.64892632 23.7714947,7.16892632 C23.4203368,6.68513684 23.0199158,6.23418947 22.5828632,5.82618947 L22.5689684,5.81355789 L22.5070737,5.75671579 L22.4426526,5.69987368 L22.4363368,5.69229474 L22.3693895,5.63418947 L22.3024421,5.57734737 L22.2948632,5.57229474 L22.2405474,5.52429474 L22.1748632,5.46745263 L22.1647579,5.45987368 L22.1571789,5.45355789 C21.6986526,5.07208421 21.1997053,4.73861053 20.6767579,4.44934737 C20.1538105,4.16008421 19.6030737,3.92261053 19.0321263,3.73692632 L19.0270737,3.7344 L19.0157053,3.73061053 L19.0081263,3.72808421 L18.9323368,3.70282105 L18.8514947,3.68008421 L18.7896,3.66113684 L18.7832842,3.66113684 L18.7302316,3.64345263 L18.7226526,3.64092632 L18.6683368,3.62829474 C18.4952842,3.57776842 18.3159158,3.53355789 18.1352842,3.4944 C17.9533895,3.45397895 17.7727579,3.41861053 17.5946526,3.38955789 L17.5921263,3.38955789 L17.5782316,3.38955789 L17.5731789,3.38703158 L17.5580211,3.38450526 L17.5327579,3.37945263 L17.5302316,3.37945263 L17.5163368,3.37692632 C17.4089684,3.36176842 17.3016,3.34661053 17.2018105,3.33524211 C17.0994947,3.32387368 16.9933895,3.31376842 16.8834947,3.30492632 C16.6093895,3.27966316 16.3693895,3.15713684 16.1963368,2.9664 C16.0232842,2.78197895 15.9184421,2.53061053 15.9184421,2.25397895 L15.9184421,1.91166316 C15.9184421,1.75882105 15.9474947,1.61734737 16.0043368,1.48850526 C16.0611789,1.35587368 16.1470737,1.24092632 16.2582316,1.13608421 C16.3681263,1.03503158 16.4919158,0.960505263 16.6270737,0.912505263 C16.7622316,0.865768421 16.9049684,0.849347368 17.0540211,0.860715789 C17.4354947,0.892294737 17.8081263,0.941557895 18.1769684,1.00471579 C18.5470737,1.0704 18.9184421,1.15629474 19.2822316,1.25608421 C19.3125474,1.26618947 19.3504421,1.27629474 19.3908632,1.28892632 L19.3984421,1.28892632 L19.4199158,1.29650526 L19.4578105,1.30787368 L19.4603368,1.30787368 L19.5222316,1.32682105 C20.2965474,1.55545263 21.0380211,1.86366316 21.7352842,2.23755789 C22.4477053,2.61776842 23.1133895,3.06618947 23.7260211,3.57524211 L23.7399158,3.58661053 C23.7424421,3.58913684 23.7474947,3.59418947 23.7525474,3.59671579 C23.8093895,3.64597895 23.8624421,3.69018947 23.9041263,3.72808421 L23.9799158,3.79503158 L23.9900211,3.80008421 L24.0733895,3.87461053 L24.0733895,3.87713684 L24.0733895,3.87461053 L24.1466526,3.94155789 L24.1517053,3.94408421 L24.2211789,4.00724211 L24.2300211,4.01734737 L24.2464421,4.03376842 C24.8287579,4.5744 25.3618105,5.1744 25.8291789,5.82871579 L25.8342316,5.83882105 C26.2902316,6.47797895 26.6881263,7.16892632 27.0152842,7.90155789 L27.0557053,7.99629474 L27.0607579,8.0064 L27.0759158,8.03418947 L27.0898105,8.06703158 L27.0923368,8.07713684 L27.1125474,8.12387368 C27.3626526,8.70871579 27.5647579,9.31755789 27.7188632,9.94282105 C27.8691789,10.5579789 27.9714947,11.1882947 28.0232842,11.8299789 C28.0359158,11.9802947 28.0169684,12.1242947 27.9714947,12.2607158 C27.9234947,12.3933474 27.8477053,12.5171368 27.7453895,12.6295579 C27.6456,12.7407158 27.5268632,12.8240842 27.3954947,12.8809263 C27.2653895,12.9402947 27.1251789,12.9680842 26.9736,12.9680842 L26.6312842,12.9680842 C26.3546526,12.9680842 26.1045474,12.8607158 25.9150737,12.6889263 C25.7281263,12.5171368 25.6043368,12.2733474 25.5803368,11.9992421 L25.5803368,11.9992421 Z M17.8460211,12.6169263 C18.2830737,12.6169263 18.6784421,12.4400842 18.9613895,12.1558737 L18.9626526,12.1558737 C19.2481263,11.8704 19.4237053,11.4762947 19.4237053,11.0392421 C19.4237053,10.6009263 19.2481263,10.2068211 18.9626526,9.92134737 L18.9613895,9.92134737 C18.6784421,9.6384 18.2830737,9.46029474 17.8460211,9.46029474 C17.4114947,9.46029474 17.0161263,9.6384 16.7319158,9.92134737 C16.4464421,10.2068211 16.2696,10.6009263 16.2696,11.0392421 C16.2696,11.4762947 16.4464421,11.8704 16.7319158,12.1558737 C17.0161263,12.4400842 17.4114947,12.6169263 17.8460211,12.6169263 L17.8460211,12.6169263 Z" id="Fill-10"></path>
            <path d="M17.8460211,8.85913684 C18.3659693,8.85913684 18.8593266,9.04398482 19.2454932,9.37007816 L19.3851236,9.49889887 L19.334,9.549 L19.3870083,9.49951804 C19.7028023,9.81531204 19.9124599,10.2163877 19.9900462,10.6550986 L20.0151359,10.8452829 L20.0236,11.0392421 C20.0236,11.4947699 19.8841432,11.9276785 19.6245994,12.2956932 L19.5060706,12.4493175 L19.3945973,12.5710364 L19.382,12.576 C19.0705121,12.8934003 18.6675547,13.1054631 18.2291624,13.184061 L18.0392738,13.2094925 L17.8460211,13.2180842 C17.2645161,13.2180842 16.7162783,12.9847356 16.3072419,12.5786474 C15.900486,12.170423 15.6684421,11.6234892 15.6684421,11.0392421 C15.6684421,10.5196835 15.8512186,10.029749 16.1760173,9.64104056 L16.3043945,9.50015969 C16.6242229,9.18257866 17.0266629,8.97125433 17.4638749,8.89299703 L17.6532409,8.86768331 L17.8460211,8.85913684 Z M17.0730336,0.611439794 L17.4520365,0.648647784 C17.7052919,0.677378952 17.9603132,0.713980244 18.2206544,0.758562304 C18.4655645,0.802027592 18.7150553,0.854853941 18.9659256,0.915917003 L19.3612885,1.01891339 L19.3899054,1.03100104 L19.3908632,1.03892632 L19.4816471,1.05317873 L19.4917528,1.05704869 L19.4578105,1.05787368 L19.5335154,1.0688237 L19.5930272,1.08705455 C20.3740741,1.31767362 21.1319037,1.63033096 21.8529922,2.01700214 C22.4324907,2.32627352 22.9836884,2.68081031 23.5019153,3.0769268 L23.91628,3.40779352 L24.069635,3.54071591 L24.0917192,3.57142478 L24.1566372,3.61370004 L24.2420322,3.69005806 L24.258456,3.7179511 L24.3198735,3.75909919 L24.4165396,3.85055589 C24.9189214,4.31697537 25.3792092,4.82095266 25.802911,5.3769534 L26.0377464,5.69362567 C26.31974,6.08888534 26.5782852,6.50117326 26.8118522,6.92867981 L27.0370365,7.36119221 L27.2452288,7.80344822 L27.2802318,7.88668697 L27.3061576,7.93677948 L27.3218011,7.97790905 L27.3424106,8.02557364 C27.5964651,8.61965062 27.8033822,9.24104853 27.961718,9.88347869 C28.1158875,10.5144077 28.2198554,11.1579106 28.2724062,11.8090443 C28.2876547,11.9905026 28.265742,12.1685433 28.2065736,12.3457919 C28.1471858,12.5098896 28.0541115,12.6617682 27.9314231,12.7965654 C27.8091547,12.9327631 27.6615123,13.0382219 27.4992781,13.1083664 C27.3778233,13.1637876 27.2489219,13.1977932 27.1125133,13.2113323 L26.9736,13.2180842 L26.6312842,13.2180842 C26.3006069,13.2180842 25.9890608,13.0934658 25.7459174,12.8730082 C25.5092795,12.6555572 25.3602879,12.3522382 25.3312283,12.020336 C25.3051514,11.7123793 25.2655321,11.4081159 25.2131869,11.1147208 C25.1781537,10.9239843 25.1352195,10.7298079 25.0848025,10.5318165 L25.0005464,10.2177305 L24.9796171,10.1548686 C24.9289691,9.98604186 24.8735471,9.81541679 24.816848,9.65253447 L24.6861928,9.31426614 L24.572,9.04 L24.464,8.803 L24.3114209,8.49978906 C24.2030135,8.29385349 24.0867791,8.09194077 23.9629828,7.89446726 L23.7716503,7.60163844 L23.5691737,7.31578072 C23.297483,6.94147294 22.9940489,6.58543792 22.6656086,6.25453358 L22.3998672,5.99769037 L22.1637671,5.78535994 L22.1293137,5.75962701 L22.0047118,5.651929 C21.5631341,5.2845455 21.0804632,4.95834992 20.5557512,4.66811064 C20.151344,4.44441684 19.7276208,4.25133684 19.2700625,4.08260993 L18.8646504,3.94348379 L18.7783162,3.9191342 L18.7896,3.91113684 L18.7042273,3.89830767 L18.656,3.882 L18.5982696,3.86827511 L18.4345834,3.82286994 L18.2623248,3.77966948 L17.8179682,3.68296494 L17.5946526,3.63955789 L17.5782316,3.63955789 L17.4664282,3.61316469 L17.514,3.627 L17.1742026,3.58371304 L16.8605505,3.55387121 C16.5282068,3.52324045 16.2289907,3.37444772 16.0140304,3.13746834 C15.8247576,2.93576154 15.7060509,2.67611286 15.6759974,2.39572746 L15.6684421,2.25397895 L15.6684421,1.91166316 C15.6684421,1.72525784 15.7042605,1.54931492 15.7745506,1.39002544 C15.8439065,1.22819501 15.9479656,1.08506537 16.0890133,0.952059305 C16.2229471,0.828901806 16.3756443,0.73650041 16.5453719,0.676232504 C16.6704568,0.632978854 16.8011561,0.610260526 16.9363639,0.607529156 L17.0730336,0.611439794 Z M16.9930419,4.31080967 L17.1320032,4.32146999 L17.3219751,4.34646417 C17.4524561,4.36561325 17.5910376,4.38973341 17.740324,4.4188157 C17.8699905,4.44440777 18.003155,4.47415264 18.1394347,4.50792541 L18.3461428,4.56158988 L18.4728131,4.59922397 C19.067758,4.76866225 19.646167,5.0087134 20.2011661,5.31289626 C20.6450309,5.55738915 21.0623008,5.83671649 21.4657889,6.16737033 L21.7660211,6.42524211 L21.739,6.398 L22.010475,6.64721557 C22.1879858,6.81754082 22.3580215,6.99559562 22.5203005,7.18106608 L22.7578663,7.4647943 L22.9835856,7.75941061 C23.2756835,8.15515611 23.533014,8.57962806 23.754924,9.03354475 L23.9147049,9.37951438 L23.9214949,9.40247644 L23.9399124,9.4388412 L23.9928696,9.56354917 L24.1518658,9.98533325 C24.2327877,10.2147054 24.3025417,10.4463461 24.3609677,10.6800671 C24.452761,11.0365975 24.5207365,11.3959898 24.5640167,11.7588016 C24.5873733,11.947212 24.5715227,12.1302872 24.5172412,12.2992309 C24.4643179,12.4735666 24.3730091,12.6326712 24.246883,12.7759184 C24.1254687,12.9155448 23.9773978,13.0262042 23.8030272,13.1081863 C23.6774964,13.1619852 23.5440834,13.1969033 23.4074944,13.2109999 L23.2700211,13.2180842 L22.9251789,13.2180842 C22.6054078,13.2180842 22.301875,13.1014036 22.0621476,12.8926227 C21.8266235,12.6811317 21.6747001,12.3970834 21.6339884,12.0789064 C21.6098854,11.8974992 21.5804613,11.7310599 21.5426231,11.5665717 L21.4869639,11.337205 L21.42073,11.1030455 L21.4043359,11.0640463 L21.3365148,10.8667866 L21.253,10.655 L21.2005428,10.5343534 C21.1223197,10.3554711 21.0348517,10.1812729 20.9390961,10.0134728 L20.7893668,9.76678562 L20.6279242,9.53098134 C20.4531528,9.29240445 20.2631134,9.06824886 20.0597067,8.86133696 L19.825366,8.63599822 L19.7808064,8.59919908 L19.714,8.538 C19.5632295,8.41145615 19.4071907,8.29313303 19.2451607,8.18260894 L18.9975322,8.02261937 L18.7405487,7.87409672 C18.4621266,7.72417714 18.1734599,7.59855603 17.9123277,7.50341646 L17.7197053,7.43787368 L17.677,7.427 L17.634,7.422 L17.4058493,7.3628506 L17.129,7.302 L16.9031816,7.26332478 L16.8101246,7.25202992 L16.6735803,7.22733702 C16.4057001,7.1646112 16.1704757,7.02289437 15.9932046,6.82107071 C15.8148791,6.62079737 15.7036534,6.36784653 15.675514,6.09769329 L15.6684421,5.96134737 L15.6684421,5.61524211 C15.6684421,5.42619612 15.705578,5.24755295 15.7807577,5.07803901 C15.8554795,4.91458513 15.965309,4.76814578 16.1084343,4.63902935 C16.2502254,4.5128197 16.4121823,4.42027294 16.5841707,4.36820442 C16.7178438,4.32725951 16.8545948,4.30772998 16.9930419,4.31080967 Z M17.8460211,9.71029474 C17.491056,9.71029474 17.1555609,9.85235376 16.9086925,10.0981241 C16.6607775,10.3460391 16.5196,10.6800103 16.5196,11.0392421 C16.5196,11.3973576 16.6608744,11.7312789 16.9086925,11.979097 C17.1549175,12.225322 17.4900009,12.3669263 17.8460211,12.3669263 C18.1531432,12.3669263 18.4431378,12.2630044 18.6739437,12.0784059 L18.786,11.978 L18.8851896,11.8680399 C19.0395097,11.6747079 19.1369877,11.4416827 19.1651937,11.191344 L19.1737053,11.0392421 C19.1737053,10.6792088 19.0331559,10.345404 18.7858759,10.0981241 C18.5738213,9.88733261 18.2972816,9.7529621 17.9975956,9.71887239 L17.8460211,9.71029474 Z M16.8167013,1.48416501 C16.7693466,1.4992636 16.7155056,1.53206331 16.6665487,1.57509499 C16.6148571,1.62415821 16.5777679,1.67554439 16.5527706,1.73216653 C16.5383126,1.76397395 16.5283895,1.80088771 16.5233805,1.84346942 L16.5196,1.91166316 L16.5196,2.25397895 C16.5196,2.3705825 16.5619995,2.47827724 16.6358258,2.55867316 C16.7141452,2.64288754 16.8193662,2.69507033 16.9303591,2.70440375 L17.074306,2.7168583 L17.4592478,2.76239326 L17.6878922,2.79830746 C17.8779329,2.82863518 18.0694363,2.86525089 18.2601291,2.90720048 C18.3777336,2.9313658 18.4990182,2.96004689 18.6308422,2.99461512 L18.9229103,3.0772752 L18.9607586,3.08554042 L19.0605613,3.11921425 L19.0282393,3.10622308 L19.2192466,3.16694234 C19.8231031,3.36306666 20.4086376,3.61647301 20.9658648,3.92242901 C21.4155571,4.17144084 21.84266,4.4498258 22.2529138,4.76465904 L22.542,4.995 L22.5630136,5.00911082 L22.7628784,5.1811473 L22.763,5.184 L22.8498484,5.2560157 L22.9922656,5.38736934 C23.4553425,5.82176194 23.8787889,6.29765362 24.2589096,6.81186584 C24.5546294,7.21707364 24.823098,7.64934781 25.0614913,8.10244775 L25.234603,8.44608003 L25.407379,8.80461053 L25.394,8.804 L25.5114879,9.08992401 L25.612649,9.35951802 C25.6433604,9.44238087 25.6723677,9.52557459 25.7023494,9.61668508 L25.7988641,9.92180634 L25.8189684,10.0211368 L25.8179031,9.98600255 C25.9171026,10.3371067 25.9924852,10.6532067 26.0472164,10.9621755 C26.1088621,11.2953245 26.1525414,11.6246988 26.1778112,11.9486896 C26.1892372,12.0670296 26.2408055,12.1708029 26.3219787,12.2462571 C26.3857185,12.3042024 26.4626972,12.3431062 26.5460546,12.3589365 L26.6312842,12.3669263 L26.9736,12.3669263 C27.0415527,12.3669263 27.1006316,12.3547923 27.1543812,12.3319131 C27.2091796,12.3073764 27.2604338,12.2702328 27.3062046,12.2202415 C27.3526797,12.1704467 27.3856095,12.1169358 27.4033765,12.0667115 C27.4217533,12.0115812 27.42957,11.945139 27.4254682,11.8779453 C27.3762827,11.2705044 27.2791386,10.6696388 27.1363019,10.0858709 C27.02867,9.64804595 26.893514,9.21454209 26.7327415,8.78843717 L26.5635007,8.36491257 L26.5343229,8.29882662 L26.5302037,8.28367708 L26.4687837,8.14643069 C26.2206568,7.59208368 25.930142,7.06099816 25.5938323,6.54782709 L25.3420542,6.17938104 C24.9869267,5.68593036 24.5936717,5.22195415 24.1657932,4.79047589 L23.8144446,4.45006639 L23.593,4.25 L23.362,4.052 L23.3427169,4.03914329 C22.8733885,3.64936215 22.374264,3.29818877 21.850211,2.98944344 L21.4525733,2.76589941 C20.9301544,2.48467205 20.3755804,2.2432002 19.7955328,2.04285981 L19.3558251,1.90033817 L19.2951935,1.88391712 L19.296,1.873 L19.2933711,1.88269708 L19.1232005,1.83333558 C18.7933704,1.74370784 18.4424656,1.66504074 18.0750942,1.59718107 C17.8339449,1.55557433 17.5954817,1.52122372 17.3597298,1.49437492 L17.0081387,1.45975878 C16.9384851,1.45460858 16.8777767,1.46177416 16.8167013,1.48416501 Z M16.8343693,5.17881877 C16.7828234,5.19435315 16.7268136,5.22721501 16.6750103,5.27128401 C16.6182338,5.32348176 16.5800099,5.37410809 16.5551822,5.4284185 C16.5398971,5.46194709 16.5291778,5.50161329 16.52373,5.54579224 L16.5196,5.61524211 L16.5196,5.96134737 C16.5196,6.07301935 16.5597505,6.17838794 16.6326492,6.2597129 C16.6860377,6.32117174 16.7541514,6.36597202 16.8355196,6.39047938 L17.0866816,6.43413959 L17.1726002,6.44625773 L17.2944388,6.46957202 L17.269,6.468 L17.3188366,6.47459339 L17.5105239,6.51445214 L17.7402096,6.57034934 L17.8863628,6.60954012 L18.0417053,6.6545436 L18.041,6.659 L18.2105934,6.71414398 C18.4246725,6.78930402 18.6345524,6.87527303 18.8399348,6.97181522 L19.1445978,7.12452891 C19.4567815,7.29310813 19.7582036,7.49094133 20.0188628,7.69739544 L20.2062455,7.85353004 L20.28,7.906 L20.2875512,7.90967019 L20.3469196,7.96272282 L20.351,7.972 L20.3565445,7.97717097 L20.3947417,8.00653252 L20.4241839,8.03352504 C20.7537326,8.33275526 21.0534049,8.66951403 21.3134682,9.03283076 C21.5081279,9.3004878 21.6822893,9.58572139 21.836764,9.89006739 L21.9895147,10.2138203 L22.050089,10.3556088 L22.1400162,10.5930694 L22.184,10.736 L22.2023498,10.7656588 L22.205,10.78 L22.2116629,10.7948756 C22.2536639,10.9234503 22.2911729,11.0519779 22.3251742,11.1836633 L22.3736686,11.3839604 C22.4203382,11.598349 22.4541637,11.7873924 22.4773033,11.9737287 C22.4906565,12.0821251 22.5437072,12.1810116 22.6231651,12.2514734 C22.6876169,12.3075466 22.7626679,12.3444522 22.8431196,12.3594005 L22.9251789,12.3669263 L23.2700211,12.3669263 C23.341236,12.3669263 23.4012395,12.3544914 23.4553443,12.3301893 C23.5142316,12.3032693 23.5632106,12.266779 23.6136028,12.2093999 C23.6556876,12.1634184 23.6854194,12.1107562 23.7044854,12.0477744 C23.7222048,11.9905891 23.7277193,11.9272745 23.72055,11.8590328 C23.6772678,11.5191405 23.6173898,11.196227 23.5400719,10.891562 C23.4745002,10.6461365 23.4005569,10.4083153 23.3226001,10.1890218 L23.2409406,9.97125603 L23.122,9.69 L22.9876796,9.40141811 C22.8375052,9.09627093 22.6704705,8.80600791 22.4867511,8.53151106 L22.2974766,8.26230228 C22.03238,7.89865676 21.7380611,7.56116844 21.4141516,7.25104272 L21.1656654,7.02359775 C20.7425314,6.65065905 20.2795645,6.32458267 19.7909943,6.05797932 C19.3977913,5.84216114 18.9861774,5.66089705 18.5621248,5.51680205 L18.2418464,5.41574085 L18.1794924,5.39925141 L18.173,5.391 L17.9304962,5.33258421 L17.5787967,5.25336252 L17.2797486,5.20084014 C17.2350809,5.19374379 17.1924081,5.18740127 17.1508423,5.18170026 L17.0266431,5.16618398 C16.9512397,5.15709923 16.888566,5.16131765 16.8343693,5.17881877 Z" id="Stroke-11" fill-rule="nonzero"></path>
        </g>
    </g>
</svg>