<?xml version="1.0" encoding="UTF-8"?>
<svg width="32px" height="32px" viewBox="0 0 32 32" version="1.1" xmlns="http://www.w3.org/2000/svg" xmlns:xlink="http://www.w3.org/1999/xlink">
    <title>Icn / Amenity / Entertainment / Cell Signal Booster</title>
    <g id="Icn-/-Amenity-/-Entertainment-/-Cell-Signal-Booster" stroke="none" stroke-width="1" fill="none" fill-rule="evenodd">
        <g id="Group" transform="translate(4.000000, 8.000000)" fill="#13284C">
            <path d="M2.7426,8.0743 C2.7426,10.1743 3.4246,12.2763 4.7916,14.0153 C4.9336,14.1953 4.9946,14.4183 4.9806,14.6313 C4.9636,14.8463 4.8696,15.0573 4.6976,15.2113 L4.0606,15.8043 C3.9696,15.8943 3.8636,15.9563 3.7506,15.9973 C3.6386,16.0353 3.5216,16.0523 3.3966,16.0433 L3.3906,16.0433 C3.2656,16.0313 3.1466,16.0003 3.0416,15.9413 C2.9356,15.8863 2.8406,15.8083 2.7626,15.7093 C0.9866,13.4803 0.0996,10.7743 0.0996,8.0703 C0.1016,5.3673 0.9926,2.6633 2.7696,0.4343 C2.8496,0.3363 2.9436,0.2573 3.0496,0.2023 C3.1566,0.1473 3.2716,0.1123 3.3986,0.1013 C3.5236,0.0953 3.6446,0.1093 3.7586,0.1493 C3.8716,0.1873 3.9746,0.2543 4.0686,0.3403 L4.7056,0.9363 C4.8736,1.0943 4.9676,1.3033 4.9846,1.5163 C5.0006,1.7293 4.9396,1.9533 4.7976,2.1303 C3.4286,3.8723 2.7446,5.9713 2.7426,8.0743 M17.2096,8.0813 C17.2096,9.2593 16.8616,10.4393 16.1746,11.4563 C16.1176,11.5343 16.0976,11.6263 16.1096,11.7163 C16.1196,11.8053 16.1606,11.8873 16.2346,11.9543 L16.7936,12.4573 C16.8346,12.4963 16.8776,12.5193 16.9226,12.5363 L16.9306,12.5403 C16.9786,12.5542298 17.0336,12.5573 17.0926,12.5513 C17.1486,12.5473 17.1996,12.5303 17.2446,12.5033 C17.2876,12.4753 17.3266,12.4403 17.3596,12.3933 C18.2636,11.1023 18.7156,9.5923 18.7176,8.0813 C18.7176,6.5703 18.2656,5.0563 17.3636,3.7653 C17.3326,3.7203 17.2976,3.6863 17.2566,3.6593 L17.2466,3.6553 C17.2036,3.6283 17.1526,3.6133 17.0966,3.6043 C17.0396,3.6003 16.9906,3.6003 16.9436,3.6173 L16.9356,3.6173 C16.8876,3.6363 16.8426,3.6633 16.7996,3.6993 L16.2366,4.2053 C16.1666,4.2673 16.1236,4.3513 16.1136,4.4413 C16.1016,4.5313 16.1216,4.6203 16.1766,4.7033 C16.8656,5.7193 17.2096,6.9003 17.2096,8.0813 M15.7546,11.1743 C15.6296,11.3583 15.5806,11.5713 15.6056,11.7783 C15.6316,11.9833 15.7286,12.1823 15.8966,12.3313 L16.4556,12.8353 C16.5456,12.9173 16.6506,12.9753 16.7636,13.0133 L16.7756,13.0213 C16.8946,13.0573 17.0196,13.0693 17.1466,13.0543 C17.2776,13.0413 17.3966,12.9993 17.5006,12.9383 C17.6076,12.8773 17.6976,12.7913 17.7756,12.6843 C18.7386,11.3033 19.2216016,9.6943 19.2216016,8.0813 C19.2226,6.4663 18.7406,4.8533 17.7776,3.4763 C17.7096,3.3743 17.6216,3.2913 17.5216,3.2283 L17.5086,3.2203 C17.4006,3.1573 17.2816,3.1153 17.1526,3.1023 C17.0296,3.0883 16.9106,3.0983 16.7976,3.1343 L16.7816,3.1373 C16.6626,3.1743 16.5566,3.2363 16.4596,3.3263 L15.8966,3.8283 C15.7326,3.9743 15.6356,4.1743 15.6096,4.3793 C15.5846,4.5863 15.6336,4.8023 15.7586,4.9833 C16.3906,5.9153 16.7036,6.9993 16.7036,8.0813 C16.7036,9.1613 16.3886,10.2433 15.7546,11.1743 M21.2776,8.0813 C21.2776,10.2913 20.5546,12.5053 19.1156,14.3363 C19.0536,14.4113 19.0256,14.5083 19.0336,14.5993 C19.0416,14.6933 19.0806,14.7833 19.1546,14.8463 L19.7916,15.4433 C19.8306,15.4783 19.8736,15.5063 19.9166,15.5243 L19.9246,15.5263 C19.9726,15.5413 20.0236,15.5483 20.0806,15.5453 C20.1356,15.5413 20.1856,15.5263 20.2306,15.5023 C20.2716,15.4823 20.3086,15.4513 20.3406,15.4143 L20.3476,15.4033 C22.0546,13.2683 22.9086,10.6763 22.9106035,8.0813 C22.9126,5.4883 22.0586,2.8953 20.3556,0.7573 C20.3206,0.7133 20.2816,0.6783 20.2366,0.6583 C20.1936,0.6353 20.1426,0.6203 20.0866,0.6163 C20.0296,0.6143 19.9766,0.6163 19.9316,0.6353 C19.8856,0.6513 19.8406,0.6783 19.7996,0.7173 L19.1606,1.3133 C19.0886,1.3803 19.0496,1.4683 19.0416,1.5573 C19.0336,1.6503 19.0586,1.7463 19.1216,1.8243 C20.5586,3.6553 21.2776,5.8693 21.2776,8.0813 M18.7176,14.0223 C20.0866,12.2833 20.7716,10.1813 20.7716,8.0813 C20.7736,5.9793 20.0906,3.8793 18.7226,2.1373 C18.5806,1.9563 18.5176,1.7363 18.5356,1.5223 C18.5516,1.3063 18.6466,1.0973 18.8146,0.9443 L19.4536,0.3453 C19.5476,0.2593 19.6486,0.1983 19.7636,0.1563 C19.8776,0.1203 19.9986,0.1013 20.1236,0.1123 C20.2506,0.1203 20.3676,0.1533 20.4726,0.2083 C20.5786,0.2663 20.6726,0.3423 20.7526,0.4423 C22.5276,2.6743 23.4166,5.3793 23.4146034,8.0813 C23.4126,10.7853 22.5236,13.4923 20.7446,15.7193 C20.7406,15.7213 20.7366,15.7293 20.7286,15.7363 C20.6546,15.8283 20.5646,15.9013 20.4676,15.9533 C20.3596,16.0083 20.2446,16.0433 20.1156,16.0483 C19.9906,16.0583 19.8696,16.0433 19.7566,16.0043 L19.7406,15.9973 C19.6336,15.9563 19.5336,15.8943 19.4476,15.8153 L18.8106,15.2193 C18.6406,15.0593 18.5476,14.8503 18.5316,14.6373 C18.5136,14.4263 18.5746,14.2023 18.7176,14.0223 M13.9336,10.2133 C13.3736,10.7693 12.6016,11.1153 11.7506,11.1153 C10.8966,11.1153 10.1256,10.7693 9.5666,10.2093 C9.0106,9.6483 8.6626,8.8823 8.6646,8.0263 L8.6626,8.0263 L8.6646,8.0263 C8.6646,7.1753 9.0106,6.4023 9.5686,5.8423 C10.1276,5.2853 10.9006,4.9393 11.7526,4.9393 C12.6036,4.9393 13.3776,5.2853 13.9356,5.8453 C14.4926,6.4063 14.8386,7.1783 14.8386,8.0303 C14.8386,8.8823 14.4906,9.6523 13.9336,10.2133 M11.7506,10.6083026 C12.4636,10.6093 13.1096,10.3223 13.5766,9.8513 C14.0436,9.3883 14.3326,8.7443 14.3326,8.0303 C14.3326,7.3153 14.0436,6.6703 13.5766,6.2023 C13.1116,5.7353 12.4636,5.4443 11.7526,5.4443 L11.7526,5.4483 L11.7526,5.4443 C11.0396,5.4443 10.3926,5.7353 9.9266,6.2023 C9.4596,6.6663 9.1706,7.3153 9.1706,8.0263 C9.1706,8.7403 9.4576,9.3853 9.9246,9.8513 C10.3906,10.3183 11.0376,10.6083026 11.7506,10.6083026 M6.8086,8.0743 C6.8086,9.1563 7.1256,10.2363 7.7566,11.1703 C7.8816,11.3513 7.9296,11.5693 7.9046,11.7743 C7.8816,11.9733 7.7876,12.1623 7.6336,12.3103 C7.6276,12.3163 7.6216,12.3203 7.6176,12.3273 L7.0546,12.8293 C6.9596,12.9153 6.8496,12.9793 6.7326,13.0173 C6.6136,13.0533 6.4906,13.0653 6.3616,13.0533 C6.2326,13.0343 6.1156,12.9973 6.0066,12.9313 L6.0086,12.9313 C5.9006,12.8693 5.8106,12.7833 5.7366,12.6773 C4.7716,11.3003 4.2916,9.6863 4.29359378,8.0743 C4.29359378,6.4663 4.7716,4.8603 5.7306,3.4873 L5.7406,3.4703 C5.8146,3.3623 5.9046,3.2783 6.0126,3.2163 C6.1176,3.1503 6.2366,3.1133 6.3656,3.0983 L6.3676,3.0983 C6.4966,3.0863 6.6196,3.0953 6.7386,3.1343 C6.8536,3.1703 6.9636,3.2323 7.0606,3.3183 L7.6196,3.8243 C7.7836,3.9743 7.8856,4.1703 7.9086,4.3773 C7.9316,4.5823 7.8856,4.7953 7.7606,4.9813 C7.1276,5.9113 6.8086,6.9923 6.8086,8.0743 M7.3386,11.4523 C6.6506,10.4353 6.3056,9.2553 6.3056,8.0743 C6.3066,6.8963 6.6526,5.7163 7.3426,4.6993 C7.3946,4.6203 7.4186,4.5233 7.4046,4.4333 C7.3946,4.3493 7.3516,4.2633 7.2796,4.2013 L6.7216,3.6963 C6.6786,3.6553 6.6316,3.6283 6.5846,3.6133 C6.5356,3.5963 6.4806,3.5943 6.4226,3.6003 C6.3676,3.6083 6.3126,3.6243 6.2716,3.6523 C6.2266,3.6763 6.1876,3.7143 6.1546,3.7623 L6.1446,3.7723 C5.2486,5.0593 4.7976,6.5673 4.7976,8.0743 C4.7976,9.5843 5.2486,11.0983 6.1506,12.3893 C6.1836,12.4373 6.2226,12.4713 6.2676,12.4993 C6.3086,12.5233 6.3616,12.5403 6.4186,12.5473 C6.4786,12.5543 6.5316,12.5513 6.5806,12.5323 C6.6276,12.5193 6.6726,12.4923 6.7176,12.4503 L7.2776,11.9503 L7.2876,11.9393 C7.3536,11.8773 7.3906,11.7953 7.4026,11.7123 C7.4126,11.6243 7.3926,11.5313 7.3386,11.4523 M4.3946,14.3293 C2.9536,12.4993 2.2346,10.2843 2.2366,8.0743 C2.2366,5.8603 2.9576,3.6483 4.4006,1.8193 C4.4596,1.7403 4.4866,1.6473 4.4806,1.5533 C4.4746,1.4623 4.4316,1.3723 4.3596,1.3063 L3.7226,0.7103 C3.6816,0.6713 3.6376,0.6433 3.5906,0.6273 C3.5436,0.6103 3.4926,0.6033 3.4336,0.6103 C3.3776,0.6143 3.3286,0.6273 3.2836,0.6473 C3.2386,0.6713 3.1976,0.7063 3.1646,0.7523 L3.1666,0.7523 C1.4616,2.8873 0.6056,5.4773 0.6056,8.0703 C0.6056,10.6653 1.4556,13.2583 3.1586,15.3963 C3.1956,15.4383 3.2346,15.4713 3.2776,15.4973 C3.3206,15.5203 3.3736,15.5333 3.4286,15.5373 L3.4296,15.5373 L3.4336,15.5373 C3.4886,15.5413 3.5376,15.5333 3.5826,15.5203 C3.6316,15.5023 3.6766,15.4743 3.7176,15.4383 L4.3556,14.8403 C4.4286,14.7753 4.4696,14.6853 4.4746,14.5933 C4.4826,14.5013 4.4556,14.4073 4.3946,14.3293" id="Fill-1"></path>
            <path d="M20.1323661,0.0126849656 L20.2671684,0.0304645095 C20.3554554,0.0484178401 20.4403644,0.0785326028 20.5206011,0.120573776 C20.6414182,0.186681232 20.7445628,0.272175428 20.8308679,0.380057406 C22.5852219,2.58609584 23.5166591,5.29935329 23.5146135,8.08137409 C23.5125377,10.8694212 22.5788655,13.583338 20.7893214,15.8087427 L20.8146735,15.7908998 L20.7195981,15.8932992 C20.657728,15.9519752 20.5882953,16.0020519 20.5129802,16.0424102 C20.3860845,16.1070331 20.2573012,16.1428828 20.1235745,16.1479815 C20.0313751,16.1553575 19.9407079,16.1504492 19.8508317,16.1325637 L19.7165181,16.0959157 L19.7048191,16.0906795 C19.6254917,16.060283 19.549819,16.0195855 19.479805,15.9697598 L19.3792784,15.8883216 L18.7420635,15.29212 C18.5584705,15.1193266 18.4502396,14.8891904 18.4319619,14.6457999 C18.4112576,14.4030992 18.4842012,14.1553271 18.6390262,13.960444 C19.9668687,12.2737252 20.6716,10.2043007 20.6716,8.08120485 C20.6736211,5.95708687 19.9713581,3.88936964 18.6439229,2.19902455 C18.4886511,2.00110765 18.4155188,1.75684555 18.4358732,1.51491283 C18.4510935,1.30943911 18.5298617,1.11478135 18.6611919,0.959533491 L18.7462097,0.871342719 L19.3860987,0.271519459 C19.4890081,0.177368248 19.6010939,0.109189571 19.7334869,0.0609417335 C19.823137,0.0326311569 19.9119986,0.015469507 20.0003016,0.0106080642 L20.1323661,0.0126849656 Z M3.39380552,0.00141500132 C3.53568141,-0.00539504152 3.66857285,0.0117344166 3.7904743,0.0545158837 C3.8721571,0.0819844333 3.95040706,0.123014151 4.02583052,0.176898712 L4.13692163,0.267278393 L4.77410941,0.863454546 C4.95603489,1.03455112 5.06483712,1.26469847 5.08431906,1.50880937 C5.10271916,1.75376076 5.029559,2.00097131 4.87622557,2.19209013 C3.54834823,3.88176312 2.84462198,5.94823636 2.8426,8.0743 C2.8426,10.1988147 3.54512964,12.2678172 4.8701106,13.9533639 C5.02331222,14.1475631 5.09647277,14.3930899 5.08028886,14.6391824 C5.06392383,14.8461518 4.98445219,15.0416669 4.8517023,15.196621 L4.76573761,15.2844933 L4.13091894,15.8754003 C4.03324051,15.9720053 3.91681939,16.0433692 3.78272963,16.0919979 C3.72649244,16.1110783 3.66975233,16.1251396 3.61024951,16.1341334 L3.51864076,16.1438177 L3.38104393,16.1428424 C3.23547464,16.1288677 3.10556906,16.0919501 2.99554384,16.0300628 C2.87569511,15.9678771 2.76998255,15.8802544 2.68439004,15.7716153 C0.93068209,13.5705934 -0.000399972626,10.8573415 -0.000399972626,8.07022601 C0.00165994532,5.2862469 0.935603227,2.57437565 2.69213388,0.371062351 C2.78158597,0.261483541 2.88641901,0.174309544 3.00388398,0.113361563 C3.08478019,0.0717793969 3.16853596,0.0412732248 3.25596667,0.0220410403 L3.39380552,0.00141500132 Z M20.0108639,0.210397753 C19.9398659,0.214252485 19.8688297,0.227902982 19.7979054,0.250231555 C19.7288447,0.275453752 19.6660276,0.308068446 19.6072952,0.349446447 L19.5219903,0.418257281 L18.881933,1.01823424 C18.736908,1.15031053 18.6498604,1.33348287 18.6352481,1.53068162 C18.6190522,1.72323337 18.6771873,1.91740472 18.8012475,2.07553779 C20.1565795,3.80140641 20.8736634,5.91276177 20.8716,8.0813 C20.8716,10.2488152 20.1520067,12.3618818 18.7958986,14.0845039 C18.6728554,14.2393835 18.6148314,14.4364771 18.6313191,14.6298094 C18.6430367,14.7858003 18.7005839,14.9343805 18.7982443,15.0582653 L18.8789216,15.1462784 L19.51525,15.7416557 C19.5663163,15.7885655 19.6229644,15.8288044 19.6845888,15.8617689 L19.7806819,15.9056843 L19.8892098,15.9359557 C19.9617026,15.9506336 20.0349429,15.9544613 20.1117269,15.948375 C20.2194322,15.9442004 20.3201777,15.9161556 20.4203526,15.8651655 C20.4787384,15.8338659 20.5332391,15.7944833 20.5855985,15.7444356 L20.6664686,15.6568861 C22.3940499,13.4942534 23.312571,10.8243766 23.3146067,8.08122611 C23.316626,5.34413327 22.4002951,2.67488025 20.6745131,0.504769505 C20.6051832,0.418107112 20.5225776,0.349637249 20.4261993,0.296883154 C20.3637183,0.264154999 20.2968841,0.240509717 20.2261893,0.226298816 L20.1173132,0.212102188 L20.0108639,0.210397753 Z M3.40722911,0.200926997 C3.29645572,0.210521542 3.19382509,0.240602933 3.09565616,0.291062776 C3.00344895,0.338906139 2.91973432,0.408519109 2.84779286,0.496636796 C1.12042743,2.66337712 0.20162668,5.33127933 0.1996,8.0703 C0.1996,10.8124656 1.11557747,13.4817013 2.84114917,15.6474128 C2.90952945,15.7342031 2.99310717,15.8034788 3.0905867,15.8541203 C3.14851727,15.8866717 3.21372365,15.9105654 3.2834259,15.9261388 L3.39100369,15.9433008 L3.51257653,15.9440279 C3.58218942,15.939516 3.65045165,15.9256799 3.7164925,15.9032964 C3.78701574,15.8777083 3.85123295,15.8442248 3.90949406,15.801735 L3.99246239,15.7311067 L4.6308952,15.1367985 C4.77760862,15.0054388 4.8652434,14.8215685 4.88081531,14.6247414 C4.89371181,14.4285303 4.83513273,14.231939 4.71298229,14.0771001 C3.35993516,12.35585 2.6426,10.2432441 2.64260005,8.0742049 C2.64466428,5.90365797 3.36320978,3.79366839 4.71959918,2.06772307 C4.84125714,1.91607899 4.89955198,1.71909884 4.88491699,1.52425592 C4.87249295,1.36859007 4.81440937,1.21984984 4.71731233,1.09664581 L4.63727837,1.00932161 L4.00109865,0.414080541 C3.91224816,0.332791793 3.82099192,0.275784264 3.72549123,0.243659998 C3.66037711,0.220812938 3.5909944,0.207051646 3.51726303,0.202082148 L3.40722911,0.200926997 Z M20.0937247,0.51655413 C20.1623066,0.521452839 20.2271591,0.539843837 20.2772138,0.566918845 C20.3361661,0.593119855 20.3872306,0.636427732 20.4338188,0.694995714 C22.1181896,2.80960807 23.012659,5.41167441 23.010607,8.08137721 C23.0086323,10.6345146 22.1920094,13.1196336 20.6562431,15.1674562 L20.4319661,15.4569875 L20.4162363,15.4797152 C20.3743635,15.5281307 20.3267935,15.5666397 20.2776588,15.5905353 C20.2193407,15.6216383 20.1556622,15.640105 20.0858559,15.6451618 C20.0410625,15.6475193 19.9981502,15.6447906 19.9581155,15.6375314 L19.8779862,15.6165441 C19.8423267,15.6016169 19.8071397,15.5815236 19.7731688,15.5567868 L19.7232173,15.5162644 L19.0897754,14.9224431 C18.9978996,14.8442245 18.9445134,14.7317797 18.9339842,14.6080574 C18.923515,14.4889708 18.9609643,14.3664097 19.0369756,14.2745084 C20.4344812,12.4963064 21.1776,10.3148598 21.1776,8.0813 C21.1776,5.84373971 20.4374322,3.66288364 19.0438059,1.88713371 C18.9663813,1.79127469 18.9314824,1.67062418 18.9420016,1.54834733 C18.949883,1.46066662 18.9812104,1.37705952 19.0333766,1.30630999 L19.0923926,1.24017164 L19.7306786,0.644844194 C19.7808306,0.597138629 19.8378231,0.562041566 19.8927028,0.543175044 C19.9303342,0.527286224 19.9687711,0.519375743 20.0147173,0.516727262 L20.0937247,0.51655413 Z M3.62282638,0.532635009 C3.66342919,0.546457242 3.70200036,0.566854974 3.73827209,0.59325301 L3.79092163,0.637278393 L4.42717246,1.23258459 C4.51728638,1.31518901 4.57261359,1.42887968 4.58039691,1.54692998 C4.58797523,1.66565697 4.55332031,1.78192909 4.47910805,1.88123937 C3.07893632,3.65595461 2.3366,5.8345895 2.33659996,8.0743905 C2.33457579,10.3110989 3.07553438,12.4925099 4.47337181,14.2676964 C4.54903621,14.3644476 4.58454631,14.4832571 4.57445264,14.5987268 C4.56954223,14.6890784 4.53779772,14.7759425 4.48440425,14.8473917 L4.4239865,14.9132609 L3.78358012,15.513444 C3.73267706,15.5581394 3.67703311,15.592144 3.61035397,15.6163714 C3.56946301,15.6281844 3.52932708,15.6354687 3.49058586,15.6377321 L3.42134643,15.6370366 C3.35112324,15.6319294 3.28531209,15.6148314 3.22585807,15.5828732 C3.17377556,15.5513815 3.12700825,15.511718 3.08038123,15.4586043 C1.39793253,13.346405 0.5056,10.7454511 0.5056,8.0703 C0.5056,5.40082776 1.40195606,2.80173619 3.08845959,0.689897469 C3.1107552,0.655802687 3.14312139,0.622741067 3.18128578,0.594560911 L3.24298615,0.555918845 C3.28120802,0.538931347 3.32081956,0.526517363 3.36244609,0.518738466 L3.42181823,0.510996476 C3.49391548,0.502442565 3.56071536,0.510150243 3.62282638,0.532635009 Z M20.0794753,0.71604587 L20.0339569,0.71604587 C20.0052856,0.717500262 19.983897,0.721691388 19.9644521,0.72974968 L19.9148953,0.75363324 L19.8678074,0.790428357 L19.2287231,1.38650688 C19.177668,1.4340165 19.1473604,1.4977007 19.1412321,1.5658705 C19.135083,1.63735328 19.155132,1.70666559 19.2002661,1.7625615 C20.6226512,3.57493939 21.3776,5.7993469 21.3776,8.0813 C21.3776,10.359353 20.6196338,12.5843844 19.1926742,14.4000147 C19.1488356,14.4530453 19.1273188,14.523464 19.1332398,14.59082 C19.1374141,14.6398683 19.1521654,14.6843568 19.1773644,14.722086 L19.2229827,14.7733356 L19.858391,15.3688758 L19.8896767,15.3945183 L19.9408536,15.4272857 L19.9544275,15.430852 C19.9926712,15.4428032 20.031868,15.4477264 20.0733464,15.4455634 C20.1132365,15.4426623 20.1498045,15.4320576 20.1867576,15.4124232 L20.2252359,15.3881963 L20.2562339,15.3606125 L20.2694953,15.3408528 C21.9276093,13.266996 22.8085732,10.7109917 22.8106105,8.081223 C22.8126244,5.45650674 21.9332994,2.89849624 20.2773399,0.819552357 C20.2492656,0.784258917 20.2222673,0.761361678 20.1894348,0.746478464 C20.1579028,0.729612516 20.1203607,0.718966257 20.0794753,0.71604587 Z M3.50342411,0.708943185 L3.44538177,0.709603524 C3.39824984,0.713079789 3.36044462,0.722578587 3.33065882,0.735535294 L3.28467645,0.767484931 L3.24585383,0.810590788 C1.66570751,2.79196661 0.791281122,5.20359756 0.711582992,7.69589465 L0.7056,8.0703 C0.7056,10.700585 1.58283454,13.2575317 3.2336359,15.3301969 C3.26392715,15.3645816 3.29511246,15.3910299 3.32476523,15.4091215 L3.37356555,15.427794 L3.4286,15.4373 L3.44085357,15.4375634 C3.47870841,15.4403165 3.51503341,15.43573 3.54811825,15.426433 L3.60070356,15.4009646 L3.6492135,15.3653391 L4.28910014,14.7656155 C4.34054995,14.7198041 4.37107095,14.6555192 4.37497594,14.584637 C4.38090047,14.516505 4.36039148,14.4478862 4.31603376,14.3911655 C2.89034595,12.5806113 2.13453555,10.355476 2.1366,8.0743 C2.1366,5.7900268 2.89383075,3.56767923 4.32047846,1.75946239 C4.36468375,1.70027227 4.38535153,1.63092894 4.38081666,1.55987912 C4.37791309,1.51584172 4.36272801,1.47194791 4.337166,1.43312852 L4.29127837,1.37932161 L3.65367862,0.782755806 C3.62235643,0.752961526 3.5906081,0.73293843 3.55658639,0.721337623 L3.50342411,0.708943185 Z M17.1639091,3.00294154 L17.2999432,3.02702567 L17.3669131,3.04667477 L17.4327509,3.07127815 L17.5749038,3.14369085 C17.6891528,3.21566772 17.7864325,3.30927118 17.8595483,3.41898972 C18.8185861,4.79032404 19.3226301,6.41760513 19.3216063,8.0813 C19.3216063,9.7414304 18.8173963,11.3651306 17.8564082,12.7432069 C17.7679855,12.8645048 17.6670778,12.958501 17.5511932,13.0245573 C17.4305006,13.0953482 17.2973257,13.1398337 17.1583295,13.1536097 C17.0539539,13.1659375 16.9497467,13.1619326 16.8365974,13.1368244 L16.724,13.105 L16.6066029,13.0568762 L16.5478947,13.0256597 L16.4919169,12.9907026 L16.3886375,12.9095699 L15.8302466,12.4061146 C15.6490941,12.2454496 15.5363277,12.026892 15.5063214,11.7902902 C15.4779914,11.5557172 15.5353346,11.3191041 15.6719453,11.1180132 C16.2832204,10.2203837 16.6036,9.16216783 16.6036,8.0813 C16.6036,6.99737169 16.2847341,5.93735788 15.6763154,5.0401264 C15.5397585,4.84239203 15.481889,4.60273045 15.5103947,4.36671787 C15.5352752,4.17054462 15.6174109,3.9853239 15.7468142,3.8375907 L15.8300485,3.75366156 L16.3915839,3.25299374 C16.4722678,3.17813233 16.5593695,3.12016559 16.6590582,3.07713593 L16.7631711,3.03901278 L16.8940044,3.00839127 C16.9820597,2.99421125 17.0718637,2.99246482 17.1639091,3.00294154 Z M6.35833766,2.99872988 C6.45699706,2.98955226 6.55002237,2.99197129 6.63903386,3.00704332 L6.76974325,3.03927317 L6.89585483,3.08914416 C6.95067622,3.11552888 7.00367292,3.14745651 7.05409657,3.18459285 L7.12770869,3.24416213 L7.68709092,3.75050992 C7.86839738,3.916339 7.98222512,4.13438753 8.00797649,4.36615044 C8.03432601,4.60100486 7.97841263,4.83647515 7.84326784,5.03756747 C7.23082525,5.93736465 6.9086,6.99556148 6.9086,8.0743 C6.9086,9.15321143 7.22889437,10.2105626 7.83888463,11.1134736 C7.97489839,11.3104215 8.03246768,11.5518601 8.00393871,11.7857814 C7.98324643,11.9648145 7.91146098,12.1349885 7.79752559,12.2785791 L7.68415151,12.4019384 L7.12171176,12.9034351 C7.01659106,12.998597 6.89433592,13.0699125 6.76155609,13.113016 C6.62994647,13.1528306 6.4939579,13.1660441 6.34702852,13.1522327 C6.24840796,13.1377072 6.15875957,13.1137399 6.0754186,13.0784656 L5.954,13.015 L5.87277787,12.9617307 L5.79341751,12.8956025 L5.72072859,12.8198519 L5.65470755,12.7346901 C4.69501015,11.3652566 4.19153654,9.73754716 4.19358126,8.0743 C4.19358126,6.52646494 4.6299221,5.01222436 5.46042398,3.71189917 L5.65810676,3.41377686 C5.7404656,3.29357748 5.84156675,3.19917916 5.95938285,3.13163635 C6.04550153,3.0775046 6.14115661,3.03962963 6.25093877,3.01652974 L6.35833766,2.99872988 Z M17.03,3.196 L16.9246573,3.20654992 L16.8160289,3.23258722 C16.7429803,3.25445326 16.677343,3.28595514 16.6158029,3.3285483 L16.5261515,3.40093844 L15.9630929,3.90299066 C15.8223062,4.02832513 15.732685,4.20360005 15.7088786,4.39129017 C15.6862587,4.57858236 15.7322944,4.76923488 15.8413653,4.92717592 C16.4729552,5.85857117 16.8036,6.95774182 16.8036,8.0813 C16.8036,9.20198517 16.4713294,10.2994771 15.8373177,11.2304941 C15.7279393,11.3914991 15.6823371,11.579666 15.7048053,11.7657179 C15.7239388,11.9165782 15.7852679,12.0581983 15.8832706,12.1746547 L15.9635625,12.2570301 L16.522949,12.7613804 C16.5803037,12.8136369 16.6461476,12.8561326 16.72952,12.8938229 L16.81,12.926 L16.9132063,12.9505803 L16.9683653,12.9573994 L17.0240299,12.9603934 L17.1367248,12.9547888 C17.248294,12.943717 17.3537906,12.9084772 17.4510736,12.8514258 C17.5421335,12.7995131 17.6222987,12.7248387 17.6935737,12.6271014 C18.6298067,11.2844869 19.1216046,9.70075187 19.1216046,8.08123818 C19.122605,6.45822116 18.6309844,4.87104874 17.694395,3.53177002 C17.6553857,3.47325607 17.6082521,3.42091077 17.5545279,3.3757327 L17.4582129,3.30667789 C17.3916638,3.26785757 17.3225967,3.23912496 17.2527855,3.22110316 L17.1477322,3.20218145 L17.03,3.196 Z M6.373,3.198 L6.26270296,3.2183578 L6.20924846,3.23397381 L6.15813172,3.25322409 L6.06238675,3.30302531 C5.9991563,3.33932427 5.94302627,3.38415317 5.89429766,3.4366392 L5.82679342,3.52100201 L5.81258206,3.54456205 C4.88210311,4.87672846 4.39356343,6.45652933 4.39356343,8.07442368 C4.39158686,9.69698495 4.88261908,11.2844719 5.81859581,12.6200576 C5.86345713,12.6843185 5.91382825,12.7390036 5.96992365,12.7841069 L6.05838675,12.8445747 L6.15439082,12.8944073 C6.22086751,12.922872 6.29253632,12.9420971 6.37086234,12.9537299 C6.48698665,12.9645321 6.59701694,12.9538409 6.70170977,12.9221906 C6.77090906,12.8997156 6.83736125,12.8669156 6.89913592,12.824769 L6.98804849,12.7546616 L7.53077569,12.2776861 L7.5503627,12.2513428 L7.56430784,12.2381987 C7.70059377,12.1072226 7.78478345,11.9399966 7.80533541,11.7621946 C7.82807927,11.575695 7.782222,11.3833752 7.67373777,11.2262808 C7.0407154,10.2892873 6.7086,9.19291268 6.7086,8.0743 C6.7086,6.95564355 7.04277587,5.85820054 7.6776015,4.92552144 C7.78570844,4.76465831 7.83034288,4.57668747 7.80921163,4.38834315 C7.7929535,4.24201998 7.73165742,4.10156534 7.63318928,3.98300374 L7.55249131,3.89843787 L6.99425943,3.39312599 C6.93725222,3.34258352 6.87497896,3.30109568 6.80937865,3.2695305 L6.70872525,3.22973322 L6.60418515,3.20413575 C6.5562463,3.19618194 6.50596478,3.19274999 6.45184509,3.19367215 L6.373,3.198 Z M17.0325636,3.50251184 L17.1124678,3.50556696 C17.1614058,3.513432 17.2048309,3.52495627 17.2392653,3.53918951 L17.3115991,3.57578291 C17.3642272,3.61044047 17.4082514,3.65384464 17.4455739,3.70802623 C18.3441265,4.99409213 18.8175999,6.52252543 18.8175999,8.08143236 C18.8155357,9.64092273 18.341669,11.1651504 17.4414413,12.450763 C17.402634,12.506034 17.3554841,12.5504284 17.2960496,12.5890493 C17.2364979,12.6247803 17.170187,12.6460128 17.1027173,12.6507869 C17.0543723,12.6557033 17.0083433,12.6554025 16.9602098,12.6475284 L16.8858786,12.6297427 C16.8450649,12.614046 16.8083066,12.595083 16.7747503,12.5712466 L16.7267109,12.531636 L16.1674824,12.0284298 C16.076999,11.9465057 16.0231794,11.842757 16.0104772,11.7295164 C15.9947339,11.6114419 16.0230437,11.494206 16.091735,11.4003233 C16.7581914,10.413735 17.1096,9.25634799 17.1096,8.0813 C17.1096,6.89911435 16.7600547,5.74183265 16.0932408,4.75853804 C16.0258072,4.65677469 15.9990642,4.54368084 16.0142116,4.43025685 C16.0238242,4.34374349 16.0573053,4.26220588 16.1103492,4.19415909 L16.1697546,4.13092462 L16.7354063,3.62262423 C16.7693132,3.59423706 16.8046958,3.57027328 16.8527102,3.54852849 L16.926,3.52 L16.9095864,3.52326238 C16.9481332,3.50931991 16.9852996,3.50310744 17.0325636,3.50251184 Z M6.61500402,3.51803408 C6.657353,3.53154971 6.69802173,3.55192864 6.7353714,3.57827433 L6.78870177,3.62215587 L7.34485231,4.12552312 C7.43365,4.2019878 7.49060268,4.30979108 7.50341165,4.4179293 C7.52113348,4.53185536 7.49222876,4.65386018 7.42535163,4.75544417 C6.75775686,5.73942082 6.40660031,6.89597762 6.4056,8.0743 C6.4056,9.25488039 6.75531055,10.4116153 7.42115635,11.3958691 C7.48727037,11.4925914 7.5149786,11.6090319 7.50157096,11.7266091 C7.48970021,11.808715 7.45880843,11.8860083 7.41267205,11.948871 L7.34420158,12.0248938 L6.78583183,12.5234055 C6.72961172,12.5758776 6.67078199,12.6111108 6.61675279,12.6255361 C6.55334055,12.6501245 6.48560463,12.6557955 6.40641087,12.6465543 C6.33670802,12.6379943 6.27060565,12.6169323 6.21476981,12.5842057 C6.15519782,12.5471386 6.10747605,12.5030878 6.06862613,12.4465738 C5.17056023,11.1612045 4.6976,9.63299765 4.6976,8.0743 C4.6976,6.62518821 5.10814329,5.20196422 5.89868285,3.9639786 L6.07388932,3.70158932 C6.11476547,3.6437276 6.16559994,3.59550003 6.21520384,3.5697199 C6.25006635,3.54591135 6.29105095,3.52828228 6.33661594,3.51595815 L6.41231008,3.50083082 C6.48891856,3.49290581 6.55604531,3.4975459 6.61500402,3.51803408 Z M17.0055777,3.70446552 L16.966,3.713 L16.9171491,3.73760183 L16.8664454,3.77367538 L16.3029035,4.28015882 C16.2519857,4.32525749 16.2203283,4.38628373 16.2127228,4.45451637 C16.2037588,4.52174659 16.2190185,4.58627867 16.2593638,4.64717377 C16.9482299,5.66297629 17.3096,6.85940795 17.3096,8.0813 C17.3096,9.29609149 16.9463459,10.4924923 16.2553391,11.5153017 C16.2154658,11.5698652 16.1996778,11.6352461 16.2089747,11.7051343 C16.2139554,11.7494623 16.2292398,11.7905019 16.2549912,11.8275272 L16.3014891,11.879964 L16.8625214,12.3848442 C16.8806128,12.4020531 16.8996516,12.4155037 16.924673,12.4281416 L16.966,12.446 L16.9949128,12.4516438 C17.0080113,12.4533004 17.0220764,12.4541382 17.0371546,12.4541382 L17.0854753,12.4515541 C17.1243199,12.4487795 17.1603077,12.4372563 17.1900327,12.4195002 C17.2256416,12.396313 17.254131,12.3694886 17.2776858,12.335941 C18.1541589,11.084252 18.6155897,9.60002546 18.6176,8.0813 C18.6176,6.56318864 18.1565281,5.07478936 17.2812492,3.82203052 L17.2361267,3.76768076 L17.2194609,3.75214767 L17.1934232,3.739989 C17.1661519,3.72286515 17.1297417,3.71090956 17.0895997,3.70405468 C17.0522925,3.70143663 17.026323,3.70143493 17.0055777,3.70446552 Z M6.479165,3.6972268 L6.43288992,3.69976918 C6.3899609,3.70609982 6.35159366,3.71876473 6.31865882,3.74053529 C6.29955792,3.75072244 6.28092607,3.76575407 6.25963433,3.78975847 L6.22531068,3.83301068 C5.35653221,5.07928787 4.8976,6.56226682 4.8976,8.0743 C4.8976,9.59235235 5.35816949,11.0805228 6.23300419,12.3326471 C6.25596079,12.3660385 6.28335445,12.391325 6.31811792,12.4129986 C6.34701703,12.4299151 6.38706773,12.4426764 6.43018807,12.4479737 C6.47876751,12.4536413 6.51458658,12.4506549 6.55394139,12.4359189 C6.57415685,12.4303274 6.59475126,12.4201652 6.61677042,12.4041883 L7.20360599,11.8830327 L7.21913245,11.8664152 C7.26489662,11.8234246 7.29406784,11.7641226 7.30323947,11.701009 C7.31090992,11.6335091 7.29466164,11.5652276 7.25577277,11.5083326 C6.56712272,10.4903717 6.2056,9.29456576 6.20560004,8.07421511 C6.2066341,6.85608242 6.56965982,5.66043374 7.25907107,4.64431893 C7.2985637,4.58432052 7.31566253,4.51214754 7.30530117,4.44512129 C7.30035993,4.40361484 7.28413298,4.36218175 7.2582829,4.32574252 L7.21249823,4.27544413 L6.65259247,3.76867375 C6.62201631,3.73951975 6.58861193,3.71954973 6.55182273,3.70777566 L6.51864787,3.69990038 L6.479165,3.6972268 Z M11.7526,4.8393 C12.6088418,4.8393 13.4140866,5.18024231 14.0065632,5.77484276 C14.5992773,6.3718133 14.9386,7.17515781 14.9386,8.0303 C14.9386,8.88400661 14.5984852,9.68557013 14.0040568,10.2842637 C13.408051,10.8760123 12.6046895,11.2153 11.7506,11.2153 C10.8925872,11.2153 10.0901188,10.8753032 9.49557351,10.2796935 C9.00739772,9.78712759 8.69070913,9.1592128 8.59500746,8.4724984 L8.57135951,8.24152085 L8.5646,8.0263 C8.5646,7.17129081 8.90458671,6.36701824 9.49801616,5.77146271 C10.0925434,5.17906255 10.8969292,4.8393 11.7526,4.8393 Z M11.7526,5.0393 C10.9504237,5.0393 10.1966169,5.3576986 9.63943706,5.91288407 C9.12956105,6.4245876 8.81935158,7.1005475 8.77115229,7.82457199 L8.76454998,8.0231376 L8.77109323,8.23178532 C8.81880199,8.9560307 9.12863679,9.62533961 9.63737384,10.1386525 C10.1945287,10.6968041 10.9462502,11.0153 11.7506,11.0153 C12.5512557,11.0153 13.3041682,10.6973187 13.8626368,10.1428428 C14.4198727,9.58160517 14.7386,8.83044654 14.7386,8.0303 C14.7386,7.22859511 14.420586,6.47569893 13.8647629,5.91588407 C13.3095944,5.35872569 12.5551681,5.0393 11.7526,5.0393 Z M11.7563052,5.34436867 L11.9522745,5.35170395 C12.5973975,5.39968843 13.1976197,5.67996389 13.6473863,6.13166499 C14.1471665,6.63251539 14.4326,7.30799588 14.4326,8.0303 C14.4326,8.75234014 14.1465799,9.42701917 13.6476116,9.9217085 C13.1498478,10.4237358 12.4736524,10.7093142 11.7506,10.7083053 C11.029765,10.7083053 10.3522831,10.421474 9.85396515,9.92208643 C9.35522515,9.42441439 9.0706,8.74907902 9.0706,8.0263 C9.0706,7.30592658 9.35764524,6.62663196 9.85581357,6.13166515 C10.309344,5.67716144 10.9105466,5.39831311 11.5573072,5.35136964 L11.7563052,5.34436867 Z M11.75,5.544 L11.5539286,5.55220781 C10.9622478,5.59944854 10.4129398,5.85648961 9.99708246,6.27323816 C9.53611971,6.7312397 9.2706,7.35959399 9.2706,8.0263 C9.2706,8.69555076 9.53381202,9.3200788 9.99538643,9.78066515 C10.4566987,10.2429674 11.0834139,10.5083052 11.7507399,10.5083052 C12.4200968,10.509239 13.0451741,10.2452495 13.5061941,9.78028585 C13.9681963,9.32224085 14.2326,8.69855172 14.2326,8.0303 C14.2326,7.36152469 13.96856,6.73667219 13.5057377,6.27285878 C13.1357615,5.9012912 12.6558873,5.65512305 12.1372983,5.57397684 L11.9411517,5.55135981 L11.75,5.544 Z" id="Stroke-3" fill-rule="nonzero"></path>
        </g>
    </g>
</svg>