<?xml version="1.0" encoding="UTF-8"?>
<svg width="32px" height="32px" viewBox="0 0 32 32" version="1.1" xmlns="http://www.w3.org/2000/svg" xmlns:xlink="http://www.w3.org/1999/xlink">
    <title>Icn / Amenity / Entertainment / Radio</title>
    <g id="Icn-/-Amenity-/-Entertainment-/-Radio" stroke="none" stroke-width="1" fill="none" fill-rule="evenodd">
        <g id="Group" transform="translate(6.000000, 6.000000)" fill="#13284C" fill-rule="nonzero">
            <path d="M17.33521,4.62550607 L5.90239117,4.62550607 L15.4361716,0.83169915 C15.655997,0.744401579 15.7629049,0.495476964 15.6757654,0.275651579 C15.5884679,0.0558261538 15.3395433,-0.0510817409 15.1197179,0.0360576923 L3.59707109,4.62550607 L3.27207741,4.62550607 C1.76224065,4.62550607 0,5.48092737 0,7.89758348 L0,16.7255504 C0,19.1422065 1.76224065,19.9976278 3.27207741,19.9976278 L17.33521,19.9976278 C18.8450468,19.9976278 20.6072952,19.1422065 20.6072952,16.7255504 L20.6072952,7.90185348 C20.6115574,5.48519737 18.8578568,4.62550607 17.33521,4.62550607 Z M19.7561361,16.7255504 C19.7561361,18.9068826 18.0452935,19.1422065 17.33948,19.1422065 L3.27207741,19.1422065 C2.54491397,19.1422065 0.855421296,18.9068826 0.855421296,16.7255504 L0.855421296,7.90185348 C0.855421296,5.72052126 2.56626393,5.48519737 3.27207741,5.48519737 L17.33521,5.48519737 C18.0623735,5.48519737 19.7518662,5.72052126 19.7518662,7.90185348 L19.7561361,16.7255504 Z" id="Shape"></path>
            <path d="M4.23440664,10.1559337 L16.3728808,10.1559337 C16.6089955,10.1559337 16.8006705,9.96425862 16.8006705,9.72814397 L16.8006705,7.26024798 C16.8006705,7.02413336 16.6089955,6.83245826 16.3728808,6.83245826 L4.23440664,6.83245826 C3.99829198,6.83245826 3.80661692,7.02413336 3.80661692,7.26024798 L3.80661692,9.72814397 C3.80661692,9.96425862 3.99829198,10.1559337 4.23440664,10.1559337 Z M15.9452492,9.30035425 L12.9213057,9.30035425 L12.9213057,7.68787955 L15.9452492,7.68787955 L15.9452492,9.30035425 Z M4.66203822,7.68787955 L12.0658844,7.68787955 L12.0658844,9.30035425 L4.66203822,9.30035425 L4.66203822,7.68787955 Z" id="Shape"></path>
            <path d="M15.2565157,11.6058325 C13.5037639,11.6058325 12.0829643,13.0266321 12.0829643,14.7793838 C12.0829643,16.5322938 13.5037639,17.9530934 15.2565157,17.9530934 C17.0094256,17.9530934 18.4302252,16.5322938 18.4302252,14.7793838 C18.4302252,13.0266321 17.0092674,11.6058325 15.2565157,11.6058325 Z M15.2565157,17.0976721 C13.9764676,17.0976721 12.9383856,16.0595901 12.9383856,14.7793838 C12.9383856,13.4993358 13.9764676,12.4612538 15.2565157,12.4612538 C16.5367219,12.4612538 17.5748039,13.4993358 17.5748039,14.7793838 C17.5722735,16.0587994 16.535773,17.0951417 15.2565157,17.0976721 Z" id="Shape"></path>
            <path d="M9.09318065,14.5698381 C8.18857538,14.5698381 7.45508603,15.3034856 7.45508603,16.2079327 C7.45508603,17.1126961 8.18857538,17.8461855 9.09318065,17.8461855 C9.99778591,17.8461855 10.7314334,17.112538 10.7314334,16.2079327 C10.7314334,15.3030111 9.99778591,14.5698381 9.09318065,14.5698381 Z M9.09318065,16.9864942 C8.66080466,16.9864942 8.31050733,16.6361968 8.31050733,16.2038209 C8.31050733,15.7712867 8.66080466,15.4209894 9.09318065,15.4209894 C9.52571482,15.4209894 9.87585401,15.7712867 9.87585401,16.2038209 C9.87585401,16.6357224 9.52571482,16.9864942 9.09318065,16.9864942 Z" id="Shape"></path>
            <path d="M4.85023405,14.5698381 C3.94562879,14.5698381 3.21213943,15.3034856 3.21213943,16.2079327 C3.21213943,17.1126961 3.94562879,17.8461855 4.85023405,17.8461855 C5.75483931,17.8461855 6.48832873,17.112538 6.48832873,16.2079327 C6.48848684,15.3030111 5.75483931,14.5698381 4.85023405,14.5698381 Z M4.85023405,16.9864942 C4.41785806,16.9864942 4.06756073,16.6361968 4.06756073,16.2038209 C4.06756073,15.7712867 4.41785806,15.4209894 4.85023405,15.4209894 C5.28261008,15.4209894 5.63290737,15.7712867 5.63290737,16.2038209 C5.63290737,16.6361968 5.28261008,16.9864942 4.85023405,16.9864942 Z" id="Shape"></path>
        </g>
    </g>
</svg>