<?xml version="1.0" encoding="UTF-8"?>
<svg width="32px" height="32px" viewBox="0 0 32 32" version="1.1" xmlns="http://www.w3.org/2000/svg" xmlns:xlink="http://www.w3.org/1999/xlink">
    <title>Icn / Amenity / Entertainment / TV</title>
    <g id="Icn-/-Amenity-/-Entertainment-/-TV" stroke="none" stroke-width="1" fill="none" fill-rule="evenodd">
        <g id="Group" transform="translate(6.000000, 6.000000)" fill="#13284C">
            <path d="M2.059,13.2529 L18.073,13.2529 L18.073,1.9439 L2.059,1.9439 L2.059,13.2529 Z M18.373,13.8529 L1.76,13.8529 C1.594,13.8529 1.459,13.7179 1.459,13.5529 L1.459,1.6449 C1.459,1.4799 1.594,1.3449 1.76,1.3449 L18.373,1.3449 C18.537,1.3449 18.672,1.4799 18.672,1.6449 L18.672,13.5529 C18.672,13.7179 18.537,13.8529 18.373,13.8529 L18.373,13.8529 Z M1.029,0.5999 C0.793,0.5999 0.6,0.7669 0.6,0.9729 L0.6,14.2249 C0.6,14.4299 0.793,14.5969 1.029,14.5969 L19.102,14.5969 C19.338,14.5969 19.531,14.4299 19.531,14.2249 L19.531,0.9729 C19.531,0.7669 19.338,0.5999 19.102,0.5999 L1.029,0.5999 Z M19.102,15.1969 L1.029,15.1969 C0.462,15.1969 0,14.7609 0,14.2249 L0,0.9729 C0,0.4369 0.462,-0.0001 1.029,-0.0001 L19.102,-0.0001 C19.67,-0.0001 20.131,0.4369 20.131,0.9729 L20.131,14.2249 C20.131,14.7609 19.67,15.1969 19.102,15.1969 L19.102,15.1969 Z" id="Fill-1"></path>
            <path d="M9.068,17.4389 L10.894,17.4389 L10.894,15.1979 L9.068,15.1979 L9.068,17.4389 Z M11.193,18.0389 L8.77,18.0389 C8.604,18.0389 8.469,17.9039 8.469,17.7389 L8.469,14.8979 C8.469,14.7319 8.604,14.5969 8.77,14.5969 L11.193,14.5969 C11.359,14.5969 11.494,14.7319 11.494,14.8979 L11.494,17.7389 C11.494,17.9039 11.359,18.0389 11.193,18.0389 L11.193,18.0389 Z" id="Fill-3"></path>
            <path d="M6.0976,18.6103 L13.8656,18.6103 C13.7656,18.2803 13.4586,18.0393 13.0976,18.0393 L6.8656,18.0393 C6.5036,18.0393 6.1976,18.2803 6.0976,18.6103 M14.1976,19.2103 L5.7656,19.2103 C5.5996,19.2103 5.4646,19.0763 5.4646,18.9103 L5.4646,18.8393 C5.4646,18.0673 6.0936,17.4383 6.8656,17.4383 L13.0976,17.4383 C13.8686,17.4383 14.4976,18.0673 14.4976,18.8393 L14.4976,18.9103 C14.4976,19.0763 14.3636,19.2103 14.1976,19.2103" id="Fill-4"></path>
        </g>
    </g>
</svg>