<?xml version="1.0" encoding="UTF-8"?>
<svg width="32px" height="32px" viewBox="0 0 32 32" version="1.1" xmlns="http://www.w3.org/2000/svg" xmlns:xlink="http://www.w3.org/1999/xlink">
    <title>Icn / Amenity / Entertainment / Upgraded Speaker System</title>
    <g id="Icn-/-Amenity-/-Entertainment-/-Upgraded-Speaker-System" stroke="none" stroke-width="1" fill="none" fill-rule="evenodd">
        <g id="Group" transform="translate(9.000000, 4.000000)" fill="#13284C">
            <path d="M0.697894737,22.4831579 L13.2162105,22.4831579 L13.2162105,0.697894737 L0.697894737,0.697894737 L0.697894737,22.4831579 Z M13.5651579,23.1810526 L0.348947368,23.1810526 C0.156,23.1810526 -7.29241229e-14,23.0250526 -7.29241229e-14,22.8321053 L-7.29241229e-14,0.348947368 C-7.29241229e-14,0.154631579 0.156,3.88928655e-14 0.348947368,3.88928655e-14 L13.5651579,3.88928655e-14 C13.7581053,3.88928655e-14 13.9141053,0.154631579 13.9141053,0.348947368 L13.9141053,22.8321053 C13.9141053,23.0250526 13.7581053,23.1810526 13.5651579,23.1810526 L13.5651579,23.1810526 Z" id="Fill-2"></path>
            <path d="M2.10326316,24.4016842 L3.20073684,24.4016842 L3.20073684,23.2563158 L2.10326316,23.2563158 L2.10326316,24.4016842 Z M3.55105263,25.0995789 L1.75431579,25.0995789 C1.56273684,25.0995789 1.40536842,24.9422105 1.40536842,24.7506316 L1.40536842,22.9073684 C1.40536842,22.7130526 1.56273684,22.5570526 1.75431579,22.5570526 L3.55105263,22.5570526 C3.74263158,22.5570526 3.9,22.7130526 3.9,22.9073684 L3.9,24.7506316 C3.9,24.9422105 3.74263158,25.0995789 3.55105263,25.0995789 L3.55105263,25.0995789 Z" id="Fill-3"></path>
            <path d="M6.92708421,4.22404211 C6.71361053,4.22404211 6.53845263,4.39783158 6.53845263,4.61130526 C6.53845263,4.82477895 6.71361053,4.99856842 6.92708421,4.99856842 C7.14055789,4.99856842 7.31571579,4.82477895 7.31571579,4.61130526 C7.31571579,4.39783158 7.14055789,4.22404211 6.92708421,4.22404211 M6.92708421,5.69783158 C6.32908421,5.69783158 5.84192632,5.21067368 5.84192632,4.61130526 C5.84192632,4.01330526 6.32908421,3.52477895 6.92708421,3.52477895 C7.52508421,3.52477895 8.01224211,4.01330526 8.01224211,4.61130526 C8.01224211,5.21067368 7.52508421,5.69783158 6.92708421,5.69783158" id="Fill-4"></path>
            <path d="M6.92708421,11.0661474 C4.26824211,11.0661474 2.1034,13.2296211 2.1034,15.8884632 C2.1034,18.5500421 4.26824211,20.7135158 6.92708421,20.7135158 C9.58729474,20.7135158 11.7507684,18.5500421 11.7507684,15.8884632 C11.7507684,13.2296211 9.58729474,11.0661474 6.92708421,11.0661474 M6.92708421,21.4114105 C3.88234737,21.4114105 1.40550526,18.9345684 1.40550526,15.8884632 C1.40550526,12.8450947 3.88234737,10.3682526 6.92708421,10.3682526 C9.97182105,10.3682526 12.4486632,12.8450947 12.4486632,15.8884632 C12.4486632,18.9345684 9.97182105,21.4114105 6.92708421,21.4114105" id="Fill-5"></path>
            <path d="M6.92708421,19.7736842 C4.78550526,19.7736842 3.04350526,18.0316842 3.04350526,15.8887368 C3.04350526,15.6971579 3.19950526,15.5397895 3.39245263,15.5397895 C3.5854,15.5397895 3.7414,15.6971579 3.7414,15.8887368 C3.7414,17.6457895 5.17003158,19.0744211 6.92708421,19.0744211 C8.68413684,19.0744211 10.1141368,17.6457895 10.1141368,15.8887368 C10.1141368,14.1330526 8.68413684,12.7030526 6.92708421,12.7030526 C6.73413684,12.7030526 6.57813684,12.5484211 6.57813684,12.3541053 C6.57813684,12.1625263 6.73413684,12.0051579 6.92708421,12.0051579 C9.06866316,12.0051579 10.8106632,13.7485263 10.8106632,15.8887368 C10.8106632,18.0316842 9.06866316,19.7736842 6.92708421,19.7736842" id="Fill-6"></path>
            <path d="M6.92708421,14.8479158 C6.35371579,14.8479158 5.88571579,15.3159158 5.88571579,15.8892842 C5.88571579,16.4640211 6.35371579,16.9306526 6.92708421,16.9306526 C7.50182105,16.9306526 7.96845263,16.4640211 7.96845263,15.8892842 C7.96845263,15.3159158 7.50182105,14.8479158 6.92708421,14.8479158 M6.92708421,17.6285474 C5.96782105,17.6285474 5.18782105,16.8485474 5.18782105,15.8892842 C5.18782105,14.9313895 5.96782105,14.1500211 6.92708421,14.1500211 C7.88634737,14.1500211 8.66634737,14.9313895 8.66634737,15.8892842 C8.66634737,16.8485474 7.88634737,17.6285474 6.92708421,17.6285474" id="Fill-7"></path>
            <path d="M10.712,24.4796842 L11.8108421,24.4796842 L11.8108421,23.2617895 L10.712,23.2617895 L10.712,24.4796842 Z M12.1597895,25.1762105 L10.3630526,25.1762105 C10.1714737,25.1762105 10.0141053,25.0215789 10.0141053,24.8286316 L10.0141053,22.9128421 C10.0141053,22.7198947 10.1714737,22.5638947 10.3630526,22.5638947 L12.1597895,22.5638947 C12.3513684,22.5638947 12.5087368,22.7198947 12.5087368,22.9128421 L12.5087368,24.8286316 C12.5087368,25.0215789 12.3513684,25.1762105 12.1597895,25.1762105 L12.1597895,25.1762105 Z" id="Fill-8"></path>
            <path d="M6.92708421,2.51611579 C5.77213684,2.51611579 4.83203158,3.45622105 4.83203158,4.61116842 C4.83203158,5.76748421 5.77213684,6.70758947 6.92708421,6.70758947 C8.08203158,6.70758947 9.02213684,5.76748421 9.02213684,4.61116842 C9.02213684,3.45622105 8.08203158,2.51611579 6.92708421,2.51611579 M6.92708421,7.40411579 C5.38761053,7.40411579 4.13413684,6.15201053 4.13413684,4.61116842 C4.13413684,3.07032632 5.38761053,1.81822105 6.92708421,1.81822105 C8.46655789,1.81822105 9.7214,3.07032632 9.7214,4.61116842 C9.7214,6.15201053 8.46655789,7.40411579 6.92708421,7.40411579" id="Fill-9"></path>
        </g>
    </g>
</svg>