<?xml version="1.0" encoding="UTF-8"?>
<svg width="32px" height="32px" viewBox="0 0 32 32" version="1.1" xmlns="http://www.w3.org/2000/svg" xmlns:xlink="http://www.w3.org/1999/xlink">
    <title>Icn / Amenity / Entertainment / Wifi Router</title>
    <g id="Icn-/-Amenity-/-Entertainment-/-Wifi-Router" stroke="none" stroke-width="1" fill="none" fill-rule="evenodd">
        <g id="Group" transform="translate(5.000000, 7.000000)" fill="#13284C">
            <path d="M12.3879,15.0054 C12.0739,14.6874 11.6319,14.4914 11.1479,14.4914 C10.6629,14.4914 10.2259,14.6874 9.9079,15.0054 C9.5889,15.3244 9.3919,15.7624 9.3919,16.2464 C9.3919,16.7304 9.5889,17.1714 9.9079,17.4864 C10.2219,17.8054 10.6629,18.0014 11.1479,18.0014 C11.6319,18.0014 12.0699,17.8054 12.3879,17.4864 C12.7059,17.1714 12.9039,16.7344 12.9039,16.2494 C12.9039,15.7654 12.7059,15.3244 12.3879,15.0054 M11.1419,7.5864 C13.0659,7.5864 14.9859,8.2054 16.5909,9.4344 C16.7629,9.5664 16.9639,9.6234 17.1629,9.6094 L17.1669,9.6094 C17.3669,9.5964 17.5619,9.5104 17.7159,9.3594 L18.2199,8.8554 C18.3119,8.7634 18.3799,8.6614 18.4189,8.5554 C18.4599,8.4444 18.4779,8.3274 18.4719,8.1994 C18.4619,8.0704 18.4329,7.9544 18.3759,7.8504 C18.3249,7.7454 18.2449,7.6534 18.1479,7.5744 C16.0789,5.9444 13.6199,5.11739172 11.1539,5.11739172 C8.6999,5.1144 6.2379,5.9264 4.1419,7.5624 C4.0399,7.6424 3.9639,7.7344 3.9089,7.8384 C3.8549,7.9424 3.8239,8.0584 3.8139,8.1874 C3.8079,8.3164 3.8239,8.4354 3.8669,8.5424 C3.9059,8.6524 3.9739,8.7534 4.0659,8.8454 L4.5679,9.3454 C4.7219,9.4984 4.9129,9.5834 5.1129,9.5964 C5.3159,9.6114 5.5209,9.5534 5.6929,9.4244 C7.3119,8.1934 9.2299,7.5864 11.1419,7.5864 M16.3159,9.7924 C16.5749,9.9914 16.8879,10.0804 17.1909,10.0624 L17.1989,10.0624 C17.5029,10.0404 17.8039,9.9114 18.0359,9.6794 L18.5419,9.1734 C18.6769,9.0384 18.7749,8.8854 18.8429,8.7144 C18.9039,8.5454 18.9309,8.3644 18.9229,8.1714 C18.9089,7.9794 18.8609,7.8014 18.7789,7.6424 C18.6969,7.4834 18.5789,7.3414 18.4269,7.2224 C16.2769,5.5254 13.7199,4.6704 11.1539,4.66739205 C8.6029,4.6644 6.0419,5.5104 3.8629,7.2064 C3.7139,7.3294 3.5929,7.4704 3.5109,7.6294 C3.4249,7.7884 3.3759,7.9664 3.3649,8.1594 C3.3529,8.3524 3.3799,8.5364 3.4449,8.7014 C3.5089,8.8734 3.6089,9.0294 3.7429,9.1644 L4.2469,9.6664 C4.4799,9.9004 4.7769,10.0274 5.0849,10.0494 C5.3899,10.0684 5.7009,9.9824 5.9619,9.7824 C7.5029,8.6154 9.3249,8.0334 11.1419,8.0364 C12.9679,8.0404 14.7919,8.6284 16.3159,9.7924 M11.1109,2.9974 C14.2179,3.0104 17.3019,4.0984 19.7549,6.2014 C19.9269,6.3494 20.1379,6.4164 20.3469,6.4104 C20.5479,6.4014 20.7509,6.3184 20.9089,6.1684 L20.9189,6.1594 L21.4189,5.6564 C21.5069,5.5674 21.5719,5.4734 21.6129,5.3684 C21.6559,5.2584 21.6729,5.1424 21.6689,5.0204 C21.6669,4.8974 21.6399,4.7834 21.5909,4.6834 C21.5419,4.5784 21.4679,4.4864 21.3759,4.4064 C18.4539,1.8614 14.8019,0.5664 11.1319,0.5504 C7.4969,0.5384 3.8389,1.7844 0.8549,4.3274 C0.7569,4.4064 0.6869,4.4984 0.6339,4.6034 C0.5849,4.7074 0.5579,4.8174 0.5519,4.9454 C0.5479,5.0684 0.5679,5.1854 0.6109,5.2924 C0.6499,5.4004 0.7139,5.4974 0.8039,5.5834 L1.2899,6.0704 L1.3019,6.0824 C1.4619,6.2384 1.6629,6.3244 1.8679,6.3334 C2.0769,6.3434 2.2879,6.2764 2.4599,6.1314 L2.4599,6.1344 L2.4599,6.1314 C4.9759,4.0124 8.0539,2.9854 11.1109,2.9974 M19.4619,6.5454 C17.0909,4.5114 14.1109,3.4604 11.1089,3.4484 C8.1559,3.4364 5.1809,4.4284 2.7509,6.4784 C2.4919,6.6944 2.1689,6.7964 1.8549,6.7834 C1.5339,6.7724 1.2239,6.6434 0.9819,6.4044 L0.9719,6.3894 L0.4859,5.9014 L0.4859,5.9044 C0.3529,5.7704 0.2509,5.6194 0.1869,5.4544 C0.1219,5.2924 0.0949,5.1144 0.1009,4.9284 C0.1109,4.7374 0.1539,4.5634 0.2299,4.4064 C0.3079,4.2474 0.4169,4.1074 0.5619,3.9844 C3.6299,1.3684 7.3919,0.0884 11.1319,0.1004 C14.9089,0.1124 18.6649,1.4474 21.6729,4.0644 C21.8139,4.1864 21.9209,4.3274 21.9969,4.4864 C22.0719,4.6464 22.1149,4.8174 22.1199,5.0074 C22.1259,5.1914 22.0989,5.3684 22.0339,5.5314 C21.9679,5.6934 21.8719,5.8474 21.7399,5.9754 L21.2379,6.4784 L21.2259,6.4894 C20.9839,6.7234 20.6749,6.8454 20.3629,6.8584 C20.0439,6.8694 19.7219,6.7664 19.4619,6.5454 M7.3469,12.1264 L7.8609,12.6414 C8.0009,12.7814 8.1769,12.8644 8.3569,12.8864 C8.5379,12.9104 8.7279,12.8734 8.8999,12.7734 C9.5969,12.3614 10.3719,12.1594 11.1419,12.1634 C11.9169,12.1634 12.6929,12.3714 13.3839,12.7814 C13.5559,12.8834 13.7449,12.9194 13.9269,12.8984 C14.1109,12.8734 14.2839,12.7914 14.4249,12.6504 L14.9429,12.1324 C15.0379,12.0374 15.1049,11.9304 15.1479,11.8144 C15.1889,11.6974 15.2039,11.5714 15.1889,11.4404 C15.1749,11.3054 15.1359,11.1834 15.0719,11.0784 C15.0069,10.9754 14.9189,10.8824 14.8059,10.8094 C13.6849,10.0804 12.4209,9.7094 11.1539,9.7064 C9.8919,9.7064 8.6239,10.0684 7.4879,10.8004 C7.3739,10.8734 7.2829,10.9624 7.2179,11.0674 C7.1539,11.1704 7.1129,11.2934 7.0989,11.4284 C7.0849,11.5634 7.0989,11.6924 7.1419,11.8084 C7.1809,11.9244 7.2489,12.0284 7.3469,12.1264 M7.5399,12.9594 L7.0249,12.4444 C6.8839,12.3044 6.7769,12.1384 6.7119,11.9544 C6.6519,11.7764 6.6299,11.5814 6.6519,11.3794 C6.6729,11.1804 6.7339,10.9924 6.8349,10.8304 C6.9369,10.6684 7.0739,10.5304 7.2419,10.4204 C8.4519,9.6424 9.8059,9.2564 11.1539,9.25938265 C12.5069,9.25938265 13.8549,9.6514 15.0499,10.4324 C15.2219,10.5424 15.3569,10.6804 15.4579,10.8434 C15.5559,11.0054 15.6169,11.1924 15.6379,11.3914 C15.6579,11.5934 15.6359,11.7864 15.5739,11.9674 C15.5089,12.1454 15.4059,12.3104 15.2609,12.4504 L14.7429,12.9724 C14.5329,13.1834 14.2629,13.3094 13.9819,13.3454 C13.7019,13.3824 13.4109,13.3234 13.1519,13.1674 C12.5289,12.8004 11.8369,12.6134 11.1419,12.6104 C10.4489,12.6104 9.7529,12.7944 9.1279,13.1614 C8.8679,13.3154 8.5769,13.3694 8.2979,13.3334 C8.0209,13.2964 7.7529,13.1744 7.5399,12.9594 M11.1479,14.0404 C11.7569,14.0404 12.3079,14.2884 12.7099,14.6874 C13.1089,15.0884 13.3529,15.6404 13.3529,16.2494 C13.3529,16.8564 13.1049,17.4074 12.7059,17.8094 C12.3079,18.2064 11.7569,18.4544 11.1479,18.4544 C10.5379,18.4544 9.9879,18.2064 9.5849,17.8054 C9.1869,17.4074 8.9429,16.8564 8.9429,16.2464 C8.9429,15.6374 9.1869,15.0854 9.5889,14.6874 C9.9899,14.2884 10.5379,14.0404 11.1479,14.0404" id="Fill-1"></path>
            <path d="M11.1479,13.9404 C11.7664027,13.9404 12.347016,14.1863294 12.7807872,14.6168663 C13.2089992,15.0472248 13.4529,15.628517 13.4529,16.2494 C13.4529,16.8661926 13.2067784,17.4467096 12.7765217,17.8801996 C12.3471884,18.3084542 11.7663375,18.5544 11.1479,18.5544 C10.5281944,18.5544 9.94857834,18.3083444 9.51418932,17.8761107 C9.08666946,17.4485908 8.8429,16.8680563 8.8429,16.2464 C8.8429,15.6239404 9.08799193,15.0426044 9.51836632,14.6165128 C9.95119971,14.1858382 10.5290077,13.9404 11.1479,13.9404 Z M11.1479,14.1404 C10.5826314,14.1404 10.0552971,14.3643982 9.65925625,14.7584633 C9.26645295,15.1473581 9.0429,15.6776057 9.0429,16.2464 C9.0429,16.8146602 9.26535439,17.344433 9.65543456,17.7345136 C10.0526664,18.1297741 10.5818018,18.3544 11.1479,18.3544 C11.7127603,18.3544 12.2430157,18.1298774 12.634925,17.7389546 C13.0281467,17.3427764 13.2529,16.8126599 13.2529,16.2494 C13.2529,15.6818118 13.0302248,15.1511066 12.6394546,14.758375 C12.2430993,14.3649775 11.7128956,14.1404 11.1479,14.1404 Z M11.1479,14.3914 C11.647607,14.3914 12.118379,14.5901206 12.4587216,14.9348004 C12.8048672,15.2820345 13.0039,15.7517408 13.0039,16.2494 C13.0039,16.7477736 12.8050823,17.2139093 12.4587216,17.5569996 C12.1131571,17.9036508 11.6464578,18.1014 11.1479,18.1014 C10.6471766,18.1014 10.1773308,17.9026728 9.83763684,17.5575554 C9.49118431,17.2154471 9.2919,16.7456057 9.2919,16.2464 C9.2919,15.7485037 9.49009709,15.2817816 9.83718932,14.9346893 C10.1832739,14.5886048 10.649066,14.3914 11.1479,14.3914 Z M11.1479,14.5914 C10.7026805,14.5914 10.2875768,14.7671445 9.97861068,15.0761107 C9.66858386,15.3861375 9.4919,15.8021995 9.4919,16.2464 C9.4919,16.6917385 9.66949694,17.1104488 9.97916699,17.41625 C10.2824459,17.7243582 10.7010214,17.9014 11.1479,17.9014 C11.5927712,17.9014 12.0086748,17.7251738 12.3175252,17.415355 C12.6268204,17.1089777 12.8039,16.6938079 12.8039,16.2494 C12.8039,15.8053281 12.6262938,15.3861873 12.3167432,15.0756617 C12.0134641,14.7685192 11.5938662,14.5914 11.1479,14.5914 Z M11.153,9.159 L11.4740793,9.16659534 C12.7524709,9.22423736 13.9998341,9.62666028 15.1037776,10.3481551 C15.2863084,10.4648899 15.4327413,10.6129409 15.5434623,10.7916401 C15.6488623,10.9658727 15.7147581,11.1668413 15.7374134,11.3815472 C15.758715,11.5966929 15.7355097,11.8041917 15.667833,12.0017014 C15.6137857,12.149708 15.536595,12.2859017 15.4378091,12.4061112 L15.3318821,12.5208382 L14.8137784,13.0429425 C14.5924276,13.2653474 14.3039815,13.4049542 13.9950004,13.4445382 C13.7397955,13.4782617 13.4796564,13.4378766 13.2413172,13.3278781 L13.1011436,13.2535614 C12.4990342,12.8988678 11.8252885,12.7133508 11.1419,12.7104 C10.4578923,12.7104 9.78062077,12.894088 9.1788621,13.2474399 C8.90551119,13.4093477 8.59313713,13.4723241 8.28466019,13.4325197 C8.02687426,13.3980862 7.78613242,13.2967355 7.58496245,13.1346215 L7.46918932,13.0301107 L6.95444141,12.5153619 C6.80190295,12.3639052 6.68723888,12.1848109 6.61713868,11.986342 C6.55157756,11.791844 6.52923686,11.5820594 6.5524522,11.3689055 C6.5752924,11.1524674 6.64213361,10.9505741 6.75027672,10.7771187 C6.86001917,10.6028218 7.00724243,10.454516 7.18781721,10.3362867 C8.30410116,9.61854377 9.55715276,9.22044381 10.8343768,9.16585878 L11.153,9.159 Z M11.1536787,9.35936547 C9.80508731,9.35639845 8.47296707,9.74774162 7.29667859,10.5040619 C7.14053672,10.6062976 7.01376817,10.7339983 6.91975863,10.8833057 C6.8283137,11.0299797 6.77108848,11.202828 6.75131215,11.3902271 C6.73118695,11.5750129 6.75041888,11.7556054 6.80618957,11.9210912 C6.85080397,12.0473843 6.91722125,12.1652741 7.00319766,12.2714883 L7.09561068,12.3736893 L7.61094033,12.8890205 C7.80090985,13.0807738 8.04487564,13.1987144 8.31069713,13.2342222 C8.5747788,13.2682973 8.84223465,13.2143766 9.07726433,13.0751676 C9.71009127,12.7035716 10.4223294,12.5104 11.1423317,12.5104009 C11.7716781,12.5131175 12.3927726,12.662815 12.9625651,12.9501803 L13.2034954,13.0817384 C13.4399429,13.2241546 13.7077026,13.2807639 13.9691925,13.2462107 C14.1906704,13.2178363 14.3993828,13.129957 14.572501,12.9912303 L14.6719179,12.9019618 L15.1914405,12.3784599 C15.3215404,12.2528462 15.4181702,12.1023268 15.4792962,11.9349943 C15.5369082,11.7668046 15.5568896,11.5881335 15.5384522,11.4018945 C15.5188921,11.2165392 15.4622485,11.043788 15.3728957,10.8960714 C15.2785566,10.7438211 15.1534318,10.6173137 14.9951921,10.5161081 C13.9204795,9.8137227 12.7077558,9.42243659 11.4651197,9.36639485 L11.1536787,9.35936547 Z M11.1541368,9.60640028 C12.4539112,9.60947788 13.7347176,9.99351138 14.8601635,10.7254031 C14.9815449,10.8038177 15.0811372,10.9056607 15.1572884,11.0263537 C15.2289369,11.143902 15.2728017,11.2799954 15.2882508,11.429024 C15.3047441,11.5730656 15.2889192,11.7143593 15.2416651,11.8491578 C15.208989,11.9373074 15.1643679,12.0193922 15.1076883,12.0948839 L15.0136107,12.2031107 L14.4956107,12.7211107 C14.3420984,12.874623 14.1502565,12.9689715 13.9383624,12.9977409 C13.729384,13.0218538 13.519263,12.977935 13.332872,12.8674008 C12.6641919,12.4706442 11.9069728,12.2634 11.1413805,12.2633987 C10.3774083,12.25943 9.62195483,12.4627539 8.95016205,12.8598507 C8.76164444,12.969454 8.54965867,13.0128344 8.34476806,12.9856614 C8.17984329,12.9655039 8.02174889,12.9004071 7.88676805,12.7968345 L7.79012064,12.7120419 L7.27618932,12.1971107 C7.16667949,12.0876008 7.09087051,11.9704163 7.04813488,11.8431578 C6.99994097,11.7131463 6.98379061,11.5689264 6.99943342,11.4180849 C7.0148841,11.2690963 7.06040664,11.1313906 7.13287349,11.0147645 C7.20543847,10.8975442 7.30669733,10.7976878 7.43373451,10.7163399 C8.48114061,10.0414268 9.65542804,9.66675951 10.8538509,9.61311196 L11.1541368,9.60640028 Z M11.1536632,9.80639972 C9.89049879,9.80639972 8.64450066,10.1740881 7.54182633,10.8846137 C7.43896382,10.9504818 7.35918611,11.0291546 7.30283852,11.1201773 C7.24666929,11.2105747 7.21076102,11.3191972 7.19836658,11.4387151 C7.18579497,11.5599413 7.19849805,11.6733776 7.2366863,11.7765322 C7.25899544,11.8428876 7.29262303,11.9054921 7.33881423,11.9661072 L7.41767936,12.0557581 L7.93161068,12.5706893 C8.052997,12.6920756 8.20724864,12.7673651 8.37004462,12.7872677 C8.53171996,12.8087053 8.699149,12.7744429 8.84901459,12.6873147 C9.55139349,12.2721352 10.3423895,12.0592453 11.1419,12.0634 C11.9428466,12.0634 12.7353242,12.2802941 13.4349077,12.6953871 C13.5834119,12.7834536 13.7496142,12.8181926 13.9134367,12.7993104 C14.0468492,12.7811837 14.1705326,12.7298531 14.27735,12.6473652 L14.3541893,12.5796893 L14.8721893,12.0616893 C14.9549282,11.9789504 15.015112,11.8849133 15.0535267,11.781329 C15.0901859,11.6767163 15.102607,11.565814 15.0894334,11.4507151 C15.0768454,11.3293302 15.042179,11.2217757 14.9873316,11.1317684 C14.9273047,11.0366489 14.8482587,10.9558165 14.7513828,10.8932324 C13.6578923,10.1821222 12.4147632,9.80938575 11.1536632,9.80639972 Z M11.1540172,4.56739212 C13.7887383,4.57048063 16.3574057,5.46154637 18.4885448,7.14366043 C18.6506588,7.27057867 18.7784861,7.42342744 18.8677768,7.59656419 C18.9557532,7.76715259 19.0076137,7.95811815 19.0228142,8.16725848 C19.031316,8.37236542 19.002643,8.56637749 18.9358224,8.75135161 C18.8800629,8.89157041 18.8061308,9.01864321 18.7126537,9.13341201 L18.6126107,9.24411068 L18.1066107,9.75011068 C17.8980635,9.95865783 17.6324882,10.0945318 17.3445913,10.1445856 L17.1989434,10.1624 L17.0330447,10.1623 C16.7531677,10.1459883 16.4820068,10.0461353 16.2552015,9.87187129 C14.7754526,8.74166939 12.9804487,8.14042773 11.1417349,8.13639986 C9.31093504,8.13337708 7.51780796,8.72954958 6.022724,9.86177532 C5.74920424,10.071369 5.41643655,10.1702469 5.0777753,10.1491459 C4.78603562,10.1283073 4.5114758,10.020687 4.28526315,9.8359823 L4.17633004,9.73725112 L3.67192695,9.23484733 C3.52838798,9.09023717 3.42038059,8.92225583 3.35185916,8.73805245 C3.28145486,8.55933383 3.2521875,8.36075349 3.26506203,8.15370975 C3.27688688,7.94623734 3.32985203,7.7539331 3.42202324,7.58356419 C3.50835903,7.41615699 3.63579162,7.26420777 3.80147836,7.12748623 C5.85628963,5.52814713 8.287443,4.65029743 10.7797517,4.57297642 L11.1540172,4.56739212 Z M11.1537827,4.76738412 C8.5759033,4.7643684 6.04674063,5.63335295 3.92656139,7.28351827 C3.7830708,7.40197023 3.67304918,7.53315881 3.59885814,7.67697484 C3.51999977,7.82277113 3.47491976,7.98644626 3.46470726,8.16560563 C3.45357735,8.34461178 3.47853441,8.51394661 3.53862219,8.66652663 C3.583033,8.7858807 3.6461319,8.89658767 3.72687885,8.99684354 L3.81346996,9.09354888 L4.31776193,9.5958409 C4.52773756,9.80671771 4.79931022,9.92874595 5.09111746,9.94959347 C5.3811969,9.96766399 5.66625875,9.88296127 5.90152818,9.70268022 C7.43203459,8.54362702 9.26771827,7.93330545 11.1421191,7.93640024 C13.0243315,7.94052338 14.8618748,8.55601376 16.3768267,9.71310347 C16.5328478,9.83298068 16.7129877,9.9118006 16.8987411,9.94561187 L17.0388196,9.96246945 L17.191682,9.96266084 C17.4323095,9.945247 17.6638979,9.85619384 17.8553692,9.70603386 L17.9651893,9.60868932 L18.4711893,9.10268932 C18.5939482,8.97993043 18.685587,8.83937163 18.7488397,8.68044923 C18.8055803,8.52324966 18.8304292,8.35511351 18.8231648,8.17867236 C18.8100617,7.99897303 18.7653298,7.83425704 18.6900232,7.68823581 C18.6141002,7.54101914 18.504956,7.41051061 18.3649439,7.30089482 C16.3685857,5.72516471 13.9831862,4.85561723 11.5232871,4.77375369 L11.1537827,4.76738412 Z M11.153,5.017 L11.514587,5.02322447 C13.9161446,5.10092434 16.2520659,5.95351925 18.2110495,7.49686201 C18.3234353,7.58839268 18.4101135,7.69195625 18.4635927,7.80233765 C18.5257561,7.91575851 18.5601227,8.0436023 18.5717903,8.19471764 C18.5783587,8.33484311 18.5587713,8.46533399 18.5127494,8.5899295 C18.4797024,8.67974964 18.4287819,8.76643248 18.3622553,8.84729189 L18.2906107,8.92611068 L17.7859118,9.43080274 C17.6506769,9.56340313 17.4848909,9.65257956 17.3045303,9.69059854 L17.1667768,9.70939992 L17.0361948,9.70898023 C16.8545669,9.69566182 16.6804487,9.62917766 16.5301036,9.51379645 C14.9702476,8.31936464 13.079564,7.6864 11.1419,7.6864 C9.2070754,7.6864 7.32040106,8.31255974 5.7529,9.5044 C5.56382738,9.64620446 5.33545102,9.71311728 5.10641369,9.69618942 C4.92474127,9.68438071 4.75213733,9.619809 4.60379802,9.50845009 L4.4973306,9.41625168 L3.99518932,8.91611068 C3.89127583,8.81219719 3.8161582,8.69853605 3.77411226,8.57968853 C3.72647709,8.4611545 3.70721397,8.32882528 3.71419912,8.17967125 C3.72529068,8.03659005 3.76018841,7.9078008 3.82050054,7.79165029 C3.88315955,7.67316779 3.9690436,7.57088517 4.08037063,7.4835702 C6.05582035,5.94166384 8.39318167,5.09703205 10.793534,5.0227477 L11.153,5.017 Z M11.1539,5.21738353 C8.67228013,5.2143664 6.24245313,6.0497017 4.20361399,7.64108534 C4.11441745,7.71104342 4.04676721,7.79161069 3.99764961,7.88448153 C3.95051563,7.97525807 3.92268254,8.07797546 3.91379201,8.19204614 C3.90826572,8.31086131 3.923397,8.41480659 3.96115148,8.50898357 C3.98318058,8.57111691 4.01658713,8.63126496 4.06119014,8.6892397 L4.1364694,8.77454832 L4.63837998,9.27445937 C4.77330902,9.40851225 4.94086883,9.48500695 5.12026907,9.49667189 C5.30197389,9.51009835 5.4824883,9.45720878 5.63237422,9.34479705 C7.23441647,8.12669081 9.16366897,7.4864 11.1419,7.4864 C13.1232652,7.4864 15.0567309,8.13368725 16.6517819,9.35506907 C16.7414162,9.42385823 16.8408243,9.4704565 16.9420687,9.49375594 L17.0436312,9.50924808 L17.1604137,9.50961058 C17.303324,9.50032141 17.4418475,9.44881259 17.5603299,9.3611348 L17.6451893,9.28868932 L18.1491893,8.78468932 C18.2317067,8.70217199 18.2914284,8.61225385 18.3250946,8.52075115 C18.361766,8.4214701 18.3773372,8.31773519 18.3721991,8.20712875 C18.3627928,8.08578725 18.33576,7.98522512 18.2859492,7.8940904 C18.2438351,7.80738486 18.1757882,7.72608208 18.0860156,7.6529514 C16.065579,6.06121063 13.636657,5.21738353 11.1539,5.21738353 Z M11.1322177,0.000400504702 C15.0107838,0.0127231929 18.7694776,1.40583491 21.7383318,3.98877803 C21.8883078,4.11854453 22.0043776,4.27016233 22.0874459,4.44395661 C22.170279,4.62066724 22.214622,4.80551858 22.2198469,5.00414086 C22.226411,5.20543917 22.1957887,5.39540558 22.1265092,5.56912969 C22.0704639,5.70669553 21.9968598,5.83246254 21.9065406,5.94203239 L21.810681,6.04604028 L21.2954124,6.56128894 C21.0423792,6.80595748 20.7131298,6.94389386 20.3663462,6.9583406 C20.0139828,6.97049106 19.6699161,6.85345777 19.3967892,6.62129854 C17.0843377,4.63752528 14.1417987,3.56052431 11.1084936,3.54839917 C8.09010273,3.53613345 5.16175505,4.57538293 2.8149476,6.55519782 C2.54259186,6.78233619 2.1971957,6.89765714 1.85147522,6.88334134 C1.55037846,6.87302338 1.26318781,6.76669577 1.01778498,6.56730628 L0.898694971,6.45987002 L0.417,5.973 C0.343454296,5.9015253 0.279747719,5.82487036 0.225907737,5.74424983 L0.152551142,5.62049669 L0.0940918931,5.49163782 C0.025036028,5.31952936 -0.00561011749,5.12860116 0.00103677652,4.92317156 C0.0117179018,4.71916207 0.0579403521,4.53212238 0.140121059,4.3623575 C0.224950566,4.18943581 0.343096836,4.03887299 0.497017164,3.90830652 C3.39919545,1.43369818 6.9972095,0.0862556789 10.7182901,0.00429274544 L11.1322177,0.000400504702 Z M11.1315791,0.200399485 C7.31143676,0.188142344 3.59978166,1.5254984 0.626588478,4.06065878 C0.493268217,4.17375113 0.392279864,4.30244831 0.319908673,4.44997108 C0.249859648,4.59467762 0.210082098,4.75563793 0.200848011,4.93162413 C0.195147222,5.10834859 0.221382534,5.27179691 0.280132243,5.41823719 C0.323624385,5.53036537 0.386959262,5.63702476 0.468848588,5.73668464 L0.554,5.831 L0.556755725,5.83083467 L1.05510503,6.33392998 C1.27257653,6.55092559 1.55717994,6.67313906 1.85903658,6.68348559 C2.15617478,6.69578749 2.45289251,6.59671931 2.68641865,6.40196601 C5.06948977,4.39155622 8.04394297,3.33594422 11.1092997,3.3484008 C14.1896991,3.36071419 17.1782017,4.45453829 19.5266648,6.46920607 C19.7610814,6.6684601 20.0563937,6.76890975 20.3587369,6.75848669 C20.6068105,6.7481503 20.8444034,6.66421132 21.0436234,6.51382952 L21.167119,6.40775972 L21.6702854,5.90360996 C21.785896,5.79150269 21.8766363,5.65236761 21.9410131,5.4943592 C21.9994397,5.34784333 22.0256468,5.1852661 22.0199346,5.01003067 C22.015422,4.83855137 21.9775759,4.68078311 21.906677,4.52952547 C21.8358576,4.38136391 21.7367039,4.25184287 21.6072629,4.13984381 C18.7794264,1.67958849 15.2266095,0.312348333 11.5415477,0.206913309 L11.1315791,0.200399485 Z M11.1322301,0.450400545 C14.9063016,0.466854207 18.5600334,1.82122759 21.4415179,4.33093945 C21.5466998,4.42240203 21.6277437,4.52588023 21.680699,4.63939848 C21.7367179,4.75372275 21.7666688,4.88236894 21.7688463,5.01712307 C21.7733841,5.15552575 21.7531108,5.28438603 21.7060504,5.40477303 C21.6758078,5.4822236 21.6339482,5.55491113 21.5799613,5.62453897 L21.4898219,5.72689887 L20.9777508,6.24092286 C20.8053687,6.4045768 20.5806809,6.50003239 20.3497696,6.51035882 C20.1087813,6.51727714 19.8754989,6.4370954 19.6898132,6.27731911 C17.2963241,4.22533884 14.2500956,3.11053559 11.1105075,3.09739923 C8.11659104,3.08564686 5.20810933,4.07271981 2.82610873,5.96106855 L2.51843496,6.2124781 L2.40455903,6.2943358 C2.24065349,6.39467461 2.05269121,6.44235609 1.86351398,6.43330377 C1.66961807,6.42479126 1.4821209,6.35518991 1.32304681,6.23280743 L1.21911669,6.14103797 L0.734814223,5.65569907 C0.634165049,5.55952319 0.561335835,5.44957092 0.518112256,5.32968853 C0.469790463,5.20944593 0.447515009,5.07861288 0.452009683,4.94071764 C0.458558023,4.80101972 0.488240883,4.67793116 0.544627969,4.55833888 C0.606303439,4.43615163 0.686564326,4.33465332 0.79003748,4.2512892 C3.71858528,1.75554622 7.37379202,0.437993046 11.1322301,0.450400545 Z M11.131464,0.65039905 C7.420536,0.638148449 3.81166076,1.939001 0.917659716,4.40525382 C0.834820836,4.47203211 0.772350059,4.55103295 0.724362148,4.64602159 C0.680589269,4.73892729 0.657127743,4.83621729 0.651847163,4.94865031 C0.648297779,5.05779387 0.665871177,5.16100978 0.70495539,5.25843555 C0.727494351,5.32085114 0.759697202,5.3789313 0.80247397,5.4334821 L0.874683314,5.51276203 L1.37171001,6.01079999 C1.51210144,6.14768163 1.68910934,6.22545433 1.87267922,6.23351427 C1.9849312,6.23888518 2.09637275,6.21907679 2.19706795,6.17715258 L2.29381304,6.1279699 L2.39548174,6.05491282 C4.8631823,3.97659109 7.94028404,2.88495324 11.1113184,2.89740088 C14.2980004,2.91073427 17.3901577,4.04234575 19.8201242,6.12559891 C19.9676131,6.25250799 20.1521885,6.3159486 20.3424269,6.31050009 C20.4874045,6.30400856 20.6309363,6.25405107 20.7539184,6.16659775 L20.8420035,6.09407059 L21.347791,5.58608994 C21.4286472,5.50431486 21.4848341,5.42144463 21.5197632,5.33199199 C21.5565973,5.23776542 21.5726315,5.13584924 21.5689132,5.0220258 C21.5671657,4.91455051 21.5439565,4.81486189 21.5002817,4.72568855 C21.458925,4.63706703 21.3952006,4.55570273 21.3102215,4.48180775 C18.4651598,2.00381942 14.8578255,0.666644767 11.131464,0.65039905 Z" id="Stroke-3" fill-rule="nonzero"></path>
        </g>
    </g>
</svg>