<?xml version="1.0" encoding="UTF-8"?>
<svg width="32px" height="32px" viewBox="0 0 32 32" version="1.1" xmlns="http://www.w3.org/2000/svg" xmlns:xlink="http://www.w3.org/1999/xlink">
    <title>Icn / Amenity / Essentials / Blankets - Pillows</title>
    <g id="Icn-/-Amenity-/-Essentials-/-Blankets---Pillows" stroke="none" stroke-width="1" fill="none" fill-rule="evenodd">
        <g id="Group" transform="translate(3.000000, 4.000000)" fill="#13284C" fill-rule="nonzero">
            <path d="M26.6423885,0.491938818 L26.8140034,0.679152076 L26.9090686,0.797001972 C27.1272989,1.08929286 27.1995194,1.37795507 27.1197903,1.9751819 L27.0797805,2.23126942 L27.0234784,2.52471058 L26.908292,3.04462309 L26.5662347,4.42649684 C26.5430634,4.51760111 26.5191938,4.61127929 26.4946243,4.7076239 C26.1030466,6.24312027 25.9114,7.4276054 25.9114,8.7498 C25.9114,9.93976894 26.0666296,11.018099 26.3831378,12.3411296 L26.8616388,14.2576462 L26.9891855,14.812148 L27.0536879,15.1258823 L27.101868,15.4000465 C27.1953126,15.997049 27.1561631,16.3071327 26.9893534,16.583956 L26.910062,16.7012977 L26.815225,16.819004 L26.6440105,17.0059531 L26.5146476,17.1369473 C26.1772337,17.4597302 25.8833061,17.5713225 25.2261778,17.4978949 L24.9619353,17.4617378 C24.9147926,17.4542832 24.8660326,17.4461187 24.8155559,17.4372506 L24.4913023,17.3756502 L23.9172487,17.25226 L23.2236897,17.0926024 L23.3831103,16.4109976 L24.2092726,16.6001524 L24.6909624,16.7013811 L24.9555046,16.7497908 L25.1804399,16.7831107 C25.2148981,16.7874147 25.2479082,16.7910961 25.2795712,16.7941579 L25.4541937,16.8051183 C25.7476651,16.8116715 25.9026068,16.7439963 26.0535601,16.6061605 L26.1363113,16.5240437 L26.2134819,16.4393175 L26.2792222,16.3556748 L26.3332054,16.268948 C26.3812009,16.17929 26.4110703,16.0787548 26.4213425,15.9485892 L26.4250277,15.8078522 L26.4153211,15.6431942 C26.4125692,15.6135262 26.4092457,15.5826879 26.4053438,15.5505925 L26.3749366,15.342239 L26.3303203,15.099546 L26.2360389,14.6620037 L26.0032265,13.7020309 L25.816335,12.964685 C25.4115858,11.3777105 25.2114,10.1405436 25.2114,8.7498 C25.2114,7.49812971 25.3735532,6.37076323 25.701042,5.00079328 L26.1544468,3.18400217 L26.2711192,2.68083991 L26.3302435,2.39960663 L26.3748212,2.15687556 L26.4051771,1.94847725 C26.4090694,1.91637363 26.4123825,1.88552681 26.4151235,1.85584993 L26.4247559,1.69113305 C26.4252348,1.66578849 26.425155,1.64144013 26.4245232,1.61800113 L26.4141632,1.48758441 C26.4001005,1.38683913 26.3725772,1.30448444 26.3324393,1.22966238 L26.2782732,1.14279666 L26.2123219,1.05899283 C26.1884101,1.03110526 26.1625883,1.00303309 26.1349106,0.974081422 C26.085006,0.921225892 26.0600877,0.872005205 26.0468291,0.827975675 L26.0369633,0.785734173 L26.0243892,0.683232772 L26.0160005,0.658292832 L26.0005772,0.638542902 C25.9972559,0.635702961 25.9935181,0.633093681 25.9893021,0.630722267 L25.9577741,0.619405815 C25.9513986,0.618014685 25.9444214,0.616875832 25.9367809,0.615996459 L25.8824848,0.613891642 L25.7142893,0.629748055 L25.361748,0.69075896 L22.3805065,1.31059689 C20.4295822,1.7147947 18.4286858,1.9358 15.9494,1.9358 C13.6611417,1.9358 11.7806261,1.74749149 9.97077855,1.40060206 L9.25396712,1.25545313 L6.67193567,0.716783898 L6.27551618,0.643415485 L6.16433524,0.62688234 L6.03975952,0.614812745 L5.98083741,0.614786711 L5.93801632,0.620803858 C5.93206876,0.622292547 5.92667773,0.624019711 5.92178606,0.625978685 L5.89797094,0.640460964 L5.8833961,0.660186906 L5.87285622,0.698908105 L5.86540285,0.76686751 C5.85767525,0.824734103 5.83865977,0.89607878 5.76338848,0.975661182 L5.65193253,1.10194841 C5.64097692,1.11584621 5.63050427,1.12978613 5.62052137,1.14385498 L5.56655562,1.23050973 L5.52467121,1.32442588 C5.48298071,1.43985111 5.46662411,1.57860964 5.4779388,1.77047912 L5.49446828,1.94863996 L5.52487814,2.15698147 L5.5694955,2.39967079 L5.66377611,2.83722252 L5.79186353,3.37549696 L6.08346719,4.53464802 C6.48821082,6.12177196 6.6884,7.35905523 6.6884,8.7498 C6.6884,9.32758288 6.64991694,9.89943858 6.57615515,10.4816041 L6.5142691,10.920415 L5.8225309,10.813185 C5.93126501,10.1117434 5.9884,9.43428568 5.9884,8.7498 C5.9884,7.4276054 5.79675342,6.24312027 5.4051757,4.7076239 L5.08890669,3.45087804 L4.94898385,2.85996318 L4.87628873,2.52474516 L4.81996264,2.23132917 L4.77991952,1.97527678 C4.7745978,1.93546844 4.76995095,1.89703198 4.76597718,1.85987493 L4.75019716,1.65154589 C4.73731088,1.32745335 4.79137389,1.11280891 4.91059332,0.915145433 L4.98992942,0.797845324 L5.08481699,0.680182225 L5.19517,0.557717712 C5.21484618,0.536660263 5.23516316,0.515217821 5.25611915,0.493297919 C5.68131164,0.0437454497 6.19674902,-0.071190214 6.97696449,0.0400153719 L7.19392235,0.0786975047 L7.70741541,0.186466143 L9.66164208,0.625157295 C11.5670126,1.02002216 13.5201501,1.2358 15.9494,1.2358 C18.1921085,1.2358 20.0292572,1.05193609 21.7976373,0.713079891 L22.3228007,0.607075901 L24.1932869,0.18643766 L24.7067645,0.0786890304 L24.9236908,0.0400154255 C25.7039757,-0.0712009199 26.2192456,0.0437654895 26.6423885,0.491938818 Z" id="Stroke-1"></path>
            <path d="M11.1495,12.6385 C9.06793887,12.6385 7.33852797,12.546305 5.6349028,12.3747854 L2.26063682,12.0106005 L1.72546143,11.9673291 L1.56414987,11.959771 L1.3689695,11.9587747 L1.26549518,11.9649551 L1.17970131,11.9765716 L1.10847106,11.9935902 L1.04868758,12.0159772 L0.997234062,12.0436986 L0.950993659,12.0767205 L0.861684887,12.1585303 L0.812382855,12.2072504 C0.777443081,12.2414559 0.737667169,12.2791046 0.688899346,12.3201515 L0.608484206,12.3842647 C0.159717538,12.7231132 -0.0285834329,12.9950371 -0.0181347251,13.6121079 L-0.00502060756,13.8604931 C-0.00132236914,13.9048553 0.00312210043,13.950767 0.00829773377,13.9983288 L0.0480049599,14.3043045 L0.104536882,14.6547102 L0.219298994,15.2741883 L0.314728504,15.7567955 C0.518900854,16.7756382 0.6155,17.5188729 0.6155,18.3495 C0.6155,19.076302 0.541540129,19.7362572 0.38627031,20.5725389 L0.138873577,21.8513462 L0.0741982482,22.2258433 C0.0364895514,22.459351 0.00975807844,22.6616176 -0.00503109488,22.8390826 L-0.0181374957,23.0874837 C-0.0259543099,23.550303 0.0780524137,23.818884 0.319939722,24.0670874 L0.452494059,24.1902959 C0.476541668,24.210816 0.50157694,24.2313957 0.527614954,24.2521358 L0.6087523,24.3149377 C0.667528638,24.3593545 0.715237037,24.4003972 0.75603312,24.4380205 L0.906982563,24.5840914 L0.973760959,24.6395294 L1.04876702,24.6830828 L1.10853651,24.7054592 L1.17975453,24.7224686 L1.26553779,24.7340771 L1.36900301,24.7402506 L1.56417232,24.739246 L1.91537425,24.718567 L2.53565144,24.6612548 L5.12426246,24.3780373 C6.99616729,24.1720559 8.85978276,24.0605 11.1495,24.0605 C13.2313404,24.0605 14.9607851,24.1526926 16.6643884,24.3242139 L19.8128874,24.6662416 L20.2120057,24.7042684 L20.6197452,24.7342089 L20.8470689,24.7412542 L21.019837,24.7352292 L21.1103576,24.7240127 L21.1851071,24.7070794 L21.2474758,24.6844661 C21.2570273,24.680226 21.2662041,24.6757507 21.2750769,24.671041 L21.3486325,24.6223473 L21.3929351,24.5840857 L21.4877365,24.4919056 C21.522791,24.4577221 21.5626842,24.420097 21.6115703,24.3790754 L21.6921634,24.3150012 C22.224844,23.9129073 22.3902833,23.6055778 22.2914891,22.7022606 L22.2516277,22.3963857 C22.2435603,22.3418361 22.2347909,22.2854342 22.2253347,22.2270792 L22.1604747,21.8527069 L21.9841817,20.9440063 C21.7794054,19.924594 21.6825,19.1807231 21.6825,18.3495 C21.6825,17.6221832 21.756692,16.9618084 21.9124238,16.1252566 L22.1220775,15.0529581 L22.2253207,14.4724171 L22.2736969,14.1449676 C22.3933822,13.2280711 22.2808377,12.8784914 21.8485728,12.5089832 L21.6925229,12.3842701 C21.6335755,12.3398407 21.5857005,12.2987871 21.5447435,12.2611543 L21.3710148,12.0952519 L21.3260321,12.0595991 L21.2774057,12.0292294 L21.2220198,12.0041768 L21.1567587,11.9844749 L21.0785066,11.9701575 L20.9841478,11.9612584 L20.8705666,11.9578114 L20.657337,11.9629374 L20.276672,11.9891696 L19.4485604,12.0706327 L17.1750207,12.3209628 C15.3031501,12.5269469 13.4395245,12.6385 11.1495,12.6385 Z M1.56350606,12.6745841 L1.67066707,12.6747289 L1.95670984,12.689629 L2.61207612,12.749992 L5.04769772,13.0167628 C6.94398515,13.2254272 8.83294032,13.3385 11.1495,13.3385 C13.2557425,13.3385 15.0083483,13.2450538 16.7342812,13.0712886 L20.0532767,12.7139536 L20.4990507,12.6796776 L20.6291352,12.6747042 L20.736364,12.6745841 C20.9482141,12.6795622 21.0185096,12.7187104 21.09489,12.7876576 L21.1989162,12.884418 L21.2708366,12.9430012 C21.4933945,13.1111955 21.6021856,13.2719536 21.6043237,13.6445789 L21.5977635,13.8324021 L21.5762127,14.0551044 L21.5161192,14.4650368 L21.4231712,14.9803983 L21.2978932,15.6173594 C21.0847837,16.6780965 20.9825,17.463174 20.9825,18.3495 C20.9825,19.1250333 21.0608109,19.8231097 21.2231541,20.6962224 L21.4231597,21.7188762 L21.5160989,22.2342751 L21.5598376,22.5182975 C21.5659018,22.5619955 21.5713511,22.6039404 21.5761822,22.6442322 L21.5977247,22.8669428 L21.6043237,23.0547675 C21.6024443,23.3700618 21.5242403,23.5336267 21.3653374,23.6783085 L21.1987469,23.8147097 L21.0947761,23.9114283 C21.018436,23.9803451 20.9481665,24.0194737 20.7363333,24.0244391 L20.5671252,24.0224371 L20.1577682,23.9944511 L19.234973,23.9010689 L17.2515878,23.6822373 C15.3553332,23.4735699 13.4663667,23.3605 11.1495,23.3605 C9.04353666,23.3605 7.29096547,23.4539486 5.565012,23.6277119 L2.24633926,23.9850165 L1.80070031,24.0193007 L1.67068007,24.0242809 L1.56352294,24.0244391 C1.35183857,24.0194544 1.28176966,23.980346 1.20572615,23.9114635 L1.10216036,23.8147932 L0.935575032,23.6782948 C0.776264256,23.5333727 0.697793904,23.3695262 0.695635113,23.0539363 L0.702129914,22.8659491 C0.704452859,22.8318437 0.707400449,22.7962846 0.710969344,22.759172 L0.739811618,22.517057 L0.783404734,22.2328694 L0.841588238,21.9018195 L0.955869483,21.3068996 C0.970351085,21.2337421 0.985423905,21.1581331 1.0010846,21.0799728 C1.21354782,20.0195985 1.3155,19.2350989 1.3155,18.3495 C1.3155,17.574599 1.23744279,16.8771635 1.07559346,16.0046449 L0.841574232,14.7974685 L0.759752749,14.3187986 L0.723510032,14.0562595 C0.71870103,14.0159419 0.714509977,13.9772772 0.71094021,13.9401657 L0.697003727,13.7353355 C0.683077104,13.3284582 0.775275462,13.1503258 0.980928755,12.9816712 L1.10206746,12.884277 L1.20566368,12.7875837 C1.28172928,12.7186845 1.35181246,12.6795653 1.56350606,12.6745841 Z" id="Stroke-3"></path>
        </g>
    </g>
</svg>