<?xml version="1.0" encoding="UTF-8"?>
<svg width="32px" height="32px" viewBox="0 0 32 32" version="1.1" xmlns="http://www.w3.org/2000/svg" xmlns:xlink="http://www.w3.org/1999/xlink">
    <title>Icn / Amenity / Essentials / Camping Chairs</title>
    <g id="Icn-/-Amenity-/-Essentials-/-Camping-Chairs" stroke="none" stroke-width="1" fill="none" fill-rule="evenodd">
        <g id="Group" transform="translate(8.000000, 4.000000)">
            <path d="M13.5113861,23.0554748 L13.5113861,15.0917605 L14.5253861,15.0934748 L14.5253861,23.0554748 L13.5113861,23.0554748 Z M7.10767176,21.4817605 L9.91652891,19.3637605 L12.7253861,21.4817605 L12.7253861,23.0554748 L7.10767176,23.0554748 L7.10767176,21.4817605 Z M5.30767176,23.0554748 L5.30767176,15.0737605 L6.32167176,15.0763319 L6.32167176,23.0554748 L5.30767176,23.0554748 Z M7.10767176,17.2474748 L9.26338605,18.8717605 L7.10767176,20.4977605 L7.10767176,17.2474748 Z M12.7253861,16.2626176 L9.91652891,18.3806176 L7.10767176,16.2626176 L7.10767176,15.0780462 L12.7253861,15.0900462 L12.7253861,16.2626176 Z M12.7253861,20.4977605 L10.5696718,18.8717605 L12.7253861,17.2474748 L12.7253861,20.4977605 Z M4.35367176,14.2860462 C3.90538605,14.2046176 3.56424319,13.8343319 3.51967176,13.3766176 C3.51795748,13.3586176 3.51538605,13.3414748 3.51110034,13.3234748 L0.817100336,2.06318907 C0.751100336,1.7957605 0.793100336,1.5197605 0.93538605,1.28404621 C1.07767176,1.04833192 1.30310034,0.88204621 1.56967176,0.816903352 C2.12081462,0.680617638 2.68052891,1.01747478 2.81595748,1.56604621 L5.29224319,11.9460462 C5.33424319,12.1234748 5.49281462,12.2486176 5.67452891,12.2486176 L14.9179575,12.2486176 C15.4853861,12.2486176 15.9482432,12.7106176 15.9482432,13.2780462 C15.9482432,13.8463319 15.4853861,14.3083319 14.9188146,14.3083319 L4.35367176,14.2860462 Z M16.3408146,23.0554748 L15.3113861,23.0554748 L15.3113861,15.0489034 C16.1239575,14.8680462 16.7342432,14.1446176 16.7342432,13.2780462 C16.7342432,12.2769034 15.9199575,11.4617605 14.9179575,11.4617605 L5.98481462,11.4617605 L3.58052891,1.38090335 C3.34052891,0.40804621 2.35138605,-0.186810933 1.38110034,0.0531890667 C0.910528907,0.169760495 0.512814622,0.462903352 0.261671764,0.877760495 C0.0113860501,1.29261764 -0.0623282356,1.78204621 0.0533860501,2.25004621 L2.74052891,13.4820462 C2.83224319,14.2929034 3.45367176,14.9434748 4.26110034,15.0677605 C4.28081462,15.0711891 4.30052891,15.0729034 4.32024319,15.0729034 L4.52167176,15.0729034 L4.52167176,23.0554748 L1.27310034,23.0554748 C1.05624319,23.0554748 0.880528907,23.2311891 0.880528907,23.4489034 C0.880528907,23.6657605 1.05624319,23.8414748 1.27310034,23.8414748 L4.91424319,23.8414748 L6.71424319,23.8414748 L13.1179575,23.8414748 L14.9179575,23.8414748 L16.3408146,23.8414748 C16.5585289,23.8414748 16.7342432,23.6657605 16.7342432,23.4489034 C16.7342432,23.2311891 16.5585289,23.0554748 16.3408146,23.0554748 L16.3408146,23.0554748 Z" id="Fill-2" fill="#13284C"></path>
            <path d="M1.35708898,-0.043885414 C2.33309643,-0.285300684 3.32533791,0.273458928 3.63634589,1.21383743 L3.67780065,1.35770403 L6.064,11.361 L14.9179575,11.3617605 C15.8715875,11.3617605 16.664363,12.0615519 16.8102307,12.9744647 L16.8284688,13.1285067 L16.8342432,13.2780462 C16.8342432,14.1261645 16.2756872,14.8612975 15.4841715,15.1063939 L15.411,15.125 L15.411,22.955 L16.3408146,22.9554748 C16.5531034,22.9554748 16.733659,23.0888551 16.8034226,23.2765569 L16.8263075,23.3600958 L16.8342432,23.4489034 C16.8342432,23.6909049 16.6599008,23.8918737 16.4295784,23.9335458 L16.3408146,23.9414748 L1.27310034,23.9414748 C1.00101472,23.9414748 0.780528907,23.720989 0.780528907,23.4489034 C0.780528907,23.2064353 0.954608693,23.0051521 1.18450416,22.9634159 L1.27310034,22.9554748 L4.421,22.955 L4.421,15.172 L4.28229691,15.1712852 L4.24588673,15.1665965 C3.44799296,15.0437784 2.8209088,14.4334788 2.66754102,13.6617213 L2.64327343,13.5053136 L-0.0436906268,2.27404868 C-0.165900876,1.77977612 -0.087652653,1.26319515 0.176125878,0.825973419 C0.411605612,0.43698983 0.769534479,0.149350875 1.19461142,0.00391564617 L1.35708898,-0.043885414 Z M3.48343965,1.40485489 C3.25690537,0.486581998 2.32270223,-0.0767023113 1.40511169,0.150263547 C0.960409099,0.260426673 0.584738945,0.537191577 0.347295927,0.929418048 C0.140525605,1.27214694 0.0610827373,1.66882321 0.117915257,2.05975992 L0.15064153,2.22677882 L2.83989531,13.4708071 C2.92665911,14.2378964 3.51455347,14.8516684 4.27823445,14.9692393 L4.32024319,14.9729034 L4.52167176,14.9729034 L4.62167176,15.0729034 L4.62167176,23.0554748 L4.52167176,23.1554748 L1.27310034,23.1554748 C1.11137312,23.1554748 0.980528907,23.2865163 0.980528907,23.4489034 C0.980528907,23.5874422 1.07673175,23.7034363 1.20600193,23.7337502 L1.27310034,23.7414748 L16.3408146,23.7414748 C16.5032016,23.7414748 16.6342432,23.6106306 16.6342432,23.4489034 C16.6342432,23.3096298 16.5380403,23.1935307 16.4082304,23.1632019 L16.3408146,23.1554748 L15.3113861,23.1554748 L15.2113861,23.0554748 L15.2113861,15.0489034 L15.2896603,14.9512919 C16.0694002,14.7777422 16.6342432,14.0847856 16.6342432,13.2780462 C16.6342432,12.3816296 15.9433268,11.6433082 15.0658454,11.5680734 L14.9179575,11.5617605 L5.98481462,11.5617605 L5.88754288,11.4849598 L3.48343965,1.40485489 Z M13.5115551,14.9917606 L14.5255551,14.9934749 L14.6253861,15.0934748 L14.6253861,23.0554748 L14.5253861,23.1554748 L13.5113861,23.1554748 L13.4113861,23.0554748 L13.4113861,15.0917605 L13.5115551,14.9917606 Z M9.97673532,19.2839157 L12.8253861,21.4817605 L12.8253861,23.0554748 L12.7253861,23.1554748 L7.10767176,23.1554748 L7.00767176,23.0554748 L7.04746535,21.4019157 L9.85632249,19.2839157 L9.97673532,19.2839157 Z M5.30792536,14.9737608 L6.32192536,14.9763322 L6.42167176,15.0763319 L6.42167176,23.0554748 L6.32167176,23.1554748 L5.30767176,23.1554748 L5.20767176,23.0554748 L5.20767176,15.0737605 L5.30792536,14.9737608 Z M13.611,15.191 L13.611,22.955 L14.425,22.955 L14.425,15.193 L13.611,15.191 Z M9.915,19.488 L7.20767176,21.4817605 L7.207,22.955 L12.628,22.955 L12.6651796,21.5616053 L9.915,19.488 Z M5.407,15.173 L5.407,22.955 L6.221,22.955 L6.221,15.176 L5.407,15.173 Z M7.16784945,17.1676084 L9.32356374,18.7918941 L9.32360422,18.9515964 L7.16788994,20.5775964 L7.00767176,20.4977605 L7.00767176,17.2474748 L7.16784945,17.1676084 Z M12.6652084,17.1676084 L12.8253861,17.2474748 L12.8253861,20.4977605 L12.6651679,20.5775964 L10.5094536,18.9515964 L10.5094941,18.7918941 L12.6652084,17.1676084 Z M7.207,17.448 L7.207,20.296 L9.097,18.871 L7.207,17.448 Z M12.625,17.448 L10.735,18.871 L12.625,20.296 L12.625,17.448 Z M7.10788537,14.9780464 L12.7255997,14.9900464 L12.8253861,15.0900462 L12.7855925,16.3424624 L9.97673532,18.4604624 L9.85632249,18.4604624 L7.00767176,16.2626176 L7.00767176,15.0780462 L7.10788537,14.9780464 Z M7.203,15.178 L7.16787818,16.1827729 L9.917,18.255 L12.6253861,16.2626176 L12.625,15.19 L7.203,15.178 Z M2.8772323,1.42478191 L2.91322783,1.54284108 L5.389554,11.9230113 C5.41562412,12.0331443 5.50202897,12.1163934 5.60853501,12.1410838 L5.67452891,12.1486176 L14.9179575,12.1486176 C15.5407519,12.1486176 16.0482432,12.6555263 16.0482432,13.2780462 C16.0482432,13.8595928 15.6064156,14.3401902 15.0414389,14.401685 L14.9186037,14.4083317 L4.33579978,14.3844362 C3.88389121,14.3023496 3.53210865,13.9534329 3.43898688,13.5094213 L3.41384503,13.3467429 L0.72001331,2.08714965 C0.647682443,1.79406873 0.693743728,1.49085247 0.849774408,1.23236791 C1.00589362,0.973736686 1.253659,0.791185724 1.54566694,0.719827255 C2.06958953,0.590272527 2.60071828,0.850374993 2.82985591,1.31421091 L2.8772323,1.42478191 Z M1.59341052,0.914044854 C1.35293216,0.972811271 1.14965895,1.12258087 1.02099769,1.33572451 C0.913798988,1.51331273 0.869685479,1.71569219 0.89256066,1.91843041 L0.91435564,2.03992094 L3.61636986,13.3429142 L3.61920098,13.3669257 C3.65536071,13.7382583 3.90784668,14.0464075 4.24029287,14.1567693 L4.3538827,14.1860464 L14.9188146,14.2083319 C15.4305861,14.2083319 15.8482432,13.7906749 15.8482432,13.2780462 C15.8482432,12.802607 15.4879138,12.4087313 15.0261909,12.354889 L14.9179575,12.3486176 L5.67452891,12.3486176 C5.47482887,12.3486176 5.29771614,12.228296 5.22131996,12.0493512 L5.19497284,11.9692513 L2.71868712,1.58925133 L2.68695934,1.48694646 C2.52447928,1.05373512 2.05555138,0.79976777 1.59341052,0.914044854 Z" id="Stroke-3" fill="#FFFFFF" fill-rule="nonzero"></path>
        </g>
    </g>
</svg>