<?xml version="1.0" encoding="UTF-8"?>
<svg width="32px" height="32px" viewBox="0 0 32 32" version="1.1" xmlns="http://www.w3.org/2000/svg" xmlns:xlink="http://www.w3.org/1999/xlink">
    <title>Icn / Amenity / Essentials / Toilet Paper - Paper Towels</title>
    <g id="Icn-/-Amenity-/-Essentials-/-Toilet-Paper---Paper-Towels" stroke="none" stroke-width="1" fill="none" fill-rule="evenodd">
        <g id="Group" transform="translate(3.000000, 6.000000)" fill="#13284C">
            <g id="Group-3" transform="translate(0.000000, 0.312600)">
                <path d="M23.2797,18.2734 C23.2147,18.2394 23.1357,18.2344 23.0667,18.2594 C22.9967,18.2844 22.9397,18.3374 22.9117,18.4064 L22.5467,19.2734 L21.1507,17.9484 C21.0857,17.8864 20.9947,17.8624 20.9087,17.8804 C20.8217,17.9014 20.7507,17.9624 20.7177,18.0454 L20.2257,19.3184 L19.0447,18.4914 C18.9297,18.4124 18.7737,18.4334 18.6847,18.5424 L18.0307,19.3454 L16.6697,18.1124 C16.6077,18.0564 16.5257,18.0334 16.4417,18.0474 C16.3597,18.0634 16.2907,18.1154 16.2527,18.1894 L15.6667,19.3424 L14.4277,18.5094 C14.3137,18.4324 14.1577,18.4564 14.0717,18.5634 L13.4227,19.3644 C9.5677,16.3474 9.3367,9.3944 9.3277,8.1004 C9.3287,8.0274 9.3327,7.9574 9.3327,7.8834 C9.3327,4.8324 8.5187,2.2844 7.3387,1.2204 L18.9657,1.2204 C20.4307,1.2204 21.6687,4.2724 21.6687,7.8834 C21.6687,7.8854 21.6707,7.8884 21.6707,7.8904 C21.6707,8.2444 21.7137,14.9574 24.4637,18.8884 L23.2797,18.2734 Z M7.3377,14.5464 C8.0717,13.8864 8.6617,12.6494 9.0047,11.0764 C9.1447,12.1264 9.3797,13.3344 9.7667,14.5464 L7.3377,14.5464 Z M5.6457,7.6174 C5.6967,6.7734 5.9747,6.3184 6.0957,6.3184 C6.2167,6.3184 6.4937,6.7734 6.5457,7.6174 L5.6457,7.6174 Z M6.5457,8.1504 C6.4937,8.9934 6.2167,9.4494 6.0957,9.4494 C6.0457,9.4494 5.8697,9.2994 5.7457,8.8194 L5.7457,8.8184 C5.6927,8.6174 5.6657,8.3874 5.6507,8.1504 L6.5457,8.1504 Z M3.3987,8.1504 L5.1167,8.1504 C5.1327,8.4334 5.1647,8.7094 5.2287,8.9534 C5.3977,9.6074 5.7147,9.9824 6.0957,9.9824 C6.7487,9.9824 7.0897,8.9264 7.0897,7.8834 C7.0897,6.8404 6.7487,5.7844 6.0957,5.7844 C5.4987,5.7844 5.1657,6.6684 5.1127,7.6174 L3.3987,7.6174 C3.4577,4.1244 4.6667,1.2204 6.0957,1.2204 C7.5577,1.2204 8.7927,4.2594 8.7987,7.8604 C8.7977,7.8664 8.7947,7.8714 8.7947,7.8774 C8.7937,7.9104 8.7917,8.0114 8.7927,8.1694 C8.7297,11.6544 7.5227,14.5464 6.0957,14.5464 C4.6667,14.5464 3.4577,11.6434 3.3987,8.1504 L3.3987,8.1504 Z M22.2087,8.1504 L24.7937,8.1504 C24.9407,8.1504 25.0607,8.0314 25.0607,7.8834 C25.0607,7.7364 24.9407,7.6174 24.7937,7.6174 L22.1967,7.6174 C22.1347,3.7104 20.7397,0.6874 18.9657,0.6874 L6.0957,0.6874 C4.3217,0.6874 2.9257,3.7104 2.8647,7.6174 L0.2667,7.6174 C0.1197,7.6174 -0.0003,7.7364 -0.0003,7.8834 C-0.0003,8.0314 0.1197,8.1504 0.2667,8.1504 L2.8647,8.1504 C2.9257,12.0564 4.3217,15.0814 6.0957,15.0814 L9.9467,15.0814 C10.6137,16.9414 11.6607,18.7544 13.3117,19.9484 C13.4277,20.0324 13.5867,20.0104 13.6757,19.9004 L14.3327,19.0894 L15.6187,19.9544 C15.6807,19.9964 15.7597,20.0094 15.8347,19.9914 C15.9087,19.9714 15.9697,19.9214 16.0057,19.8534 L16.5697,18.7434 L17.8807,19.9304 C17.9347,19.9794 18.0057,20.0044 18.0807,19.9994 C18.1527,19.9934 18.2197,19.9584 18.2667,19.9004 L18.9417,19.0714 L20.1997,19.9514 C20.2667,19.9984 20.3517,20.0134 20.4297,19.9874 C20.5087,19.9634 20.5717,19.9044 20.6007,19.8284 L21.0727,18.6094 L22.4587,19.9254 C22.5217,19.9864 22.6117,20.0084 22.6977,19.9944 C22.7827,19.9754 22.8537,19.9174 22.8877,19.8354 L23.2907,18.8804 L25.3837,19.9694 C25.4227,19.9894 25.4647,19.9994 25.5067,19.9994 C25.5887,19.9994 25.6687,19.9604 25.7207,19.8904 C25.7987,19.7854 25.7887,19.6384 25.6957,19.5444 C22.5967,16.4104 22.2477,9.5764 22.2087,8.1504 L22.2087,8.1504 Z" id="Fill-1"></path>
            </g>
            <path d="M11.8564,7.9258 L10.6884,7.9258 C10.5404,7.9258 10.4204,8.0448 10.4204,8.1928 C10.4204,8.3398 10.5404,8.4588 10.6884,8.4588 L11.8564,8.4588 C12.0034,8.4588 12.1234,8.3398 12.1234,8.1928 C12.1234,8.0448 12.0034,7.9258 11.8564,7.9258" id="Fill-4"></path>
            <path d="M14.6001,7.9258 L13.4311,7.9258 C13.2841,7.9258 13.1641,8.0448 13.1641,8.1928 C13.1641,8.3398 13.2841,8.4588 13.4311,8.4588 L14.6001,8.4588 C14.7471,8.4588 14.8671,8.3398 14.8671,8.1928 C14.8671,8.0448 14.7471,7.9258 14.6001,7.9258" id="Fill-6"></path>
            <path d="M17.3432,7.9258 L16.1742,7.9258 C16.0282,7.9258 15.9072,8.0448 15.9072,8.1928 C15.9072,8.3398 16.0282,8.4588 16.1742,8.4588 L17.3432,8.4588 C17.4902,8.4588 17.6112,8.3398 17.6112,8.1928 C17.6112,8.0448 17.4902,7.9258 17.3432,7.9258" id="Fill-8"></path>
            <path d="M20.0874,7.9258 L18.9184,7.9258 C18.7714,7.9258 18.6514,8.0448 18.6514,8.1928 C18.6514,8.3398 18.7714,8.4588 18.9184,8.4588 L20.0874,8.4588 C20.2344,8.4588 20.3544,8.3398 20.3544,8.1928 C20.3544,8.0448 20.2344,7.9258 20.0874,7.9258" id="Fill-10"></path>
        </g>
    </g>
</svg>