<?xml version="1.0" encoding="UTF-8"?>
<svg width="32px" height="32px" viewBox="0 0 32 32" version="1.1" xmlns="http://www.w3.org/2000/svg" xmlns:xlink="http://www.w3.org/1999/xlink">
    <title>Icn / Amenity / Essentials / Soap</title>
    <g id="Icn-/-Amenity-/-Essentials-/-Soap" stroke="none" stroke-width="1" fill="none" fill-rule="evenodd">
        <g id="Group" transform="translate(11.000000, 3.000000)" fill="#13284C">
            <g id="Group-3" transform="translate(0.000000, 0.968700)">
                <path d="M8.4322,25.4668 L1.0322,25.4668 C0.7572,25.4668 0.5342,25.2428 0.5342,24.9688 L0.5342,19.2338 L8.9302,19.2338 L8.9302,24.9688 C8.9302,25.2428 8.7062,25.4668 8.4322,25.4668 L8.4322,25.4668 Z M0.5342,18.6988 L8.9302,18.6988 L8.9302,13.5018 L0.5342,13.5018 L0.5342,18.6988 Z M3.2502,6.7488 L6.2142,6.7488 C7.7222,6.8218 8.9302,8.0618 8.9302,9.5878 L8.9302,12.9678 L0.5342,12.9678 L0.5342,9.5878 C0.5342,8.0618 1.7412,6.8218 3.2502,6.7488 L3.2502,6.7488 Z M3.0552,6.2148 L3.0552,4.6548 C3.0552,4.3728 3.2862,4.1428 3.5682,4.1428 L3.6372,4.1428 L5.8272,4.1428 L5.8952,4.1428 C6.1782,4.1428 6.4092,4.3728 6.4092,4.6548 L6.4092,6.2148 L6.2142,6.2148 C6.1672,6.2128 6.1232,6.2008 6.0772,6.2008 L3.3882,6.2008 C3.3402,6.2008 3.2962,6.2128 3.2502,6.2148 L3.0552,6.2148 Z M3.9032,3.6088 L5.5602,3.6088 L5.5602,2.6738 L3.9032,2.6738 L3.9032,3.6088 Z M6.9422,6.3268 L6.9422,4.6548 C6.9422,4.1468 6.5772,3.7228 6.0942,3.6288 L6.0942,2.4068 C6.0942,2.2598 5.9742,2.1398 5.8272,2.1398 L4.9962,2.1398 L4.9962,0.9768 C6.1892,0.9058 7.3792,0.7718 8.5532,0.5608 C8.6992,0.5338 8.7942,0.3958 8.7682,0.2498 C8.7432,0.1058 8.6072,0.0108 8.4582,0.0348 C6.5382,0.3798 4.5792,0.5348 2.6292,0.4938 C2.4782,0.4628 2.3602,0.6088 2.3562,0.7558 C2.3532,0.9038 2.4712,1.0248 2.6182,1.0288 C2.8252,1.0318 3.0312,1.0338 3.2382,1.0338 C3.6462,1.0338 4.0542,1.0238 4.4622,1.0068 L4.4622,2.1398 L3.6372,2.1398 C3.4892,2.1398 3.3702,2.2598 3.3702,2.4068 L3.3702,3.6288 C2.8882,3.7228 2.5212,4.1468 2.5212,4.6548 L2.5212,6.3268 C1.0752,6.7118 0.0002,8.0218 0.0002,9.5878 L0.0002,13.2348 L0.0002,18.9668 L0.0002,24.9688 C0.0002,25.5368 0.4632,25.9998 1.0322,25.9998 L8.4322,25.9998 C9.0002,25.9998 9.4632,25.5368 9.4632,24.9688 L9.4632,18.9668 L9.4632,13.2348 L9.4632,9.5878 C9.4632,8.0218 8.3892,6.7118 6.9422,6.3268 L6.9422,6.3268 Z" id="Fill-1"></path>
            </g>
            <path d="M2.7686,15.953 C3.0026,15.953 3.1936,16.143 3.1936,16.378 C3.1936,16.612 3.0026,16.803 2.7686,16.803 C2.5346,16.803 2.3446,16.612 2.3446,16.378 C2.3446,16.143 2.5346,15.953 2.7686,15.953 M2.7686,17.336 C3.2976,17.336 3.7266,16.906 3.7266,16.378 C3.7266,15.849 3.2976,15.42 2.7686,15.42 C2.2406,15.42 1.8106,15.849 1.8106,16.378 C1.8106,16.906 2.2406,17.336 2.7686,17.336" id="Fill-4"></path>
            <path d="M5.2452,18.0087 C5.4792,18.0087 5.6692,18.1987 5.6692,18.4327 C5.6692,18.6667 5.4792,18.8577 5.2452,18.8577 C5.0112,18.8577 4.8212,18.6667 4.8212,18.4327 C4.8212,18.1987 5.0112,18.0087 5.2452,18.0087 M5.2452,19.3907 C5.7732,19.3907 6.2032,18.9607 6.2032,18.4327 C6.2032,17.9047 5.7732,17.4757 5.2452,17.4757 C4.7172,17.4757 4.2872,17.9047 4.2872,18.4327 C4.2872,18.9607 4.7172,19.3907 5.2452,19.3907" id="Fill-6"></path>
            <path d="M7.0699,15.4345 C7.3029,15.4345 7.4939,15.6245 7.4939,15.8595 C7.4939,16.0925 7.3029,16.2835 7.0699,16.2835 C6.8359,16.2835 6.6449,16.0925 6.6449,15.8595 C6.6449,15.6245 6.8359,15.4345 7.0699,15.4345 M7.0699,16.8175 C7.5979,16.8175 8.0269,16.3875 8.0269,15.8595 C8.0269,15.3305 7.5979,14.9015 7.0699,14.9015 C6.5419,14.9015 6.1119,15.3305 6.1119,15.8595 C6.1119,16.3875 6.5419,16.8175 7.0699,16.8175" id="Fill-8"></path>
        </g>
    </g>
</svg>