<?xml version="1.0" encoding="UTF-8"?>
<svg width="32px" height="32px" viewBox="0 0 32 32" version="1.1" xmlns="http://www.w3.org/2000/svg" xmlns:xlink="http://www.w3.org/1999/xlink">
    <title>Icn / Amenity / Essentials / Towels</title>
    <g id="Icn-/-Amenity-/-Essentials-/-Towels" stroke="none" stroke-width="1" fill="none" fill-rule="evenodd">
        <g id="Group" transform="translate(5.000000, 5.000000)" fill="#13284C">
            <path d="M1.6,18.3091 L17.313,18.3091 L17.313,17.4631 L1.6,17.4631 L1.6,18.3091 Z M17.613,18.9081 L1.299,18.9081 C1.133,18.9081 1,18.7741 1,18.6081 L1,17.1631 C1,16.9981 1.133,16.8631 1.299,16.8631 L17.613,16.8631 C17.779,16.8631 17.912,16.9981 17.912,17.1631 L17.912,18.6081 C17.912,18.7741 17.779,18.9081 17.613,18.9081 L17.613,18.9081 Z" id="Fill-1"></path>
            <path d="M2.1914,15.7725 C2.1714,15.7725 2.1524,15.7705 2.1324,15.7655 C2.1134,15.7615 2.0934,15.7555 2.0764,15.7485 C2.0584,15.7425 2.0414,15.7325 2.0234,15.7215 C2.0074,15.7105 1.9924,15.6985 1.9804,15.6835 C1.9664,15.6695 1.9514,15.6545 1.9414,15.6375 C1.9314,15.6225 1.9214,15.6045 1.9144,15.5855 C1.9064,15.5685 1.9004,15.5495 1.8984,15.5305 C1.8944,15.5115 1.8924,15.4925 1.8924,15.4715 C1.8924,15.3925 1.9234,15.3165 1.9804,15.2595 C1.9924,15.2465 2.0074,15.2345 2.0234,15.2215 C2.0414,15.2115 2.0584,15.2025 2.0764,15.1945 C2.0934,15.1885 2.1134,15.1815 2.1324,15.1775 C2.2304,15.1585 2.3344,15.1905 2.4044,15.2595 C2.4594,15.3165 2.4924,15.3925 2.4924,15.4715 C2.4924,15.4925 2.4904,15.5115 2.4864,15.5305 C2.4824,15.5495 2.4764,15.5685 2.4684,15.5855 C2.4594,15.6045 2.4514,15.6225 2.4394,15.6375 C2.4294,15.6545 2.4184,15.6695 2.4044,15.6835 C2.3474,15.7405 2.2694,15.7725 2.1914,15.7725" id="Fill-3"></path>
            <path d="M4.2968,15.4717 C4.2968,15.3057 4.4318,15.1717 4.5958,15.1717 C4.7618,15.1717 4.8988,15.3057 4.8988,15.4717 C4.8988,15.6377 4.7618,15.7727 4.5958,15.7727 C4.4318,15.7727 4.2968,15.6377 4.2968,15.4717 M6.7008,15.4717 C6.7008,15.3057 6.8358,15.1717 7.0018,15.1717 C7.1678,15.1717 7.3028,15.3057 7.3028,15.4717 C7.3028,15.6377 7.1678,15.7727 7.0018,15.7727 C6.8358,15.7727 6.7008,15.6377 6.7008,15.4717 M9.1078,15.4717 C9.1078,15.3057 9.2418,15.1717 9.4078,15.1717 C9.5738,15.1717 9.7068,15.3057 9.7068,15.4717 C9.7068,15.6377 9.5738,15.7727 9.4078,15.7727 C9.2418,15.7727 9.1078,15.6377 9.1078,15.4717 M11.5138,15.4717 C11.5138,15.3057 11.6488,15.1717 11.8148,15.1717 C11.9808,15.1717 12.1128,15.3057 12.1128,15.4717 C12.1128,15.6377 11.9808,15.7727 11.8148,15.7727 C11.6488,15.7727 11.5138,15.6377 11.5138,15.4717 M13.9198,15.4717 C13.9198,15.3057 14.0548,15.1717 14.2208,15.1717 C14.3868,15.1717 14.5198,15.3057 14.5198,15.4717 C14.5198,15.6377 14.3868,15.7727 14.2208,15.7727 C14.0548,15.7727 13.9198,15.6377 13.9198,15.4717" id="Fill-4"></path>
            <path d="M16.625,15.7725 C16.547,15.7725 16.469,15.7405 16.412,15.6835 C16.398,15.6695 16.387,15.6545 16.377,15.6375 C16.363,15.6225 16.355,15.6045 16.348,15.5855 C16.34,15.5685 16.334,15.5495 16.33,15.5305 C16.326,15.5115 16.324,15.4925 16.324,15.4715 C16.324,15.3925 16.355,15.3165 16.412,15.2595 C16.525,15.1485 16.727,15.1485 16.838,15.2595 C16.895,15.3165 16.926,15.3925 16.926,15.4715 C16.926,15.4925 16.924,15.5115 16.92,15.5305 C16.916,15.5495 16.91,15.5685 16.902,15.5855 C16.895,15.6045 16.887,15.6225 16.875,15.6375 C16.863,15.6545 16.85,15.6695 16.838,15.6835 C16.781,15.7405 16.705,15.7725 16.625,15.7725" id="Fill-5"></path>
            <path d="M1.2988,21.7891 C1.1328,21.7891 0.9998,21.6551 0.9998,21.4891 L0.9998,20.3011 C0.9998,20.1361 1.1328,20.0011 1.2988,20.0011 C1.4648,20.0011 1.5998,20.1361 1.5998,20.3011 L1.5998,21.4891 C1.5998,21.6551 1.4648,21.7891 1.2988,21.7891" id="Fill-6"></path>
            <path d="M2.7812,21.7891 C2.6172,21.7891 2.4822,21.6551 2.4822,21.4891 L2.4822,20.3011 C2.4822,20.1361 2.6172,20.0011 2.7812,20.0011 C2.9472,20.0011 3.0822,20.1361 3.0822,20.3011 L3.0822,21.4891 C3.0822,21.6551 2.9472,21.7891 2.7812,21.7891" id="Fill-7"></path>
            <path d="M4.2656,21.7891 C4.0996,21.7891 3.9646,21.6551 3.9646,21.4891 L3.9646,20.3011 C3.9646,20.1361 4.0996,20.0011 4.2656,20.0011 C4.4316,20.0011 4.5646,20.1361 4.5646,20.3011 L4.5646,21.4891 C4.5646,21.6551 4.4316,21.7891 4.2656,21.7891" id="Fill-8"></path>
            <path d="M5.748,21.7891 C5.582,21.7891 5.447,21.6551 5.447,21.4891 L5.447,20.3011 C5.447,20.1361 5.582,20.0011 5.748,20.0011 C5.914,20.0011 6.049,20.1361 6.049,20.3011 L6.049,21.4891 C6.049,21.6551 5.914,21.7891 5.748,21.7891" id="Fill-9"></path>
            <path d="M7.2304,21.7891 C7.0664,21.7891 6.9314,21.6551 6.9314,21.4891 L6.9314,20.3011 C6.9314,20.1361 7.0664,20.0011 7.2304,20.0011 C7.3964,20.0011 7.5314,20.1361 7.5314,20.3011 L7.5314,21.4891 C7.5314,21.6551 7.3964,21.7891 7.2304,21.7891" id="Fill-10"></path>
            <path d="M8.7148,21.7891 C8.5488,21.7891 8.4138,21.6551 8.4138,21.4891 L8.4138,20.3011 C8.4138,20.1361 8.5488,20.0011 8.7148,20.0011 C8.8808,20.0011 9.0138,20.1361 9.0138,20.3011 L9.0138,21.4891 C9.0138,21.6551 8.8808,21.7891 8.7148,21.7891" id="Fill-11"></path>
            <path d="M10.1972,21.7891 C10.0312,21.7891 9.8962,21.6551 9.8962,21.4891 L9.8962,20.3011 C9.8962,20.1361 10.0312,20.0011 10.1972,20.0011 C10.3632,20.0011 10.4982,20.1361 10.4982,20.3011 L10.4982,21.4891 C10.4982,21.6551 10.3632,21.7891 10.1972,21.7891" id="Fill-12"></path>
            <path d="M11.6797,21.7891 C11.5157,21.7891 11.3807,21.6551 11.3807,21.4891 L11.3807,20.3011 C11.3807,20.1361 11.5157,20.0011 11.6797,20.0011 C11.8457,20.0011 11.9807,20.1361 11.9807,20.3011 L11.9807,21.4891 C11.9807,21.6551 11.8457,21.7891 11.6797,21.7891" id="Fill-13"></path>
            <path d="M13.164,21.7891 C12.998,21.7891 12.863,21.6551 12.863,21.4891 L12.863,20.3011 C12.863,20.1361 12.998,20.0011 13.164,20.0011 C13.33,20.0011 13.463,20.1361 13.463,20.3011 L13.463,21.4891 C13.463,21.6551 13.33,21.7891 13.164,21.7891" id="Fill-14"></path>
            <path d="M14.6465,21.7891 C14.4805,21.7891 14.3475,21.6551 14.3475,21.4891 L14.3475,20.3011 C14.3475,20.1361 14.4805,20.0011 14.6465,20.0011 C14.8125,20.0011 14.9475,20.1361 14.9475,20.3011 L14.9475,21.4891 C14.9475,21.6551 14.8125,21.7891 14.6465,21.7891" id="Fill-15"></path>
            <path d="M16.1308,21.7891 C15.9648,21.7891 15.8298,21.6551 15.8298,21.4891 L15.8298,20.3011 C15.8298,20.1361 15.9648,20.0011 16.1308,20.0011 C16.2948,20.0011 16.4298,20.1361 16.4298,20.3011 L16.4298,21.4891 C16.4298,21.6551 16.2948,21.7891 16.1308,21.7891" id="Fill-16"></path>
            <path d="M17.6133,21.7891 C17.4473,21.7891 17.3123,21.6551 17.3123,21.4891 L17.3123,20.3011 C17.3123,20.1361 17.4473,20.0011 17.6133,20.0011 C17.7793,20.0011 17.9123,20.1361 17.9123,20.3011 L17.9123,21.4891 C17.9123,21.6551 17.7793,21.7891 17.6133,21.7891" id="Fill-17"></path>
            <path d="M19.455,15.1583 C19.289,15.1583 19.154,15.0243 19.154,14.8583 L19.154,13.6703 C19.154,13.5053 19.289,13.3703 19.455,13.3703 C19.621,13.3703 19.756,13.5053 19.756,13.6703 L19.756,14.8583 C19.756,15.0243 19.621,15.1583 19.455,15.1583" id="Fill-18"></path>
            <path d="M21.2968,15.1583 C21.1308,15.1583 20.9958,15.0243 20.9958,14.8583 L20.9958,13.6703 C20.9958,13.5053 21.1308,13.3703 21.2968,13.3703 C21.4628,13.3703 21.5978,13.5053 21.5978,13.6703 L21.5978,14.8583 C21.5978,15.0243 21.4628,15.1583 21.2968,15.1583" id="Fill-19"></path>
            <path d="M1.5996,19.92 L17.3126,19.92 L17.3126,3.03 C17.3126,2.473 17.5566,1.967 17.9496,1.6 L4.0116,1.6 C2.6816,1.6 1.5996,2.58 1.5996,3.786 L1.5996,19.92 Z M17.6136,20.52 L1.2986,20.52 C1.1326,20.52 0.9996,20.386 0.9996,20.22 L0.9996,3.786 C0.9996,2.25 2.3516,1 4.0116,1 L19.5016,1 C19.6676,1 19.8006,1.134 19.8006,1.3 C19.8006,1.465 19.6676,1.6 19.5016,1.6 C18.6246,1.6 17.9116,2.241 17.9116,3.03 L17.9116,20.22 C17.9116,20.386 17.7796,20.52 17.6136,20.52 L17.6136,20.52 Z" id="Fill-20"></path>
            <path d="M19.7968,1.6231 C19.7808,1.6231 19.7678,1.6211 19.7538,1.6191 C19.6578,1.6051 19.5778,1.6001 19.5018,1.6001 C19.3358,1.6001 19.2008,1.4651 19.2008,1.3001 C19.2008,1.1341 19.3358,1.0001 19.5018,1.0001 L19.8148,1.0001 C19.9318,1.0001 20.0368,1.0671 20.0878,1.1731 C20.1368,1.2781 20.1208,1.4031 20.0448,1.4921 L20.0258,1.5161 C19.9688,1.5841 19.8848,1.6231 19.7968,1.6231" id="Fill-21"></path>
            <path d="M17.9121,13.3702 L21.0901,13.3702 L21.0901,3.0302 C21.0901,2.3242 20.5271,1.7312 19.7541,1.6192 C19.6581,1.6052 19.5781,1.5992 19.5021,1.5992 C18.6251,1.5992 17.9121,2.2412 17.9121,3.0302 L17.9121,13.3702 Z M21.3911,13.9712 L17.6131,13.9712 C17.4471,13.9712 17.3121,13.8362 17.3121,13.6702 L17.3121,3.0302 C17.3121,1.9102 18.2951,1.0002 19.5021,1.0002 C19.6051,1.0002 19.7171,1.0082 19.8381,1.0252 C20.9121,1.1802 21.6891,2.0232 21.6891,3.0302 L21.6891,13.6702 C21.6891,13.8362 21.5571,13.9712 21.3911,13.9712 L21.3911,13.9712 Z" id="Fill-22"></path>
        </g>
    </g>
</svg>