<?xml version="1.0" encoding="UTF-8"?>
<svg width="32px" height="32px" viewBox="0 0 32 32" version="1.1" xmlns="http://www.w3.org/2000/svg" xmlns:xlink="http://www.w3.org/1999/xlink">
    <title>Icn / Add-on / Bike Rack</title>
    <g id="Icn-/-Add-on-/-Bike-Rack" stroke="none" stroke-width="1" fill="none" fill-rule="evenodd">
        <g id="Group" transform="translate(5.000000, 8.000000)" fill="#13284C">
            <path d="M4.127,8.7049 C2.18,8.7049 0.596,10.2889 0.596,12.2359 C0.596,14.1839 2.18,15.7679 4.127,15.7679 C6.076,15.7679 7.66,14.1839 7.66,12.2359 C7.66,10.2889 6.076,8.7049 4.127,8.7049 M4.127,16.3629 C1.852,16.3629 -5.68434189e-14,14.5119 -5.68434189e-14,12.2359 C-5.68434189e-14,9.9609 1.852,8.1099 4.127,8.1099 C6.402,8.1099 8.254,9.9609 8.254,12.2359 C8.254,14.5119 6.402,16.3629 4.127,16.3629" id="Fill-2"></path>
            <path d="M17.4688,8.7049 C15.5218,8.7049 13.9358,10.2889 13.9358,12.2359 C13.9358,14.1839 15.5218,15.7679 17.4688,15.7679 C19.4158,15.7679 20.9998,14.1839 20.9998,12.2359 C20.9998,10.2889 19.4158,8.7049 17.4688,8.7049 M17.4688,16.3629 C15.1938,16.3629 13.3418,14.5119 13.3418,12.2359 C13.3418,9.9609 15.1938,8.1099 17.4688,8.1099 C19.7438,8.1099 21.5958,9.9609 21.5958,12.2359 C21.5958,14.5119 19.7438,16.3629 17.4688,16.3629" id="Fill-3"></path>
            <polygon id="Fill-4" points="4.4102 12.328 3.8442 12.146 7.7402 -1.42108547e-14 10.2172 -1.42108547e-14 10.2172 0.594 8.1742 0.594"></polygon>
            <polygon id="Fill-5" points="11.3321 12.1102 10.8091 11.8282 14.0081 5.8822 14.5311 6.1652"></polygon>
            <path d="M11.209,11.6717 L16.971,11.6717 L14.092,6.3207 L6.756,6.3207 L11.209,11.6717 Z M17.967,12.2667 L10.93,12.2667 L5.486,5.7267 L14.447,5.7267 L17.967,12.2667 Z" id="Fill-6"></path>
            <polygon id="Fill-7" points="13.972 6.0242 14.566 6.0242 14.566 4.0762 13.972 4.0762"></polygon>
            <polygon id="Fill-8" points="12.55 4.3742 15.361 4.3742 15.361 3.7792 12.55 3.7792"></polygon>
        </g>
    </g>
</svg>