<?xml version="1.0" encoding="UTF-8"?>
<svg width="32px" height="32px" viewBox="0 0 32 32" version="1.1" xmlns="http://www.w3.org/2000/svg" xmlns:xlink="http://www.w3.org/1999/xlink">
    <title>Icn / Add-on / Boogie Board</title>
    <g id="Icn-/-Add-on-/-Boogie-Board" stroke="none" stroke-width="1" fill="none" fill-rule="evenodd">
        <g id="Group" transform="translate(10.000000, 2.000000)" fill="#13284C" fill-rule="nonzero">
            <path d="M2.86853154,-0.193260181 L3.09258782,-0.199455835 L9.82623072,-0.199839953 C10.3568101,-0.197685509 10.4732561,-0.143924726 10.7400171,0.232424663 C10.8036425,0.322281569 10.8815309,0.469848753 10.9698093,0.664575474 L11.1095351,0.990716367 C11.1339601,1.05052851 11.1589134,1.11295841 11.1843346,1.17784122 L11.3419912,1.5952541 C11.3690415,1.6692891 11.3964387,1.74544731 11.4241221,1.82356385 L11.5931735,2.31444433 L11.7661906,2.84441189 L11.9402683,3.40555348 L12.1125019,3.98995604 C12.1408924,4.08885527 12.1690851,4.18839399 12.1970194,4.28840736 L12.3610403,4.8928644 L12.5159549,5.50079978 C12.5408538,5.60197259 12.5652522,5.70296062 12.5890896,5.80359901 L12.7248984,6.40191491 L12.8443389,6.9839265 C12.954627,7.55514826 13.0360053,8.09004398 13.0754022,8.55300491 L13.0860667,8.69057243 L13.1040252,9.0005637 L13.1226873,9.55068292 L13.1316583,10.1997476 L13.1312083,10.944143 L13.1164199,12.0787142 L13.0860025,13.3677668 L13.0124721,15.5722546 L12.9131284,17.948447 L12.7040675,22.1129397 L12.4834052,25.8520995 L12.4477908,26.294444 C12.3491131,27.0536734 11.4261881,27.574 10.4507923,27.574 C9.95404382,27.574 9.5201383,27.4310265 9.25050083,27.1477938 C8.87040095,26.7479314 8.23643141,26.3694558 7.70476114,26.2424719 C7.30075814,26.1454601 6.88455983,26.0966667 6.46612564,26.0966667 C6.0472783,26.0966667 5.63173333,26.1454024 5.22725337,26.2425286 C4.69595785,26.3694228 4.06196457,26.7478032 3.68098078,27.1479021 C3.41139961,27.4310756 2.97804165,27.574 2.48145897,27.574 C1.50606323,27.574 0.583138169,27.0536734 0.484465211,26.2944807 L0.448848973,25.852121 L0.271664337,22.9033996 L0.0837147205,19.3179927 L0.0191139541,17.9482482 L-0.0786271061,15.611646 L-0.141656727,13.7745122 L-0.174380833,12.5347418 L-0.194005546,11.4220766 L-0.199531435,10.754803 L-0.197090538,9.9610006 L-0.182442982,9.26915534 L-0.165665576,8.8812247 C-0.159123343,8.76181967 -0.151625433,8.65237259 -0.143154107,8.55304175 C-0.103767611,8.09020331 -0.0224241381,7.55546604 0.0878159613,6.98440644 L0.207204553,6.40255703 L0.342955262,5.80439862 L0.492165789,5.19783707 C0.517994623,5.09648244 0.544263354,4.99510709 0.570911516,4.89387572 L0.734869957,4.28953302 L0.905032466,3.69655191 L1.07849674,3.12283826 L1.25236049,2.57629797 L1.4237214,2.06483692 L1.58967718,1.59636099 C1.61672481,1.52230298 1.64342629,1.45036543 1.66972117,1.38071304 L1.82212744,0.991538325 C1.96868698,0.632420882 2.0962552,0.36742819 2.19177175,0.232136729 L2.29962427,0.0875703584 C2.3308315,0.0489083134 2.3588615,0.018027241 2.38841337,-0.0103101777 C2.5187667,-0.135306568 2.61378547,-0.178821834 2.86853154,-0.193260181 Z M9.88418348,0.408891385 L3.04802302,0.408891385 L2.92487851,0.411946904 L2.85000204,0.417586334 L2.81003688,0.426297125 L2.79183778,0.446089954 L2.68888435,0.583674063 L2.64319541,0.667312289 C2.63363542,0.686970891 2.62314713,0.709383292 2.61179697,0.734391021 L2.53388485,0.91431353 L2.32875875,1.43059528 L2.01278959,2.29082221 L1.81057184,2.87591803 L1.61202868,3.48135593 C1.01414589,5.35876136 0.58659122,7.14743954 0.462738855,8.60495668 L0.441281548,8.91890787 L0.425202145,9.29170966 L0.414430761,9.72192749 L0.40889751,10.2081268 L0.408742845,10.8022651 L0.415295189,11.5104844 L0.437666498,12.6950083 L0.489704905,14.4874961 L0.524727012,15.4686605 L0.584913019,16.9677335 L0.651907461,18.4713273 L0.802913908,21.4718769 L1.00986601,25.1059095 L1.07984987,26.1364419 L1.08775826,26.2159732 C1.11374192,26.413944 1.27162191,26.5868159 1.51369335,26.7231208 C1.78602601,26.8766828 2.14020919,26.966 2.48145897,26.966 C2.82392017,26.966 3.10167669,26.8736647 3.24067069,26.7280277 C3.71214519,26.2332618 4.44806808,25.8032889 5.08572111,25.6507913 C5.53818383,25.5428644 6.00244752,25.488 6.46612564,25.488 C6.92980376,25.488 7.39406746,25.5428644 7.84664473,25.6508186 C8.4841832,25.8032889 9.22010609,26.2332618 9.69172869,26.7281833 C9.82996997,26.8735662 10.1081732,26.966 10.4507923,26.966 C10.7913599,26.966 11.1463378,26.8766861 11.4182574,26.7239573 C11.660939,26.5865622 11.8185166,26.4138889 11.8444444,26.2163462 L11.8711688,25.8903805 L12.0695121,22.5705395 L12.267152,18.7379727 L12.3772541,16.2368549 L12.4601668,13.9404703 L12.5046972,12.2417695 L12.5221229,11.0643945 L12.5240873,10.2938059 L12.516184,9.62425235 L12.4980987,9.05992384 L12.4802299,8.74423232 C12.4768578,8.69573845 12.4732875,8.64932251 12.469517,8.60501037 C12.3450329,7.14668761 11.9169762,5.3552156 11.3202041,3.48129778 L11.154544,2.97290852 L10.9870978,2.48132079 L10.8225262,2.01776647 L10.5912536,1.39956735 L10.4542586,1.05523601 L10.3364505,0.778249658 L10.2511997,0.597734323 L10.1397812,0.445876504 L10.1193481,0.425214314 L10.1038408,0.420803002 L10.0070145,0.411811553 L9.88418348,0.408891385 Z" id="Stroke-1"></path>
        </g>
    </g>
</svg>