<?xml version="1.0" encoding="UTF-8"?>
<svg width="32px" height="32px" viewBox="0 0 32 32" version="1.1" xmlns="http://www.w3.org/2000/svg" xmlns:xlink="http://www.w3.org/1999/xlink">
    <title>Icn / Add-on / Cornhole</title>
    <g id="Icn-/-Add-on-/-Cornhole" stroke="none" stroke-width="1" fill="none" fill-rule="evenodd">
        <g id="Group" transform="translate(0.000000, 7.000000)" fill="#13284C">
            <g id="Group-5" transform="translate(0.000000, 0.533760)">
                <path d="M28.24256,11.291264 L27.824,12.139264 L17.96544,15.954304 L18.10112,15.166464 L28.24256,11.291264 Z M0.82048,3.832704 L1.1904,4.116224 L1.21408,7.069824 L0.86912,6.737664 L0.82048,3.832704 Z M7.71008,2.303744 C7.92448,2.302464 8.13888,2.319104 8.34816,2.347904 C8.6912,2.402304 9.07328,2.491264 9.312,2.764544 C9.31968,2.776064 9.32544,2.788224 9.33056,2.800384 C9.02208,2.994304 8.6432,3.021824 8.28992,3.053184 C7.76896,3.078144 7.21408,3.050624 6.7424,2.802304 C6.64576,2.756224 6.54336,2.614784 6.65792,2.530944 C6.69248,2.498304 6.7296,2.470144 6.76928,2.445184 C7.07008,2.345984 7.39008,2.305024 7.71008,2.303744 L7.71008,2.303744 Z M0.36736,1.907584 L17.54688,15.117184 L17.41376,16.274304 L8.23424,8.980224 L8.0896,8.701824 L7.02848,7.872384 L6.60928,7.757824 L0.42944,2.928384 L0.36736,1.907584 Z M9.41376,3.165824 C9.63712,3.071104 9.89184,2.897664 9.904,2.630784 C9.89312,2.346624 9.61344,2.174464 9.37664,2.079104 C9.26272,2.031744 9.1456,1.992704 9.02656,1.961344 C8.71616,1.873664 8.38912,1.842304 8.06784,1.841664 C8.03776,1.841664 8.00768,1.841664 7.97824,1.841664 C7.80352,1.848704 7.6256,1.860864 7.44896,1.887104 C7.06112,1.935744 6.67968,2.041344 6.36352,2.275584 C6.19008,2.410624 6.10368,2.687744 6.26048,2.866304 C6.49792,3.170944 6.90048,3.264384 7.25824,3.340544 C8.02624,3.480064 8.86592,3.428864 9.41376,3.165824 L9.41376,3.165824 Z M10.28544,0.649344 L27.16544,10.230144 L28.176,10.823424 L27.6896,11.041664 L18.28736,14.469504 L17.84768,14.608384 L16.78016,13.864064 L1.12896,1.937024 L10.28544,0.649344 Z M10.35328,0.137834773 C10.26496,0.140544 10.1472,0.196224 9.84256,0.251264 C9.30112,0.349824 0.04544,1.580544 0.04544,1.580544 L0.144,3.205504 L0.52352,3.535744 C0.52352,3.535744 0.496,6.664064 0.51392,6.733824 L1.13152,7.417344 L1.83424,7.104384 L1.84704,4.502784 C1.84704,4.502784 3.8048,6.083584 6.41536,8.169344 C6.52608,8.257664 6.86144,8.232704 6.97792,8.318464 L7.616,8.788224 C7.68832,8.841984 7.7248,9.194624 7.79584,9.250944 C12.09152,12.683904 17.03552,16.637824 17.1264,16.697984 C17.28256,16.802304 17.56288,16.779264 17.71904,16.709504 C17.73952,16.700544 17.80864,16.544384 17.80864,16.544384 L27.8656,12.564224 L28.09216,12.486144 L28.144,12.416384 L28.15616,12.362624 L28.79616,10.934144 C28.79616,10.934144 28.89472,10.688384 28.69824,10.541184 C28.50112,10.393344 10.82688,0.448384 10.58112,0.251264 C10.4736,0.165504 10.4224,0.135424 10.35328,0.137834773 L10.35328,0.137834773 Z" id="Fill-1"></path>
                <path d="M28.932544,14.780928 C28.932544,14.780928 28.932544,14.193408 29.091264,14.193408 C29.249344,14.193408 29.701184,14.102528 30.085184,14.034688 C30.470464,13.966848 31.058624,13.763328 31.397824,13.853568 C31.737024,13.944448 31.555904,14.396288 31.578304,14.939648 C31.600704,15.481728 31.804864,15.708288 31.487424,15.753728 C31.171904,15.798528 30.515264,15.776128 30.244544,15.776128 C29.972544,15.776128 29.113024,15.889408 28.955584,15.867008 C28.796864,15.843968 28.977344,15.595648 28.977344,15.436288 C28.977344,15.278208 28.932544,14.780928 28.932544,14.780928" id="Fill-3"></path>
            </g>
            <g id="Group-12" transform="translate(8.320000, 1.173760)">
                <path d="M0.582528,0.910272 C0.582528,0.910272 0.757248,0.375232 0.886528,0.423872 C1.015168,0.471872 1.410688,0.528192 1.743488,0.584512 C2.076928,0.640192 2.616448,0.635072 2.865408,0.821952 C3.115008,1.007552 2.833408,1.363392 2.690048,1.863872 C2.546688,2.364352 2.645248,2.632512 2.373888,2.576832 C2.102528,2.520512 1.575808,2.299712 1.355008,2.216512 C1.134208,2.133312 0.400768,1.973312 0.278528,1.903552 C0.155648,1.834432 0.377728,1.664192 0.424448,1.520192 C0.471808,1.376192 0.582528,0.910272 0.582528,0.910272" id="Fill-6"></path>
                <path d="M18.245632,13.82688 C18.540032,13.85952 18.867072,14.02336 19.046272,14.05536 C19.226752,14.08864 19.798912,14.17056 19.994752,14.18656 C20.191872,14.20256 20.322432,14.33376 20.338432,14.39904 C20.354432,14.46432 20.027392,14.824 20.027392,14.9552 C20.027392,15.08576 19.978752,16.41056 19.782912,16.50784 C19.586432,16.6064 19.193472,16.42656 18.883072,16.41056 C18.572032,16.39328 17.901952,16.34528 17.722112,16.26336 C17.542912,16.18144 17.558912,16.03424 17.689472,15.7232 C17.820672,15.4128 17.738752,15.18432 17.901952,14.90592 C18.066432,14.62816 18.033152,14.26848 18.049152,14.05536 C18.066432,13.84288 18.245632,13.82688 18.245632,13.82688" id="Fill-8"></path>
                <path d="M3.429696,5.940928 C3.724096,5.973568 4.050496,6.137408 4.230976,6.170048 C4.410816,6.202688 4.982976,6.283968 5.179456,6.300608 C5.375296,6.316608 5.505856,6.447808 5.522496,6.513088 C5.538496,6.578368 5.212096,6.938048 5.212096,7.069248 C5.212096,7.199808 5.162816,8.523968 4.966336,8.621888 C4.770496,8.720448 4.377536,8.540608 4.067136,8.523968 C3.756736,8.507328 3.086016,8.458688 2.906176,8.376768 C2.726336,8.295488 2.742976,8.148288 2.873536,7.837248 C3.004736,7.526848 2.922816,7.297728 3.086016,7.019968 C3.249856,6.742208 3.217216,6.382528 3.233216,6.170048 C3.249856,5.956928 3.429696,5.940928 3.429696,5.940928" id="Fill-10"></path>
            </g>
        </g>
    </g>
</svg>