<?xml version="1.0" encoding="UTF-8"?>
<svg width="32px" height="32px" viewBox="0 0 32 32" version="1.1" xmlns="http://www.w3.org/2000/svg" xmlns:xlink="http://www.w3.org/1999/xlink">
    <title>Icn / Add-on / Daypacks</title>
    <g id="Icn-/-Add-on-/-Daypacks" stroke="none" stroke-width="1" fill="none" fill-rule="evenodd">
        <g id="Group" transform="translate(3.000000, 4.000000)" fill="#13284C">
            <path d="M20.3686769,20.5961231 L20.3686769,20.5862769 C20.3206769,20.5924308 20.2720615,20.5961231 20.2228308,20.5961231 L20.3686769,20.5961231 Z" id="Fill-2"></path>
            <polygon id="Fill-3" points="20.1304 23.4843077 5.19870769 23.4843077 5.19870769 9.81907692 5.88609231 9.81907692 5.88609231 22.7981538 19.4436308 22.7981538 19.4436308 9.82153846 20.1304 9.82153846"></polygon>
            <polygon id="Fill-4" points="10.4953846 10.5735385 14.8332308 10.5735385 14.8332308 9.88738462 10.4953846 9.88738462"></polygon>
            <path d="M18.3118769,10.5732308 L18.0281846,10.5732308 L18.0281846,9.88707692 L18.3118769,9.88707692 C19.7069538,9.88707692 20.8411077,8.75230769 20.8411077,7.35661538 L20.8411077,3.58307692 C20.8411077,2.188 19.7069538,1.05261538 18.3118769,1.05261538 L7.01833846,1.05261538 C5.62326154,1.05261538 4.48849231,2.188 4.48849231,3.58307692 L4.48849231,7.35661538 C4.48849231,8.75230769 5.62326154,9.88707692 7.01833846,9.88707692 L7.3008,9.88707692 L7.3008,10.5732308 L7.01833846,10.5732308 C5.2448,10.5732308 3.80110769,9.13076923 3.80110769,7.35661538 L3.80110769,3.58307692 C3.80110769,1.80953846 5.2448,0.366461538 7.01833846,0.366461538 L18.3118769,0.366461538 C20.0854154,0.366461538 21.5284923,1.80953846 21.5284923,3.58307692 L21.5284923,7.35661538 C21.5284923,9.13076923 20.0854154,10.5732308 18.3118769,10.5732308" id="Fill-5"></path>
            <path d="M8.24461538,22.7980308 L17.0846154,22.7980308 L17.0846154,18.4244923 C17.0846154,17.0423385 15.9609231,15.9180308 14.5793846,15.9180308 L10.7498462,15.9180308 C9.36830769,15.9180308 8.24461538,17.0423385 8.24461538,18.4244923 L8.24461538,22.7980308 Z M17.7713846,23.4841846 L7.55784615,23.4841846 L7.55784615,18.4244923 C7.55784615,16.6638769 8.98984615,15.2318769 10.7498462,15.2318769 L14.5793846,15.2318769 C16.34,15.2318769 17.7713846,16.6638769 17.7713846,18.4244923 L17.7713846,23.4841846 Z" id="Fill-6"></path>
            <path d="M10.7337846,19.8449231 L12.6648615,20.9889231 L14.5959385,19.8449231 L14.5959385,18.4473846 L10.7337846,18.4473846 L10.7337846,19.8449231 Z M12.6648615,21.7870769 L10.0470154,20.2356923 L10.0470154,17.7612308 L15.2827077,17.7612308 L15.2827077,20.2356923 L12.6648615,21.7870769 Z" id="Fill-7"></path>
            <path d="M20.1304,22.7980308 L22.6657846,22.7980308 C23.6436308,22.7980308 24.4393231,22.0023385 24.4393231,21.0238769 L24.4393231,18.0694154 C24.4393231,17.0915692 23.6436308,16.2958769 22.6657846,16.2958769 L20.1304,16.2958769 L20.1304,22.7980308 Z M22.6657846,23.4841846 L19.4436308,23.4841846 L19.4436308,15.6091077 L22.6657846,15.6091077 C24.0220923,15.6091077 25.1260923,16.7124923 25.1260923,18.0694154 L25.1260923,21.0238769 C25.1260923,22.3808 24.0220923,23.4841846 22.6657846,23.4841846 L22.6657846,23.4841846 Z" id="Fill-8"></path>
            <path d="M2.66406154,16.2956308 C1.6856,16.2956308 0.890523077,17.0913231 0.890523077,18.0697846 L0.890523077,21.0242462 C0.890523077,22.0020923 1.6856,22.7977846 2.66406154,22.7977846 L5.19883077,22.7977846 L5.19883077,16.2956308 L2.66406154,16.2956308 Z M5.8856,23.4845538 L2.66406154,23.4845538 C1.30713846,23.4845538 0.203753846,22.3811692 0.203753846,21.0242462 L0.203753846,18.0697846 C0.203753846,16.7128615 1.30713846,15.6094769 2.66406154,15.6094769 L5.8856,15.6094769 L5.8856,23.4845538 Z" id="Fill-9"></path>
            <polygon id="Fill-10" points="17.4398769 9.16578462 16.7531077 9.16578462 16.7531077 1.05255385 16.1088 1.05255385 16.1088 9.16578462 15.4220308 9.16578462 15.4220308 0.3664 17.4398769 0.3664"></polygon>
            <polygon id="Fill-11" points="16.4315077 14.0708308 15.4216615 12.8591385 15.4216615 11.2954462 16.1090462 11.2954462 16.1090462 12.6105231 16.4315077 12.9976 16.7527385 12.6105231 16.7527385 11.2954462 17.4401231 11.2954462 17.4401231 12.8591385"></polygon>
            <path d="M15.1772308,10.952 L17.6855385,10.952 L17.6855385,9.50830769 L15.1772308,9.50830769 L15.1772308,10.952 Z M14.4898462,11.6381538 L18.3716923,11.6381538 L18.3716923,8.82215385 L14.4898462,8.82215385 L14.4898462,11.6381538 Z" id="Fill-12"></path>
            <polygon id="Fill-13" points="9.90744615 9.16578462 9.22067692 9.16578462 9.22067692 1.05255385 8.57636923 1.05255385 8.57636923 9.16578462 7.8896 9.16578462 7.8896 0.3664 9.90744615 0.3664"></polygon>
            <polygon id="Fill-14" points="8.89846154 14.0708308 7.88923077 12.8591385 7.88923077 11.2954462 8.57661538 11.2954462 8.57661538 12.6105231 8.89846154 12.9976 9.22030769 12.6105231 9.22030769 11.2954462 9.90769231 11.2954462 9.90769231 12.8591385"></polygon>
            <path d="M7.64430769,10.952 L10.1526154,10.952 L10.1526154,9.50830769 L7.64430769,9.50830769 L7.64430769,10.952 Z M6.95753846,11.6381538 L10.8387692,11.6381538 L10.8387692,8.82215385 L6.95753846,8.82215385 L6.95753846,11.6381538 Z" id="Fill-15"></path>
        </g>
    </g>
</svg>