<?xml version="1.0" encoding="UTF-8"?>
<svg width="32px" height="32px" viewBox="0 0 32 32" version="1.1" xmlns="http://www.w3.org/2000/svg" xmlns:xlink="http://www.w3.org/1999/xlink">
    <title>Icn / Add-on / Firewood</title>
    <defs>
        <polygon id="path-1" points="0 0.8947 17.3515 0.8947 17.3515 7.9997 0 7.9997"></polygon>
    </defs>
    <g id="Icn-/-Add-on-/-Firewood" stroke="none" stroke-width="1" fill="none" fill-rule="evenodd">
        <g id="Group" transform="translate(7.000000, 5.000000)">
            <path d="M12.5283,9.584 L12.7733,10.095 C13.2603,11.111 13.0473,13.14 11.9453,14.545 C13.4963,13.905 14.1743,12.494 14.1743,10.035 C14.1743,8.437 13.5143,7.478 12.7603,6.782 C12.6363,7.726 12.2103,8.364 10.9823,8.515 L10.4773,8.576 L10.6713,8.105 C11.3863,6.369 11.4783,5.063 10.9583,3.998 C10.3553,2.763 8.9213,1.792 6.5863,1.042 C7.6473,2.908 7.0773,4.357 6.5683,5.652 C6.1963,6.598 5.8443,7.492 6.0983,8.505 L6.2483,9.104 L5.6863,8.848 C4.7723,8.431 4.5203,7.388 4.9143,5.593 C3.9863,6.479 3.1763,7.834 3.1763,9.131 C3.1763,11.712 3.8713,13.355 5.3423,14.197 C3.9723,12.363 4.9473,10.834 5.4563,10.036 L5.8193,9.454 L6.0673,9.885 C6.2263,10.161 6.7923,10.434 7.1853,10.247 C7.4083,10.143 8.0573,9.6 7.0903,7.021 L6.8723,6.439 L7.4613,6.633 C9.7003,7.37 10.6493,9.172 10.4933,10.689 C11.2823,10.751 12.0863,10.355 12.2473,10.075 L12.5283,9.584 Z M9.5993,15.662 L10.7153,14.9 C12.1193,13.939 12.6183,11.943 12.3743,10.772 C11.8273,11.161 10.9003,11.412 10.0893,11.229 L9.8023,11.164 L9.8633,10.877 C10.1093,9.695 9.4883,8.215 7.8623,7.434 C8.6103,9.803 7.9373,10.55 7.4393,10.785 C6.9153,11.032 6.2653,10.863 5.8503,10.524 C5.2403,11.498 4.5243,12.912 6.6803,14.732 L7.6523,15.555 L6.4173,15.249 C3.8363,14.612 2.5813,12.611 2.5813,9.131 C2.5813,7.297 3.9293,5.438 5.2613,4.551 L5.9403,4.098 L5.7123,4.881 C5.2663,6.409 5.2723,7.241 5.4183,7.705 C5.4403,6.895 5.7313,6.156 6.0143,5.435 C6.5783,4 7.1113,2.647 5.6483,0.701 L5.1223,0 L5.9663,0.235 C8.9383,1.063 10.7463,2.208 11.4923,3.737 C12.1743,5.132 11.8443,6.649 11.4243,7.81 C11.9903,7.604 12.1863,7.145 12.2083,6.17 L12.2203,5.572 L12.6893,5.942 C13.6583,6.707 14.7703,7.863 14.7703,10.035 C14.7703,12.251 14.3343,14.869 10.9313,15.438 L9.5993,15.662 Z" id="Fill-1" fill="#13284C"></path>
            <polygon id="Fill-3" fill="#13284C" points="4.415 18.6211 0 17.4421 0.711 14.7811 8.866 16.9591 8.713 17.5341 1.132 15.5101 0.728 17.0211 4.568 18.0471"></polygon>
            <polygon id="Fill-5" fill="#13284C" points="16.6406 21.8868 8.5986 19.7388 8.7516 19.1638 16.2196 21.1578 16.6226 19.6468 12.7636 18.6158 12.9166 18.0408 17.3516 19.2258"></polygon>
            <g id="Group-9" transform="translate(0.000000, 13.886800)">
                <mask id="mask-2" fill="white">
                    <use xlink:href="#path-1"></use>
                </mask>
                <g id="Clip-8"></g>
                <path d="M0.7285,5.7597 L1.1315,7.2717 L16.6235,3.1347 L16.2195,1.6227 L0.7285,5.7597 Z M0.7105,7.9997 L-0.0005,5.3387 L16.6405,0.8947 L17.3515,3.5557 L0.7105,7.9997 Z" id="Fill-7" fill="#13284C" mask="url(#mask-2)"></path>
            </g>
        </g>
    </g>
</svg>