<?xml version="1.0" encoding="UTF-8"?>
<svg width="32px" height="32px" viewBox="0 0 32 32" version="1.1" xmlns="http://www.w3.org/2000/svg" xmlns:xlink="http://www.w3.org/1999/xlink">
    <title>Icn / Add-on / Hammock</title>
    <g id="Icn-/-Add-on-/-Hammock" stroke="none" stroke-width="1" fill="none" fill-rule="evenodd">
        <g id="Group" transform="translate(2.000000, 8.000000)">
            <path d="M4.64442123,11.3599049 L4.51679485,11.5084454 C6.35604276,13.894831 10.0582364,15.4384 14.071,15.4384 C18.0826165,15.4384 21.7858328,13.8949225 23.6261759,11.5094834 L23.4986288,11.3608773 C21.3983048,12.5216624 17.9399814,13.2114 14.071,13.2114 C10.2012018,13.2114 6.74320358,12.5214062 4.64442123,11.3599049 Z M4.986,11.76 L5.06333853,11.7985421 C7.21933824,12.8180109 10.4701757,13.4114 14.071,13.4114 L14.5191335,13.4083227 C17.9400609,13.3612307 21.011954,12.7757853 23.079286,11.7994025 L23.155,11.762 L23.1092029,11.81492 C21.2117639,13.9035466 17.7774403,15.2384 14.071,15.2384 C10.3635093,15.2384 6.93004524,13.9034844 5.03362175,11.8141157 L4.986,11.76 Z" id="Stroke-2" fill="#FEFEFE" fill-rule="nonzero"></path>
            <path d="M14.071,15.3388 C10.016,15.3388 6.381,13.7638 4.596,11.4468 C6.674,12.5978 10.119,13.3118 14.071,13.3118 C18.023,13.3118 21.468,12.5978 23.547,11.4478 C21.761,13.7638 18.125,15.3388 14.071,15.3388 M27.67,8.5158 C27.627,8.5158 27.523,8.5158 25.849,8.8258 L26.97,6.5578 C27.084,6.3298 26.99,6.0558 26.763,5.9428 C26.537,5.8308 26.261,5.9238 26.148,6.1508 L24.621,9.2428 L24.621,9.2508 C24.617,9.2548 24.613,9.2578 24.611,9.2628 C23.939,10.8018 19.813,12.3948 14.071,12.3948 C8.33,12.3948 4.203,10.8018 3.53,9.2628 C3.529,9.2588 3.525,9.2568 3.523,9.2528 C3.521,9.2498 3.523,9.2458 3.521,9.2428 L1.993,6.1508 C1.881,5.9238 1.605,5.8308 1.379,5.9428 C1.151,6.0558 1.058,6.3298 1.17,6.5578 L2.292,8.8258 C0.619,8.5158 0.515,8.5158 0.472,8.5158 C0.218,8.5158 -4.26325641e-14,8.7208 -4.26325641e-14,8.9748 C-4.26325641e-14,9.2278 0.191,9.4328 0.445,9.4328 C0.587,9.4458 1.691,9.6468 2.752,9.8458 C3.832,13.5768 8.518,16.2558 14.071,16.2558 C19.625,16.2558 24.31,13.5768 25.39,9.8458 C26.451,9.6468 27.552,9.4458 27.67,9.4338 C27.924,9.4338 28.129,9.2278 28.129,8.9748 C28.129,8.7218 27.924,8.5158 27.67,8.5158" id="Fill-3" fill="#13284C"></path>
            <path d="M26.0584785,6.10623646 C26.1959603,5.83005631 26.5317823,5.71660802 26.8075635,5.85327855 C27.0538644,5.97588649 27.170698,6.25374859 27.0965326,6.50815565 L27.0596473,6.60210981 L26.026,8.691 L27.2196112,8.47790915 L27.5126498,8.43171064 L27.6557147,8.41598908 L27.67,8.4158 C27.9789171,8.4158 28.229,8.66625955 28.229,8.9748 C28.229,9.2524864 28.0264328,9.48312728 27.7680944,9.52610453 L27.6524399,9.53691909 L25.611842,9.90599971 L25.467,9.933 L25.4158746,10.0997047 C24.2491125,13.6192794 19.9164187,16.1406795 14.743219,16.3427088 L14.4046686,16.3525827 L14.071,16.3558 C8.60490845,16.3558 3.94304681,13.7704808 2.72612216,10.0996909 L2.674,9.933 L0.5200627,9.54330614 L0.445,9.5328 C0.137645781,9.5328 -0.1,9.28506548 -0.1,8.9748 C-0.1,8.69785799 0.111512213,8.4666216 0.381455883,8.4231508 L0.473391248,8.41580968 L0.630192566,8.43173207 L1.02313998,8.49499977 L2.113,8.691 L1.08024457,6.60189039 C0.974216215,6.38604696 1.01923974,6.13618636 1.1749569,5.97113302 L1.24835232,5.90593458 L1.33459609,5.85319926 C1.5797079,5.73172792 1.8723967,5.80800829 2.03016727,6.02053339 L2.0826505,6.10649665 L3.605,9.195 L3.62162256,9.22273373 C4.34020266,10.8659652 8.77578975,12.2948 14.071,12.2948 C15.0125159,12.2948 15.9268132,12.2496435 16.7979278,12.1660184 L17.4429176,12.0961913 C21.0491513,11.6608158 23.8033106,10.5608035 24.4799015,9.3095644 L24.529,9.208 L24.531338,9.19851995 L26.0584785,6.10623646 Z M26.7185961,6.03240074 C26.564014,5.95579369 26.3792901,6.00209408 26.2764141,6.13360912 L26.237662,6.19508005 L24.710662,9.28708005 L24.721,9.2428 L24.699,9.309 L24.6464344,9.41848177 C23.7827806,11.0314006 19.7157186,12.3681197 14.7815305,12.4863072 L14.4276454,12.4926641 L14.071,12.4948 C8.82172342,12.4948 4.40049137,11.108166 3.48961955,9.40374404 L1.9033215,6.19504666 C1.81589133,6.01784443 1.60006548,5.94485164 1.4234067,6.03239936 C1.26712391,6.1098553 1.19187601,6.2835388 1.23419193,6.4452179 L1.25963161,6.51345844 L2.38163161,8.78145844 L2.27378055,8.92412625 L0.814455259,8.66253081 L0.569669061,8.62489929 L0.472,8.6158 C0.26990092,8.6158 0.1,8.77929886 0.1,8.9748 C0.1,9.15122277 0.214848192,9.29299944 0.380298665,9.32596599 L0.53546261,9.34412055 L1.14167184,9.44780583 L2.77036999,9.74750176 L2.84805661,9.81799482 C3.91709585,13.5111294 8.57414857,16.1558 14.071,16.1558 C19.4563044,16.1558 24.0344293,13.6182058 25.2240289,10.0427957 L25.2939434,9.81799482 L25.3715656,9.74751383 L27.4468315,9.36861654 L27.67,9.3338 C27.8683927,9.3338 28.029,9.17295082 28.029,8.9748 C28.029,8.80141803 27.906035,8.65659513 27.7433182,8.62309202 L27.6604864,8.61592224 L27.4707751,8.63969675 L26.4516766,8.81674663 L25.8672089,8.9241282 L25.7593527,8.78149019 L26.8805573,6.51307864 C26.9693842,6.33542482 26.8968253,6.12112294 26.7185961,6.03240074 Z M4.64445345,11.3593228 C6.74280488,12.5215954 10.2005185,13.2118 14.071,13.2118 C17.7918319,13.2118 21.1320929,12.5739037 23.250328,11.4922154 L23.4985966,11.3602951 L23.6261886,11.5088669 C21.7860217,13.895108 18.0829683,15.4388 14.071,15.4388 C10.1794943,15.4388 6.58050532,13.9871616 4.68905941,11.722503 L4.51678211,11.5078289 L4.64445345,11.3593228 Z M23.156,11.761 L23.0794096,11.7989592 C20.9225458,12.8184514 17.6716914,13.4118 14.071,13.4118 C10.4695256,13.4118 7.21886367,12.8182257 5.06321521,11.7980988 L4.987,11.761 L5.03360162,11.8136717 C6.86665335,13.834037 10.1360104,15.1489548 13.7011808,15.2343712 L14.071,15.2388 C17.7777586,15.2388 21.2119474,13.9037669 23.109223,11.814476 L23.156,11.761 Z" id="Stroke-4" fill="#FEFEFE" fill-rule="nonzero"></path>
            <path d="M14.5554,7.6845 L16.5764,7.6845 L14.4624,11.0735 C14.3284,11.2885 14.3944,11.5705 14.6094,11.7055 C14.6844,11.7515 14.7684,11.7745 14.8514,11.7745 C15.0044,11.7745 15.1544,11.6975 15.2414,11.5585 L17.7914,7.4685 C17.8794,7.3275 17.8844,7.1495 17.8034,7.0035 C17.7234,6.8585 17.5694,6.7675 17.4034,6.7675 L15.3814,6.7675 L18.7854,1.3105 L22.1904,6.7675 L20.1684,6.7675 C20.0014,6.7675 19.8484,6.8585 19.7684,7.0035 C19.6874,7.1495 19.6914,7.3275 19.7804,7.4685 L21.4434,10.1345 C21.5764,10.3505 21.8614,10.4155 22.0744,10.2815 C22.2884,10.1475 22.3554,9.8645 22.2204,9.6495 L20.9944,7.6845 L23.0154,7.6845 C23.1814,7.6845 23.3354,7.5945 23.4154,7.4485 C23.4974,7.3035 23.4934,7.1245 23.4044,6.9835 L19.1744,0.2025 C19.0074,-0.0675 18.5644,-0.0675 18.3974,0.2025 L14.1654,6.9835 C14.0774,7.1245 14.0744,7.3035 14.1544,7.4485 C14.2354,7.5945 14.3884,7.6845 14.5554,7.6845" id="Fill-5" fill="#13284C"></path>
            <path d="M18.3123534,0.149897074 L14.0805657,6.93055522 C13.9737242,7.10174451 13.9689914,7.31945311 14.0668422,7.49680773 L14.1143217,7.56877973 C14.2191974,7.7038842 14.3810955,7.7845 14.5554,7.7845 L16.396,7.784 L14.3775538,11.0205744 C14.2144322,11.2822993 14.2944931,11.6258468 14.5562232,11.790189 C14.6467847,11.8457399 14.7486956,11.8745 14.8514,11.8745 C15.0425793,11.8745 15.222789,11.7767195 15.3261656,11.6115547 L17.8762581,7.52140661 C17.9836157,7.34939045 17.9893489,7.13253873 17.890844,6.95498657 L17.8437535,6.88340467 C17.7394228,6.74884833 17.5768279,6.6675 17.4034,6.6675 L15.561,6.667 L18.785,1.499 L22.01,6.667 L20.1684,6.6675 C19.965398,6.6675 19.7786401,6.77793372 19.6808422,6.95519227 C19.5820928,7.13318448 19.5874937,7.35023192 19.6958369,7.52187673 L21.3585537,10.1874255 C21.5200865,10.4497677 21.8670723,10.5300745 22.1276497,10.3661432 L22.2079296,10.3052693 C22.4036787,10.1269604 22.4509258,9.82858182 22.305089,9.59632319 L21.174,7.784 L23.0154,7.7845 C23.2183433,7.7845 23.4057434,7.67422485 23.5030976,7.49655347 C23.602634,7.32056213 23.5975468,7.10214904 23.4889631,6.93012327 L19.2592455,0.149573231 C19.0533587,-0.183299025 18.5184413,-0.183299025 18.3123534,0.149897074 Z M19.0893534,0.255102926 L23.3195545,7.03642677 C23.3890775,7.14657254 23.3923285,7.28615042 23.3283549,7.39927449 C23.2655588,7.51385872 23.1455119,7.5845 23.0154,7.5845 L20.9944,7.5845 L20.909559,7.7374339 L22.135559,9.7024339 C22.2408265,9.87008305 22.1892627,10.0915899 22.0213289,10.1967447 C21.8546113,10.3016278 21.6320236,10.2501119 21.5285523,10.0820683 L19.8652463,7.4155745 C19.7957532,7.30547602 19.7922964,7.166556 19.855844,7.05201343 C19.9185923,6.93828257 20.038295,6.8675 20.1684,6.8675 L22.1904,6.8675 L22.2752391,6.71456301 L18.8702391,1.25756301 L18.7005539,1.2575742 L15.2965539,6.7145742 L15.3814,6.8675 L17.4034,6.8675 C17.5328962,6.8675 17.6533971,6.93862599 17.7158422,7.05180773 C17.7791705,7.16595557 17.7754913,7.30511776 17.7065664,7.4155542 L15.1565419,11.5055934 C15.0901707,11.6116346 14.9743095,11.6745 14.8514,11.6745 C14.7856044,11.6745 14.7198846,11.6559533 14.6616829,11.6202562 C14.4939763,11.5149455 14.4425732,11.2943711 14.5472663,11.1263934 L16.6612462,7.73742561 L16.5764,7.5845 L14.5554,7.5845 C14.4247001,7.5845 14.3051972,7.51417882 14.241844,7.39998657 C14.1789511,7.28599264 14.1819993,7.14577583 14.2502336,7.0364458 L18.4822343,0.25544478 C18.6103587,0.0482990246 18.9614413,0.0482990246 19.0893534,0.255102926 Z" id="Stroke-6" fill="#FEFEFE" fill-rule="nonzero"></path>
        </g>
    </g>
</svg>