<?xml version="1.0" encoding="UTF-8"?>
<svg width="32px" height="32px" viewBox="0 0 32 32" version="1.1" xmlns="http://www.w3.org/2000/svg" xmlns:xlink="http://www.w3.org/1999/xlink">
    <title>Icn / Add-on / Kayak</title>
    <g id="Icn-/-Add-on-/-Kayak" stroke="none" stroke-width="1" fill="none" fill-rule="evenodd">
        <g id="Group" transform="translate(5.000000, 5.000000)" fill="#13284C">
            <polygon id="Fill-3" points="5.9548 17.1572 5.5328 16.7372 15.8888 6.3822 16.3088 6.8032"></polygon>
            <path d="M16.4098,4.4932 L16.3978,6.2932 L18.1988,6.2802 L20.9998,3.4782 L19.2128,1.6902 L16.4098,4.4932 Z M15.7988,6.8912 L15.8158,4.2452 L19.2128,0.8482 L21.8418,3.4782 L18.4468,6.8742 L15.7988,6.8912 Z" id="Fill-4"></path>
            <path d="M1.736,20.9551 L2.631,21.8491 L5.431,19.0471 L5.445,17.2471 L3.644,17.2591 L0.841,20.0611 L1.736,20.9551 Z M2.631,22.6901 L5.68434189e-14,20.0611 L3.396,16.6651 L6.043,16.6471 L6.025,19.2951 L2.631,22.6901 Z" id="Fill-5"></path>
            <g id="Group-10" transform="translate(5.303400, 0.000000)">
                <path d="M5.6182,1.6982 C4.7002,2.6692 1.0482,6.8472 1.0482,11.7692 C1.0482,16.6972 4.7002,20.8712 5.6182,21.8412 C6.5342,20.8702 10.1882,16.6922 10.1882,11.7692 C10.1882,6.8432 6.5342,2.6692 5.6182,1.6982 L5.6182,1.6982 Z M5.6182,22.6802 L5.4112,22.4812 C5.2082,22.2862 0.4542,17.6262 0.4542,11.7692 C0.4542,5.9132 5.2082,1.2542 5.4112,1.0572 L5.6182,0.8582 L5.8252,1.0572 C6.0262,1.2542 10.7822,5.9132 10.7822,11.7692 C10.7822,17.6262 6.0262,22.2862 5.8252,22.4812 L5.6182,22.6802 Z" id="Fill-6"></path>
                <path d="M5.6182,9.0918 C4.1412,9.0918 2.9402,10.2938 2.9402,11.7698 C2.9402,13.2458 4.1412,14.4468 5.6182,14.4468 C7.0952,14.4468 8.2962,13.2458 8.2962,11.7698 C8.2962,10.2938 7.0952,9.0918 5.6182,9.0918 M5.6182,15.0418 C3.8132,15.0418 2.3452,13.5738 2.3452,11.7698 C2.3452,9.9658 3.8132,8.4968 5.6182,8.4968 C7.4232,8.4968 8.8892,9.9658 8.8892,11.7698 C8.8892,13.5738 7.4232,15.0418 5.6182,15.0418" id="Fill-8"></path>
            </g>
        </g>
    </g>
</svg>