<?xml version="1.0" encoding="UTF-8"?>
<svg width="32px" height="32px" viewBox="0 0 32 32" version="1.1" xmlns="http://www.w3.org/2000/svg" xmlns:xlink="http://www.w3.org/1999/xlink">
    <title>Icn / Add-on / Pack n Play</title>
    <g id="Icn-/-Add-on-/-Pack-n-Play" stroke="none" stroke-width="1" fill="none" fill-rule="evenodd">
        <g id="Group" transform="translate(4.000000, 6.000000)" fill="#13284C">
            <path d="M1.59777032,18.5766813 C1.16769032,18.5766813 0.817768602,18.9258323 0.817768602,19.356683 C0.817768602,19.7852215 1.16769032,20.135914 1.59777032,20.135914 C2.02785032,20.135914 2.37777204,19.7852215 2.37777204,19.356683 C2.37777204,18.9258323 2.02785032,18.5766813 1.59777032,18.5766813 M1.59777032,20.9544533 C0.7168,20.9544533 2.16004992e-14,20.2368826 2.16004992e-14,19.356683 C2.16004992e-14,18.4757127 0.7168,17.7581419 1.59777032,17.7581419 C2.4795114,17.7581419 3.19554065,18.4757127 3.19554065,19.356683 C3.19554065,20.2368826 2.4795114,20.9544533 1.59777032,20.9544533" id="Fill-1"></path>
            <path d="M21.9007835,18.415594 C21.4707035,18.415594 21.1207818,18.7655157 21.1207818,19.1955957 C21.1207818,19.6249049 21.4707035,19.9748267 21.9007835,19.9748267 C22.3308635,19.9748267 22.6807852,19.6249049 22.6807852,19.1955957 C22.6807852,18.7655157 22.3308635,18.415594 21.9007835,18.415594 M21.9007835,20.7941368 C21.0198132,20.7941368 20.3030132,20.0757953 20.3030132,19.1955957 C20.3030132,18.3146254 21.0198132,17.5978254 21.9007835,17.5978254 C22.7825246,17.5978254 23.4985538,18.3146254 23.4985538,19.1955957 C23.4985538,20.0757953 22.7825246,20.7941368 21.9007835,20.7941368" id="Fill-3"></path>
            <path d="M2.07232275,17.3396232 L21.3735116,17.3396232 L21.3735116,0.491740215 L2.07232275,0.491740215 L2.07232275,17.3396232 Z M1.25301265,17.8305927 L22.1920509,17.8305927 L22.1920509,2.1221543e-14 L1.25301265,2.1221543e-14 L1.25301265,17.8305927 Z" id="Fill-6"></path>
            <path d="M4.83392963,14.8084714 L18.6103632,14.8084714 L18.6103632,3.38591656 L4.83392963,3.38591656 L4.83392963,14.8084714 Z M4.01539028,15.62624 L19.430444,15.62624 L19.430444,2.56891871 L4.01539028,2.56891871 L4.01539028,15.62624 Z" id="Fill-8"></path>
            <polygon id="Fill-9" points="4.68825738 15.5312833 4.16183329 14.9038906 18.7575769 2.66356714 19.284001 3.29095983"></polygon>
            <polygon id="Fill-10" points="18.7574999 15.5312833 4.16175622 3.29095983 4.6881803 2.66356714 19.283924 14.9038906"></polygon>
        </g>
    </g>
</svg>