<?xml version="1.0" encoding="UTF-8"?>
<svg width="32px" height="32px" viewBox="0 0 32 32" version="1.1" xmlns="http://www.w3.org/2000/svg" xmlns:xlink="http://www.w3.org/1999/xlink">
    <title>Icn / Add-on / Paddleboard</title>
    <g id="Icn-/-Add-on-/-Paddleboard" stroke="none" stroke-width="1" fill="none" fill-rule="evenodd">
        <g id="Group" transform="translate(8.000000, 3.000000)" fill="#13284C">
            <polygon id="Fill-3" points="1.4331 22.425 2.1021 22.425 2.1021 8.978 1.4331 8.978"></polygon>
            <path d="M0.666,7.3877 L1.768,8.5027 L2.867,7.3877 L2.867,3.8327 L0.666,3.8327 L0.666,7.3877 Z M1.768,9.4527 L1.42108547e-13,7.6607 L1.42108547e-13,3.1667 L3.535,3.1667 L3.535,7.6607 L1.768,9.4527 Z" id="Fill-4"></path>
            <g id="Group-9" transform="translate(3.663100, 0.000000)">
                <path d="M5.1865,22.707 L6.4895,24.217 L7.7915,22.707 C7.8975,22.586 8.0405,22.427 8.2075,22.239 C9.0735,21.278 10.6845,19.49 11.1185,18.285 C11.4895,17.253 11.6575,14.876 11.6905,12.993 L11.6905,12.926 C11.6575,11.05 11.4895,8.671 11.1185,7.641 C10.6845,6.435 9.0735,4.646 8.2075,3.686 C8.0405,3.498 7.8975,3.339 7.7915,3.217 L6.4895,1.708 L5.1865,3.217 C5.0815,3.339 4.9385,3.498 4.7665,3.686 C3.9035,4.647 2.2915,6.436 1.8585,7.641 C1.3935,8.936 1.3035,12.018 1.2885,12.932 L1.2885,12.999 C1.3035,13.907 1.3935,16.988 1.8585,18.285 C2.2915,19.489 3.9035,21.278 4.7665,22.238 C4.9385,22.426 5.0815,22.586 5.1865,22.707 L5.1865,22.707 Z M6.4895,25.236 L4.6825,23.144 C4.5795,23.024 4.4385,22.868 4.2725,22.685 C3.3135,21.62 1.7095,19.838 1.2335,18.511 C0.7315,17.118 0.6375,13.944 0.6205,13.005 L0.6205,12.926 C0.6375,11.98 0.7315,8.806 1.2335,7.415 C1.7095,6.086 3.3135,4.306 4.2725,3.24 C4.4385,3.057 4.5795,2.9 4.6825,2.781 L6.4895,0.687 L8.2955,2.781 C8.3995,2.9 8.5385,3.057 8.7045,3.239 C9.6005,4.234 11.2685,6.085 11.7455,7.415 C12.2475,8.808 12.3405,11.98 12.3565,12.92 L12.3565,12.999 C12.3405,13.944 12.2475,17.117 11.7455,18.511 C11.2685,19.84 9.6005,21.69 8.7045,22.686 C8.5385,22.868 8.3995,23.024 8.2955,23.144 L6.4895,25.236 Z" id="Fill-5"></path>
                <path d="M6.4893,4.8232 C5.6733,5.6852 4.1083,7.4522 3.7923,8.3352 C3.4093,9.4002 3.3433,12.9322 3.3413,12.9692 C3.3433,12.9922 3.4093,16.5242 3.7923,17.5902 C4.1083,18.4722 5.6733,20.2392 6.4893,21.1022 C7.3033,20.2392 8.8683,18.4712 9.1843,17.5892 C9.5673,16.5242 9.6353,12.9922 9.6373,12.9562 C9.6353,12.9322 9.5673,9.4002 9.1843,8.3352 C8.8683,7.4522 7.3033,5.6852 6.4893,4.8232 L6.4893,4.8232 Z M6.4893,22.0592 L6.2513,21.8162 C6.1433,21.7072 3.6393,19.1302 3.1653,17.8152 C2.7453,16.6462 2.6763,13.1172 2.6753,12.9692 C2.6763,12.8062 2.7453,9.2772 3.1653,8.1092 C3.6393,6.7952 6.1433,4.2182 6.2513,4.1082 L6.4893,3.8642 L6.7273,4.1082 C6.8333,4.2182 9.3393,6.7952 9.8133,8.1092 C10.2333,9.2772 10.3003,12.8062 10.3033,12.9562 C10.3003,13.1172 10.2333,16.6462 9.8133,17.8152 C9.3393,19.1302 6.8333,21.7072 6.7273,21.8162 L6.4893,22.0592 Z" id="Fill-7"></path>
            </g>
        </g>
    </g>
</svg>