<?xml version="1.0" encoding="UTF-8"?>
<svg width="32px" height="32px" viewBox="0 0 32 32" version="1.1" xmlns="http://www.w3.org/2000/svg" xmlns:xlink="http://www.w3.org/1999/xlink">
    <title>Icn / Add-on / Portable Grill</title>
    <g id="Icn-/-Add-on-/-Portable-Grill" stroke="none" stroke-width="1" fill="none" fill-rule="evenodd">
        <g id="Group" transform="translate(4.000000, 4.000000)" fill="#13284C">
            <polygon id="Fill-1" points="11.451871 23.4277935 12.1006452 23.4277935 12.1006452 12.7005677 11.451871 12.7005677"></polygon>
            <polygon id="Fill-2" points="14.2957161 12.3725419 18.8797161 23.5511226 19.4804903 23.304929 14.8964903 12.1263484"></polygon>
            <polygon id="Fill-3" points="4.07125161 23.304929 4.67125161 23.5511226 9.25447742 12.3740903 8.65447742 12.1278968"></polygon>
            <polygon id="Fill-4" points="6.57367742 18.3831484 16.9780645 18.3831484 16.9780645 17.7343742 6.57367742 17.7343742"></polygon>
            <g id="Group-27" transform="translate(0.000000, 0.325084)">
                <path d="M3.07107097,3.66387097 C3.24216774,8.31754839 7.08139355,12.0507097 11.775329,12.0507097 C16.4700387,12.0507097 20.3092645,8.31754839 20.4803613,3.66387097 L3.07107097,3.66387097 Z M11.775329,12.6994839 C6.61455484,12.6994839 2.41532903,8.50025806 2.41532903,3.33948387 L2.41532903,3.01509677 L21.135329,3.01509677 L21.135329,3.33948387 C21.135329,8.50025806 16.9368774,12.6994839 11.775329,12.6994839 L11.775329,12.6994839 Z" id="Fill-5"></path>
                <path d="M3.06503226,1.90451613 L20.4867097,1.90451613 L20.4867097,1.09780645 L3.06503226,1.09780645 L3.06503226,1.90451613 Z M2.41548387,2.55329032 L21.1354839,2.55329032 L21.1354839,0.449032258 L2.41548387,0.449032258 L2.41548387,2.55329032 Z" id="Fill-7"></path>
                <polygon id="Fill-9" points="2.41548387 3.33987097 3.06503226 3.33987097 3.06503226 0.774193548 2.41548387 0.774193548"></polygon>
                <polygon id="Fill-10" points="3.62090323 2.22890323 4.26967742 2.22890323 4.26967742 0.773419355 3.62090323 0.773419355"></polygon>
                <polygon id="Fill-11" points="4.82477419 2.22890323 5.47354839 2.22890323 5.47354839 0.773419355 4.82477419 0.773419355"></polygon>
                <polygon id="Fill-12" points="6.02941935 2.22890323 6.67819355 2.22890323 6.67819355 0.773419355 6.02941935 0.773419355"></polygon>
                <polygon id="Fill-13" points="7.23483871 2.22890323 7.8836129 2.22890323 7.8836129 0.773419355 7.23483871 0.773419355"></polygon>
                <polygon id="Fill-14" points="8.43870968 2.22890323 9.08825806 2.22890323 9.08825806 0.773419355 8.43870968 0.773419355"></polygon>
                <polygon id="Fill-15" points="9.64412903 2.22890323 10.2936774 2.22890323 10.2936774 0.773419355 9.64412903 0.773419355"></polygon>
                <polygon id="Fill-16" points="10.8495484 2.22890323 11.4983226 2.22890323 11.4983226 0.773419355 10.8495484 0.773419355"></polygon>
                <polygon id="Fill-17" points="12.0534194 2.22890323 12.7021935 2.22890323 12.7021935 0.773419355 12.0534194 0.773419355"></polygon>
                <polygon id="Fill-18" points="13.2580645 2.22890323 13.9076129 2.22890323 13.9076129 0.773419355 13.2580645 0.773419355"></polygon>
                <polygon id="Fill-19" points="14.4634839 2.22890323 15.1122581 2.22890323 15.1122581 0.773419355 14.4634839 0.773419355"></polygon>
                <polygon id="Fill-20" points="15.668129 2.22890323 16.3169032 2.22890323 16.3169032 0.773419355 15.668129 0.773419355"></polygon>
                <polygon id="Fill-21" points="16.8727742 2.22890323 17.5215484 2.22890323 17.5215484 0.773419355 16.8727742 0.773419355"></polygon>
                <polygon id="Fill-22" points="18.0774194 2.22890323 18.7269677 2.22890323 18.7269677 0.773419355 18.0774194 0.773419355"></polygon>
                <polygon id="Fill-23" points="19.2812903 2.22890323 19.9308387 2.22890323 19.9308387 0.773419355 19.2812903 0.773419355"></polygon>
                <polygon id="Fill-24" points="20.4867097 3.33987097 21.1354839 3.33987097 21.1354839 0.774193548 20.4867097 0.774193548"></polygon>
                <path d="M22.1061677,7.14696774 L20.1157161,7.14696774 L20.1157161,6.49896774 L22.1061677,6.49896774 C22.5451355,6.49896774 22.9028129,6.14051613 22.9028129,5.70154839 C22.9028129,5.26258065 22.5451355,4.90490323 22.1061677,4.90490323 L20.7265548,4.90490323 L20.7265548,4.25690323 L22.1061677,4.25690323 C22.9028129,4.25690323 23.5515871,4.90490323 23.5515871,5.70154839 C23.5515871,6.49896774 22.9028129,7.14696774 22.1061677,7.14696774" id="Fill-25"></path>
                <path d="M3.43625806,7.14696774 L1.44503226,7.14696774 C0.648387097,7.14696774 0.000387096774,6.49896774 0.000387096774,5.70154839 C0.000387096774,4.90490323 0.648387097,4.25690323 1.44503226,4.25690323 L2.82541935,4.25690323 L2.82541935,4.90490323 L1.44503226,4.90490323 C1.00529032,4.90490323 0.648387097,5.26258065 0.648387097,5.70154839 C0.648387097,6.14051613 1.00529032,6.49896774 1.44503226,6.49896774 L3.43625806,6.49896774 L3.43625806,7.14696774 Z" id="Fill-26"></path>
            </g>
        </g>
    </g>
</svg>