<?xml version="1.0" encoding="UTF-8"?>
<svg width="32px" height="32px" viewBox="0 0 32 32" version="1.1" xmlns="http://www.w3.org/2000/svg" xmlns:xlink="http://www.w3.org/1999/xlink">
    <title>Icn / Add-on / Roof Box</title>
    <g id="Icn-/-Add-on-/-Roof-Box" stroke="none" stroke-width="1" fill="none" fill-rule="evenodd">
        <g id="Group" transform="translate(0.000000, 11.000000)" fill="#13284C">
            <path d="M30.8192,7.21646829 C30.8379317,7.2414439 30.8433951,7.27422439 30.8355902,7.30388293 C30.8316878,7.31793171 30.4024195,8.7329561 28.7836878,8.7329561 L4.34115122,8.7329561 C2.4796878,8.7329561 1.79285854,7.74485854 1.58290732,7.32027317 C1.56807805,7.28983415 1.56963902,7.25315122 1.58837073,7.22349268 C1.60632195,7.19461463 1.63754146,7.17666341 1.67188293,7.17666341 L0.8992,7.17666341 C0.879687805,7.32729756 0.903102439,7.48027317 0.971785366,7.62154146 C1.23793171,8.16007805 2.09802927,9.41432195 4.34115122,9.41432195 L28.7836878,9.41432195 C29.8771512,9.41432195 30.5530537,8.90154146 30.9284683,8.47149268 C31.334322,8.00632195 31.4755902,7.54349268 31.489639,7.49276098 C31.5192408,7.38973659 31.526322,7.28202927 31.5122732,7.17666341 L30.7395902,7.17666341 C30.7708098,7.17666341 30.8012488,7.19149268 30.8192,7.21646829" id="Fill-1"></path>
            <g id="Group-5" transform="translate(0.000000, 0.048780)">
                <path d="M31.2551805,6.34755122 C31.2551805,6.40218537 31.2106927,6.44667317 31.1560585,6.44667317 L30.7400585,6.44667317 L30.4903024,6.44667317 L29.847961,6.44667317 L2.28737561,6.44667317 L1.67235122,6.44667317 L1.44366829,6.44667317 L0.979278049,6.44667317 C0.924643902,6.44667317 0.880156098,6.40218537 0.880156098,6.34755122 L0.880156098,5.84257561 C0.880156098,5.78794146 0.924643902,5.74345366 0.979278049,5.74345366 L1.21498537,5.74345366 L0.683473171,3.21545366 C0.677229268,3.1873561 0.684253659,3.15847805 0.70142439,3.1358439 C0.717814634,3.11242927 0.743570732,3.09838049 0.77244878,3.09603902 C2.19371707,2.9820878 3.57127805,2.73701463 5.03079024,2.47867317 C7.84913171,1.97916098 11.0436683,1.41330732 16.0661073,1.41330732 C19.2364488,1.41330732 27.2856195,2.80179512 30.3997659,4.97857561 C30.6058146,5.12218537 30.7931317,5.51086829 30.8641561,5.67242927 C30.8750829,5.6958439 30.8813268,5.71925854 30.8860098,5.74345366 L31.1560585,5.74345366 C31.2106927,5.74345366 31.2551805,5.78794146 31.2551805,5.84257561 L31.2551805,6.34755122 Z M31.9365463,6.34755122 L31.9365463,5.84257561 C31.9365463,5.47262439 31.6789854,5.16277073 31.3332293,5.08238049 C31.1662049,4.77799024 30.9843512,4.55555122 30.7907902,4.41974634 C28.9379122,3.12569756 25.7496195,2.2336 23.4011317,1.71379512 C20.7045463,1.11750244 17.8253268,0.731941463 16.0661073,0.731941463 C10.9835707,0.731941463 7.75937561,1.30325854 4.91371707,1.80745366 L4.90903415,1.80823415 C3.46669268,2.06423415 2.10474146,2.30540488 0.717814634,2.41701463 C0.493814634,2.43496585 0.289326829,2.54813659 0.155082927,2.72764878 L0.154302439,2.72842927 L0.152741463,2.72999024 C0.0200585366,2.90950244 -0.0291121951,3.13740488 0.0169365854,3.35594146 L0.42435122,5.29389268 C0.284643902,5.43516098 0.198790244,5.62950244 0.198790244,5.84257561 L0.198790244,6.34755122 C0.198790244,6.75106341 0.507082927,7.08433171 0.899668293,7.12413659 C0.898887805,7.12569756 0.898887805,7.12725854 0.898887805,7.12803902 L1.67235122,7.12803902 L2.28737561,7.12803902 L29.847961,7.12803902 L30.4903024,7.12803902 L30.7400585,7.12803902 L31.511961,7.12803902 C31.508839,7.10150244 31.5041561,7.07496585 31.4986927,7.04764878 C31.7570341,6.92120976 31.9365463,6.6558439 31.9365463,6.34755122 L31.9365463,6.34755122 Z" id="Fill-3"></path>
            </g>
        </g>
    </g>
</svg>