<?xml version="1.0" encoding="UTF-8"?>
<svg width="32px" height="32px" viewBox="0 0 32 32" version="1.1" xmlns="http://www.w3.org/2000/svg" xmlns:xlink="http://www.w3.org/1999/xlink">
    <title>Icn / Add-on / Surfboard</title>
    <g id="Icn-/-Add-on-/-Surfboard" stroke="none" stroke-width="1" fill="none" fill-rule="evenodd">
        <g id="Group" transform="translate(11.000000, 0.000000)" fill="#13284C">
            <polygon id="Fill-1" points="4.90521895 28.7497891 4.49678259 0.553716364 5.01401895 0.546152727 5.42303714 28.7422255"></polygon>
            <path d="M4.76174259,1.00061091 C4.19446986,1.86693818 2.56188805,4.60090182 1.49832441,8.80221091 C0.314906227,13.4742109 -0.382111954,20.9604655 2.94065168,30.2073018 L5.17425168,28.4054109 L7.11054259,30.1642473 C7.51839714,29.0087564 8.76872441,25.1606109 9.21439714,20.2814836 C9.69672441,14.9950836 9.30516077,7.39537455 4.76174259,1.00061091 L4.76174259,1.00061091 Z M2.70268805,31.06432 L2.57817895,30.7257018 C-0.936002864,21.1850473 -0.218039227,13.4544291 1.00319714,8.64919273 C2.32857895,3.43144727 4.45745168,0.51712 4.5476335,0.39552 L4.75650623,0.11392 L4.96421532,0.396683636 C9.80901532,6.98752 10.229088,14.8810473 9.72872441,20.3431564 C9.18705168,26.2480291 7.47941532,30.6646109 7.46254259,30.7088291 L7.32581532,31.0590836 L5.15446986,29.08672 L2.70268805,31.06432 Z" id="Fill-2"></path>
            <polygon id="Fill-5" points="0.678775318 21.80288 9.28153895 21.6405527 9.45433895 20.0254255 0.382629864 20.0358982"></polygon>
            <path d="M0.688200773,20.2944 L0.8970735,21.5400727 L9.04834623,21.3858909 L9.16645532,20.2845091 L0.688200773,20.2944 Z M0.460128046,22.0660364 L0.0767098637,19.7771636 L9.74303714,19.7655273 L9.51438259,21.8949818 L0.460128046,22.0660364 Z" id="Fill-7"></path>
        </g>
    </g>
</svg>