<?xml version="1.0" encoding="UTF-8"?>
<svg width="32px" height="32px" viewBox="0 0 32 32" version="1.1" xmlns="http://www.w3.org/2000/svg" xmlns:xlink="http://www.w3.org/1999/xlink">
    <title>Icn / Add-on / Tent</title>
    <g id="Icn-/-Add-on-/-Tent" stroke="none" stroke-width="1" fill="none" fill-rule="evenodd">
        <g id="Group" transform="translate(2.000000, 8.000000)" fill="#13284C">
            <polygon id="Fill-1" points="6.18923721 9.56532093 6.18923721 15.7787163 13.988214 15.7787163 13.988214 15.0025302 6.96542326 15.0025302 6.96542326 9.56532093"></polygon>
            <polygon id="Fill-2" points="10.294493 15.2511442 11.0179349 15.5298419 14.350586 6.87393488 13.626493 6.59588837"></polygon>
            <polygon id="Fill-3" points="13.9883442 -0.000130232558 1.76146047 14.7773581 0.60304186 13.3434977 6.51162791e-05 13.8305674 1.75429767 16.0028465 13.9883442 1.21624186 26.2223907 16.0028465 27.9772744 13.8305674 27.3742977 13.3434977 26.2158791 14.7773581"></polygon>
            <polygon id="Fill-4" points="21.0121116 9.56532093 21.0121116 15.0025302 13.9886698 15.0025302 13.9886698 15.7787163 21.7882977 15.7787163 21.7882977 9.56532093"></polygon>
            <g id="Group-9" transform="translate(7.813953, 5.584437)">
                <path d="M9.89012093,9.86225116 L9.12305116,9.75025116 C9.34444651,8.2376 10.2788651,7.4308093 10.8636093,7.06550698 L6.17458605,1.73769302 L1.48556279,7.06550698 C2.07030698,7.4308093 3.00472558,8.2376 3.22612093,9.75025116 L2.45905116,9.86225116 C2.20314419,8.1151814 0.746493023,7.54866977 0.731516279,7.54346047 L0.206027907,7.34550698 L6.17458605,0.563646512 L12.1437953,7.34550698 L11.6176558,7.54346047 C11.5590512,7.56625116 10.1440744,8.13146047 9.89012093,9.86225116" id="Fill-5"></path>
                <polygon id="Fill-7" points="9.14486512 9.94553488 5.81286512 1.29027907 6.53630698 1.0115814 9.86830698 9.66683721"></polygon>
            </g>
        </g>
    </g>
</svg>