<svg xmlns="http://www.w3.org/2000/svg" viewBox="0 0 411 220">
  <defs>
    <linearGradient id="a" x1="124.786%" x2="0%" y1="28.529%" y2="64.326%">
      <stop offset="0%" stop-color="#0092AA"/>
      <stop offset="83.038%" stop-color="#37CBDA"/>
      <stop offset="100%" stop-color="#22BDCD"/>
    </linearGradient>
  </defs>
  <g fill="none" fill-rule="evenodd">
    <rect width="411" height="220" fill="url(#a)" rx="40"/>
    <path fill="#FFF" d="M134.359 169v-20.59h12.997v-23.442h-12.997V54.96h-30.273L54 126.552v21.857h53.255V169h27.104zm-25.202-44.032H82.53l26.627-40.231v40.23zm96.05 43.557c15.639 0 26.972-5.227 33.998-15.68 7.027-10.454 10.54-24.868 10.54-43.241 0-18.162-3.513-32.47-10.54-42.923C232.18 56.227 220.846 51 205.208 51c-15.639 0-26.972 5.227-33.998 15.68-7.027 10.454-10.54 24.762-10.54 42.924 0 18.373 3.513 32.787 10.54 43.24 7.026 10.454 18.359 15.68 33.998 15.68zm0-25.342c-5.071 0-8.902-1.452-11.49-4.356-2.59-2.904-4.307-6.705-5.152-11.404-.845-4.7-1.268-10.639-1.268-17.819 0-10.665 1.163-18.875 3.487-24.63 2.325-5.754 7.133-8.632 14.424-8.632 7.29 0 12.098 2.878 14.423 8.632 2.325 5.755 3.487 13.965 3.487 24.63 0 7.18-.423 13.12-1.268 17.819s-2.563 8.5-5.151 11.404c-2.59 2.904-6.42 4.356-11.491 4.356zM345.004 169v-20.59H358v-23.442h-12.997V54.96H314.73l-50.086 71.592v21.857H317.9V169h27.103zm-25.201-44.032h-26.628l26.628-40.231v40.23z"/>
  </g>
</svg>