<?xml version="1.0" encoding="UTF-8"?>
<svg width="200px" height="200px" viewBox="0 0 200 200" version="1.1" xmlns="http://www.w3.org/2000/svg" xmlns:xlink="http://www.w3.org/1999/xlink">
    <g id="Illustration-/-Empty" stroke="none" stroke-width="1" fill="none" fill-rule="evenodd">
        <g id="Group" transform="translate(24.000000, 40.000000)">
            <path d="M82.4394908,88.9788572 L69.5605092,88.9788572 L68.252697,93.9238809 C63.2906926,112.685924 44.2560213,123.820154 25.7375688,118.79288 C7.2191162,113.765605 -3.77055639,94.4805533 1.19144802,75.7185102 L14.3203893,26.0761191 C19.2823937,7.314076 38.317065,-3.82015405 56.8355176,1.20712025 C64.870313,3.38835655 71.4877984,8.25365215 76,14.5957272 C80.5122016,8.25365215 87.129687,3.38835655 95.1644824,1.20712025 C113.682935,-3.82015405 132.717606,7.314076 137.679611,26.0761191 L150.808552,75.7185102 C155.770556,94.4805533 144.780884,113.765605 126.262431,118.79288 C107.743979,123.820154 88.7093074,112.685924 83.747303,93.9238809 L82.4394908,88.9788572 L82.4394908,88.9788572 Z" id="Path" fill="#007884"></path>
            <path d="M117.656148,105.262174 C129.159176,105.262174 138.484222,95.4590954 138.484222,83.3663849 C138.484222,71.2736744 129.159176,61.4705956 117.656148,61.4705956 C106.153121,61.4705956 96.8280741,71.2736744 96.8280741,83.3663849 C96.8280741,95.4590954 106.153121,105.262174 117.656148,105.262174 Z" id="Path" fill="#CEF8FB"></path>
            <path d="M34.3438518,105.262174 C45.8468795,105.262174 55.1719259,95.4590954 55.1719259,83.3663849 C55.1719259,71.2736744 45.8468795,61.4705956 34.3438518,61.4705956 C22.8408241,61.4705956 13.5157777,71.2736744 13.5157777,83.3663849 C13.5157777,95.4590954 22.8408241,105.262174 34.3438518,105.262174 Z" id="Path" fill="#CEF8FB"></path>
        </g>
    </g>
</svg>
