<svg xmlns="http://www.w3.org/2000/svg" fill="none" viewBox="0 0 24 24">
  <path fill="#CEF8FB" fill-rule="evenodd" d="M2.4 15.6L0 23.4 7.8 21l-5.4-5.4z" clip-rule="evenodd"/>
  <path fill="#00A5B5" fill-rule="evenodd" d="M12 0c6.628 0 12 5.372 12 12s-5.372 12-12 12S0 18.628 0 12 5.372 0 12 0zm6.666 12.202a1.2 1.2 0 00-1.664.332C15.612 14.617 13.975 15.6 12 15.6c-1.975 0-3.612-.984-5.002-3.066a1.2 1.2 0 00-1.996 1.332C6.814 16.583 9.175 18 12 18s5.186-1.416 6.998-4.134a1.2 1.2 0 00-.332-1.664z" clip-rule="evenodd"/>
</svg>
