<?xml version="1.0" encoding="UTF-8"?>
<svg width="24px" height="24px" viewBox="0 0 24 24" version="1.1" xmlns="http://www.w3.org/2000/svg" xmlns:xlink="http://www.w3.org/1999/xlink">
    <g id="Icn-/-Custom-/-Google" stroke="none" stroke-width="1" fill="none" fill-rule="evenodd">
        <g id="google" fill-rule="nonzero">
            <path d="M5.625,12 C5.625,10.8109219 5.95260937,9.69703125 6.52176562,8.74326562 L6.52176562,4.69757812 L2.47607812,4.69757812 C0.870375,6.78295312 -6.66133815e-16,9.32446875 -6.66133815e-16,12 C-6.66133815e-16,14.6755313 0.870375,17.2170469 2.47607812,19.3024219 L6.52176562,19.3024219 L6.52176562,15.2567344 C5.95260937,14.3029688 5.625,13.1890781 5.625,12 L5.625,12 Z" id="Path" fill="#FBBD00"></path>
            <path d="M12,18.375 L9.1875,21.1875 L12,24 C14.6755781,24 17.2170469,23.129625 19.3024219,21.5239219 L19.3024219,17.4825469 L15.2610469,17.4825469 C14.2989375,18.0537656 13.1803594,18.375 12,18.375 L12,18.375 Z" id="Path" fill="#0F9D58"></path>
            <path d="M6.52176562,15.2567344 L2.47607812,19.3024219 C2.79398437,19.7152969 3.14015625,20.1106875 3.51473437,20.4853125 C5.78123437,22.7517656 8.7946875,24 12,24 L12,18.375 C9.673875,18.375 7.63514062,17.1225 6.52176562,15.2567344 Z" id="Path" fill="#31AA52"></path>
            <path d="M24,12 C24,11.2699219 23.9339062,10.5384844 23.8035,9.82607813 L23.6979844,9.2495625 L12,9.2495625 L12,14.8745625 L17.6930625,14.8745625 C17.1402188,15.9742969 16.2901875,16.8715313 15.261,17.4825937 L19.302375,21.5239688 C19.71525,21.2060625 20.1106406,20.8598906 20.4852656,20.4853125 C22.7517656,18.2187656 24,15.2053125 24,12 L24,12 Z" id="Path" fill="#3C79E6"></path>
            <path d="M16.5078281,7.49217188 L17.0049844,7.98932813 L20.9824688,4.01189062 L20.4853125,3.51473437 C18.2188125,1.24823438 15.2053594,0 12,0 L9.1875,2.8125 L12,5.625 C13.7027813,5.625 15.3037031,6.28809375 16.5078281,7.49217188 Z" id="Path" fill="#CF2D48"></path>
            <path d="M12,5.625 L12,0 C8.7946875,0 5.78123438,1.24823437 3.5146875,3.5146875 C3.14010938,3.88926562 2.7939375,4.28465625 2.47603125,4.69757812 L6.52171875,8.74326562 C7.63514063,6.8775 9.673875,5.625 12,5.625 Z" id="Path" fill="#EB4132"></path>
        </g>
    </g>
</svg>
