<svg width="229" height="360" xmlns="http://www.w3.org/2000/svg"><g style="mix-blend-mode:luminosity" fill="none" fill-rule="evenodd" opacity=".3"><path d="M138.21 112.314l-.363-1.932a54.484 54.484 0 009.53-2.712l.709 1.837a56.772 56.772 0 01-9.876 2.807z" fill="#323842" fill-rule="nonzero"/><g fill-rule="nonzero"><path d="M193.123 122.931l-28.507-26.524c-15.887-14.781-40.493-14.781-56.38 0l-28.509 26.524c-15.326 14.259-15.761 38.39-.958 53.192l9.854 9.853h1.375c7.605 0 13.77 6.166 13.77 13.77v7.293a3.936 3.936 0 003.935 3.935h2.614a3.935 3.935 0 013.935 3.934v21.466h4.906a7.46 7.46 0 010 14.92h-4.906v7.29c3.96.18 7.123 3.421 7.123 7.425 0 4.003-3.161 7.245-7.123 7.424v8.097h4.906a7.46 7.46 0 010 14.92h-4.906v42.015l22.174 19.672 22.175-19.672V214.91a3.935 3.935 0 013.934-3.934h2.615a3.936 3.936 0 003.934-3.935v-7.292c0-7.605 6.165-13.77 13.77-13.77h1.376l9.853-9.854c14.804-14.806 14.367-38.935-.96-53.194zm-56.697 18.695c-9.574 0-17.337-7.763-17.337-17.337 0-9.575 7.76-17.338 17.337-17.338s17.337 7.763 17.337 17.338c0 9.574-7.762 17.337-17.337 17.337z" fill="#007884"/><path d="M136.426 359.119a.982.982 0 01-.653-.248L113.6 339.199a.983.983 0 01-.33-.736v-42.014c0-.543.44-.983.983-.983h4.906a6.484 6.484 0 006.476-6.476c0-3.569-2.905-6.475-6.476-6.475h-4.906a.984.984 0 01-.984-.983v-8.097c0-.527.413-.958.939-.982 3.468-.16 6.183-2.99 6.183-6.443 0-3.456-2.717-6.285-6.183-6.442a.983.983 0 01-.94-.982v-7.292c0-.543.44-.984.983-.984h4.906c3.57 0 6.476-2.905 6.476-6.474a6.484 6.484 0 00-6.476-6.476h-4.906a.984.984 0 01-.984-.984v-21.464a2.954 2.954 0 00-2.95-2.95H107.7a4.924 4.924 0 01-4.918-4.919v-7.292c0-7.05-5.736-12.787-12.787-12.787h-1.375a.99.99 0 01-.696-.287l-9.854-9.856c-7.35-7.35-11.294-17.12-11.107-27.511.187-10.393 4.481-20.017 12.09-27.095l28.51-26.522a42.242 42.242 0 0128.86-11.349 42.242 42.242 0 0128.861 11.35l28.51 26.521c7.608 7.08 11.903 16.702 12.09 27.095.186 10.39-3.758 20.161-11.107 27.511l-9.854 9.856a.982.982 0 01-.696.287h-1.376c-7.05 0-12.786 5.736-12.786 12.787v7.292a4.924 4.924 0 01-4.918 4.918h-2.615a2.954 2.954 0 00-2.95 2.951v123.555c0 .281-.12.549-.331.736l-22.175 19.672a.993.993 0 01-.65.244zm-21.19-21.099l21.19 18.801 21.191-18.8V214.907a4.924 4.924 0 014.918-4.918h2.615a2.954 2.954 0 002.95-2.95v-7.293c0-8.137 6.62-14.754 14.754-14.754h.968l9.565-9.567c6.968-6.968 10.71-16.233 10.532-26.087-.177-9.854-4.249-18.976-11.465-25.69l-28.508-26.522a40.272 40.272 0 00-27.522-10.821 40.275 40.275 0 00-27.521 10.821L80.396 123.65c-7.216 6.712-11.288 15.836-11.465 25.69-.177 9.854 3.563 19.12 10.533 26.087l9.564 9.567h.968c8.134 0 14.754 6.617 14.754 14.754v7.292a2.954 2.954 0 002.951 2.951h2.614a4.924 4.924 0 014.918 4.918v20.48h3.923c4.654 0 8.443 3.79 8.443 8.444 0 4.655-3.787 8.441-8.443 8.441h-3.923v5.42a8.411 8.411 0 017.124 8.316c0 4.192-3.061 7.678-7.124 8.313v6.226h3.923c4.654 0 8.443 3.787 8.443 8.442 0 4.654-3.787 8.443-8.443 8.443h-3.923v40.587h.002zm21.19-195.41c-10.101 0-18.32-8.22-18.32-18.321 0-10.102 8.217-18.321 18.32-18.321 10.102 0 18.32 8.219 18.32 18.32 0 10.102-8.218 18.321-18.32 18.321zm0-34.675c-9.016 0-16.353 7.336-16.353 16.354 0 9.017 7.336 16.353 16.353 16.353 9.018 0 16.354-7.336 16.354-16.353 0-9.018-7.338-16.354-16.354-16.354z" fill="#323842"/></g><path d="M190.444 125.811l-27.917-25.973c-5.833-5.428-13.125-9.187-21.023-10.243-11.3-1.511-22.405 2.077-30.59 9.692l-27.866 25.926c-6.793 6.319-11.044 15.065-11.168 24.342-.12 8.985 3.31 17.426 9.669 23.784l8.703 8.703c5.726.08 10.786 2.908 13.969 7.206l2.83-6.883a3.933 3.933 0 013.64-2.438h51.466a3.93 3.93 0 013.638 2.438l2.833 6.885c3.179-4.299 8.24-7.123 13.967-7.206l8.081-8.081c6.56-6.561 10.495-15.455 10.287-24.73-.203-8.984-3.935-17.296-10.52-23.422zm-54.02 19.749c-11.728 0-21.271-9.543-21.271-21.271 0-11.729 9.543-21.272 21.271-21.272 11.729 0 21.272 9.543 21.272 21.272 0 11.728-9.541 21.271-21.272 21.271z" fill="#323842" fill-rule="nonzero"/><g fill-rule="nonzero"><path d="M144.488 350.967V216.212c0-4.445-3.6-8.065-8.066-8.065-4.446 0-8.065 3.62-8.065 8.065v134.755l8.07 7.168 8.06-7.168z" fill="#007884"/><path d="M136.426 359.119a.982.982 0 01-.653-.248l-8.07-7.169a.983.983 0 01-.33-.735V216.212c0-4.99 4.058-9.05 9.05-9.05 4.99 0 9.048 4.058 9.048 9.05v134.755c0 .28-.12.546-.33.735l-8.062 7.169a.985.985 0 01-.653.248zm-7.086-8.593l7.084 6.293 7.08-6.293V216.214c0-3.904-3.177-7.084-7.082-7.084s-7.082 3.178-7.082 7.084v134.312z" fill="#323842"/></g><path fill="#323842" fill-rule="nonzero" d="M134.81 356.691V215.012h3.225v141.68l-1.609 1.412zM120.718 182.75H117.7a3.933 3.933 0 00-3.934 3.935v7.855a3.933 3.933 0 003.934 3.934h3.018a3.933 3.933 0 003.934-3.934v-7.855a3.933 3.933 0 00-3.934-3.935zM138.458 182.75h-3.017a3.933 3.933 0 00-3.935 3.935v7.855a3.933 3.933 0 003.935 3.934h3.017a3.933 3.933 0 003.935-3.934v-7.855a3.935 3.935 0 00-3.935-3.935zM156.199 182.75h-3.018a3.933 3.933 0 00-3.934 3.935v7.855a3.933 3.933 0 003.934 3.934h3.018a3.933 3.933 0 003.934-3.934v-7.855a3.935 3.935 0 00-3.934-3.935z"/><g fill-rule="nonzero"><path d="M153.183 136.066l-16.84-35.109c-9.385-19.566-32.287-28.56-52.479-20.608l-36.23 14.266c-19.477 7.67-28.704 29.97-20.335 49.16l5.57 12.774 1.28.503c7.08 2.78 10.564 10.773 7.784 17.851l-2.667 6.789a3.934 3.934 0 002.224 5.1l2.434.957a3.937 3.937 0 012.225 5.1l-7.847 19.982 4.566 1.794a7.457 7.457 0 014.215 9.669 7.457 7.457 0 01-9.669 4.216l-4.565-1.795-2.666 6.787c3.62 1.615 5.378 5.788 3.915 9.516-1.464 3.728-5.591 5.589-9.345 4.308l-2.96 7.536 4.566 1.794a7.457 7.457 0 014.215 9.67 7.457 7.457 0 01-9.668 4.215l-4.566-1.794L.984 307.853l13.45 26.416 27.832-10.206 45.163-115.005a3.937 3.937 0 015.1-2.225l2.434.956a3.934 3.934 0 005.101-2.225l2.666-6.787c2.78-7.078 10.772-10.564 17.85-7.784l1.279.501 12.773-5.569c19.19-8.364 27.606-30.983 18.551-49.859zm-59.609-3.324c-8.911-3.5-13.298-13.562-9.798-22.474 3.5-8.911 13.562-13.3 22.473-9.8 8.912 3.5 13.3 13.562 9.8 22.473-3.499 8.913-13.563 13.302-22.475 9.8z" fill="#007884"/><path d="M14.433 335.252a.99.99 0 01-.877-.537L.106 308.3a.982.982 0 01-.04-.805l15.359-39.108a.986.986 0 011.275-.557l4.566 1.792a6.45 6.45 0 002.366.45 6.438 6.438 0 006.028-4.109 6.486 6.486 0 00-3.661-8.396l-4.566-1.792a.981.981 0 01-.557-1.277l2.96-7.536a.987.987 0 011.234-.572c.68.232 1.389.352 2.101.352a6.42 6.42 0 006.01-4.088 6.447 6.447 0 00-3.401-8.255.985.985 0 01-.516-1.259l2.666-6.787a.982.982 0 011.275-.556l4.565 1.792a6.45 6.45 0 002.367.45 6.438 6.438 0 006.028-4.11c.631-1.608.6-3.369-.093-4.957a6.42 6.42 0 00-3.568-3.436l-4.566-1.794a.982.982 0 01-.555-1.275l7.847-19.98a2.937 2.937 0 00-.041-2.257 2.93 2.93 0 00-1.625-1.566l-2.434-.958a4.882 4.882 0 01-2.71-2.61 4.877 4.877 0 01-.07-3.764l2.666-6.787a12.705 12.705 0 00-.18-9.787 12.698 12.698 0 00-7.047-6.789l-1.28-.503a.987.987 0 01-.542-.524l-5.569-12.773c-4.155-9.529-4.255-20.063-.283-29.67 3.974-9.603 11.488-16.99 21.16-20.797l36.23-14.268a42.143 42.143 0 0115.509-2.955c16.206 0 31.208 9.443 38.217 24.055l16.841 35.11c4.495 9.371 4.975 19.896 1.352 29.637-3.624 9.742-10.867 17.394-20.396 21.55l-12.774 5.568a.964.964 0 01-.753.014l-1.279-.503a12.753 12.753 0 00-4.67-.888 12.72 12.72 0 00-11.905 8.117l-2.666 6.787a4.89 4.89 0 01-4.58 3.122c-.615 0-1.22-.116-1.796-.34l-2.433-.955c-1.501-.598-3.244.187-3.826 1.667L43.18 324.423a.988.988 0 01-.576.565l-27.832 10.205c-.112.04-.226.06-.339.06zm-12.371-27.45l12.851 25.243 26.597-9.751L86.512 208.7a4.89 4.89 0 014.578-3.122c.616 0 1.221.116 1.798.344l2.433.952c1.5.594 3.244-.187 3.827-1.668l2.665-6.787c2.233-5.69 7.625-9.366 13.737-9.366 1.845 0 3.657.346 5.39 1.025l.901.356 12.4-5.406c9.035-3.94 15.9-11.195 19.337-20.435 3.437-9.234 2.983-19.216-1.28-28.102l-16.842-35.109c-6.682-13.932-20.988-22.935-36.442-22.935-5.066 0-10.04.946-14.79 2.817l-36.23 14.268c-9.17 3.612-16.294 10.615-20.062 19.721-3.767 9.106-3.67 19.096.268 28.13l5.406 12.4.9.355a14.65 14.65 0 018.131 7.835 14.665 14.665 0 01.209 11.29l-2.666 6.787a2.937 2.937 0 00.042 2.258 2.928 2.928 0 001.627 1.566l2.433.958a4.882 4.882 0 012.71 2.61c.526 1.205.552 2.54.07 3.764l-7.488 19.064 3.652 1.434a8.39 8.39 0 014.652 4.484 8.389 8.389 0 01.12 6.46 8.396 8.396 0 01-7.859 5.359 8.439 8.439 0 01-3.085-.587l-3.649-1.434-1.98 5.044a8.408 8.408 0 013.59 10.34c-1.271 3.24-4.35 5.335-7.84 5.337a8.273 8.273 0 01-1.827-.203L23.07 254.3l3.65 1.432c4.333 1.703 6.474 6.612 4.772 10.945a8.396 8.396 0 01-7.859 5.36 8.439 8.439 0 01-3.084-.587l-3.65-1.434-14.838 37.786zm97.845-172.87a18.28 18.28 0 01-6.693-1.272c-9.403-3.694-14.047-14.349-10.355-23.75 2.774-7.064 9.468-11.628 17.056-11.628 2.29 0 4.542.429 6.692 1.27 9.403 3.695 14.048 14.35 10.356 23.751-2.772 7.064-9.467 11.628-17.056 11.628zm.01-34.685c-6.773 0-12.75 4.074-15.227 10.38-3.297 8.393.85 17.905 9.244 21.198 1.92.755 3.93 1.137 5.973 1.137 6.773 0 12.75-4.074 15.226-10.379 3.297-8.394-.852-17.906-9.244-21.199a16.244 16.244 0 00-5.972-1.137z" fill="#323842"/></g><g fill-rule="nonzero"><path d="M24.557 330.543l49.257-125.43a8.064 8.064 0 00-4.56-10.455c-4.14-1.625-8.831.42-10.456 4.56L9.541 324.648l4.89 9.62 10.126-3.725z" fill="#007884"/><path d="M14.433 335.252a.99.99 0 01-.877-.537l-4.89-9.621a.982.982 0 01-.04-.805l49.257-125.43c1.35-3.434 4.737-5.742 8.434-5.742 1.129 0 2.238.21 3.297.626a8.986 8.986 0 014.989 4.81 8.99 8.99 0 01.124 6.92L25.47 330.903a.988.988 0 01-.577.565l-10.125 3.725a.974.974 0 01-.335.06zm-3.814-10.656l4.294 8.447 8.89-3.27L72.9 204.756a7.043 7.043 0 00-.098-5.415 7.028 7.028 0 00-3.905-3.764 7.002 7.002 0 00-2.58-.491c-2.893 0-5.547 1.805-6.603 4.493L10.619 324.596z" fill="#323842"/></g><path fill="#323842" fill-rule="nonzero" d="M13.456 332.335l51.789-131.874 3.002 1.178L16.46 333.513l-2.015.728zM149.636 137.768l-16.491-34.38c-3.447-7.183-8.858-13.349-15.824-17.218-9.966-5.536-21.614-6.256-32.017-2.16L49.89 97.955c-8.633 3.4-15.787 9.986-19.293 18.577-3.395 8.32-3.287 17.43.307 25.672l4.92 11.282c5.3 2.168 8.978 6.65 10.367 11.813l5.152-5.372a3.933 3.933 0 014.279-.939l47.906 18.813a3.936 3.936 0 012.496 3.598l.12 7.444c4.53-2.84 10.275-3.618 15.633-1.602l10.476-4.568c8.504-3.708 15.419-10.548 18.614-19.259 3.096-8.437 2.66-17.537-1.23-25.646zm-57.5-1.363c-10.916-4.287-16.31-16.657-12.023-27.575 4.286-10.918 16.656-16.312 27.574-12.023 10.918 4.286 16.312 16.656 12.024 27.574-4.289 10.918-16.657 16.31-27.575 12.024z"/><path d="M63.923 165.28l-2.81-1.104a3.934 3.934 0 00-5.1 2.225l-2.873 7.312a3.934 3.934 0 002.225 5.1l2.81 1.104a3.934 3.934 0 005.1-2.225l2.873-7.312a3.937 3.937 0 00-2.225-5.1zM80.433 171.765l-2.809-1.103a3.934 3.934 0 00-5.1 2.225l-2.873 7.312a3.934 3.934 0 002.225 5.1l2.81 1.104a3.934 3.934 0 005.1-2.225l2.872-7.312a3.933 3.933 0 00-2.225-5.1zM96.946 178.25l-2.809-1.104a3.934 3.934 0 00-5.1 2.224l-2.873 7.313a3.934 3.934 0 002.225 5.1l2.809 1.104a3.934 3.934 0 005.101-2.225l2.872-7.312a3.935 3.935 0 00-2.225-5.1zM117.19 112.32c-26.814-5.007-46.152-28.237-46.152-55.676C71.038 25.41 96.448 0 127.682 0c31.233 0 56.646 25.41 56.646 56.644a56.697 56.697 0 01-17.85 41.276c-.426.401-1.714-1.09-1.281-1.497a54.726 54.726 0 0017.164-39.78c0-30.147-24.53-54.676-54.679-54.676-30.15 0-54.677 24.53-54.677 54.677 0 26.197 18.262 48.42 43.704 53.579.647.132.863 2.168.482 2.097z" fill="#323842" fill-rule="nonzero"/><path d="M222.136 89.318c-1.202-2.79-1.197-5.931-1.172-8.969-.39 3.107-1.209 6.255-3.089 8.759-1.879 2.505-6.437 5.579-9.541 5.162 5.343 1.973 9.27 7.31 9.563 12.998.872-2.913 1.939-5.819 3.749-8.262 1.81-2.442 4.459-4.394 7.474-4.782-3.029.246-5.782-2.116-6.984-4.906M78.554 323.15c-.878-2.039-.874-4.334-.856-6.554-.285 2.271-.884 4.571-2.257 6.401-1.374 1.831-4.704 4.077-6.972 3.773 3.904 1.441 6.773 5.34 6.987 9.497.638-2.128 1.418-4.252 2.74-6.037 1.322-1.785 3.258-3.211 5.461-3.495-2.213.181-4.224-1.546-5.103-3.585M191.25 250.876c-.878-2.039-.875-4.334-.856-6.554-.285 2.27-.884 4.57-2.257 6.401-1.374 1.83-4.704 4.076-6.973 3.772 3.905 1.442 6.774 5.34 6.989 9.497.636-2.128 1.417-4.252 2.739-6.036 1.322-1.785 3.258-3.212 5.461-3.496-2.213.181-4.225-1.545-5.103-3.584M33.085 55.555c-.878-2.039-.874-4.334-.856-6.555-.285 2.271-.883 4.571-2.257 6.401-1.373 1.831-4.704 4.077-6.972 3.773 3.904 1.441 6.773 5.341 6.988 9.497.637-2.128 1.417-4.252 2.739-6.037 1.322-1.784 3.258-3.211 5.461-3.495-2.212.181-4.224-1.545-5.103-3.584" fill="#323842"/></g></svg>