<?xml version="1.0" encoding="UTF-8"?>
<svg width="24px" height="24px" viewBox="0 0 24 24" version="1.1" xmlns="http://www.w3.org/2000/svg" xmlns:xlink="http://www.w3.org/1999/xlink">
    <title>Icn / Mastercard</title>
    <g id="Icn-/-Mastercard" stroke="none" stroke-width="1" fill="none" fill-rule="evenodd">
        <g id="Mastercard" transform="translate(2.000000, 6.000000)" fill-rule="nonzero">
            <rect id="Rectangle" fill="#FF5F00" x="6.52706646" y="1.25508444" width="5.52791069" height="9.22796238"></rect>
            <path d="M7.09644445,5.86988067 C7.09505646,4.06944204 7.90371857,2.36833739 9.2894269,1.25671453 C6.93532648,-0.63418612 3.55474386,-0.358760088 1.52346165,1.88943061 C-0.507820551,4.13762131 -0.507820551,7.60377013 1.52346165,9.85196083 C3.55474386,12.1001515 6.93532648,12.3755776 9.2894269,10.4846769 C7.90327759,9.37270105 7.09456608,7.67089134 7.09644445,5.86988067 Z" id="Path" fill="#EB001B"></path>
            <path d="M18.1411015,9.74121724 L18.1411015,9.35774616 L18.3005912,9.35774616 L18.3005912,9.27840732 L17.9210058,9.27840732 L17.9210058,9.35774616 L18.0709261,9.35774616 L18.0709261,9.74121724 L18.1411015,9.74121724 Z M18.8779436,9.74121724 L18.8779436,9.27840732 L18.7631111,9.27840732 L18.6291398,9.60898583 L18.4951685,9.27840732 L18.380336,9.27840732 L18.380336,9.74121724 L18.4632706,9.74121724 L18.4632706,9.39080401 L18.5876725,9.69163046 L18.6737969,9.69163046 L18.7981988,9.39080401 L18.7981988,9.74121724 L18.8779436,9.74121724 Z" id="Shape" fill="#F79E1B"></path>
            <path d="M18.579698,5.86988067 C18.579698,8.1167013 17.3244223,10.1662625 15.3471231,11.1481079 C13.369824,12.1299532 11.0175911,11.8717068 9.2894269,10.4830468 C10.6745306,9.37048022 11.4832536,7.66960174 11.4832536,5.86906563 C11.4832536,4.06852952 10.6745306,2.36765104 9.2894269,1.25508444 C11.0175911,-0.133575536 13.369824,-0.391821978 15.3471231,0.590023364 C17.3244223,1.57186871 18.579698,3.62142995 18.579698,5.86825058 L18.579698,5.86988067 Z" id="Path" fill="#F79E1B"></path>
        </g>
    </g>
</svg>