<?xml version="1.0" encoding="UTF-8"?>
<svg width="48px" height="48px" viewBox="0 0 48 48" version="1.1" xmlns="http://www.w3.org/2000/svg" xmlns:xlink="http://www.w3.org/1999/xlink">
    <title>2</title>
    <g id="------↵-Renter-/-View-Profile" stroke="none" stroke-width="1" fill="none" fill-rule="evenodd">
        <g id="Icn-/-Custom-/-Neutral-Face---White" fill="#FFFFFF">
            <path d="M24,4 C35.045695,4 44,12.954305 44,24 C44,35.045695 35.045695,44 24,44 C12.954305,44 4,35.045695 4,24 C4,12.954305 12.954305,4 24,4 Z M30.25,31.5 L17.75,31.5 C17.06,31.5 16.5,32.06 16.5,32.75 C16.5,33.44 17.06,34 17.75,34 L17.75,34 L30.25,34 C30.94,34 31.5,33.44 31.5,32.75 C31.5,32.06 30.94,31.5 30.25,31.5 L30.25,31.5 Z M16.5,16.5 C15.1192881,16.5 14,17.6192881 14,19 C14,20.3807119 15.1192881,21.5 16.5,21.5 C17.8807119,21.5 19,20.3807119 19,19 C19,17.6192881 17.8807119,16.5 16.5,16.5 Z M31.5,16.5 C30.1192881,16.5 29,17.6192881 29,19 C29,20.3807119 30.1192881,21.5 31.5,21.5 C32.8807119,21.5 34,20.3807119 34,19 C34,17.6192881 32.8807119,16.5 31.5,16.5 Z" id="Combined-Shape"></path>
        </g>
    </g>
</svg>