<?xml version="1.0" encoding="UTF-8"?>
<svg width="22px" height="30px" viewBox="0 0 22 30" version="1.1" xmlns="http://www.w3.org/2000/svg" xmlns:xlink="http://www.w3.org/1999/xlink">
    <title>Tablet</title>
    <g id="------↵-Owner-/-Reservations" stroke="none" stroke-width="1" fill="none" fill-rule="evenodd">
        <g id="Icn-/-Booking-Details-/-Claim" transform="translate(-5.000000, -1.000000)">
            <path d="M24,4 C25.4727593,4 26.6666667,5.19390733 26.6666667,6.66666667 L26.6666667,28 C26.6666667,29.4727593 25.4727593,30.6666667 24,30.6666667 L8,30.6666667 C6.52724067,30.6666667 5.33333333,29.4727593 5.33333333,28 L5.33333333,6.66666667 C5.33333333,5.19390733 6.52724067,4 8,4 L10.6663333,4 L10.6666667,4.66666667 C10.6666667,5.72102846 11.4825445,6.58483179 12.5174043,6.66118093 L12.6666667,6.66666667 L19.3333333,6.66666667 C20.4379028,6.66666667 21.3333333,5.77123617 21.3333333,4.66666667 L21.3333333,4.66666667 L21.3333333,4 L24,4 Z" id="Combined-Shape" fill="#CEF8FB"></path>
            <path d="M16,1.33333333 C16.7363797,1.33333333 17.3333333,1.930287 17.3333333,2.66666667 L17.3333333,2.66666667 L19.3333333,2.66666667 C19.7015232,2.66666667 20,2.9651435 20,3.33333333 L20,4.66666667 C20,5.0348565 19.7015232,5.33333333 19.3333333,5.33333333 L12.6666667,5.33333333 C12.2984768,5.33333333 12,5.0348565 12,4.66666667 L12,3.33333333 C12,2.9651435 12.2984768,2.66666667 12.6666667,2.66666667 L14.6666667,2.66666667 C14.6666667,1.930287 15.2636203,1.33333333 16,1.33333333 Z" id="Combined-Shape" fill="#00A5B5"></path>
            <rect id="Rectangle-9" fill="#00A5B5" x="14.6666667" y="10.6666667" width="2.66666667" height="9.33333333" rx="1.33333333"></rect>
            <rect id="Rectangle-9-Copy" fill="#00A5B5" x="14.6666667" y="21.3333333" width="2.66666667" height="2.66666667" rx="1.33333333"></rect>
        </g>
    </g>
</svg>