<?xml version="1.0" encoding="UTF-8"?>
<svg width="24px" height="24px" viewBox="0 0 24 24" version="1.1" xmlns="http://www.w3.org/2000/svg" xmlns:xlink="http://www.w3.org/1999/xlink">
    <title>Icn / Booking Details / Driver's License</title>
    <g id="Icn-/-Booking-Details-/-Driver's-License" stroke="none" stroke-width="1" fill="none" fill-rule="evenodd">
        <path d="M16,2 L18,2 C19.6568542,2 21,3.34314575 21,5 L21,19 C21,20.6568542 19.6568542,22 18,22 L16,22 L16,22 L16,2 Z" id="Rectangle-161-Copy" fill="#CEF8FB"></path>
        <path d="M16,2 C17.6568542,2 19,3.34314575 19,5 L19,19 C19,20.6568542 17.6568542,22 16,22 L4,22 C3.44771525,22 3,21.5522847 3,21 L3,3 C3,2.44771525 3.44771525,2 4,2 L16,2 Z M10.9907452,12 C8.36772908,12 6.21569918,13.5165724 6.00036205,16.4995035 C5.98863236,16.6619875 6.26484009,17 6.4041679,17 L6.4041679,17 L15.5815,17 C15.9988413,17 16.0053266,16.6221713 15.9988413,16.5 C15.8360465,13.4332455 13.6506758,12 10.9907452,12 Z M11,7 C9.8954305,7 9,7.8954305 9,9 C9,10.1045695 9.8954305,11 11,11 C12.1045695,11 13,10.1045695 13,9 C13,7.8954305 12.1045695,7 11,7 Z" id="Combined-Shape" fill="#00A5B5"></path>
    </g>
</svg>