<?xml version="1.0" encoding="UTF-8"?>
<svg width="24px" height="24px" viewBox="0 0 24 24" version="1.1" xmlns="http://www.w3.org/2000/svg" xmlns:xlink="http://www.w3.org/1999/xlink">
    <title>Icn / Booking Details / Key Exchange</title>
    <g id="Icn-/-Booking-Details-/-Key-Exchange" stroke="none" stroke-width="1" fill="none" fill-rule="evenodd">
        <polygon id="Path-59" fill="#CEF8FB" transform="translate(6.885842, 17.114158) rotate(-315.000000) translate(-6.885842, -17.114158) " points="4.89784488 11.6187476 4.76452164 20.4882481 6.88584198 22.6095684 9.00716232 20.4882481 7.59294876 19.0740345 8.96599143 17.7009919 7.55177787 16.2867783 9.00716232 14.8313939 8.88374714 11.6187476"></polygon>
        <path d="M13.9852814,3.98528137 C17.2989899,3.98528137 19.9852814,6.67157288 19.9852814,9.98528137 C19.9852814,13.2989899 17.2989899,15.9852814 13.9852814,15.9852814 C10.6715729,15.9852814 7.98528137,13.2989899 7.98528137,9.98528137 C7.98528137,6.67157288 10.6715729,3.98528137 13.9852814,3.98528137 Z M14.1776695,7.07106781 C13.3492424,7.07106781 12.6776695,7.74264069 12.6776695,8.57106781 C12.6776695,9.39949494 13.3492424,10.0710678 14.1776695,10.0710678 C15.0060967,10.0710678 15.6776695,9.39949494 15.6776695,8.57106781 C15.6776695,7.74264069 15.0060967,7.07106781 14.1776695,7.07106781 Z" id="Combined-Shape" fill="#00A5B5" transform="translate(13.985281, 9.985281) rotate(-315.000000) translate(-13.985281, -9.985281) "></path>
    </g>
</svg>