<?xml version="1.0" encoding="UTF-8"?>
<svg width="24px" height="24px" viewBox="0 0 24 24" version="1.1" xmlns="http://www.w3.org/2000/svg" xmlns:xlink="http://www.w3.org/1999/xlink">
    <title>Icn / Booking Details / Pickup Details</title>
    <g id="Icn-/-Booking-Details-/-Pickup-Details" stroke="none" stroke-width="1" fill="none" fill-rule="evenodd">
        <path d="M2,8.11111111 L2,18.3888889 C2,20.38 3.62,22 5.61111111,22 L18.3888889,22 C20.38,22 22,20.38 22,18.3888889 L22,8.11111111 L2,8.11111111 Z M7.27777778,18.6666667 C6.51055556,18.6666667 5.88888889,18.045 5.88888889,17.2777778 C5.88888889,16.5105556 6.51055556,15.8888889 7.27777778,15.8888889 C8.045,15.8888889 8.66666667,16.5105556 8.66666667,17.2777778 C8.66666667,18.045 8.045,18.6666667 7.27777778,18.6666667 Z M7.27777778,13.6666667 C6.51055556,13.6666667 5.88888889,13.045 5.88888889,12.2777778 C5.88888889,11.5105556 6.51055556,10.8888889 7.27777778,10.8888889 C8.045,10.8888889 8.66666667,11.5105556 8.66666667,12.2777778 C8.66666667,13.045 8.045,13.6666667 7.27777778,13.6666667 Z M12,18.6666667 C11.2327778,18.6666667 10.6111111,18.045 10.6111111,17.2777778 C10.6111111,16.5105556 11.2327778,15.8888889 12,15.8888889 C12.7672222,15.8888889 13.3888889,16.5105556 13.3888889,17.2777778 C13.3888889,18.045 12.7672222,18.6666667 12,18.6666667 Z M12,13.6666667 C11.2327778,13.6666667 10.6111111,13.045 10.6111111,12.2777778 C10.6111111,11.5105556 11.2327778,10.8888889 12,10.8888889 C12.7672222,10.8888889 13.3888889,11.5105556 13.3888889,12.2777778 C13.3888889,13.045 12.7672222,13.6666667 12,13.6666667 Z M16.7222222,13.6666667 C15.955,13.6666667 15.3333333,13.045 15.3333333,12.2777778 C15.3333333,11.5105556 15.955,10.8888889 16.7222222,10.8888889 C17.4894444,10.8888889 18.1111111,11.5105556 18.1111111,12.2777778 C18.1111111,13.045 17.4894444,13.6666667 16.7222222,13.6666667 Z" id="Shape" fill="#CEF8FB"></path>
        <path d="M22,6.44444444 L22,5.61111111 C22,3.62 20.38,2 18.3888889,2 L5.61111111,2 C3.62,2 2,3.62 2,5.61111111 L2,6.44444444 L22,6.44444444 Z" id="Path" fill="#00A5B5"></path>
    </g>
</svg>