<?xml version="1.0" encoding="UTF-8"?>
<svg width="32px" height="32px" viewBox="0 0 32 32" version="1.1" xmlns="http://www.w3.org/2000/svg" xmlns:xlink="http://www.w3.org/1999/xlink">
    <title>Icn / Amenity / Kitchen / Blender</title>
    <g id="Icn-/-Amenity-/-Kitchen-/-Blender" stroke="none" stroke-width="1" fill="none" fill-rule="evenodd">
        <g id="Group" transform="translate(8.000000, 5.000000)" fill="#13284C">
            <path d="M13.4549,14.2027 L13.4489,14.2027 L7.5549,14.1997 L0.7729,14.1967 L0.7709,20.9197 C0.7709,21.1667 0.8709,21.3927 1.0369,21.5577 C1.1989,21.7197 1.4239,21.8197 1.6719,21.8197 L13.4299,21.8267 C13.6779,21.8267 13.9019,21.7247 14.0679,21.5607 C14.2319,21.3987 14.3339,21.1727 14.3339,20.9257 L14.3299,20.9257 L14.3339,20.9257 L14.3359,14.2027 L13.4549,14.2027 Z M7.5549,13.7507 L13.2249,13.7537 L13.2279,3.8537 L1.8909,3.8487 L1.8849,13.7477 L7.5549,13.7507 Z M0.3219,20.9197 L0.3219,13.9737 C0.3219,13.8487 0.4259,13.7477 0.5489,13.7477 L1.4389,13.7477 L1.4429,3.6247 C1.4429,3.4997 1.5429,3.3997 1.6659,3.3997 L13.4509,3.4057 C13.5759,3.4057 13.6779,3.5067 13.6779,3.6317 L13.6719,13.7537 L14.5619,13.7537 C14.6839,13.7537 14.7849,13.8547 14.7849,13.9797 L14.7809,20.9257 C14.7809,21.2977 14.6289,21.6337 14.3849,21.8807 C14.1409,22.1247 13.8029,22.2747 13.4299,22.2747 L13.4299,22.2777 L13.4299,22.2747 L1.6719,22.2717 C1.2989,22.2717 0.9629,22.1197 0.7169,21.8747 C0.4749,21.6277 0.3219,21.2917 0.3219,20.9197 L0.3219,20.9197 Z" id="Fill-2"></path>
            <path d="M6.535,1.196 L8.586,1.196 L8.586,0.451 L6.535,0.451 L6.535,1.196 Z M6.084,1.196 L6.084,0.226 C6.084,0.101 6.187,0 6.31,0 L8.812,0 C8.935,0 9.039,0.101 9.039,0.226 L9.039,1.196 L14.894,1.196 C15.019,1.196 15.121,1.297 15.121,1.422 L15.121,3.525 C15.121,3.647 15.019,3.751 14.894,3.751 L14.328,3.751 L0.793,3.751 L0.224,3.751 C0.103,3.751 5.68434189e-14,3.647 5.68434189e-14,3.525 L5.68434189e-14,1.422 C5.68434189e-14,1.297 0.103,1.196 0.224,1.196 L6.084,1.196 Z M3.445,3.751 L1.244,3.751 L3.445,3.751 Z M7.347,3.751 L3.892,3.751 L7.347,3.751 Z M14.672,1.645 L8.812,1.645 L6.31,1.645 L0.451,1.645 L0.451,3.299 L1.017,3.299 L3.67,3.299 L7.574,3.299 L11.461,3.299 L14.103,3.299 L14.672,3.299 L14.672,1.645 Z" id="Fill-3"></path>
            <path d="M7.5018,17.0255 C8.0158,17.0255 8.4318,17.4425 8.4318,17.9545 C8.4318,18.4665 8.0158,18.8835 7.5018,18.8835 C6.9898,18.8835 6.5738,18.4665 6.5738,17.9545 C6.5738,17.4425 6.9898,17.0255 7.5018,17.0255 M7.5018,19.2835 C8.2358,19.2835 8.8318,18.6875 8.8318,17.9545 C8.8318,17.2215 8.2358,16.6255 7.5018,16.6255 C6.7698,16.6255 6.1738,17.2215 6.1738,17.9545 C6.1738,18.6875 6.7698,19.2835 7.5018,19.2835" id="Fill-4"></path>
        </g>
    </g>
</svg>