<?xml version="1.0" encoding="UTF-8"?>
<svg width="32px" height="32px" viewBox="0 0 32 32" version="1.1" xmlns="http://www.w3.org/2000/svg" xmlns:xlink="http://www.w3.org/1999/xlink">
    <title>Icn / Amenity / Kitchen / Coffee - Tea Maker</title>
    <g id="Icn-/-Amenity-/-Kitchen-/-Coffee---Tea-Maker" stroke="none" stroke-width="1" fill="none" fill-rule="evenodd">
        <g id="Group" transform="translate(6.000000, 6.000000)" fill="#13284C">
            <path d="M1.703,19.9976 L18.457,19.9976 L18.457,19.3726 L1.703,19.3726 L1.703,19.9976 Z M18.757,20.5976 L1.402,20.5976 C1.237,20.5976 1.103,20.4636 1.103,20.2976 L1.103,19.0726 C1.103,18.9076 1.237,18.7726 1.402,18.7726 L18.757,18.7726 C18.923,18.7726 19.058,18.9076 19.058,19.0726 L19.058,20.2976 C19.058,20.4636 18.923,20.5976 18.757,20.5976 L18.757,20.5976 Z" id="Fill-1"></path>
            <path d="M19.9507,14.1093 C19.7847,14.1093 19.6497,13.9753 19.6497,13.8093 L19.6497,8.6053 C19.6497,7.0973 18.4237,5.8723 16.9177,5.8723 L14.0297,5.8723 C13.8637,5.8723 13.7297,5.7373 13.7297,5.5713 C13.7297,5.4063 13.8637,5.2723 14.0297,5.2723 L16.9177,5.2723 C18.7557,5.2723 20.2497,6.7673 20.2497,8.6053 L20.2497,13.8093 C20.2497,13.9753 20.1167,14.1093 19.9507,14.1093" id="Fill-3"></path>
            <path d="M15.398,5.872 L5.285,5.872 C5.119,5.872 4.985,5.737 4.985,5.572 C4.985,5.406 5.119,5.272 5.285,5.272 L15.398,5.272 C15.564,5.272 15.697,5.406 15.697,5.572 C15.697,5.737 15.564,5.872 15.398,5.872" id="Fill-4"></path>
            <path d="M0.8042,5.8896 L3.9252,11.6416 L4.3292,7.6806 C4.4272,7.0636 4.5912,6.4656 4.8212,5.8896 L0.8042,5.8896 Z M4.0952,12.8856 L4.0952,12.8856 C3.9862,12.8856 3.8842,12.8256 3.8312,12.7286 L0.0362,5.7326 C-0.0138,5.6396 -0.0118,5.5266 0.0422,5.4356 C0.0962,5.3456 0.1952,5.2896 0.3002,5.2896 L5.2772,5.2896 C5.3782,5.2896 5.4742,5.3416 5.5292,5.4276 C5.5842,5.5146 5.5912,5.6226 5.5482,5.7156 C5.2442,6.3716 5.0342,7.0586 4.9242,7.7576 L4.4372,12.5376 C4.4332,12.5776 4.4202,12.6156 4.4022,12.6506 L4.3592,12.7286 C4.3072,12.8256 4.2052,12.8856 4.0952,12.8856 L4.0952,12.8856 Z" id="Fill-5"></path>
            <path d="M3.6558,18.7441 L16.8958,18.7441 C16.6908,16.7601 16.4818,15.0601 16.2788,13.4131 C16.0638,11.6731 15.8438,9.8741 15.6248,7.7411 L15.6248,7.7361 C15.5018,6.2931 14.9408,4.9211 14.0448,3.8721 C13.7578,3.5361 13.0938,2.9921 12.9878,2.9061 C12.8848,2.8421 12.2838,2.4741 11.9598,2.3441 C11.4158,2.1261 10.8488,2.0161 10.2768,2.0161 C8.4718,2.0161 6.5728,3.5031 5.5488,5.7151 C5.2448,6.3721 5.0348,7.0581 4.9248,7.7581 L4.4368,12.5381 C4.3008,13.8731 4.1618,14.8621 4.0268,15.8171 C3.9058,16.6861 3.7798,17.5831 3.6558,18.7441 M17.2298,19.3441 L3.3218,19.3441 C3.2378,19.3441 3.1568,19.3081 3.0988,19.2451 C3.0428,19.1821 3.0148,19.0981 3.0238,19.0141 C3.1608,17.6781 3.2998,16.6891 3.4328,15.7341 C3.5658,14.7841 3.7048,13.8021 3.8398,12.4771 L4.3298,7.6801 C4.4508,6.9111 4.6768,6.1701 5.0038,5.4631 C6.1248,3.0431 8.2438,1.4161 10.2758,1.4161 L10.2768,1.4161 C10.9268,1.4161 11.5678,1.5411 12.1828,1.7871 C12.5868,1.9491 13.2918,2.3881 13.3208,2.4071 C13.3318,2.4131 13.3418,2.4201 13.3508,2.4281 C13.3838,2.4531 14.1538,3.0771 14.5008,3.4821 C15.4778,4.6251 16.0898,6.1171 16.2218,7.6821 C16.4388,9.8081 16.6598,11.6041 16.8748,13.3401 C17.0878,15.0811 17.3098,16.8811 17.5268,19.0141 C17.5368,19.0981 17.5098,19.1821 17.4528,19.2451 C17.3958,19.3081 17.3138,19.3441 17.2298,19.3441" id="Fill-6"></path>
            <path d="M9.314,16.8896 L11.024,16.8896 L11.024,7.3556 L9.314,7.3556 L9.314,16.8896 Z M11.325,17.4906 L9.013,17.4906 C8.847,17.4906 8.713,17.3556 8.713,17.1896 L8.713,7.0556 C8.713,6.8896 8.847,6.7556 9.013,6.7556 L11.325,6.7556 C11.49,6.7556 11.625,6.8896 11.625,7.0556 L11.625,17.1896 C11.625,17.3556 11.49,17.4906 11.325,17.4906 L11.325,17.4906 Z" id="Fill-7"></path>
            <path d="M19.5249,7.3559 L15.9229,7.3559 C15.7569,7.3559 15.6249,7.2219 15.6249,7.0559 C15.6249,6.8899 15.7569,6.7559 15.9229,6.7559 L19.5249,6.7559 C19.6909,6.7559 19.8259,6.8899 19.8259,7.0559 C19.8259,7.2219 19.6909,7.3559 19.5249,7.3559" id="Fill-8"></path>
            <path d="M17.0308,17.4902 L3.6318,17.4902 C3.4658,17.4902 3.3318,17.3562 3.3318,17.1902 C3.3318,17.0242 3.4658,16.8902 3.6318,16.8902 L17.0308,16.8902 C17.1968,16.8902 17.3318,17.0242 17.3318,17.1902 C17.3318,17.3562 17.1968,17.4902 17.0308,17.4902" id="Fill-9"></path>
            <path d="M9.723,1.4156 L10.539,1.4156 L10.539,0.5996 L9.723,0.5996 L9.723,1.4156 Z M10.839,2.0156 L9.423,2.0156 C9.257,2.0156 9.124,1.8816 9.124,1.7166 L9.124,0.2996 C9.124,0.1346 9.257,-0.0004 9.423,-0.0004 L10.839,-0.0004 C11.005,-0.0004 11.139,0.1346 11.139,0.2996 L11.139,1.7166 C11.139,1.8816 11.005,2.0156 10.839,2.0156 L10.839,2.0156 Z" id="Fill-10"></path>
        </g>
    </g>
</svg>