<?xml version="1.0" encoding="UTF-8"?>
<svg width="32px" height="32px" viewBox="0 0 32 32" version="1.1" xmlns="http://www.w3.org/2000/svg" xmlns:xlink="http://www.w3.org/1999/xlink">
    <title>Icn / Amenity / Kitchen / Cooler</title>
    <g id="Icn-/-Amenity-/-Kitchen-/-Cooler" stroke="none" stroke-width="1" fill="none" fill-rule="evenodd">
        <g id="Group" transform="translate(6.000000, 6.000000)" fill="#13284C">
            <g id="Group-3" transform="translate(0.000000, 0.473100)">
                <path d="M0.5996,3.8144 L20.3396,3.8144 L20.3396,3.5244 C20.3396,2.2024 19.2636,1.1264 17.9416,1.1264 L2.9976,1.1264 C1.6756,1.1264 0.5996,2.2024 0.5996,3.5244 L0.5996,3.8144 Z M20.6406,4.4144 L0.2986,4.4144 C0.1346,4.4144 -0.0004,4.2794 -0.0004,4.1144 L-0.0004,3.5244 C-0.0004,1.8714 1.3436,0.5264 2.9976,0.5264 L17.9416,0.5264 C19.5956,0.5264 20.9396,1.8714 20.9396,3.5244 L20.9396,4.1144 C20.9396,4.2794 20.8046,4.4144 20.6406,4.4144 L20.6406,4.4144 Z" id="Fill-1"></path>
            </g>
            <path d="M0.6,18.8731 L20.34,18.8731 L20.34,4.8871 L0.6,4.8871 L0.6,18.8731 Z M20.641,19.4731 L0.299,19.4731 C0.135,19.4731 0,19.3391 0,19.1731 L0,4.5871 C0,4.4221 0.135,4.2871 0.299,4.2871 L20.641,4.2871 C20.805,4.2871 20.939,4.4221 20.939,4.5871 L20.939,19.1731 C20.939,19.3391 20.805,19.4731 20.641,19.4731 L20.641,19.4731 Z" id="Fill-4"></path>
            <path d="M8.0996,7.2372 C7.6976,7.2372 7.3696,7.5652 7.3696,7.9692 L7.3696,9.5552 C7.3696,9.9592 7.6976,10.2872 8.0996,10.2872 L12.8166,10.2872 C13.2206,10.2872 13.5486,9.9592 13.5486,9.5552 L13.5486,7.9692 C13.5486,7.5652 13.2206,7.2372 12.8166,7.2372 L8.0996,7.2372 Z M12.8166,10.8872 L8.0996,10.8872 C7.3656,10.8872 6.7696,10.2902 6.7696,9.5552 L6.7696,7.9692 C6.7696,7.2352 7.3656,6.6372 8.0996,6.6372 L12.8166,6.6372 C13.5506,6.6372 14.1486,7.2352 14.1486,7.9692 L14.1486,9.5552 C14.1486,10.2902 13.5506,10.8872 12.8166,10.8872 L12.8166,10.8872 Z" id="Fill-6"></path>
            <path d="M8.4238,9.6205 C8.2578,9.6205 8.1228,9.4865 8.1228,9.3205 L8.1228,8.3375 C8.1228,8.1715 8.2578,8.0375 8.4238,8.0375 C8.5898,8.0375 8.7228,8.1715 8.7228,8.3375 L8.7228,9.3205 C8.7228,9.4865 8.5898,9.6205 8.4238,9.6205" id="Fill-7"></path>
            <path d="M9.7735,9.6205 C9.6075,9.6205 9.4725,9.4865 9.4725,9.3205 L9.4725,8.3375 C9.4725,8.1715 9.6075,8.0375 9.7735,8.0375 C9.9395,8.0375 10.0725,8.1715 10.0725,8.3375 L10.0725,9.3205 C10.0725,9.4865 9.9395,9.6205 9.7735,9.6205" id="Fill-8"></path>
            <path d="M11.1231,9.6205 C10.9571,9.6205 10.8221,9.4865 10.8221,9.3205 L10.8221,8.3375 C10.8221,8.1715 10.9571,8.0375 11.1231,8.0375 C11.2891,8.0375 11.4241,8.1715 11.4241,8.3375 L11.4241,9.3205 C11.4241,9.4865 11.2891,9.6205 11.1231,9.6205" id="Fill-9"></path>
            <path d="M12.4727,9.6205 C12.3087,9.6205 12.1737,9.4865 12.1737,9.3205 L12.1737,8.3375 C12.1737,8.1715 12.3087,8.0375 12.4727,8.0375 C12.6387,8.0375 12.7737,8.1715 12.7737,8.3375 L12.7737,9.3205 C12.7737,9.4865 12.6387,9.6205 12.4727,9.6205" id="Fill-10"></path>
        </g>
    </g>
</svg>