<?xml version="1.0" encoding="UTF-8"?>
<svg width="32px" height="32px" viewBox="0 0 32 32" version="1.1" xmlns="http://www.w3.org/2000/svg" xmlns:xlink="http://www.w3.org/1999/xlink">
    <title>Icn / Amenity / Kitchen / Dining Table</title>
    <g id="Icn-/-Amenity-/-Kitchen-/-Dining-Table" stroke="none" stroke-width="1" fill="none" fill-rule="evenodd">
        <g id="Group" transform="translate(2.000000, 9.000000)" fill="#13284C">
            <path d="M19.4379111,13.5915111 C19.4202815,13.6081037 18.2847259,13.6195111 18.2525778,13.5915111 C18.2214667,13.5624741 18.2836889,7.68351111 18.1571704,7.6046963 C18.1115407,7.57565926 9.31642963,7.59121481 9.28013333,7.65551111 C9.24487407,7.71980741 9.27494815,13.6350667 9.25628148,13.6620296 C9.23865185,13.6889926 8.08961481,13.6838074 8.07094815,13.6620296 C8.05228148,13.6402519 8.05746667,6.41625185 8.05746667,6.41625185 L19.4379111,6.41625185 C19.4379111,6.41625185 19.4555407,13.5738815 19.4379111,13.5915111 L19.4379111,13.5915111 Z M4.39877794,5.75151111 C4.40917037,5.60632593 4.53983704,5.56795556 4.83331852,5.56795556 L22.6610222,5.56795556 C22.9545037,5.56795556 23.1131704,5.54099259 23.117394,5.75565926 C23.1214667,5.95684444 22.9545037,6.00143704 22.6610222,6.00143704 L19.8392444,6.00143704 L7.86354074,6.00143704 L4.83331852,6.00143704 C4.54087407,6.00143704 4.39672593,5.99521481 4.39877794,5.75151111 L4.39877794,5.75151111 Z M22.6610222,6.41625185 C23.1567259,6.41625185 23.5310963,6.17151111 23.5310963,5.84795556 L23.5310963,5.72143704 C23.5310963,5.39788148 23.1567259,5.15314074 22.6610222,5.15314074 L4.83331852,5.15314074 C4.33761481,5.15314074 3.96428148,5.39788148 3.96428148,5.72143704 L3.96428148,5.84795556 C3.96428148,6.17151111 4.33761481,6.41625185 4.83331852,6.41625185 L7.64265185,6.41625185 C7.64265185,6.41625185 7.6550963,14.0498815 7.66961481,14.0768444 C7.68517037,14.1038074 9.65242963,14.0892889 9.67213333,14.0664741 C9.69183704,14.0426222 9.66487407,8.82217778 9.66902222,7.97284444 C9.93657778,7.96454815 17.1553926,7.96973333 17.8460593,7.9801037 C17.8585037,8.73817778 17.837763,13.9824741 17.8512444,14.0063259 C17.8647259,14.0291407 19.827837,14.0218815 19.8527259,13.9949185 C19.8776148,13.9679556 19.8527259,6.41625185 19.8527259,6.41625185 L22.6610222,6.41625185 Z" id="Fill-1"></path>
            <g id="Group-5" transform="translate(19.703704, 0.610089)">
                <path d="M7.4704,1.15982222 C6.96743704,3.66634074 6.19173333,7.42352593 6.01232593,8.04056296 L1.2264,8.04056296 C1.18388148,8.02604444 1.07499259,7.86115556 1.07499259,7.56974815 C1.07499259,7.27522963 1.18491852,7.11137778 1.22536296,7.09893333 L5.7541037,7.09893333 L7.07114074,1.04471111 C7.09706667,0.913007407 7.19973333,0.822785185 7.30758519,0.847674074 C7.4226963,0.875674074 7.49632593,1.01982222 7.4704,1.15982222 L7.4704,1.15982222 Z M5.79454815,12.9810074 L5.96047407,12.9810074 L5.96047407,8.45434074 L5.79454815,8.45434074 L5.79454815,12.9810074 Z M1.51054815,12.9810074 L1.67854815,12.9810074 L1.67854815,8.45434074 L1.51054815,8.45434074 L1.51054815,12.9810074 Z M7.40506667,0.445303704 C7.07217778,0.364414815 6.73099259,0.609155556 6.66565926,0.962785185 L5.41914074,6.68308148 L1.22536296,6.68308148 C0.902844444,6.68308148 0.660177778,7.06367407 0.660177778,7.56974815 C0.660177778,8.00426667 0.839585185,8.34545185 1.09677037,8.43256296 L1.09677037,13.166637 C1.09677037,13.2931556 1.19736296,13.3958222 1.32180741,13.3958222 L1.86625185,13.3958222 C1.99173333,13.3958222 2.09232593,13.2931556 2.09232593,13.166637 L2.09232593,8.45537778 L5.3786963,8.45537778 L5.3786963,13.166637 C5.3786963,13.2931556 5.48032593,13.3958222 5.60580741,13.3958222 L6.14921481,13.3958222 C6.2746963,13.3958222 6.37528889,13.2931556 6.37528889,13.166637 L6.37528889,8.21997037 C6.50906667,7.83211852 6.82847407,6.45804444 7.87795556,1.23863704 C7.94536296,0.879822222 7.73277037,0.524118519 7.40506667,0.445303704 L7.40506667,0.445303704 Z" id="Fill-3"></path>
            </g>
            <g id="Group-8" transform="translate(0.000000, 0.610089)">
                <path d="M6.66327407,8.04025185 L1.87734815,8.03714074 C1.69586667,7.41180741 0.922237037,3.66291852 0.419274074,1.16262222 C0.393348148,1.01951111 0.466977778,0.875362963 0.582088889,0.847362963 C0.687866667,0.822474074 0.793644444,0.911659259 0.81957037,1.05062222 L2.13660741,7.09862222 L6.66223704,7.09758519 C6.70475556,7.11106667 6.81468148,7.27595556 6.81468148,7.56943704 C6.81468148,7.85980741 6.70579259,8.02365926 6.66327407,8.04025185 L6.66327407,8.04025185 Z M6.21216296,12.9817333 L6.37912593,12.9817333 L6.37912593,8.45506667 L6.21216296,8.45506667 L6.21216296,12.9817333 Z M1.9292,12.9817333 L2.09616296,12.9817333 L2.09616296,8.45506667 L1.9292,8.45506667 L1.9292,12.9817333 Z M6.66534815,6.68277037 L2.47053333,6.68277037 L1.22608889,0.968696296 C1.11201481,0.299807407 0.5292,0.434622222 0.484607407,0.444992593 C0.156903704,0.523807407 -0.0556888889,0.879511111 0.0127555556,1.24143704 C1.0612,6.45877037 1.38060741,7.83284444 1.51438519,8.21965926 L1.51438519,13.1663259 C1.51438519,13.2928444 1.61601481,13.3965481 1.74045926,13.3965481 L2.28386667,13.3965481 C2.40831111,13.3965481 2.51097778,13.2928444 2.51097778,13.1663259 L2.51097778,8.45506667 L5.79734815,8.45506667 L5.79734815,13.1663259 C5.79734815,13.2928444 5.89897778,13.3965481 6.02342222,13.3965481 L6.56682963,13.3965481 C6.69127407,13.3965481 6.7929037,13.2928444 6.7929037,13.1663259 L6.7929037,8.43225185 C7.04905185,8.34514074 7.2294963,8.00395556 7.2294963,7.56943704 C7.2294963,7.0644 6.98682963,6.68277037 6.66534815,6.68277037 L6.66534815,6.68277037 Z" id="Fill-6"></path>
            </g>
        </g>
    </g>
</svg>