<?xml version="1.0" encoding="UTF-8"?>
<svg width="32px" height="32px" viewBox="0 0 32 32" version="1.1" xmlns="http://www.w3.org/2000/svg" xmlns:xlink="http://www.w3.org/1999/xlink">
    <title>Icn / Amenity / Kitchen / Eating Utensils</title>
    <g id="Icn-/-Amenity-/-Kitchen-/-Eating-Utensils" stroke="none" stroke-width="1" fill="none" fill-rule="evenodd">
        <g id="Group" transform="translate(9.000000, 3.000000)" fill="#13284C">
            <path d="M5.6074,23.9736 L5.6074,23.9566 C5.5294,23.9666 5.4504,23.9736 5.3704,23.9736 L5.6074,23.9736 Z" id="Fill-1"></path>
            <g id="Group-5" transform="translate(0.000000, 0.109400)">
                <path d="M5.333,7.4516 C5.298,7.5696 4.262,8.3166 4.262,8.3166 L4.262,24.1796 C4.262,24.2936 4.127,24.3896 3.967,24.3896 L2.307,24.3896 C2.147,24.3896 2.012,24.2936 2.012,24.1796 L2.012,8.3156 C2.012,8.3156 0.956,7.5686 0.921,7.4636 L0.32,4.9736 C0.327,4.7496 0.418,2.7606 0.48,1.4206 C0.48,1.3066 0.616,1.2106 0.776,1.2106 L0.883,1.2106 C1.042,1.2106 1.178,1.3066 1.178,1.4206 L1.178,4.5346 C1.178,4.6576 1.231,4.7666 1.329,4.8426 C1.41,4.9056 1.514,4.9396 1.622,4.9396 C1.864,4.9396 2.039,4.7696 2.039,4.5346 L2.039,1.4206 C2.039,1.3066 2.174,1.2106 2.334,1.2106 L2.441,1.2106 C2.601,1.2106 2.736,1.3066 2.736,1.4206 L2.736,4.5346 C2.736,4.6616 2.772,4.7636 2.844,4.8366 C3.001,4.9956 3.332,4.9486 3.51,4.7646 C3.58,4.6936 3.615,4.6126 3.613,4.5296 C3.607,4.3386 3.613,1.4506 3.613,1.4206 C3.613,1.3066 3.748,1.2106 3.909,1.2106 L4.015,1.2106 C4.175,1.2106 4.31,1.3066 4.31,1.4206 L4.31,4.5346 C4.31,4.6856 4.38,4.7736 4.439,4.8206 C4.609,4.9556 4.954,4.9006 5.098,4.7356 C5.155,4.6706 5.181,4.5906 5.17,4.5136 C5.152,4.3716 5.161,2.5426 5.171,1.4206 C5.171,1.3066 5.307,1.2106 5.467,1.2106 L5.573,1.2106 C5.733,1.2106 5.869,1.3066 5.869,1.4236 C5.89,2.5816 5.93,4.7446 5.933,4.9736 L5.333,7.4516 Z M5.573,0.8906 L5.467,0.8906 C5.127,0.8906 4.851,1.1286 4.851,1.4196 C4.849,1.7106 4.827,4.2006 4.851,4.5326 C4.827,4.5536 4.763,4.5826 4.696,4.5826 C4.665,4.5826 4.645,4.5756 4.638,4.5706 C4.632,4.5656 4.63,4.5486 4.63,4.5346 L4.63,1.4206 C4.63,1.1286 4.354,0.8906 4.015,0.8906 L3.909,0.8906 C3.569,0.8906 3.293,1.1286 3.293,1.4206 C3.292,1.5396 3.287,4.3436 3.295,4.5236 C3.281,4.5556 3.186,4.6186 3.105,4.6186 C3.087,4.6186 3.076,4.6156 3.072,4.6126 C3.066,4.6066 3.056,4.5826 3.056,4.5346 L3.056,1.4206 C3.056,1.1286 2.78,0.8906 2.441,0.8906 L2.334,0.8906 C1.995,0.8906 1.719,1.1286 1.719,1.4206 L1.719,4.5346 C1.719,4.5576 1.719,4.6196 1.622,4.6196 C1.585,4.6196 1.55,4.6086 1.526,4.5896 C1.501,4.5706 1.498,4.5516 1.498,4.5346 L1.498,1.4206 C1.498,1.1286 1.222,0.8906 0.883,0.8906 L0.776,0.8906 C0.437,0.8906 0.161,1.1286 0.161,1.4136 C0.144,1.7666 0,4.8666 0,4.9916 L0.603,7.4906 C0.639,7.7596 1.194,8.1726 1.692,8.4916 L1.692,24.1796 C1.692,24.4726 1.968,24.7096 2.307,24.7096 L3.967,24.7096 C4.306,24.7096 4.583,24.4726 4.583,24.1796 L4.583,8.4906 C5.071,8.1706 5.616,7.7586 5.65,7.4906 L6.249,5.0296 L6.253,4.9916 C6.253,4.9096 6.191,1.5606 6.188,1.4206 C6.188,1.1286 5.913,0.8906 5.573,0.8906 L5.573,0.8906 Z" id="Fill-3"></path>
            </g>
            <g id="Group-8" transform="translate(7.000000, 1.109400)">
                <path d="M4.5024,8.6455 L4.3904,8.7045 L4.3904,23.4225 C4.3904,23.5115 4.3184,23.5825 4.2314,23.5825 L2.8874,23.5825 C2.7994,23.5825 2.7284,23.5115 2.7284,23.4225 L2.7284,8.7045 L2.6154,8.6455 C1.4894,8.0585 0.7334,6.4935 0.7334,4.7505 C0.7334,2.4725 2.0004,0.6185 3.5594,0.6185 C5.1164,0.6185 6.3834,2.4725 6.3834,4.7505 C6.3834,6.4925 5.6274,8.0575 4.5024,8.6455 M3.5594,0.2005 C1.7704,0.2005 0.3154,2.2415 0.3154,4.7505 C0.3154,6.5875 1.1124,8.2555 2.3104,8.9545 L2.3104,23.4225 C2.3104,23.7415 2.5684,23.9995 2.8874,23.9995 L4.2314,23.9995 C4.5494,23.9995 4.8084,23.7415 4.8084,23.4225 L4.8084,8.9535 C6.0054,8.2545 6.8014,6.5875 6.8014,4.7505 C6.8014,2.2415 5.3464,0.2005 3.5594,0.2005" id="Fill-6"></path>
            </g>
            <path d="M9.8218,2.9248 C9.8228,2.9218 9.8838,2.6528 9.6318,2.6228 C9.5668,2.6158 9.5108,2.6538 9.4718,2.6978 C9.4718,2.6978 9.4398,2.7468 9.4338,2.7628 C8.2038,4.8298 8.2508,7.1048 9.5718,9.1748 C9.5928,9.2058 9.7018,9.3778 9.8008,9.3628 C9.8998,9.3488 9.9848,9.2548 9.9848,9.2548 C10.0468,9.1418 9.9928,9.0568 9.9248,8.9498 C8.6808,7.0028 8.6448,4.8638 9.8218,2.9248" id="Fill-9"></path>
        </g>
    </g>
</svg>