<?xml version="1.0" encoding="UTF-8"?>
<svg width="32px" height="32px" viewBox="0 0 32 32" version="1.1" xmlns="http://www.w3.org/2000/svg" xmlns:xlink="http://www.w3.org/1999/xlink">
    <title>Icn / Amenity / Kitchen / Freezer</title>
    <g id="Icn-/-Amenity-/-Kitchen-/-Freezer" stroke="none" stroke-width="1" fill="none" fill-rule="evenodd">
        <g id="Group" transform="translate(6.000000, 6.000000)" fill="#13284C">
            <path d="M1.932,0.6 C1.198,0.6 0.602,1.197 0.602,1.931 L0.602,16.902 C0.602,17.636 1.198,18.233 1.932,18.233 L18.356,18.233 C19.088,18.233 19.686,17.636 19.686,16.902 L19.686,1.931 C19.686,1.197 19.088,0.6 18.356,0.6 L1.932,0.6 Z M18.356,18.833 L1.932,18.833 C0.868,18.833 3.01980663e-14,17.967 3.01980663e-14,16.902 L3.01980663e-14,1.931 C3.01980663e-14,0.867 0.868,-7.28306304e-14 1.932,-7.28306304e-14 L18.356,-7.28306304e-14 C19.42,-7.28306304e-14 20.286,0.867 20.286,1.931 L20.286,16.902 C20.286,17.967 19.42,18.833 18.356,18.833 L18.356,18.833 Z" id="Fill-1"></path>
            <path d="M3.5044,19.8032 L4.9714,19.8032 L4.9714,18.8332 L3.5044,18.8332 L3.5044,19.8032 Z M5.2714,20.4032 L3.2034,20.4032 C3.0394,20.4032 2.9044,20.2692 2.9044,20.1032 L2.9044,18.5332 C2.9044,18.3672 3.0394,18.2332 3.2034,18.2332 L5.2714,18.2332 C5.4364,18.2332 5.5704,18.3672 5.5704,18.5332 L5.5704,20.1032 C5.5704,20.2692 5.4364,20.4032 5.2714,20.4032 L5.2714,20.4032 Z" id="Fill-4"></path>
            <path d="M15.2954,19.8032 L16.7624,19.8032 L16.7624,18.8332 L15.2954,18.8332 L15.2954,19.8032 Z M17.0624,20.4032 L14.9944,20.4032 C14.8304,20.4032 14.6954,20.2692 14.6954,20.1032 L14.6954,18.5332 C14.6954,18.3672 14.8304,18.2332 14.9944,18.2332 L17.0624,18.2332 C17.2274,18.2332 17.3614,18.3672 17.3614,18.5332 L17.3614,20.1032 C17.3614,20.2692 17.2274,20.4032 17.0624,20.4032 L17.0624,20.4032 Z" id="Fill-6"></path>
            <path d="M10.1547,7.6117 C9.9887,7.6117 9.8537,7.4777 9.8537,7.3117 L9.8537,3.4357 C9.8537,3.2697 9.9887,3.1357 10.1547,3.1357 C10.3207,3.1357 10.4537,3.2697 10.4537,3.4357 L10.4537,7.3117 C10.4537,7.4777 10.3207,7.6117 10.1547,7.6117" id="Fill-7"></path>
            <path d="M11.5258,7.0443 C11.4478,7.0443 11.3718,7.0153 11.3128,6.9563 L8.5728,4.2153 C8.4558,4.0983 8.4558,3.9083 8.5728,3.7913 C8.6898,3.6743 8.8798,3.6743 8.9968,3.7913 L11.7368,6.5323 C11.8538,6.6493 11.8538,6.8393 11.7368,6.9563 C11.6778,7.0153 11.6018,7.0443 11.5258,7.0443" id="Fill-8"></path>
            <path d="M12.0922,5.6737 L8.2172,5.6737 C8.0512,5.6737 7.9162,5.5397 7.9162,5.3737 C7.9162,5.2077 8.0512,5.0737 8.2172,5.0737 L12.0922,5.0737 C12.2582,5.0737 12.3932,5.2077 12.3932,5.3737 C12.3932,5.5397 12.2582,5.6737 12.0922,5.6737" id="Fill-9"></path>
            <path d="M8.7836,7.0443 C8.7076,7.0443 8.6316,7.0153 8.5726,6.9563 C8.4556,6.8393 8.4556,6.6493 8.5726,6.5323 L11.3126,3.7913 C11.4296,3.6743 11.6196,3.6743 11.7366,3.7913 C11.8536,3.9083 11.8536,4.0983 11.7366,4.2153 L8.9966,6.9563 C8.9376,7.0153 8.8616,7.0443 8.7836,7.0443" id="Fill-10"></path>
            <path d="M17.3207,4.2728 C16.9477,4.2728 16.6447,4.5758 16.6447,4.9478 L16.6447,15.4488 C16.6447,15.8218 16.9477,16.1248 17.3207,16.1248 C17.6917,16.1248 17.9947,15.8218 17.9947,15.4488 L17.9947,4.9478 C17.9947,4.5758 17.6917,4.2728 17.3207,4.2728 M17.3207,16.7238 C16.6177,16.7238 16.0457,16.1518 16.0457,15.4488 L16.0457,4.9478 C16.0457,4.2448 16.6177,3.6728 17.3207,3.6728 C18.0217,3.6728 18.5937,4.2448 18.5937,4.9478 L18.5937,15.4488 C18.5937,16.1518 18.0217,16.7238 17.3207,16.7238" id="Fill-11"></path>
        </g>
    </g>
</svg>