<?xml version="1.0" encoding="UTF-8"?>
<svg width="32px" height="32px" viewBox="0 0 32 32" version="1.1" xmlns="http://www.w3.org/2000/svg" xmlns:xlink="http://www.w3.org/1999/xlink">
    <title>Icn / Amenity / Kitchen / Fridge</title>
    <g id="Icn-/-Amenity-/-Kitchen-/-Fridge" stroke="none" stroke-width="1" fill="none" fill-rule="evenodd">
        <g id="Group" transform="translate(8.000000, 2.000000)" fill="#13284C">
            <path d="M14.811,6.193 C14.811,6.669 14.5,7.055 14.12,7.055 L1.112,7.055 C0.729,7.055 0.418,6.669 0.418,6.193 L0.418,1.261 C0.418,0.786 0.729,0.4 1.112,0.4 L14.12,0.4 C14.5,0.4 14.811,0.786 14.811,1.261 L14.811,6.193 Z M14.145,7.455 C14.508,7.455 14.803,7.75 14.803,8.112 L14.803,25.247 C14.803,25.61 14.508,25.904 14.145,25.904 L1.057,25.904 C0.696,25.904 0.401,25.61 0.401,25.247 L0.401,8.112 C0.401,7.75 0.696,7.455 1.057,7.455 L14.145,7.455 Z M12.985,26.608 C12.985,26.794 12.832,26.946 12.647,26.946 C12.459,26.946 12.309,26.794 12.309,26.608 L12.309,26.304 L12.985,26.304 L12.985,26.608 Z M3.127,26.608 C3.127,26.794 2.975,26.946 2.79,26.946 C2.604,26.946 2.452,26.794 2.452,26.608 L2.452,26.304 L3.127,26.304 L3.127,26.608 Z M15.211,6.193 L15.211,1.261 C15.211,0.566 14.721,1.77635684e-15 14.12,1.77635684e-15 L1.112,1.77635684e-15 C0.508,1.77635684e-15 0.018,0.566 0.018,1.261 L0.018,6.193 C0.018,6.62 0.204,6.998 0.485,7.226 C0.194,7.415 6.21724894e-15,7.74 6.21724894e-15,8.112 L6.21724894e-15,25.247 C6.21724894e-15,25.83 0.475,26.304 1.057,26.304 L2.051,26.304 L2.051,26.608 C2.051,27.015 2.383,27.346 2.79,27.346 C3.196,27.346 3.526,27.015 3.526,26.608 L3.526,26.304 L11.909,26.304 L11.909,26.608 C11.909,27.015 12.239,27.346 12.647,27.346 C13.053,27.346 13.383,27.015 13.383,26.608 L13.383,26.304 L14.145,26.304 C14.729,26.304 15.202,25.83 15.202,25.247 L15.202,8.112 C15.202,7.747 15.016,7.425 14.735,7.235 C15.022,7.007 15.211,6.626 15.211,6.193 L15.211,6.193 Z" id="Fill-1"></path>
            <path d="M4.6372,5.6104 L2.0162,5.6104 C1.8112,5.6104 1.6452,5.4434 1.6452,5.2394 C1.6452,5.0344 1.8112,4.8674 2.0162,4.8674 L4.6372,4.8674 C4.8422,4.8674 5.0082,5.0344 5.0082,5.2394 C5.0082,5.4434 4.8422,5.6104 4.6372,5.6104 M4.6372,4.4674 L2.0162,4.4674 C1.5922,4.4674 1.2442,4.8144 1.2442,5.2394 C1.2442,5.6644 1.5922,6.0104 2.0162,6.0104 L4.6372,6.0104 C5.0632,6.0104 5.4082,5.6644 5.4082,5.2394 C5.4082,4.8144 5.0632,4.4674 4.6372,4.4674" id="Fill-4"></path>
            <path d="M2.0161,10.5802 L4.6371,10.5802 C4.8421,10.5802 5.0081,10.7462 5.0081,10.9512 C5.0081,11.1552 4.8421,11.3222 4.6371,11.3222 L2.0161,11.3222 C1.8111,11.3222 1.6451,11.1552 1.6451,10.9512 C1.6451,10.7462 1.8111,10.5802 2.0161,10.5802 M2.0161,11.7222 L4.6371,11.7222 C5.0631,11.7222 5.4091,11.3762 5.4091,10.9512 C5.4091,10.5262 5.0631,10.1802 4.6371,10.1802 L2.0161,10.1802 C1.5921,10.1802 1.2451,10.5262 1.2451,10.9512 C1.2451,11.3762 1.5921,11.7222 2.0161,11.7222" id="Fill-6"></path>
            <path d="M8.5102,3.4464 C8.4102,3.4464 8.3302,3.3654 8.3302,3.2654 C8.3302,3.1654 8.4102,3.0834 8.5102,3.0834 C8.6122,3.0834 8.6922,3.1654 8.6922,3.2654 C8.6922,3.3654 8.6122,3.4464 8.5102,3.4464 M7.7642,4.1614 C7.7642,4.2614 7.6842,4.3424 7.5822,4.3424 C7.4832,4.3424 7.4012,4.2614 7.4012,4.1614 C7.4012,4.0614 7.4832,3.9804 7.5822,3.9804 C7.6842,3.9804 7.7642,4.0614 7.7642,4.1614 M6.6682,3.4464 C6.5692,3.4464 6.4872,3.3654 6.4872,3.2654 C6.4872,3.1654 6.5692,3.0834 6.6682,3.0834 C6.7682,3.0834 6.8502,3.1654 6.8502,3.2654 C6.8502,3.3654 6.7682,3.4464 6.6682,3.4464 M7.4012,2.3674 C7.4012,2.2674 7.4832,2.1864 7.5822,2.1864 C7.6822,2.1864 7.7642,2.2674 7.7642,2.3674 C7.7642,2.4674 7.6822,2.5494 7.5822,2.5494 C7.4832,2.5494 7.4012,2.4674 7.4012,2.3674 M8.5102,2.8844 C8.3362,2.8844 8.1882,3.0034 8.1452,3.1654 L7.8242,3.1654 C7.8242,3.1654 8.0452,2.9514 8.1532,2.8374 C8.2602,2.7224 8.1002,2.6074 8.0102,2.6954 C7.9222,2.7844 7.6822,3.0244 7.6822,3.0244 L7.6822,2.7344 C7.8442,2.6904 7.9652,2.5434 7.9652,2.3674 C7.9652,2.1574 7.7932,1.9864 7.5822,1.9864 C7.3732,1.9864 7.2012,2.1574 7.2012,2.3674 C7.2012,2.5434 7.3212,2.6904 7.4832,2.7344 L7.4832,3.0234 C7.4832,3.0234 7.2252,2.7694 7.1552,2.6954 C7.0842,2.6224 6.9052,2.7274 7.0142,2.8374 C7.1232,2.9464 7.3422,3.1654 7.3422,3.1654 L7.0332,3.1654 C6.9902,3.0034 6.8442,2.8844 6.6682,2.8844 C6.4572,2.8844 6.2852,3.0544 6.2852,3.2654 C6.2852,3.4754 6.4572,3.6464 6.6682,3.6464 C6.8442,3.6464 6.9902,3.5274 7.0332,3.3654 L7.3422,3.3654 L7.0142,3.6934 C6.9102,3.7974 7.0802,3.9094 7.1552,3.8354 C7.2292,3.7604 7.4832,3.5074 7.4832,3.5074 L7.4832,3.7954 C7.3212,3.8394 7.2012,3.9864 7.2012,4.1614 C7.2012,4.3724 7.3732,4.5434 7.5822,4.5434 C7.7932,4.5434 7.9652,4.3724 7.9652,4.1614 C7.9652,3.9864 7.8442,3.8394 7.6822,3.7954 L7.6822,3.5064 C7.6822,3.5064 7.8992,3.7164 8.0102,3.8354 C8.1232,3.9534 8.2742,3.8034 8.1532,3.6934 L7.8242,3.3654 L8.1452,3.3654 C8.1882,3.5274 8.3362,3.6464 8.5102,3.6464 C8.7212,3.6464 8.8932,3.4754 8.8932,3.2654 C8.8932,3.0544 8.7212,2.8844 8.5102,2.8844" id="Fill-8"></path>
        </g>
    </g>
</svg>