<?xml version="1.0" encoding="UTF-8"?>
<svg width="32px" height="32px" viewBox="0 0 32 32" version="1.1" xmlns="http://www.w3.org/2000/svg" xmlns:xlink="http://www.w3.org/1999/xlink">
    <title>Icn / Amenity / Kitchen / Hot Water</title>
    <g id="Icn-/-Amenity-/-Kitchen-/-Hot-Water" stroke="none" stroke-width="1" fill="none" fill-rule="evenodd">
        <g id="Group" transform="translate(6.000000, 4.000000)" fill="#13284C">
            <g id="Group-3" transform="translate(0.000000, 14.471700)">
                <path d="M18.3862,2.0723 C17.7822,2.0723 17.4592,1.8163 17.2002,1.6113 C16.9672,1.4263 16.7822,1.2803 16.3882,1.2803 C15.9932,1.2803 15.8092,1.4263 15.5752,1.6113 C15.3172,1.8163 14.9942,2.0723 14.3912,2.0723 C13.7862,2.0723 13.4642,1.8163 13.2052,1.6113 C12.9722,1.4263 12.7882,1.2803 12.3932,1.2803 C11.9982,1.2803 11.8142,1.4263 11.5812,1.6113 C11.3232,1.8163 11.0002,2.0723 10.3962,2.0723 C9.7922,2.0723 9.4702,1.8163 9.2112,1.6113 C8.9782,1.4263 8.7942,1.2803 8.4002,1.2803 C8.0052,1.2803 7.8212,1.4263 7.5882,1.6113 C7.3292,1.8163 7.0072,2.0723 6.4042,2.0723 C5.8002,2.0723 5.4772,1.8163 5.2192,1.6113 C4.9862,1.4263 4.8022,1.2803 4.4072,1.2803 C4.0122,1.2803 3.8282,1.4263 3.5952,1.6113 C3.3362,1.8163 3.0142,2.0723 2.4102,2.0723 C1.8062,2.0723 1.4842,1.8163 1.2252,1.6113 C0.9922,1.4263 0.8082,1.2803 0.4132,1.2803 C0.2482,1.2803 0.1142,1.1453 0.1142,0.9803 C0.1142,0.8143 0.2482,0.6793 0.4132,0.6793 C1.0172,0.6793 1.3402,0.9353 1.5982,1.1413 C1.8312,1.3263 2.0162,1.4723 2.4102,1.4723 C2.8052,1.4723 2.9892,1.3263 3.2222,1.1413 C3.4812,0.9353 3.8032,0.6793 4.4072,0.6793 C5.0112,0.6793 5.3332,0.9353 5.5922,1.1413 C5.8252,1.3263 6.0092,1.4723 6.4042,1.4723 C6.7982,1.4723 6.9822,1.3263 7.2152,1.1413 C7.4742,0.9353 7.7962,0.6793 8.4002,0.6793 C9.0032,0.6793 9.3252,0.9353 9.5842,1.1413 C9.8182,1.3263 10.0022,1.4723 10.3962,1.4723 C10.7902,1.4723 10.9752,1.3263 11.2082,1.1413 C11.4672,0.9353 11.7892,0.6793 12.3932,0.6793 C12.9972,0.6793 13.3202,0.9353 13.5782,1.1413 C13.8122,1.3263 13.9952,1.4723 14.3912,1.4723 C14.7852,1.4723 14.9692,1.3263 15.2022,1.1413 C15.4612,0.9353 15.7832,0.6793 16.3882,0.6793 C16.9912,0.6793 17.3142,0.9353 17.5742,1.1413 C17.8072,1.3263 17.9902,1.4723 18.3862,1.4723 C18.7812,1.4723 18.9652,1.3263 19.1982,1.1413 C19.4582,0.9353 19.7812,0.6793 20.3842,0.6793 C20.5502,0.6793 20.6842,0.8143 20.6842,0.9803 C20.6842,1.1453 20.5502,1.2803 20.3842,1.2803 C19.9902,1.2803 19.8052,1.4263 19.5722,1.6113 C19.3132,1.8163 18.9902,2.0723 18.3862,2.0723" id="Fill-1"></path>
            </g>
            <g id="Group-6" transform="translate(0.000000, 16.471700)">
                <path d="M18.2729,2.3569 C17.6689,2.3569 17.3459,2.1009 17.0869,1.8959 C16.8529,1.7109 16.6689,1.5639 16.2739,1.5639 C15.8789,1.5639 15.6959,1.7109 15.4619,1.8959 C15.2039,2.1009 14.8809,2.3569 14.2769,2.3569 C13.6729,2.3569 13.3509,2.1009 13.0919,1.8959 C12.8589,1.7109 12.6739,1.5639 12.2799,1.5639 C11.8849,1.5639 11.7009,1.7109 11.4679,1.8959 C11.2089,2.1009 10.8859,2.3569 10.2829,2.3569 C9.6789,2.3569 9.3569,2.1009 9.0979,1.8959 C8.8649,1.7109 8.6809,1.5639 8.2869,1.5639 C7.8919,1.5639 7.7079,1.7109 7.4749,1.8959 C7.2159,2.1009 6.8939,2.3569 6.2899,2.3569 C5.6869,2.3569 5.3639,2.1009 5.1059,1.8959 C4.8719,1.7109 4.6879,1.5639 4.2939,1.5639 C3.8989,1.5639 3.7149,1.7109 3.4819,1.8959 C3.2229,2.1009 2.9009,2.3569 2.2969,2.3569 C1.6929,2.3569 1.3709,2.1009 1.1119,1.8959 C0.8789,1.7109 0.6949,1.5639 0.2999,1.5639 C0.1339,1.5639 -0.0001,1.4299 -0.0001,1.2639 C-0.0001,1.0989 0.1339,0.9639 0.2999,0.9639 C0.9039,0.9639 1.2259,1.2199 1.4849,1.4249 C1.7179,1.6109 1.9019,1.7569 2.2969,1.7569 C2.6909,1.7569 2.8759,1.6109 3.1089,1.4249 C3.3679,1.2199 3.6899,0.9639 4.2939,0.9639 C4.8979,0.9639 5.2199,1.2199 5.4789,1.4249 C5.7109,1.6109 5.8959,1.7569 6.2899,1.7569 C6.6849,1.7569 6.8689,1.6109 7.1019,1.4249 C7.3599,1.2199 7.6829,0.9639 8.2869,0.9639 C8.8899,0.9639 9.2119,1.2199 9.4709,1.4249 C9.7039,1.6109 9.8879,1.7569 10.2829,1.7569 C10.6769,1.7569 10.8619,1.6109 11.0949,1.4249 C11.3529,1.2199 11.6749,0.9639 12.2799,0.9639 C12.8829,0.9639 13.2059,1.2199 13.4649,1.4249 C13.6989,1.6109 13.8819,1.7569 14.2769,1.7569 C14.6709,1.7569 14.8559,1.6109 15.0889,1.4249 C15.3479,1.2199 15.6699,0.9639 16.2739,0.9639 C16.8779,0.9639 17.2009,1.2199 17.4599,1.4249 C17.6929,1.6109 17.8769,1.7569 18.2729,1.7569 C18.6679,1.7569 18.8519,1.6109 19.0849,1.4249 C19.3439,1.2199 19.6669,0.9639 20.2709,0.9639 C20.4369,0.9639 20.5709,1.0989 20.5709,1.2639 C20.5709,1.4299 20.4369,1.5639 20.2709,1.5639 C19.8759,1.5639 19.6919,1.7109 19.4589,1.8959 C19.1989,2.1009 18.8769,2.3569 18.2729,2.3569" id="Fill-4"></path>
            </g>
            <path d="M18.3188,21.1499 C17.7148,21.1499 17.3918,20.8939 17.1328,20.6889 C16.8998,20.5039 16.7158,20.3579 16.3208,20.3579 C15.9258,20.3579 15.7418,20.5039 15.5088,20.6889 C15.2498,20.8939 14.9268,21.1499 14.3238,21.1499 C13.7198,21.1499 13.3978,20.8939 13.1378,20.6889 C12.9058,20.5039 12.7208,20.3579 12.3258,20.3579 C11.9308,20.3579 11.7478,20.5039 11.5138,20.6889 C11.2558,20.8939 10.9328,21.1499 10.3288,21.1499 C9.7258,21.1499 9.4028,20.8939 9.1448,20.6889 C8.9118,20.5039 8.7278,20.3579 8.3328,20.3579 C7.9388,20.3579 7.7548,20.5039 7.5208,20.6889 C7.2618,20.8939 6.9408,21.1499 6.3368,21.1499 C5.7328,21.1499 5.4108,20.8939 5.1518,20.6889 C4.9188,20.5039 4.7348,20.3579 4.3398,20.3579 C3.9458,20.3579 3.7608,20.5039 3.5278,20.6889 C3.2698,20.8939 2.9468,21.1499 2.3438,21.1499 C1.7398,21.1499 1.4178,20.8939 1.1588,20.6889 C0.9248,20.5039 0.7408,20.3579 0.3468,20.3579 C0.1808,20.3579 0.0468,20.2229 0.0468,20.0579 C0.0468,19.8919 0.1808,19.7569 0.3468,19.7569 C0.9508,19.7569 1.2728,20.0129 1.5318,20.2189 C1.7648,20.4039 1.9488,20.5499 2.3438,20.5499 C2.7378,20.5499 2.9228,20.4039 3.1548,20.2189 C3.4138,20.0129 3.7358,19.7569 4.3398,19.7569 C4.9438,19.7569 5.2658,20.0129 5.5248,20.2189 C5.7578,20.4039 5.9418,20.5499 6.3368,20.5499 C6.7308,20.5499 6.9148,20.4039 7.1478,20.2189 C7.4068,20.0129 7.7288,19.7569 8.3328,19.7569 C8.9368,19.7569 9.2588,20.0129 9.5178,20.2189 C9.7508,20.4039 9.9348,20.5499 10.3288,20.5499 C10.7238,20.5499 10.9078,20.4039 11.1408,20.2189 C11.3998,20.0129 11.7218,19.7569 12.3258,19.7569 C12.9298,19.7569 13.2528,20.0129 13.5108,20.2189 C13.7448,20.4039 13.9288,20.5499 14.3238,20.5499 C14.7178,20.5499 14.9028,20.4039 15.1358,20.2189 C15.3948,20.0129 15.7158,19.7569 16.3208,19.7569 C16.9248,19.7569 17.2478,20.0129 17.5068,20.2189 C17.7398,20.4039 17.9238,20.5499 18.3188,20.5499 C18.7148,20.5499 18.8978,20.4039 19.1318,20.2189 C19.3908,20.0129 19.7138,19.7569 20.3178,19.7569 C20.4828,19.7569 20.6178,19.8919 20.6178,20.0579 C20.6178,20.2229 20.4828,20.3579 20.3178,20.3579 C19.9228,20.3579 19.7378,20.5039 19.5048,20.6889 C19.2458,20.8939 18.9228,21.1499 18.3188,21.1499" id="Fill-7"></path>
            <path d="M18.3188,23.4717 C17.7148,23.4717 17.3918,23.2157 17.1328,23.0107 C16.8998,22.8257 16.7158,22.6797 16.3208,22.6797 C15.9258,22.6797 15.7418,22.8257 15.5088,23.0107 C15.2498,23.2157 14.9268,23.4717 14.3238,23.4717 C13.7198,23.4717 13.3978,23.2157 13.1378,23.0107 C12.9058,22.8257 12.7208,22.6797 12.3258,22.6797 C11.9308,22.6797 11.7478,22.8257 11.5138,23.0107 C11.2558,23.2157 10.9328,23.4717 10.3288,23.4717 C9.7258,23.4717 9.4028,23.2157 9.1448,23.0107 C8.9118,22.8257 8.7278,22.6797 8.3328,22.6797 C7.9388,22.6797 7.7548,22.8257 7.5208,23.0107 C7.2618,23.2157 6.9408,23.4717 6.3368,23.4717 C5.7328,23.4717 5.4108,23.2157 5.1518,23.0107 C4.9188,22.8257 4.7348,22.6797 4.3398,22.6797 C3.9458,22.6797 3.7608,22.8257 3.5278,23.0107 C3.2698,23.2157 2.9468,23.4717 2.3438,23.4717 C1.7398,23.4717 1.4178,23.2157 1.1588,23.0107 C0.9248,22.8257 0.7408,22.6797 0.3468,22.6797 C0.1808,22.6797 0.0468,22.5447 0.0468,22.3787 C0.0468,22.2137 0.1808,22.0787 0.3468,22.0787 C0.9508,22.0787 1.2728,22.3347 1.5318,22.5407 C1.7648,22.7247 1.9488,22.8717 2.3438,22.8717 C2.7378,22.8717 2.9228,22.7257 3.1548,22.5407 C3.4138,22.3347 3.7358,22.0787 4.3398,22.0787 C4.9438,22.0787 5.2658,22.3347 5.5248,22.5407 C5.7578,22.7257 5.9418,22.8717 6.3368,22.8717 C6.7308,22.8717 6.9148,22.7257 7.1478,22.5407 C7.4068,22.3347 7.7288,22.0787 8.3328,22.0787 C8.9368,22.0787 9.2588,22.3347 9.5178,22.5407 C9.7508,22.7257 9.9348,22.8717 10.3288,22.8717 C10.7238,22.8717 10.9078,22.7257 11.1408,22.5407 C11.3998,22.3347 11.7218,22.0787 12.3258,22.0787 C12.9298,22.0787 13.2528,22.3347 13.5108,22.5407 C13.7448,22.7247 13.9288,22.8717 14.3238,22.8717 C14.7178,22.8717 14.9028,22.7257 15.1358,22.5407 C15.3948,22.3347 15.7158,22.0787 16.3208,22.0787 C16.9248,22.0787 17.2478,22.3347 17.5068,22.5407 C17.7398,22.7247 17.9238,22.8717 18.3188,22.8717 C18.7148,22.8717 18.8978,22.7247 19.1318,22.5407 C19.3908,22.3347 19.7138,22.0787 20.3178,22.0787 C20.4828,22.0787 20.6178,22.2137 20.6178,22.3787 C20.6178,22.5447 20.4828,22.6797 20.3178,22.6797 C19.9228,22.6797 19.7378,22.8257 19.5048,23.0107 C19.2458,23.2157 18.9228,23.4717 18.3188,23.4717" id="Fill-9"></path>
            <path d="M9.0083,8.1626 C8.7053,9.0006 8.3923,9.9636 8.3923,10.2576 C8.3923,10.2756 8.4393,12.0216 10.1103,12.0276 L10.1223,12.0276 C10.7003,12.0276 11.1443,11.8776 11.4413,11.5816 C11.8483,11.1766 11.9083,10.5786 11.9083,10.2576 C11.9083,9.9636 11.5953,9.0006 11.2923,8.1626 C11.2103,8.3886 11.1203,8.6446 11.0343,8.9026 C10.9933,9.0246 10.8783,9.1066 10.7493,9.1066 L10.7473,9.1066 C10.6173,9.1056 10.5033,9.0216 10.4643,8.8986 C10.3283,8.4756 10.1713,8.0276 10.0383,7.6656 C9.9403,7.9346 9.8283,8.2506 9.7213,8.5686 C9.6803,8.6896 9.5673,8.7716 9.4393,8.7726 L9.4373,8.7726 C9.3093,8.7726 9.1953,8.6916 9.1543,8.5716 C9.1043,8.4296 9.0553,8.2906 9.0083,8.1626 M10.1223,12.6276 L10.1073,12.6276 C8.2083,12.6206 7.7923,10.9146 7.7923,10.2576 C7.7923,9.6276 8.6333,7.4436 8.7293,7.1966 C8.7743,7.0806 8.8853,7.0056 9.0083,7.0056 C9.1333,7.0056 9.2433,7.0806 9.2883,7.1966 C9.2893,7.1996 9.3473,7.3476 9.4323,7.5766 C9.6123,7.0796 9.7573,6.7066 9.7593,6.7006 C9.8043,6.5856 9.9153,6.5096 10.0383,6.5096 C10.1623,6.5096 10.2733,6.5856 10.3183,6.7006 C10.3213,6.7086 10.5283,7.2406 10.7553,7.8856 C10.8993,7.4886 11.0113,7.2016 11.0123,7.1966 C11.0573,7.0806 11.1683,7.0056 11.2923,7.0056 C11.4153,7.0056 11.5273,7.0806 11.5713,7.1966 C11.6673,7.4436 12.5093,9.6276 12.5093,10.2576 C12.5093,10.6716 12.4253,11.4486 11.8643,12.0066 C11.4503,12.4186 10.8643,12.6276 10.1223,12.6276" id="Fill-11"></path>
            <g id="Group-15" transform="translate(5.000000, 0.471700)">
                <path d="M2.9453,12.6108 L7.4763,12.6108 C9.2723,11.7038 9.5423,9.7688 9.5423,8.6888 C9.5423,7.7718 8.4273,4.6038 7.7533,2.8018 C7.5083,3.4578 7.1393,4.4658 6.8003,5.4758 C6.7593,5.5988 6.6453,5.6808 6.5163,5.6808 L6.5143,5.6808 C6.3843,5.6798 6.2703,5.5958 6.2303,5.4728 C5.7813,4.0698 5.2243,2.5488 4.8953,1.6728 C4.6253,2.3928 4.2003,3.5498 3.8093,4.7148 C3.7683,4.8368 3.6543,4.9188 3.5263,4.9198 L3.5253,4.9198 C3.3973,4.9198 3.2833,4.8388 3.2413,4.7178 C2.9843,3.9808 2.7313,3.2928 2.5483,2.8018 C1.8733,4.6038 0.7583,7.7718 0.7583,8.6888 C0.7583,9.4558 1.1533,11.6378 2.9453,12.6108 M7.5463,13.2108 L2.8703,13.2108 C2.8223,13.2108 2.7753,13.1988 2.7333,13.1768 C0.6963,12.1228 0.1583,9.7798 0.1583,8.6888 C0.1583,7.2988 2.1823,2.0708 2.2683,1.8498 C2.3133,1.7338 2.4243,1.6578 2.5483,1.6578 C2.6723,1.6578 2.7833,1.7338 2.8283,1.8498 C2.8323,1.8598 3.1413,2.6588 3.5193,3.7078 C4.0743,2.1158 4.6093,0.7358 4.6153,0.7198 C4.6603,0.6048 4.7713,0.5278 4.8953,0.5278 C5.0193,0.5278 5.1303,0.6048 5.1753,0.7198 C5.1833,0.7408 5.8883,2.5598 6.5223,4.4388 C7.0073,3.0508 7.4673,1.8638 7.4733,1.8498 C7.5183,1.7338 7.6283,1.6578 7.7523,1.6578 C7.8763,1.6578 7.9873,1.7338 8.0323,1.8498 C8.1183,2.0708 10.1423,7.2988 10.1423,8.6888 C10.1423,9.6808 9.9023,12.1068 7.6763,13.1808 C7.6363,13.2008 7.5913,13.2108 7.5463,13.2108" id="Fill-13"></path>
            </g>
        </g>
    </g>
</svg>