<?xml version="1.0" encoding="UTF-8"?>
<svg width="32px" height="32px" viewBox="0 0 32 32" version="1.1" xmlns="http://www.w3.org/2000/svg" xmlns:xlink="http://www.w3.org/1999/xlink">
    <title>Icn / Amenity / Kitchen / Microwave</title>
    <g id="Icn-/-Amenity-/-Kitchen-/-Microwave" stroke="none" stroke-width="1" fill="none" fill-rule="evenodd">
        <g id="Group" transform="translate(4.000000, 8.000000)" fill="#13284C">
            <path d="M23.2852,12.719 C23.2852,13.345 22.7382,13.854 22.0662,13.854 L1.6192,13.854 C0.9462,13.854 0.3992,13.345 0.3992,12.719 L0.3992,1.535 C0.3992,0.909 0.9462,0.4 1.6192,0.4 L22.0662,0.4 C22.7382,0.4 23.2852,0.909 23.2852,1.535 L23.2852,12.719 Z M22.0662,-4.70734562e-14 L1.6192,-4.70734562e-14 C0.7262,-4.70734562e-14 0.0002,0.689 0.0002,1.535 L0.0002,12.719 C0.0002,13.566 0.7262,14.254 1.6192,14.254 L22.0662,14.254 C22.9592,14.254 23.6852,13.566 23.6852,12.719 L23.6852,1.535 C23.6852,0.689 22.9592,-4.70734562e-14 22.0662,-4.70734562e-14 L22.0662,-4.70734562e-14 Z" id="Fill-1"></path>
            <path d="M15.9258,12.0671 C15.9258,12.3551 15.7438,12.5981 15.5278,12.5981 L1.9638,12.5981 C1.7468,12.5981 1.5648,12.3551 1.5648,12.0671 L1.5648,2.1481 C1.5648,1.8601 1.7468,1.6161 1.9638,1.6161 L15.5278,1.6161 C15.7438,1.6161 15.9258,1.8601 15.9258,2.1481 L15.9258,12.0671 Z M15.5278,1.2161 L1.9638,1.2161 C1.5238,1.2161 1.1638,1.6341 1.1638,2.1481 L1.1638,12.0671 C1.1638,12.5801 1.5238,12.9981 1.9638,12.9981 L15.5278,12.9981 C15.9668,12.9981 16.3258,12.5801 16.3258,12.0671 L16.3258,2.1481 C16.3258,1.6341 15.9668,1.2161 15.5278,1.2161 L15.5278,1.2161 Z" id="Fill-4"></path>
            <path d="M17.3672,1.7532 C17.3672,1.6182 17.4762,1.5082 17.6112,1.5082 L21.7442,1.5082 C21.8812,1.5082 21.9902,1.6182 21.9902,1.7532 L21.9902,4.0292 C21.9902,4.1642 21.8812,4.2742 21.7442,4.2742 L17.6112,4.2742 C17.4762,4.2742 17.3672,4.1642 17.3672,4.0292 L17.3672,1.7532 Z M17.6112,4.6742 L21.7442,4.6742 C22.1012,4.6742 22.3902,4.3852 22.3902,4.0292 L22.3902,1.7532 C22.3902,1.3982 22.1012,1.1082 21.7442,1.1082 L17.6112,1.1082 C17.2562,1.1082 16.9672,1.3982 16.9672,1.7532 L16.9672,4.0292 C16.9672,4.3852 17.2562,4.6742 17.6112,4.6742 L17.6112,4.6742 Z" id="Fill-6"></path>
            <path d="M17.2383,5.447 C17.2383,5.435 17.2613,5.413 17.2993,5.413 L17.9533,5.413 C17.9923,5.413 18.0133,5.435 18.0133,5.447 L18.0133,6.021 C18.0133,6.032 17.9923,6.055 17.9533,6.055 L17.2993,6.055 C17.2613,6.055 17.2383,6.032 17.2383,6.021 L17.2383,5.447 Z M17.2993,6.355 L17.9533,6.355 C18.1523,6.355 18.3143,6.205 18.3143,6.021 L18.3143,5.447 C18.3143,5.263 18.1523,5.113 17.9533,5.113 L17.2993,5.113 C17.0993,5.113 16.9373,5.263 16.9373,5.447 L16.9373,6.021 C16.9373,6.205 17.0993,6.355 17.2993,6.355 L17.2993,6.355 Z" id="Fill-8"></path>
            <path d="M19.4746,6.0208 C19.4746,6.0328 19.4516,6.0548 19.4136,6.0548 L18.7576,6.0548 C18.7206,6.0548 18.6976,6.0328 18.6976,6.0208 L18.6976,5.4468 C18.6976,5.4348 18.7206,5.4128 18.7576,5.4128 L19.4136,5.4128 C19.4516,5.4128 19.4746,5.4348 19.4746,5.4468 L19.4746,6.0208 Z M19.7736,5.4468 C19.7736,5.2628 19.6136,5.1128 19.4136,5.1128 L18.7576,5.1128 C18.5586,5.1128 18.3986,5.2628 18.3986,5.4468 L18.3986,6.0208 C18.3986,6.2048 18.5586,6.3548 18.7576,6.3548 L19.4136,6.3548 C19.6136,6.3548 19.7736,6.2048 19.7736,6.0208 L19.7736,5.4468 Z" id="Fill-10"></path>
            <path d="M20.9336,6.0208 C20.9336,6.0328 20.9106,6.0548 20.8726,6.0548 L20.2166,6.0548 C20.1796,6.0548 20.1586,6.0328 20.1586,6.0208 L20.1586,5.4468 C20.1586,5.4348 20.1796,5.4128 20.2166,5.4128 L20.8726,5.4128 C20.9106,5.4128 20.9336,5.4348 20.9336,5.4468 L20.9336,6.0208 Z M21.2346,5.4468 C21.2346,5.2628 21.0726,5.1128 20.8726,5.1128 L20.2166,5.1128 C20.0196,5.1128 19.8576,5.2628 19.8576,5.4468 L19.8576,6.0208 C19.8576,6.2048 20.0196,6.3548 20.2166,6.3548 L20.8726,6.3548 C21.0726,6.3548 21.2346,6.2048 21.2346,6.0208 L21.2346,5.4468 Z" id="Fill-12"></path>
            <path d="M22.3926,6.0208 C22.3926,6.0328 22.3716,6.0548 22.3316,6.0548 L21.6776,6.0548 C21.6406,6.0548 21.6176,6.0328 21.6176,6.0208 L21.6176,5.4468 C21.6176,5.4348 21.6406,5.4128 21.6776,5.4128 L22.3316,5.4128 C22.3716,5.4128 22.3926,5.4348 22.3926,5.4468 L22.3926,6.0208 Z M22.3316,5.1128 L21.6776,5.1128 C21.4786,5.1128 21.3166,5.2628 21.3166,5.4468 L21.3166,6.0208 C21.3166,6.2048 21.4786,6.3548 21.6776,6.3548 L22.3316,6.3548 C22.5316,6.3548 22.6936,6.2048 22.6936,6.0208 L22.6936,5.4468 C22.6936,5.2628 22.5316,5.1128 22.3316,5.1128 L22.3316,5.1128 Z" id="Fill-14"></path>
            <path d="M17.2383,6.8206 C17.2383,6.8086 17.2613,6.7866 17.2993,6.7866 L17.9533,6.7866 C17.9923,6.7866 18.0133,6.8086 18.0133,6.8206 L18.0133,7.3946 C18.0133,7.4066 17.9923,7.4286 17.9533,7.4286 L17.2993,7.4286 C17.2613,7.4286 17.2383,7.4066 17.2383,7.3946 L17.2383,6.8206 Z M17.2993,7.7286 L17.9533,7.7286 C18.1523,7.7286 18.3143,7.5786 18.3143,7.3946 L18.3143,6.8206 C18.3143,6.6366 18.1523,6.4866 17.9533,6.4866 L17.2993,6.4866 C17.0993,6.4866 16.9373,6.6366 16.9373,6.8206 L16.9373,7.3946 C16.9373,7.5786 17.0993,7.7286 17.2993,7.7286 L17.2993,7.7286 Z" id="Fill-16"></path>
            <path d="M19.4746,7.3943 C19.4746,7.4063 19.4516,7.4283 19.4136,7.4283 L18.7576,7.4283 C18.7206,7.4283 18.6976,7.4063 18.6976,7.3943 L18.6976,6.8203 C18.6976,6.8073 18.7226,6.7863 18.7576,6.7863 L19.4136,6.7863 C19.4496,6.7863 19.4746,6.8073 19.4746,6.8203 L19.4746,7.3943 Z M19.7736,6.8203 C19.7736,6.6363 19.6136,6.4863 19.4136,6.4863 L18.7576,6.4863 C18.5586,6.4863 18.3986,6.6363 18.3986,6.8203 L18.3986,7.3943 C18.3986,7.5783 18.5586,7.7283 18.7576,7.7283 L19.4136,7.7283 C19.6136,7.7283 19.7736,7.5783 19.7736,7.3943 L19.7736,6.8203 Z" id="Fill-18"></path>
            <path d="M20.9336,7.3943 C20.9336,7.4063 20.9106,7.4283 20.8726,7.4283 L20.2166,7.4283 C20.1796,7.4283 20.1586,7.4063 20.1586,7.3943 L20.1586,6.8203 C20.1586,6.8093 20.1796,6.7863 20.2166,6.7863 L20.8726,6.7863 C20.9106,6.7863 20.9336,6.8073 20.9336,6.8203 L20.9336,7.3943 Z M21.2346,6.8203 C21.2346,6.6363 21.0726,6.4863 20.8726,6.4863 L20.2166,6.4863 C20.0196,6.4863 19.8576,6.6363 19.8576,6.8203 L19.8576,7.3943 C19.8576,7.5783 20.0196,7.7283 20.2166,7.7283 L20.8726,7.7283 C21.0726,7.7283 21.2346,7.5783 21.2346,7.3943 L21.2346,6.8203 Z" id="Fill-20"></path>
            <path d="M22.3926,7.3943 C22.3926,7.4063 22.3716,7.4283 22.3316,7.4283 L21.6776,7.4283 C21.6406,7.4283 21.6176,7.4063 21.6176,7.3943 L21.6176,6.8203 C21.6176,6.8093 21.6406,6.7863 21.6776,6.7863 L22.3316,6.7863 C22.3716,6.7863 22.3926,6.8093 22.3926,6.8203 L22.3926,7.3943 Z M22.3316,6.4863 L21.6776,6.4863 C21.4786,6.4863 21.3166,6.6363 21.3166,6.8203 L21.3166,7.3943 C21.3166,7.5783 21.4786,7.7283 21.6776,7.7283 L22.3316,7.7283 C22.5316,7.7283 22.6936,7.5783 22.6936,7.3943 L22.6936,6.8203 C22.6936,6.6363 22.5316,6.4863 22.3316,6.4863 L22.3316,6.4863 Z" id="Fill-22"></path>
            <path d="M17.2383,8.781 L17.2383,8.207 C17.2383,8.195 17.2613,8.173 17.2993,8.173 L17.9533,8.173 C17.9923,8.173 18.0133,8.195 18.0133,8.207 L18.0133,8.781 C18.0133,8.793 17.9923,8.815 17.9533,8.815 L17.2993,8.815 C17.2613,8.815 17.2383,8.793 17.2383,8.781 M18.3143,8.781 L18.3143,8.207 C18.3143,8.023 18.1523,7.873 17.9533,7.873 L17.2993,7.873 C17.0993,7.873 16.9373,8.023 16.9373,8.207 L16.9373,8.781 C16.9373,8.965 17.0993,9.115 17.2993,9.115 L17.9533,9.115 C18.1523,9.115 18.3143,8.965 18.3143,8.781" id="Fill-24"></path>
            <path d="M19.4746,8.781 C19.4746,8.793 19.4516,8.815 19.4136,8.815 L18.7576,8.815 C18.7206,8.815 18.6976,8.793 18.6976,8.781 L18.6976,8.207 C18.6976,8.194 18.7226,8.173 18.7576,8.173 L19.4136,8.173 C19.4496,8.173 19.4746,8.194 19.4746,8.207 L19.4746,8.781 Z M19.4136,7.873 L18.7576,7.873 C18.5586,7.873 18.3986,8.023 18.3986,8.207 L18.3986,8.781 C18.3986,8.965 18.5586,9.115 18.7576,9.115 L19.4136,9.115 C19.6136,9.115 19.7736,8.965 19.7736,8.781 L19.7736,8.207 C19.7736,8.023 19.6136,7.873 19.4136,7.873 L19.4136,7.873 Z" id="Fill-26"></path>
            <path d="M20.9336,8.781 C20.9336,8.793 20.9106,8.815 20.8726,8.815 L20.2166,8.815 C20.1796,8.815 20.1586,8.793 20.1586,8.781 L20.1586,8.207 C20.1586,8.195 20.1796,8.173 20.2166,8.173 L20.8726,8.173 C20.9106,8.173 20.9336,8.194 20.9336,8.207 L20.9336,8.781 Z M20.8726,7.873 L20.2166,7.873 C20.0196,7.873 19.8576,8.023 19.8576,8.207 L19.8576,8.781 C19.8576,8.965 20.0196,9.115 20.2166,9.115 L20.8726,9.115 C21.0726,9.115 21.2346,8.965 21.2346,8.781 L21.2346,8.207 C21.2346,8.023 21.0726,7.873 20.8726,7.873 L20.8726,7.873 Z" id="Fill-28"></path>
            <path d="M22.3926,8.781 C22.3926,8.793 22.3716,8.815 22.3316,8.815 L21.6776,8.815 C21.6406,8.815 21.6176,8.793 21.6176,8.781 L21.6176,8.207 C21.6176,8.195 21.6406,8.173 21.6776,8.173 L22.3316,8.173 C22.3716,8.173 22.3926,8.195 22.3926,8.207 L22.3926,8.781 Z M22.3316,7.873 L21.6776,7.873 C21.4786,7.873 21.3166,8.023 21.3166,8.207 L21.3166,8.781 C21.3166,8.965 21.4786,9.115 21.6776,9.115 L22.3316,9.115 C22.5316,9.115 22.6936,8.965 22.6936,8.781 L22.6936,8.207 C22.6936,8.023 22.5316,7.873 22.3316,7.873 L22.3316,7.873 Z" id="Fill-30"></path>
            <path d="M19.6231,12.9871 C18.8611,12.9871 18.2401,12.3661 18.2401,11.6041 C18.2401,11.0411 18.5721,10.5501 19.0721,10.3351 L19.0721,11.3091 C19.0721,11.5511 19.2621,11.7491 19.4961,11.7491 L19.7521,11.7491 C19.9861,11.7491 20.1761,11.5511 20.1761,11.3091 L20.1761,10.3351 C20.6761,10.5501 21.0081,11.0411 21.0081,11.6041 C21.0081,12.3661 20.3871,12.9871 19.6231,12.9871 M19.4961,9.8421 L19.7521,9.8421 C19.7601,9.8421 19.7751,9.8581 19.7751,9.8831 L19.7751,11.3091 C19.7751,11.3331 19.7601,11.3491 19.7521,11.3491 L19.4961,11.3491 C19.4881,11.3491 19.4731,11.3341 19.4731,11.3091 L19.4731,9.8831 C19.4731,9.8581 19.4881,9.8421 19.4961,9.8421 M20.1761,9.9091 L20.1761,9.8831 C20.1761,9.6401 19.9861,9.4431 19.7521,9.4431 L19.4961,9.4431 C19.2621,9.4431 19.0721,9.6401 19.0721,9.8831 L19.0721,9.9091 C18.3401,10.1451 17.8401,10.8201 17.8401,11.6041 C17.8401,12.5871 18.6411,13.3871 19.6231,13.3871 C20.6071,13.3871 21.4061,12.5871 21.4061,11.6041 C21.4061,10.8201 20.9081,10.1451 20.1761,9.9091" id="Fill-32"></path>
            <path d="M2.62,11.6562 L13.354,11.6562 L13.354,2.5582 L2.62,2.5582 L2.62,11.6562 Z M2.43,2.1582 L2.22,2.1692 L2.22,11.8452 L2.23,12.0562 L13.543,12.0562 L13.754,12.0452 L13.754,2.3702 L13.742,2.1582 L2.43,2.1582 Z" id="Fill-34"></path>
            <path d="M15.0801,10.1633 C15.0801,10.2913 14.9611,10.3953 14.8141,10.3953 C14.6681,10.3953 14.5491,10.2913 14.5491,10.1633 L14.5491,4.3943 C14.5491,4.2673 14.6681,4.1623 14.8141,4.1623 C14.9611,4.1623 15.0801,4.2673 15.0801,4.3943 L15.0801,10.1633 Z M14.8141,3.7623 C14.4471,3.7623 14.1501,4.0463 14.1501,4.3943 L14.1501,10.1633 C14.1501,10.5123 14.4471,10.7953 14.8141,10.7953 C15.1821,10.7953 15.4801,10.5123 15.4801,10.1633 L15.4801,4.3943 C15.4801,4.0463 15.1821,3.7623 14.8141,3.7623 L14.8141,3.7623 Z" id="Fill-36"></path>
        </g>
    </g>
</svg>