<?xml version="1.0" encoding="UTF-8"?>
<svg width="32px" height="32px" viewBox="0 0 32 32" version="1.1" xmlns="http://www.w3.org/2000/svg" xmlns:xlink="http://www.w3.org/1999/xlink">
    <title>Icn / Amenity / Kitchen / Oven</title>
    <g id="Icn-/-Amenity-/-Kitchen-/-Oven" stroke="none" stroke-width="1" fill="none" fill-rule="evenodd">
        <g id="Group" transform="translate(6.000000, 6.000000)" fill="#13284C">
            <path d="M1.42108547e-14,20.383 L20.393,20.383 L20.393,1.95399252e-14 L1.42108547e-14,1.95399252e-14 L1.42108547e-14,20.383 Z M0.6,19.783 L19.793,19.783 L19.793,0.6 L0.6,0.6 L0.6,19.783 Z" id="Fill-1"></path>
            <path d="M0.6,4.77 L19.793,4.77 L19.793,0.7 L0.6,0.7 L0.6,4.77 Z M20.093,5.37 L0.3,5.37 C0.134,5.37 1.42108547e-14,5.236 1.42108547e-14,5.07 L1.42108547e-14,0.4 C1.42108547e-14,0.234 0.134,0.1 0.3,0.1 L20.093,0.1 C20.259,0.1 20.393,0.234 20.393,0.4 L20.393,5.07 C20.393,5.236 20.259,5.37 20.093,5.37 L20.093,5.37 Z" id="Fill-2"></path>
            <path d="M2.8438,2.0344 C2.4578,2.0344 2.1438,2.3484 2.1438,2.7354 C2.1438,3.1214 2.4578,3.4354 2.8438,3.4354 C3.2298,3.4354 3.5448,3.1214 3.5448,2.7354 C3.5448,2.3484 3.2298,2.0344 2.8438,2.0344 M2.8438,4.0354 C2.1268,4.0354 1.5438,3.4524 1.5438,2.7354 C1.5438,2.0174 2.1268,1.4344 2.8438,1.4344 C3.5608,1.4344 4.1448,2.0174 4.1448,2.7354 C4.1448,3.4524 3.5608,4.0354 2.8438,4.0354" id="Fill-4"></path>
            <path d="M6.1021,2.0344 C5.7161,2.0344 5.4021,2.3484 5.4021,2.7354 C5.4021,3.1214 5.7161,3.4354 6.1021,3.4354 C6.4881,3.4354 6.8031,3.1214 6.8031,2.7354 C6.8031,2.3484 6.4881,2.0344 6.1021,2.0344 M6.1021,4.0354 C5.3851,4.0354 4.8021,3.4524 4.8021,2.7354 C4.8021,2.0174 5.3851,1.4344 6.1021,1.4344 C6.8191,1.4344 7.4031,2.0174 7.4031,2.7354 C7.4031,3.4524 6.8191,4.0354 6.1021,4.0354" id="Fill-5"></path>
            <path d="M9.3604,2.0344 C8.9744,2.0344 8.6594,2.3484 8.6594,2.7354 C8.6594,3.1214 8.9744,3.4354 9.3604,3.4354 C9.7464,3.4354 10.0614,3.1214 10.0614,2.7354 C10.0614,2.3484 9.7464,2.0344 9.3604,2.0344 M9.3604,4.0354 C8.6434,4.0354 8.0604,3.4524 8.0604,2.7354 C8.0604,2.0174 8.6434,1.4344 9.3604,1.4344 C10.0774,1.4344 10.6604,2.0174 10.6604,2.7354 C10.6604,3.4524 10.0774,4.0354 9.3604,4.0354" id="Fill-6"></path>
            <path d="M12.6187,2.0344 C12.2327,2.0344 11.9177,2.3484 11.9177,2.7354 C11.9177,3.1214 12.2327,3.4354 12.6187,3.4354 C13.0047,3.4354 13.3187,3.1214 13.3187,2.7354 C13.3187,2.3484 13.0047,2.0344 12.6187,2.0344 M12.6187,4.0354 C11.9017,4.0354 11.3177,3.4524 11.3177,2.7354 C11.3177,2.0174 11.9017,1.4344 12.6187,1.4344 C13.3357,1.4344 13.9187,2.0174 13.9187,2.7354 C13.9187,3.4524 13.3357,4.0354 12.6187,4.0354" id="Fill-7"></path>
            <path d="M17.5908,2.0344 C17.2048,2.0344 16.8898,2.3484 16.8898,2.7354 C16.8898,3.1214 17.2048,3.4354 17.5908,3.4354 C17.9768,3.4354 18.2918,3.1214 18.2918,2.7354 C18.2918,2.3484 17.9768,2.0344 17.5908,2.0344 M17.5908,4.0354 C16.8738,4.0354 16.2908,3.4524 16.2908,2.7354 C16.2908,2.0174 16.8738,1.4344 17.5908,1.4344 C18.3078,1.4344 18.8908,2.0174 18.8908,2.7354 C18.8908,3.4524 18.3078,4.0354 17.5908,4.0354" id="Fill-8"></path>
            <path d="M14.9912,5.3703 C14.8252,5.3703 14.6912,5.2363 14.6912,5.0703 L14.6912,0.3993 C14.6912,0.2343 14.8252,0.0993 14.9912,0.0993 C15.1572,0.0993 15.2912,0.2343 15.2912,0.3993 L15.2912,5.0703 C15.2912,5.2363 15.1572,5.3703 14.9912,5.3703" id="Fill-9"></path>
            <path d="M2.727,17.591 L17.29,17.591 L17.29,8.094 L2.727,8.094 L2.727,17.591 Z M2.128,18.191 L17.891,18.191 L17.891,7.494 L2.128,7.494 L2.128,18.191 Z" id="Fill-10"></path>
            <path d="M15.9336,10.0583 L4.0846,10.0583 C3.9186,10.0583 3.7846,9.9243 3.7846,9.7583 C3.7846,9.5923 3.9186,9.4583 4.0846,9.4583 L15.9336,9.4583 C16.0996,9.4583 16.2336,9.5923 16.2336,9.7583 C16.2336,9.9243 16.0996,10.0583 15.9336,10.0583" id="Fill-11"></path>
        </g>
    </g>
</svg>