<?xml version="1.0" encoding="UTF-8"?>
<svg width="32px" height="32px" viewBox="0 0 32 32" version="1.1" xmlns="http://www.w3.org/2000/svg" xmlns:xlink="http://www.w3.org/1999/xlink">
    <title>Icn / Amenity / Kitchen / Sink</title>
    <g id="Icn-/-Amenity-/-Kitchen-/-Sink" stroke="none" stroke-width="1" fill="none" fill-rule="evenodd">
        <g id="Group" transform="translate(6.000000, 5.000000)" fill="#13284C">
            <path d="M0.6002,18.3079 L20.1412,18.3079 L20.1412,4.8339 L0.6002,4.8339 L0.6002,18.3079 Z M20.4422,18.9079 L0.3002,18.9079 C0.1342,18.9079 0.0002,18.7739 0.0002,18.6079 L0.0002,4.5339 C0.0002,4.3679 0.1342,4.2339 0.3002,4.2339 L20.4422,4.2339 C20.6072,4.2339 20.7422,4.3679 20.7422,4.5339 L20.7422,18.6079 C20.7422,18.7739 20.6072,18.9079 20.4422,18.9079 L20.4422,18.9079 Z" id="Fill-1"></path>
            <path d="M17.1352,20.0109 L20.1412,20.0109 L20.1412,18.9079 L17.1352,18.9079 L17.1352,20.0109 Z M20.4422,20.6109 L16.8342,20.6109 C16.6692,20.6109 16.5352,20.4769 16.5352,20.3109 L16.5352,18.6079 C16.5352,18.4429 16.6692,18.3079 16.8342,18.3079 L20.4422,18.3079 C20.6072,18.3079 20.7422,18.4429 20.7422,18.6079 L20.7422,20.3109 C20.7422,20.4769 20.6072,20.6109 20.4422,20.6109 L20.4422,20.6109 Z" id="Fill-3"></path>
            <path d="M0.6002,20.0109 L3.6062,20.0109 L3.6062,18.9079 L0.6002,18.9079 L0.6002,20.0109 Z M3.9062,20.6109 L0.3002,20.6109 C0.1342,20.6109 0.0002,20.4769 0.0002,20.3109 L0.0002,18.6079 C0.0002,18.4429 0.1342,18.3079 0.3002,18.3079 L3.9062,18.3079 C4.0722,18.3079 4.2072,18.4429 4.2072,18.6079 L4.2072,20.3109 C4.2072,20.4769 4.0722,20.6109 3.9062,20.6109 L3.9062,20.6109 Z" id="Fill-4"></path>
            <path d="M0.613,4.7662 C0.765,6.5242 2.245,7.9082 4.042,7.9082 L16.7,7.9082 C18.497,7.9082 19.976,6.5242 20.129,4.7662 L0.613,4.7662 Z M16.7,8.5082 L4.042,8.5082 C1.813,8.5082 -1.95399252e-14,6.6952 -1.95399252e-14,4.4662 C-1.95399252e-14,4.3012 0.134,4.1662 0.301,4.1662 L20.442,4.1662 C20.607,4.1662 20.742,4.3012 20.742,4.4662 C20.742,6.6952 18.928,8.5082 16.7,8.5082 L16.7,8.5082 Z" id="Fill-5"></path>
            <path d="M10.3708,18.9083 C10.2048,18.9083 10.0708,18.7733 10.0708,18.6083 L10.0708,8.2083 C10.0708,8.0423 10.2048,7.9083 10.3708,7.9083 C10.5368,7.9083 10.6708,8.0423 10.6708,8.2083 L10.6708,18.6083 C10.6708,18.7733 10.5368,18.9083 10.3708,18.9083" id="Fill-6"></path>
            <path d="M10.7634,4.481 C10.5974,4.481 10.4634,4.347 10.4634,4.181 L10.4634,1.131 C10.4634,0.507 10.9714,-3.55271368e-15 11.5944,-3.55271368e-15 C12.2194,-3.55271368e-15 12.7264,0.507 12.7264,1.131 L12.7264,1.278 C12.7264,1.443 12.5924,1.578 12.4264,1.578 C12.2604,1.578 12.1264,1.443 12.1264,1.278 L12.1264,1.131 C12.1264,0.838 11.8884,0.6 11.5944,0.6 C11.3014,0.6 11.0634,0.838 11.0634,1.131 L11.0634,4.181 C11.0634,4.347 10.9294,4.481 10.7634,4.481" id="Fill-7"></path>
            <path d="M7.5682,4.2339 L8.7682,4.2339 L8.7682,3.1989 L7.5682,3.1989 L7.5682,4.2339 Z M9.0682,4.8339 L7.2682,4.8339 C7.1032,4.8339 6.9682,4.6989 6.9682,4.5339 L6.9682,2.8999 C6.9682,2.7339 7.1032,2.5999 7.2682,2.5999 L9.0682,2.5999 C9.2342,2.5999 9.3682,2.7339 9.3682,2.8999 L9.3682,4.5339 C9.3682,4.6989 9.2342,4.8339 9.0682,4.8339 L9.0682,4.8339 Z" id="Fill-8"></path>
            <path d="M12.5842,4.2339 L13.7842,4.2339 L13.7842,3.1989 L12.5842,3.1989 L12.5842,4.2339 Z M14.0842,4.8339 L12.2852,4.8339 C12.1202,4.8339 11.9852,4.6989 11.9852,4.5339 L11.9852,2.8999 C11.9852,2.7339 12.1202,2.5999 12.2852,2.5999 L14.0842,2.5999 C14.2502,2.5999 14.3852,2.7339 14.3852,2.8999 L14.3852,4.5339 C14.3852,4.6989 14.2502,4.8339 14.0842,4.8339 L14.0842,4.8339 Z" id="Fill-9"></path>
            <path d="M8.2692,12.5548 C7.9382,12.5548 7.6692,12.8238 7.6692,13.1548 L7.6692,13.6608 C7.6692,13.9918 7.9382,14.2618 8.2692,14.2618 L8.4692,14.2618 L8.4692,12.5548 L8.2692,12.5548 Z M8.7692,14.8618 L8.2692,14.8618 C7.6082,14.8618 7.0692,14.3238 7.0692,13.6608 L7.0692,13.1548 C7.0692,12.4928 7.6082,11.9548 8.2692,11.9548 L8.7692,11.9548 C8.9352,11.9548 9.0692,12.0888 9.0692,12.2548 L9.0692,14.5618 C9.0692,14.7268 8.9352,14.8618 8.7692,14.8618 L8.7692,14.8618 Z" id="Fill-10"></path>
            <path d="M12.2722,14.2613 L12.4722,14.2613 C12.8032,14.2613 13.0722,13.9923 13.0722,13.6613 L13.0722,13.1543 C13.0722,12.8243 12.8032,12.5543 12.4722,12.5543 L12.2722,12.5543 L12.2722,14.2613 Z M12.4722,14.8613 L11.9722,14.8613 C11.8062,14.8613 11.6722,14.7273 11.6722,14.5613 L11.6722,12.2543 C11.6722,12.0893 11.8062,11.9543 11.9722,11.9543 L12.4722,11.9543 C13.1332,11.9543 13.6722,12.4923 13.6722,13.1543 L13.6722,13.6613 C13.6722,14.3233 13.1332,14.8613 12.4722,14.8613 L12.4722,14.8613 Z" id="Fill-11"></path>
        </g>
    </g>
</svg>