<?xml version="1.0" encoding="UTF-8"?>
<svg width="32px" height="32px" viewBox="0 0 32 32" version="1.1" xmlns="http://www.w3.org/2000/svg" xmlns:xlink="http://www.w3.org/1999/xlink">
    <title>Icn / Amenity / Kitchen / Stovetop</title>
    <g id="Icn-/-Amenity-/-Kitchen-/-Stovetop" stroke="none" stroke-width="1" fill="none" fill-rule="evenodd">
        <g id="Group" transform="translate(6.000000, 5.000000)" fill="#13284C">
            <path d="M1.9824,0.6 C1.2194,0.6 0.6004,1.221 0.6004,1.983 L0.6004,18.954 C0.6004,19.716 1.2194,20.336 1.9824,20.336 L18.9644,20.336 C19.7264,20.336 20.3464,19.716 20.3464,18.954 L20.3464,1.983 C20.3464,1.221 19.7264,0.6 18.9644,0.6 L1.9824,0.6 Z M18.9644,20.936 L1.9824,20.936 C0.8894,20.936 0.0004,20.047 0.0004,18.954 L0.0004,1.983 C0.0004,0.89 0.8894,7.28306304e-14 1.9824,7.28306304e-14 L18.9644,7.28306304e-14 C20.0574,7.28306304e-14 20.9474,0.89 20.9474,1.983 L20.9474,18.954 C20.9474,20.047 20.0574,20.936 18.9644,20.936 L18.9644,20.936 Z" id="Fill-1"></path>
            <path d="M3.584,20.1874 L17.314,20.1874 L17.314,17.4064 L3.584,17.4064 L3.584,20.1874 Z M17.614,20.7874 L3.284,20.7874 C3.118,20.7874 2.984,20.6534 2.984,20.4874 L2.984,17.1054 C2.984,16.9404 3.118,16.8064 3.284,16.8064 L17.614,16.8064 C17.779,16.8064 17.914,16.9404 17.914,17.1054 L17.914,20.4874 C17.914,20.6534 17.779,20.7874 17.614,20.7874 L17.614,20.7874 Z" id="Fill-4"></path>
            <path d="M5.2593,2.4174 C3.6923,2.4174 2.4173,3.6924 2.4173,5.2604 C2.4173,6.8274 3.6923,8.1024 5.2593,8.1024 C6.8263,8.1024 8.1023,6.8274 8.1023,5.2604 C8.1023,3.6924 6.8263,2.4174 5.2593,2.4174 M5.2593,8.7024 C3.3613,8.7024 1.8173,7.1584 1.8173,5.2604 C1.8173,3.3614 3.3613,1.8174 5.2593,1.8174 C7.1573,1.8174 8.7023,3.3614 8.7023,5.2604 C8.7023,7.1584 7.1573,8.7024 5.2593,8.7024" id="Fill-6"></path>
            <path d="M5.2783,3.8055 C4.4763,3.8055 3.8243,4.4575 3.8243,5.2605 C3.8243,6.0615 4.4763,6.7145 5.2783,6.7145 C6.0803,6.7145 6.7323,6.0615 6.7323,5.2605 C6.7323,4.4575 6.0803,3.8055 5.2783,3.8055 M5.2783,7.3135 C4.1453,7.3135 3.2243,6.3925 3.2243,5.2605 C3.2243,4.1275 4.1453,3.2055 5.2783,3.2055 C6.4113,3.2055 7.3323,4.1275 7.3323,5.2605 C7.3323,6.3925 6.4113,7.3135 5.2783,7.3135" id="Fill-7"></path>
            <path d="M15.6719,2.4174 C14.1049,2.4174 12.8299,3.6924 12.8299,5.2604 C12.8299,6.8274 14.1049,8.1024 15.6719,8.1024 C17.2389,8.1024 18.5149,6.8274 18.5149,5.2604 C18.5149,3.6924 17.2389,2.4174 15.6719,2.4174 M15.6719,8.7024 C13.7739,8.7024 12.2299,7.1584 12.2299,5.2604 C12.2299,3.3614 13.7739,1.8174 15.6719,1.8174 C17.5699,1.8174 19.1149,3.3614 19.1149,5.2604 C19.1149,7.1584 17.5699,8.7024 15.6719,8.7024" id="Fill-8"></path>
            <path d="M15.6914,3.8055 C14.8894,3.8055 14.2374,4.4575 14.2374,5.2605 C14.2374,6.0615 14.8894,6.7145 15.6914,6.7145 C16.4934,6.7145 17.1454,6.0615 17.1454,5.2605 C17.1454,4.4575 16.4934,3.8055 15.6914,3.8055 M15.6914,7.3135 C14.5584,7.3135 13.6364,6.3925 13.6364,5.2605 C13.6364,4.1275 14.5584,3.2055 15.6914,3.2055 C16.8244,3.2055 17.7454,4.1275 17.7454,5.2605 C17.7454,6.3925 16.8244,7.3135 15.6914,7.3135" id="Fill-9"></path>
            <path d="M5.2427,9.7684 C3.6757,9.7684 2.3997,11.0434 2.3997,12.6114 C2.3997,14.1784 3.6757,15.4534 5.2427,15.4534 C6.8097,15.4534 8.0847,14.1784 8.0847,12.6114 C8.0847,11.0434 6.8097,9.7684 5.2427,9.7684 M5.2427,16.0534 C3.3447,16.0534 1.7997,14.5094 1.7997,12.6114 C1.7997,10.7124 3.3447,9.1684 5.2427,9.1684 C7.1407,9.1684 8.6847,10.7124 8.6847,12.6114 C8.6847,14.5094 7.1407,16.0534 5.2427,16.0534" id="Fill-10"></path>
            <path d="M5.2617,11.1566 C4.4597,11.1566 3.8077,11.8086 3.8077,12.6116 C3.8077,13.4126 4.4597,14.0656 5.2617,14.0656 C6.0637,14.0656 6.7157,13.4126 6.7157,12.6116 C6.7157,11.8086 6.0637,11.1566 5.2617,11.1566 M5.2617,14.6656 C4.1287,14.6656 3.2077,13.7436 3.2077,12.6116 C3.2077,11.4786 4.1287,10.5566 5.2617,10.5566 C6.3947,10.5566 7.3157,11.4786 7.3157,12.6116 C7.3157,13.7436 6.3947,14.6656 5.2617,14.6656" id="Fill-11"></path>
            <path d="M15.6553,9.7684 C14.0883,9.7684 12.8123,11.0434 12.8123,12.6114 C12.8123,14.1784 14.0883,15.4534 15.6553,15.4534 C17.2223,15.4534 18.4983,14.1784 18.4983,12.6114 C18.4983,11.0434 17.2223,9.7684 15.6553,9.7684 M15.6553,16.0534 C13.7583,16.0534 12.2133,14.5094 12.2133,12.6114 C12.2133,10.7124 13.7583,9.1684 15.6553,9.1684 C17.5533,9.1684 19.0973,10.7124 19.0973,12.6114 C19.0973,14.5094 17.5533,16.0534 15.6553,16.0534" id="Fill-12"></path>
            <path d="M15.6748,11.1566 C14.8728,11.1566 14.2208,11.8086 14.2208,12.6116 C14.2208,13.4126 14.8728,14.0656 15.6748,14.0656 C16.4768,14.0656 17.1288,13.4126 17.1288,12.6116 C17.1288,11.8086 16.4768,11.1566 15.6748,11.1566 M15.6748,14.6656 C14.5418,14.6656 13.6198,13.7436 13.6198,12.6116 C13.6198,11.4786 14.5418,10.5566 15.6748,10.5566 C16.8078,10.5566 17.7288,11.4786 17.7288,12.6116 C17.7288,13.7436 16.8078,14.6656 15.6748,14.6656" id="Fill-13"></path>
            <path d="M5.126,18.3724 C4.892,18.3724 4.702,18.5624 4.702,18.7964 C4.702,19.0304 4.892,19.2214 5.126,19.2214 C5.36,19.2214 5.55,19.0304 5.55,18.7964 C5.55,18.5624 5.36,18.3724 5.126,18.3724 M5.126,19.8214 C4.561,19.8214 4.102,19.3614 4.102,18.7964 C4.102,18.2314 4.561,17.7724 5.126,17.7724 C5.69,17.7724 6.15,18.2314 6.15,18.7964 C6.15,19.3614 5.69,19.8214 5.126,19.8214" id="Fill-14"></path>
            <path d="M7.4848,18.3724 C7.2508,18.3724 7.0608,18.5624 7.0608,18.7964 C7.0608,19.0304 7.2508,19.2214 7.4848,19.2214 C7.7188,19.2214 7.9088,19.0304 7.9088,18.7964 C7.9088,18.5624 7.7188,18.3724 7.4848,18.3724 M7.4848,19.8214 C6.9198,19.8214 6.4608,19.3614 6.4608,18.7964 C6.4608,18.2314 6.9198,17.7724 7.4848,17.7724 C8.0498,17.7724 8.5088,18.2314 8.5088,18.7964 C8.5088,19.3614 8.0498,19.8214 7.4848,19.8214" id="Fill-15"></path>
            <path d="M9.8437,18.3724 C9.6097,18.3724 9.4197,18.5624 9.4197,18.7964 C9.4197,19.0304 9.6097,19.2214 9.8437,19.2214 C10.0777,19.2214 10.2677,19.0304 10.2677,18.7964 C10.2677,18.5624 10.0777,18.3724 9.8437,18.3724 M9.8437,19.8214 C9.2787,19.8214 8.8197,19.3614 8.8197,18.7964 C8.8197,18.2314 9.2787,17.7724 9.8437,17.7724 C10.4087,17.7724 10.8677,18.2314 10.8677,18.7964 C10.8677,19.3614 10.4087,19.8214 9.8437,19.8214" id="Fill-16"></path>
            <path d="M12.2031,18.3724 C11.9691,18.3724 11.7781,18.5624 11.7781,18.7964 C11.7781,19.0304 11.9691,19.2214 12.2031,19.2214 C12.4361,19.2214 12.6271,19.0304 12.6271,18.7964 C12.6271,18.5624 12.4361,18.3724 12.2031,18.3724 M12.2031,19.8214 C11.6381,19.8214 11.1781,19.3614 11.1781,18.7964 C11.1781,18.2314 11.6381,17.7724 12.2031,17.7724 C12.7671,17.7724 13.2261,18.2314 13.2261,18.7964 C13.2261,19.3614 12.7671,19.8214 12.2031,19.8214" id="Fill-17"></path>
            <polygon id="Fill-18" points="13.62 20.6474 14.221 20.6474 14.221 17.4084 13.62 17.4084"></polygon>
        </g>
    </g>
</svg>