<?xml version="1.0" encoding="UTF-8"?>
<svg width="32px" height="32px" viewBox="0 0 32 32" version="1.1" xmlns="http://www.w3.org/2000/svg" xmlns:xlink="http://www.w3.org/1999/xlink">
    <title>Icn / Amenity / Power System / Alternator Charger</title>
    <g id="Icn-/-Amenity-/-Power-System-/-Alternator-Charger" stroke="none" stroke-width="1" fill="none" fill-rule="evenodd">
        <g id="Group" transform="translate(4.000000, 4.000000)" fill="#13284C">
            <path d="M0.685714286,17.2536 L15.4845714,17.2536 L15.4845714,0.684457143 L0.685714286,0.684457143 L0.685714286,17.2536 Z M15.8285714,17.9393143 L0.344,17.9393143 C0.154285714,17.9393143 0,17.7850286 0,17.5953143 L0,0.342742857 C0,0.153028571 0.154285714,-0.000114285714 0.344,-0.000114285714 L15.8285714,-0.000114285714 C16.0182857,-0.000114285714 16.1691429,0.153028571 16.1691429,0.342742857 L16.1691429,17.5953143 C16.1691429,17.7850286 16.0182857,17.9393143 15.8285714,17.9393143 L15.8285714,17.9393143 Z" id="Fill-1"></path>
            <path d="M4.52457143,17.9390857 L4.52457143,19.7048 C4.52457143,20.0328 4.792,20.3002286 5.12,20.3002286 C5.45142857,20.3002286 5.71885714,20.0328 5.71885714,19.7048 L5.71885714,17.9390857 L4.52457143,17.9390857 Z M5.12,20.9859429 C4.41257143,20.9859429 3.83657143,20.4122286 3.83657143,19.7048 L3.83657143,17.5950857 C3.83657143,17.4076571 3.99085714,17.2533714 4.18057143,17.2533714 L6.06057143,17.2533714 C6.25028571,17.2533714 6.40457143,17.4076571 6.40457143,17.5950857 L6.40457143,19.7048 C6.40457143,20.4122286 5.82857143,20.9859429 5.12,20.9859429 L5.12,20.9859429 Z" id="Fill-3"></path>
            <path d="M9.72994286,17.9390857 L9.72994286,19.7048 C9.72994286,20.0328 9.99737143,20.3002286 10.3253714,20.3002286 C10.6568,20.3002286 10.9242286,20.0328 10.9242286,19.7048 L10.9242286,17.9390857 L9.72994286,17.9390857 Z M10.3253714,20.9859429 C9.61794286,20.9859429 9.04422857,20.4122286 9.04422857,19.7048 L9.04422857,17.5950857 C9.04422857,17.4076571 9.19622857,17.2533714 9.38594286,17.2533714 L11.2659429,17.2533714 C11.4556571,17.2533714 11.6099429,17.4076571 11.6099429,17.5950857 L11.6099429,19.7048 C11.6099429,20.4122286 11.0339429,20.9859429 10.3253714,20.9859429 L10.3253714,20.9859429 Z" id="Fill-4"></path>
            <path d="M21.8705143,23.8341714 L5.1208,23.8341714 C4.93108571,23.8341714 4.7768,23.6798857 4.7768,23.4901714 L4.7768,20.6444571 C4.7768,20.4547429 4.93108571,20.3004571 5.1208,20.3004571 C5.31051429,20.3004571 5.4648,20.4547429 5.4648,20.6444571 L5.4648,23.1461714 L21.5265143,23.1461714 L21.5265143,9.4376 C21.5265143,9.24788571 21.6808,9.0936 21.8705143,9.0936 C22.0579429,9.0936 22.2122286,9.24788571 22.2122286,9.4376 L22.2122286,23.4901714 C22.2122286,23.6798857 22.0579429,23.8341714 21.8705143,23.8341714" id="Fill-5"></path>
            <path d="M18.5513143,22.1913143 L10.3261714,22.1913143 C10.1364571,22.1913143 9.98445714,22.0370286 9.98445714,21.8473143 L9.98445714,20.6438857 C9.98445714,20.4541714 10.1364571,20.3010286 10.3261714,20.3010286 C10.5158857,20.3010286 10.6701714,20.4541714 10.6701714,20.6438857 L10.6701714,21.5033143 L18.2073143,21.5033143 L18.2073143,9.43702857 C18.2073143,9.24731429 18.3616,9.09417143 18.5513143,9.09417143 C18.7410286,9.09417143 18.8953143,9.24731429 18.8953143,9.43702857 L18.8953143,21.8473143 C18.8953143,22.0370286 18.7410286,22.1913143 18.5513143,22.1913143" id="Fill-6"></path>
            <path d="M17.7589714,5.77565714 L17.7589714,8.30137143 C17.7589714,8.73908571 18.1144,9.09337143 18.5509714,9.09337143 C18.9886857,9.09337143 19.3441143,8.73908571 19.3441143,8.30137143 L19.3441143,5.77565714 L17.7589714,5.77565714 Z M18.5509714,9.78022857 C17.7361143,9.78022857 17.0732571,9.11737143 17.0732571,8.30137143 L17.0732571,5.4328 C17.0732571,5.24308571 17.2275429,5.0888 17.4149714,5.0888 L19.6869714,5.0888 C19.8755429,5.0888 20.0286857,5.24308571 20.0286857,5.4328 L20.0286857,8.30137143 C20.0286857,9.11737143 19.3658286,9.78022857 18.5509714,9.78022857 L18.5509714,9.78022857 Z" id="Fill-7"></path>
            <path d="M18.5513143,5.77565714 C18.3616,5.77565714 18.2073143,5.62137143 18.2073143,5.4328 L18.2073143,2.96765714 C18.2073143,2.77908571 18.3616,2.6248 18.5513143,2.6248 C18.7410286,2.6248 18.8953143,2.77908571 18.8953143,2.96765714 L18.8953143,5.4328 C18.8953143,5.62137143 18.7410286,5.77565714 18.5513143,5.77565714" id="Fill-8"></path>
            <path d="M21.0781714,5.77565714 L21.0781714,8.30137143 C21.0781714,8.73908571 21.4336,9.09337143 21.8701714,9.09337143 C22.3056,9.09337143 22.6633143,8.73908571 22.6633143,8.30137143 L22.6633143,5.77565714 L21.0781714,5.77565714 Z M21.8701714,9.78022857 C21.0553143,9.78022857 20.3901714,9.11737143 20.3901714,8.30137143 L20.3901714,5.4328 C20.3901714,5.24308571 20.5444571,5.0888 20.7341714,5.0888 L23.0050286,5.0888 C23.1947429,5.0888 23.3478857,5.24308571 23.3478857,5.4328 L23.3478857,8.30137143 C23.3478857,9.11737143 22.6850286,9.78022857 21.8701714,9.78022857 L21.8701714,9.78022857 Z" id="Fill-9"></path>
            <path d="M21.8705143,5.77565714 C21.6808,5.77565714 21.5265143,5.62137143 21.5265143,5.4328 L21.5265143,2.96765714 C21.5265143,2.77908571 21.6808,2.6248 21.8705143,2.6248 C22.0579429,2.6248 22.2122286,2.77908571 22.2122286,2.96765714 L22.2122286,5.4328 C22.2122286,5.62137143 22.0579429,5.77565714 21.8705143,5.77565714" id="Fill-10"></path>
            <path d="M8.07817143,8.20308571 C6.27017143,8.20308571 4.79931429,9.67394286 4.79931429,11.4819429 C4.79931429,13.2899429 6.27017143,14.7608 8.07817143,14.7608 C9.88617143,14.7608 11.3570286,13.2899429 11.3570286,11.4819429 C11.3570286,9.67394286 9.88617143,8.20308571 8.07817143,8.20308571 M8.07817143,15.4465143 C5.89302857,15.4465143 4.1136,13.6682286 4.1136,11.4819429 C4.1136,9.29565714 5.89302857,7.51737143 8.07817143,7.51737143 C10.2656,7.51737143 12.0427429,9.29565714 12.0427429,11.4819429 C12.0427429,13.6682286 10.2656,15.4465143 8.07817143,15.4465143" id="Fill-11"></path>
            <path d="M7.60228571,13.4216 L8.55542857,13.4216 L8.55542857,9.5416 L7.60228571,9.5416 L7.60228571,13.4216 Z M8.89714286,14.1073143 L7.25942857,14.1073143 C7.072,14.1073143 6.91771429,13.9530286 6.91771429,13.7644571 L6.91771429,9.19988571 C6.91771429,9.01017143 7.072,8.85702857 7.25942857,8.85702857 L8.89714286,8.85702857 C9.08685714,8.85702857 9.24114286,9.01017143 9.24114286,9.19988571 L9.24114286,13.7644571 C9.24114286,13.9530286 9.08685714,14.1073143 8.89714286,14.1073143 L8.89714286,14.1073143 Z" id="Fill-12"></path>
            <path d="M2.464,6.31988571 L13.7051429,6.31988571 L13.7051429,2.26845714 L2.464,2.26845714 L2.464,6.31988571 Z M14.0491429,7.0056 L2.12228571,7.0056 C1.93257143,7.0056 1.77942857,6.85245714 1.77942857,6.66274286 L1.77942857,1.92674286 C1.77942857,1.73702857 1.93257143,1.58388571 2.12228571,1.58388571 L14.0491429,1.58388571 C14.2365714,1.58388571 14.3908571,1.73702857 14.3908571,1.92674286 L14.3908571,6.66274286 C14.3908571,6.85245714 14.2365714,7.0056 14.0491429,7.0056 L14.0491429,7.0056 Z" id="Fill-13"></path>
            <path d="M3.308,6.02 C3.23714286,6.02 3.16285714,5.996 3.1,5.94914286 C2.95142857,5.83257143 2.92171429,5.61657143 3.03828571,5.468 L3.64971429,4.67485714 L3.18914286,4.67485714 C3.06685714,4.67485714 2.95142857,4.60742857 2.89085714,4.49885714 C2.83028571,4.38914286 2.83485714,4.25657143 2.9,4.15028571 L3.75028571,2.78685714 C3.85085714,2.62571429 4.06,2.57657143 4.22114286,2.676 C4.38114286,2.77657143 4.43028571,2.98914286 4.33085714,3.14914286 L3.80742857,3.98914286 L4.34571429,3.98914286 C4.47714286,3.98914286 4.596,4.06342857 4.65428571,4.18114286 C4.71257143,4.29771429 4.69657143,4.43714286 4.61771429,4.54114286 L3.58,5.88628571 C3.51371429,5.97428571 3.41085714,6.02 3.308,6.02" id="Fill-14"></path>
            <path d="M5.65851429,5.99211429 C5.58537143,5.99211429 5.51337143,5.96811429 5.45051429,5.92125714 C5.29965714,5.80582857 5.27222857,5.58982857 5.3888,5.44011429 L5.99794286,4.64697143 L5.53965714,4.64697143 C5.41508571,4.64697143 5.30194286,4.57954286 5.24137143,4.47097143 C5.1808,4.36125714 5.18308571,4.22868571 5.25051429,4.1224 L6.09851429,2.75897143 C6.19908571,2.59782857 6.41051429,2.54868571 6.57165714,2.64925714 C6.73165714,2.74868571 6.7808,2.96125714 6.68137143,3.12125714 L6.15794286,3.9624 L6.69622857,3.9624 C6.82537143,3.9624 6.94651429,4.03554286 7.0048,4.15325714 C7.06308571,4.26982857 7.04708571,4.4104 6.96708571,4.51325714 L5.93051429,5.8584 C5.86422857,5.9464 5.76137143,5.99211429 5.65851429,5.99211429" id="Fill-15"></path>
        </g>
    </g>
</svg>