<?xml version="1.0" encoding="UTF-8"?>
<svg width="32px" height="32px" viewBox="0 0 32 32" version="1.1" xmlns="http://www.w3.org/2000/svg" xmlns:xlink="http://www.w3.org/1999/xlink">
    <title>Icn / Amenity / Power System / Battery Storage (300+ amp hours)</title>
    <g id="Icn-/-Amenity-/-Power-System-/-Battery-Storage-(300+-amp-hours)" stroke="none" stroke-width="1" fill="none" fill-rule="evenodd">
        <g id="Group" transform="translate(6.000000, 4.000000)">
            <path d="M4.7108,4.3693 C4.6403,4.3693 4.5703,4.3423 4.5168,4.2888 C4.4093,4.1818 4.4093,4.0083 4.5168,3.9008 L5.5263,2.8913 C5.6333,2.7848 5.8063,2.7848 5.9138,2.8913 C6.0208,2.9988 6.0208,3.1723 5.9138,3.2793 L4.9048,4.2888 C4.8508,4.3423 4.7808,4.3693 4.7108,4.3693" id="Fill-3" fill="#363636"></path>
            <path d="M5.7201,4.3693 C5.6496,4.3693 5.5796,4.3423 5.5261,4.2888 L4.5171,3.2793 C4.4096,3.1723 4.4096,2.9988 4.5171,2.8913 C4.6241,2.7848 4.7971,2.7848 4.9046,2.8913 L5.9141,3.9008 C6.0211,4.0083 6.0211,4.1818 5.9141,4.2888 C5.8601,4.3423 5.7906,4.3693 5.7201,4.3693" id="Fill-5" fill="#363636"></path>
            <path d="M6.37635,0.54825 C6.32435,0.54825 6.27185,0.56825 6.23185,0.60825 L2.23285,4.60675 C2.15335,4.68625 2.15335,4.81625 2.23285,4.89575 L3.22035,5.88375 C3.51385,6.17725 3.51385,6.65475 3.22035,6.94825 L2.30385,7.86475 C2.26535,7.90325 2.24385,7.95475 2.24385,8.00925 C2.24385,8.06425 2.26535,8.11575 2.30385,8.15425 L11.99235,17.84275 C12.06985,17.91975 12.20435,17.91975 12.28185,17.84275 L19.46785,10.65675 C19.54735,10.57725 19.54735,10.44725 19.46785,10.36775 L9.77935,0.67925 C9.69935,0.59975 9.56985,0.59975 9.49035,0.67925 L8.57385,1.59575 C8.28035,1.88925 7.80235,1.88925 7.50885,1.59575 L6.52085,0.60825 C6.48085,0.56825 6.42835,0.54825 6.37635,0.54825 M12.13685,18.45075 C11.94435,18.45075 11.75135,18.37725 11.60485,18.23025 L1.91635,8.54175 C1.62235,8.24825 1.62235,7.77025 1.91635,7.47675 L2.83285,6.56025 C2.87135,6.52175 2.89235,6.47075 2.89235,6.41625 C2.89235,6.36125 2.87135,6.30975 2.83285,6.27125 L1.84485,5.28375 C1.55185,4.99025 1.55185,4.51275 1.84485,4.21875 L5.84435,0.22025 C6.13735,-0.07325 6.61535,-0.07325 6.90885,0.22025 L7.89635,1.20775 C7.97635,1.28775 8.10585,1.28775 8.18585,1.20775 L9.10185,0.29125 C9.39585,-0.00225 9.87335,-0.00225 10.16685,0.29125 L19.85535,9.97975 C20.14885,10.27325 20.14885,10.75075 19.85535,11.04475 L12.66985,18.23025 C12.52285,18.37725 12.32985,18.45075 12.13685,18.45075" id="Fill-7" fill="#13284C"></path>
            <path d="M4.44615,7.9757 L5.48315,9.0127 L10.63815,3.8582 L9.60065,2.8212 L4.44615,7.9757 Z M5.48315,9.6747 C5.41315,9.6747 5.34315,9.6482 5.28965,9.5942 L3.86465,8.1697 C3.81315,8.1182 3.78415,8.0487 3.78415,7.9757 C3.78415,7.9027 3.81315,7.8332 3.86465,7.7817 L9.40665,2.2397 C9.51415,2.1322 9.68715,2.1322 9.79465,2.2397 L11.21965,3.6642 C11.27065,3.7157 11.30015,3.7857 11.30015,3.8582 C11.30015,3.9312 11.27065,4.0007 11.21965,4.0522 L5.67715,9.5942 C5.62365,9.6482 5.55365,9.6747 5.48315,9.6747 L5.48315,9.6747 Z" id="Fill-9" fill="#363636"></path>
            <path d="M6.4779,10.0072 L7.5149,11.0442 L12.6694,5.8897 L11.6324,4.8527 L6.4779,10.0072 Z M7.5149,11.7062 C7.4424,11.7062 7.3724,11.6772 7.3209,11.6257 L5.8959,10.2012 C5.7889,10.0937 5.7889,9.9202 5.8959,9.8132 L11.4384,4.2707 C11.5454,4.1637 11.7189,4.1637 11.8259,4.2707 L13.2509,5.6957 C13.3024,5.7472 13.3314,5.8172 13.3314,5.8897 C13.3314,5.9622 13.3024,6.0322 13.2509,6.0837 L7.7089,11.6257 C7.6569,11.6772 7.5874,11.7062 7.5149,11.7062 L7.5149,11.7062 Z" id="Fill-11" fill="#363636"></path>
            <path d="M8.50915,12.03845 L9.54615,13.07545 L14.70065,7.92095 L13.66365,6.88395 L8.50915,12.03845 Z M9.54615,13.73745 C9.47615,13.73745 9.40565,13.71095 9.35215,13.65695 L7.92765,12.23245 C7.87565,12.18095 7.84715,12.11095 7.84715,12.03845 C7.84715,11.96545 7.87565,11.89595 7.92765,11.84445 L13.46965,6.30245 C13.57715,6.19495 13.75015,6.19495 13.85715,6.30245 L15.28215,7.72695 C15.33365,7.77845 15.36265,7.84845 15.36265,7.92095 C15.36265,7.99395 15.33365,8.06345 15.28215,8.11495 L9.74015,13.65695 C9.68615,13.71095 9.61665,13.73745 9.54615,13.73745 L9.54615,13.73745 Z" id="Fill-13" fill="#363636"></path>
            <path d="M10.5404,14.0697 L11.5774,15.1067 L16.7319,9.9527 L15.6954,8.9152 L10.5404,14.0697 Z M11.5774,15.7687 C11.5074,15.7687 11.4374,15.7422 11.3839,15.6887 L9.9589,14.2637 C9.9069,14.2122 9.8784,14.1427 9.8784,14.0697 C9.8784,13.9972 9.9069,13.9272 9.9589,13.8757 L15.5009,8.3337 C15.6084,8.2267 15.7814,8.2267 15.8889,8.3337 L17.3134,9.7587 C17.3649,9.8097 17.3939,9.8797 17.3939,9.9527 C17.3939,10.0252 17.3649,10.0952 17.3134,10.1462 L11.7714,15.6887 C11.7174,15.7422 11.6479,15.7687 11.5774,15.7687 L11.5774,15.7687 Z" id="Fill-15" fill="#363636"></path>
            <path d="M14.52475,14.6791 C14.45425,14.6791 14.38425,14.6521 14.33075,14.5986 C14.22325,14.4916 14.22325,14.3181 14.33075,14.2106 L15.83625,12.7056 C15.94325,12.5986 16.11675,12.5986 16.22375,12.7056 C16.33075,12.8126 16.33075,12.9861 16.22375,13.0936 L14.71875,14.5986 C14.66475,14.6521 14.59475,14.6791 14.52475,14.6791" id="Fill-17" fill="#363636"></path>
            <path d="M4.7108,4.3693 C4.6403,4.3693 4.5703,4.3423 4.5168,4.2888 C4.4093,4.1818 4.4093,4.0083 4.5168,3.9008 L5.5263,2.8913 C5.6333,2.7848 5.8063,2.7848 5.9138,2.8913 C6.0208,2.9988 6.0208,3.1723 5.9138,3.2793 L4.9048,4.2888 C4.8508,4.3423 4.7808,4.3693 4.7108,4.3693" id="Fill-19" fill="#13284C"></path>
            <path d="M5.7201,4.3693 C5.6496,4.3693 5.5796,4.3423 5.5261,4.2888 L4.5171,3.2793 C4.4096,3.1723 4.4096,2.9988 4.5171,2.8913 C4.6241,2.7848 4.7971,2.7848 4.9046,2.8913 L5.9141,3.9008 C6.0211,4.0083 6.0211,4.1818 5.9141,4.2888 C5.8601,4.3423 5.7906,4.3693 5.7201,4.3693" id="Fill-21" fill="#13284C"></path>
            <path d="M4.44615,7.9757 L5.48315,9.0127 L10.63815,3.8582 L9.60065,2.8212 L4.44615,7.9757 Z M5.48315,9.6747 C5.41315,9.6747 5.34315,9.6482 5.28965,9.5942 L3.86465,8.1697 C3.81315,8.1182 3.78415,8.0487 3.78415,7.9757 C3.78415,7.9027 3.81315,7.8332 3.86465,7.7817 L9.40665,2.2397 C9.51415,2.1322 9.68715,2.1322 9.79465,2.2397 L11.21965,3.6642 C11.27065,3.7157 11.30015,3.7857 11.30015,3.8582 C11.30015,3.9312 11.27065,4.0007 11.21965,4.0522 L5.67715,9.5942 C5.62365,9.6482 5.55365,9.6747 5.48315,9.6747 L5.48315,9.6747 Z" id="Fill-23" fill="#13284C"></path>
            <path d="M6.4779,10.0072 L7.5149,11.0442 L12.6694,5.8897 L11.6324,4.8527 L6.4779,10.0072 Z M7.5149,11.7062 C7.4424,11.7062 7.3724,11.6772 7.3209,11.6257 L5.8959,10.2012 C5.7889,10.0937 5.7889,9.9202 5.8959,9.8132 L11.4384,4.2707 C11.5454,4.1637 11.7189,4.1637 11.8259,4.2707 L13.2509,5.6957 C13.3024,5.7472 13.3314,5.8172 13.3314,5.8897 C13.3314,5.9622 13.3024,6.0322 13.2509,6.0837 L7.7089,11.6257 C7.6569,11.6772 7.5874,11.7062 7.5149,11.7062 L7.5149,11.7062 Z" id="Fill-25" fill="#13284C"></path>
            <path d="M8.50915,12.03845 L9.54615,13.07545 L14.70065,7.92095 L13.66365,6.88395 L8.50915,12.03845 Z M9.54615,13.73745 C9.47615,13.73745 9.40565,13.71095 9.35215,13.65695 L7.92765,12.23245 C7.87565,12.18095 7.84715,12.11095 7.84715,12.03845 C7.84715,11.96545 7.87565,11.89595 7.92765,11.84445 L13.46965,6.30245 C13.57715,6.19495 13.75015,6.19495 13.85715,6.30245 L15.28215,7.72695 C15.33365,7.77845 15.36265,7.84845 15.36265,7.92095 C15.36265,7.99395 15.33365,8.06345 15.28215,8.11495 L9.74015,13.65695 C9.68615,13.71095 9.61665,13.73745 9.54615,13.73745 L9.54615,13.73745 Z" id="Fill-27" fill="#13284C"></path>
            <path d="M10.5404,14.0697 L11.5774,15.1067 L16.7319,9.9527 L15.6954,8.9152 L10.5404,14.0697 Z M11.5774,15.7687 C11.5074,15.7687 11.4374,15.7422 11.3839,15.6887 L9.9589,14.2637 C9.9069,14.2122 9.8784,14.1427 9.8784,14.0697 C9.8784,13.9972 9.9069,13.9272 9.9589,13.8757 L15.5009,8.3337 C15.6084,8.2267 15.7814,8.2267 15.8889,8.3337 L17.3134,9.7587 C17.3649,9.8097 17.3939,9.8797 17.3939,9.9527 C17.3939,10.0252 17.3649,10.0952 17.3134,10.1462 L11.7714,15.6887 C11.7174,15.7422 11.6479,15.7687 11.5774,15.7687 L11.5774,15.7687 Z" id="Fill-29" fill="#13284C"></path>
            <path d="M14.52475,14.6791 C14.45425,14.6791 14.38425,14.6521 14.33075,14.5986 C14.22325,14.4916 14.22325,14.3181 14.33075,14.2106 L15.83625,12.7056 C15.94325,12.5986 16.11675,12.5986 16.22375,12.7056 C16.33075,12.8126 16.33075,12.9861 16.22375,13.0936 L14.71875,14.5986 C14.66475,14.6521 14.59475,14.6791 14.52475,14.6791" id="Fill-31" fill="#13284C"></path>
            <path d="M1.79575,15.25185 C1.70225,15.22085 0.26125,13.41035 0.26125,13.41035 L0.60425,12.97235 L1.69625,11.87685 L1.41375,11.37735 L0.25625,10.28535 L0.59875,9.75385 L4.68575,5.84085 L5.46825,6.24585 L6.46925,7.02535 L7.15625,6.52385 L8.12325,5.86635 L8.81225,6.49035 L18.14025,15.78685 C18.14025,15.78685 18.04775,16.63085 17.76675,16.75635 C17.48575,16.88185 10.84125,23.86185 10.49725,23.70585 C10.15325,23.55035 1.79575,15.25185 1.79575,15.25185" id="Fill-33" fill="#FEFEFE"></path>
            <path d="M3.0858,9.8693 C3.0153,9.8693 2.9453,9.8423 2.8918,9.7888 C2.7843,9.6818 2.7843,9.5083 2.8918,9.4008 L3.9013,8.3913 C4.0083,8.2848 4.1813,8.2848 4.2888,8.3913 C4.3958,8.4988 4.3958,8.6723 4.2888,8.7793 L3.2798,9.7888 C3.2258,9.8423 3.1558,9.8693 3.0858,9.8693" id="Fill-35" fill="#363636"></path>
            <path d="M4.0951,9.8693 C4.0246,9.8693 3.9546,9.8423 3.9011,9.7888 L2.8921,8.7793 C2.7846,8.6723 2.7846,8.4988 2.8921,8.3913 C2.9991,8.2848 3.1721,8.2848 3.2796,8.3913 L4.2891,9.4008 C4.3961,9.5083 4.3961,9.6818 4.2891,9.7888 C4.2351,9.8423 4.1656,9.8693 4.0951,9.8693" id="Fill-37" fill="#363636"></path>
            <g id="Group-41" transform="translate(0.000000, 5.450600)" fill="#13284C">
                <path d="M4.75135,0.59765 C4.69935,0.59765 4.64685,0.61765 4.60685,0.65765 L0.60785,4.65615 C0.52835,4.73565 0.52835,4.86565 0.60785,4.94515 L1.59535,5.93315 C1.88885,6.22665 1.88885,6.70415 1.59535,6.99765 L0.67885,7.91415 C0.64035,7.95265 0.61885,8.00415 0.61885,8.05865 C0.61885,8.11365 0.64035,8.16515 0.67885,8.20365 L10.36735,17.89215 C10.44485,17.96915 10.57935,17.96915 10.65685,17.89215 L17.84285,10.70615 C17.92235,10.62665 17.92235,10.49665 17.84285,10.41715 L8.15435,0.72865 C8.07435,0.64915 7.94485,0.64915 7.86535,0.72865 L6.94885,1.64515 C6.65535,1.93865 6.17735,1.93865 5.88385,1.64515 L4.89585,0.65765 C4.85585,0.61765 4.80335,0.59765 4.75135,0.59765 M10.51185,18.50015 C10.31935,18.50015 10.12635,18.42665 9.97985,18.27965 L0.29135,8.59115 C-0.00265,8.29765 -0.00265,7.81965 0.29135,7.52615 L1.20785,6.60965 C1.24635,6.57115 1.26735,6.52015 1.26735,6.46565 C1.26735,6.41065 1.24635,6.35915 1.20785,6.32065 L0.21985,5.33315 C-0.07315,5.03965 -0.07315,4.56215 0.21985,4.26815 L4.21935,0.26965 C4.51235,-0.02385 4.99035,-0.02385 5.28385,0.26965 L6.27135,1.25715 C6.35135,1.33715 6.48085,1.33715 6.56085,1.25715 L7.47685,0.34065 C7.77085,0.04715 8.24835,0.04715 8.54185,0.34065 L18.23035,10.02915 C18.52385,10.32265 18.52385,10.80015 18.23035,11.09415 L11.04485,18.27965 C10.89785,18.42665 10.70485,18.50015 10.51185,18.50015" id="Fill-39"></path>
            </g>
            <path d="M2.82115,13.4757 L3.85815,14.5127 L9.01315,9.3582 L7.97565,8.3212 L2.82115,13.4757 Z M3.85815,15.1747 C3.78815,15.1747 3.71815,15.1482 3.66465,15.0942 L2.23965,13.6697 C2.18815,13.6182 2.15915,13.5487 2.15915,13.4757 C2.15915,13.4027 2.18815,13.3332 2.23965,13.2817 L7.78165,7.7397 C7.88915,7.6322 8.06215,7.6322 8.16965,7.7397 L9.59465,9.1642 C9.64565,9.2157 9.67515,9.2857 9.67515,9.3582 C9.67515,9.4312 9.64565,9.5007 9.59465,9.5522 L4.05215,15.0942 C3.99865,15.1482 3.92865,15.1747 3.85815,15.1747 L3.85815,15.1747 Z" id="Fill-42" fill="#363636"></path>
            <path d="M4.8529,15.5072 L5.8899,16.5442 L11.0444,11.3897 L10.0074,10.3527 L4.8529,15.5072 Z M5.8899,17.2062 C5.8174,17.2062 5.7474,17.1772 5.6959,17.1257 L4.2709,15.7012 C4.1639,15.5937 4.1639,15.4202 4.2709,15.3132 L9.8134,9.7707 C9.9204,9.6637 10.0939,9.6637 10.2009,9.7707 L11.6259,11.1957 C11.6774,11.2472 11.7064,11.3172 11.7064,11.3897 C11.7064,11.4622 11.6774,11.5322 11.6259,11.5837 L6.0839,17.1257 C6.0319,17.1772 5.9624,17.2062 5.8899,17.2062 L5.8899,17.2062 Z" id="Fill-44" fill="#363636"></path>
            <path d="M6.88415,17.53845 L7.92115,18.57545 L13.07565,13.42095 L12.03865,12.38395 L6.88415,17.53845 Z M7.92115,19.23745 C7.85115,19.23745 7.78065,19.21095 7.72715,19.15695 L6.30265,17.73245 C6.25065,17.68095 6.22215,17.61095 6.22215,17.53845 C6.22215,17.46545 6.25065,17.39595 6.30265,17.34445 L11.84465,11.80245 C11.95215,11.69495 12.12515,11.69495 12.23215,11.80245 L13.65715,13.22695 C13.70865,13.27845 13.73765,13.34845 13.73765,13.42095 C13.73765,13.49395 13.70865,13.56345 13.65715,13.61495 L8.11515,19.15695 C8.06115,19.21095 7.99165,19.23745 7.92115,19.23745 L7.92115,19.23745 Z" id="Fill-46" fill="#363636"></path>
            <path d="M8.9154,19.5697 L9.9524,20.6067 L15.1069,15.4527 L14.0704,14.4152 L8.9154,19.5697 Z M9.9524,21.2687 C9.8824,21.2687 9.8124,21.2422 9.7589,21.1887 L8.3339,19.7637 C8.2819,19.7122 8.2534,19.6427 8.2534,19.5697 C8.2534,19.4972 8.2819,19.4272 8.3339,19.3757 L13.8759,13.8337 C13.9834,13.7267 14.1564,13.7267 14.2639,13.8337 L15.6884,15.2587 C15.7399,15.3097 15.7689,15.3797 15.7689,15.4527 C15.7689,15.5252 15.7399,15.5952 15.6884,15.6462 L10.1464,21.1887 C10.0924,21.2422 10.0229,21.2687 9.9524,21.2687 L9.9524,21.2687 Z" id="Fill-48" fill="#363636"></path>
            <path d="M12.89975,20.1791 C12.82925,20.1791 12.75925,20.1521 12.70575,20.0986 C12.59825,19.9916 12.59825,19.8181 12.70575,19.7106 L14.21125,18.2056 C14.31825,18.0986 14.49175,18.0986 14.59875,18.2056 C14.70575,18.3126 14.70575,18.4861 14.59875,18.5936 L13.09375,20.0986 C13.03975,20.1521 12.96975,20.1791 12.89975,20.1791" id="Fill-50" fill="#363636"></path>
            <path d="M3.0858,9.8693 C3.0153,9.8693 2.9453,9.8423 2.8918,9.7888 C2.7843,9.6818 2.7843,9.5083 2.8918,9.4008 L3.9013,8.3913 C4.0083,8.2848 4.1813,8.2848 4.2888,8.3913 C4.3958,8.4988 4.3958,8.6723 4.2888,8.7793 L3.2798,9.7888 C3.2258,9.8423 3.1558,9.8693 3.0858,9.8693" id="Fill-52" fill="#13284C"></path>
            <path d="M4.0951,9.8693 C4.0246,9.8693 3.9546,9.8423 3.9011,9.7888 L2.8921,8.7793 C2.7846,8.6723 2.7846,8.4988 2.8921,8.3913 C2.9991,8.2848 3.1721,8.2848 3.2796,8.3913 L4.2891,9.4008 C4.3961,9.5083 4.3961,9.6818 4.2891,9.7888 C4.2351,9.8423 4.1656,9.8693 4.0951,9.8693" id="Fill-54" fill="#13284C"></path>
            <path d="M2.82115,13.4757 L3.85815,14.5127 L9.01315,9.3582 L7.97565,8.3212 L2.82115,13.4757 Z M3.85815,15.1747 C3.78815,15.1747 3.71815,15.1482 3.66465,15.0942 L2.23965,13.6697 C2.18815,13.6182 2.15915,13.5487 2.15915,13.4757 C2.15915,13.4027 2.18815,13.3332 2.23965,13.2817 L7.78165,7.7397 C7.88915,7.6322 8.06215,7.6322 8.16965,7.7397 L9.59465,9.1642 C9.64565,9.2157 9.67515,9.2857 9.67515,9.3582 C9.67515,9.4312 9.64565,9.5007 9.59465,9.5522 L4.05215,15.0942 C3.99865,15.1482 3.92865,15.1747 3.85815,15.1747 L3.85815,15.1747 Z" id="Fill-56" fill="#13284C"></path>
            <path d="M4.8529,15.5072 L5.8899,16.5442 L11.0444,11.3897 L10.0074,10.3527 L4.8529,15.5072 Z M5.8899,17.2062 C5.8174,17.2062 5.7474,17.1772 5.6959,17.1257 L4.2709,15.7012 C4.1639,15.5937 4.1639,15.4202 4.2709,15.3132 L9.8134,9.7707 C9.9204,9.6637 10.0939,9.6637 10.2009,9.7707 L11.6259,11.1957 C11.6774,11.2472 11.7064,11.3172 11.7064,11.3897 C11.7064,11.4622 11.6774,11.5322 11.6259,11.5837 L6.0839,17.1257 C6.0319,17.1772 5.9624,17.2062 5.8899,17.2062 L5.8899,17.2062 Z" id="Fill-58" fill="#13284C"></path>
            <path d="M6.88415,17.53845 L7.92115,18.57545 L13.07565,13.42095 L12.03865,12.38395 L6.88415,17.53845 Z M7.92115,19.23745 C7.85115,19.23745 7.78065,19.21095 7.72715,19.15695 L6.30265,17.73245 C6.25065,17.68095 6.22215,17.61095 6.22215,17.53845 C6.22215,17.46545 6.25065,17.39595 6.30265,17.34445 L11.84465,11.80245 C11.95215,11.69495 12.12515,11.69495 12.23215,11.80245 L13.65715,13.22695 C13.70865,13.27845 13.73765,13.34845 13.73765,13.42095 C13.73765,13.49395 13.70865,13.56345 13.65715,13.61495 L8.11515,19.15695 C8.06115,19.21095 7.99165,19.23745 7.92115,19.23745 L7.92115,19.23745 Z" id="Fill-60" fill="#13284C"></path>
            <path d="M8.9154,19.5697 L9.9524,20.6067 L15.1069,15.4527 L14.0704,14.4152 L8.9154,19.5697 Z M9.9524,21.2687 C9.8824,21.2687 9.8124,21.2422 9.7589,21.1887 L8.3339,19.7637 C8.2819,19.7122 8.2534,19.6427 8.2534,19.5697 C8.2534,19.4972 8.2819,19.4272 8.3339,19.3757 L13.8759,13.8337 C13.9834,13.7267 14.1564,13.7267 14.2639,13.8337 L15.6884,15.2587 C15.7399,15.3097 15.7689,15.3797 15.7689,15.4527 C15.7689,15.5252 15.7399,15.5952 15.6884,15.6462 L10.1464,21.1887 C10.0924,21.2422 10.0229,21.2687 9.9524,21.2687 L9.9524,21.2687 Z" id="Fill-62" fill="#13284C"></path>
            <path d="M12.89975,20.1791 C12.82925,20.1791 12.75925,20.1521 12.70575,20.0986 C12.59825,19.9916 12.59825,19.8181 12.70575,19.7106 L14.21125,18.2056 C14.31825,18.0986 14.49175,18.0986 14.59875,18.2056 C14.70575,18.3126 14.70575,18.4861 14.59875,18.5936 L13.09375,20.0986 C13.03975,20.1521 12.96975,20.1791 12.89975,20.1791" id="Fill-64" fill="#13284C"></path>
        </g>
    </g>
</svg>