<?xml version="1.0" encoding="UTF-8"?>
<svg width="32px" height="32px" viewBox="0 0 32 32" version="1.1" xmlns="http://www.w3.org/2000/svg" xmlns:xlink="http://www.w3.org/1999/xlink">
    <title>Icn / Amenity / Power System / Battery Storage (under 300 amp hours)</title>
    <g id="Icn-/-Amenity-/-Power-System-/-Battery-Storage-(under-300-amp-hours)" stroke="none" stroke-width="1" fill="none" fill-rule="evenodd">
        <g id="Group" transform="translate(6.000000, 5.000000)" fill="#13284C">
            <path d="M3.3745,5.779 C3.2985,5.779 3.2225,5.75 3.1635,5.691 C3.0465,5.574 3.0465,5.384 3.1635,5.267 L4.2675,4.163 C4.3845,4.046 4.5735,4.046 4.6905,4.163 C4.8085,4.28 4.8085,4.469 4.6905,4.587 L3.5875,5.691 C3.5285,5.75 3.4505,5.779 3.3745,5.779" id="Fill-1"></path>
            <path d="M4.478,5.779 C4.402,5.779 4.326,5.75 4.267,5.691 L3.164,4.587 C3.046,4.469 3.046,4.28 3.164,4.163 C3.281,4.046 3.47,4.046 3.587,4.163 L4.691,5.267 C4.808,5.384 4.808,5.574 4.691,5.691 C4.632,5.75 4.556,5.779 4.478,5.779" id="Fill-3"></path>
            <g id="Group-7" transform="translate(0.000000, 0.180400)">
                <path d="M5.1968,1.4189 C5.1398,1.4189 5.0818,1.4409 5.0388,1.4839 L0.6658,5.8579 C0.5778,5.9449 0.5778,6.0879 0.6658,6.1749 L1.7458,7.2549 C2.0658,7.5759 2.0658,8.0989 1.7458,8.4199 L0.7438,9.4219 C0.7008,9.4639 0.6768,9.5209 0.6768,9.5799 C0.6768,9.6399 0.7008,9.6959 0.7438,9.7379 L11.3398,20.3349 C11.4238,20.4189 11.5718,20.4189 11.6558,20.3349 L19.5148,12.4759 C19.6028,12.3889 19.6028,12.2459 19.5148,12.1589 L8.9198,1.5629 C8.8318,1.4759 8.6888,1.4759 8.6028,1.5629 L7.5988,2.5649 C7.2788,2.8859 6.7578,2.8859 6.4348,2.5649 L5.3548,1.4839 C5.3118,1.4409 5.2538,1.4189 5.1968,1.4189 M11.4978,20.9999 C11.2868,20.9999 11.0758,20.9199 10.9158,20.7589 L0.3178,10.1619 C-0.0022,9.8419 -0.0022,9.3179 0.3178,8.9979 L1.3218,7.9949 C1.3628,7.9529 1.3858,7.8969 1.3858,7.8369 C1.3858,7.7769 1.3628,7.7219 1.3218,7.6789 L0.2418,6.5989 C-0.0802,6.2769 -0.0802,5.7549 0.2418,5.4349 L4.6148,1.0609 C4.9348,0.7389 5.4588,0.7389 5.7788,1.0609 L6.8588,2.1409 C6.9468,2.2279 7.0878,2.2279 7.1758,2.1409 L8.1768,1.1389 C8.4998,0.8169 9.0208,0.8169 9.3428,1.1389 L19.9388,11.7349 C20.2608,12.0559 20.2608,12.5779 19.9388,12.8989 L12.0798,20.7589 C11.9198,20.9199 11.7088,20.9999 11.4978,20.9999" id="Fill-5"></path>
            </g>
            <path d="M3.0855,9.7234 L4.2205,10.8584 L9.8565,5.2204 L8.7245,4.0854 L3.0855,9.7234 Z M4.2205,11.5814 C4.1445,11.5814 4.0655,11.5524 4.0075,11.4944 L2.4485,9.9354 C2.3945,9.8794 2.3605,9.8034 2.3605,9.7234 C2.3605,9.6444 2.3945,9.5684 2.4485,9.5114 L8.5115,3.4504 C8.6285,3.3324 8.8175,3.3324 8.9355,3.4504 L10.4935,5.0084 C10.5505,5.0644 10.5815,5.1404 10.5815,5.2204 C10.5815,5.2994 10.5505,5.3754 10.4935,5.4324 L4.4335,11.4944 C4.3745,11.5524 4.2965,11.5814 4.2205,11.5814 L4.2205,11.5814 Z" id="Fill-8"></path>
            <path d="M5.3081,11.945 L6.4431,13.08 L12.0791,7.442 L10.9451,6.307 L5.3081,11.945 Z M6.4431,13.803 C6.3631,13.803 6.2871,13.772 6.2301,13.716 L4.6711,12.158 C4.5541,12.041 4.5541,11.85 4.6711,11.733 L10.7341,5.672 C10.8511,5.554 11.0401,5.554 11.1581,5.672 L12.7161,7.23 C12.7731,7.286 12.8041,7.362 12.8041,7.442 C12.8041,7.521 12.7731,7.597 12.7161,7.654 L6.6541,13.716 C6.5971,13.772 6.5211,13.803 6.4431,13.803 L6.4431,13.803 Z" id="Fill-10"></path>
            <path d="M7.5288,14.1667 L8.6638,15.3017 L14.3018,9.6637 L13.1678,8.5297 L7.5288,14.1667 Z M8.6638,16.0247 C8.5878,16.0247 8.5088,15.9957 8.4508,15.9377 L6.8938,14.3797 C6.8378,14.3227 6.8058,14.2467 6.8058,14.1667 C6.8058,14.0877 6.8378,14.0117 6.8938,13.9547 L12.9548,7.8937 C13.0718,7.7757 13.2628,7.7757 13.3808,7.8937 L14.9368,9.4517 C14.9938,9.5077 15.0248,9.5847 15.0248,9.6637 C15.0248,9.7427 14.9938,9.8197 14.9368,9.8757 L8.8768,15.9377 C8.8178,15.9957 8.7398,16.0247 8.6638,16.0247 L8.6638,16.0247 Z" id="Fill-12"></path>
            <path d="M9.7515,16.3894 L10.8865,17.5234 L16.5225,11.8854 L15.3905,10.7514 L9.7515,16.3894 Z M10.8865,18.2474 C10.8085,18.2474 10.7315,18.2184 10.6735,18.1604 L9.1145,16.6014 C9.0585,16.5444 9.0265,16.4684 9.0265,16.3894 C9.0265,16.3094 9.0585,16.2334 9.1145,16.1764 L15.1775,10.1154 C15.2945,9.9974 15.4835,9.9974 15.6015,10.1154 L17.1595,11.6734 C17.2165,11.7304 17.2475,11.8064 17.2475,11.8854 C17.2475,11.9654 17.2165,12.0414 17.1595,12.0974 L11.0975,18.1604 C11.0385,18.2184 10.9625,18.2474 10.8865,18.2474 L10.8865,18.2474 Z" id="Fill-14"></path>
            <path d="M14.1089,17.0554 C14.0329,17.0554 13.9569,17.0264 13.8979,16.9674 C13.7809,16.8504 13.7809,16.6604 13.8979,16.5434 L15.5449,14.8974 C15.6619,14.7804 15.8509,14.7804 15.9679,14.8974 C16.0859,15.0144 16.0859,15.2034 15.9679,15.3214 L14.3219,16.9674 C14.2629,17.0264 14.1849,17.0554 14.1089,17.0554" id="Fill-16"></path>
        </g>
    </g>
</svg>