<?xml version="1.0" encoding="UTF-8"?>
<svg width="32px" height="32px" viewBox="0 0 32 32" version="1.1" xmlns="http://www.w3.org/2000/svg" xmlns:xlink="http://www.w3.org/1999/xlink">
    <title>Icn / Amenity / Power System / A-C Electrical Outlets</title>
    <g id="Icn-/-Amenity-/-Power-System-/-A-C-Electrical-Outlets" stroke="none" stroke-width="1" fill="none" fill-rule="evenodd">
        <g id="Group" transform="translate(3.000000, 7.000000)" fill="#13284C">
            <path d="M8.606,14.9726 L8.072,14.9726 C5.082,14.8316 2.691,12.3626 2.691,9.3376 C2.691,6.3136 5.082,3.8436 8.072,3.7026 L8.606,3.7026 C11.595,3.8436 13.986,6.3136 13.986,9.3376 C13.986,12.3626 11.595,14.8316 8.606,14.9726 M8.339,3.1566 C4.93,3.1566 2.157,5.9296 2.157,9.3376 C2.157,12.7466 4.93,15.5196 8.339,15.5196 C11.747,15.5196 14.521,12.7466 14.521,9.3376 C14.521,5.9296 11.747,3.1566 8.339,3.1566" id="Fill-1"></path>
            <g id="Group-5" transform="translate(0.000000, 0.761700)">
                <path d="M16.1436,14.4043 C16.1436,15.4943 15.2566,16.3823 14.1666,16.3823 L2.5116,16.3823 C1.4206,16.3823 0.5336,15.4943 0.5336,14.4043 L0.5336,2.7493 C0.5336,1.6583 1.4206,0.7713 2.5116,0.7713 L14.1666,0.7713 C15.2566,0.7713 16.1436,1.6583 16.1436,2.7493 L16.1436,14.4043 Z M14.1666,0.2383 L2.5116,0.2383 C1.1266,0.2383 -0.0004,1.3643 -0.0004,2.7493 L-0.0004,14.4043 C-0.0004,15.7893 1.1266,16.9153 2.5116,16.9153 L14.1666,16.9153 C15.5506,16.9153 16.6766,15.7893 16.6766,14.4043 L16.6766,2.7493 C16.6766,1.3643 15.5506,0.2383 14.1666,0.2383 L14.1666,0.2383 Z" id="Fill-3"></path>
            </g>
            <g id="Group-8" transform="translate(18.000000, 0.761700)">
                <path d="M7.2237,7.7988 C7.2237,9.5418 5.8057,10.9598 4.0627,10.9598 L4.0597,10.9598 C2.3177,10.9598 0.8987,9.5418 0.8987,7.7988 L0.8987,5.5928 L1.7727,5.5928 L3.1217,5.5928 L4.9997,5.5928 L6.3507,5.5928 L7.2237,5.5928 L7.2237,7.7988 Z M2.0387,1.1788 C2.0387,0.9548 2.2227,0.7718 2.4487,0.7718 C2.6727,0.7718 2.8557,0.9548 2.8557,1.1788 L2.8557,5.0598 L2.0387,5.0598 L2.0387,1.1788 Z M5.2667,1.1788 C5.2667,0.9548 5.4507,0.7718 5.6757,0.7718 C5.9007,0.7718 6.0837,0.9548 6.0837,1.1788 L6.0837,5.0598 L5.2667,5.0598 L5.2667,1.1788 Z M7.4917,5.0598 L6.6177,5.0598 L6.6177,1.1788 C6.6177,0.6598 6.1947,0.2378 5.6747,0.2378 C5.1567,0.2378 4.7337,0.6598 4.7337,1.1788 L4.7337,5.0598 L3.3897,5.0598 L3.3897,1.1788 C3.3897,0.6598 2.9667,0.2378 2.4477,0.2378 C1.9277,0.2378 1.5057,0.6598 1.5057,1.1788 L1.5057,5.0598 L0.6317,5.0598 C0.4847,5.0598 0.3657,5.1788 0.3657,5.3258 L0.3657,7.7988 C0.3657,9.4568 1.4697,10.8458 2.9757,11.3128 L2.9757,16.7338 C2.9757,16.8808 3.0957,16.9998 3.2437,16.9998 C3.3897,16.9998 3.5097,16.8808 3.5097,16.7338 L3.5097,11.4378 C3.6907,11.4648 3.8707,11.4938 4.0597,11.4938 L4.0627,11.4938 C4.2507,11.4938 4.4327,11.4648 4.6137,11.4378 L4.6137,16.7338 C4.6137,16.8808 4.7327,16.9998 4.8797,16.9998 C5.0277,16.9998 5.1467,16.8808 5.1467,16.7338 L5.1467,11.3128 C6.6537,10.8458 7.7577,9.4568 7.7577,7.7988 L7.7577,5.3258 C7.7577,5.1788 7.6377,5.0598 7.4917,5.0598 L7.4917,5.0598 Z" id="Fill-6"></path>
            </g>
            <path d="M24.2022,8.7832 C24.0612,8.7402 23.9132,8.8222 23.8712,8.9632 C23.6882,9.5772 23.1932,10.0672 22.5772,10.2422 C22.4352,10.2822 22.3532,10.4292 22.3932,10.5712 C22.4272,10.6892 22.5332,10.7652 22.6492,10.7652 C22.6742,10.7652 22.6982,10.7622 22.7232,10.7552 C23.5142,10.5312 24.1492,9.9022 24.3822,9.1142 C24.4242,8.9732 24.3442,8.8242 24.2022,8.7832" id="Fill-9"></path>
            <polygon id="Fill-11" points="7.481 13.6697 9.106 13.6697 9.106 11.2947 7.481 11.2947"></polygon>
            <path d="M6.2935,6.5449 C5.2925,6.5449 4.4815,7.3569 4.4815,8.3569 C4.4815,9.3579 5.2925,10.1699 6.2935,10.1699 L6.2935,6.5449 Z" id="Fill-13"></path>
            <path d="M10.2935,6.5449 C11.2945,6.5449 12.1055,7.3569 12.1055,8.3569 C12.1055,9.3579 11.2945,10.1699 10.2935,10.1699 L10.2935,6.5449 Z" id="Fill-14"></path>
        </g>
    </g>
</svg>