<?xml version="1.0" encoding="UTF-8"?>
<svg width="32px" height="32px" viewBox="0 0 32 32" version="1.1" xmlns="http://www.w3.org/2000/svg" xmlns:xlink="http://www.w3.org/1999/xlink">
    <title>Icn / Amenity / Power System / Electric Power System</title>
    <g id="Icn-/-Amenity-/-Power-System-/-Electric-Power-System" stroke="none" stroke-width="1" fill="none" fill-rule="evenodd">
        <g id="Group" transform="translate(6.000000, 5.000000)" fill="#13284C">
            <path d="M11.9552,12.3027 C10.5732,12.3027 9.4482,13.4277 9.4482,14.8097 C9.4482,16.1907 10.5732,17.3157 11.9552,17.3157 C13.3362,17.3157 14.4612,16.1907 14.4612,14.8097 C14.4612,13.4277 13.3362,12.3027 11.9552,12.3027 M11.9552,17.9157 C10.2422,17.9157 8.8492,16.5227 8.8492,14.8097 C8.8492,13.0967 10.2422,11.7027 11.9552,11.7027 C13.6672,11.7027 15.0602,13.0967 15.0602,14.8097 C15.0602,16.5227 13.6672,17.9157 11.9552,17.9157" id="Fill-1"></path>
            <path d="M10.6691,14.8081 C10.6691,14.6421 10.8031,14.5091 10.9691,14.5091 C11.1351,14.5091 11.2691,14.6421 11.2691,14.8081 C11.2691,14.9741 11.1351,15.1091 10.9691,15.1091 C10.8031,15.1091 10.6691,14.9741 10.6691,14.8081" id="Fill-3"></path>
            <path d="M12.6652,14.8081 C12.6652,14.6421 12.8012,14.5091 12.9672,14.5091 C13.1312,14.5091 13.2672,14.6421 13.2672,14.8081 C13.2672,14.9741 13.1312,15.1091 12.9672,15.1091 C12.8012,15.1091 12.6652,14.9741 12.6652,14.8081" id="Fill-5"></path>
            <g id="Group-9" transform="translate(0.000000, 0.380400)">
                <path d="M3.7472,14.8515 L6.5362,14.8515 L6.6802,14.1565 C7.0742,12.2625 7.8612,10.3425 9.0182,8.4485 C9.4542,7.7385 9.6832,6.9205 9.6832,6.0835 C9.6832,4.8165 9.1752,3.6415 8.2512,2.7725 C7.3292,1.9055 6.1222,1.4715 4.8512,1.5505 C2.5252,1.6945 0.6592,3.6355 0.6012,5.9685 C0.5802,6.8225 0.7972,7.6615 1.2302,8.3925 C2.4322,10.4225 3.2532,12.4755 3.6732,14.4965 L3.7472,14.8515 Z M6.7802,15.4515 L6.7802,15.4515 L3.5032,15.4515 C3.3612,15.4515 3.2382,15.3515 3.2092,15.2105 L3.0862,14.6195 C2.6802,12.6625 1.8812,10.6705 0.7132,8.6965 C0.2242,7.8695 -0.0228,6.9215 0.0012,5.9535 C0.0662,3.3115 2.1812,1.1145 4.8142,0.9515 C6.2512,0.8615 7.6172,1.3535 8.6622,2.3355 C9.6922,3.3045 10.2832,4.6695 10.2832,6.0835 C10.2832,7.0305 10.0232,7.9575 9.5312,8.7625 C8.4092,10.5965 7.6472,12.4515 7.2682,14.2795 L7.0742,15.2125 C7.0452,15.3515 6.9222,15.4515 6.7802,15.4515 L6.7802,15.4515 Z" id="Fill-7"></path>
            </g>
            <path d="M3.1779,15.8315 L3.1779,16.7675 C3.1779,17.8565 4.0639,18.7435 5.1539,18.7435 C6.2439,18.7435 7.1309,17.8565 7.1309,16.7675 L7.1309,15.8315 L3.1779,15.8315 Z M5.1539,19.3435 C3.7339,19.3435 2.5779,18.1885 2.5779,16.7675 L2.5779,15.5305 C2.5779,15.3645 2.7119,15.2315 2.8779,15.2315 L7.4299,15.2315 C7.5959,15.2315 7.7309,15.3645 7.7309,15.5305 L7.7309,16.7675 C7.7309,18.1885 6.5739,19.3435 5.1539,19.3435 L5.1539,19.3435 Z" id="Fill-10"></path>
            <path d="M4.9884,15.2319 L5.3414,15.2319 L5.9214,8.1659 L4.4084,8.1659 L4.9884,15.2319 Z M5.6174,15.8319 L4.7124,15.8319 C4.5554,15.8319 4.4264,15.7119 4.4134,15.5559 L3.7834,7.8909 C3.7764,7.8079 3.8044,7.7249 3.8624,7.6629 C3.9184,7.6019 3.9984,7.5659 4.0824,7.5659 L6.2474,7.5659 C6.3314,7.5659 6.4114,7.6019 6.4674,7.6629 C6.5244,7.7249 6.5524,7.8079 6.5464,7.8909 L5.9164,15.5559 C5.9044,15.7119 5.7734,15.8319 5.6174,15.8319 L5.6174,15.8319 Z" id="Fill-12"></path>
            <path d="M3.149,4.6279 C2.799,4.6279 2.515,4.9119 2.515,5.2619 C2.515,5.6109 2.799,5.8959 3.149,5.8959 C3.498,5.8959 3.782,5.6109 3.782,5.2619 C3.782,4.9119 3.498,4.6279 3.149,4.6279 M3.149,6.4949 C2.469,6.4949 1.915,5.9409 1.915,5.2619 C1.915,4.5809 2.469,4.0279 3.149,4.0279 C3.829,4.0279 4.382,4.5809 4.382,5.2619 C4.382,5.9409 3.829,6.4949 3.149,6.4949" id="Fill-14"></path>
            <path d="M14.1515,21.3804 L7.0585,21.3804 C5.8425,21.3804 4.8545,20.3904 4.8545,19.1754 L4.8545,19.0444 C4.8545,18.8784 4.9885,18.7434 5.1535,18.7434 C5.3195,18.7434 5.4545,18.8784 5.4545,19.0444 L5.4545,19.1754 C5.4545,20.0604 6.1735,20.7784 7.0585,20.7784 L14.1515,20.7784 C15.0365,20.7784 15.7555,20.0604 15.7555,19.1754 L15.7555,8.9824 C15.7555,8.8174 15.8895,8.6824 16.0555,8.6824 C16.2205,8.6824 16.3555,8.8174 16.3555,8.9824 L16.3555,19.1754 C16.3555,20.3904 15.3675,21.3804 14.1515,21.3804" id="Fill-16"></path>
            <path d="M13.9904,5.6269 L13.9904,6.7089 C13.9904,7.7979 14.8764,8.6829 15.9644,8.6829 L16.1464,8.6829 C17.2354,8.6829 18.1204,7.7979 18.1204,6.7089 L18.1204,5.6269 L13.9904,5.6269 Z M16.1464,9.2829 L15.9644,9.2829 C14.5454,9.2829 13.3904,8.1279 13.3904,6.7089 L13.3904,5.3269 C13.3904,5.1619 13.5244,5.0269 13.6904,5.0269 L18.4204,5.0269 C18.5864,5.0269 18.7204,5.1619 18.7204,5.3269 L18.7204,6.7089 C18.7204,8.1279 17.5664,9.2829 16.1464,9.2829 L16.1464,9.2829 Z" id="Fill-18"></path>
            <path d="M13.328,5.0274 L18.782,5.0274 L18.782,4.2674 L13.328,4.2674 L13.328,5.0274 Z M19.082,5.6274 L13.028,5.6274 C12.863,5.6274 12.729,5.4934 12.729,5.3274 L12.729,3.9674 C12.729,3.8014 12.863,3.6674 13.028,3.6674 L19.082,3.6674 C19.248,3.6674 19.382,3.8014 19.382,3.9674 L19.382,5.3274 C19.382,5.4934 19.248,5.6274 19.082,5.6274 L19.082,5.6274 Z" id="Fill-20"></path>
            <path d="M14.5587,4.2675 C14.3937,4.2675 14.2587,4.1325 14.2587,3.9675 L14.2587,1.2995 C14.2587,1.1335 14.3937,0.9995 14.5587,0.9995 C14.7247,0.9995 14.8597,1.1335 14.8597,1.2995 L14.8597,3.9675 C14.8597,4.1325 14.7247,4.2675 14.5587,4.2675" id="Fill-22"></path>
            <path d="M17.5519,4.2675 C17.3859,4.2675 17.2519,4.1325 17.2519,3.9675 L17.2519,1.2995 C17.2519,1.1335 17.3859,0.9995 17.5519,0.9995 C17.7169,0.9995 17.8519,1.1335 17.8519,1.2995 L17.8519,3.9675 C17.8519,4.1325 17.7169,4.2675 17.5519,4.2675" id="Fill-23"></path>
        </g>
    </g>
</svg>