<?xml version="1.0" encoding="UTF-8"?>
<svg width="32px" height="32px" viewBox="0 0 32 32" version="1.1" xmlns="http://www.w3.org/2000/svg" xmlns:xlink="http://www.w3.org/1999/xlink">
    <title>Icn / Amenity / Power System / Generator</title>
    <g id="Icn-/-Amenity-/-Power-System-/-Generator" stroke="none" stroke-width="1" fill="none" fill-rule="evenodd">
        <g id="Group" transform="translate(2.000000, 5.000000)" fill="#13284C">
            <path d="M11.9892,7.0625 L8.6382,7.0625 L8.6382,11.2185 L9.5212,11.2185 C9.6682,11.2185 9.7892,11.3395 9.7892,11.4895 L9.7892,14.7525 L12.4842,9.9155 L10.8582,9.9155 C10.8142,9.9155 10.7702,9.9045 10.7262,9.8815 C10.5972,9.8095 10.5512,9.6435 10.6242,9.5165 L11.9892,7.0625 Z M8.3682,6.5245 L12.4472,6.5245 C12.5972,6.5245 12.7182,6.6455 12.7182,6.7945 C12.7182,6.8505 12.7042,6.9015 12.6752,6.9455 L11.3192,9.3765 L12.9452,9.3765 C13.0952,9.3765 13.2132,9.4975 13.2132,9.6475 C13.2132,9.7025 13.1982,9.7535 13.1692,9.7935 L9.7562,15.9205 C9.6822,16.0535 9.5172,16.1005 9.3892,16.0265 C9.3012,15.9795 9.2502,15.8875 9.2502,15.7925 L9.2502,11.7565 L8.3682,11.7565 C8.2182,11.7565 8.0962,11.6355 8.0962,11.4895 L8.0962,6.7945 C8.0962,6.6455 8.2182,6.5245 8.3682,6.5245 L8.3682,6.5245 Z" id="Fill-1"></path>
            <g id="Group-5" transform="translate(0.000000, 0.291000)">
                <path d="M20.5312,0.7089 L26.4772,0.7179 C26.9952,0.7179 27.4702,0.9309 27.8132,1.2729 C28.1552,1.6159 28.3692,2.0909 28.3692,2.6139 L28.3642,18.2219 L28.3642,19.1039 L28.3642,19.1079 C28.3642,19.6299 28.1502,20.1009 27.8082,20.4429 C27.4792,20.7719 27.0282,20.9829 26.5322,20.9999 L26.5192,20.9999 L26.5102,20.9999 L26.4942,20.9999 L26.4862,20.9999 L26.4692,20.9999 L26.4592,20.9999 L1.8912,20.9949 C1.3742,20.9949 0.8992,20.7819 0.5552,20.4349 C0.2142,20.0919 0.0002,19.6209 0.0002,19.0989 L0.0092,2.6049 C0.0132,2.0829 0.2212,1.6079 0.5662,1.2649 C0.9112,0.9229 1.3822,0.7089 1.9052,0.7089 L20.4662,0.7129 C20.4872,0.7129 20.5102,0.7089 20.5312,0.7089 L20.5312,0.7089 Z M20.2142,1.3469 L20.2142,20.3699 L1.8912,20.3659 C1.5492,20.3659 1.2332,20.2209 1.0022,19.9939 C0.7712,19.7629 0.6302,19.4459 0.6302,19.0989 L0.6422,2.6049 C0.6422,2.2589 0.7832,1.9419 1.0142,1.7099 C1.2422,1.4829 1.5572,1.3389 1.9052,1.3389 L20.2142,1.3469 Z M3.3932,3.9279 L17.7392,3.9369 C17.9152,3.9369 18.0562,4.0729 18.0562,4.2489 L18.0492,15.8079 L18.0492,17.4679 C18.0492,17.6439 17.9062,17.7849 17.7342,17.7849 L3.3852,17.7759 C3.2162,17.7759 3.0732,17.6349 3.0732,17.4599 L3.0782,4.2449 C3.0782,4.0689 3.2192,3.9279 3.3932,3.9279 L3.3932,3.9279 Z M17.4272,4.5649 L3.7112,4.5579 L3.7032,17.1469 L17.4192,17.1509 L17.4192,15.8079 L17.4272,4.5649 Z M25.2522,14.9929 L25.2652,15.0109 C25.4962,15.2469 25.6372,15.5719 25.6372,15.9309 C25.6372,16.2949 25.4872,16.6249 25.2522,16.8639 C25.0132,17.1049 24.6822,17.2499 24.3152,17.2499 C23.9522,17.2499 23.6212,17.1049 23.3832,16.8639 C23.1412,16.6249 22.9972,16.2949 22.9972,15.9309 C22.9972,15.5639 23.1412,15.2329 23.3832,14.9929 C23.6212,14.7539 23.9522,14.6079 24.3152,14.6079 C24.6822,14.6079 25.0132,14.7539 25.2522,14.9929 L25.2522,14.9929 Z M24.3152,13.9759 C24.8542,13.9759 25.3472,14.1929 25.6982,14.5489 L25.7192,14.5649 C26.0612,14.9209 26.2722,15.3999 26.2722,15.9309 C26.2722,16.4659 26.0532,16.9589 25.6982,17.3099 C25.3472,17.6649 24.8542,17.8839 24.3152,17.8839 C23.7802,17.8839 23.2922,17.6649 22.9362,17.3099 C22.5812,16.9589 22.3622,16.4659 22.3622,15.9309 C22.3622,15.3919 22.5812,14.9029 22.9362,14.5489 L22.9362,14.5439 C23.2962,14.1929 23.7802,13.9759 24.3152,13.9759 L24.3152,13.9759 Z M22.9972,5.9059 L25.5862,5.9059 L25.5862,4.1329 L22.9972,4.1329 L22.9972,5.9059 Z M22.6792,3.4989 L25.9032,3.4989 C26.0792,3.4989 26.2202,3.6419 26.2202,3.8159 L26.2202,6.2219 C26.2202,6.3969 26.0792,6.5379 25.9032,6.5379 L22.6792,6.5379 C22.5102,6.5379 22.3622,6.3969 22.3622,6.2219 L22.3622,3.8159 C22.3622,3.6419 22.5102,3.4989 22.6792,3.4989 L22.6792,3.4989 Z M26.4722,1.3469 L20.8482,1.3469 L20.8432,20.3619 L26.4692,20.3699 C26.5762,20.3699 26.6752,20.3569 26.7732,20.3319 L26.7762,20.3319 L26.7852,20.3269 L26.7902,20.3269 L26.8032,20.3269 L26.8062,20.3229 C27.0162,20.2639 27.2052,20.1519 27.3542,20.0019 C27.5862,19.7709 27.7262,19.4539 27.7262,19.1079 L27.7262,18.2219 L27.7392,2.6139 L27.7342,2.6139 L27.7392,2.6139 L27.7342,2.6139 C27.7342,2.5659 27.7342,2.5279 27.7312,2.4849 L27.7312,2.4809 L27.7262,2.4509 L27.7222,2.4209 L27.7222,2.4029 L27.7182,2.3919 L27.7182,2.3869 L27.7152,2.3739 L27.7152,2.3599 L27.7152,2.3559 L27.7102,2.3449 L27.7102,2.3399 L27.7062,2.3269 L27.6932,2.2839 L27.6932,2.2799 C27.6332,2.0649 27.5212,1.8719 27.3672,1.7189 C27.1362,1.4869 26.8232,1.3469 26.4722,1.3469 L26.4722,1.3509 L26.4722,1.3469 Z" id="Fill-3"></path>
            </g>
        </g>
    </g>
</svg>