<?xml version="1.0" encoding="UTF-8"?>
<svg width="32px" height="32px" viewBox="0 0 32 32" version="1.1" xmlns="http://www.w3.org/2000/svg" xmlns:xlink="http://www.w3.org/1999/xlink">
    <title>Icn / Amenity / Power System / Propane Fuel System</title>
    <g id="Icn-/-Amenity-/-Power-System-/-Propane-Fuel-System" stroke="none" stroke-width="1" fill="none" fill-rule="evenodd">
        <g id="Group" transform="translate(9.000000, 4.000000)" fill="#13284C">
            <g id="Group-3" transform="translate(0.000000, 0.720720)">
                <path d="M12.49452,22.29024 L1.52892,22.29024 C1.12212,22.29024 0.79092,22.07544 0.79092,21.81384 L0.79092,16.32504 L13.23132,16.32504 L13.23132,21.81384 C13.23132,22.07544 12.90132,22.29024 12.49452,22.29024 L12.49452,22.29024 Z M0.79092,15.81384 L13.23132,15.81384 L13.23132,10.83984 L0.79092,10.83984 L0.79092,15.81384 Z M4.81572,4.37904 L9.20772,4.37904 C11.44212,4.44864 13.23132,5.63544 13.23132,7.09584 L13.23132,10.32984 L0.79092,10.32984 L0.79092,7.09584 C0.79092,5.63544 2.58012,4.44864 4.81572,4.37904 L4.81572,4.37904 Z M4.52772,3.86664 L4.52772,2.37504 C4.52772,2.10624 4.86852,1.88424 5.28852,1.88424 L5.38932,1.88424 L8.63412,1.88424 L8.73492,1.88424 C9.15372,1.88424 9.49572,2.10624 9.49572,2.37504 L9.49572,3.86664 L9.20772,3.86664 C9.13932,3.86544 9.07332,3.85464 9.00372,3.85464 L5.01972,3.85464 C4.95012,3.85464 4.88532,3.86544 4.81572,3.86664 L4.52772,3.86664 Z M5.78412,1.37424 L8.23932,1.37424 L8.23932,0.47904 L5.78412,0.47904 L5.78412,1.37424 Z M10.28652,3.97464 L10.28652,2.37504 C10.28652,1.88904 9.74412,1.48224 9.03012,1.39344 L4.99332,1.39344 C4.27812,1.48224 3.73692,1.88904 3.73692,2.37504 L3.73692,3.97464 C1.59252,4.34304 0.00012,5.59704 0.00012,7.09584 L0.00012,10.58544 L0.00012,16.06824 L0.00012,21.81384 C0.00012,22.35744 0.68532,22.80024 1.52892,22.80024 L12.49452,22.80024 C13.33692,22.80024 14.02212,22.35744 14.02212,21.81384 L14.02212,16.06824 L14.02212,10.58544 L14.02212,7.09584 C14.02212,5.59704 12.43092,4.34304 10.28652,3.97464 L10.28652,3.97464 Z" id="Fill-1"></path>
            </g>
            <path d="M7.22808,12.48984 C6.92568,13.11744 6.37608,14.33424 6.37608,14.70624 C6.37608,15.17544 6.75888,15.55824 7.22808,15.55824 C7.69848,15.55824 8.08008,15.17544 8.08008,14.70624 C8.08008,14.33424 7.53048,13.11744 7.22808,12.48984 M7.22808,15.76464 C6.64488,15.76464 6.16848,15.28944 6.16848,14.70624 C6.16848,14.16024 7.09608,12.28704 7.13568,12.20784 C7.15368,12.17184 7.18848,12.15024 7.22808,12.15024 C7.26768,12.15024 7.30368,12.17184 7.32168,12.20784 C7.36008,12.28704 8.28768,14.16024 8.28768,14.70624 C8.28768,15.28944 7.81248,15.76464 7.22808,15.76464" id="Fill-4"></path>
        </g>
    </g>
</svg>