<?xml version="1.0" encoding="UTF-8"?>
<svg width="32px" height="32px" viewBox="0 0 32 32" version="1.1" xmlns="http://www.w3.org/2000/svg" xmlns:xlink="http://www.w3.org/1999/xlink">
    <title>Icn / Amenity / Power System / Shore Power Hookups</title>
    <g id="Icn-/-Amenity-/-Power-System-/-Shore-Power-Hookups" stroke="none" stroke-width="1" fill="none" fill-rule="evenodd">
        <g id="Group" transform="translate(6.000147, 5.078393)" fill="#13284C">
            <path d="M10.9339267,18.4074733 L10.2555933,18.4074733 C6.45692667,18.22854 3.41872667,15.09134 3.41872667,11.2486733 C3.41872667,7.40600667 6.45692667,4.26807333 10.2555933,4.08914 L10.9339267,4.08914 C14.73186,4.26807333 17.77006,7.40600667 17.77006,11.2486733 C17.77006,15.09134 14.73186,18.22854 10.9339267,18.4074733 M10.5943933,3.39467333 C6.26332667,3.39467333 2.74039333,6.91834 2.74039333,11.2486733 C2.74039333,15.57974 6.26332667,19.10194 10.5943933,19.10194 C14.9247267,19.10194 18.44766,15.57974 18.44766,11.2486733 C18.44766,6.91834 14.9247267,3.39467333 10.5943933,3.39467333" id="Fill-1"></path>
            <path d="M20.5098667,18.6530667 C20.5098667,20.0376 19.3834667,21.1654667 17.9989333,21.1654667 L3.19,21.1654667 C1.80546667,21.1654667 0.678333333,20.0376 0.678333333,18.6530667 L0.678333333,3.84486667 C0.678333333,2.45886667 1.80546667,1.33246667 3.19,1.33246667 L17.9989333,1.33246667 C19.3834667,1.33246667 20.5098667,2.45886667 20.5098667,3.84486667 L20.5098667,18.6530667 Z M17.9989333,0.654866667 L3.19,0.654866667 C1.43073333,0.654866667 -1.84741111e-13,2.0856 -1.84741111e-13,3.84486667 L-1.84741111e-13,18.6530667 C-1.84741111e-13,20.4123333 1.43073333,21.8430667 3.19,21.8430667 L17.9989333,21.8430667 C19.7582,21.8430667 21.1874667,20.4123333 21.1874667,18.6530667 L21.1874667,3.84486667 C21.1874667,2.0856 19.7582,0.654866667 17.9989333,0.654866667 L17.9989333,0.654866667 Z" id="Fill-3"></path>
            <polygon id="Fill-6" points="9.50458667 16.75234 11.56892 16.75234 11.56892 13.7354067 9.50458667 13.7354067"></polygon>
            <path d="M7.99560667,7.7 C6.72400667,7.7 5.69294,8.73106667 5.69294,10.0026667 C5.69294,11.2742667 6.72400667,12.3053333 7.99560667,12.3053333 L7.99560667,7.7 Z" id="Fill-8"></path>
            <path d="M13.0777533,7.7 L13.0777533,12.3053333 C14.3493533,12.3053333 15.38042,11.2742667 15.38042,10.0026667 C15.38042,8.73106667 14.3493533,7.7 13.0777533,7.7" id="Fill-9"></path>
        </g>
    </g>
</svg>