<?xml version="1.0" encoding="UTF-8"?>
<svg width="32px" height="32px" viewBox="0 0 32 32" version="1.1" xmlns="http://www.w3.org/2000/svg" xmlns:xlink="http://www.w3.org/1999/xlink">
    <title>Icn / Amenity / Power System / Solar Panels</title>
    <g id="Icn-/-Amenity-/-Power-System-/-Solar-Panels" stroke="none" stroke-width="1" fill="none" fill-rule="evenodd">
        <g id="Group" transform="translate(6.000000, 6.000000)" fill="#13284C">
            <path d="M9.662,18.7628 L10.525,18.7628 L10.525,18.2158 L9.662,18.2158 L9.662,18.7628 Z M10.825,19.3638 L9.362,19.3638 C9.197,19.3638 9.062,19.2288 9.062,19.0638 L9.062,17.9148 C9.062,17.7498 9.197,17.6148 9.362,17.6148 L10.825,17.6148 C10.991,17.6148 11.125,17.7498 11.125,17.9148 L11.125,19.0638 C11.125,19.2288 10.991,19.3638 10.825,19.3638 L10.825,19.3638 Z" id="Fill-1"></path>
            <path d="M6.977,19.8248 L13.211,19.8248 L13.211,19.3628 L6.977,19.3628 L6.977,19.8248 Z M13.511,20.4258 L6.677,20.4258 C6.511,20.4258 6.377,20.2908 6.377,20.1258 L6.377,19.0638 C6.377,18.8978 6.511,18.7628 6.677,18.7628 L13.511,18.7628 C13.677,18.7628 13.81,18.8978 13.81,19.0638 L13.81,20.1258 C13.81,20.2908 13.677,20.4258 13.511,20.4258 L13.511,20.4258 Z" id="Fill-3"></path>
            <path d="M10.162,2.3057 C9.692,2.3057 9.31,2.6887 9.31,3.1577 C9.31,3.6267 9.692,4.0087 10.162,4.0087 C10.631,4.0087 11.013,3.6267 11.013,3.1577 C11.013,2.6887 10.631,2.3057 10.162,2.3057 M10.162,4.6097 C9.361,4.6097 8.71,3.9577 8.71,3.1577 C8.71,2.3577 9.361,1.7057 10.162,1.7057 C10.962,1.7057 11.613,2.3577 11.613,3.1577 C11.613,3.9577 10.962,4.6097 10.162,4.6097" id="Fill-4"></path>
            <path d="M10.162,1.5596 C9.996,1.5596 9.862,1.4256 9.862,1.2596 L9.862,0.2996 C9.862,0.1346 9.996,-0.0004 10.162,-0.0004 C10.328,-0.0004 10.462,0.1346 10.462,0.2996 L10.462,1.2596 C10.462,1.4256 10.328,1.5596 10.162,1.5596" id="Fill-5"></path>
            <path d="M10.162,6.3643 C9.996,6.3643 9.862,6.2293 9.862,6.0633 L9.862,5.1043 C9.862,4.9383 9.996,4.8043 10.162,4.8043 C10.328,4.8043 10.462,4.9383 10.462,5.1043 L10.462,6.0633 C10.462,6.2293 10.328,6.3643 10.162,6.3643" id="Fill-6"></path>
            <path d="M8.8026,2.1231 C8.7256,2.1231 8.6486,2.0941 8.5906,2.0351 L7.9116,1.3561 C7.7946,1.2391 7.7946,1.0491 7.9116,0.9321 C8.0296,0.8141 8.2196,0.8141 8.3356,0.9321 L9.0146,1.6101 C9.1316,1.7271 9.1316,1.9181 9.0146,2.0351 C8.9556,2.0941 8.8796,2.1231 8.8026,2.1231" id="Fill-7"></path>
            <path d="M12.1996,5.5196 C12.1226,5.5196 12.0456,5.4906 11.9876,5.4316 L11.3086,4.7526 C11.1916,4.6356 11.1916,4.4466 11.3086,4.3296 C11.4256,4.2116 11.6166,4.2116 11.7326,4.3296 L12.4116,5.0076 C12.5286,5.1246 12.5286,5.3156 12.4116,5.4316 C12.3526,5.4906 12.2766,5.5196 12.1996,5.5196" id="Fill-8"></path>
            <path d="M8.2396,3.4825 L7.2796,3.4825 C7.1146,3.4825 6.9796,3.3475 6.9796,3.1815 C6.9796,3.0165 7.1146,2.8815 7.2796,2.8815 L8.2396,2.8815 C8.4056,2.8815 8.5396,3.0165 8.5396,3.1815 C8.5396,3.3475 8.4056,3.4825 8.2396,3.4825" id="Fill-9"></path>
            <path d="M13.0438,3.4825 L12.0838,3.4825 C11.9178,3.4825 11.7838,3.3475 11.7838,3.1815 C11.7838,3.0165 11.9178,2.8815 12.0838,2.8815 L13.0438,2.8815 C13.2098,2.8815 13.3438,3.0165 13.3438,3.1815 C13.3438,3.3475 13.2098,3.4825 13.0438,3.4825" id="Fill-10"></path>
            <path d="M8.1239,5.5196 C8.0469,5.5196 7.9709,5.4906 7.9119,5.4316 C7.7949,5.3156 7.7949,5.1246 7.9119,5.0076 L8.5899,4.3296 C8.7069,4.2116 8.8969,4.2116 9.0149,4.3296 C9.1319,4.4466 9.1319,4.6356 9.0149,4.7526 L8.3359,5.4316 C8.2769,5.4906 8.2009,5.5196 8.1239,5.5196" id="Fill-11"></path>
            <path d="M11.5209,2.1231 C11.4439,2.1231 11.3669,2.0941 11.3089,2.0351 C11.1909,1.9181 11.1909,1.7271 11.3089,1.6101 L11.9869,0.9321 C12.1039,0.8141 12.2939,0.8141 12.4119,0.9321 C12.5289,1.0491 12.5289,1.2391 12.4119,1.3561 L11.7329,2.0351 C11.6749,2.0941 11.5979,2.1231 11.5209,2.1231" id="Fill-12"></path>
            <path d="M0.7372,17.5362 L19.4502,17.5362 L15.5782,7.5072 L4.6092,7.5072 L0.7372,17.5362 Z M19.8872,18.1372 L0.3002,18.1372 C0.2012,18.1372 0.1082,18.0882 0.0522,18.0062 C-0.0028,17.9252 -0.0158,17.8202 0.0202,17.7282 L4.1242,7.0992 C4.1682,6.9832 4.2792,6.9072 4.4042,6.9072 L15.7842,6.9072 C15.9072,6.9072 16.0182,6.9832 16.0632,7.0992 L20.1672,17.7282 C20.2032,17.8202 20.1902,17.9252 20.1342,18.0062 C20.0792,18.0882 19.9862,18.1372 19.8872,18.1372 L19.8872,18.1372 Z" id="Fill-13"></path>
            <path d="M18.8612,15.4795 L1.3262,15.4795 C1.1602,15.4795 1.0262,15.3445 1.0262,15.1785 C1.0262,15.0135 1.1602,14.8785 1.3262,14.8785 L18.8612,14.8785 C19.0272,14.8785 19.1612,15.0135 19.1612,15.1785 C19.1612,15.3445 19.0272,15.4795 18.8612,15.4795" id="Fill-14"></path>
            <path d="M17.8358,12.8213 L2.3518,12.8213 C2.1868,12.8213 2.0518,12.6873 2.0518,12.5213 C2.0518,12.3563 2.1868,12.2213 2.3518,12.2213 L17.8358,12.2213 C18.0008,12.2213 18.1358,12.3563 18.1358,12.5213 C18.1358,12.6873 18.0008,12.8213 17.8358,12.8213" id="Fill-15"></path>
            <path d="M16.8094,10.1651 L3.3774,10.1651 C3.2124,10.1651 3.0784,10.0301 3.0784,9.8641 C3.0784,9.6991 3.2124,9.5641 3.3774,9.5641 L16.8094,9.5641 C16.9754,9.5641 17.1094,9.6991 17.1094,9.8641 C17.1094,10.0301 16.9754,10.1651 16.8094,10.1651" id="Fill-16"></path>
            <path d="M5.1971,18.1368 C5.1781,18.1368 5.1591,18.1348 5.1401,18.1308 C4.9771,18.0998 4.8711,17.9428 4.9021,17.7798 L6.9541,7.1508 C6.9861,6.9878 7.1431,6.8808 7.3051,6.9128 C7.4681,6.9448 7.5741,7.1018 7.5431,7.2638 L5.4911,17.8938 C5.4641,18.0358 5.3381,18.1368 5.1971,18.1368" id="Fill-17"></path>
            <path d="M10.0936,18.1368 C9.9276,18.1368 9.7936,18.0018 9.7936,17.8358 L9.7936,7.2068 C9.7936,7.0418 9.9276,6.9078 10.0936,6.9078 C10.2596,6.9078 10.3936,7.0418 10.3936,7.2068 L10.3936,17.8358 C10.3936,18.0018 10.2596,18.1368 10.0936,18.1368" id="Fill-18"></path>
            <path d="M14.9901,18.1368 C14.8491,18.1368 14.7231,18.0368 14.6961,17.8938 L12.6441,7.2638 C12.6131,7.1018 12.7191,6.9448 12.8821,6.9128 C13.0441,6.8818 13.2021,6.9878 13.2331,7.1508 L15.2851,17.7798 C15.3161,17.9428 15.2101,18.0998 15.0481,18.1308 C15.0281,18.1348 15.0091,18.1368 14.9901,18.1368" id="Fill-19"></path>
        </g>
    </g>
</svg>