<?xml version="1.0" encoding="UTF-8"?>
<svg width="32px" height="32px" viewBox="0 0 32 32" version="1.1" xmlns="http://www.w3.org/2000/svg" xmlns:xlink="http://www.w3.org/1999/xlink">
    <title>Icn / Amenity / Accommodation / Bunk Bed</title>
    <g id="Icn-/-Amenity-/-Accommodation-/-Bunk-Bed" stroke="none" stroke-width="1" fill="none" fill-rule="evenodd">
        <g id="Group" transform="translate(4.000000, 7.000000)" fill="#13284C" fill-rule="nonzero">
            <path d="M17.8206154,9.86458462 L5.98430769,9.86458462 C5.3387648,9.86458462 4.71884986,10.1165795 4.26310308,10.5651378 L0.547805434,14.2102884 C0.296445052,14.4564766 0.220814821,14.8284479 0.356,15.1528923 C0.493586344,15.4760387 0.810999899,15.6839692 1.16153846,15.6839692 L22.6421538,15.6839692 C22.9927119,15.6839692 23.3107272,15.476025 23.447253,15.1553961 C23.4922082,15.0477355 23.5146154,14.9349087 23.5146154,14.8219692 C23.5146154,14.5927949 23.4222653,14.3719816 23.2557788,14.2095807 L19.541446,10.5647703 C19.084255,10.1162055 18.4656396,9.86458462 17.8206154,9.86458462 Z M5.98430769,10.5645846 L17.8206154,10.5645846 C18.2827043,10.5645846 18.725181,10.7445614 19.0511885,11.0644177 L22.7662463,14.7099374 C22.7979154,14.7408315 22.8146154,14.7807619 22.8146154,14.8219692 C22.8146154,14.8427275 22.8104168,14.8638687 22.8022467,14.8834389 C22.7771651,14.9423204 22.7134703,14.9839692 22.6421538,14.9839692 L1.16153846,14.9839692 C1.09046895,14.9839692 1.02724016,14.9425495 1.00109918,14.8811578 C0.977096576,14.8235241 0.990774644,14.7562514 1.03782459,14.7101696 L4.75373303,11.0644192 C5.07845937,10.7448154 5.52183249,10.5645846 5.98430769,10.5645846 Z" id="Stroke-1"></path>
            <path d="M0.990061538,14.8220923 L0.990061538,16.8694769 C0.990061538,16.8861031 0.994645637,16.907462 1.00311427,16.9284136 C1.02289341,16.975259 1.06268779,17.0098094 1.1110768,17.0241568 L1.16190769,17.0314769 L22.6425231,17.0314769 C22.7132063,17.0314769 22.7746272,16.9911501 22.7994556,16.932908 L22.811287,16.8969341 L22.8149846,16.8694769 L22.8149846,14.8220923 L23.5149846,14.8220923 L23.5149846,16.8694769 C23.5149846,16.9811705 23.4910565,17.090262 23.4458236,17.2015613 C23.3237814,17.4884518 23.0609162,17.6840135 22.7578576,17.7239298 L22.6425231,17.7314769 L1.16190769,17.7314769 C0.811558598,17.7314769 0.494659151,17.5237931 0.356378644,17.1961997 C0.327852226,17.1259273 0.307886763,17.053782 0.297746056,16.9803994 L0.290061538,16.8694769 L0.290061538,14.8220923 L0.990061538,14.8220923 Z" id="Stroke-3"></path>
            <path d="M17.8206154,0.649753846 L5.98430769,0.649753846 C5.3387648,0.649753846 4.71884986,0.901748699 4.26310308,1.35030705 L0.547805434,4.99545768 C0.296438137,5.24165263 0.220709077,5.61440461 0.356153811,5.93843009 C0.493586344,6.2612079 0.810999899,6.46913846 1.16153846,6.46913846 L22.6421538,6.46913846 C22.9927119,6.46913846 23.3107272,6.26119423 23.447253,5.94056531 C23.4921313,5.8341158 23.5146154,5.7209016 23.5146154,5.60713846 C23.5146154,5.37796412 23.4222653,5.15715083 23.2557788,4.99474989 L19.541446,1.34993952 C19.084255,0.901374695 18.4656396,0.649753846 17.8206154,0.649753846 Z M5.98430769,1.34975385 L17.8206154,1.34975385 C18.2827043,1.34975385 18.725181,1.52973059 19.0511885,1.84958691 L22.7662463,5.49510664 C22.7979154,5.52600076 22.8146154,5.56593117 22.8146154,5.60713846 C22.8146154,5.62830383 22.8105003,5.64902426 22.8027179,5.66748486 C22.7771651,5.72748966 22.7134703,5.76913846 22.6421538,5.76913846 L1.16153846,5.76913846 C1.09046895,5.76913846 1.02724016,5.72771869 1.00109918,5.666327 C0.977141631,5.60899326 0.990893467,5.54130426 1.03782459,5.49533881 L4.75373303,1.84958847 C5.07845937,1.52998461 5.52183249,1.34975385 5.98430769,1.34975385 Z" id="Stroke-5"></path>
            <path d="M0.990061538,5.60726154 L0.990061538,7.65526154 C0.990061538,7.67128952 0.994660837,7.69266868 1.00311427,7.71358286 C1.02300382,7.7606897 1.06295688,7.79545554 1.11125791,7.80989428 L1.16190769,7.81726154 L22.6425231,7.81726154 C22.7128253,7.81726154 22.7744785,7.7766689 22.7994556,7.71807724 L22.8112807,7.68220154 L22.8149846,7.65526154 L22.8149846,5.60726154 L23.5149846,5.60726154 L23.5149846,7.65526154 C23.5149846,7.7664965 23.4910083,7.87555002 23.4458236,7.98673055 C23.3237731,8.27364036 23.0608901,8.46967326 22.7578492,8.50969404 L22.6425231,8.51726154 L1.16190769,8.51726154 C0.811590899,8.51726154 0.494666878,8.30898058 0.356378644,7.98136891 C0.327884766,7.91117668 0.307908456,7.83907221 0.297756903,7.76584521 L0.290061538,7.65526154 L0.290061538,5.60726154 L0.990061538,5.60726154 Z" id="Stroke-7"></path>
            <polygon id="Stroke-9" points="0.966676918 7.84941394 0.965446149 15.0180293 0.265446159 15.0179091 0.266676928 7.84929376"></polygon>
            <polygon id="Stroke-11" points="23.4919077 7.78544398 23.4900615 14.9540594 22.7900616 14.9538791 22.7919077 7.78526371"></polygon>
            <polygon id="Stroke-13" points="4.81055395 8.10250395 5.51055375 8.10303452 5.50870759 10.5387268 4.80870779 10.5381963"></polygon>
            <polygon id="Stroke-15" points="18.1206463 8.0387501 18.8206461 8.03928067 18.8187999 10.474973 18.1188001 10.4744424"></polygon>
        </g>
    </g>
</svg>