<?xml version="1.0" encoding="UTF-8"?>
<svg width="32px" height="32px" viewBox="0 0 32 32" version="1.1" xmlns="http://www.w3.org/2000/svg" xmlns:xlink="http://www.w3.org/1999/xlink">
    <title>Icn / Amenity / Accommodation / Dinette Conversion</title>
    <g id="Icn-/-Amenity-/-Accommodation-/-Dinette-Conversion" stroke="none" stroke-width="1" fill="none" fill-rule="evenodd">
        <g id="Group" transform="translate(3.000000, 6.000000)" fill="#13284C">
            <path d="M19.8297136,8.83647627 L6.43333225,8.83647627 C5.88071806,8.83647627 5.42655335,9.2720339 5.42655335,9.81622069 C5.42655335,10.3604075 5.88071806,10.7959651 6.43333225,10.7959651 L19.8297136,10.7959651 C20.3823278,10.7959651 20.8364925,10.3604075 20.8364925,9.81622069 C20.8364925,9.2720339 20.3823278,8.83647627 19.8297136,8.83647627 Z M6.43333225,9.53647627 L19.8297136,9.53647627 C20.0021279,9.53647627 20.1364925,9.66533593 20.1364925,9.81622069 C20.1364925,9.96710545 20.0021279,10.0959651 19.8297136,10.0959651 L6.43333225,10.0959651 C6.26091791,10.0959651 6.12655335,9.96710545 6.12655335,9.81622069 C6.12655335,9.66533593 6.26091791,9.53647627 6.43333225,9.53647627 Z" id="Stroke-1" fill-rule="nonzero"></path>
            <path d="M14.350443,10.1284892 L12.4911408,10.1080853 L12.4911408,20.1895903 C12.4911408,20.7033281 12.9070541,21.1192414 13.4207919,21.1192414 C13.9345297,21.1192414 14.350443,20.7033281 14.350443,20.1895903 L14.350443,10.1284892 Z M13.191,10.815 L13.65,10.82 L13.650443,20.1895903 C13.650443,20.3167287 13.5479304,20.4192414 13.4207919,20.4192414 C13.2936534,20.4192414 13.1911408,20.3167287 13.1911408,20.1895903 L13.191,10.815 Z" id="Stroke-3" fill-rule="nonzero"></path>
            <g id="Group-7" transform="translate(0.000000, 6.854673)">
                <path d="M9.90829696,11.3275278 L2.79107181,11.3235521 C2.52231724,10.394043 1.37096633,4.81778337 0.623542394,1.09974686 C0.583785801,0.887446653 0.69510426,0.673556187 0.866057606,0.632209331 C1.02269858,0.594043002 1.17933955,0.72683002 1.21830101,0.934359432 L3.17671075,9.92730061 L9.90670669,9.92730061 C9.96952211,9.94479351 10.1341144,10.1904892 10.1341144,10.6270166 C10.1341144,11.0595684 9.97190751,11.3036738 9.90829696,11.3275278 M9.23641055,11.9453452 L9.48528682,11.9453452 M2.86819959,11.9453452 L3.11707586,11.9453452 M9.91147748,9.30948316 L3.67366815,9.30948316 L1.82260122,0.811113996 C1.65403327,-0.182800811 0.786544422,0.0167772819 0.720548479,0.0326799189 C0.233132657,0.150359432 -0.0817395538,0.67912211 0.0184470588,1.2182215 C1.57770061,8.97552779 2.05239432,11.0190166 2.25117728,11.593897 L2.58354239,11.9851018 L3.73250791,11.9453452 L8.62018337,11.9453452 L10.1023091,11.9103594 C10.4823822,11.7823432 10.7511367,11.2734588 10.7511367,10.6270166 C10.7511367,9.87561704 10.3901469,9.30948316 9.91147748,9.30948316" id="Fill-5"></path>
            </g>
            <g id="Group-10" transform="translate(15.902637, 6.854673)">
                <path d="M0.615909128,10.6270961 C0.615909128,10.1905688 0.78050142,9.94487302 0.843316836,9.92738012 L7.57331278,9.92738012 L9.53172252,0.934438945 C9.57068398,0.726909533 9.72732495,0.594122515 9.88396592,0.632288844 C10.0549193,0.6736357 10.1662377,0.887526166 10.1264811,1.09982637 C9.3790572,4.81786288 8.22770629,10.3941225 7.95895172,11.3228365 L0.841726572,11.3276073 C0.778116024,11.3037533 0.615909128,11.0596479 0.615909128,10.6270961 M1.26473671,11.9454247 L1.51361298,11.9454247 M7.63294767,11.9454247 L7.88261907,11.9454247 M-0.000318052738,10.6270961 C-0.000318052738,11.2727432 0.268436511,11.7824227 0.647714402,11.9104389 L2.12984016,11.9454247 L7.01751562,11.9454247 L8.16648114,11.9851813 L8.49884625,11.5939765 C8.69762921,11.0190961 9.17232292,8.9756073 10.7315765,1.21830101 C10.8325582,0.679201623 10.5168909,0.150438945 10.0294751,0.032759432 C9.96347911,0.0168567951 9.09599026,-0.182721298 8.92742231,0.811193509 L7.07635538,9.30956268 L0.838546045,9.30956268 C0.359876673,9.30956268 -0.000318052738,9.87569655 -0.000318052738,10.6270961" id="Fill-8"></path>
            </g>
            <path d="M8.9158929,2.16888114 C8.19311805,2.47580203 7.60472049,3.10077566 7.50453387,3.88239026 C7.50055822,3.93963976 7.4528503,3.98496227 7.39480568,3.98416714 C7.33517079,3.98496227 7.28666775,3.93645923 7.28666775,3.87523408 C7.28746288,2.9695789 7.6349355,2.04006978 8.2368503,1.33876349 C8.78946694,0.694706694 9.55915456,0.238301014 10.4711708,0.169124544 C11.425329,0.0959724138 12.3285988,0.41720568 13.0100268,0.996856795 C13.6898645,1.57173712 14.1478604,2.40185477 14.2210126,3.35124219 L14.2941647,4.3077858 L15.2499132,4.2354288 C15.2697915,4.23304341 15.29126,4.2378142 15.3119335,4.24815091 C15.363617,4.27757079 15.3827002,4.345157 15.3532803,4.39684057 L13.4712032,7.71413063 C13.4648422,7.72685274 13.4545055,7.73639432 13.4425785,7.7459359 C13.3956657,7.78410223 13.3272844,7.77615091 13.2907083,7.728443 L10.930757,4.74351805 C10.9148544,4.72682028 10.9029274,4.70376146 10.9029274,4.67831724 C10.8973615,4.61788722 10.942684,4.56540852 11.003114,4.5598426 L12.0606394,4.47953428 C11.9843067,3.29796836 11.5334669,2.58632535 10.942684,2.23487708 C10.6381485,2.05597241 10.2970369,1.96850791 9.94876917,1.96214686 C9.59891116,1.95499067 9.24348722,2.02893793 8.9158929,2.16888114 M7.6325501,2.94413469 C7.9172073,2.51237809 8.34498824,2.1728568 8.83160892,1.96930304 C9.18703286,1.8158426 9.57267181,1.73632941 9.95433509,1.7434856 C10.3383838,1.75064178 10.7152763,1.84764787 11.0540024,2.04881623 C11.7203229,2.44479189 12.2260268,3.24548966 12.2840714,4.5749501 C12.2864568,4.63458499 12.2411343,4.68388316 12.1830897,4.68785882 L11.2241606,4.76180609 L13.3614751,7.46604949 L15.0622621,4.4676073 L14.2011343,4.53360325 C14.1414994,4.53837404 14.0890207,4.49305152 14.0834548,4.4350069 L14.0015562,3.36793996 C13.9347651,2.47818742 13.5045988,1.70134361 12.8684933,1.16224422 C12.2300024,0.6199643 11.3839822,0.318609331 10.4886637,0.388580933 C9.63628235,0.452986613 8.92145882,0.87838215 8.40223773,1.48109209 C8.04124787,1.90171684 7.77646897,2.40980609 7.6325501,2.94413469" id="Fill-11"></path>
            <path d="M10.4597044,0.0195634431 C11.3551122,-0.0490844832 12.2310325,0.21502203 12.9349177,0.744691142 L13.1072166,0.882602089 L13.2708833,1.02961876 C13.8529385,1.58488836 14.2343046,2.31535719 14.3466558,3.11891633 L14.3705759,3.33980427 L14.432,4.147 L15.2320414,4.08649728 L15.282668,4.08595537 L15.3338151,4.09641445 L15.3861382,4.1177912 C15.4890824,4.17639022 15.5371121,4.29664709 15.509532,4.40665829 L15.4837452,4.4708603 L13.6053673,7.78121267 C13.5878746,7.81619821 13.5672536,7.8380817 13.5372416,7.86229265 C13.4436042,7.93847223 13.3133465,7.93792389 13.2223333,7.87013747 L13.1730417,7.82147296 L10.8221363,4.84696633 C10.7796026,4.80230588 10.7529274,4.74308701 10.7535596,4.6920748 C10.7422415,4.56919194 10.8188617,4.4597193 10.9322402,4.42255628 L10.9917557,4.41027325 L11.897,4.341 L11.8916122,4.26804466 C11.8035486,3.47646374 11.5281261,2.89780225 11.1091867,2.5384396 L10.9914052,2.44587356 L10.8667048,2.36421059 C10.5921118,2.20289621 10.2781489,2.11818794 9.94570163,2.11211549 C9.62223467,2.10549912 9.28783369,2.1731071 8.97452218,2.30694854 C8.31099588,2.58870998 7.82181891,3.1227336 7.6818023,3.73750584 L7.65417349,3.8927819 C7.64468975,4.02934778 7.53050019,4.13604004 7.3968055,4.13415381 C7.25280551,4.13607381 7.13666781,4.01934651 7.13666781,3.87510238 C7.13749514,2.93276814 7.49837979,1.96886118 8.12301143,1.24108693 C8.73252259,0.530721398 9.5492763,0.088619408 10.4597044,0.0195634431 Z M10.7077795,0.528822118 L10.500351,0.538124932 C9.72966504,0.596358231 9.04086487,0.969596809 8.51606544,1.57878166 C8.3686812,1.75051351 8.23750303,1.93812362 8.12475968,2.13711697 L8.063,2.254 L8.22187678,2.13419196 C8.33557244,2.05470838 8.45560926,1.98294938 8.58075445,1.91978441 L8.77214942,1.83159114 C9.15013727,1.66838834 9.55709041,1.5860109 9.95712964,1.59351163 C10.3778362,1.60135088 10.7778399,1.71034489 11.130633,1.91986758 C11.9072767,2.38140521 12.3778187,3.28325953 12.4339515,4.5689549 C12.4387679,4.68936376 12.3609076,4.79365121 12.2516377,4.82694065 L12.1946226,4.83741481 L11.516,4.889 L13.341,7.198 L14.792,4.639 L14.2130961,4.68312554 C14.0921697,4.69279964 13.9834479,4.61683659 13.9462554,4.50510275 L13.9338946,4.4464858 L13.851977,3.37916842 C13.7901628,2.55571475 13.3981235,1.80772919 12.7713915,1.27657375 C12.2485082,0.832481056 11.5975937,0.570589508 10.9138066,0.533246287 L10.7077795,0.528822118 Z" id="Stroke-13" fill-rule="nonzero"></path>
        </g>
    </g>
</svg>