<?xml version="1.0" encoding="UTF-8"?>
<svg width="32px" height="32px" viewBox="0 0 32 32" version="1.1" xmlns="http://www.w3.org/2000/svg" xmlns:xlink="http://www.w3.org/1999/xlink">
    <title>Icn / Amenity / Accommodation / King Bed</title>
    <g id="Icn-/-Amenity-/-Accommodation-/-King-Bed" stroke="none" stroke-width="1" fill="none" fill-rule="evenodd">
        <g id="Group" transform="translate(3.000000, 3.000000)" fill="#13284C" fill-rule="nonzero">
            <path d="M20.808,0.65 L14.9193333,0.65 C14.1347003,0.65 13.4986667,1.28603367 13.4986667,2.07066667 L13.4986667,4.74733333 C13.4986667,5.53196633 14.1347003,6.168 14.9193333,6.168 L20.808,6.168 C21.592633,6.168 22.2286667,5.53196633 22.2286667,4.74733333 L22.2286667,2.07066667 C22.2286667,1.28603367 21.592633,0.65 20.808,0.65 Z M14.9193333,1.35 L20.808,1.35 C21.2060337,1.35 21.5286667,1.672633 21.5286667,2.07066667 L21.5286667,4.74733333 C21.5286667,5.145367 21.2060337,5.468 20.808,5.468 L14.9193333,5.468 C14.5212997,5.468 14.1986667,5.145367 14.1986667,4.74733333 L14.1986667,2.07066667 C14.1986667,1.672633 14.5212997,1.35 14.9193333,1.35 Z" id="Stroke-1"></path>
            <path d="M10.6361333,0.65 L4.74746667,0.65 C3.96283367,0.65 3.3268,1.28603367 3.3268,2.07066667 L3.3268,4.74733333 C3.3268,5.53196633 3.96283367,6.168 4.74746667,6.168 L10.6361333,6.168 C11.4207663,6.168 12.0568,5.53196633 12.0568,4.74733333 L12.0568,2.07066667 C12.0568,1.28603367 11.4207663,0.65 10.6361333,0.65 Z M4.74746667,1.35 L10.6361333,1.35 C11.034167,1.35 11.3568,1.672633 11.3568,2.07066667 L11.3568,4.74733333 C11.3568,5.145367 11.034167,5.468 10.6361333,5.468 L4.74746667,5.468 C4.349433,5.468 4.0268,5.145367 4.0268,4.74733333 L4.0268,2.07066667 C4.0268,1.672633 4.349433,1.35 4.74746667,1.35 Z" id="Stroke-3"></path>
            <polygon id="Stroke-5" points="13.8484 2.25606667 13.8484 2.95606667 11.7070667 2.95606667 11.7070667 2.25606667"></polygon>
            <path d="M3.67666667,2.25593333 L3.67666667,2.95593333 L2.07066667,2.95593333 C1.70580247,2.95593333 1.40429578,3.22703467 1.35657845,3.5788055 L1.35,3.6766 L1.35,9.55726667 L0.65,9.55726667 L0.65,3.6766 C0.65,2.93812189 1.21340699,2.33127501 1.93384379,2.26243655 L2.07066667,2.25593333 L3.67666667,2.25593333 Z" id="Stroke-7"></path>
            <path d="M23.4849333,2.25606667 C24.2234114,2.25606667 24.8302583,2.81947366 24.8990968,3.53991045 L24.9056,3.67673333 L24.9056,5.81806667 L24.2056,5.81806667 L24.2056,3.67673333 C24.2056,3.31186914 23.9344987,3.01036245 23.5827278,2.96264511 L23.4849333,2.95606667 L21.8789333,2.95606667 L21.8789333,2.25606667 L23.4849333,2.25606667 Z" id="Stroke-9"></path>
            <path d="M24.4140942,7.63916335 L24.6965724,8.27963665 L6.96180891,16.1013665 C5.97317782,16.5670368 4.80482108,16.3340892 4.07048085,15.5437939 L3.95221473,15.4069416 L0.726881392,11.3822749 L1.27311861,10.9445251 L4.49820046,14.9688783 C4.98513545,15.5750627 5.80208677,15.794343 6.52765682,15.5249262 L6.67142755,15.4644967 L24.4140942,7.63916335 Z" id="Stroke-11"></path>
            <path d="M24.9053333,23.4847333 L24.9053333,7.01412264 L0.65,10.8645787 L0.65,23.4847333 C0.65,24.2693663 1.28603367,24.9054 2.07066667,24.9054 L23.4853333,24.9054 C24.2694365,24.9054 24.9053333,24.2692295 24.9053333,23.4847333 Z M1.35,11.462 L24.205,7.833 L24.2053333,23.4847333 C24.2053333,23.8826976 23.8827697,24.2054 23.4853333,24.2054 L2.07066667,24.2054 L1.97287217,24.1988216 C1.62110134,24.1511042 1.35,23.8495975 1.35,23.4847333 L1.35,11.462 Z" id="Stroke-13"></path>
        </g>
    </g>
</svg>