<?xml version="1.0" encoding="UTF-8"?>
<svg width="32px" height="32px" viewBox="0 0 32 32" version="1.1" xmlns="http://www.w3.org/2000/svg" xmlns:xlink="http://www.w3.org/1999/xlink">
    <title>Icn / Amenity / Accommodation / Queen Bed</title>
    <g id="Icn-/-Amenity-/-Accommodation-/-Queen-Bed" stroke="none" stroke-width="1" fill="none" fill-rule="evenodd">
        <g id="Group" transform="translate(5.000000, 3.000000)" fill="#13284C" fill-rule="nonzero">
            <path d="M17.8182,0.65 L12.8182,0.65 C12.1085264,0.65 11.5588667,1.29739559 11.5588667,2.07066667 L11.5588667,4.74733333 C11.5588667,5.52060441 12.1085264,6.168 12.8182,6.168 L17.8182,6.168 C18.5273915,6.168 19.0775333,5.52036465 19.0775333,4.74733333 L19.0775333,2.07066667 C19.0775333,1.29763535 18.5273915,0.65 17.8182,0.65 Z M12.8182,1.35 L17.8182,1.35 C18.1131662,1.35 18.3775333,1.66121697 18.3775333,2.07066667 L18.3775333,4.74733333 C18.3775333,5.15678303 18.1131662,5.468 17.8182,5.468 L12.8182,5.468 C12.5228431,5.468 12.2588667,5.15708556 12.2588667,4.74733333 L12.2588667,2.07066667 C12.2588667,1.66091444 12.5228431,1.35 12.8182,1.35 Z" id="Stroke-1"></path>
            <path d="M9.18146667,0.65 L4.18146667,0.65 C3.47227519,0.65 2.92213333,1.29763535 2.92213333,2.07066667 L2.92213333,4.74733333 C2.92213333,5.52036465 3.47227519,6.168 4.18146667,6.168 L9.18146667,6.168 C9.89069403,6.168 10.4414667,5.52027801 10.4414667,4.74733333 L10.4414667,2.07066667 C10.4414667,1.29772199 9.89069403,0.65 9.18146667,0.65 Z M4.18146667,1.35 L9.18146667,1.35 C9.47665135,1.35 9.74146667,1.66142924 9.74146667,2.07066667 L9.74146667,4.74733333 C9.74146667,5.15657076 9.47665135,5.468 9.18146667,5.468 L4.18146667,5.468 C3.88650044,5.468 3.62213333,5.15678303 3.62213333,4.74733333 L3.62213333,2.07066667 C3.62213333,1.66121697 3.88650044,1.35 4.18146667,1.35 Z" id="Stroke-3"></path>
            <polygon id="Stroke-5" points="11.9091333 2.25606667 11.9091333 2.95606667 10.0911333 2.95606667 10.0911333 2.25606667"></polygon>
            <path d="M3.272,2.25593333 L3.272,2.95593333 L1.90866667,2.95593333 C1.64071429,2.95593333 1.39824006,3.21296181 1.35636832,3.56747954 L1.35,3.6766 L1.35,9.55726667 L0.65,9.55726667 L0.65,3.6766 C0.65,2.94895923 1.136764,2.33254999 1.7852581,2.26254904 L1.90866667,2.25593333 L3.272,2.25593333 Z" id="Stroke-7"></path>
            <path d="M20.0905333,2.25606667 C20.7580077,2.25606667 21.2845938,2.82975057 21.3442355,3.54172403 L21.3498667,3.67673333 L21.3498667,5.81806667 L20.6498667,5.81806667 L20.6498667,3.67673333 C20.6498667,3.30450634 20.4313815,3.01346341 20.1700444,2.96362277 L20.0905333,2.95606667 L18.7272,2.95606667 L18.7272,2.25606667 L20.0905333,2.25606667 Z" id="Stroke-9"></path>
            <path d="M20.8386668,7.64880124 L21.1613332,8.26999876 L6.10455068,16.0907389 C5.2291673,16.5767223 4.19056105,16.3327524 3.55135624,15.5247896 L3.44861674,15.3849355 L0.710616743,11.3602688 L1.28938326,10.9665312 L4.02720596,14.9909375 C4.42609657,15.5761454 5.07241147,15.7834608 5.65059483,15.5344965 L5.77333344,15.4741346 L20.8386668,7.64880124 Z" id="Stroke-11"></path>
            <path d="M21.35,23.4847333 L21.35,7.00256349 L0.65,10.8727735 L0.65,23.4847333 C0.65,24.2578517 1.19951092,24.9054 1.90866667,24.9054 L20.0906667,24.9054 C20.7998581,24.9054 21.35,24.2577647 21.35,23.4847333 Z M1.35,11.454 L20.65,7.845 L20.65,23.4847333 C20.65,23.894183 20.3856329,24.2054 20.0906667,24.2054 L1.90866667,24.2054 L1.82922042,24.1978487 C1.56811491,24.1480384 1.35,23.8571535 1.35,23.4847333 L1.35,11.454 Z" id="Stroke-13"></path>
        </g>
    </g>
</svg>