<?xml version="1.0" encoding="UTF-8"?>
<svg width="32px" height="32px" viewBox="0 0 32 32" version="1.1" xmlns="http://www.w3.org/2000/svg" xmlns:xlink="http://www.w3.org/1999/xlink">
    <title>Icn / Amenity / Accommodation / Single Bed</title>
    <g id="Icn-/-Amenity-/-Accommodation-/-Single-Bed" stroke="none" stroke-width="1" fill="none" fill-rule="evenodd">
        <g id="Group" transform="translate(9.000000, 3.000000)" fill="#13284C" fill-rule="nonzero">
            <path d="M9.86166667,0.649666667 L4.625,0.649666667 C3.96076131,0.649666667 3.46966667,1.31035603 3.46966667,2.083 L3.46966667,5.333 C3.46966667,6.10564397 3.96076131,6.76633333 4.625,6.76633333 L9.86166667,6.76633333 C10.5254137,6.76633333 11.017,6.10536043 11.017,5.333 L11.017,2.083 C11.017,1.31063957 10.5254137,0.649666667 9.86166667,0.649666667 Z M4.625,1.34966667 L9.86166667,1.34966667 C10.0862953,1.34966667 10.317,1.65986557 10.317,2.083 L10.317,5.333 C10.317,5.75613443 10.0862953,6.06633333 9.86166667,6.06633333 L4.625,6.06633333 C4.39999007,6.06633333 4.16966667,5.75647 4.16966667,5.333 L4.16966667,2.083 C4.16966667,1.65953 4.39999007,1.34966667 4.625,1.34966667 Z" id="Stroke-1"></path>
            <polygon id="Stroke-3" points="12.278 2.27493333 12.278 2.97493333 10.6666667 2.97493333 10.6666667 2.27493333"></polygon>
            <path d="M3.81933333,2.2748 L3.81933333,2.9748 L1.80533333,2.9748 C1.60316753,2.9748 1.39608017,3.22606111 1.35668436,3.58477833 L1.35,3.70813333 L1.35,9.65813333 L0.65,9.65813333 L0.65,3.70813333 C0.65,2.98404543 1.08205828,2.35785672 1.68297626,2.2824116 L1.80533333,2.2748 L3.81933333,2.2748 Z" id="Stroke-5"></path>
            <path d="M13.0824,2.27493333 C13.7056003,2.27493333 14.1763157,2.85547263 14.2327207,3.56481473 L14.2384,3.70826667 L14.2384,5.87493333 L13.5384,5.87493333 L13.5384,3.70826667 C13.5384,3.32704231 13.3517992,3.03802179 13.1499958,2.98402994 L13.0824,2.97493333 L11.8744,2.97493333 L11.8744,2.27493333 L13.0824,2.27493333 Z" id="Stroke-7"></path>
            <path d="M13.6419971,7.25149751 L14.1353362,7.74810249 L5.56061546,16.2548112 C4.75465921,16.7653033 3.79613197,16.5074558 3.21981806,15.6773518 L3.12739646,15.533736 L0.699396458,11.4624027 L1.30060354,11.103864 L3.72866396,15.1752986 C4.0723459,15.7520353 4.60439565,15.9509559 5.03037722,15.7614604 L5.12666377,15.7108308 L13.6419971,7.25149751 Z" id="Stroke-9"></path>
            <path d="M14.2386667,23.7498 L14.2386667,7.03229374 L0.65,11.0211048 L0.65,23.7498 C0.65,24.5221604 1.14158631,25.1831333 1.80533333,25.1831333 L13.0826667,25.1831333 C13.7474137,25.1831333 14.2386667,24.5226086 14.2386667,23.7498 Z M1.35,11.544 L13.538,7.967 L13.5386667,23.7498 C13.5386667,24.1733826 13.3082953,24.4831333 13.0826667,24.4831333 L1.80533333,24.4831333 L1.73799923,24.4740246 C1.53687078,24.4199642 1.35,24.130621 1.35,23.7498 L1.35,11.544 Z" id="Stroke-11"></path>
        </g>
    </g>
</svg>