<?xml version="1.0" encoding="UTF-8"?>
<svg width="32px" height="32px" viewBox="0 0 32 32" version="1.1" xmlns="http://www.w3.org/2000/svg" xmlns:xlink="http://www.w3.org/1999/xlink">
    <title>Icn / Amenity / Accommodation / Twin Bed</title>
    <g id="Icn-/-Amenity-/-Accommodation-/-Twin-Bed" stroke="none" stroke-width="1" fill="none" fill-rule="evenodd">
        <g id="Group" transform="translate(6.000000, 3.000000)" fill="#13284C" fill-rule="nonzero">
            <path d="M12.9166667,0.649666667 L5.87533333,0.649666667 C5.08356389,0.649666667 4.442,1.29150333 4.442,2.083 L4.442,5.333 C4.442,6.12449667 5.08356389,6.76633333 5.87533333,6.76633333 L12.9166667,6.76633333 C13.7074966,6.76633333 14.35,6.12410286 14.35,5.333 L14.35,2.083 C14.35,1.29189714 13.7074966,0.649666667 12.9166667,0.649666667 Z M5.87533333,1.34966667 L12.9166667,1.34966667 C13.3209638,1.34966667 13.65,1.67856307 13.65,2.083 L13.65,5.333 C13.65,5.73743693 13.3209638,6.06633333 12.9166667,6.06633333 L5.87533333,6.06633333 C5.47022984,6.06633333 5.142,5.73796394 5.142,5.333 L5.142,2.083 C5.142,1.67803606 5.47022984,1.34966667 5.87533333,1.34966667 Z" id="Stroke-1"></path>
            <polygon id="Stroke-3" points="16.166 2.27493333 16.166 2.97493333 14 2.97493333 14 2.27493333"></polygon>
            <path d="M4.792,2.2748 L4.792,2.9748 L2.08333333,2.9748 C1.71235802,2.9748 1.40530041,3.250943 1.35670036,3.60868915 L1.35,3.70813333 L1.35,9.65813333 L0.65,9.65813333 L0.65,3.70813333 C0.65,2.96338071 1.21872187,2.35084986 1.94534199,2.28136441 L2.08333333,2.2748 L4.792,2.2748 Z" id="Stroke-5"></path>
            <path d="M17.2503333,2.27493333 C17.9945869,2.27493333 18.6069676,2.84377609 18.6764371,3.57029666 L18.683,3.70826667 L18.683,5.87493333 L17.983,5.87493333 L17.983,3.70826667 C17.983,3.33735541 17.7069157,3.03024442 17.349639,2.98163503 L17.2503333,2.97493333 L15.625,2.97493333 L15.625,2.27493333 L17.2503333,2.27493333 Z" id="Stroke-7"></path>
            <path d="M18.1253868,7.21827161 L18.5412799,7.78132839 L7.02979646,16.2757724 C6.03146958,16.7459616 4.85051792,16.5100093 4.11013404,15.7116382 L3.99092291,15.5733934 L0.726922913,11.50206 L1.27307709,11.0642066 L4.53712226,15.1355963 C5.02744381,15.747455 5.8511059,15.9709864 6.52970152,15.7351893 L6.67272012,15.6776049 L18.1253868,7.21827161 Z" id="Stroke-9"></path>
            <path d="M18.6833333,23.7498 L18.6833333,7.06516552 L0.65,11.0012873 L0.65,23.7498 C0.65,24.5410997 1.29203367,25.1831333 2.08333333,25.1831333 L17.25,25.1831333 C18.0412997,25.1831333 18.6833333,24.5410997 18.6833333,23.7498 Z M1.35,11.565 L17.983,7.934 L17.9833333,23.7498 C17.9833333,24.1545003 17.6547003,24.4831333 17.25,24.4831333 L2.08333333,24.4831333 L1.98388915,24.476433 C1.626143,24.4278329 1.35,24.1207753 1.35,23.7498 L1.35,11.565 Z" id="Stroke-11"></path>
        </g>
    </g>
</svg>