<?xml version="1.0" encoding="UTF-8"?>
<svg width="48px" height="48px" viewBox="0 0 48 48" version="1.1" xmlns="http://www.w3.org/2000/svg" xmlns:xlink="http://www.w3.org/1999/xlink">
    <defs>
        <linearGradient x1="50.0995503%" y1="99.9997425%" x2="50.0995503%" y2="0.0754863483%" id="linearGradient-1">
            <stop stop-color="#00A5B5" offset="0%"></stop>
            <stop stop-color="#006E96" offset="100%"></stop>
        </linearGradient>
    </defs>
    <g id="⚙️-Symbols" stroke="none" stroke-width="1" fill="none" fill-rule="evenodd">
        <g id="Header-/-O-/-Normal-/-Desktop" transform="translate(-24.000000, -8.000000)" fill-rule="nonzero">
            <g id="Logo" transform="translate(24.000000, 8.000000)">
                <circle id="Oval" fill="url(#linearGradient-1)" cx="24" cy="24" r="24"></circle>
                <g id="Logo-/-Icon-/-White" transform="translate(14.000000, 8.000000)" fill="#FFFFFF">
                    <path d="M12.0534214,31.289623 C12.149116,31.3491615 12.2448107,31.4087 12.3405053,31.4682385 C12.2687344,31.4801462 12.1969634,31.5039617 12.1251924,31.5158694 C11.7065283,31.611131 11.2878642,31.7302081 10.9050856,31.8492851 C10.7974291,31.8850082 10.6658489,31.8969159 10.5581925,31.9207314 C10.5581925,31.9207314 10.5581925,31.9088236 10.5462306,31.9088236 C10.522307,31.8969159 10.4983833,31.8850082 10.450536,31.8850082 C10.4385741,31.8850082 10.4146505,31.8969159 10.3548413,31.9564545 C9.5414368,32.0755315 8.71607043,31.9326391 7.87874223,31.7421158 C7.80697124,31.6944849 7.74716209,31.6349464 7.6753911,31.5754079 C7.57969645,31.4920539 7.4840018,31.3967923 7.40026898,31.3015307 C7.34045982,31.2300844 7.30457433,31.1586382 7.24476517,31.087192 C6.8739484,30.68233 6.58686444,30.2060217 6.40743697,29.6820827 C6.28781866,29.3248515 6.2280095,28.9318972 6.20408584,28.5508507 C6.20408584,27.93165 6.12035302,27.2529107 5.95288738,26.6218023 C5.85719273,26.2645712 5.73757441,25.9192477 5.57010877,25.5858319 C5.49833779,25.4429395 5.41460497,25.300047 5.28302482,25.1928777 C5.21125383,25.1452468 5.17536834,25.0618929 5.12752101,24.9904467 L4.92416988,24.7403848 L4.69689508,24.5141384 L4.24234549,24.1092764 C3.82368139,23.7520453 3.40501729,23.3829064 2.9863532,23.0375829 C2.66338375,22.7756134 2.41218529,22.4541054 2.07725401,22.2040435 C2.05333035,22.1802281 2.02940668,22.1564127 2.00548302,22.1325973 C1.63466625,21.7515507 1.33562046,21.3705042 1.09638384,20.929919 C0.881070871,20.5250571 0.689681569,20.0844719 0.558101424,19.6557945 C0.498292267,19.4414558 0.474368604,19.2271171 0.474368604,19.0127784 C0.617910581,19.3223788 0.821261714,19.5843483 1.02461285,19.8463178 C1.3475823,20.2392721 1.71839907,20.5965033 2.12510134,20.9061036 C2.26864331,21.013273 2.42414712,21.1204423 2.57965093,21.215704 C3.03420052,21.4895812 3.52463561,21.6801045 3.99114703,21.8944432 C4.42177296,22.0968742 4.86436072,22.2993052 5.28302482,22.5255516 L5.3906813,22.5850901 C5.77345991,22.7875211 6.15623851,22.9899521 6.51509345,23.2400139 C6.90983389,23.5019835 7.256727,23.8115838 7.59165828,24.1449996 C7.75912392,24.3117074 7.91462773,24.490323 8.07013153,24.6689386 C8.14190252,24.7522926 8.22563534,24.8237388 8.2854445,24.9070927 C8.50075746,25.1928777 8.69214677,25.4905703 8.87157424,25.8001707 C9.02707805,26.0740479 9.13473453,26.3717405 9.23042918,26.6813409 C9.314162,26.9671258 9.35004749,27.2767262 9.40985665,27.5863265 C9.45770398,27.8602037 9.52947496,28.134081 9.62516962,28.4198659 C9.74478793,28.7890048 9.91225357,29.1343282 10.1156047,29.4558363 C10.4146505,29.9083291 10.7735054,30.3131911 11.1682459,30.6704223 C11.2041314,30.7061454 11.2400169,30.7418685 11.2759023,30.7656839 C11.515139,30.9323918 11.7782993,31.1110074 12.0534214,31.289623 Z M3.39305546,21.9539817 C3.39305546,21.942074 3.38109363,21.942074 3.39305546,21.9539817 C3.35716997,21.942074 3.33324631,21.942074 3.32128447,21.9301663 C3.29736081,21.9182586 3.28539898,21.9063509 3.26147532,21.8944432 C3.20166616,21.8468124 3.12989517,21.8110893 3.07008601,21.7634584 C3.03420052,21.739643 3.01027686,21.6920122 2.96242953,21.6681968 C2.91458221,21.6443814 2.86673488,21.6324737 2.80692572,21.620566 C2.79496389,21.620566 2.74711657,21.6443814 2.59161276,21.8349047 C2.57965093,21.8706278 2.57965093,21.8944432 2.57965093,21.9063509 C2.57965093,21.9182586 2.93850587,22.1206896 2.96242953,22.1683204 C2.97439136,22.1802281 2.97439136,22.2040435 2.9863532,22.227859 C2.99831503,22.2397667 3.01027686,22.2516744 3.02223869,22.2516744 C3.05812418,22.2635821 3.10597151,22.2397667 3.12989517,22.2754898 C3.141857,22.2873975 3.22558982,22.1802281 3.24951349,22.1802281 C3.24951349,22.1802281 3.27343715,22.1564127 3.27343715,22.144505 C3.33324631,22.0730588 3.38109363,21.9777971 3.39305546,21.9539817 Z M4.61316226,22.8113365 C4.61316226,22.8113365 4.61316226,22.8113365 4.61316226,22.8113365 C4.57727677,22.7994288 4.55335311,22.7875211 4.54139128,22.7756134 C4.51746761,22.7637057 4.50550578,22.751798 4.48158212,22.7279826 C4.42177296,22.6803518 4.35000197,22.6327209 4.29019282,22.5850901 C4.25430732,22.5612747 4.23038366,22.5136439 4.19449817,22.4898285 C4.14665084,22.4660131 4.09880351,22.4421977 4.03899436,22.43029 C4.02703253,22.43029 3.9791852,22.4541054 3.82368139,22.6446287 C3.81171956,22.6803518 3.81171956,22.7041672 3.81171956,22.7160749 C3.81171956,22.7279826 4.14665084,22.954229 4.1705745,22.9899521 C4.18253633,23.0018598 4.18253633,23.0256752 4.19449817,23.0494906 C4.20646,23.0613984 4.21842183,23.0733061 4.23038366,23.0733061 C4.26626915,23.0852138 4.31411648,23.0733061 4.33804014,23.0971215 C4.35000197,23.1090292 4.44569662,23.0018598 4.45765846,23.0137675 C4.45765846,23.0137675 4.48158212,22.9899521 4.49354395,22.9780444 C4.54139128,22.9304136 4.60120043,22.8470597 4.61316226,22.8113365 Z M5.79738357,23.7044145 C5.79738357,23.6925068 5.79738357,23.7044145 5.79738357,23.7044145 C5.76149808,23.6925068 5.73757441,23.680599 5.72561258,23.6686913 C5.70168892,23.6567836 5.68972709,23.6448759 5.66580343,23.6210605 C5.60599427,23.5734297 5.53422328,23.5257989 5.47441412,23.4781681 C5.43852863,23.4543526 5.41460497,23.4067218 5.37871947,23.3829064 C5.33087215,23.359091 5.28302482,23.3352756 5.22321566,23.3233679 C5.21125383,23.3233679 5.16340651,23.3471833 5.0079027,23.5377066 C4.99594087,23.5734297 4.99594087,23.5972451 4.99594087,23.6091528 C4.99594087,23.6210605 5.33087215,23.8473069 5.35479581,23.88303 C5.36675764,23.8949377 5.36675764,23.9187532 5.37871947,23.9425686 C5.3906813,23.9544763 5.3906813,23.966384 5.41460497,23.966384 C5.45049046,23.9782917 5.49833779,23.966384 5.52226145,23.9901994 C5.53422328,24.0021071 5.62991793,23.9068455 5.65384159,23.9068455 C5.65384159,23.9068455 5.67776526,23.88303 5.68972709,23.8711223 C5.72561258,23.8234915 5.78542174,23.7282299 5.79738357,23.7044145 Z M6.92179572,24.7165694 C6.92179572,24.7046617 6.92179572,24.7046617 6.92179572,24.7165694 C6.89787206,24.692754 6.8739484,24.692754 6.85002473,24.6689386 C6.82610107,24.6570309 6.81413924,24.6332155 6.80217741,24.6213078 C6.74236825,24.5617693 6.68255909,24.5141384 6.62274994,24.4545999 C6.58686444,24.4188768 6.57490261,24.371246 6.53901712,24.3474306 C6.49116979,24.3117074 6.44332247,24.287892 6.38351331,24.2640766 C6.37155148,24.2640766 6.32370415,24.287892 6.14427668,24.4545999 C6.13231485,24.490323 6.12035302,24.5141384 6.12035302,24.5260461 C6.12035302,24.5379539 6.4193988,24.7999234 6.43136063,24.8356465 C6.44332247,24.8475542 6.44332247,24.8713696 6.44332247,24.895185 C6.44332247,24.9070927 6.4552843,24.9190004 6.46724613,24.9190004 C6.50313162,24.9309081 6.55097895,24.9309081 6.57490261,24.9547235 C6.58686444,24.9666313 6.69452093,24.8832773 6.70648276,24.895185 C6.70648276,24.895185 6.73040642,24.8713696 6.74236825,24.8594619 C6.82610107,24.8118311 6.90983389,24.7403848 6.92179572,24.7165694 Z M7.4840018,26.1216787 C7.4840018,26.1216787 7.51988729,26.1216787 7.53184912,26.109771 C7.61558194,26.0978633 7.71127659,26.0621402 7.73520026,26.0383248 C7.74716209,26.0264171 7.73520026,26.0264171 7.73520026,26.0264171 C7.72323842,26.0026016 7.69931476,25.9906939 7.69931476,25.9668785 C7.68735293,25.9430631 7.68735293,25.9192477 7.6753911,25.8954323 C7.65146744,25.8120784 7.61558194,25.7406321 7.57969645,25.6572782 C7.55577279,25.6096474 7.55577279,25.5620165 7.53184912,25.5143857 C7.49596363,25.4667549 7.46007813,25.4191241 7.40026898,25.383401 C7.38830715,25.3714932 7.32849799,25.383401 7.12514686,25.502478 C7.10122319,25.5262934 7.08926136,25.5501088 7.08926136,25.5620165 C7.08926136,25.5739242 7.28065066,25.8835246 7.26868883,25.9430631 C7.26868883,25.9549708 7.256727,25.9787862 7.256727,26.0026016 C7.256727,26.0145094 7.256727,26.0264171 7.26868883,26.0383248 C7.29261249,26.0621402 7.34045982,26.0859556 7.34045982,26.109771 C7.32849799,26.1335864 7.47203997,26.109771 7.4840018,26.1216787 Z M8.07013153,27.4910649 C8.08209337,27.4910649 8.07013153,27.4910649 8.07013153,27.4910649 C8.0581697,27.4553417 8.04620787,27.443434 8.03424604,27.4196186 C8.02228421,27.3958032 8.02228421,27.3719878 8.02228421,27.3481724 C8.01032238,27.2767262 7.98639872,27.1933722 7.97443688,27.121926 C7.96247505,27.0742952 7.97443688,27.0266643 7.96247505,26.9909412 C7.95051322,26.9433104 7.91462773,26.8956796 7.87874223,26.8480487 C7.8667804,26.836141 7.81893308,26.8242333 7.57969645,26.8599565 C7.55577279,26.8837719 7.53184912,26.8956796 7.51988729,26.9075873 C7.50792546,26.919495 7.61558194,27.3124493 7.61558194,27.3600801 C7.61558194,27.3838955 7.60362011,27.3958032 7.59165828,27.4196186 C7.59165828,27.4315263 7.59165828,27.443434 7.60362011,27.4553417 C7.62754377,27.4910649 7.6753911,27.5148803 7.6753911,27.5506034 C7.6753911,27.5744188 7.81893308,27.5506034 7.81893308,27.5625111 C7.81893308,27.5625111 7.85481857,27.5625111 7.8667804,27.5506034 C7.93855139,27.5386957 8.04620787,27.5148803 8.07013153,27.4910649 Z M8.26152084,28.9676204 C8.34525366,28.9557126 8.44094831,28.9199895 8.46487197,28.8961741 C8.4768338,28.8842664 8.46487197,28.8842664 8.46487197,28.8842664 C8.45291014,28.860451 8.44094831,28.8485433 8.42898648,28.8247279 C8.41702465,28.8009125 8.41702465,28.7770971 8.40506281,28.7532816 C8.38113915,28.6818354 8.35721549,28.5984815 8.33329183,28.5270352 C8.32132999,28.4794044 8.33329183,28.4317736 8.30936816,28.3960505 C8.2854445,28.3484197 8.26152084,28.3007888 8.21367351,28.253158 C8.20171168,28.2412503 8.15386435,28.2412503 7.91462773,28.2888811 C7.89070406,28.3126965 7.8667804,28.3246042 7.8667804,28.336512 C7.8667804,28.3484197 7.99836055,28.7294662 7.99836055,28.7770971 C7.99836055,28.8009125 7.98639872,28.8128202 7.98639872,28.8366356 C7.98639872,28.8485433 7.98639872,28.860451 7.99836055,28.8723587 C8.02228421,28.8961741 8.07013153,28.9199895 8.07013153,28.9557126 C8.07013153,28.9795281 8.21367351,28.9438049 8.22563534,28.9557126 C8.21367351,28.9795281 8.24955901,28.9676204 8.26152084,28.9676204 Z M9.03903988,30.1702986 C9.02707805,30.1583909 9.00315438,30.1464832 8.99119255,30.1226678 C8.97923072,30.1107601 8.96726889,30.0869447 8.95530706,30.0631293 C8.91942156,30.0035907 8.87157424,29.9440522 8.83568874,29.872606 C8.81176508,29.8368829 8.81176508,29.789252 8.78784142,29.7535289 C8.76391776,29.7058981 8.72803226,29.670175 8.68018494,29.6344519 C8.6682231,29.6225442 8.62037578,29.6344519 8.38113915,29.7058981 C8.35721549,29.7297135 8.33329183,29.7535289 8.33329183,29.7654366 C8.33329183,29.7773443 8.38113915,29.872606 8.42898648,29.9678676 C8.4768338,30.075037 8.54860479,30.1583909 8.54860479,30.194114 C8.54860479,30.2179294 8.54860479,30.2417449 8.54860479,30.2536526 C8.54860479,30.2655603 8.56056662,30.277468 8.57252845,30.2893757 C8.60841395,30.3131911 8.65626127,30.3250988 8.6682231,30.3489142 C8.68018494,30.3727296 8.79980325,30.3012834 8.81176508,30.3131911 C8.81176508,30.3131911 8.83568874,30.3012834 8.85961241,30.2893757 C8.94334523,30.2655603 9.02707805,30.194114 9.03903988,30.1702986 C9.05100171,30.1702986 9.05100171,30.1702986 9.03903988,30.1702986 Z M9.97206273,31.289623 C9.97206273,31.2777152 9.96010089,31.2777152 9.97206273,31.289623 C9.94813906,31.2658075 9.9242154,31.2658075 9.90029174,31.2419921 C9.87636807,31.2300844 9.86440624,31.206269 9.85244441,31.1943613 C9.79263525,31.1348228 9.74478793,31.0752843 9.6969406,31.0157457 C9.67301694,30.9800226 9.66105511,30.9323918 9.62516962,30.9085764 C9.58928412,30.8728533 9.5414368,30.8490378 9.48162764,30.8252224 C9.46966581,30.8133147 9.42181848,30.8371301 9.21846735,30.9800226 C9.20650552,31.003838 9.18258185,31.0395611 9.19454369,31.0395611 C9.19454369,31.0514688 9.48162764,31.3491615 9.5055513,31.3967923 C9.51751313,31.4087 9.5055513,31.4444231 9.51751313,31.4563308 C9.51751313,31.4682385 9.52947496,31.4801462 9.5414368,31.4801462 C9.57732229,31.4920539 9.62516962,31.4920539 9.63713145,31.5277771 C9.64909328,31.5396848 9.75674976,31.4563308 9.76871159,31.4682385 C9.76871159,31.4682385 9.79263525,31.4444231 9.80459709,31.4325154 C9.87636807,31.3848846 9.94813906,31.3134384 9.97206273,31.289623 Z M6.52705529,31.0395611 C6.25193316,30.6704223 6.0366202,30.2536526 5.89307822,29.8130675 C5.79738357,29.5034671 5.73757441,29.1819591 5.71365075,28.860451 C5.68972709,28.6222969 5.67776526,28.3603274 5.67776526,28.1459887 C5.66580343,27.8840191 5.65384159,27.6220496 5.60599427,27.3719878 C5.55814694,27.0981106 5.51029962,26.836141 5.41460497,26.5741715 C5.30694848,26.2883866 5.199292,26.0145094 5.06771186,25.7525398 C5.01986453,25.6810936 4.96005537,25.6096474 4.91220805,25.5382011 L4.74474241,25.300047 L4.56531494,25.0738006 L4.37392564,24.8713696 L4.14665084,24.6689386 L3.69210125,24.2640766 C3.40501729,24.0140148 3.11793334,23.7877684 2.80692572,23.5496143 L2.7231929,23.4781681 C2.40022346,23.2042908 2.10117767,22.9304136 1.80213189,22.6208132 C1.64662808,22.4660131 1.49112427,22.3112129 1.33562046,22.144505 C1.18011666,21.9777971 1.02461285,21.8110893 0.893032702,21.620566 C0.809299883,21.4895812 0.725567063,21.3585964 0.653796075,21.215704 C0.486330435,20.9061036 0.35475029,20.5845956 0.235131976,20.2630875 C0.223170145,20.2988106 0.223170145,20.3464415 0.211208313,20.3821646 C0.151399156,20.6679495 0.115513662,20.9656422 0.0796281681,21.2514271 C0.0557045053,21.5491197 0.0317808426,21.8349047 0.0317808426,22.1325973 C0.0317808426,22.4421977 0.00785717978,22.7637057 0.00785717978,23.0613984 C-0.00410465161,23.359091 -0.00410465161,23.6567836 0.0198190112,23.9306609 C0.0437426739,24.2045381 0.103551831,24.4665076 0.187284651,24.7522926 C0.366712121,25.300047 0.629872412,25.8358938 0.893032702,26.3836482 C1.3116968,27.2648184 1.7303609,28.1102655 2.40022346,28.7294662 C2.73515474,29.0509743 3.10597151,29.3486669 3.48875011,29.6582673 C3.87152872,29.9678676 4.24234549,30.2536526 4.63708593,30.5156221 C5.05575003,30.801407 5.49833779,31.0395611 5.96484921,31.206269 C6.27585683,31.3134384 6.59882627,31.4087 6.92179572,31.4920539 C6.80217741,31.3729769 6.67059726,31.2538998 6.56294078,31.1229151 C6.57490261,31.1110074 6.55097895,31.0752843 6.52705529,31.0395611 Z M19.3621004,20.2154567 C19.2903294,19.9058564 19.2065966,19.5843483 19.0869782,19.3104711 C18.8716653,18.9175168 18.4051539,18.5960087 17.8668714,18.38167 C17.2807417,18.1316082 16.5869555,18.060162 15.8692456,17.9172695 C15.1634975,17.774377 14.4816732,17.5838538 13.7998488,17.4647767 L11.9098794,17.1313609 C11.2878642,17.0360993 10.6299635,16.8932068 10.0199101,16.7622221 C9.40985665,16.643145 8.76391776,16.524068 8.21367351,16.5478834 C7.62754377,16.5955142 7.04141404,16.7384067 6.58686444,17.0360993 C6.28781866,17.2385303 6.04858203,17.5004998 5.88111639,17.8101002 C5.8452309,17.8934541 5.79738357,17.9649003 5.77345991,18.0482543 C5.76149808,18.0839774 5.73757441,18.1435159 5.73757441,18.1673313 L5.73757441,18.1673313 L5.73757441,18.1673313 L5.76149808,18.2745007 L5.76149808,18.3578546 C5.76149808,18.4054854 5.76149808,18.4412086 5.76149808,18.4888394 C5.76149808,18.5721933 5.77345991,18.667455 5.78542174,18.7389012 C5.86915456,19.393825 6.49116979,19.8582255 7.22084151,20.0963796 C7.47203997,20.1797336 7.73520026,20.2511798 8.01032238,20.3345338 C8.29740633,20.4178877 8.57252845,20.5012416 8.83568874,20.5845956 C9.37397116,20.7632112 9.91225357,20.9418267 10.450536,21.0966269 L12.0893069,21.5610274 L12.9027114,21.7991816 L13.0103679,21.822997 L13.0582152,21.8349047 C13.0821389,21.8468124 13.1180244,21.8587201 13.1539099,21.8706278 C13.28549,21.9182586 13.4051083,22.0135203 13.4888412,22.1206896 C13.6682686,22.3350283 13.7041541,22.6565364 13.5606121,22.9065982 C13.500803,23.0137675 13.4768793,23.0852138 13.429032,23.1685677 C13.28549,23.4900758 13.1180244,23.7996761 13.0103679,24.1449996 C12.9266351,24.3950614 12.8548641,24.6570309 12.7711313,24.9190004 C12.6873985,25.18097 12.6156275,25.4072164 12.5917038,25.6453705 C12.5677801,25.8478015 12.5677801,26.0621402 12.5677801,26.2764789 C12.5677801,26.4789099 12.579742,26.6813409 12.6036656,26.8837719 C12.651513,27.2052799 12.6634748,27.443434 12.651513,27.6696804 C12.651513,27.8721114 12.5558183,27.9078345 12.3883527,27.7173113 C12.1012687,27.3838955 11.9577267,26.836141 11.9696886,26.2883866 C11.9816504,26.0026016 11.9816504,25.7406321 12.0175359,25.4429395 C12.0653832,25.1333391 12.1610779,24.8713696 12.2328489,24.6094001 C12.4003145,23.9544763 12.6156275,23.2281062 12.9266351,22.5969978 C12.9385969,22.5731824 12.9146732,22.549367 12.9027114,22.5374593 L12.4242382,22.4064745 L11.9577267,22.2635821 C11.1084367,22.0135203 10.2591467,21.7872738 9.39789482,21.5133966 C8.97923072,21.3824119 8.56056662,21.2395194 8.14190252,21.1085346 C7.73520026,20.9894576 7.29261249,20.8822882 6.85002473,20.7155803 C6.2280095,20.4893339 5.57010877,20.0725642 5.25910116,19.3700096 C5.18733017,19.2152094 5.15144468,19.0604093 5.11555918,18.8937014 C4.99594087,19.0246861 4.86436072,19.1556709 4.72081875,19.2628403 C4.56531494,19.3819173 4.38588747,19.477179 4.21842183,19.5843483 C3.88349055,19.798687 3.48875011,19.8463178 3.10597151,19.8225024 C2.62749825,19.8105947 2.19687232,19.5724406 1.87390288,19.3223788 L1.64662808,19.1437632 C1.57485709,19.0842247 1.47916244,19.0127784 1.38346779,18.9175168 C1.28777314,18.8222551 1.19207849,18.6555473 1.16815482,18.5245625 C1.13226933,18.3935777 1.1203075,18.2745007 1.10834567,18.1911467 L1.02461285,17.6910231 L1.00068918,17.5362229 C0.952841859,17.6314846 0.904994534,17.7267462 0.86910904,17.8220079 C0.797338051,18.0244389 0.761452557,18.2268699 0.809299883,18.4293009 C0.86910904,18.7150858 1.04853651,19.0008707 1.25188764,19.274748 C1.57485709,19.7153331 1.98155936,20.0844719 2.41218529,20.4178877 C2.87869671,20.7751189 3.41697913,21.0489961 3.9791852,21.3109656 C4.01507069,21.3228733 4.05095619,21.3466887 4.08684168,21.3585964 C4.56531494,21.5014889 4.98397904,21.7753661 5.4265668,21.9897048 C6.01269654,22.2873975 6.58686444,22.6208132 7.11318502,23.0256752 C7.49596363,23.3233679 7.85481857,23.6567836 8.18974985,24.0140148 C8.24955901,24.085461 8.32132999,24.168815 8.39310098,24.2164458 C8.54860479,24.3236152 8.6682231,24.4665076 8.78784142,24.6213078 C9.03903988,24.9666313 9.26631467,25.3357701 9.44574214,25.7287244 C9.61320778,26.0859556 9.7328261,26.4550945 9.81655892,26.836141 C9.90029174,27.2171876 9.96010089,27.5744188 10.0438337,27.9197423 C10.163452,28.3603274 10.3428795,28.7770971 10.594078,29.1581436 C10.9529329,29.7058981 11.4314062,30.1702986 11.9577267,30.5751606 C12.0414596,30.6346991 12.1012687,30.7299608 12.1850015,30.7894993 C12.3046198,30.884761 12.4242382,30.9800226 12.5558183,31.0633765 C12.6634748,31.1348228 12.7711313,31.1943613 12.8787878,31.2538998 C12.9027114,31.2658075 12.9146732,31.289623 12.9385969,31.3134384 C13.0821389,31.2777152 13.2256809,31.2419921 13.3692228,31.206269 C14.1228182,30.9800226 14.8405281,30.5632529 15.486467,30.0631293 C16.3716425,29.4201132 17.0893524,28.6222969 17.7472531,27.7411267 C18.0702226,27.3005416 18.3692684,26.8599565 18.608505,26.3836482 C18.8357798,25.9192477 18.9793218,25.3953087 19.1109019,24.8713696 C19.2783675,24.085461 19.529566,23.2876448 19.601337,22.5374593 C19.6252607,21.7872738 19.529566,20.9775499 19.3621004,20.2154567 Z M7.49596363,2.86592958 L7.55577279,3.60420733 C7.57969645,3.85426915 7.59165828,4.09242326 7.62754377,4.30676197 C7.66342927,4.53300837 7.73520026,4.77116249 7.78304758,5.0093166 C7.84285674,5.25937842 7.87874223,5.53325565 7.9026659,5.78331747 C7.92658956,6.04528699 7.92658956,6.29534881 7.93855139,6.53350292 C7.95051322,6.77165703 7.95051322,7.00981115 7.97443688,7.24796526 C7.99836055,7.49802708 8.01032238,7.7599966 8.02228421,7.99815071 C8.03424604,8.27202794 8.02228421,8.52208976 8.02228421,8.78405929 C8.03424604,8.79596699 8.04620787,8.8078747 8.0581697,8.8197824 C8.22563534,9.03412111 8.34525366,9.26036751 8.44094831,9.48661392 C8.52468113,9.70095262 8.60841395,9.87956821 8.69214677,10.12963 C8.72803226,10.2367994 8.75195592,10.3558764 8.77587959,10.4868612 L8.79980325,10.7964615 C8.81176508,10.9988925 8.82372691,11.2013235 8.83568874,11.4037545 C8.84765058,11.8086165 8.85961241,12.1896631 8.90745973,12.5707097 C8.96726889,13.0946487 9.01511621,13.6304955 9.0868872,14.1544345 C9.13473453,14.5950196 9.23042918,15.023697 9.33808566,15.4404667 C9.38593299,15.6071746 9.42181848,15.7738825 9.48162764,15.9286827 C9.55339863,15.9405904 9.61320778,15.9524981 9.68497877,15.9644058 C10.235223,16.0715751 10.7615436,16.1906522 11.2878642,16.2978215 L12.9744824,16.5955142 C13.5366885,16.6907758 14.1108564,16.7860375 14.6730625,16.9051145 C15.2472304,17.0241916 15.7974746,17.1551764 16.3596807,17.250438 C16.3477189,17.1789918 16.3596807,17.1194532 16.3836043,17.0599147 C16.5271463,16.7503144 16.6706883,16.440714 16.7903066,16.1311137 C16.9218868,15.8215133 17.0175814,15.5238207 17.1013142,15.1784972 L17.2927035,14.4402195 C17.3644745,14.1782499 17.4482073,13.9400958 17.5319402,13.690034 C17.615673,13.4518799 17.6994058,13.2137258 17.759215,12.9755717 C17.7951005,12.8564946 17.8309859,12.7374176 17.8549096,12.6302482 C17.8788333,12.5111712 17.9147188,12.3682787 17.9506043,12.2492016 C18.0941462,11.7371703 18.2616119,11.2846775 18.321421,10.8083692 L18.4290775,10.0462761 C18.464963,9.78430656 18.536734,9.51042933 18.608505,9.26036751 C18.7161615,8.85550552 18.8357798,8.48636665 18.9075508,8.09341236 L19.1707111,6.9026418 L19.4697568,5.72377894 L19.5415278,5.4260863 C19.5654515,5.33082465 19.5774133,5.24747071 19.601337,5.15220907 C19.6372225,4.96168578 19.6611461,4.77116249 19.6850698,4.56873149 C19.7089935,4.35439279 19.744879,4.12814638 19.7807645,3.88999227 C19.8286118,3.65183816 19.8884209,3.43749945 19.9362683,3.23506846 C20.0319629,2.81829876 20.0319629,2.52060612 19.8525355,2.17528266 C19.6850698,1.8418669 19.4099477,1.56798967 19.0869782,1.46082032 C18.752047,1.34174326 18.3453447,1.36555867 17.9984516,1.50845114 C17.9147188,1.54417426 17.8190241,1.57989737 17.759215,1.6394359 C17.5558638,1.80614378 17.3883982,2.08002101 17.2328944,2.37771365 C17.0654287,2.687314 16.9099249,2.96119123 16.7783448,3.28269928 C16.5032227,3.91380768 16.2400624,4.56873149 16.0008257,5.21174759 C15.9170929,5.4260863 15.8572838,5.6523327 15.7974746,5.8666714 L15.6180471,6.53350292 C15.4984288,6.97408803 15.3668487,7.42658084 15.2472304,7.86716595 L15.0558411,8.54590517 C14.9840701,8.78405929 14.9003373,9.01030569 14.8166044,9.2246444 C14.7328716,9.4389831 14.6491388,9.6533218 14.5893296,9.8676605 L14.350093,10.534492 C14.2424365,10.8321847 14.13478,11.1536927 14.0271236,11.4394776 C13.9553526,11.6061855 13.7161159,12.3444633 13.500803,12.7136021 C13.4409938,12.8088638 13.3692228,12.88031 13.3094137,12.9041254 C13.2496045,12.9398486 13.213719,12.963664 13.1299862,12.9755717 C13.0821389,12.963664 13.0821389,12.9517563 13.0462534,12.9279409 L12.9864442,12.8684023 C12.9385969,12.8207715 12.8907496,12.761233 12.8429023,12.6540636 C12.7591694,12.3920941 12.7113221,12.0586783 12.6395511,11.7609857 L12.507971,11.1775081 C12.4481618,10.9274463 12.3763908,10.6535691 12.2687344,10.4273227 C12.1610779,10.1891686 12.077345,9.93910673 12.0055741,9.67713721 C11.9457649,9.42707539 11.8859557,9.16510587 11.8381084,8.91504405 C11.7782993,8.61735141 11.7065283,8.34347418 11.658681,8.03387383 C11.6108336,7.72427349 11.58691,7.43848855 11.5510245,7.15270361 C11.4912153,6.59304145 11.3476733,6.00956387 11.2400169,5.437994 C11.1323604,4.91405495 11.0486276,4.39011591 10.9529329,3.86617686 L10.8213528,3.08026828 C10.7735054,2.80639105 10.7376199,2.53251383 10.7017344,2.28245201 C10.6658489,2.02048248 10.6299635,1.78232837 10.5581925,1.54417426 C10.4983833,1.31792785 10.4146505,1.12740456 10.2830703,0.948788975 C10.0318719,0.591557805 9.61320778,0.258142047 9.21846735,0.103341874 C8.95530706,-0.00382747681 8.68018494,-0.0276428881 8.42898648,0.0318956401 C8.32132999,0.0557110514 8.14190252,0.127157285 8.01032238,0.186695813 C7.87874223,0.246234342 7.77108575,0.317680576 7.71127659,0.389126809 C7.57969645,0.520111571 7.54381095,0.793988801 7.51988729,1.15121997 C7.49596363,1.52035885 7.41223081,1.87759001 7.40026898,2.16337495 C7.40026898,2.28245201 7.40026898,2.35389824 7.41223081,2.4729753 L7.49596363,2.86592958 Z M4.80455157,11.7371703 C4.84043706,11.8562473 4.86436072,11.9753244 4.88828439,12.0944015 C4.92416988,12.3920941 4.96005537,12.6897867 4.98397904,12.9874794 L5.07967369,13.6781263 C5.09163552,13.7376648 5.09163552,13.7852957 5.07967369,13.8448342 L5.11555918,14.0234498 C5.13948285,14.1425268 5.16340651,14.2616039 5.18733017,14.3806809 C5.22321566,14.5473888 5.27106299,14.7140967 5.30694848,14.8808046 C5.46245229,15.5000053 5.43852863,16.1430214 5.49833779,16.6907758 C5.51029962,16.8098529 5.52226145,16.9289299 5.54618511,17.048007 C5.8093454,16.7145912 6.13231485,16.440714 6.51509345,16.2501907 C6.98160488,16.0120366 7.49596363,15.8929596 7.99836055,15.8453287 C8.17778802,15.8215133 8.36917732,15.8215133 8.54860479,15.833421 C8.68018494,15.833421 8.81176508,15.8453287 8.94334523,15.8572364 C8.75195592,15.511913 8.63233761,15.1427741 8.57252845,14.7498198 L8.32132999,12.7850484 C8.21367351,12.1301246 8.22563534,11.4394776 8.16582619,10.820277 C8.14190252,10.5463997 8.11797886,10.4035073 8.01032238,10.1653531 L7.85481857,9.79621427 C7.80697124,9.68904492 7.75912392,9.58187557 7.69931476,9.48661392 C7.59165828,9.29609063 7.4481163,9.12938275 7.28065066,9.0222134 C7.13710869,8.91504405 6.90983389,8.84359782 6.69452093,8.8078747 C6.4552843,8.77215158 6.19212401,8.76024388 5.96484921,8.79596699 C5.74953625,8.83169011 5.52226145,8.93885946 5.34283398,9.06984422 C4.96005537,9.35562916 4.74474241,9.80812197 4.64904776,10.3439687 L4.64904776,10.3677841 C4.64904776,10.3796918 4.64904776,10.3796918 4.64904776,10.3915995 C4.64904776,10.4035073 4.66100959,10.4392304 4.66100959,10.4630458 C4.75670424,10.8798155 4.7806279,11.3323083 4.80455157,11.7371703 Z M1.21600215,14.9998816 C1.28777314,15.5476361 1.46720061,16.0953906 1.55093343,16.7145912 L1.65858991,17.6314846 L1.69447541,17.8458233 C1.70643724,17.9172695 1.71839907,17.9887157 1.74232273,18.0839774 C1.76624639,18.2506853 1.77820823,18.3697623 1.81409372,18.4173932 C1.83801738,18.465024 1.93371203,18.5364702 2.08921584,18.6436396 C2.23275782,18.7627166 2.35237613,18.8341628 2.48395628,18.9175168 C2.61553642,18.988963 2.73515474,19.0485016 2.86673488,19.0842247 C2.92654404,19.0961324 2.9863532,19.1080401 3.05812418,19.1199478 C3.12989517,19.1199478 3.20166616,19.1318555 3.28539898,19.1318555 C3.46482645,19.1318555 3.63229209,19.072317 3.7877959,19.0246861 C4.11076535,18.9294245 4.44569662,18.6793627 4.68493325,18.3935777 C4.74474241,18.3102238 4.7806279,18.262593 4.8165134,18.1911467 C4.85239889,18.1197005 4.87632255,18.0244389 4.90024622,17.9291772 L4.93613171,17.7862848 C4.94809354,17.7505616 4.94809354,17.7148385 4.94809354,17.6791154 C4.94809354,17.6076692 4.94809354,17.5124075 4.93613171,17.4171459 C4.91220805,17.2266226 4.86436072,16.9646531 4.85239889,16.7384067 C4.82847523,16.5121602 4.82847523,16.2859138 4.8165134,16.0596674 C4.79258973,15.6548054 4.74474241,15.2975743 4.64904776,14.9165277 L4.49354395,14.3211424 C4.44569662,14.1187114 4.40981113,13.892465 4.37392564,13.7019417 L4.33804014,13.487603 C4.27823099,13.0470179 4.19449817,12.6302482 4.13468901,12.15394 C4.12272718,12.0586783 4.12272718,11.9753244 4.11076535,11.8800628 C4.11076535,11.8800628 4.09880351,11.868155 4.09880351,11.868155 C3.96722337,11.6776318 3.79975773,11.546647 3.58444476,11.4871085 C3.51267378,11.4632931 3.44090279,11.4275699 3.35716997,11.4156622 C2.9504677,11.2965852 2.48395628,11.2489544 2.08921584,11.2965852 C1.9217502,11.3204006 1.74232273,11.4037545 1.55093343,11.4990162 C1.37150596,11.5942778 1.21600215,11.7252626 1.09638384,11.868155 C0.916956365,12.0824938 0.845185377,12.273017 0.845185377,12.5707097 C0.845185377,12.8564946 0.904994534,13.166095 0.952841859,13.5114184 C1.03657468,14.0234498 1.13226933,14.499758 1.21600215,14.9998816 Z" id="Logo"></path>
                </g>
            </g>
        </g>
    </g>
</svg>
