<?xml version="1.0" encoding="UTF-8"?>
<svg width="25px" height="40px" viewBox="0 0 25 40" version="1.1" xmlns="http://www.w3.org/2000/svg" xmlns:xlink="http://www.w3.org/1999/xlink">
    <g id="Logo-/-Icon-/-White" stroke="none" stroke-width="1" fill="none" fill-rule="evenodd">
        <path d="M15.0667767,39.1120287 C15.186395,39.1864518 15.3060134,39.260875 15.4256317,39.3352982 C15.3359179,39.3501828 15.2462042,39.3799521 15.1564905,39.3948367 C14.6331603,39.5139138 14.1098302,39.6627601 13.631357,39.8116064 C13.4967864,39.8562603 13.3323112,39.8711449 13.1977406,39.9009142 C13.1977406,39.9009142 13.1977406,39.8860296 13.1827883,39.8860296 C13.1528837,39.8711449 13.1229791,39.8562603 13.06317,39.8562603 C13.0482177,39.8562603 13.0183131,39.8711449 12.9435517,39.9455681 C11.926796,40.0944144 10.895088,39.9157988 9.84842779,39.6776447 C9.75871406,39.6181062 9.68395261,39.543683 9.59423887,39.4692599 C9.47462056,39.3650674 9.35500225,39.2459904 9.25033622,39.1269133 C9.17557478,39.0376055 9.13071791,38.9482977 9.05595646,38.8589899 C8.5924355,38.3529125 8.23358055,37.7575272 8.00929622,37.1026034 C7.85977332,36.6560644 7.78501188,36.1648715 7.7551073,35.6885633 C7.7551073,34.9145625 7.65044127,34.0661384 7.44110922,33.2772529 C7.32149091,32.830714 7.17196802,32.3990596 6.96263597,31.9822899 C6.87292223,31.8036744 6.76825621,31.6250588 6.60378103,31.4910971 C6.51406729,31.4315586 6.46921042,31.3273661 6.40940127,31.2380583 L6.15521235,30.9254811 L5.87111885,30.6426731 L5.30293186,30.1365956 C4.77960174,29.6900566 4.25627162,29.228633 3.73294149,28.7969787 C3.32922968,28.4695168 3.01523161,28.0676317 2.59656751,27.7550544 C2.56666293,27.7252852 2.53675836,27.6955159 2.50685378,27.6657466 C2.04333281,27.1894384 1.66952558,26.7131302 1.3704798,26.1623988 C1.10133859,25.6563213 0.862101961,25.1055899 0.69762678,24.5697432 C0.622865333,24.3018198 0.592960755,24.0338964 0.592960755,23.765973 C0.772388226,24.1529735 1.02657714,24.4804354 1.28076606,24.8078973 C1.68447787,25.2990901 2.14799884,25.7456291 2.65637667,26.1326295 C2.83580414,26.2665912 3.0301839,26.4005529 3.22456366,26.51963 C3.79275065,26.8619765 4.40579451,27.1001306 4.98893379,27.368054 C5.5272162,27.6210927 6.0804509,27.8741315 6.60378103,28.1569395 L6.73835163,28.2313627 C7.21682489,28.4844014 7.69529814,28.7374401 8.14386682,29.0500174 C8.63729236,29.3774793 9.07090875,29.7644798 9.48957285,30.1812495 C9.6989049,30.3896343 9.89328466,30.6129038 10.0876644,30.8361733 C10.1773782,30.9403657 10.2820442,31.0296735 10.3568056,31.1338659 C10.6259468,31.4910971 10.8651835,31.8632129 11.0894678,32.2502133 C11.2838476,32.5925599 11.4184182,32.9646757 11.5380365,33.3516761 C11.6427025,33.7089073 11.6875594,34.0959077 11.7623208,34.4829081 C11.82213,34.8252547 11.9118437,35.1676012 12.031462,35.5248324 C12.1809849,35.986256 12.390317,36.4179103 12.6445059,36.8197954 C13.0183131,37.3854114 13.4668818,37.8914889 13.9603073,38.3380278 C14.0051642,38.3826817 14.0500211,38.4273356 14.0948779,38.4571049 C14.3939237,38.6654897 14.7228741,38.8887592 15.0667767,39.1120287 Z M4.24131933,27.4424772 C4.24131933,27.4275925 4.22636704,27.4275925 4.24131933,27.4424772 C4.19646246,27.4275925 4.16655788,27.4275925 4.15160559,27.4127079 C4.12170101,27.3978233 4.10674872,27.3829386 4.07684415,27.368054 C4.0020827,27.3085155 3.91236896,27.2638616 3.83760752,27.204323 C3.79275065,27.1745538 3.76284607,27.1150153 3.70303692,27.085246 C3.64322776,27.0554767 3.5834186,27.0405921 3.50865716,27.0257075 C3.49370487,27.0257075 3.43389571,27.0554767 3.23951595,27.2936308 C3.22456366,27.3382847 3.22456366,27.368054 3.22456366,27.3829386 C3.22456366,27.3978233 3.67313234,27.650862 3.70303692,27.7104005 C3.7179892,27.7252852 3.7179892,27.7550544 3.73294149,27.7848237 C3.74789378,27.7997083 3.76284607,27.814593 3.77779836,27.814593 C3.82265523,27.8294776 3.88246439,27.7997083 3.91236896,27.8443622 C3.92732125,27.8592469 4.03198728,27.7252852 4.06189186,27.7252852 C4.06189186,27.7252852 4.09179644,27.6955159 4.09179644,27.6806313 C4.16655788,27.5913235 4.22636704,27.4722464 4.24131933,27.4424772 Z M5.76645283,28.5141707 C5.76645283,28.5141707 5.76645283,28.5141707 5.76645283,28.5141707 C5.72159596,28.499286 5.69169138,28.4844014 5.67673909,28.4695168 C5.64683452,28.4546321 5.63188223,28.4397475 5.60197765,28.4099782 C5.5272162,28.3504397 5.43750247,28.2909012 5.36274102,28.2313627 C5.31788415,28.2015934 5.28797957,28.1420549 5.24312271,28.1122856 C5.18331355,28.0825163 5.12350439,28.0527471 5.04874295,28.0378624 C5.03379066,28.0378624 4.9739815,28.0676317 4.77960174,28.3057858 C4.76464945,28.3504397 4.76464945,28.380209 4.76464945,28.3950936 C4.76464945,28.4099782 5.18331355,28.6927863 5.21321813,28.7374401 C5.22817042,28.7523248 5.22817042,28.782094 5.24312271,28.8118633 C5.258075,28.8267479 5.27302729,28.8416326 5.28797957,28.8416326 C5.33283644,28.8565172 5.3926456,28.8416326 5.42255018,28.8714018 C5.43750247,28.8862865 5.55712078,28.7523248 5.57207307,28.7672094 C5.57207307,28.7672094 5.60197765,28.7374401 5.61692994,28.7225555 C5.67673909,28.663017 5.75150054,28.5588246 5.76645283,28.5141707 Z M7.24672946,29.6305181 C7.24672946,29.6156334 7.24672946,29.6305181 7.24672946,29.6305181 C7.2018726,29.6156334 7.17196802,29.6007488 7.15701573,29.5858642 C7.12711115,29.5709795 7.11215886,29.5560949 7.08225428,29.5263256 C7.00749284,29.4667871 6.9177791,29.4072486 6.84301765,29.3477101 C6.79816079,29.3179408 6.76825621,29.2584023 6.72339934,29.228633 C6.66359018,29.1988637 6.60378103,29.1690945 6.52901958,29.1542098 C6.51406729,29.1542098 6.45425813,29.1839791 6.25987837,29.4221332 C6.24492609,29.4667871 6.24492609,29.4965564 6.24492609,29.511441 C6.24492609,29.5263256 6.66359018,29.8091337 6.69349476,29.8537876 C6.70844705,29.8686722 6.70844705,29.8984414 6.72339934,29.9282107 C6.73835163,29.9430953 6.73835163,29.95798 6.76825621,29.95798 C6.81311308,29.9728646 6.87292223,29.95798 6.90282681,29.9877492 C6.9177791,30.0026339 7.03739741,29.8835568 7.06730199,29.8835568 C7.06730199,29.8835568 7.09720657,29.8537876 7.11215886,29.8389029 C7.15701573,29.7793644 7.23177717,29.6602873 7.24672946,29.6305181 Z M8.65224465,30.8957118 C8.65224465,30.8808272 8.65224465,30.8808272 8.65224465,30.8957118 C8.62234007,30.8659425 8.5924355,30.8659425 8.56253092,30.8361733 C8.53262634,30.8212886 8.51767405,30.7915194 8.50272176,30.7766347 C8.42796031,30.7022116 8.35319887,30.6426731 8.27843742,30.5682499 C8.23358055,30.523596 8.21862826,30.4640575 8.1737714,30.4342882 C8.11396224,30.3896343 8.05415308,30.359865 7.97939164,30.3300958 C7.96443935,30.3300958 7.90463019,30.359865 7.68034585,30.5682499 C7.66539356,30.6129038 7.65044127,30.6426731 7.65044127,30.6575577 C7.65044127,30.6724423 8.0242485,30.9999042 8.03920079,31.0445581 C8.05415308,31.0594427 8.05415308,31.089212 8.05415308,31.1189813 C8.05415308,31.1338659 8.06910537,31.1487505 8.08405766,31.1487505 C8.12891453,31.1636352 8.18872369,31.1636352 8.21862826,31.1934044 C8.23358055,31.2082891 8.36815116,31.1040966 8.38310345,31.1189813 C8.38310345,31.1189813 8.41300802,31.089212 8.42796031,31.0743274 C8.53262634,31.0147889 8.63729236,30.9254811 8.65224465,30.8957118 Z M9.35500225,32.6520984 C9.35500225,32.6520984 9.39985911,32.6520984 9.4148114,32.6372137 C9.51947743,32.6223291 9.63909574,32.5776752 9.66900032,32.547906 C9.68395261,32.5330213 9.66900032,32.5330213 9.66900032,32.5330213 C9.65404803,32.5032521 9.62414345,32.4883674 9.62414345,32.4585982 C9.60919116,32.4288289 9.60919116,32.3990596 9.59423887,32.3692904 C9.5643343,32.2650979 9.51947743,32.1757902 9.47462056,32.0715977 C9.44471598,32.0120592 9.44471598,31.9525207 9.4148114,31.8929821 C9.36995454,31.8334436 9.32509767,31.7739051 9.25033622,31.7292512 C9.23538393,31.7143666 9.16062249,31.7292512 8.90643357,31.8780975 C8.87652899,31.9078668 8.8615767,31.937636 8.8615767,31.9525207 C8.8615767,31.9674053 9.10081333,32.3544057 9.08586104,32.4288289 C9.08586104,32.4437135 9.07090875,32.4734828 9.07090875,32.5032521 C9.07090875,32.5181367 9.07090875,32.5330213 9.08586104,32.547906 C9.11576562,32.5776752 9.17557478,32.6074445 9.17557478,32.6372137 C9.16062249,32.666983 9.34004996,32.6372137 9.35500225,32.6520984 Z M10.0876644,34.3638311 C10.1026167,34.3638311 10.0876644,34.3638311 10.0876644,34.3638311 C10.0727121,34.3191772 10.0577598,34.3042925 10.0428076,34.2745233 C10.0278553,34.244754 10.0278553,34.2149847 10.0278553,34.1852155 C10.012903,34.0959077 9.98299839,33.9917153 9.9680461,33.9024075 C9.95309382,33.8428689 9.9680461,33.7833304 9.95309382,33.7386765 C9.93814153,33.679138 9.89328466,33.6195995 9.84842779,33.5600609 C9.8334755,33.5451763 9.77366634,33.5302917 9.47462056,33.5749456 C9.44471598,33.6047148 9.4148114,33.6195995 9.39985911,33.6344841 C9.38490682,33.6493687 9.51947743,34.1405616 9.51947743,34.2001001 C9.51947743,34.2298694 9.50452514,34.244754 9.48957285,34.2745233 C9.48957285,34.2894079 9.48957285,34.3042925 9.50452514,34.3191772 C9.53442972,34.3638311 9.59423887,34.3936003 9.59423887,34.4382542 C9.59423887,34.4680235 9.77366634,34.4382542 9.77366634,34.4531389 C9.77366634,34.4531389 9.81852321,34.4531389 9.8334755,34.4382542 C9.92318924,34.4233696 10.0577598,34.3936003 10.0876644,34.3638311 Z M10.326901,36.2095254 C10.4315671,36.1946408 10.5511854,36.1499869 10.58109,36.1202176 C10.5960423,36.105333 10.58109,36.105333 10.58109,36.105333 C10.5661377,36.0755638 10.5511854,36.0606791 10.5362331,36.0309099 C10.5212808,36.0011406 10.5212808,35.9713713 10.5063285,35.9416021 C10.4764239,35.8522943 10.4465194,35.7481018 10.4166148,35.6587941 C10.4016625,35.5992555 10.4166148,35.539717 10.3867102,35.4950631 C10.3568056,35.4355246 10.326901,35.375986 10.2670919,35.3164475 C10.2521396,35.3015629 10.1923304,35.3015629 9.89328466,35.3611014 C9.86338008,35.3908707 9.8334755,35.4057553 9.8334755,35.4206399 C9.8334755,35.4355246 9.99795068,35.9118328 9.99795068,35.9713713 C9.99795068,36.0011406 9.98299839,36.0160252 9.98299839,36.0457945 C9.98299839,36.0606791 9.98299839,36.0755638 9.99795068,36.0904484 C10.0278553,36.1202176 10.0876644,36.1499869 10.0876644,36.1946408 C10.0876644,36.2244101 10.2670919,36.1797562 10.2820442,36.1946408 C10.2670919,36.2244101 10.3119488,36.2095254 10.326901,36.2095254 Z M11.2987998,37.7128733 C11.2838476,37.6979886 11.253943,37.683104 11.2389907,37.6533347 C11.2240384,37.6384501 11.2090861,37.6086809 11.1941338,37.5789116 C11.149277,37.5044884 11.0894678,37.4300653 11.0446109,37.3407575 C11.0147064,37.2961036 11.0147064,37.2365651 10.9848018,37.1919112 C10.9548972,37.1323726 10.9100403,37.0877187 10.8502312,37.0430648 C10.8352789,37.0281802 10.7754697,37.0430648 10.4764239,37.1323726 C10.4465194,37.1621419 10.4166148,37.1919112 10.4166148,37.2067958 C10.4166148,37.2216804 10.4764239,37.3407575 10.5362331,37.4598345 C10.5960423,37.5937962 10.685756,37.6979886 10.685756,37.7426425 C10.685756,37.7724118 10.685756,37.8021811 10.685756,37.8170657 C10.685756,37.8319503 10.7007083,37.846835 10.7156606,37.8617196 C10.7605174,37.8914889 10.8203266,37.9063735 10.8352789,37.9361428 C10.8502312,37.965912 10.9997541,37.8766042 11.0147064,37.8914889 C11.0147064,37.8914889 11.0446109,37.8766042 11.0745155,37.8617196 C11.1791815,37.8319503 11.2838476,37.7426425 11.2987998,37.7128733 C11.3137521,37.7128733 11.3137521,37.7128733 11.2987998,37.7128733 Z M12.4650784,39.1120287 C12.4650784,39.0971441 12.4501261,39.0971441 12.4650784,39.1120287 C12.4351738,39.0822594 12.4052693,39.0822594 12.3753647,39.0524902 C12.3454601,39.0376055 12.3305078,39.0078363 12.3155555,38.9929516 C12.2407941,38.9185285 12.1809849,38.8441053 12.1211758,38.7696822 C12.0912712,38.7250283 12.0763189,38.6654897 12.031462,38.6357205 C11.9866052,38.5910666 11.926796,38.5612973 11.8520345,38.531528 C11.8370823,38.5166434 11.7772731,38.5464127 11.5230842,38.7250283 C11.5081319,38.7547975 11.4782273,38.7994514 11.4931796,38.7994514 C11.4931796,38.814336 11.8520345,39.1864518 11.8819391,39.2459904 C11.8968914,39.260875 11.8819391,39.3055289 11.8968914,39.3204135 C11.8968914,39.3352982 11.9118437,39.3501828 11.926796,39.3501828 C11.9716529,39.3650674 12.031462,39.3650674 12.0464143,39.4097213 C12.0613666,39.424606 12.1959372,39.3204135 12.2108895,39.3352982 C12.2108895,39.3352982 12.2407941,39.3055289 12.2557464,39.2906443 C12.3454601,39.2311057 12.4351738,39.141798 12.4650784,39.1120287 Z M8.15881911,38.7994514 C7.81491646,38.3380278 7.54577525,37.8170657 7.36634778,37.2663343 C7.24672946,36.8793339 7.17196802,36.4774488 7.14206344,36.0755638 C7.11215886,35.7778711 7.09720657,35.4504092 7.09720657,35.1824858 C7.08225428,34.8550239 7.06730199,34.527562 7.00749284,34.2149847 C6.94768368,33.8726382 6.88787452,33.5451763 6.76825621,33.2177144 C6.63368561,32.8604832 6.499115,32.5181367 6.33463982,32.1906748 C6.27483066,32.101367 6.20006922,32.0120592 6.14026006,31.9227514 L5.93092801,31.6250588 L5.70664367,31.3422508 L5.46740705,31.089212 L5.18331355,30.8361733 L4.61512656,30.3300958 C4.25627162,30.0175185 3.89741668,29.7347105 3.50865716,29.4370179 L3.40399113,29.3477101 C3.00027932,29.0053635 2.62647209,28.663017 2.25266486,28.2760166 C2.0582851,28.0825163 1.86390534,27.8890161 1.66952558,27.6806313 C1.47514582,27.4722464 1.28076606,27.2638616 1.11629088,27.0257075 C1.01162485,26.8619765 0.906958829,26.6982456 0.817245093,26.51963 C0.607913044,26.1326295 0.443437863,25.7307445 0.29391497,25.3288594 C0.278962681,25.3735133 0.278962681,25.4330518 0.264010392,25.4777057 C0.189248946,25.8349369 0.144392078,26.2070527 0.0995352101,26.5642839 C0.0696306317,26.9363997 0.0397260532,27.2936308 0.0397260532,27.6657466 C0.0397260532,28.0527471 0.00982147472,28.4546321 0.00982147472,28.8267479 C-0.00513081451,29.1988637 -0.00513081451,29.5709795 0.024773764,29.9133261 C0.0546783424,30.2556726 0.129439789,30.5831345 0.234105813,30.9403657 C0.458390152,31.6250588 0.787340515,32.2948672 1.11629088,32.9795603 C1.639621,34.0810231 2.16295112,35.1378319 3.00027932,35.9118328 C3.41894342,36.3137179 3.88246439,36.6858337 4.36093764,37.0728341 C4.8394109,37.4598345 5.30293186,37.8170657 5.79635741,38.1445276 C6.31968753,38.5017588 6.87292223,38.7994514 7.45606151,39.0078363 C7.84482103,39.141798 8.24853284,39.260875 8.65224465,39.3650674 C8.50272176,39.2162211 8.33824658,39.0673748 8.20367598,38.9036438 C8.21862826,38.8887592 8.18872369,38.8441053 8.15881911,38.7994514 Z M24.2026255,25.2693209 C24.1129117,24.8823204 24.0082457,24.4804354 23.8587228,24.1380888 C23.5895816,23.646896 23.0064423,23.2450109 22.3335893,22.9770875 C21.6009271,22.6645103 20.7336944,22.5752025 19.836557,22.3965869 C18.9543719,22.2179713 18.1020914,21.9798172 17.249811,21.8309709 L14.8873493,21.4142012 C14.1098302,21.2951241 13.2874543,21.1165085 12.5248876,20.9527776 C11.7623208,20.8039313 10.9548972,20.6550849 10.2670919,20.6848542 C9.53442972,20.7443927 8.80176754,20.9230083 8.23358055,21.2951241 C7.85977332,21.5481629 7.56072754,21.8756248 7.35139549,22.2626252 C7.30653862,22.3668176 7.24672946,22.4561254 7.21682489,22.5603178 C7.2018726,22.6049717 7.17196802,22.6793949 7.17196802,22.7091642 L7.17196802,22.7091642 L7.17196802,22.7091642 L7.2018726,22.8431259 L7.2018726,22.9473183 C7.2018726,23.0068568 7.2018726,23.0515107 7.2018726,23.1110492 C7.2018726,23.2152417 7.21682489,23.3343187 7.23177717,23.4236265 C7.3364432,24.2422813 8.11396224,24.8227819 9.02605188,25.1204746 C9.34004996,25.224667 9.66900032,25.3139748 10.012903,25.4181672 C10.3717579,25.5223596 10.7156606,25.626552 11.0446109,25.7307445 C11.7174639,25.954014 12.390317,26.1772834 13.06317,26.3707837 L15.1116336,26.9512843 L16.1283893,27.2489769 L16.2629599,27.2787462 L16.322769,27.2936308 C16.3526736,27.3085155 16.3975305,27.3234001 16.4423873,27.3382847 C16.6068625,27.3978233 16.7563854,27.5169003 16.8610514,27.650862 C17.0853358,27.9187854 17.1301926,28.3206705 16.9507652,28.6332477 C16.8760037,28.7672094 16.8460992,28.8565172 16.78629,28.9607096 C16.6068625,29.3625947 16.3975305,29.7495951 16.2629599,30.1812495 C16.1582938,30.4938267 16.0685801,30.8212886 15.9639141,31.1487505 C15.8592481,31.4762124 15.7695343,31.7590205 15.7396297,32.0567131 C15.7097252,32.3097518 15.7097252,32.5776752 15.7097252,32.8455986 C15.7097252,33.0986373 15.7246775,33.3516761 15.754582,33.6047148 C15.8143912,34.0065999 15.8293435,34.3042925 15.8143912,34.5871005 C15.8143912,34.8401393 15.6947729,34.8847932 15.4854408,34.6466391 C15.1265859,34.2298694 14.9471584,33.5451763 14.9621107,32.8604832 C14.977063,32.5032521 14.977063,32.1757902 15.0219199,31.8036744 C15.081729,31.4166739 15.2013473,31.089212 15.2910611,30.7617501 C15.5003931,29.9430953 15.7695343,29.0351328 16.1582938,28.2462473 C16.1732461,28.216478 16.1433416,28.1867088 16.1283893,28.1718241 L15.5302977,28.0080932 L14.9471584,27.8294776 C13.8855459,27.5169003 12.8239333,27.2340923 11.7473685,26.8917458 C11.2240384,26.7280148 10.7007083,26.5493992 10.1773782,26.3856683 C9.66900032,26.236822 9.11576562,26.1028603 8.56253092,25.8944754 C7.78501188,25.6116674 6.96263597,25.0907053 6.57387645,24.212512 C6.48416271,24.0190118 6.43930585,23.8255116 6.39444898,23.6171267 C6.24492609,23.7808577 6.0804509,23.9445886 5.90102343,24.0785503 C5.70664367,24.2273966 5.48235933,24.3464737 5.27302729,24.4804354 C4.85436319,24.7483588 4.36093764,24.8078973 3.88246439,24.778128 C3.28437282,24.7632434 2.7460904,24.4655507 2.3423786,24.1529735 L2.0582851,23.929704 C1.96857136,23.8552808 1.84895305,23.765973 1.72933474,23.646896 C1.60971642,23.5278189 1.49009811,23.3194341 1.46019353,23.1557031 C1.41533666,22.9919722 1.40038437,22.8431259 1.38543208,22.7389334 L1.28076606,22.1137789 L1.25086148,21.9202787 C1.19105232,22.0393557 1.13124317,22.1584328 1.0863863,22.2775098 C0.996672564,22.5305486 0.951815696,22.7835873 1.01162485,23.0366261 C1.0863863,23.3938572 1.31067064,23.7510884 1.56485956,24.0934349 C1.96857136,24.6441663 2.4769492,25.1055899 3.01523161,25.5223596 C3.59837089,25.9688986 4.27122391,26.3112451 4.9739815,26.638707 C5.01883837,26.6535917 5.06369524,26.6833609 5.1085521,26.6982456 C5.70664367,26.8768611 6.2299738,27.2192077 6.7832085,27.4871311 C7.51587067,27.8592469 8.23358055,28.2760166 8.89148128,28.782094 C9.36995454,29.1542098 9.81852321,29.5709795 10.2371873,30.0175185 C10.3119488,30.1068263 10.4016625,30.2110187 10.4913762,30.2705572 C10.685756,30.4045189 10.8352789,30.5831345 10.9848018,30.7766347 C11.2987998,31.2082891 11.5828933,31.6697127 11.8071777,32.1609055 C12.0165097,32.6074445 12.1660326,33.0688681 12.2706986,33.5451763 C12.3753647,34.0214845 12.4501261,34.4680235 12.5547921,34.8996778 C12.704315,35.4504092 12.9285994,35.9713713 13.2425974,36.4476796 C13.6911661,37.1323726 14.2892577,37.7128733 14.9471584,38.2189508 C15.0518244,38.2933739 15.1265859,38.412451 15.2312519,38.4868741 C15.3807748,38.6059512 15.5302977,38.7250283 15.6947729,38.8292207 C15.8293435,38.9185285 15.9639141,38.9929516 16.0984847,39.0673748 C16.1283893,39.0822594 16.1433416,39.1120287 16.1732461,39.141798 C16.3526736,39.0971441 16.5321011,39.0524902 16.7115285,39.0078363 C17.6535228,38.7250283 18.5506601,38.2040661 19.3580837,37.5789116 C20.4645531,36.7751415 21.3616905,35.7778711 22.1840664,34.6764083 C22.5877782,34.125677 22.9615854,33.5749456 23.2606312,32.9795603 C23.5447247,32.3990596 23.7241522,31.7441358 23.8886274,31.089212 C24.0979594,30.1068263 24.4119575,29.1095559 24.5016712,28.1718241 C24.5315758,27.2340923 24.4119575,26.2219373 24.2026255,25.2693209 Z M9.36995454,3.58241198 L9.44471598,4.50525917 C9.47462056,4.81783644 9.48957285,5.11552908 9.53442972,5.38345246 C9.57928658,5.66626047 9.66900032,5.96395311 9.72880948,6.26164575 C9.80357092,6.57422302 9.84842779,6.91656956 9.87833237,7.22914683 C9.90823695,7.55660874 9.90823695,7.86918601 9.92318924,8.16687865 C9.93814153,8.46457129 9.93814153,8.76226393 9.9680461,9.05995657 C9.99795068,9.37253385 10.012903,9.69999575 10.0278553,9.99768839 C10.0428076,10.3400349 10.0278553,10.6526122 10.0278553,10.9800741 C10.0428076,10.9949587 10.0577598,11.0098434 10.0727121,11.024728 C10.2820442,11.2926514 10.4315671,11.5754594 10.5511854,11.8582674 C10.6558514,12.1261908 10.7605174,12.3494603 10.8651835,12.6620375 C10.9100403,12.7959992 10.9399449,12.9448455 10.9698495,13.1085765 L10.9997541,13.4955769 C11.0147064,13.7486157 11.0296586,14.0016544 11.0446109,14.2546932 C11.0595632,14.7607707 11.0745155,15.2370789 11.1343247,15.7133871 C11.2090861,16.3683109 11.2688953,17.0381194 11.358609,17.6930432 C11.4184182,18.2437746 11.5380365,18.7796213 11.6726071,19.3005834 C11.7324162,19.5089683 11.7772731,19.7173531 11.8520345,19.9108533 C11.9417483,19.925738 12.0165097,19.9406226 12.1062235,19.9555072 C12.7940288,20.0894689 13.4519295,20.2383152 14.1098302,20.3722769 L16.218103,20.7443927 C16.9208606,20.8634698 17.6385705,20.9825468 18.3413281,21.1313932 C19.059038,21.2802395 19.7468433,21.4439704 20.4496009,21.5630475 C20.4346486,21.4737397 20.4496009,21.3993165 20.4795054,21.3248934 C20.6589329,20.937893 20.8383604,20.5508925 20.9878833,20.1638921 C21.1523585,19.7768917 21.2719768,19.4047759 21.3766428,18.9731215 L21.6158794,18.0502743 C21.7055932,17.7228124 21.8102592,17.4251198 21.9149252,17.1125425 C22.0195912,16.8148499 22.1242573,16.5171572 22.1990187,16.2194646 C22.2438756,16.0706183 22.2887324,15.921772 22.318637,15.7878103 C22.3485416,15.6389639 22.3933985,15.4603484 22.4382553,15.311502 C22.6176828,14.6714629 22.8270148,14.1058468 22.9017763,13.5104616 L23.0363469,12.5578451 C23.0812038,12.2303832 23.1709175,11.8880367 23.2606312,11.5754594 C23.3952018,11.0693819 23.5447247,10.6079583 23.6344385,10.1167655 L23.9633888,8.62830224 L24.3371961,7.15472367 L24.4269098,6.78260787 C24.4568144,6.66353081 24.4717667,6.55933839 24.5016712,6.44026133 C24.5465281,6.20210722 24.5764327,5.96395311 24.6063373,5.71091436 C24.6362418,5.44299099 24.6810987,5.16018298 24.7259556,4.86249034 C24.7857647,4.56479769 24.8605262,4.29687432 24.9203353,4.04383557 C25.0399537,3.52287345 25.0399537,3.15075765 24.8156693,2.71910332 C24.6063373,2.30233362 24.2624346,1.95998708 23.8587228,1.8260254 C23.4400587,1.67717908 22.9316809,1.70694834 22.4980645,1.88556392 C22.3933985,1.93021782 22.2737801,1.97487172 22.1990187,2.04929488 C21.9448298,2.25767973 21.7354977,2.60002626 21.541118,2.97214206 C21.3317859,3.3591425 21.1374062,3.70148904 20.972931,4.1033741 C20.6290283,4.8922596 20.300078,5.71091436 20.0010322,6.51468449 C19.8963662,6.78260787 19.8216047,7.06541588 19.7468433,7.33333926 L19.5225589,8.16687865 C19.373036,8.71761004 19.2085609,9.28322606 19.059038,9.83395744 L18.8198013,10.6823815 C18.7300876,10.9800741 18.6254216,11.2628821 18.5207555,11.5308055 C18.4160895,11.7987289 18.3114235,12.0666522 18.2366621,12.3345756 L17.9376163,13.168115 C17.8030457,13.5402308 17.6684751,13.9421159 17.5339045,14.2993471 C17.4441907,14.5077319 17.1451449,15.4305791 16.8760037,15.8920027 C16.8012423,16.0110797 16.7115285,16.1003875 16.6367671,16.1301568 C16.5620057,16.1748107 16.5171488,16.20458 16.4124828,16.2194646 C16.3526736,16.20458 16.3526736,16.1896953 16.3078167,16.1599261 L16.2330553,16.0855029 C16.1732461,16.0259644 16.113437,15.9515412 16.0536278,15.8175795 C15.9489618,15.4901176 15.8891526,15.0733479 15.7994389,14.7012321 L15.6349637,13.9718852 C15.5602023,13.6593079 15.4704885,13.3169613 15.3359179,13.0341533 C15.2013473,12.7364607 15.0966813,12.4238834 15.0069676,12.0964215 C14.9322061,11.7838442 14.8574447,11.4563823 14.7976355,11.1438051 C14.7228741,10.7716893 14.6331603,10.4293427 14.5733512,10.0423423 C14.513542,9.65534186 14.4836375,9.29811069 14.4387806,8.94087952 C14.3640191,8.24130181 14.1845917,7.51195484 14.0500211,6.7974925 C13.9154505,6.14256869 13.8107844,5.48764488 13.6911661,4.83272107 L13.5266909,3.85033536 C13.4668818,3.50798882 13.4220249,3.16564228 13.3771681,2.85306501 C13.3323112,2.5256031 13.2874543,2.22791046 13.1977406,1.93021782 C13.1229791,1.64740981 13.0183131,1.4092557 12.8538379,1.18598622 C12.5398399,0.739447257 12.0165097,0.322677559 11.5230842,0.129177342 C11.1941338,-0.00478434602 10.8502312,-0.0345536101 10.5362331,0.0398695501 C10.4016625,0.0696388142 10.1773782,0.158946607 10.012903,0.233369767 C9.84842779,0.307792927 9.71385719,0.397100719 9.63909574,0.486408512 C9.47462056,0.650139464 9.42976369,0.992486002 9.39985911,1.43902496 C9.36995454,1.90044856 9.26528851,2.34698752 9.25033622,2.70421869 C9.25033622,2.85306501 9.25033622,2.9423728 9.26528851,3.09121912 L9.36995454,3.58241198 Z M6.00568946,14.6714629 C6.05054633,14.8203092 6.0804509,14.9691555 6.11035548,15.1180018 C6.15521235,15.4901176 6.20006922,15.8622334 6.2299738,16.2343492 L6.34959211,17.0976579 C6.3645444,17.172081 6.3645444,17.2316196 6.34959211,17.3060427 L6.39444898,17.5293122 C6.42435356,17.6781585 6.45425813,17.8270049 6.48416271,17.9758512 C6.52901958,18.184236 6.58882874,18.3926209 6.63368561,18.6010057 C6.82806537,19.3750066 6.79816079,20.1787767 6.87292223,20.8634698 C6.88787452,21.0123161 6.90282681,21.1611624 6.93273139,21.3100088 C7.26168175,20.8932391 7.66539356,20.5508925 8.14386682,20.3127384 C8.7270061,20.0150458 9.36995454,19.8661994 9.99795068,19.8066609 C10.222235,19.7768917 10.4614716,19.7768917 10.685756,19.7917763 C10.8502312,19.7917763 11.0147064,19.8066609 11.1791815,19.8215455 C10.9399449,19.3898912 10.790422,18.9284676 10.7156606,18.4372748 L10.4016625,15.9813105 C10.2670919,15.1626557 10.2820442,14.2993471 10.2072827,13.5253462 C10.1773782,13.1829997 10.1474736,13.0043841 10.012903,12.7066914 L9.81852321,12.2452678 C9.75871406,12.1113061 9.6989049,11.9773445 9.62414345,11.8582674 C9.48957285,11.6201133 9.31014538,11.4117284 9.10081333,11.2777668 C8.92138586,11.1438051 8.63729236,11.0544973 8.36815116,11.0098434 C8.06910537,10.9651895 7.74015501,10.9503048 7.45606151,10.9949587 C7.18692031,11.0396126 6.90282681,11.1735743 6.67854247,11.3373053 C6.20006922,11.6945364 5.93092801,12.2601525 5.8113097,12.9299609 L5.8113097,12.9597302 C5.8113097,12.9746148 5.8113097,12.9746148 5.8113097,12.9894994 C5.8113097,13.0043841 5.82626199,13.049038 5.82626199,13.0788072 C5.9458803,13.5997694 5.97578488,14.1653854 6.00568946,14.6714629 Z M1.52000269,18.749852 C1.60971642,19.4345451 1.83400076,20.1192382 1.93866679,20.8932391 L2.07323739,22.0393557 L2.11809426,22.3072791 C2.13304655,22.3965869 2.14799884,22.4858947 2.17790341,22.6049717 C2.20780799,22.8133566 2.22276028,22.9622029 2.26761715,23.0217414 C2.29752173,23.08128 2.41714004,23.1705878 2.6115198,23.3045494 C2.79094727,23.4533958 2.94047016,23.5427036 3.10494535,23.646896 C3.26942053,23.7362038 3.41894342,23.8106269 3.5834186,23.8552808 C3.65818005,23.8701655 3.73294149,23.8850501 3.82265523,23.8999347 C3.91236896,23.8999347 4.0020827,23.9148194 4.10674872,23.9148194 C4.33103306,23.9148194 4.54036511,23.8403962 4.73474487,23.7808577 C5.13845668,23.6617806 5.55712078,23.3492033 5.85616657,22.9919722 C5.93092801,22.8877798 5.97578488,22.8282412 6.02064175,22.7389334 C6.06549861,22.6496256 6.09540319,22.5305486 6.12530777,22.4114715 L6.17016464,22.2328559 C6.18511693,22.188202 6.18511693,22.1435481 6.18511693,22.0988943 C6.18511693,22.0095865 6.18511693,21.8905094 6.17016464,21.7714323 C6.14026006,21.5332782 6.0804509,21.2058163 6.06549861,20.9230083 C6.03559404,20.6402003 6.03559404,20.3573923 6.02064175,20.0745843 C5.99073717,19.5685068 5.93092801,19.1219678 5.8113097,18.6456596 L5.61692994,17.901428 C5.55712078,17.6483893 5.51226391,17.3655813 5.46740705,17.1274271 L5.42255018,16.8595038 C5.34778873,16.3087724 5.24312271,15.7878103 5.16836126,15.192425 C5.15340897,15.0733479 5.15340897,14.9691555 5.13845668,14.8500784 C5.13845668,14.8500784 5.12350439,14.8351938 5.12350439,14.8351938 C4.95902921,14.5970397 4.74969716,14.4333087 4.48055596,14.3588856 C4.39084222,14.3291163 4.30112849,14.2844624 4.19646246,14.2695778 C3.68808463,14.1207315 3.10494535,14.0611929 2.6115198,14.1207315 C2.40218775,14.1505007 2.17790341,14.2546932 1.93866679,14.3737702 C1.71438245,14.4928473 1.52000269,14.6565782 1.3704798,14.8351938 C1.14619546,15.1031172 1.05648172,15.3412713 1.05648172,15.7133871 C1.05648172,16.0706183 1.13124317,16.4576187 1.19105232,16.889273 C1.29571835,17.5293122 1.41533666,18.1246975 1.52000269,18.749852 Z" id="Logo" fill="#FFFFFF" fill-rule="nonzero"></path>
    </g>
</svg>
