<svg width="32" height="24" xmlns="http://www.w3.org/2000/svg"><g fill="none" fill-rule="evenodd"><path d="M24 6.667a4 4 0 110 8 4 4 0 010-8zM12 0a5.333 5.333 0 110 10.667A5.333 5.333 0 0112 0z" fill="#CEF8FB"/><path d="M23.469 16.001L23.317 16c4.61 0 8.399 2.293 8.681 7.2.011.195 0 .8-.723.8h-5.142c0-3.001-.991-5.77-2.664-7.999zm-11.491-2.668c6.384 0 11.629 3.058 12.02 9.6.015.261 0 1.067-1.002 1.067H.97c-.334 0-.997-.721-.97-1.068.518-6.363 5.683-9.599 11.978-9.599z" fill="#00A5B5"/></g></svg>