<svg width="35" height="26" xmlns="http://www.w3.org/2000/svg"><g fill="none" fill-rule="evenodd"><path d="M13 11.556A5.778 5.778 0 1113 0a5.778 5.778 0 010 11.556z" fill="#CEF8FB"/><path d="M0 24.843c.56-6.894 6.156-10.399 12.976-10.399 6.916 0 12.598 3.313 13.021 10.4.017.283 0 1.156-1.085 1.156H1.05C.689 26-.03 25.219 0 24.843zM27.264 8.306c-.346 0-.692-.139-.97-.416l-2.768-2.768a1.338 1.338 0 010-1.938c.554-.554 1.454-.554 1.938 0l1.8 1.8L31.832.414a1.338 1.338 0 011.938 0 1.338 1.338 0 010 1.938L28.233 7.89a1.366 1.366 0 01-.97.416z" fill="#00A5B5"/></g></svg>