<svg width="24" height="32" xmlns="http://www.w3.org/2000/svg"><g fill="none" fill-rule="evenodd"><path d="M20.364 2.91a2.91 2.91 0 012.909 2.908v23.273A2.91 2.91 0 0120.363 32H2.91A2.91 2.91 0 010 29.09V5.819A2.91 2.91 0 012.91 2.91h2.908v.727c0 1.153.894 2.097 2.026 2.177L8 5.818h7.273a2.182 2.182 0 002.182-2.182l-.001-.727h2.91z" fill="#CEF8FB"/><path d="M10 21.455c-.348 0-.697-.14-.976-.419l-2.788-2.788a1.347 1.347 0 010-1.951c.558-.558 1.464-.558 1.952 0L10 18.109l4.6-4.6a1.347 1.347 0 011.952 0 1.347 1.347 0 010 1.952l-5.576 5.575a1.376 1.376 0 01-.976.419zM11.636 0c.804 0 1.455.651 1.455 1.455h2.182c.401 0 .727.325.727.727v1.454a.727.727 0 01-.727.728H8a.727.727 0 01-.727-.728V2.182c0-.402.325-.727.727-.727h2.182C10.182.65 10.833 0 11.636 0z" fill="#00A5B5"/></g></svg>