<?xml version="1.0" encoding="UTF-8"?>
<svg width="200px" height="200px" viewBox="0 0 200 200" version="1.1" xmlns="http://www.w3.org/2000/svg" xmlns:xlink="http://www.w3.org/1999/xlink">
    <title>Illustration / Email Confirmation Link Expired</title>
    <g id="Illustration-/-Email-Confirmation-Link-Expired" stroke="none" stroke-width="1" fill="none" fill-rule="evenodd">
        <g id="Group" transform="translate(40.000000, 50.000000)">
            <path d="M106.666667,0 C114.030463,4.23649337e-16 120,5.96953667 120,13.3333333 L120,73.3333333 C120,80.69713 114.030463,86.6666667 106.666667,86.6666667 L59.8906323,86.6663756 C58.1752031,60.6064072 36.4940437,40 10,40 C6.57491526,40 3.23026671,40.3443883 -0.00120677234,41.0004261 L-2.84214926e-14,13.3333333 C-2.75469751e-14,5.96953667 5.96953667,3.12906434e-15 13.3333333,0 L106.666667,0 Z M107.735689,14.2961676 C106.426498,11.8648137 103.394188,10.9551207 100.962834,12.2643112 L100.962834,12.2643112 L60,34.3212219 L19.0371658,12.2643112 C16.605812,10.9551207 13.5735017,11.8648137 12.2643112,14.2961676 C10.9551207,16.7275214 11.8648137,19.7598317 14.2961676,21.0690222 L14.2961676,21.0690222 L57.6295009,44.4023555 C59.1093825,45.1992148 60.8906175,45.1992148 62.3704991,44.4023555 L62.3704991,44.4023555 L105.703832,21.0690222 C108.135186,19.7598317 109.044879,16.7275214 107.735689,14.2961676 Z" id="Combined-Shape" fill="#007884"></path>
            <path d="M29.6480906,87.3704854 C32.9412806,89.0170804 34.2761096,93.0215673 32.6295146,96.3147573 C30.9829196,99.6079473 26.9784327,100.942776 23.6852427,99.2961813 L6.66666667,90.7868933 L6.66666667,63.3333333 C6.66666667,59.651435 9.651435,56.6666667 13.3333333,56.6666667 C17.0152317,56.6666667 20,59.651435 20,63.3333333 L20,82.5464401 L29.6480906,87.3704854 Z" id="Path-85" fill="#CEF8FB"></path>
        </g>
    </g>
</svg>