<?xml version="1.0" encoding="UTF-8"?>
<svg width="200px" height="200px" viewBox="0 0 200 200" version="1.1" xmlns="http://www.w3.org/2000/svg" xmlns:xlink="http://www.w3.org/1999/xlink">
    <title>Illustration / Email Confirmation Link</title>
    <g id="Illustration-/-Email-Confirmation-Link" stroke="none" stroke-width="1" fill="none" fill-rule="evenodd">
        <g id="Group" transform="translate(10.000000, 55.000000)">
            <path d="M37.5,75 C41.6421356,75 45,78.3578644 45,82.5 C45,86.6421356 41.6421356,90 37.5,90 L30,90 C25.8578644,90 22.5,86.6421356 22.5,82.5 C22.5,78.3578644 25.8578644,75 30,75 L37.5,75 Z M37.5,37.5 C41.6421356,37.5 45,40.8578644 45,45 C45,49.1421356 41.6421356,52.5 37.5,52.5 L7.5,52.5 C3.35786438,52.5 5.07265313e-16,49.1421356 0,45 C-5.07265313e-16,40.8578644 3.35786438,37.5 7.5,37.5 L37.5,37.5 Z M37.5,0 C41.6421356,-7.6089797e-16 45,3.35786438 45,7.5 C45,11.6421356 41.6421356,15 37.5,15 L22.5,15 C18.3578644,15 15,11.6421356 15,7.5 C15,3.35786438 18.3578644,7.6089797e-16 22.5,0 L37.5,0 Z" id="Combined-Shape" fill="#CEF8FB"></path>
            <path d="M165,0 C173.284271,-1.52179594e-15 180,6.71572875 180,15 L180,75 C180,83.2842712 173.284271,90 165,90 L75,90 C66.7157288,90 60,83.2842712 60,75 L60,15 C60,6.71572875 66.7157288,-2.03091774e-15 75,0 L165,0 Z M164.442681,17.3673546 C163.223804,15.1791998 160.400675,14.3604998 158.137046,15.538737 L158.137046,15.538737 L120,35.3893793 L81.8629539,15.538737 C79.5993251,14.3604998 76.7761962,15.1791998 75.5573192,17.3673546 C74.3384421,19.5555093 75.1853808,22.2845092 77.4490096,23.4627464 L77.4490096,23.4627464 L117.793028,44.4621356 C119.170821,45.1792881 120.829179,45.1792881 122.206972,44.4621356 L122.206972,44.4621356 L162.55099,23.4627464 C164.814619,22.2845092 165.661558,19.5555093 164.442681,17.3673546 Z" id="Combined-Shape" fill="#007884"></path>
        </g>
    </g>
</svg>