<?xml version="1.0" encoding="UTF-8"?>
<svg width="200px" height="200px" viewBox="0 0 200 200" version="1.1" xmlns="http://www.w3.org/2000/svg" xmlns:xlink="http://www.w3.org/1999/xlink">
    <title>Illustration / Reset Password Link</title>
    <g id="Illustration-/-Reset-Password-Link" stroke="none" stroke-width="1" fill="none" fill-rule="evenodd">
        <g id="Group" transform="translate(10.000000, 47.000000)">
            <path d="M62.9584649,3.93587579 C62.9584649,3.37917057 63.0765932,2.82880161 63.3050453,2.32113015 C64.1968447,0.339353734 66.5263382,-0.544247233 68.5081146,0.347552155 L68.5081146,0.347552155 L177.429168,49.3620262 C178.306078,49.7566357 179.008136,50.4586941 179.402746,51.3356042 C180.294545,53.3173806 179.410944,55.646874 177.429168,56.5386734 L177.429168,56.5386734 L68.5081146,105.553147 C68.0004431,105.7816 67.4500742,105.899728 66.893369,105.899728 C64.7201815,105.899728 62.9584649,104.138011 62.9584649,101.964824 L62.9584649,101.964824 L62.9584649,62.1337065 L160.914269,52.9503498 L62.9584649,43.7669931 Z" id="Combined-Shape" fill="#007884"></path>
            <path d="M39.3490406,84.4296901 C43.6954156,84.4296901 47.2188487,87.9531233 47.2188487,92.2994983 C47.2188487,96.6458733 43.6954156,100.169306 39.3490406,100.169306 L31.4792325,100.169306 C27.1328574,100.169306 23.6094243,96.6458733 23.6094243,92.2994983 C23.6094243,87.9531233 27.1328574,84.4296901 31.4792325,84.4296901 L39.3490406,84.4296901 Z M39.3490406,45.0806496 C43.6954156,45.0806496 47.2188487,48.6040827 47.2188487,52.9504577 C47.2188487,57.2968327 43.6954156,60.8202658 39.3490406,60.8202658 L7.86980811,60.8202658 C3.52343311,60.8202658 5.32277424e-16,57.2968327 0,52.9504577 C-5.32277424e-16,48.6040827 3.52343311,45.0806496 7.86980811,45.0806496 L39.3490406,45.0806496 Z M39.3490406,5.73160902 C43.6954156,5.73160902 47.2188487,9.25504213 47.2188487,13.6014171 C47.2188487,17.9477921 43.6954156,21.4712252 39.3490406,21.4712252 L31.4792325,21.4712252 C27.1328574,21.4712252 23.6094243,17.9477921 23.6094243,13.6014171 C23.6094243,9.25504213 27.1328574,5.73160902 31.4792325,5.73160902 L39.3490406,5.73160902 Z" id="Combined-Shape" fill="#CEF8FB"></path>
        </g>
    </g>
</svg>