<?xml version="1.0" encoding="UTF-8"?>
<svg width="200px" height="200px" viewBox="0 0 200 200" version="1.1" xmlns="http://www.w3.org/2000/svg" xmlns:xlink="http://www.w3.org/1999/xlink">
    <title>Illustration / Reset Password Link Expired</title>
    <g id="Illustration-/-Reset-Password-Link-Expired" stroke="none" stroke-width="1" fill="none" fill-rule="evenodd">
        <g id="Group" transform="translate(40.000000, 38.000000)">
            <path d="M56.9315175,35.7736686 L57.4143213,35.7736686 C58.8821825,35.7736686 60.111227,36.8859386 60.2572847,38.3465151 L62.8571429,64.3450972 L62.8571429,64.3450972 L81.4175398,74.9510383 C82.3077541,75.4597322 82.8571429,76.4064277 82.8571429,77.431733 L82.8571429,78.6308115 C82.8571429,79.836048 81.8801056,80.8130853 80.674869,80.8130853 C80.4809042,80.8130853 80.2878051,80.7872258 80.1006748,80.7361903 L53.7066353,73.5378159 C52.3844711,73.1772257 51.5045632,71.9286321 51.6096723,70.562215 L54.0827904,38.4116786 C54.1972953,36.9231153 55.4385567,35.7736686 56.9315175,35.7736686 Z" id="Path-107" fill="#007884"></path>
            <path d="M120,64.3450972 C120,97.1508113 93.671657,123.807211 60.9922097,124.337059 L60,124.345097 L60,124.345097 C26.862915,124.345097 0,97.4821822 0,64.3450972 C0,58.7172821 0.774825961,53.2704374 2.2236208,48.1054201 L13.22749,51.1920213 C12.0384007,55.431177 11.4285714,59.8418193 11.4285714,64.3450972 C11.4285714,91.1703564 33.1747407,112.916526 60,112.916526 C86.8252593,112.916526 108.571429,91.1703564 108.571429,64.3450972 C108.571429,37.7880905 87.258008,16.2090999 60.8032174,15.7801758 L60,15.7736686 L60,15.7736686 C54.5646228,15.7736686 49.2711777,16.6645915 44.279182,18.370338 L51.0827605,26.4797096 C51.47889,26.9517984 51.7117615,27.5393146 51.7466284,28.1545957 C51.8359052,29.7300246 50.6311409,31.0795352 49.055712,31.1688119 L49.055712,31.1688119 L21.2444532,32.7448271 C20.967495,32.7605218 20.6897273,32.7357988 20.4198947,32.6714365 C18.8849983,32.3053222 17.9375133,30.7642486 18.3036276,29.2293522 L18.3036276,29.2293522 L24.7522184,2.19430082 C24.8945211,1.5977118 25.2250233,1.06274917 25.6948581,0.66851097 C26.9036429,-0.345779871 28.7058017,-0.188111402 29.7200925,1.02067335 L29.7200925,1.02067335 L36.5132138,9.1162465 L36.5132138,9.1162465 L36.5622875,9.09537665 C43.7627362,6.03700194 51.6837854,4.34509717 60,4.34509717 C93.137085,4.34509717 120,31.2080122 120,64.3450972 Z" id="Combined-Shape" fill="#CEF8FB"></path>
        </g>
    </g>
</svg>