<?xml version="1.0" encoding="UTF-8"?>
<svg width="24px" height="24px" viewBox="0 0 24 24" version="1.1" xmlns="http://www.w3.org/2000/svg" xmlns:xlink="http://www.w3.org/1999/xlink">
    <title>Icn / Amenity / Bedroom / Bed</title>
    <g id="Icn-/-Amenity-/-Bedroom-/-Bed" stroke="none" stroke-width="1" fill="none" fill-rule="evenodd">
        <path d="M4,20 L2,20 C2,17.2385763 4.23857625,16 7,16 L17,16 C19.7614237,16 22,17.2385763 22,20 L20,20 C20,18.3431458 18.6568542,18 17,18 L7,18 C5.34314575,18 4,18.3431458 4,20 Z" id="Path-61" fill="#CEF8FB"></path>
        <rect id="Rectangle-137" fill="#00A5B5" x="1" y="12" width="22" height="6" rx="1"></rect>
        <path d="M19,4 C20.1045695,4 21,4.8954305 21,6 L21,10 C21,10.5522847 20.5522847,11 20,11 L19,11 L19,10 C19,9.44771525 18.5522847,9 18,9 L18,9 L14,9 C13.4477153,9 13,9.44771525 13,10 L13,10 L13,11 L13,11 L11,11 L11,10 C11,9.44771525 10.5522847,9 10,9 L10,9 L6,9 C5.44771525,9 5,9.44771525 5,10 L5,10 L5,11 L5,11 L4,11 C3.44771525,11 3,10.5522847 3,10 L3,6 C3,4.8954305 3.8954305,4 5,4 L19,4 Z" id="Combined-Shape" fill="#CEF8FB"></path>
    </g>
</svg>