<?xml version="1.0" encoding="UTF-8"?>
<svg width="32px" height="32px" viewBox="0 0 32 32" version="1.1" xmlns="http://www.w3.org/2000/svg" xmlns:xlink="http://www.w3.org/1999/xlink">
    <title>Icn / Amenity / Bedroom / Blackout Shades</title>
    <g id="Icn-/-Amenity-/-Bedroom-/-Blackout-Shades" stroke="none" stroke-width="1" fill="none" fill-rule="evenodd">
        <g id="Group" transform="translate(3.000000, 6.000000)" fill="#13284C" fill-rule="nonzero">
            <g id="Group-4" transform="translate(0.000000, 0.265500)">
                <path d="M25.721,-0.265 L0.35,-0.265 C0.156700338,-0.265 -2.10942375e-15,-0.108299662 -2.10942375e-15,0.085 L-2.10942375e-15,2.002 C-2.10942375e-15,2.19529966 0.156700338,2.352 0.35,2.352 L25.721,2.352 C25.9142997,2.352 26.071,2.19529966 26.071,2.002 L26.071,0.085 C26.071,-0.108299662 25.9142997,-0.265 25.721,-0.265 Z M25.37,0.434 L25.37,1.651 L0.699,1.651 L0.699,0.434 L25.37,0.434 Z" id="Stroke-1"></path>
                <path d="M23.239,1.652 L2.831,1.652 C2.63770034,1.652 2.481,1.80870034 2.481,2.002 L2.481,19.65 C2.481,19.8432997 2.63770034,20 2.831,20 L23.239,20 C23.4322997,20 23.589,19.8432997 23.589,19.65 L23.589,2.002 C23.589,1.80870034 23.4322997,1.652 23.239,1.652 Z M22.889,2.351 L22.889,19.299 L3.181,19.299 L3.181,2.351 L22.889,2.351 Z" id="Stroke-3"></path>
            </g>
            <path d="M24.6567,1.917 C24.8258372,1.917 24.9669531,2.0369737 24.9995892,2.19646279 L25.0067,2.267 L25.0067,13.739 C25.0067,13.9322997 24.8499997,14.089 24.6567,14.089 C24.4875628,14.089 24.3464469,13.9690263 24.3138108,13.8095372 L24.3067,13.739 L24.3067,2.267 C24.3067,2.07370034 24.4634003,1.917 24.6567,1.917 Z" id="Stroke-5"></path>
            <g id="Group-148" transform="translate(3.000000, 2.265500)">
                <path d="M21.6571,10.8932 C21.3369625,10.8932 21.0761,11.1517264 21.0761,11.4732 C21.0761,11.7937808 21.3370773,12.0532 21.6571,12.0532 C21.9765105,12.0532 22.2371,11.7933907 22.2371,11.4732 C22.2371,11.1521168 21.9766234,10.8932 21.6571,10.8932 Z" id="Stroke-6"></path>
                <path d="M2.38972795,0.730688652 C2.45357834,0.677905668 2.54812836,0.686877568 2.60091135,0.750727952 C2.64313774,0.80180826 2.645841,0.872536338 2.61254185,0.925809246 L2.58087205,0.961911348 L1.72955407,1.65098835 C1.66510888,1.70304343 1.57066674,1.69299926 1.51861165,1.62855407 C1.47696759,1.57699792 1.47506704,1.50624372 1.50896852,1.45335208 L1.54104593,1.41761165 L2.38972795,0.730688652 Z" id="Stroke-8"></path>
                <path d="M3.18039809,2.17315031 C3.24482193,2.12106881 3.33926818,2.13107424 3.39134969,2.19549809 C3.43301489,2.24703716 3.43494445,2.31779058 3.40106466,2.37069611 L3.36900191,2.40644969 L1.73000191,3.73144969 C1.66557807,3.78353119 1.57113182,3.77352576 1.51905031,3.70910191 C1.47738511,3.65756284 1.47545555,3.58680942 1.50933534,3.53390389 L1.54139809,3.49815031 L3.18039809,2.17315031 Z" id="Stroke-10"></path>
                <path d="M4.95952795,0.730688652 C5.02337834,0.677905668 5.11792836,0.686877568 5.17071135,0.750727952 C5.21293774,0.80180826 5.215641,0.872536338 5.18234185,0.925809246 L5.15067205,0.961911348 L4.29935407,1.65098835 C4.23490888,1.70304343 4.14046674,1.69299926 4.08841165,1.62855407 C4.04676759,1.57699792 4.04486704,1.50624372 4.07876852,1.45335208 L4.11084593,1.41761165 L4.95952795,0.730688652 Z" id="Stroke-12"></path>
                <path d="M3.18039809,4.25325031 C3.24482193,4.20116881 3.33926818,4.21117424 3.39134969,4.27559809 C3.43301489,4.32713716 3.43494445,4.39789058 3.40106466,4.45079611 L3.36900191,4.48654969 L1.73000191,5.81154969 C1.66557807,5.86363119 1.57113182,5.85362576 1.51905031,5.78920191 C1.47738511,5.73766284 1.47545555,5.66690942 1.50933534,5.61400389 L1.54139809,5.57825031 L3.18039809,4.25325031 Z" id="Stroke-14"></path>
                <path d="M5.75019809,2.17315031 C5.81462193,2.12106881 5.90906818,2.13107424 5.96114969,2.19549809 C6.00281489,2.24703716 6.00474445,2.31779058 5.97086466,2.37069611 L5.93880191,2.40644969 L4.29980191,3.73144969 C4.23537807,3.78353119 4.14093182,3.77352576 4.08885031,3.70910191 C4.04718511,3.65756284 4.04525555,3.58680942 4.07913534,3.53390389 L4.11119809,3.49815031 L5.75019809,2.17315031 Z" id="Stroke-16"></path>
                <path d="M7.52932795,0.730688652 C7.59317834,0.677905668 7.68772836,0.686877568 7.74051135,0.750727952 C7.78273774,0.80180826 7.785441,0.872536338 7.75214185,0.925809246 L7.72047205,0.961911348 L6.86915407,1.65098835 C6.80470888,1.70304343 6.71026674,1.69299926 6.65821165,1.62855407 C6.61656759,1.57699792 6.61466704,1.50624372 6.64856852,1.45335208 L6.68064593,1.41761165 L7.52932795,0.730688652 Z" id="Stroke-18"></path>
                <path d="M3.18035507,6.33238511 C3.24475969,6.28027984 3.33920962,6.29025044 3.39131489,6.35465507 C3.43299911,6.40617877 3.43495477,6.47693146 3.40109449,6.52984949 L3.36904493,6.56561489 L1.73004493,7.89161489 C1.66564031,7.94372016 1.57119038,7.93374956 1.51908511,7.86934493 C1.47740089,7.81782123 1.47544523,7.74706854 1.50930551,7.69415051 L1.54135507,7.65838511 L3.18035507,6.33238511 Z" id="Stroke-20"></path>
                <path d="M5.75019809,4.25325031 C5.81462193,4.20116881 5.90906818,4.21117424 5.96114969,4.27559809 C6.00281489,4.32713716 6.00474445,4.39789058 5.97086466,4.45079611 L5.93880191,4.48654969 L4.29980191,5.81154969 C4.23537807,5.86363119 4.14093182,5.85362576 4.08885031,5.78920191 C4.04718511,5.73766284 4.04525555,5.66690942 4.07913534,5.61400389 L4.11119809,5.57825031 L5.75019809,4.25325031 Z" id="Stroke-22"></path>
                <path d="M8.31999809,2.17315031 C8.38442193,2.12106881 8.47886818,2.13107424 8.53094969,2.19549809 C8.57261489,2.24703716 8.57454445,2.31779058 8.54066466,2.37069611 L8.50860191,2.40644969 L6.86960191,3.73144969 C6.80517807,3.78353119 6.71073182,3.77352576 6.65865031,3.70910191 C6.61698511,3.65756284 6.61505555,3.58680942 6.64893534,3.53390389 L6.68099809,3.49815031 L8.31999809,2.17315031 Z" id="Stroke-24"></path>
                <path d="M10.099128,0.730688652 C10.1629783,0.677905668 10.2575284,0.686877568 10.3103113,0.750727952 C10.3525377,0.80180826 10.355241,0.872536338 10.3219418,0.925809246 L10.290272,0.961911348 L9.43895407,1.65098835 C9.37450888,1.70304343 9.28006674,1.69299926 9.22801165,1.62855407 C9.18636759,1.57699792 9.18446704,1.50624372 9.21836852,1.45335208 L9.25044593,1.41761165 L10.099128,0.730688652 Z" id="Stroke-26"></path>
                <path d="M3.18035507,8.41238511 C3.24475969,8.36027984 3.33920962,8.37025044 3.39131489,8.43465507 C3.43299911,8.48617877 3.43495477,8.55693146 3.40109449,8.60984949 L3.36904493,8.64561489 L1.73004493,9.97161489 C1.66564031,10.0237202 1.57119038,10.0137496 1.51908511,9.94934493 C1.47740089,9.89782123 1.47544523,9.82706854 1.50930551,9.77415051 L1.54135507,9.73838511 L3.18035507,8.41238511 Z" id="Stroke-28"></path>
                <path d="M5.75015507,6.33238511 C5.81455969,6.28027984 5.90900962,6.29025044 5.96111489,6.35465507 C6.00279911,6.40617877 6.00475477,6.47693146 5.97089449,6.52984949 L5.93884493,6.56561489 L4.29984493,7.89161489 C4.23544031,7.94372016 4.14099038,7.93374956 4.08888511,7.86934493 C4.04720089,7.81782123 4.04524523,7.74706854 4.07910551,7.69415051 L4.11115507,7.65838511 L5.75015507,6.33238511 Z" id="Stroke-30"></path>
                <path d="M8.31999809,4.25325031 C8.38442193,4.20116881 8.47886818,4.21117424 8.53094969,4.27559809 C8.57261489,4.32713716 8.57454445,4.39789058 8.54066466,4.45079611 L8.50860191,4.48654969 L6.86960191,5.81154969 C6.80517807,5.86363119 6.71073182,5.85362576 6.65865031,5.78920191 C6.61698511,5.73766284 6.61505555,5.66690942 6.64893534,5.61400389 L6.68099809,5.57825031 L8.31999809,4.25325031 Z" id="Stroke-32"></path>
                <path d="M10.8897981,2.17315031 C10.9542219,2.12106881 11.0486682,2.13107424 11.1007497,2.19549809 C11.1424149,2.24703716 11.1443445,2.31779058 11.1104647,2.37069611 L11.0784019,2.40644969 L9.43940191,3.73144969 C9.37497807,3.78353119 9.28053182,3.77352576 9.22845031,3.70910191 C9.18678511,3.65756284 9.18485555,3.58680942 9.21873534,3.53390389 L9.25079809,3.49815031 L10.8897981,2.17315031 Z" id="Stroke-34"></path>
                <path d="M12.669028,0.730688652 C12.7328783,0.677905668 12.8274284,0.686877568 12.8802113,0.750727952 C12.9224377,0.80180826 12.925141,0.872536338 12.8918418,0.925809246 L12.860172,0.961911348 L12.0088541,1.65098835 C11.9444089,1.70304343 11.8499667,1.69299926 11.7979117,1.62855407 C11.7562676,1.57699792 11.754367,1.50624372 11.7882685,1.45335208 L11.8203459,1.41761165 L12.669028,0.730688652 Z" id="Stroke-36"></path>
                <path d="M3.18039809,10.4924503 C3.24482193,10.4403688 3.33926818,10.4503742 3.39134969,10.5147981 C3.43301489,10.5663372 3.43494445,10.6370906 3.40106466,10.6899961 L3.36900191,10.7257497 L1.73000191,12.0507497 C1.66557807,12.1028312 1.57113182,12.0928258 1.51905031,12.0284019 C1.47738511,11.9768628 1.47545555,11.9061094 1.50933534,11.8532039 L1.54139809,11.8174503 L3.18039809,10.4924503 Z" id="Stroke-38"></path>
                <path d="M5.75015507,8.41238511 C5.81455969,8.36027984 5.90900962,8.37025044 5.96111489,8.43465507 C6.00279911,8.48617877 6.00475477,8.55693146 5.97089449,8.60984949 L5.93884493,8.64561489 L4.29984493,9.97161489 C4.23544031,10.0237202 4.14099038,10.0137496 4.08888511,9.94934493 C4.04720089,9.89782123 4.04524523,9.82706854 4.07910551,9.77415051 L4.11115507,9.73838511 L5.75015507,8.41238511 Z" id="Stroke-40"></path>
                <path d="M8.31995507,6.33238511 C8.38435969,6.28027984 8.47880962,6.29025044 8.53091489,6.35465507 C8.57259911,6.40617877 8.57455477,6.47693146 8.54069449,6.52984949 L8.50864493,6.56561489 L6.86964493,7.89161489 C6.80524031,7.94372016 6.71079038,7.93374956 6.65868511,7.86934493 C6.61700089,7.81782123 6.61504523,7.74706854 6.64890551,7.69415051 L6.68095507,7.65838511 L8.31995507,6.33238511 Z" id="Stroke-42"></path>
                <path d="M10.8897981,4.25325031 C10.9542219,4.20116881 11.0486682,4.21117424 11.1007497,4.27559809 C11.1424149,4.32713716 11.1443445,4.39789058 11.1104647,4.45079611 L11.0784019,4.48654969 L9.43940191,5.81154969 C9.37497807,5.86363119 9.28053182,5.85362576 9.22845031,5.78920191 C9.18678511,5.73766284 9.18485555,5.66690942 9.21873534,5.61400389 L9.25079809,5.57825031 L10.8897981,4.25325031 Z" id="Stroke-44"></path>
                <path d="M13.4596981,2.17315031 C13.5241219,2.12106881 13.6185682,2.13107424 13.6706497,2.19549809 C13.7123149,2.24703716 13.7142445,2.31779058 13.6803647,2.37069611 L13.6483019,2.40644969 L12.0093019,3.73144969 C11.9448781,3.78353119 11.8504318,3.77352576 11.7983503,3.70910191 C11.7566851,3.65756284 11.7547555,3.58680942 11.7886353,3.53390389 L11.8206981,3.49815031 L13.4596981,2.17315031 Z" id="Stroke-46"></path>
                <path d="M15.238828,0.730688652 C15.3026783,0.677905668 15.3972284,0.686877568 15.4500113,0.750727952 C15.4922377,0.80180826 15.494941,0.872536338 15.4616418,0.925809246 L15.429972,0.961911348 L14.5797277,1.65092883 C14.5153154,1.70302458 14.4208669,1.69304003 14.3687712,1.62862771 C14.3270946,1.57709785 14.3251494,1.50634486 14.3590175,1.45343184 L14.3910723,1.41767117 L15.238828,0.730688652 Z" id="Stroke-48"></path>
                <path d="M3.18039809,12.5725503 C3.24482193,12.5204688 3.33926818,12.5304742 3.39134969,12.5948981 C3.43301489,12.6464372 3.43494445,12.7171906 3.40106466,12.7700961 L3.36900191,12.8058497 L1.73000191,14.1308497 C1.66557807,14.1829312 1.57113182,14.1729258 1.51905031,14.1085019 C1.47738511,14.0569628 1.47545555,13.9862094 1.50933534,13.9333039 L1.54139809,13.8975503 L3.18039809,12.5725503 Z" id="Stroke-50"></path>
                <path d="M5.75019809,10.4924503 C5.81462193,10.4403688 5.90906818,10.4503742 5.96114969,10.5147981 C6.00281489,10.5663372 6.00474445,10.6370906 5.97086466,10.6899961 L5.93880191,10.7257497 L4.29980191,12.0507497 C4.23537807,12.1028312 4.14093182,12.0928258 4.08885031,12.0284019 C4.04718511,11.9768628 4.04525555,11.9061094 4.07913534,11.8532039 L4.11119809,11.8174503 L5.75019809,10.4924503 Z" id="Stroke-52"></path>
                <path d="M8.31995507,8.41238511 C8.38435969,8.36027984 8.47880962,8.37025044 8.53091489,8.43465507 C8.57259911,8.48617877 8.57455477,8.55693146 8.54069449,8.60984949 L8.50864493,8.64561489 L6.86964493,9.97161489 C6.80524031,10.0237202 6.71079038,10.0137496 6.65868511,9.94934493 C6.61700089,9.89782123 6.61504523,9.82706854 6.64890551,9.77415051 L6.68095507,9.73838511 L8.31995507,8.41238511 Z" id="Stroke-54"></path>
                <path d="M10.8897551,6.33238511 C10.9541597,6.28027984 11.0486096,6.29025044 11.1007149,6.35465507 C11.1423991,6.40617877 11.1443548,6.47693146 11.1104945,6.52984949 L11.0784449,6.56561489 L9.43944493,7.89161489 C9.37504031,7.94372016 9.28059038,7.93374956 9.22848511,7.86934493 C9.18680089,7.81782123 9.18484523,7.74706854 9.21870551,7.69415051 L9.25075507,7.65838511 L10.8897551,6.33238511 Z" id="Stroke-56"></path>
                <path d="M13.4596981,4.25325031 C13.5241219,4.20116881 13.6185682,4.21117424 13.6706497,4.27559809 C13.7123149,4.32713716 13.7142445,4.39789058 13.6803647,4.45079611 L13.6483019,4.48654969 L12.0093019,5.81154969 C11.9448781,5.86363119 11.8504318,5.85362576 11.7983503,5.78920191 C11.7566851,5.73766284 11.7547555,5.66690942 11.7886353,5.61400389 L11.8206981,5.57825031 L13.4596981,4.25325031 Z" id="Stroke-58"></path>
                <path d="M16.0289633,2.17317846 C16.0933716,2.12107773 16.1878208,2.13105498 16.2399215,2.19546328 C16.2816021,2.24698992 16.2835528,2.31774276 16.2496888,2.3706584 L16.2176367,2.40642154 L14.5796367,3.73142154 C14.5152284,3.78352227 14.4207792,3.77354502 14.3686785,3.70913672 C14.3269979,3.65761008 14.3250472,3.58685724 14.3589112,3.5339416 L14.3909633,3.49817846 L16.0289633,2.17317846 Z" id="Stroke-60"></path>
                <path d="M17.808628,0.730688652 C17.8724783,0.677905668 17.9670284,0.686877568 18.0198113,0.750727952 C18.0620377,0.80180826 18.064741,0.872536338 18.0314418,0.925809246 L17.999772,0.961911348 L17.1495277,1.65092883 C17.0851154,1.70302458 16.9906669,1.69304003 16.9385712,1.62862771 C16.8968946,1.57709785 16.8949494,1.50634486 16.9288175,1.45343184 L16.9608723,1.41767117 L17.808628,0.730688652 Z" id="Stroke-62"></path>
                <path d="M3.18039809,14.6526503 C3.24482193,14.6005688 3.33926818,14.6105742 3.39134969,14.6749981 C3.43301489,14.7265372 3.43494445,14.7972906 3.40106466,14.8501961 L3.36900191,14.8859497 L1.73000191,16.2109497 C1.66557807,16.2630312 1.57113182,16.2530258 1.51905031,16.1886019 C1.47738511,16.1370628 1.47545555,16.0663094 1.50933534,16.0134039 L1.54139809,15.9776503 L3.18039809,14.6526503 Z" id="Stroke-64"></path>
                <path d="M5.75019809,12.5725503 C5.81462193,12.5204688 5.90906818,12.5304742 5.96114969,12.5948981 C6.00281489,12.6464372 6.00474445,12.7171906 5.97086466,12.7700961 L5.93880191,12.8058497 L4.29980191,14.1308497 C4.23537807,14.1829312 4.14093182,14.1729258 4.08885031,14.1085019 C4.04718511,14.0569628 4.04525555,13.9862094 4.07913534,13.9333039 L4.11119809,13.8975503 L5.75019809,12.5725503 Z" id="Stroke-66"></path>
                <path d="M8.31999809,10.4924503 C8.38442193,10.4403688 8.47886818,10.4503742 8.53094969,10.5147981 C8.57261489,10.5663372 8.57454445,10.6370906 8.54066466,10.6899961 L8.50860191,10.7257497 L6.86960191,12.0507497 C6.80517807,12.1028312 6.71073182,12.0928258 6.65865031,12.0284019 C6.61698511,11.9768628 6.61505555,11.9061094 6.64893534,11.8532039 L6.68099809,11.8174503 L8.31999809,10.4924503 Z" id="Stroke-68"></path>
                <path d="M10.8897551,8.41238511 C10.9541597,8.36027984 11.0486096,8.37025044 11.1007149,8.43465507 C11.1423991,8.48617877 11.1443548,8.55693146 11.1104945,8.60984949 L11.0784449,8.64561489 L9.43944493,9.97161489 C9.37504031,10.0237202 9.28059038,10.0137496 9.22848511,9.94934493 C9.18680089,9.89782123 9.18484523,9.82706854 9.21870551,9.77415051 L9.25075507,9.73838511 L10.8897551,8.41238511 Z" id="Stroke-70"></path>
                <path d="M13.4596551,6.33238511 C13.5240597,6.28027984 13.6185096,6.29025044 13.6706149,6.35465507 C13.7122991,6.40617877 13.7142548,6.47693146 13.6803945,6.52984949 L13.6483449,6.56561489 L12.0093449,7.89161489 C11.9449403,7.94372016 11.8504904,7.93374956 11.7983851,7.86934493 C11.7567009,7.81782123 11.7547452,7.74706854 11.7886055,7.69415051 L11.8206551,7.65838511 L13.4596551,6.33238511 Z" id="Stroke-72"></path>
                <path d="M16.0289633,4.25327846 C16.0933716,4.20117773 16.1878208,4.21115498 16.2399215,4.27556328 C16.2816021,4.32708992 16.2835528,4.39784276 16.2496888,4.4507584 L16.2176367,4.48652154 L14.5796367,5.81152154 C14.5152284,5.86362227 14.4207792,5.85364502 14.3686785,5.78923672 C14.3269979,5.73771008 14.3250472,5.66695724 14.3589112,5.6140416 L14.3909633,5.57827846 L16.0289633,4.25327846 Z" id="Stroke-74"></path>
                <path d="M18.5987633,2.17317846 C18.6631716,2.12107773 18.7576208,2.13105498 18.8097215,2.19546328 C18.8514021,2.24698992 18.8533528,2.31774276 18.8194888,2.3706584 L18.7874367,2.40642154 L17.1494367,3.73142154 C17.0850284,3.78352227 16.9905792,3.77354502 16.9384785,3.70913672 C16.8967979,3.65761008 16.8948472,3.58685724 16.9287112,3.5339416 L16.9607633,3.49817846 L18.5987633,2.17317846 Z" id="Stroke-76"></path>
                <path d="M5.75019809,14.6526503 C5.81462193,14.6005688 5.90906818,14.6105742 5.96114969,14.6749981 C6.00281489,14.7265372 6.00474445,14.7972906 5.97086466,14.8501961 L5.93880191,14.8859497 L4.29980191,16.2109497 C4.23537807,16.2630312 4.14093182,16.2530258 4.08885031,16.1886019 C4.04718511,16.1370628 4.04525555,16.0663094 4.07913534,16.0134039 L4.11119809,15.9776503 L5.75019809,14.6526503 Z" id="Stroke-78"></path>
                <path d="M8.31999809,12.5725503 C8.38442193,12.5204688 8.47886818,12.5304742 8.53094969,12.5948981 C8.57261489,12.6464372 8.57454445,12.7171906 8.54066466,12.7700961 L8.50860191,12.8058497 L6.86960191,14.1308497 C6.80517807,14.1829312 6.71073182,14.1729258 6.65865031,14.1085019 C6.61698511,14.0569628 6.61505555,13.9862094 6.64893534,13.9333039 L6.68099809,13.8975503 L8.31999809,12.5725503 Z" id="Stroke-80"></path>
                <path d="M10.8897981,10.4924503 C10.9542219,10.4403688 11.0486682,10.4503742 11.1007497,10.5147981 C11.1424149,10.5663372 11.1443445,10.6370906 11.1104647,10.6899961 L11.0784019,10.7257497 L9.43940191,12.0507497 C9.37497807,12.1028312 9.28053182,12.0928258 9.22845031,12.0284019 C9.18678511,11.9768628 9.18485555,11.9061094 9.21873534,11.8532039 L9.25079809,11.8174503 L10.8897981,10.4924503 Z" id="Stroke-82"></path>
                <path d="M13.4596551,8.41238511 C13.5240597,8.36027984 13.6185096,8.37025044 13.6706149,8.43465507 C13.7122991,8.48617877 13.7142548,8.55693146 13.6803945,8.60984949 L13.6483449,8.64561489 L12.0093449,9.97161489 C11.9449403,10.0237202 11.8504904,10.0137496 11.7983851,9.94934493 C11.7567009,9.89782123 11.7547452,9.82706854 11.7886055,9.77415051 L11.8206551,9.73838511 L13.4596551,8.41238511 Z" id="Stroke-84"></path>
                <path d="M16.0289203,6.33241327 C16.0933093,6.28028878 16.1877622,6.29023119 16.2398867,6.35462027 C16.2815863,6.40613152 16.2835631,6.47688363 16.2497186,6.52981177 L16.2176797,6.56558673 L14.5796797,7.89158673 C14.5152907,7.94371122 14.4208378,7.93376881 14.3687133,7.86937973 C14.3270137,7.81786848 14.3250369,7.74711637 14.3588814,7.69418823 L14.3909203,7.65841327 L16.0289203,6.33241327 Z" id="Stroke-86"></path>
                <path d="M18.5987633,4.25327846 C18.6631716,4.20117773 18.7576208,4.21115498 18.8097215,4.27556328 C18.8514021,4.32708992 18.8533528,4.39784276 18.8194888,4.4507584 L18.7874367,4.48652154 L17.1494367,5.81152154 C17.0850284,5.86362227 16.9905792,5.85364502 16.9384785,5.78923672 C16.8967979,5.73771008 16.8948472,5.66695724 16.9287112,5.6140416 L16.9607633,5.57827846 L18.5987633,4.25327846 Z" id="Stroke-88"></path>
                <path d="M8.31999809,14.6526503 C8.38442193,14.6005688 8.47886818,14.6105742 8.53094969,14.6749981 C8.57261489,14.7265372 8.57454445,14.7972906 8.54066466,14.8501961 L8.50860191,14.8859497 L6.86960191,16.2109497 C6.80517807,16.2630312 6.71073182,16.2530258 6.65865031,16.1886019 C6.61698511,16.1370628 6.61505555,16.0663094 6.64893534,16.0134039 L6.68099809,15.9776503 L8.31999809,14.6526503 Z" id="Stroke-90"></path>
                <path d="M10.8897981,12.5725503 C10.9542219,12.5204688 11.0486682,12.5304742 11.1007497,12.5948981 C11.1424149,12.6464372 11.1443445,12.7171906 11.1104647,12.7700961 L11.0784019,12.8058497 L9.43940191,14.1308497 C9.37497807,14.1829312 9.28053182,14.1729258 9.22845031,14.1085019 C9.18678511,14.0569628 9.18485555,13.9862094 9.21873534,13.9333039 L9.25079809,13.8975503 L10.8897981,12.5725503 Z" id="Stroke-92"></path>
                <path d="M13.4596981,10.4924503 C13.5241219,10.4403688 13.6185682,10.4503742 13.6706497,10.5147981 C13.7123149,10.5663372 13.7142445,10.6370906 13.6803647,10.6899961 L13.6483019,10.7257497 L12.0093019,12.0507497 C11.9448781,12.1028312 11.8504318,12.0928258 11.7983503,12.0284019 C11.7566851,11.9768628 11.7547555,11.9061094 11.7886353,11.8532039 L11.8206981,11.8174503 L13.4596981,10.4924503 Z" id="Stroke-94"></path>
                <path d="M16.0289203,8.41241327 C16.0933093,8.36028878 16.1877622,8.37023119 16.2398867,8.43462027 C16.2815863,8.48613152 16.2835631,8.55688363 16.2497186,8.60981177 L16.2176797,8.64558673 L14.5796797,9.97158673 C14.5152907,10.0237112 14.4208378,10.0137688 14.3687133,9.94937973 C14.3270137,9.89786848 14.3250369,9.82711637 14.3588814,9.77418823 L14.3909203,9.73841327 L16.0289203,8.41241327 Z" id="Stroke-96"></path>
                <path d="M18.5987203,6.33241327 C18.6631093,6.28028878 18.7575622,6.29023119 18.8096867,6.35462027 C18.8513863,6.40613152 18.8533631,6.47688363 18.8195186,6.52981177 L18.7874797,6.56558673 L17.1494797,7.89158673 C17.0850907,7.94371122 16.9906378,7.93376881 16.9385133,7.86937973 C16.8968137,7.81786848 16.8948369,7.74711637 16.9286814,7.69418823 L16.9607203,7.65841327 L18.5987203,6.33241327 Z" id="Stroke-98"></path>
                <path d="M10.8897981,14.6526503 C10.9542219,14.6005688 11.0486682,14.6105742 11.1007497,14.6749981 C11.1424149,14.7265372 11.1443445,14.7972906 11.1104647,14.8501961 L11.0784019,14.8859497 L9.43940191,16.2109497 C9.37497807,16.2630312 9.28053182,16.2530258 9.22845031,16.1886019 C9.18678511,16.1370628 9.18485555,16.0663094 9.21873534,16.0134039 L9.25079809,15.9776503 L10.8897981,14.6526503 Z" id="Stroke-100"></path>
                <path d="M13.4596981,12.5725503 C13.5241219,12.5204688 13.6185682,12.5304742 13.6706497,12.5948981 C13.7123149,12.6464372 13.7142445,12.7171906 13.6803647,12.7700961 L13.6483019,12.8058497 L12.0093019,14.1308497 C11.9448781,14.1829312 11.8504318,14.1729258 11.7983503,14.1085019 C11.7566851,14.0569628 11.7547555,13.9862094 11.7886353,13.9333039 L11.8206981,13.8975503 L13.4596981,12.5725503 Z" id="Stroke-102"></path>
                <path d="M16.0289633,10.4924785 C16.0933716,10.4403777 16.1878208,10.450355 16.2399215,10.5147633 C16.2816021,10.5662899 16.2835528,10.6370428 16.2496888,10.6899584 L16.2176367,10.7257215 L14.5796367,12.0507215 C14.5152284,12.1028223 14.4207792,12.092845 14.3686785,12.0284367 C14.3269979,11.9769101 14.3250472,11.9061572 14.3589112,11.8532416 L14.3909633,11.8174785 L16.0289633,10.4924785 Z" id="Stroke-104"></path>
                <path d="M18.5987203,8.41241327 C18.6631093,8.36028878 18.7575622,8.37023119 18.8096867,8.43462027 C18.8513863,8.48613152 18.8533631,8.55688363 18.8195186,8.60981177 L18.7874797,8.64558673 L17.1494797,9.97158673 C17.0850907,10.0237112 16.9906378,10.0137688 16.9385133,9.94937973 C16.8968137,9.89786848 16.8948369,9.82711637 16.9286814,9.77418823 L16.9607203,9.73841327 L18.5987203,8.41241327 Z" id="Stroke-106"></path>
                <path d="M13.4596981,14.6526503 C13.5241219,14.6005688 13.6185682,14.6105742 13.6706497,14.6749981 C13.7123149,14.7265372 13.7142445,14.7972906 13.6803647,14.8501961 L13.6483019,14.8859497 L12.0093019,16.2109497 C11.9448781,16.2630312 11.8504318,16.2530258 11.7983503,16.1886019 C11.7566851,16.1370628 11.7547555,16.0663094 11.7886353,16.0134039 L11.8206981,15.9776503 L13.4596981,14.6526503 Z" id="Stroke-108"></path>
                <path d="M16.0289633,12.5725785 C16.0933716,12.5204777 16.1878208,12.530455 16.2399215,12.5948633 C16.2816021,12.6463899 16.2835528,12.7171428 16.2496888,12.7700584 L16.2176367,12.8058215 L14.5796367,14.1308215 C14.5152284,14.1829223 14.4207792,14.172945 14.3686785,14.1085367 C14.3269979,14.0570101 14.3250472,13.9862572 14.3589112,13.9333416 L14.3909633,13.8975785 L16.0289633,12.5725785 Z" id="Stroke-110"></path>
                <path d="M18.5987633,10.4924785 C18.6631716,10.4403777 18.7576208,10.450355 18.8097215,10.5147633 C18.8514021,10.5662899 18.8533528,10.6370428 18.8194888,10.6899584 L18.7874367,10.7257215 L17.1494367,12.0507215 C17.0850284,12.1028223 16.9905792,12.092845 16.9384785,12.0284367 C16.8967979,11.9769101 16.8948472,11.9061572 16.9287112,11.8532416 L16.9607633,11.8174785 L18.5987633,10.4924785 Z" id="Stroke-112"></path>
                <path d="M16.0289633,14.6526785 C16.0933716,14.6005777 16.1878208,14.610555 16.2399215,14.6749633 C16.2816021,14.7264899 16.2835528,14.7972428 16.2496888,14.8501584 L16.2176367,14.8859215 L14.5796367,16.2109215 C14.5152284,16.2630223 14.4207792,16.253045 14.3686785,16.1886367 C14.3269979,16.1371101 14.3250472,16.0663572 14.3589112,16.0134416 L14.3909633,15.9776785 L16.0289633,14.6526785 Z" id="Stroke-114"></path>
                <path d="M18.5987633,14.6526785 C18.6631716,14.6005777 18.7576208,14.610555 18.8097215,14.6749633 C18.8514021,14.7264899 18.8533528,14.7972428 18.8194888,14.8501584 L18.7874367,14.8859215 L17.1494367,16.2109215 C17.0850284,16.2630223 16.9905792,16.253045 16.9384785,16.1886367 C16.8967979,16.1371101 16.8948472,16.0663572 16.9287112,16.0134416 L16.9607633,15.9776785 L18.5987633,14.6526785 Z" id="Stroke-116"></path>
                <path d="M18.5987633,12.5725785 C18.6631716,12.5204777 18.7576208,12.530455 18.8097215,12.5948633 C18.8514021,12.6463899 18.8533528,12.7171428 18.8194888,12.7700584 L18.7874367,12.8058215 L17.1494367,14.1308215 C17.0850284,14.1829223 16.9905792,14.172945 16.9384785,14.1085367 C16.8967979,14.0570101 16.8948472,13.9862572 16.9287112,13.9333416 L16.9607633,13.8975785 L18.5987633,12.5725785 Z" id="Stroke-118"></path>
                <path d="M0.82669106,14.1864477 C0.868378525,14.1349266 0.937164377,14.1182451 0.995984705,14.1403132 L1.03765229,14.1641911 L3.94762392,16.5181681 C4.01203794,16.5702618 4.02202555,16.6647099 3.96993189,16.7291239 C3.92825696,16.7806551 3.85947517,16.7973535 3.80064947,16.7752996 L3.75897608,16.7514319 L0.848947708,14.3974089 C0.784546369,14.3452996 0.774581728,14.250849 0.82669106,14.1864477 Z" id="Stroke-120"></path>
                <path d="M0.82669106,12.1063477 C0.868378525,12.0548266 0.937164377,12.0381451 0.995984705,12.0602132 L1.03765229,12.0840911 L6.515703,16.5191321 C6.58008167,16.5712694 6.59000523,16.6657243 6.53786789,16.730103 C6.49615802,16.7816059 6.42736492,16.7982576 6.36855419,16.7761638 L6.326897,16.7522679 L0.848947708,12.3173089 C0.784546369,12.2651996 0.774581728,12.170749 0.82669106,12.1063477 Z" id="Stroke-122"></path>
                <path d="M0.82669106,10.0263477 C0.868378525,9.97482664 0.937164377,9.95814505 0.995984705,9.98021324 L1.03765229,10.0040911 L9.08474258,16.5191642 C9.14910354,16.5713234 9.15899502,16.6657816 9.10683583,16.7301426 C9.06510847,16.7816313 8.99630972,16.7982597 8.9375065,16.7761459 L8.89585742,16.7522358 L0.848947708,10.2373089 C0.784546369,10.1851996 0.774581728,10.090749 0.82669106,10.0263477 Z" id="Stroke-124"></path>
                <path d="M0.82669106,7.94624771 C0.868378525,7.89472664 0.937164377,7.87804505 0.995984705,7.90011324 L1.03765229,7.92399106 L11.6547426,16.5190642 C11.7191035,16.5712234 11.728995,16.6656816 11.6768358,16.7300426 C11.6351085,16.7815313 11.5663097,16.7981597 11.5075065,16.7760459 L11.4658574,16.7521358 L0.848947708,8.15720894 C0.784546369,8.10509961 0.774581728,8.01064905 0.82669106,7.94624771 Z" id="Stroke-126"></path>
                <path d="M0.82669106,5.86614771 C0.868378525,5.81462664 0.937164377,5.79794505 0.995984705,5.82001324 L1.03765229,5.84389106 L14.2247426,16.5189642 C14.2891035,16.5711234 14.298995,16.6655816 14.2468358,16.7299426 C14.2051085,16.7814313 14.1363097,16.7980597 14.0775065,16.7759459 L14.0358574,16.7520358 L0.848947708,6.07710894 C0.784546369,6.02499961 0.774581728,5.93054905 0.82669106,5.86614771 Z" id="Stroke-128"></path>
                <path d="M0.82669106,3.78604771 C0.868378525,3.73452664 0.937164377,3.71784505 0.995984705,3.73991324 L1.03765229,3.76379106 L16.794703,16.5188321 C16.8590817,16.5709694 16.8690052,16.6654243 16.8168679,16.729803 C16.775158,16.7813059 16.7063649,16.7979576 16.6475542,16.7758638 L16.605897,16.7519679 L0.848947708,3.99700894 C0.784546369,3.94489961 0.774581728,3.85044905 0.82669106,3.78604771 Z" id="Stroke-130"></path>
                <path d="M0.82669106,1.70604771 C0.868378525,1.65452664 0.937164377,1.63784505 0.995984705,1.65991324 L1.03765229,1.68379106 L19.3287108,16.4898384 C19.393086,16.54198 19.4030032,16.6364356 19.3508616,16.7008108 C19.3091483,16.7523109 19.2403541,16.768958 19.1815449,16.7468603 L19.1398892,16.7229616 L0.848947708,1.91700894 C0.784546369,1.86489961 0.774581728,1.77044905 0.82669106,1.70604771 Z" id="Stroke-132"></path>
                <path d="M2.21978865,0.750727952 C2.26201504,0.699647645 2.33097233,0.683689567 2.38955759,0.706374437 L2.43097205,0.730688652 L19.3278513,14.4097713 C19.3922084,14.4619353 19.4020928,14.5563943 19.3499287,14.6207513 C19.3081975,14.672237 19.2393975,14.6888601 19.1805959,14.6667419 L19.1389487,14.6428287 L17.7350333,13.5048973 L2.23982795,0.961911348 C2.17597757,0.909128363 2.16700567,0.814578337 2.21978865,0.750727952 Z" id="Stroke-134"></path>
                <path d="M4.78958865,0.750727952 C4.83181504,0.699647645 4.90077233,0.683689567 4.95935759,0.706374437 L5.00077205,0.730688652 L19.3286108,12.3297384 C19.392986,12.38188 19.4029032,12.4763356 19.3507616,12.5407108 C19.3090483,12.5922109 19.2402541,12.608858 19.1814449,12.5867603 L19.1397892,12.5628616 L4.80962795,0.961911348 C4.74577757,0.909128363 4.73680567,0.814578337 4.78958865,0.750727952 Z" id="Stroke-136"></path>
                <path d="M7.35988865,0.750727952 C7.40211504,0.699647645 7.47107233,0.683689567 7.52965759,0.706374437 L7.57107205,0.730688652 L7.64486668,0.791702705 L19.3279513,10.2497713 C19.3923084,10.3019353 19.4021928,10.3963943 19.3500287,10.4607513 C19.3082975,10.512237 19.2394975,10.5288601 19.1806959,10.5067419 L19.1390487,10.4828287 L7.37992795,0.961911348 C7.31607757,0.909128363 7.30710567,0.814578337 7.35988865,0.750727952 Z" id="Stroke-138"></path>
                <path d="M9.92968865,0.750727952 C9.97191504,0.699647645 10.0408723,0.683689567 10.0994576,0.706374437 L10.140872,0.730688652 L19.3276511,8.16769006 C19.392053,8.21979871 19.4020186,8.31424917 19.3499099,8.37865106 C19.308223,8.43017257 19.2394373,8.44685488 19.1806168,8.42478732 L19.1389489,8.40090994 L9.94972795,0.961911348 C9.88587757,0.909128363 9.87690567,0.814578337 9.92968865,0.750727952 Z" id="Stroke-140"></path>
                <path d="M12.4995887,0.750727952 C12.541815,0.699647645 12.6107723,0.683689567 12.6693576,0.706374437 L12.710772,0.730688652 L19.3285105,6.08765722 C19.3929305,6.13974345 19.402929,6.23419043 19.3508428,6.29861046 C19.3091738,6.35014648 19.2403939,6.36685274 19.1815657,6.34480565 L19.1398895,6.32094278 L12.519628,0.961911348 C12.4557776,0.909128363 12.4468057,0.814578337 12.4995887,0.750727952 Z" id="Stroke-142"></path>
                <path d="M15.0693887,0.750727952 C15.111615,0.699647645 15.1805723,0.683689567 15.2391576,0.706374437 L15.280572,0.730688652 L19.3283511,4.00769006 C19.392753,4.05979871 19.4027186,4.15424917 19.3506099,4.21865106 C19.308923,4.27017257 19.2401373,4.28685488 19.1813168,4.26478732 L19.1396489,4.24090994 L15.089428,0.961911348 C15.0255776,0.909128363 15.0166057,0.814578337 15.0693887,0.750727952 Z" id="Stroke-144"></path>
                <path d="M17.6391887,0.750727952 C17.681415,0.699647645 17.7503723,0.683689567 17.8089576,0.706374437 L17.850372,0.730688652 L19.3281511,1.92769006 C19.392553,1.97979871 19.4025186,2.07424917 19.3504099,2.13865106 C19.308723,2.19017257 19.2399373,2.20685488 19.1811168,2.18478732 L19.1394489,2.16090994 L17.659228,0.961911348 C17.5953776,0.909128363 17.5864057,0.814578337 17.6391887,0.750727952 Z" id="Stroke-146"></path>
            </g>
        </g>
    </g>
</svg>