<?xml version="1.0" encoding="UTF-8"?>
<svg width="32px" height="32px" viewBox="0 0 32 32" version="1.1" xmlns="http://www.w3.org/2000/svg" xmlns:xlink="http://www.w3.org/1999/xlink">
    <title>Icn / Amenity / Bedroom / Extra Storage</title>
    <g id="Icn-/-Amenity-/-Bedroom-/-Extra-Storage" stroke="none" stroke-width="1" fill="none" fill-rule="evenodd">
        <g id="Group" transform="translate(6.000000, 6.000000)" fill="#13284C">
            <path d="M1.717,19.7135 L18.27,19.7135 L18.27,11.1535 L1.717,11.1535 L1.717,19.7135 Z M18.57,20.3145 L1.417,20.3145 C1.251,20.3145 1.117,20.1795 1.117,20.0145 L1.117,10.8545 C1.117,10.6885 1.251,10.5535 1.417,10.5535 L18.57,10.5535 C18.736,10.5535 18.871,10.6885 18.871,10.8545 L18.871,20.0145 C18.871,20.1795 18.736,20.3145 18.57,20.3145 L18.57,20.3145 Z" id="Fill-1"></path>
            <path d="M0.6,10.5535 L19.388,10.5535 L19.388,9.0105 L0.6,9.0105 L0.6,10.5535 Z M19.687,11.1545 L0.3,11.1545 C0.134,11.1545 0,11.0195 0,10.8545 L0,8.7105 C0,8.5445 0.134,8.4115 0.3,8.4115 L19.687,8.4115 C19.854,8.4115 19.988,8.5445 19.988,8.7105 L19.988,10.8545 C19.988,11.0195 19.854,11.1545 19.687,11.1545 L19.687,11.1545 Z" id="Fill-3"></path>
            <path d="M2.354,8.3665 L17.678,8.3665 L17.678,2.8515 L2.354,2.8515 L2.354,8.3665 Z M17.978,8.9655 L2.054,8.9655 C1.888,8.9655 1.753,8.8325 1.753,8.6665 L1.753,2.5515 C1.753,2.3855 1.888,2.2515 2.054,2.2515 L17.978,2.2515 C18.144,2.2515 18.277,2.3855 18.277,2.5515 L18.277,8.6665 C18.277,8.8325 18.144,8.9655 17.978,8.9655 L17.978,8.9655 Z" id="Fill-4"></path>
            <path d="M1.316,2.2515 L18.714,2.2515 L18.714,0.5995 L1.316,0.5995 L1.316,2.2515 Z M19.015,2.8515 L1.017,2.8515 C0.851,2.8515 0.716,2.7175 0.716,2.5515 L0.716,0.2995 C0.716,0.1335 0.851,0.0005 1.017,0.0005 L19.015,0.0005 C19.181,0.0005 19.314,0.1335 19.314,0.2995 L19.314,2.5515 C19.314,2.7175 19.181,2.8515 19.015,2.8515 L19.015,2.8515 Z" id="Fill-5"></path>
            <path d="M9.9941,13.419 C9.5211,13.419 9.1371,13.804 9.1371,14.276 C9.1371,14.75 9.5211,15.134 9.9941,15.134 C10.4671,15.134 10.8511,14.75 10.8511,14.276 C10.8511,13.804 10.4671,13.419 9.9941,13.419 M9.9941,15.734 C9.1901,15.734 8.5361,15.081 8.5361,14.276 C8.5361,13.474 9.1901,12.819 9.9941,12.819 C10.7981,12.819 11.4511,13.474 11.4511,14.276 C11.4511,15.081 10.7981,15.734 9.9941,15.734" id="Fill-6"></path>
            <path d="M9.9941,4.4668 C9.5211,4.4668 9.1371,4.8508 9.1371,5.3238 C9.1371,5.7968 9.5211,6.1818 9.9941,6.1818 C10.4671,6.1818 10.8511,5.7968 10.8511,5.3238 C10.8511,4.8508 10.4671,4.4668 9.9941,4.4668 M9.9941,6.7808 C9.1901,6.7808 8.5361,6.1278 8.5361,5.3238 C8.5361,4.5208 9.1901,3.8658 9.9941,3.8658 C10.7981,3.8658 11.4511,4.5208 11.4511,5.3238 C11.4511,6.1278 10.7981,6.7808 9.9941,6.7808" id="Fill-7"></path>
        </g>
    </g>
</svg>