<?xml version="1.0" encoding="UTF-8"?>
<svg width="32px" height="32px" viewBox="0 0 32 32" version="1.1" xmlns="http://www.w3.org/2000/svg" xmlns:xlink="http://www.w3.org/1999/xlink">
    <title>Icn / Amenity / Bedroom / Large Mattress</title>
    <g id="Icn-/-Amenity-/-Bedroom-/-Large-Mattress" stroke="none" stroke-width="1" fill="none" fill-rule="evenodd">
        <g id="Group" transform="translate(4.000000, 4.000000)" fill="#13284C" fill-rule="nonzero">
            <path d="M19.808,-0.35 L13.9193333,-0.35 C13.1347003,-0.35 12.4986667,0.286033671 12.4986667,1.07066667 L12.4986667,3.74733333 C12.4986667,4.53196633 13.1347003,5.168 13.9193333,5.168 L19.808,5.168 C20.592633,5.168 21.2286667,4.53196633 21.2286667,3.74733333 L21.2286667,1.07066667 C21.2286667,0.286033671 20.592633,-0.35 19.808,-0.35 Z M13.9193333,0.35 L19.808,0.35 C20.2060337,0.35 20.5286667,0.672632996 20.5286667,1.07066667 L20.5286667,3.74733333 C20.5286667,4.145367 20.2060337,4.468 19.808,4.468 L13.9193333,4.468 C13.5212997,4.468 13.1986667,4.145367 13.1986667,3.74733333 L13.1986667,1.07066667 C13.1986667,0.672632996 13.5212997,0.35 13.9193333,0.35 Z" id="Stroke-1"></path>
            <path d="M9.63613333,-0.35 L3.74746667,-0.35 C2.96283367,-0.35 2.3268,0.286033671 2.3268,1.07066667 L2.3268,3.74733333 C2.3268,4.53196633 2.96283367,5.168 3.74746667,5.168 L9.63613333,5.168 C10.4207663,5.168 11.0568,4.53196633 11.0568,3.74733333 L11.0568,1.07066667 C11.0568,0.286033671 10.4207663,-0.35 9.63613333,-0.35 Z M3.74746667,0.35 L9.63613333,0.35 C10.034167,0.35 10.3568,0.672632996 10.3568,1.07066667 L10.3568,3.74733333 C10.3568,4.145367 10.034167,4.468 9.63613333,4.468 L3.74746667,4.468 C3.349433,4.468 3.0268,4.145367 3.0268,3.74733333 L3.0268,1.07066667 C3.0268,0.672632996 3.349433,0.35 3.74746667,0.35 Z" id="Stroke-3"></path>
            <polygon id="Stroke-5" points="12.8484 1.25606667 12.8484 1.95606667 10.7070667 1.95606667 10.7070667 1.25606667"></polygon>
            <path d="M2.67666667,1.25593333 L2.67666667,1.95593333 L1.07066667,1.95593333 C0.705802468,1.95593333 0.404295782,2.22703467 0.356578446,2.5788055 L0.35,2.6766 L0.35,8.55726667 L-0.35,8.55726667 L-0.35,2.6766 C-0.35,1.93812189 0.213406989,1.33127501 0.933843787,1.26243655 L1.07066667,1.25593333 L2.67666667,1.25593333 Z" id="Stroke-7"></path>
            <path d="M22.4849333,1.25606667 C23.2234114,1.25606667 23.8302583,1.81947366 23.8990968,2.53991045 L23.9056,2.67673333 L23.9056,4.81806667 L23.2056,4.81806667 L23.2056,2.67673333 C23.2056,2.31186914 22.9344987,2.01036245 22.5827278,1.96264511 L22.4849333,1.95606667 L20.8789333,1.95606667 L20.8789333,1.25606667 L22.4849333,1.25606667 Z" id="Stroke-9"></path>
            <path d="M23.4140942,6.63916335 L23.6965724,7.27963665 L5.96180891,15.1013665 C4.97317782,15.5670368 3.80482108,15.3340892 3.07048085,14.5437939 L2.95221473,14.4069416 L-0.273118608,10.3822749 L0.273118608,9.94452509 L3.49820046,13.9688783 C3.98513545,14.5750627 4.80208677,14.794343 5.52765682,14.5249262 L5.67142755,14.4644967 L23.4140942,6.63916335 Z" id="Stroke-11"></path>
            <path d="M23.9053333,22.4847333 L23.9053333,6.01412264 L-0.35,9.86457872 L-0.35,22.4847333 C-0.35,23.2693663 0.286033671,23.9054 1.07066667,23.9054 L22.4853333,23.9054 C23.2694365,23.9054 23.9053333,23.2692295 23.9053333,22.4847333 Z M0.35,10.462 L23.205,6.833 L23.2053333,22.4847333 C23.2053333,22.8826976 22.8827697,23.2054 22.4853333,23.2054 L1.07066667,23.2054 L0.972872171,23.1988216 C0.621101337,23.1511042 0.35,22.8495975 0.35,22.4847333 L0.35,10.462 Z" id="Stroke-13"></path>
        </g>
    </g>
</svg>