<?xml version="1.0" encoding="UTF-8"?>
<svg width="32px" height="32px" viewBox="0 0 32 32" version="1.1" xmlns="http://www.w3.org/2000/svg" xmlns:xlink="http://www.w3.org/1999/xlink">
    <title>Icn / Amenity / Bedroom / Sleep Sideways</title>
    <g id="Icn-/-Amenity-/-Bedroom-/-Sleep-Sideways" stroke="none" stroke-width="1" fill="none" fill-rule="evenodd">
        <g id="Group" transform="translate(4.000000, 1.000000)" fill="#13284C">
            <g id="Group-2" transform="translate(0.272272, 0.000000)" fill-rule="nonzero">
                <path d="M22.271772,27.5752222 L19.4678831,27.5752222 C19.3144706,27.5752222 19.1901053,27.6995876 19.1901053,27.853 L19.1901053,29.7748889 C19.1901053,30.09342 19.5161542,30.2564444 19.8754386,30.2564444 L21.8642164,30.2564444 C22.2235008,30.2564444 22.5495497,30.09342 22.5495497,29.7748889 L22.5495497,27.853 C22.5495497,27.6995876 22.4251844,27.5752222 22.271772,27.5752222 Z M19.745,28.13 L21.993,28.13 L21.9939942,29.7748889 C21.9939942,29.7191036 21.9803318,29.7036206 21.9495673,29.7001599 L19.8266803,29.6996592 C19.7699496,29.6977767 19.7456609,29.7005084 19.7456609,29.7748889 L19.745,28.13 Z" id="Stroke-1"></path>
                <path d="M22.7917942,26.1128444 L18.9480164,26.1128444 C18.7733597,26.1128444 18.6420384,26.2721194 18.6753322,26.4435735 L18.9506656,27.8614624 C18.987496,28.0456367 19.142292,28.1212889 19.2956831,28.1212889 L22.7194609,28.1212889 C22.8931701,28.1212889 23.069572,28.0251893 23.069572,27.8038444 L23.069572,26.3906222 C23.069572,26.2372098 22.9452066,26.1128444 22.7917942,26.1128444 Z M22.514,26.668 L22.514,27.565 L19.458,27.565 L19.284,26.668 L22.514,26.668 Z" id="Stroke-3"></path>
                <path d="M4.09728307,27.5658889 L1.29339419,27.5658889 C1.13998175,27.5658889 1.01561641,27.6902542 1.01561641,27.8436667 L1.01561641,29.7733333 C1.01561641,30.0920152 1.34232266,30.2564444 1.70094974,30.2564444 L3.68972752,30.2564444 C4.04884604,30.2564444 4.37506085,30.092046 4.37506085,29.7733333 L4.37506085,27.8436667 C4.37506085,27.6902542 4.2506955,27.5658889 4.09728307,27.5658889 Z M1.571,28.121 L3.819,28.121 L3.8195053,29.7733333 C3.8195053,29.7184069 3.80586158,29.7033122 3.77510084,29.7000246 L1.65237369,29.6996119 C1.59576448,29.697598 1.57117196,29.6999062 1.57117196,29.7733333 L1.571,28.121 Z" id="Stroke-5"></path>
                <path d="M4.56674974,26.0412889 L0.722971963,26.0412889 C0.569559533,26.0412889 0.445194185,26.1656542 0.445194185,26.3190667 L0.445194185,27.8015111 C0.445194185,28.0211524 0.622058562,28.1212889 0.796083074,28.1212889 L4.21986085,28.1212889 C4.37482998,28.1212889 4.53138134,28.0400705 4.56532808,27.8567581 L4.83991107,26.3694986 C4.87143142,26.1987709 4.74036285,26.0412889 4.56674974,26.0412889 Z M4.233,26.596 L4.054,27.565 L1,27.565 L1,26.596 L4.233,26.596 Z" id="Stroke-7"></path>
                <path d="M13.1761057,-0.267309356 L11.8428022,-0.27733955 L10.9065089,-0.276715742 L9.76516411,-0.268397647 L8.68492827,-0.252216847 L7.66556175,-0.228648531 L6.70682493,-0.198167886 L5.80847822,-0.161250101 L5.03978071,-0.122240648 L4.13798491,-0.0652847517 L3.37836659,-0.00247915446 C2.64566612,0.0221654262 1.99795707,0.530869643 1.7986902,1.25471814 C0.755714487,5.03212061 -0.115784643,10.3488225 -0.248966677,15.7766307 L-0.260105743,16.2794831 L-0.2743667,17.2513614 L-0.278215215,18.1786186 C-0.278215215,18.3294751 -0.2773796,18.4784965 -0.276338728,18.6256948 L-0.265192107,19.4871033 C-0.262526677,19.6270572 -0.259462035,19.7652121 -0.25600511,19.90158 L-0.230611588,20.6984392 L-0.196135816,21.4529874 L-0.152910343,22.1658022 C-0.121250693,22.6272292 -0.0839796091,23.061219 -0.0415404873,23.4685414 L0.0259387987,24.0596209 L0.100837592,24.611277 C0.170428411,25.083034 0.244426568,25.4786211 0.31948875,25.8038984 L0.396661097,26.1130206 L0.451724663,26.3024183 L0.492948354,26.4213186 C0.534850085,26.5273427 0.637279303,26.597 0.751283074,26.597 L22.2490609,26.597 C22.3630938,26.597 22.465543,26.5273075 22.5074249,26.4212442 L22.548633,26.3022864 L22.6036782,26.1127857 C22.6138832,26.0751082 22.6245732,26.0343299 22.6357022,25.99037 C22.7261015,25.6332897 22.8159322,25.17658 22.8994186,24.6101055 L22.9742506,24.058462 L23.0416753,23.4674112 C23.0734805,23.1619378 23.1023836,22.8414702 23.1281977,22.5056837 L23.175652,21.8135896 C23.1828562,21.6948043 23.1897033,21.5742929 23.1961865,21.4520433 L23.2306628,20.6975918 L23.2560721,19.9008473 L23.2720826,19.0612327 L23.2783623,18.1781708 L23.2745793,17.2510845 L23.2604016,16.2793968 C23.257154,16.1137 23.2534594,15.9461207 23.249311,15.776647 C23.1161286,10.3488225 22.2446294,5.03212061 21.2015974,1.25451378 C21.0147119,0.578784051 20.438637,0.090894417 19.7514093,0.00771613633 L19.0426238,-0.0461208616 L18.1188099,-0.103618036 L17.4136151,-0.140560034 L16.8515366,-0.16641728 L15.6828906,-0.210870455 C15.4832739,-0.217431765 15.2812694,-0.223555717 15.0769277,-0.229221943 L13.823233,-0.257563614 C13.6097436,-0.261317452 13.3940177,-0.264572822 13.1761057,-0.267309356 Z M10.9088634,0.278834826 L11.8417358,0.278214868 L12.5117616,0.281596982 L13.8132004,0.297899886 C14.0257146,0.301636241 14.2359987,0.305868647 14.4440016,0.310576782 L15.6642383,0.344371724 L16.827281,0.388608555 L17.7456896,0.432486692 L18.8147949,0.495342205 L19.5688978,0.5505123 C20.0930238,0.569007979 20.530707,0.912901953 20.6661114,1.40248935 C21.6976872,5.13860441 22.5619328,10.411055 22.6939222,15.7902582 L22.7132833,16.7766314 C22.7179763,17.0978989 22.7209271,17.4116748 22.722192,17.7180542 L22.7209844,18.6150991 C22.7199588,18.7609402 22.7185257,18.904956 22.7166922,19.0471586 L22.7009408,19.8787097 C22.6975333,20.0137067 22.6937393,20.1469143 22.6895659,20.2783443 L22.6600274,21.0456895 L22.621718,21.7709462 C22.6146208,21.8883467 22.6071722,22.0040174 22.5993792,22.1179702 L22.5485436,22.7811674 C22.5394008,22.8882962 22.5299276,22.993731 22.5201309,23.0974836 L22.4575259,23.6999092 C22.424339,23.9911245 22.3883672,24.2674153 22.3497999,24.5291033 C22.2959226,24.894674 22.239649,25.211326 22.1827451,25.4820387 L22.0971373,25.8540256 L22.046,26.041 L0.953,26.041 L0.903163193,25.8542167 C0.817506093,25.5161676 0.731279672,25.078178 0.650445482,24.530202 C0.611843308,24.2685174 0.575840898,23.9922242 0.542627766,23.7010002 L0.479976693,23.098549 C0.470173405,22.9947907 0.460694074,22.8893495 0.451545721,22.7822136 L0.400683477,22.118965 L0.358101598,21.4144687 L0.324136997,20.668152 C0.319213055,20.540249 0.314662204,20.4105796 0.310491463,20.2791319 L0.290084498,19.4690102 C0.287462276,19.3304014 0.285234202,19.1899905 0.283407296,19.0477654 L0.277248021,18.1725499 C0.277248021,18.0230206 0.277248021,17.8716533 0.277986187,17.718436 L0.286968671,16.7768377 L0.306421469,15.7902682 C0.438411129,10.411055 1.30265671,5.13860441 2.33426405,1.4023751 C2.45773075,0.953875423 2.83615229,0.627372743 3.29113906,0.562492841 L3.92178941,0.507941422 L4.7527308,0.450961006 L5.83449722,0.393695832 L6.72809419,0.356980386 L7.68208954,0.326661134 L8.69672302,0.303213504 L9.77223439,0.287112925 C10.1409111,0.283023399 10.5197742,0.28023762 10.9088634,0.278834826 Z" id="Stroke-9"></path>
            </g>
            <g id="Group-14" transform="translate(1.555556, 0.695333)">
                <path d="M2.76188889,0.198333333 L2.75644444,0.198333333 C2.75644444,0.198333333 2.66855556,0.196777778 2.541,0.226333333 L2.541,0.226333333 C2.41266667,0.254333333 2.24855556,0.325888889 2.11555556,0.439444444 L2.11555556,0.439444444 C1.98177778,0.552222222 1.883,0.700777778 1.83477778,0.822888889 L1.83477778,0.822888889 C1.78266667,0.942666667 1.76944444,1.03055556 1.76944444,1.03055556 L1.76944444,1.03055556 L1.76866667,1.03522222 C1.76866667,1.03522222 1.603,1.88611111 1.407,3.16944444 L1.407,3.16944444 C1.20711111,4.45355556 0.987777778,6.17088889 0.817444444,7.89366667 L0.817444444,7.89366667 C0.647888889,9.61566667 0.530444444,11.3423333 0.464333333,12.6388889 L0.464333333,12.6388889 C0.430111111,13.2867778 0.408333333,13.8273333 0.397444444,14.2061111 L0.397444444,14.2061111 C0.382666667,14.5841111 0.374888889,14.7995556 0.374888889,14.7995556 L0.374888889,14.7995556 L0.374888889,14.8042222 C0.374888889,14.8042222 0.357,15.5446667 0.339111111,16.2827778 L0.339111111,16.2827778 C0.331333333,17.0224444 0.323555556,17.7621111 0.323555556,17.7621111 L0.323555556,17.7621111 C0.323555556,17.7621111 0.317333333,18.7078889 0.339111111,19.6536667 L0.339111111,19.6536667 C0.348444444,20.1257778 0.364777778,20.5986667 0.381111111,20.9548889 L0.381111111,20.9548889 C0.401333333,21.3072222 0.414555556,21.5436667 0.414555556,21.5436667 L0.414555556,21.5436667 L0.414555556,22.7523333 L10.3662222,22.7523333 L10.3701111,22.7523333 L10.3701111,22.7468889 L10.3701111,0.0746666667 C10.3732222,0.0723333333 10.3631111,0.0723333333 10.3631111,0.0723333333 L10.3631111,0.0723333333 L2.76188889,0.198333333 Z M2.76655556,0.504777778 L10.0628889,0.385 L10.0628889,22.4458889 L0.722555556,22.4458889 L0.722555556,21.5374444 L0.721777778,21.5281111 C0.721777778,21.5281111 0.708555556,21.2924444 0.688333333,20.9401111 L0.688333333,20.9401111 C0.671222222,20.5877778 0.655666667,20.1172222 0.646333333,19.6466667 L0.646333333,19.6466667 C0.624555556,18.7055556 0.630777778,17.7636667 0.630777778,17.7636667 L0.630777778,17.7636667 L0.647111111,16.2882222 C0.665,15.5516667 0.682111111,14.8143333 0.682111111,14.8143333 L0.682111111,14.8143333 L0.682111111,14.8096667 C0.682111111,14.8096667 0.690666667,14.5934444 0.703888889,14.2162222 L0.703888889,14.2162222 C0.715555556,13.8397778 0.737333333,13.3 0.771555556,12.6544444 L0.771555556,12.6544444 C0.836888889,11.3617778 0.954333333,9.63977778 1.12311111,7.92244444 L1.12311111,7.92244444 C1.29266667,6.20666667 1.51277778,4.494 1.71033333,3.21688889 L1.71033333,3.21688889 C1.90633333,1.93744444 2.07044444,1.092 2.07044444,1.092 L2.07044444,1.092 L2.07122222,1.08888889 C2.07122222,1.08888889 2.08133333,1.02666667 2.11633333,0.942666667 L2.11633333,0.942666667 C2.15055556,0.857888889 2.22055556,0.753666667 2.31311111,0.674333333 L2.31311111,0.674333333 C2.408,0.595 2.52155556,0.544444444 2.61177778,0.525 L2.61177778,0.525 C2.70122222,0.504 2.76266667,0.504777778 2.76266667,0.504777778 L2.76266667,0.504777778 L2.76655556,0.504777778 Z" id="Fill-12"></path>
            </g>
            <g id="Group-23" transform="translate(1.555556, 4.584222)">
                <g id="Group-17" transform="translate(0.777778, 0.000000)">
                    <path d="M1.68077778,9.93766667 L1.68077778,9.85677778 L1.68077778,9.77588889 L1.68077778,9.74711111 C1.35644444,9.744 1.13244444,9.62033333 1.00411111,9.53011111 C0.874222222,9.43444444 0.824444444,9.37066667 0.824444444,9.37066667 L0.821333333,9.36755556 C0.821333333,9.36755556 0.652555556,9.18866667 0.578666667,8.95688889 C0.496222222,8.72744444 0.521888889,8.48322222 0.521888889,8.48322222 L0.521888889,8.47855556 L1.15344444,1.53066667 L1.15344444,1.526 C1.15344444,1.526 1.15966667,1.41633333 1.21022222,1.26311111 C1.25688889,1.10988889 1.36655556,0.918555556 1.526,0.772333333 C1.68466667,0.626888889 1.88533333,0.534333333 2.04244444,0.501666667 C2.19955556,0.465888889 2.30922222,0.469777778 2.30922222,0.469777778 L2.31311111,0.469 L7.35777778,0.469 L7.36244444,0.469 C7.36244444,0.469 7.39122222,0.469777778 7.44022222,0.472888889 C7.49,0.474444444 7.56155556,0.483777778 7.64322222,0.504777778 C7.81044444,0.542888889 8.02044444,0.647111111 8.18222222,0.808888889 C8.344,0.970666667 8.449,1.18144444 8.48711111,1.34633333 C8.50888889,1.42877778 8.51744444,1.50033333 8.51977778,1.55011111 C8.52211111,1.59988889 8.52366667,1.62788889 8.52366667,1.62788889 L8.52444444,1.63255556 L8.52444444,8.58122222 L8.52366667,8.58588889 C8.52366667,8.58588889 8.52288889,8.61388889 8.51977778,8.66444444 C8.51822222,8.71344444 8.50888889,8.78422222 8.48788889,8.86666667 C8.44977778,9.03311111 8.34477778,9.24311111 8.183,9.40566667 C8.02122222,9.56744444 7.812,9.67244444 7.64555556,9.70977778 C7.56388889,9.73233333 7.49233333,9.74011111 7.44255556,9.74244444 C7.39277778,9.74477778 7.36477778,9.74711111 7.36477778,9.74711111 L7.36011111,9.74711111 L1.68077778,9.74711111 L1.68077778,9.77588889 L1.68077778,9.85677778 L1.68077778,9.93766667 L7.36011111,9.93766667 L7.36555556,9.93766667 C7.36555556,9.93766667 7.39822222,9.93611111 7.45577778,9.933 C7.51333333,9.93066667 7.59655556,9.92055556 7.693,9.89566667 C7.88666667,9.85055556 8.13088889,9.72922222 8.31833333,9.541 C8.50733333,9.352 8.62866667,9.10777778 8.673,8.91333333 C8.69788889,8.81766667 8.708,8.73444444 8.71033333,8.67688889 C8.71344444,8.61855556 8.715,8.58588889 8.715,8.58588889 L8.715,8.58122222 L8.715,1.63255556 L8.715,1.62788889 C8.715,1.62788889 8.71344444,1.59444444 8.71033333,1.53688889 C8.70722222,1.47855556 8.69788889,1.39611111 8.67222222,1.29966667 C8.62788889,1.106 8.50655556,0.861777778 8.31677778,0.673555556 C8.12855556,0.485333333 7.88433333,0.364 7.69066667,0.319666667 C7.59422222,0.295555556 7.511,0.284666667 7.45344444,0.282333333 C7.39588889,0.279222222 7.36244444,0.277666667 7.36244444,0.277666667 L7.35777778,0.277666667 L2.31311111,0.277666667 L2.30844444,0.277666667 C2.30844444,0.277666667 2.18244444,0.273777778 1.99811111,0.315 C1.81611111,0.354666667 1.582,0.462 1.39688889,0.631555556 C1.211,0.801111111 1.08422222,1.02433333 1.02822222,1.204 C0.998666667,1.29188889 0.982333333,1.36966667 0.975333333,1.42255556 C0.967555556,1.477 0.963666667,1.50733333 0.963666667,1.50733333 L0.962888889,1.51277778 L0.332111111,8.46144444 L0.331333333,8.46688889 C0.331333333,8.46688889 0.323555556,8.53688889 0.327444444,8.64111111 C0.331333333,8.74611111 0.353111111,8.88533333 0.398222222,9.01833333 C0.483,9.28822222 0.679777778,9.49666667 0.679777778,9.49666667 L0.683666667,9.50055556 C0.683666667,9.50055556 0.742,9.57522222 0.892888889,9.68488889 C1.043,9.79066667 1.30355556,9.93455556 1.68077778,9.93766667" id="Fill-15"></path>
                </g>
                <g id="Group-20" transform="translate(1.555556, 0.777778)">
                    <path d="M6.58311111,0.281555556 L6.58311111,0.260555556 L6.58311111,0.199888889 L6.58311111,0.139222222 L1.53688889,0.139222222 L1.53144444,0.139222222 C1.53144444,0.139222222 1.46533333,0.136111111 1.36811111,0.158666667 C1.27244444,0.179666667 1.14955556,0.237222222 1.05233333,0.325888889 C0.954333333,0.415333333 0.886666667,0.532777778 0.857111111,0.626888889 C0.826,0.721 0.822111111,0.787888889 0.822111111,0.787888889 L0.822111111,0.792555556 L0.189777778,7.73966667 L0.189777778,7.74511111 C0.189777778,7.74511111 0.179666667,7.819 0.198333333,7.92866667 C0.214666667,8.03833333 0.274555556,8.17988889 0.374111111,8.28877778 C0.474444444,8.39922222 0.609777778,8.47077778 0.717888889,8.49722222 C0.826,8.52522222 0.899888889,8.52133333 0.899888889,8.52133333 L0.905333333,8.52211111 L6.58155556,8.52211111 L6.58622222,8.52133333 C6.58622222,8.52133333 6.65777778,8.52444444 6.75888889,8.49955556 C6.86077778,8.47544444 6.98988889,8.41088889 7.08944444,8.31211111 C7.189,8.21333333 7.25277778,8.08422222 7.27611111,7.98155556 C7.30177778,7.87888889 7.29866667,7.80811111 7.29866667,7.80811111 L7.29866667,7.80344444 L7.29866667,0.856333333 L7.29866667,0.851666667 C7.29866667,0.851666667 7.29788889,0.826777778 7.29555556,0.781666667 C7.28777778,0.735 7.28,0.664222222 7.24344444,0.577888889 C7.20766667,0.491555556 7.14388889,0.390444444 7.03577778,0.300222222 C6.92766667,0.212333333 6.77133333,0.139222222 6.58311111,0.139222222 L6.58311111,0.199888889 L6.58311111,0.260555556 L6.58311111,0.281555556 C6.73322222,0.282333333 6.85844444,0.340666667 6.94477778,0.410666667 C7.03111111,0.483777778 7.08244444,0.564666667 7.112,0.633111111 C7.14077778,0.702333333 7.14622222,0.759111111 7.15244444,0.794888889 C7.154,0.833 7.15555556,0.851666667 7.15555556,0.851666667 L7.15555556,0.856333333 L7.15555556,7.80344444 L7.15555556,7.80811111 C7.15555556,7.80811111 7.15711111,7.86488889 7.13766667,7.94655556 C7.119,8.02744444 7.06766667,8.13088889 6.98755556,8.211 C6.90822222,8.29033333 6.80555556,8.34166667 6.72466667,8.36033333 C6.64222222,8.37977778 6.58622222,8.37822222 6.58622222,8.37822222 L6.58155556,8.37822222 L0.905333333,8.37822222 L0.900666667,8.37822222 C0.900666667,8.37822222 0.840777778,8.38055556 0.755222222,8.358 C0.668111111,8.33777778 0.561555556,8.28022222 0.480666667,8.19233333 C0.400555556,8.10444444 0.352333333,7.99166667 0.339888889,7.90455556 C0.324333333,7.81666667 0.332888889,7.75755556 0.332888889,7.75755556 L0.332888889,7.75288889 L0.964444444,0.805 L0.964444444,0.800333333 C0.964444444,0.800333333 0.967555556,0.747444444 0.992444444,0.672 C1.01655556,0.597333333 1.07022222,0.503222222 1.14877778,0.432444444 C1.22655556,0.360888889 1.32455556,0.315 1.40155556,0.298666667 C1.47855556,0.28 1.53222222,0.281555556 1.53222222,0.281555556 L1.53688889,0.281555556 L6.58311111,0.281555556 Z" id="Fill-18"></path>
                </g>
                <path d="M19.8644444,20.3550333 L0.568555556,20.3550333 C0.415143125,20.3550333 0.290777778,20.4793987 0.290777778,20.6328111 L0.290777778,21.8142556 C0.290777778,21.967668 0.415143125,22.0920333 0.568555556,22.0920333 L19.8644444,22.0920333 C20.0178569,22.0920333 20.1422222,21.967668 20.1422222,21.8142556 L20.1422222,20.6328111 C20.1422222,20.4793987 20.0178569,20.3550333 19.8644444,20.3550333 Z M19.586,20.91 L19.586,21.536 L0.846,21.536 L0.846,20.91 L19.586,20.91 Z" id="Stroke-21" fill-rule="nonzero"></path>
            </g>
            <g id="Group-26" transform="translate(10.888889, 0.695333)">
                <path d="M0.729555556,0.0746666667 L0.729555556,22.7468889 L0.729555556,22.7523333 L0.734222222,22.7523333 L10.6851111,22.7523333 L10.6851111,21.5436667 C10.6851111,21.5436667 10.6983333,21.3072222 10.7185556,20.9548889 L10.7185556,20.9548889 C10.7356667,20.5986667 10.752,20.1257778 10.7605556,19.6536667 L10.7605556,19.6536667 C10.7815556,18.7078889 10.7768889,17.7621111 10.7768889,17.7621111 L10.7768889,17.7621111 C10.7768889,17.7621111 10.7683333,17.0224444 10.7605556,16.2827778 L10.7605556,16.2827778 C10.7434444,15.5446667 10.7247778,14.8042222 10.7247778,14.8042222 L10.7247778,14.8042222 L10.7247778,14.7995556 C10.7247778,14.7995556 10.717,14.5841111 10.7022222,14.2061111 L10.7022222,14.2061111 C10.6913333,13.8273333 10.6695556,13.2867778 10.6353333,12.6388889 L10.6353333,12.6388889 C10.57,11.3423333 10.4517778,9.61566667 10.283,7.89366667 L10.283,7.89366667 C10.1126667,6.17088889 9.89177778,4.45355556 9.69344444,3.16944444 L9.69344444,3.16944444 C9.49744444,1.88611111 9.331,1.03522222 9.331,1.03522222 L9.331,1.03522222 L9.32944444,1.03055556 C9.32944444,1.03055556 9.317,0.942666667 9.26566667,0.822888889 L9.26566667,0.822888889 C9.21744444,0.700777778 9.11866667,0.552222222 8.98411111,0.439444444 L8.98411111,0.439444444 C8.85111111,0.325888889 8.687,0.254333333 8.55944444,0.226333333 L8.55944444,0.226333333 C8.43188889,0.196777778 8.34322222,0.198333333 8.34322222,0.198333333 L8.34322222,0.198333333 L8.33777778,0.198333333 L0.736555556,0.0723333333 C0.736555556,0.0723333333 0.727222222,0.0723333333 0.729555556,0.0746666667 L0.729555556,0.0746666667 Z M1.03677778,0.385 L8.33311111,0.504777778 L8.337,0.504777778 C8.337,0.504777778 8.39922222,0.504 8.48866667,0.525 L8.48866667,0.525 C8.57811111,0.544444444 8.69244444,0.595 8.78577778,0.674333333 L8.78577778,0.674333333 C8.87988889,0.753666667 8.94911111,0.857888889 8.98333333,0.942666667 L8.98333333,0.942666667 C9.01911111,1.02666667 9.02922222,1.08888889 9.02922222,1.08888889 L9.02922222,1.08888889 L9.02922222,1.092 C9.02922222,1.092 9.19411111,1.93744444 9.38933333,3.21688889 L9.38933333,3.21688889 C9.58766667,4.494 9.807,6.20666667 9.97655556,7.92244444 L9.97655556,7.92244444 C10.1453333,9.63977778 10.2627778,11.3617778 10.3281111,12.6544444 L10.3281111,12.6544444 C10.3615556,13.3 10.3848889,13.8397778 10.3957778,14.2162222 L10.3957778,14.2162222 C10.409,14.5934444 10.4175556,14.8096667 10.4175556,14.8096667 L10.4175556,14.8096667 L10.4175556,14.8143333 C10.4175556,14.8143333 10.4354444,15.5516667 10.4533333,16.2882222 L10.4533333,16.2882222 L10.4688889,17.7636667 C10.4688889,17.7636667 10.4751111,18.7055556 10.4533333,19.6466667 L10.4533333,19.6466667 C10.444,20.1172222 10.4292222,20.5877778 10.4121111,20.9401111 L10.4121111,20.9401111 C10.3911111,21.2924444 10.3786667,21.5281111 10.3786667,21.5281111 L10.3786667,21.5281111 L10.3778889,21.5374444 L10.3778889,22.4458889 L1.03677778,22.4458889 L1.03677778,0.385 Z" id="Fill-24"></path>
            </g>
            <g id="Group-51" transform="translate(0.000000, 4.584222)">
                <g id="Group-29" transform="translate(12.444444, 0.000000)">
                    <path d="M7.08555556,9.74711111 L7.08555556,9.77588889 L7.08555556,9.85677778 L7.08555556,9.93766667 C7.46433333,9.93455556 7.72411111,9.79066667 7.87344444,9.68488889 C8.02433333,9.57522222 8.08344444,9.50055556 8.08344444,9.50055556 L8.08655556,9.49666667 C8.08655556,9.49666667 8.28333333,9.28822222 8.36888889,9.01833333 C8.41322222,8.88533333 8.43577778,8.74611111 8.43888889,8.64111111 C8.44277778,8.53688889 8.43577778,8.46688889 8.43577778,8.46688889 L8.435,8.46144444 L7.80344444,1.51277778 L7.80266667,1.50733333 C7.80266667,1.50733333 7.79877778,1.477 7.79177778,1.42255556 C7.78477778,1.36966667 7.76766667,1.29188889 7.73811111,1.204 C7.68288889,1.02433333 7.55611111,0.801111111 7.37022222,0.631555556 C7.18433333,0.462 6.951,0.354666667 6.76744444,0.315 C6.58466667,0.273777778 6.45866667,0.277666667 6.45866667,0.277666667 L6.454,0.277666667 L1.40933333,0.277666667 L1.40388889,0.277666667 C1.40388889,0.277666667 1.37122222,0.279222222 1.31288889,0.282333333 C1.25533333,0.284666667 1.17288889,0.295555556 1.07644444,0.319666667 C0.882777778,0.364 0.637,0.485333333 0.449555556,0.673555556 C0.260555556,0.861777778 0.139222222,1.106 0.0941111111,1.29966667 C0.0692222222,1.39611111 0.0591111111,1.47855556 0.056,1.53688889 C0.0528888889,1.59444444 0.0513333333,1.62788889 0.0513333333,1.62788889 L0.0513333333,1.63255556 L0.0513333333,8.58122222 L0.0513333333,8.58588889 C0.0513333333,8.58588889 0.0528888889,8.61855556 0.056,8.67688889 C0.0583333333,8.73444444 0.0692222222,8.81766667 0.0933333333,8.91333333 C0.138444444,9.10777778 0.259,9.352 0.448,9.541 C0.635444444,9.72922222 0.880444444,9.85055556 1.07411111,9.89566667 C1.17055556,9.92055556 1.253,9.93066667 1.31055556,9.933 C1.36888889,9.93611111 1.40155556,9.93766667 1.40155556,9.93766667 L1.407,9.93766667 L7.08555556,9.93766667 L7.08555556,9.85677778 L7.08555556,9.77588889 L7.08555556,9.74711111 L1.407,9.74711111 L1.40233333,9.74711111 C1.40233333,9.74711111 1.37433333,9.74477778 1.32377778,9.74244444 C1.27477778,9.74011111 1.20322222,9.73233333 1.12077778,9.70977778 C0.955111111,9.67244444 0.745111111,9.56744444 0.583333333,9.40566667 C0.421555556,9.24311111 0.316555556,9.03311111 0.278444444,8.86666667 C0.257444444,8.78422222 0.248111111,8.71344444 0.246555556,8.66444444 C0.243444444,8.61388889 0.242666667,8.58588889 0.242666667,8.58588889 L0.242666667,8.58122222 L0.242666667,1.63255556 L0.242666667,1.62788889 C0.242666667,1.62788889 0.244222222,1.59988889 0.246555556,1.55011111 C0.248888889,1.50033333 0.257444444,1.42877778 0.279222222,1.34633333 C0.317333333,1.18144444 0.422333333,0.970666667 0.584888889,0.808888889 C0.746666667,0.647111111 0.955888889,0.542888889 1.12311111,0.504777778 C1.20555556,0.483777778 1.27711111,0.474444444 1.32611111,0.472888889 C1.37588889,0.469777778 1.40466667,0.469 1.40466667,0.469 L1.40933333,0.469 L6.454,0.469 L6.45788889,0.469777778 C6.45788889,0.469777778 6.56677778,0.465888889 6.72466667,0.501666667 C6.88177778,0.534333333 7.08166667,0.626888889 7.24111111,0.772333333 C7.40055556,0.918555556 7.50944444,1.10988889 7.55688889,1.26311111 C7.60666667,1.41633333 7.61288889,1.526 7.61288889,1.526 L7.61288889,1.53066667 L8.24522222,8.47855556 L8.24522222,8.48322222 C8.24522222,8.48322222 8.27088889,8.72744444 8.18688889,8.95688889 C8.11455556,9.18866667 7.94577778,9.36755556 7.94577778,9.36755556 L7.94266667,9.37066667 C7.94266667,9.37066667 7.89211111,9.43444444 7.76222222,9.53011111 C7.63388889,9.62033333 7.40988889,9.744 7.08555556,9.74711111" id="Fill-27"></path>
                </g>
                <g id="Group-32" transform="translate(12.444444, 0.777778)">
                    <path d="M1.40622222,0.139222222 L1.40622222,0.199888889 L1.40622222,0.260555556 L1.40622222,0.281555556 L6.45244444,0.281555556 L6.45711111,0.281555556 C6.45711111,0.281555556 6.51,0.28 6.58777778,0.298666667 C6.664,0.315 6.762,0.360888889 6.84055556,0.432444444 C6.91911111,0.503222222 6.97277778,0.597333333 6.99611111,0.672 C7.021,0.747444444 7.02333333,0.800333333 7.02333333,0.800333333 L7.02411111,0.805 L7.65644444,7.75288889 L7.65644444,7.75755556 C7.65644444,7.75755556 7.66422222,7.81666667 7.64944444,7.90455556 C7.63622222,7.99166667 7.58877778,8.10444444 7.50788889,8.19233333 C7.42855556,8.28022222 7.32044444,8.33777778 7.23411111,8.358 C7.14777778,8.38055556 7.08788889,8.37822222 7.08788889,8.37822222 L7.08322222,8.37822222 L1.40777778,8.37822222 L1.40311111,8.37822222 C1.40311111,8.37822222 1.34633333,8.37977778 1.26466667,8.36033333 C1.183,8.34166667 1.08111111,8.29033333 1.001,8.211 C0.921666667,8.13088889 0.869555556,8.02744444 0.851666667,7.94655556 C0.831444444,7.86488889 0.833,7.80811111 0.833,7.80811111 L0.833,7.80344444 L0.833,0.856333333 L0.833,0.851666667 C0.833,0.851666667 0.834555556,0.833 0.836111111,0.794888889 C0.842333333,0.759111111 0.848555556,0.702333333 0.877333333,0.633111111 C0.906111111,0.564666667 0.957444444,0.483777778 1.04455556,0.410666667 C1.13011111,0.340666667 1.25533333,0.282333333 1.40622222,0.281555556 L1.40622222,0.260555556 L1.40622222,0.199888889 L1.40622222,0.139222222 C1.218,0.139222222 1.06088889,0.212333333 0.953555556,0.300222222 C0.845444444,0.390444444 0.781666667,0.491555556 0.745888889,0.577888889 C0.708555556,0.664222222 0.700777778,0.735 0.693777778,0.781666667 C0.691444444,0.826777778 0.690666667,0.851666667 0.690666667,0.851666667 L0.690666667,0.856333333 L0.690666667,7.80344444 L0.690666667,7.80811111 C0.690666667,7.80811111 0.687555556,7.87888889 0.712444444,7.98155556 C0.735777778,8.08422222 0.799555556,8.21333333 0.899111111,8.31211111 C0.998666667,8.41088889 1.12777778,8.47544444 1.22966667,8.49955556 C1.33155556,8.52444444 1.40311111,8.52133333 1.40311111,8.52133333 L1.40777778,8.52211111 L7.08322222,8.52211111 L7.08866667,8.52133333 C7.08866667,8.52133333 7.16333333,8.52522222 7.27144444,8.49722222 C7.37877778,8.47077778 7.51411111,8.39922222 7.61444444,8.28877778 C7.71477778,8.17988889 7.77388889,8.03833333 7.791,7.92866667 C7.80888889,7.819 7.79877778,7.74511111 7.79877778,7.74511111 L7.79877778,7.73966667 L7.16722222,0.792555556 L7.16722222,0.787888889 C7.16722222,0.787888889 7.16333333,0.721 7.13222222,0.626888889 C7.10266667,0.532777778 7.035,0.415333333 6.937,0.325888889 C6.83977778,0.237222222 6.71688889,0.179666667 6.62044444,0.158666667 C6.524,0.136111111 6.45711111,0.139222222 6.45711111,0.139222222 L6.45244444,0.139222222 L1.40622222,0.139222222 Z" id="Fill-30"></path>
                </g>
                <path d="M3.42455556,18.4316667 L2.12411111,18.4316667 C1.97069868,18.4316667 1.84633333,18.556032 1.84633333,18.7094444 L1.84633333,20.6328889 C1.84633333,20.7863013 1.97069868,20.9106667 2.12411111,20.9106667 L3.42455556,20.9106667 C3.57796799,20.9106667 3.70233333,20.7863013 3.70233333,20.6328889 L3.70233333,18.7094444 C3.70233333,18.556032 3.57796799,18.4316667 3.42455556,18.4316667 Z M3.146,18.987 L3.146,20.355 L2.401,20.355 L2.401,18.987 L3.146,18.987 Z" id="Stroke-33" fill-rule="nonzero"></path>
                <path d="M21.4394444,18.4316667 L20.1397778,18.4316667 C19.9863653,18.4316667 19.862,18.556032 19.862,18.7094444 L19.862,20.6328889 C19.862,20.7863013 19.9863653,20.9106667 20.1397778,20.9106667 L21.4394444,20.9106667 C21.5928569,20.9106667 21.7172222,20.7863013 21.7172222,20.6328889 L21.7172222,18.7094444 C21.7172222,18.556032 21.5928569,18.4316667 21.4394444,18.4316667 Z M21.161,18.987 L21.161,20.355 L20.417,20.355 L20.417,18.987 L21.161,18.987 Z" id="Stroke-35" fill-rule="nonzero"></path>
                <path d="M2.1238,17.3713222 L0.4018,17.3713222 C0.171187655,17.3713222 -0.0131598511,17.5655016 0.0050996575,17.7976582 L0.0557385237,18.3858769 L0.12332229,19.0440744 C0.135994678,19.1580256 0.149370369,19.2737076 0.163447993,19.390528 C0.266882265,20.2488572 0.389979104,21.0116096 0.534478494,21.6179404 C0.601910638,21.8934297 0.848782859,22.0841 1.13057778,22.0841 L2.3198,22.0841 C2.47834838,22.0841 2.60473633,21.9516129 2.59726957,21.7932404 L2.40126957,17.6360182 C2.3942842,17.4878564 2.27212635,17.3713222 2.1238,17.3713222 Z M1.858,17.926 L2.028,21.528 L1.13057778,21.5285444 C1.10297507,21.5285444 1.08025241,21.5109947 1.07450032,21.4874969 C0.95594978,20.9900303 0.850811277,20.3724278 0.759509172,19.6776702 L0.675474855,18.9826683 L0.608862759,18.3339239 L0.572,17.926 L1.858,17.926 Z" id="Stroke-37" fill-rule="nonzero"></path>
                <path d="M23.1430111,17.3713222 L21.4202333,17.3713222 C21.2718869,17.3713222 21.14972,17.4878869 21.1427613,17.63607 L20.9475391,21.7932922 C20.9401029,21.9516456 21.0664832,22.0841 21.2250111,22.0841 L22.4142333,22.0841 C22.6964655,22.0841 22.9436959,21.8928305 23.0094775,21.6182638 C23.154382,21.0117202 23.2777044,20.2489428 23.3812614,19.3905651 L23.4214247,19.0441459 L23.4890541,18.3859578 L23.539736,17.7973433 C23.557971,17.5655016 23.3736235,17.3713222 23.1430111,17.3713222 Z M21.685,17.926 L22.971,17.926 L22.9359323,18.3339777 L22.8692785,18.9826828 L22.8297052,19.3240238 C22.728469,20.1631647 22.6082064,20.9070168 22.4691697,21.4889992 L22.4586304,21.5092001 C22.4484399,21.5209173 22.4324942,21.5285444 22.4142333,21.5285444 L21.516,21.528 L21.685,17.926 Z" id="Stroke-39" fill-rule="nonzero"></path>
                <path d="M23.1430111,17.3713222 L21.4202333,17.3713222 C21.2718869,17.3713222 21.14972,17.4878869 21.1427613,17.63607 L20.9475391,21.7932922 C20.9401029,21.9516456 21.0664832,22.0841 21.2250111,22.0841 L22.4142333,22.0841 C22.6964655,22.0841 22.9436959,21.8928305 23.0094775,21.6182638 C23.154382,21.0117202 23.2777044,20.2489428 23.3812614,19.3905651 L23.4214247,19.0441459 L23.4890541,18.3859578 L23.539736,17.7973433 C23.557971,17.5655016 23.3736235,17.3713222 23.1430111,17.3713222 Z M21.685,17.926 L22.971,17.926 L22.9359323,18.3339777 L22.8692785,18.9826828 L22.8297052,19.3240238 C22.728469,20.1631647 22.6082064,20.9070168 22.4691697,21.4889992 L22.4586304,21.5092001 C22.4484399,21.5209173 22.4324942,21.5285444 22.4142333,21.5285444 L21.516,21.528 L21.685,17.926 Z" id="Stroke-41" fill-rule="nonzero"></path>
                <path d="M4.41311111,14.1956111 L7.47133333,14.1956111 C7.53355556,14.1956111 7.58877778,14.1699444 7.63,14.1295 C7.67044444,14.0890556 7.69611111,14.0322778 7.69611111,13.9708333 L7.69611111,13.5430556 C7.69611111,13.4816111 7.67044444,13.4256111 7.63,13.3843889 C7.58877778,13.3431667 7.53355556,13.3190556 7.47133333,13.3190556 L4.41311111,13.3190556 C4.382,13.3190556 4.35711111,13.2933889 4.35711111,13.2630556 L4.35711111,12.7707222 L2.891,13.7585 L4.35711111,14.7447222 L4.35711111,14.2508333 C4.35711111,14.2205 4.382,14.1956111 4.41311111,14.1956111 M7.47133333,14.3076111 L4.46833333,14.3076111 L4.46833333,14.8497222 C4.46833333,14.8808333 4.44344444,14.9057222 4.41311111,14.9057222 C4.39911111,14.9057222 4.38744444,14.9010556 4.37733333,14.8932778 L2.75955556,13.8043889 C2.73388889,13.7872778 2.72688889,13.7522778 2.744,13.7266111 C2.74788889,13.7211667 2.75411111,13.7157222 2.75955556,13.7110556 L4.382,12.6198333 C4.40688889,12.6019444 4.44188889,12.6097222 4.45977778,12.6346111 C4.46522222,12.6447222 4.46833333,12.6556111 4.46833333,12.6657222 L4.46833333,13.2070556 L7.47133333,13.2070556 C7.56388889,13.2070556 7.64788889,13.2443889 7.70855556,13.3050556 C7.77,13.3672778 7.80733333,13.4505 7.80733333,13.5430556 L7.80733333,13.9708333 C7.80733333,14.0633889 7.77,14.1473889 7.70855556,14.2088333 C7.64788889,14.2702778 7.56388889,14.3076111 7.47133333,14.3076111" id="Fill-43"></path>
                <path d="M4.29445459,12.498031 C4.37256085,12.4418922 4.47457656,12.4503353 4.5441673,12.5072379 L4.58158008,12.5470657 L4.59184844,12.5634961 C4.60559587,12.5934923 4.61017834,12.603491 4.61344324,12.6237815 L4.61833333,12.6657222 L4.618,13.057 L7.47133333,13.0570556 C7.53651439,13.0570556 7.59977412,13.0699767 7.65810287,13.0942627 L7.74152156,13.1390207 L7.81528654,13.1996587 C7.8832117,13.2684437 7.92915044,13.3539795 7.94787449,13.4473727 L7.95733333,13.5430556 L7.95733333,13.9708333 C7.95733333,14.101408 7.90550728,14.2240136 7.81529499,14.3142216 C7.74318068,14.3872605 7.6500797,14.4352064 7.54871116,14.4514633 L7.47133333,14.4576111 L4.618,14.457 L4.61833333,14.8497222 C4.61833333,14.9253958 4.57762206,14.9917268 4.51681548,15.0275393 L4.46776479,15.0483456 L4.41311111,15.0557222 C4.38147166,15.0557222 4.35154649,15.0487332 4.32667542,15.0374721 L4.29357688,15.0177159 L2.67635053,13.9291964 C2.58175456,13.8661325 2.55612848,13.7380021 2.62193998,13.6394254 L2.65580823,13.6028118 L2.67584175,13.5865887 L4.29445459,12.498031 Z M4.207,13.052 L3.158,13.758 L4.207,14.463 L4.20711111,14.2508333 C4.20711111,14.1561484 4.27134006,14.0767563 4.35843855,14.0529224 L4.41311111,14.0456111 L7.47133333,14.0456111 C7.49099544,14.0456111 7.50934625,14.0377369 7.52393398,14.023434 L7.54026333,13.9991574 L7.54611111,13.9708333 L7.54611111,13.5430556 C7.54611111,13.5238148 7.53796822,13.5047687 7.52393398,13.4904549 L7.50023752,13.4744697 L7.47133333,13.4690556 L4.41311111,13.4690556 C4.31810263,13.4690556 4.23838606,13.4045595 4.214453,13.3175946 L4.20711111,13.2630556 L4.207,13.052 Z" id="Stroke-45" fill-rule="nonzero"></path>
                <path d="M19.0724333,14.2510667 L19.0724333,14.7449556 L20.5385444,13.7579556 L19.0724333,12.7709556 L19.0724333,13.2625111 C19.0724333,13.2936222 19.0475444,13.3192889 19.0164333,13.3192889 L15.9582111,13.3192889 C15.8959889,13.3192889 15.8407667,13.3434 15.7995444,13.3846222 C15.7583222,13.4250667 15.7334333,13.4818444 15.7334333,13.5432889 L15.7334333,13.9710667 C15.7334333,14.0325111 15.7583222,14.0892889 15.7995444,14.1297333 C15.8407667,14.1701778 15.8959889,14.1958444 15.9582111,14.1958444 L19.0164333,14.1958444 C19.0475444,14.1958444 19.0724333,14.2207333 19.0724333,14.2510667 L19.0724333,14.2510667 Z M15.9582111,14.3070667 C15.8656556,14.3070667 15.7816556,14.2697333 15.7202111,14.2082889 C15.6587667,14.1476222 15.6214333,14.0636222 15.6214333,13.9710667 L15.6214333,13.5432889 C15.6214333,13.4507333 15.6587667,13.3667333 15.7202111,13.3052889 C15.7816556,13.2446222 15.8656556,13.2065111 15.9582111,13.2065111 L18.9604333,13.2065111 L18.9604333,12.6659556 C18.9604333,12.6550667 18.9635444,12.6449556 18.9697667,12.6348444 C18.9876556,12.6099556 19.0226556,12.6021778 19.0475444,12.6192889 L20.6699889,13.7112889 C20.6754333,13.7159556 20.6808778,13.7206222 20.6847667,13.7268444 C20.7026556,13.7517333 20.6956556,13.7867333 20.6699889,13.8046222 L19.0522111,14.8935111 C19.0421,14.9012889 19.0296556,14.9059556 19.0164333,14.9059556 C18.9861,14.9059556 18.9604333,14.8810667 18.9604333,14.8499556 L18.9604333,14.3070667 L15.9582111,14.3070667 Z" id="Fill-47"></path>
                <path d="M18.8479644,12.547299 C18.899625,12.4754233 18.9908237,12.4443172 19.0731751,12.4677074 L19.1325238,12.4956826 L20.778717,13.6067512 L20.806569,13.639299 C20.8628183,13.717559 20.8548364,13.8204857 20.795446,13.8910567 L20.7537453,13.9290604 L19.1436677,15.0124047 C19.1075594,15.0401803 19.063102,15.0559556 19.0164333,15.0559556 C18.922162,15.0559556 18.841954,14.9920737 18.8178366,14.9048017 L18.8104333,14.8499556 L18.81,14.457 L15.9582111,14.4570667 C15.8929238,14.4570667 15.8296287,14.4441102 15.7713795,14.4198771 L15.6881717,14.3752801 L15.6148228,14.3150283 C15.541784,14.242914 15.493838,14.149813 15.4775812,14.0484445 L15.4714333,13.9710667 L15.4714333,13.5432889 C15.4714333,13.4127142 15.5232594,13.2901086 15.6148228,13.1985495 C15.6832157,13.1310223 15.7691207,13.0848893 15.8625895,13.0660433 L15.9582111,13.0565111 L18.81,13.056 L18.8104333,12.6659556 L18.8132415,12.6305272 L18.8243898,12.5950669 L18.8479644,12.547299 Z M19.222,13.053 L19.2224333,13.2625111 C19.2224333,13.3570699 19.1588593,13.4376264 19.0714333,13.4618519 L19.0164333,13.4692889 L15.9582111,13.4692889 C15.9371727,13.4692889 15.9197052,13.4765935 15.9045955,13.4916935 L15.8890157,13.5149054 L15.8834333,13.5432889 L15.8834333,13.9710667 C15.8834333,13.9910407 15.8912654,14.0095834 15.9045955,14.022662 L15.929881,14.0399938 L15.9582111,14.0458444 L19.0164333,14.0458444 C19.1110253,14.0458444 19.1910195,14.1094558 19.2150567,14.196413 L19.2224333,14.2510667 L19.222,14.462 L20.269,13.758 L19.222,13.053 Z" id="Stroke-49" fill-rule="nonzero"></path>
            </g>
        </g>
    </g>
</svg>