<?xml version="1.0" encoding="UTF-8"?>
<svg width="28px" height="28px" viewBox="0 0 28 28" version="1.1" xmlns="http://www.w3.org/2000/svg" xmlns:xlink="http://www.w3.org/1999/xlink">
    <title>5AFCE998-4F8B-4A73-A9BC-FAE5D90D7011</title>
    <g id="------↵-Home" stroke="none" stroke-width="1" fill="none" fill-rule="evenodd">
        <g id="D-/-Home" transform="translate(-706.000000, -1116.000000)">
            <g id="Section" transform="translate(0.000000, 900.000000)">
                <g id="Step" transform="translate(569.000000, 194.000000)">
                    <g id="Icon" transform="translate(137.000000, 22.000000)">
                        <path d="M0,8.55555556 L0,22.9444444 C0,25.732 2.268,28 5.05555556,28 L22.9444444,28 C25.732,28 28,25.732 28,22.9444444 L28,8.55555556 L0,8.55555556 Z M7.38888889,23.3333333 C6.31477778,23.3333333 5.44444444,22.463 5.44444444,21.3888889 C5.44444444,20.3147778 6.31477778,19.4444444 7.38888889,19.4444444 C8.463,19.4444444 9.33333333,20.3147778 9.33333333,21.3888889 C9.33333333,22.463 8.463,23.3333333 7.38888889,23.3333333 Z M14,23.3333333 C12.9258889,23.3333333 12.0555556,22.463 12.0555556,21.3888889 C12.0555556,20.3147778 12.9258889,19.4444444 14,19.4444444 C15.0741111,19.4444444 15.9444444,20.3147778 15.9444444,21.3888889 C15.9444444,22.463 15.0741111,23.3333333 14,23.3333333 Z M14,16.3333333 C12.9258889,16.3333333 12.0555556,15.463 12.0555556,14.3888889 C12.0555556,13.3147778 12.9258889,12.4444444 14,12.4444444 C15.0741111,12.4444444 15.9444444,13.3147778 15.9444444,14.3888889 C15.9444444,15.463 15.0741111,16.3333333 14,16.3333333 Z M20.6111111,16.3333333 C19.537,16.3333333 18.6666667,15.463 18.6666667,14.3888889 C18.6666667,13.3147778 19.537,12.4444444 20.6111111,12.4444444 C21.6852222,12.4444444 22.5555556,13.3147778 22.5555556,14.3888889 C22.5555556,15.463 21.6852222,16.3333333 20.6111111,16.3333333 Z" id="Shape" fill="#CEF8FB"></path>
                        <path d="M7.38888889,16.3333333 C6.31477778,16.3333333 5.44444444,15.463 5.44444444,14.3888889 C5.44444444,13.3147778 6.31477778,12.4444444 7.38888889,12.4444444 C8.463,12.4444444 9.33333333,13.3147778 9.33333333,14.3888889 C9.33333333,15.463 8.463,16.3333333 7.38888889,16.3333333 Z" id="Path" fill="#00A5B5"></path>
                        <path d="M28,6.22222222 L28,5.05555556 C28,2.268 25.732,-7.08766379e-14 22.9444444,-7.08766379e-14 L5.05555556,-7.08766379e-14 C2.268,-7.08766379e-14 0,2.268 0,5.05555556 L0,6.22222222 L28,6.22222222 Z" id="Path" fill="#00A5B5"></path>
                    </g>
                </g>
            </g>
        </g>
    </g>
</svg>