<svg width="2691" height="1981" xmlns="http://www.w3.org/2000/svg"><defs><linearGradient x1="251.816%" y1="50%" x2="17.933%" y2="50%" id="a"><stop stop-color="#FFF" offset="0%"/><stop stop-color="#FFF" stop-opacity="0" offset="100%"/></linearGradient><linearGradient x1="73.61%" y1="50%" x2="-106.734%" y2="50%" id="b"><stop stop-color="#FFF" stop-opacity="0" offset="0%"/><stop stop-color="#FFF" offset="100%"/></linearGradient></defs><g fill="none" fill-rule="evenodd"><path d="M2098 1981c327.505 0 593-265.495 593-593s-265.495-593-593-593-593 265.495-593 593 265.495 593 593 593zm0-200c-217.048 0-393-175.952-393-393s175.952-393 393-393 393 175.952 393 393-175.952 393-393 393z" fill="url(#a)"/><path d="M593 1186c327.505 0 593-265.495 593-593S920.505 0 593 0 0 265.495 0 593s265.495 593 593 593zm0-200c-217.048 0-393-175.952-393-393s175.952-393 393-393 393 175.952 393 393-175.952 393-393 393z" fill="url(#b)"/></g></svg>