<?xml version="1.0" encoding="UTF-8"?>
<svg width="48px" height="48px" viewBox="0 0 48 48" version="1.1" xmlns="http://www.w3.org/2000/svg" xmlns:xlink="http://www.w3.org/1999/xlink">
    <title>Icn / Custom / Location</title>
    <defs>
        <path d="M7.6916556,-3.10752092e-16 L40.3083444,3.10752092e-16 C42.9829006,-1.80555915e-16 43.9527593,0.278476833 44.9305371,0.801398111 C45.9083149,1.32431939 46.6756806,2.09168511 47.1986019,3.06946289 C47.7215232,4.04724067 48,5.01709938 48,7.6916556 L48,40.3083444 C48,42.9829006 47.7215232,43.9527593 47.1986019,44.9305371 C46.6756806,45.9083149 45.9083149,46.6756806 44.9305371,47.1986019 C43.9527593,47.7215232 42.9829006,48 40.3083444,48 L7.6916556,48 C5.01709938,48 4.04724067,47.7215232 3.06946289,47.1986019 C2.09168511,46.6756806 1.32431939,45.9083149 0.801398111,44.9305371 C0.278476833,43.9527593 1.2037061e-16,42.9829006 -2.07168062e-16,40.3083444 L2.07168062e-16,7.6916556 C-1.2037061e-16,5.01709938 0.278476833,4.04724067 0.801398111,3.06946289 C1.32431939,2.09168511 2.09168511,1.32431939 3.06946289,0.801398111 C4.04724067,0.278476833 5.01709938,1.80555915e-16 7.6916556,-3.10752092e-16 Z" id="path-1"></path>
    </defs>
    <g id="Icn-/-Custom-/-Location" stroke="none" stroke-width="1" fill="none" fill-rule="evenodd" opacity="0.5">
        <g id="Mixin-/-Button-/-Fill-/-Default">
            <mask id="mask-2" fill="white">
                <use xlink:href="#path-1"></use>
            </mask>
            <use id="💨-Shadow" fill="#FFFFFF" xlink:href="#path-1"></use>
            <g id="Map" mask="url(#mask-2)">
                <g transform="translate(-16.000000, -16.000000)" id="Path">
                    <path d="M79.8699819,40.0684307 C79.8699819,62.0494981 62.0494981,79.8699819 40.0684307,79.8699819 C18.0873632,79.8699819 0.266879416,62.0494981 0.266879416,40.0684307 C0.266879416,18.0873632 18.0873632,0.266879416 40.0684307,0.266879416 C62.0494981,0.266879416 79.8699819,18.0873632 79.8699819,40.0684307 Z" fill="#93ECF4"></path>
                    <path d="M40.0684307,0.266879416 C30.0364964,0.266879416 20.8724908,3.98038307 13.8720347,10.104927 L17.3562955,15.3854926 C17.980155,16.3298359 18.955292,16.9867702 20.0650091,17.2080292 L27.9482207,18.7853559 C28.6678832,18.9290601 29.3385036,19.2563869 29.8927918,19.7365419 L42.6847626,30.8074818 C44.0510949,31.9890511 46.0161953,32.1772353 47.5809764,31.2739507 L50.8382756,29.3943886 C52.1338961,28.6473542 53.7260493,28.6370893 55.0319343,29.3681571 L59.0898721,31.6411953 C60.0467609,32.1760949 60.7595801,33.0622718 61.0766423,34.1115419 L63.0257755,40.5394616 C63.4146896,41.8236771 64.3864053,42.8467153 65.6478102,43.3006388 L68.7271898,44.4092152 C70.0205291,44.8745436 71.4016879,43.9815238 71.5066149,42.6106295 C71.5670622,41.8385036 71.1918339,41.0971714 70.5348996,40.6865874 L68.9404654,39.689781 C67.5718523,38.8343977 66.8065693,37.2764599 66.9673813,35.6706204 L67.3118158,32.2308394 C67.4965784,30.375228 68.8720347,28.8583486 70.7002739,28.4922447 C71.6788321,28.2972172 72.5581661,27.7623177 73.180885,26.9833486 L76.1564782,23.2641425 C69.8197991,9.68179737 56.044708,0.266879416 40.0684307,0.266879416 L40.0684307,0.266879416 Z" fill="#36C697"></path>
                    <path d="M8.23791066,38.6963959 L8.73289226,28.5355839 C8.79562044,27.2513688 9.72057489,26.1713048 10.9808394,25.9124088 L18.0964873,24.4468523 C18.8343977,24.2951644 19.6019618,24.4445711 20.2281022,24.8619982 L27.5205291,29.7239965 C28.5971714,30.4413778 29.0476733,31.7997261 28.6119982,33.0177921 L28.3223083,33.8298359 C28.008668,34.7068888 28.1489507,35.6820257 28.6975364,36.4359034 C29.5791515,37.6482663 31.2557025,37.9584853 32.5136861,37.1418797 L34.4787866,35.8645074 C35.5953466,35.1380018 37.0677463,35.2931112 38.008668,36.2340327 L38.4694342,36.6947994 C39.6521442,37.8775092 39.5517793,39.8220803 38.2538777,40.8770528 L35.9124088,42.7794251 C35.8245895,42.8501369 35.7424727,42.9254105 35.6637775,43.0063869 L27.6516879,51.2853559 C26.9924727,51.9662409 26.7198905,52.9333942 26.9251825,53.8583486 L28.9324818,62.8889142 C29.0077553,63.225365 29.020301,63.5732207 28.9689781,63.9142336 L28.3576642,68.0451644 C28.0862225,69.8745436 26.1576187,70.951186 24.4582572,70.2235401 L24.3807025,70.1904654 C23.8309764,69.9543796 23.3702099,69.5506388 23.0656934,69.0362683 L18.9723997,62.1281933 C18.7511404,61.7552464 18.4466242,61.4381842 18.0828012,61.2020987 L14.0134581,58.5561133 C13.0976277,57.9607664 12.6083486,56.8898266 12.7577553,55.8074818 L13.5104928,50.3467153 C13.6507755,49.3316607 13.2287866,48.3211679 12.4098996,47.7064324 L9.83006394,45.7709854 C9.19822073,45.2976733 8.79448,44.5814324 8.71578453,43.7967609 L8.24703474,39.1138231 C8.23444558,38.9746806 8.23106745,38.8355384 8.23791066,38.6963959 Z" fill="#36C697"></path>
                </g>
            </g>
        </g>
    </g>
</svg>