<?xml version="1.0" encoding="UTF-8"?>
<svg width="24px" height="24px" viewBox="0 0 24 24" version="1.1" xmlns="http://www.w3.org/2000/svg" xmlns:xlink="http://www.w3.org/1999/xlink">
    <title>B652E18E-6432-4D4F-B600-68BDE01DCCD1</title>
    <g id="------↵-Home" stroke="none" stroke-width="1" fill="none" fill-rule="evenodd">
        <g id="D-/-Home" transform="translate(-989.000000, -800.000000)">
            <g id="Card" transform="translate(949.000000, 760.000000)">
                <g id="Icon" transform="translate(24.000000, 24.000000)">
                    <g transform="translate(16.000000, 16.000000)">
                        <path d="M13.7119319,16.5615881 L16.5615814,13.7119386 C17.3486139,12.924906 17.5437286,11.7225556 17.0459654,10.7270294 L16.8845041,10.4041066 C16.386741,9.40858039 16.5818556,8.20622996 17.3688882,7.41919737 L20.9022106,3.8858749 C21.1546708,3.63341475 21.5639896,3.63341475 21.8164497,3.8858749 C21.8655819,3.93500707 21.9064718,3.99173884 21.9375457,4.05388666 L23.3649083,6.90861171 C24.4568576,9.09251049 24.0288322,11.7301222 22.3023086,13.4566458 L14.5462514,21.212703 C12.6669276,23.0920268 9.88710198,23.7482546 7.36572452,22.9077954 L4.24397311,21.8672116 C3.90526228,21.754308 3.72220936,21.3882022 3.83511297,21.0494914 C3.86684974,20.9542811 3.92031808,20.8677675 3.99128365,20.7968019 L7.41919065,17.3688949 C8.20622324,16.5818623 9.40857367,16.3867477 10.4040999,16.8845108 L10.7270226,17.0459722 C11.7225489,17.5437353 12.9248993,17.3486207 13.7119319,16.5615881 Z" id="Path-76" fill="#FF5D5D"></path>
                        <path d="M15.0929204,5.21375185 L14.8454833,7.78774476 C12.9338099,7.60397625 11.035249,8.26740209 9.6513222,9.65132892 C8.27192602,11.0307251 7.60820436,12.9214321 7.78601585,14.8273068 L5.2113383,15.0675153 C4.96278015,12.4033416 5.89342257,9.75227226 7.82284406,7.82285078 C9.75861599,5.88707884 12.4206511,4.95686751 15.0929204,5.21375185 Z M15.5454687,0.0616247685 L15.3062189,2.63639159 C11.8783801,2.31787357 8.47561964,3.51311891 5.99436591,5.99437264 C3.51654245,8.4721961 2.32108197,11.8690225 2.63511429,15.2924637 L0.0600667429,15.5286729 C-0.323407557,11.3482059 1.13904549,7.19273678 4.16588777,4.16589449 C7.19692551,1.13485676 11.359636,-0.327326761 15.5454687,0.0616247685 Z" id="Combined-Shape" fill="#FFFFFF"></path>
                    </g>
                </g>
            </g>
        </g>
    </g>
</svg>