<svg width="275" height="231" xmlns="http://www.w3.org/2000/svg"><g fill="none" fill-rule="evenodd"><g fill="#C8CED8"><path d="M176.723 37.064a103.76 103.76 0 00-2.722-2.12L21.865 187.076c.693.917 1.4 1.824 2.126 2.721L176.723 37.064M139.559 17.534c-1.263-.374-2.53-.718-3.803-1.044L3.414 148.832c.327 1.273.67 2.54 1.044 3.803L139.56 17.534M165.663 29.227a113.366 113.366 0 00-3.038-1.81L14.342 175.701c.585 1.02 1.186 2.036 1.809 3.04L165.663 29.227M153.328 22.663c-1.122-.506-2.25-.995-3.385-1.46L8.127 163.018c.466 1.134.954 2.263 1.46 3.384l143.74-143.74M124.046 14.147a109.845 109.845 0 00-4.321-.523L.548 132.801c.147 1.443.32 2.885.526 4.32L124.046 14.148M185.403 44.862c-.407-.404-.818-.798-1.227-1.194L30.592 197.252c.396.409.79.823 1.196 1.226.404.406.815.798 1.226 1.196L186.6 46.09c-.397-.411-.793-.822-1.196-1.228M106.218 13.076c-1.695.037-3.387.114-5.076.231L.232 114.217A107.91 107.91 0 000 119.295L106.218 13.076M216.96 129.125c.114-1.692.191-3.384.228-5.076L110.973 230.264c1.692-.037 3.384-.112 5.074-.23l100.912-100.91M216.643 110.542a109.29 109.29 0 00-.526-4.321L93.145 229.193c1.435.206 2.878.376 4.321.525l119.177-119.176M212.885 152.096a108.4 108.4 0 001.677-6.524l-82.065 82.068c2.188-.49 4.363-1.052 6.524-1.68l73.864-73.864M163.767 215.27a109 109 0 0021.636-16.792 108.8 108.8 0 0016.79-21.638l-38.426 38.43M202.847 67.639a114.546 114.546 0 00-1.807-3.038L51.525 214.116c1.005.62 2.019 1.22 3.038 1.806L202.847 67.64M195.323 56.263a109.373 109.373 0 00-2.123-2.72L40.466 206.277c.897.725 1.806 1.43 2.721 2.123L195.323 56.263M213.777 94.508c-.33-1.271-.673-2.54-1.044-3.8l-135.101 135.1c1.26.374 2.53.718 3.8 1.045L213.777 94.508M209.064 80.323a115.567 115.567 0 00-1.462-3.386L63.86 220.677c1.124.506 2.25.995 3.384 1.463l141.82-141.817M2.627 97.77l82.067-82.068c-2.19.491-4.366 1.052-6.524 1.68L4.304 91.246a108.4 108.4 0 00-1.677 6.524M53.424 28.073a108.843 108.843 0 00-21.636 16.789A108.758 108.758 0 0014.998 66.5l38.426-38.427"/></g><path d="M243.39 129.15c-24.024 16.08-105.668-29.362-110.692-41.883-2.533-6.313-4.336-24.175 1.306-42.508 6.734-21.878 21.81-33.495 34.977-34.85 24.202-2.492 81.061 10.136 98.65 31.705 17.587 21.57-.218 71.456-24.242 87.536z" fill="#00A5B5"/><path d="M205.907 211.863C163.33 240.359 18.633 159.829 9.73 137.64 5.24 126.453 2.044 94.8 12.044 62.312 23.98 23.542 50.697 2.954 74.034.552c42.892-4.415 143.665 17.963 174.836 56.187 31.171 38.224-.386 126.628-42.963 155.124z" fill="#F5F7FA"/></g></svg>