<?xml version="1.0" encoding="UTF-8"?>
<svg width="24px" height="24px" viewBox="0 0 24 24" version="1.1" xmlns="http://www.w3.org/2000/svg" xmlns:xlink="http://www.w3.org/1999/xlink">
    <title>1DF11D6D-D56C-4526-B899-3A1544F1820A</title>
    <g id="------↵-Home" stroke="none" stroke-width="1" fill="none" fill-rule="evenodd">
        <g id="D-/-Home" transform="translate(-120.000000, -800.000000)">
            <g id="Card" transform="translate(80.000000, 760.000000)">
                <g id="Icon" transform="translate(24.000000, 24.000000)">
                    <g transform="translate(16.000000, 16.000000)">
                        <circle id="Oval-5" fill="#36C697" cx="12" cy="12" r="12"></circle>
                        <path d="M12,16.8 C12.6627417,16.8 13.2,17.3372583 13.2,18 C13.2,18.6627417 12.6627417,19.2 12,19.2 C11.3372583,19.2 10.8,18.6627417 10.8,18 C10.8,17.3372583 11.3372583,16.8 12,16.8 Z M11.8212,4.7064 C14.8704,4.7064 17.2644,7.05 17.2644,10.074 C17.2644,13.098 14.8704,15.4416 11.8212,15.4416 L10.3092,15.4416 L10.3092,13.4508 L11.8212,13.4508 C13.7364,13.4508 15.1224,11.9892 15.1224,10.074 C15.1224,8.1588 13.7364,6.6972 11.8212,6.6972 C9.8808,6.6972 8.5452,8.1588 8.5452,10.074 L6.4032,10.074 C6.4032,7.05 8.772,4.7064 11.8212,4.7064 Z" id="Combined-Shape" fill="#FFFFFF"></path>
                    </g>
                </g>
            </g>
        </g>
    </g>
</svg>