<?xml version="1.0" encoding="UTF-8"?>
<svg width="24px" height="24px" viewBox="0 0 24 24" version="1.1" xmlns="http://www.w3.org/2000/svg" xmlns:xlink="http://www.w3.org/1999/xlink">
    <title>1456733B-FAB0-491F-A6FA-62315BF01E48</title>
    <g id="------↵-Home" stroke="none" stroke-width="1" fill="none" fill-rule="evenodd">
        <g id="D-/-Home" transform="translate(-327.000000, -1118.000000)">
            <g id="Section" transform="translate(0.000000, 900.000000)">
                <g id="Step" transform="translate(188.000000, 194.000000)">
                    <g id="Icon" transform="translate(139.000000, 24.000000)">
                        <path d="M9.65887596,0 C4.34020325,0 0,4.34020725 0,9.65887596 C0,14.9775447 4.34020325,19.3177519 9.65887596,19.3177519 C11.8392227,19.3177519 13.8481096,18.5803587 15.4679924,17.3531905 L21.7064506,23.590347 C22.0406031,23.9383874 22.5368035,24.0785874 23.003683,23.9568765 C23.4705625,23.8351655 23.8351655,23.4705625 23.9568765,23.003683 C24.0785874,22.5368035 23.9383874,22.0406031 23.590347,21.7064506 L17.3531905,15.4679924 C18.580358,13.848109 19.3177519,11.8392213 19.3177519,9.65887596 C19.3177519,4.34020725 14.9775487,0 9.65887596,0 Z" id="Shape" fill="#00A5B5"></path>
                        <path d="M9.65887596,2.66451751 C13.5375375,2.66451751 16.6532344,5.78021709 16.6532344,9.65887596 C16.6532344,11.5211812 15.9298612,13.2030846 14.7537252,14.4531863 C14.6392392,14.5360675 14.5386696,14.6366368 14.4557882,14.7511226 C13.2054174,15.9287541 11.5225128,16.6532344 9.65887596,16.6532344 C5.78021443,16.6532344 2.66451751,13.5375348 2.66451751,9.65887596 C2.66451751,5.78021709 5.78021443,2.66451751 9.65887596,2.66451751 Z" id="Path" fill="#CEF8FB"></path>
                    </g>
                </g>
            </g>
        </g>
    </g>
</svg>