<?xml version="1.0" encoding="UTF-8"?>
<svg width="19px" height="24px" viewBox="0 0 19 24" version="1.1" xmlns="http://www.w3.org/2000/svg" xmlns:xlink="http://www.w3.org/1999/xlink">
    <title>7180B106-D2A1-4BF8-AD16-14B41298D8D6</title>
    <g id="------↵-Home" stroke="none" stroke-width="1" fill="none" fill-rule="evenodd">
        <g id="D-/-Home" transform="translate(-557.000000, -800.000000)">
            <g id="Card" transform="translate(514.000000, 760.000000)">
                <g id="Icon" transform="translate(24.000000, 24.000000)">
                    <g transform="translate(19.000000, 16.000000)">
                        <path d="M0,1.72846885 L9.00296899,0.0404121672 C9.2903444,-0.0134707224 9.58523164,-0.0134707224 9.87260705,0.0404121672 L18.875576,1.72846885 L18.875576,1.72846885 L18.875576,12.6798533 C18.875576,16.1416063 17.0922428,19.3591812 14.156682,21.1939066 L10.0630402,23.7524328 C9.68049095,23.9915261 9.19508509,23.9915261 8.81253581,23.7524328 L4.71889401,21.1939066 C1.78333326,19.3591812 4.23942484e-16,16.1416063 0,12.6798533 L0,1.72846885 L0,1.72846885 Z" id="Path-50" fill="#FFBB38"></path>
                        <path d="M8.46451635,14.4104965 C8.18187426,14.4104965 7.89923218,14.2974397 7.6731185,14.071326 L5.41198179,11.8101893 C4.95975445,11.3579619 4.95975445,10.6796209 5.41198179,10.2273936 C5.86420913,9.77516624 6.59907857,9.77516624 6.99477749,10.2273936 L8.46451635,11.6971324 L12.1953919,7.96625687 C12.6476193,7.51402953 13.3259603,7.51402953 13.7781876,7.96625687 C14.230415,8.41848421 14.230415,9.09682523 13.7781876,9.54905257 L9.2559142,14.071326 C9.02980053,14.2974397 8.74715844,14.4104965 8.46451635,14.4104965 Z" id="check-path" fill="#FFFFFF"></path>
                    </g>
                </g>
            </g>
        </g>
    </g>
</svg>