<?xml version="1.0" encoding="UTF-8"?>
<svg width="20px" height="18px" viewBox="0 0 20 18" version="1.1" xmlns="http://www.w3.org/2000/svg" xmlns:xlink="http://www.w3.org/1999/xlink">
    <title>Icn - Fuel type</title>
    <g id="------↵-Renter-/-Campervan-Details" stroke="none" stroke-width="1" fill="none" fill-rule="evenodd">
        <g id="Group" transform="translate(-6.000000, -7.000000)" fill="#13284C">
            <g id="icons8-petrol" transform="translate(6.000000, 7.000000)">
                <path d="M10.455078,0 L2,8.589844 L2,15.285156 C2,16.763659 3.2068591,18 4.6875,18 L17.3125,18 C18.793141,18 20,16.764363 20,15.285156 L20,2.7148438 C20,1.2356368 18.793141,0 17.3125,0 L10.455078,0 Z M4.2929688,1.2929688 L0.2929688,5.2929688 L1.7070312,6.7070312 L5.7070312,2.7070312 L4.2929688,1.2929688 Z M11.292969,2 L14.763672,2 L12.607422,4 L9.324219,4 L11.292969,2 Z M17.619141,2.078125 C17.843954,2.1910994 18,2.4213867 18,2.7148438 L18,15.285156 C18,15.699949 17.695859,16 17.3125,16 L4.6875,16 C4.3041409,16 4,15.700653 4,15.285156 L4,9.410156 L7.3554688,6 L13.392578,6 L17.619141,2.078125 Z M11,8 C11,8 9,10.513391 9,11.900391 C9,13.063391 9.9,14 11,14 C12.1,14 13,13.063391 13,11.900391 C13,10.513391 11,8 11,8 Z" id="Shape"></path>
            </g>
        </g>
    </g>
</svg>