<?xml version="1.0" encoding="UTF-8"?>
<svg width="20px" height="18px" viewBox="0 0 20 18" version="1.1" xmlns="http://www.w3.org/2000/svg" xmlns:xlink="http://www.w3.org/1999/xlink">
    <title>Icn - Length</title>
    <g id="------↵-Renter-/-Campervan-Details" stroke="none" stroke-width="1" fill="none" fill-rule="evenodd">
        <g id="Group" transform="translate(-6.000000, -7.000000)" fill="#13284C">
            <g id="icons8-merge-vertical" transform="translate(6.000000, 7.000000)">
                <path d="M7,0 L7,9 L7,18 L9,18 L9,0 L7,0 Z M7,9 L3,5 L3,8 L0,8 L0,10 L3,10 L3,13 L7,9 Z M11,0 L11,18 L13,18 L13,9 L13,0 L11,0 Z M13,9 L17,13 L17,10 L20,10 L20,8 L17,8 L17,5 L13,9 Z" id="Shape"></path>
            </g>
        </g>
    </g>
</svg>