<?xml version="1.0" encoding="UTF-8"?>
<svg width="16px" height="16px" viewBox="0 0 16 16" version="1.1" xmlns="http://www.w3.org/2000/svg" xmlns:xlink="http://www.w3.org/1999/xlink">
    <title>Icn - Doc</title>
    <g id="------↵-Renter-/-Campervan-Details" stroke="none" stroke-width="1" fill="none" fill-rule="evenodd">
        <g id="Icn-/-Doc" fill="#13284C">
            <path d="M11.3324117,0.666743531 C10.9647342,0.672572338 10.6711266,0.974918332 10.6761617,1.34260621 L10.6761617,2.75797081 C10.4213257,2.81756901 10.1913917,2.91528754 9.97824499,3.03531454 L8.98605766,2.04312701 C8.86044795,1.91330199 8.68753522,1.84000205 8.50689099,1.84000208 C8.23526099,1.84005714 7.99082021,2.00489118 7.88895337,2.25669668 C7.78708652,2.50850217 7.8481616,2.79693135 8.04334899,2.98583541 L9.02902633,3.97151248 C8.90407566,4.19370474 8.82107699,4.43212861 8.76340099,4.67593954 L7.34282833,4.67593954 C7.10240438,4.67253935 6.87877408,4.79885641 6.75756985,5.00652144 C6.63636561,5.21418648 6.63636561,5.47102594 6.75756985,5.67869098 C6.87877408,5.88635601 7.10240438,6.01267307 7.34282833,6.00927288 L8.76340099,6.00927288 C8.82107699,6.25308381 8.90407566,6.49150774 9.02902633,6.71370021 L8.04334899,7.69937688 C7.86919827,7.86659015 7.79904926,8.11488568 7.85995512,8.34850767 C7.92086098,8.58212965 8.10330489,8.76457355 8.33692687,8.82547941 C8.57054885,8.88638527 8.81884439,8.81623627 8.98605766,8.64208554 L9.97824499,7.64989821 C10.1913917,7.76992488 10.4213257,7.86764354 10.6761617,7.92724154 L10.6761617,9.34260621 L10.6761617,10.7827102 C10.6761617,11.1051342 10.429575,11.3530229 10.107151,11.3530229 L7.34282833,11.3530229 C7.33992966,10.2499109 6.43093933,9.34260621 5.32720333,9.34260621 L3.34282833,9.34260621 C3.34529597,9.16240599 3.27471054,8.98888177 3.14715521,8.86157173 C3.01959989,8.73426168 2.84594013,8.66401039 2.66574499,8.66682488 C2.29806753,8.67257226 2.00445985,8.9749183 2.00949499,9.34260621 L2.00949499,10.0092729 L0.676161659,10.0092729 C0.435737715,10.0058727 0.212107416,10.1321897 0.0909031785,10.3398548 C-0.0303010595,10.5475198 -0.0303010595,10.8043593 0.0909031785,11.0120243 C0.212107416,11.2196893 0.435737715,11.3460064 0.676161659,11.3426062 L2.00949499,11.3426062 L2.00949499,12.6759395 L0.676161659,12.6759395 C0.435737715,12.6725393 0.212107416,12.7988564 0.0909031785,13.0065214 C-0.0303010595,13.2141865 -0.0303010595,13.4710259 0.0909031785,13.678691 C0.212107416,13.886356 0.435737715,14.0126731 0.676161659,14.0092729 L2.00949499,14.0092729 L2.00949499,14.6759395 C2.0060948,14.9163635 2.13241186,15.1399938 2.34007689,15.261198 C2.54774193,15.3824023 2.80458139,15.3824023 3.01224643,15.261198 C3.21991146,15.1399938 3.34622852,14.9163635 3.34282833,14.6759395 L5.32720333,14.6759395 C6.42379119,14.6759395 7.32571366,13.7797735 7.34022433,12.6863562 L10.107151,12.6863562 C11.150061,12.6863562 12.009495,11.8256202 12.009495,10.7827102 L12.009495,8.00927288 L12.009495,7.92724154 C12.264331,7.86764354 12.494265,7.76992488 12.7074117,7.64989821 L13.699599,8.64208554 C13.8668123,8.81623627 14.1151078,8.88638527 14.3487298,8.82547941 C14.5823518,8.76457355 14.7647957,8.58212965 14.8257015,8.34850767 C14.8866074,8.11488568 14.8164584,7.86659015 14.6423077,7.69937688 L13.6566303,6.71370021 C13.781581,6.49150774 13.8645797,6.25308381 13.9222557,6.00927288 L15.3428283,6.00927288 C15.5832523,6.01267307 15.8068826,5.88635601 15.9280868,5.67869098 C16.049291,5.47102594 16.049291,5.21418648 15.9280868,5.00652144 C15.8068826,4.79885641 15.5832523,4.67253935 15.3428283,4.67593954 L13.9222557,4.67593954 C13.8645797,4.43212861 13.781581,4.19370474 13.6566303,3.97151248 L14.6423077,2.98583541 C14.8394814,2.79417443 14.898767,2.50112453 14.7915974,2.24789324 C14.6844277,1.99466195 14.4327881,1.83319822 14.1579323,1.84130414 C13.9847333,1.84646488 13.8203467,1.91885097 13.699599,2.04312701 L12.7074117,3.03531454 C12.494265,2.91528754 12.264331,2.81756901 12.009495,2.75797081 L12.009495,1.34260621 C12.0119626,1.162406 11.9413772,0.988881808 11.8138219,0.86157178 C11.6862665,0.734261753 11.5126068,0.66401047 11.3324117,0.666743531 Z M11.2777243,4.01448121 C11.3218847,4.01890151 11.366376,4.01890151 11.4105363,4.01448121 C11.7372963,4.02551001 11.9734797,4.10793528 12.1527243,4.23843954 C12.2127766,4.35644921 12.3066068,4.45390566 12.4222557,4.51838748 C12.570719,4.73010081 12.6589717,4.99735308 12.6709537,5.27750208 C12.6665333,5.32166256 12.6665333,5.36615406 12.6709537,5.41031454 C12.6583577,5.69359188 12.5676657,5.96355148 12.415745,6.17593954 C12.3067588,6.23891779 12.2178268,6.3314612 12.1592343,6.44286661 C11.978433,6.57639781 11.7392117,6.66016668 11.4066303,6.67073121 C11.3819826,6.66805019 11.3572046,6.66674608 11.3324117,6.66682494 C11.3132673,6.66730365 11.2941525,6.66860695 11.2751203,6.67073121 C10.9447263,6.65957974 10.7064723,6.57584328 10.5264223,6.44286661 C10.4678765,6.33032557 10.3784389,6.23682273 10.2686097,6.17333541 C10.1172343,5.96062928 10.0268137,5.69087594 10.014703,5.40771034 C10.0191233,5.36354986 10.0191233,5.31905836 10.014703,5.27489788 C10.027101,4.99606194 10.115767,4.73061614 10.263401,4.51968954 C10.3792396,4.45486147 10.47309,4.3569307 10.5329323,4.23843954 C10.712681,4.10756834 10.949513,4.02512408 11.2777243,4.01448121 Z M3.35194293,10.6759395 L5.32720333,10.6759395 C5.71236973,10.6759395 6.00949499,10.9730649 6.00949499,11.3582315 L6.00949499,12.6603142 C6.00949499,13.0454815 5.71236973,13.3426062 5.32720333,13.3426062 L3.35194293,13.3426062 C3.35170494,13.307264 3.34865713,13.2719966 3.34282833,13.2371375 L3.34282833,10.7879189 C3.34901161,10.7509153 3.35206063,10.7134559 3.35194293,10.6759395 Z" id="Shape"></path>
        </g>
    </g>
</svg>