<?xml version="1.0" encoding="UTF-8"?>
<svg width="20px" height="21px" viewBox="0 0 20 21" version="1.1" xmlns="http://www.w3.org/2000/svg" xmlns:xlink="http://www.w3.org/1999/xlink">
    <title>Icn - Seats</title>
    <g id="------↵-Renter-/-Campervan-Details" stroke="none" stroke-width="1" fill="none" fill-rule="evenodd">
        <g id="Icn-/-Seatbelts" transform="translate(-6.000000, -6.000000)" fill="#13284C">
            <path d="M9,6 C7.9069372,6 7,6.9069372 7,8 L7,14.5859375 L6,15.585938 L6,21 C6,22.093063 6.9069372,23 8,23 L8.71875,23 L8.0292969,25.757812 C7.95475541,26.0565953 8.02201422,26.3730594 8.21162609,26.6157017 C8.40123795,26.8583439 8.6920586,27 9,27 L15,27 C15.3079414,27 15.598762,26.8583439 15.7883738,26.6157016 C15.9779857,26.3730594 16.0452445,26.0565953 15.970703,25.757812 L15.28125,23 L16,23 C17.093063,23 18,22.093063 18,21 L18,15.585938 L17,14.5859375 L17,8 C17,6.9069372 16.093063,6 15,6 L9,6 Z M23,6 C21.906937,6 21,6.9069372 21,8 L21,14.5859375 L20,15.585938 L20,21 C20,22.093063 20.906937,23 22,23 L22.71875,23 L22.029297,25.757812 C21.9547555,26.0565953 22.0220143,26.3730594 22.2116262,26.6157016 C22.401238,26.8583439 22.6920586,27 23,27 L26,27 L26,25 L24.28125,25 L24.78125,23 L26,23 L26,21 L22,21 L22,16.414062 L23,15.414062 L23,8 L26,8 L26,6 L23,6 Z M9,8 L15,8 L15,15.414062 L16,16.414062 L16,21 L8,21 L8,16.414062 L9,15.414062 L9,8 Z M10,17 L10,19 L14,19 L14,17 L10,17 Z M24,17 L24,19 L26,19 L26,17 L24,17 Z M10.78125,23 L13.21875,23 L13.71875,25 L10.28125,25 L10.78125,23 Z"></path>
        </g>
    </g>
</svg>