<?xml version="1.0" encoding="UTF-8"?>
<svg width="18px" height="18px" viewBox="0 0 18 18" version="1.1" xmlns="http://www.w3.org/2000/svg" xmlns:xlink="http://www.w3.org/1999/xlink">
    <title>Icn - Sleeps</title>
    <g id="------↵-Renter-/-Campervan-Details" stroke="none" stroke-width="1" fill="none" fill-rule="evenodd">
        <g id="Group" transform="translate(-7.000000, -7.000000)" fill="#13284C">
            <g id="icons8-single-bed" transform="translate(7.000000, 7.000000)">
                <path d="M3,0 C1.895,0 1,0.895 1,2 L1,7.277344 C0.4043659,7.623613 0,8.261054 0,9 L0,18 L2,18 L2,16 L16,16 L16,18 L18,18 L18,9 C18,8.261054 17.595634,7.623613 17,7.277344 L17,2 C17,0.895 16.105,0 15,0 L3,0 Z M3,2 L15,2 L15,7 L13,7 L13,5 C13,4.448 12.552,4 12,4 L6,4 C5.448,4 5,4.448 5,5 L5,7 L3,7 L3,2 Z M2,9 L16,9 L16,14 L2,14 L2,9 Z" id="Shape"></path>
            </g>
        </g>
    </g>
</svg>