<?xml version="1.0" encoding="UTF-8"?>
<svg width="18px" height="18px" viewBox="0 0 18 18" version="1.1" xmlns="http://www.w3.org/2000/svg" xmlns:xlink="http://www.w3.org/1999/xlink">
    <title>Icn - Transmission</title>
    <g id="------↵-Renter-/-Campervan-Details" stroke="none" stroke-width="1" fill="none" fill-rule="evenodd">
        <g id="Group" transform="translate(-7.000000, -7.000000)" fill="#13284C">
            <g id="icons8-gearbox" transform="translate(7.000000, 7.000000)">
                <path d="M2,0 C0.8954305,0 0,0.8954305 0,2 C0.000564878936,2.71396592 0.381687055,3.37348595 1,3.7304688 L1,7.832031 C0.982150952,7.94002244 0.982150952,8.05021156 1,8.158203 L1,12.271484 C0.382290189,12.6281174 0.00126127836,13.286732 0,14 C0,15.1045695 0.8954305,16 2,16 C3.1045695,16 4,15.1045695 4,14 C3.99943519,13.286034 3.61831301,12.6265139 3,12.269531 L3,9 L8,9 L8,12.269531 C7.38168699,12.6265139 7.00056481,13.286034 7,14 C7,15.1045695 7.8954305,16 9,16 C10.1045695,16 11,15.1045695 11,14 C10.9987387,13.286732 10.6177098,12.6281174 10,12.271484 L10,9 L15,9 L15,14.271484 C14.3822902,14.6281174 14.0012613,15.286732 14,16 C14,17.1045695 14.8954305,18 16,18 C17.1045695,18 18,17.1045695 18,16 C17.9994352,15.286034 17.618313,14.6265139 17,14.269531 L17,8.167969 C17.017849,8.05997756 17.017849,7.94978844 17,7.841797 L17,3.7285156 C17.6177097,3.37188223 17.9987386,2.71326785 18,2 C18,0.8954305 17.1045695,0 16,0 C14.8954305,0 14,0.8954305 14,2 C14.0005649,2.71396592 14.3816871,3.37348595 15,3.7304688 L15,7 L10,7 L10,3.7285156 C10.6177097,3.37188223 10.9987386,2.71326785 11,2 C11,0.8954305 10.1045695,0 9,0 C7.8954305,0 7,0.8954305 7,2 C7.00056488,2.71396592 7.38168705,3.37348595 8,3.7304688 L8,7 L3,7 L3,3.7285156 C3.61770969,3.37188223 3.99873858,2.71326785 4,2 C4,0.8954305 3.1045695,0 2,0 Z" id="Path"></path>
            </g>
        </g>
    </g>
</svg>