<svg width="40" height="40" xmlns="http://www.w3.org/2000/svg"><g transform="rotate(45 11.379 30.571)" fill="none" fill-rule="evenodd"><path d="M10.034.231a9.475 9.475 0 019.475 9.476v20.53a3.158 3.158 0 01-3.158 3.158H3.717a3.158 3.158 0 01-3.159-3.159v-18.95h4.738c.09 0 .178-.008.263-.022a4.737 4.737 0 009.212-1.557 4.738 4.738 0 00-9.213-1.558 1.591 1.591 0 00-.262-.022H.689C1.441 3.648 5.34.232 10.034.232z" fill="#36C697"/><rect fill="#FFF" x="3.717" y="20.761" width="12.634" height="3.158" rx="1.579"/><rect fill="#FFF" x="5.296" y="27.078" width="9.475" height="3.158" rx="1.579"/></g></svg>