<svg xmlns="http://www.w3.org/2000/svg" width="32" height="32"  xmlns:v="https://vecta.io/nano"><path d="M6.5 8a.5.5 0 0 0-.5.5v1a.5.5 0 0 0 .5.5h5a.5.5 0 0 0 .5-.5v-1a.5.5 0 0 0-.5-.5h-5zm14 0a.5.5 0 0 0-.5.5v1a.5.5 0 0 0 .5.5h5a.5.5 0 0 0 .5-.5v-1a.5.5 0 0 0-.5-.5h-5zM8 12v2.271a2 2 0 0 0 0 3.457V20h2v-2.27a2 2 0 0 0 .729-.73H21.27a2 2 0 0 0 .73.729V20h2v-2.27a2 2 0 0 0 0-3.459V12h-2v2.27a2 2 0 0 0-.729.73H10.729a2 2 0 0 0-.729-.73V12H8zM6.5 22a.5.5 0 0 0-.5.5v1a.5.5 0 0 0 .5.5h5a.5.5 0 0 0 .5-.5v-1a.5.5 0 0 0-.5-.5h-5zm14 0a.5.5 0 0 0-.5.5v1a.5.5 0 0 0 .5.5h5a.5.5 0 0 0 .5-.5v-1a.5.5 0 0 0-.5-.5h-5z" fill="#13284c" fill-rule="evenodd"/></svg>