<svg xmlns="http://www.w3.org/2000/svg" width="32" height="32"  xmlns:v="https://vecta.io/nano"><path d="M16 6a10 10 0 1 1 0 20 10 10 0 1 1 0-20zm0 2a8 8 0 1 0 0 16 8 8 0 1 0 0-16zm3.833 3.337c.237-.166.559-.138.763.067a.59.59 0 0 1 .063.76l-3.598 4.897c-.586.585-1.536.585-2.122 0s-.585-1.536 0-2.122c.374-.373 2.005-1.574 4.894-3.602zM21.5 15a1 1 0 1 1 0 2 1 1 0 1 1 0-2zm-11 0a1 1 0 1 1 0 2 1 1 0 1 1 0-2zm2.318-3.596a1 1 0 0 1-1.414 1.414 1 1 0 0 1 1.414-1.414zM16 9.5a1 1 0 1 1 0 2 1 1 0 1 1 0-2z" fill="#13284c" fill-rule="evenodd"/></svg>