<svg xmlns="http://www.w3.org/2000/svg" width="32" height="32"  fill="#13284c" fill-rule="evenodd" xmlns:v="https://vecta.io/nano"><path d="M20.031 23.93c-.078-.087-.165-.168-.231-.263-.28-.403-.505-.84-.732-1.274-.753-1.438-1.406-2.921-1.95-4.451-.225-.633-.427-1.273-.573-1.928-.087-.389-.161-.781-.142-1.184.016-.338.082-.668.173-.993.179-.647.444-1.261.743-1.861.401-.804.867-1.57 1.365-2.316.286-.428.578-.852.928-1.231a3.09 3.09 0 0 1 .309-.282c.145-.12.311-.154.499-.119.432.081.849.214 1.264.355.831.282 1.65.594 2.43.997 1.106.571 2.059 1.334 2.833 2.312a5.5 5.5 0 0 1 .869 1.593 2.26 2.26 0 0 1 .125.71v1.13c-.01.406-.127.787-.292 1.157-.484 1.089-1.187 2.015-2.072 2.809-.866.778-1.84 1.391-2.899 1.868-.821.37-1.662.692-2.533.929-.058.016-.118.021-.176.035-.045.011-.072-.005-.091-.044l-.191-.392-.716-1.836-.122-.406c-.014-.046-.003-.073.048-.087l1.047-.291a12.74 12.74 0 0 0 2.123-.743c.818-.38 1.575-.85 2.22-1.486.483-.476.87-1.017 1.112-1.655a3.83 3.83 0 0 0 .239-1.501c-.026-.798-.313-1.493-.806-2.111-.792-.993-1.775-1.74-2.92-2.282-.504-.238-1.029-.419-1.555-.598l-.186-.065c-.046-.021-.069-.006-.098.029-.633.746-1.115 1.587-1.54 2.462a15.1 15.1 0 0 0-.93 2.379c-.15.519-.249 1.047-.24 1.59.006.345.04.689.096 1.029.141.857.381 1.689.648 2.514l1.304 3.593.586 1.509a1.58 1.58 0 0 1 .071.259c.009.045-.002.094-.005.14h-.036zM4 14.331l.042-.337c.063-.396.199-.769.356-1.137.447-1.044 1.158-1.876 2.054-2.56.68-.52 1.423-.931 2.202-1.281.715-.322 1.453-.581 2.201-.814.234-.073.469-.141.713-.172a.83.83 0 0 1 .749.274 5.52 5.52 0 0 1 .386.464c.825 1.113 1.504 2.315 2.119 3.554l.544 1.209c.111.303.164.616.183.935l.026.777c.004.41-.081.808-.194 1.199a25.47 25.47 0 0 1-1.073 2.97l-1.786 3.721c-.125.226-.272.44-.412.658a.48.48 0 0 1-.099.102c-.036.03-.065.019-.067-.03-.002-.041.004-.084.018-.122l.465-1.261 1.313-3.507.683-2.425c.123-.591.203-1.187.192-1.792a6.42 6.42 0 0 0-.214-1.47c-.257-1.011-.654-1.967-1.148-2.885a11.18 11.18 0 0 0-1.094-1.668c-.078-.098-.157-.208-.293-.222-.089-.009-.183.003-.27.025-.612.152-1.19.394-1.749.684-.67.347-1.302.752-1.872 1.248a5 5 0 0 0-1.361 1.891 3.34 3.34 0 0 0-.239 1.616c.039.4.149.781.304 1.151.29.694.747 1.262 1.307 1.754a7.68 7.68 0 0 0 1.461.993c.815.434 1.679.738 2.567.983l.893.287c.065.022.125.061.189.089.057.026.067.065.047.122l-.178.52-.784 2.015c-.02.053-.049.042-.088.035-.88-.161-1.703-.485-2.508-.861a15.51 15.51 0 0 1-2.312-1.31c-.468-.326-.891-.706-1.291-1.11-.421-.425-.799-.884-1.118-1.393a5.62 5.62 0 0 1-.823-2.206L4 14.714v-.383z"/><path d="M15.985 22.422l-1.386-.038a3.07 3.07 0 0 1-.899-.18c-.102-.035-.115-.047-.085-.151l.198-.6.82-1.923c.053-.127.114-.168.254-.167l2.34-.003c.049 0 .073.014.093.059l.871 1.979c.082.191.138.394.205.592.007.022.009.047.011.07.012.124-.022.18-.146.205a2.8 2.8 0 0 1-.396.058l-1.879.099M14.22 9.374l.067-.033 1.654-.748c.025-.011.064-.017.088-.006l1.709.773c.009.004.017.009.031.017l-.291.359c-.417.5-.779 1.039-1.115 1.596-.084.14-.184.27-.281.401-.057.077-.083.078-.14.002l-.315-.443-.783-1.173-.58-.691-.044-.054"/></svg>