<svg xmlns="http://www.w3.org/2000/svg" width="32" height="32"  xmlns:v="https://vecta.io/nano"><path d="M7 6l-1 8 5-7-4-1zm12 0l-2 3-3-1 1 3v2l3-1 3 1-2-3V6zm7 0l-4 2 3 4 1-6zm-14 6l-2 5-4 1 2.5 2.559L7 25l4.471-2L14 26l1-4h4l-2-3 1-3h-3.504L12 12zm.393 4.406l.408.652.586.941h1.109.729l-.123.367-.309.93.471.703H15h-1.562l-.377 1.516-.053.205-.008-.01-.971-1.15-1.375.615-.295.131.037-.107.391-1.162-.857-.877-.064-.064.619-.156.992-.248.381-.949.535-1.336zM23.582 17l-2.055.527L21 19.5l1.5 1.5 1.973-.527.527-2.055L23.582 17zM25 23l-3 2 4 1-1-3z" fill="#13284c" fill-rule="evenodd"/></svg>