<svg xmlns="http://www.w3.org/2000/svg" width="32" height="32"  xmlns:v="https://vecta.io/nano"><path d="M7 7a1 1 0 0 0-1 1v10a1 1 0 0 0 1 1h18a1 1 0 0 0 1-1V8a1 1 0 0 0-1-1H7zm1.912 2h14.176a1.5 1.5 0 0 0 .912.912v6.176a1.5 1.5 0 0 0-.912.912H8.912A1.5 1.5 0 0 0 8 16.088V9.912A1.5 1.5 0 0 0 8.912 9zM16 10a3 3 0 1 0 0 6 3 3 0 1 0 0-6zm-5 2a1 1 0 1 0 0 2 1 1 0 1 0 0-2zm10 0a1 1 0 1 0 0 2 1 1 0 1 0 0-2zM7.99 21l15.238 3.969a1 1 0 0 0 1.219-.717L25.295 21h-2.066l-.236.9c-.449.039-.854.278-1.107.65L15.928 21H7.99z" fill="#13284c" fill-rule="evenodd"/></svg>