<svg xmlns="http://www.w3.org/2000/svg" width="32" height="32"  xmlns:v="https://vecta.io/nano"><path d="M12.998 6C9.686 6 7 8.75 7 12.09c0 1.67.617 3.519 1.629 5.059.824 1.254 1.966 2.345 3.373 2.711L12 25h2l.002-5.143c.871-.228 1.637-.732 2.291-1.385a7.11 7.11 0 0 0 .865 1.145c.507.536 1.132.975 1.84 1.205L18.996 26h2l.002-5.164c1.133-.358 2.028-1.281 2.674-2.305.826-1.309 1.324-2.865 1.324-4.291 0-2.852-2.219-5.24-5-5.24-.585 0-1.144.117-1.668.313C17.331 7.353 15.32 6 12.998 6zm0 2c2.211 0 4 1.809 4 4.09 0 1.14-.501 2.748-1.299 3.961S13.886 18 13 18s-1.901-.738-2.699-1.951S9 13.229 9 12.09C9 9.812 10.788 8 12.998 8zm6.998 3c1.635 0 3 1.408 3 3.24 0 .916-.394 2.24-1.016 3.225S20.587 19 19.998 19c-.413 0-.895-.236-1.387-.756-.374-.396-.724-.938-.998-1.525.856-1.449 1.385-3.107 1.385-4.629a6.13 6.13 0 0 0-.068-.871c.332-.138.687-.219 1.066-.219z" fill="#13284c" fill-rule="evenodd"/></svg>