<svg xmlns="http://www.w3.org/2000/svg" width="32" height="32"  xmlns:v="https://vecta.io/nano"><path fill="#d80027" d="M19.969 8.015h-7.984H4v15.969h7.984 7.984 7.984V8.015z"/><path fill="#6da544" d="M4 8.016h7.984v15.969H4z"/><path fill="#f0f0f0" d="M11.984 8.016h7.984v15.969h-7.984z"/><path d="M13.731 16c0 1.24 1.005 2.246 2.246 2.246S18.222 17.24 18.222 16v-.749h-4.491V16z" fill="#6da544"/><path d="M18.971 14.503h-2.246a.75.75 0 0 0-.749-.749.75.75 0 0 0-.749.749h-2.246c0 .413.36.749.773.749h-.025a.75.75 0 0 0 .749.749.75.75 0 0 0 .749.749h1.497a.75.75 0 0 0 .749-.749.75.75 0 0 0 .749-.749h-.025c.413 0 .773-.335.773-.749z" fill="#ff9811"/></svg>