<svg xmlns="http://www.w3.org/2000/svg" width="32" height="32"  xmlns:v="https://vecta.io/nano"><path d="M14 8c0 .548-.043 1.651.418 2.787s1.529 2.28 3.328 2.752c1.153.303 2.35.594 3.145 1.002S22 15.256 22 16h2c0-1.542-1.055-2.652-2.195-3.238s-2.443-.867-3.551-1.158c-1.282-.336-1.714-.907-1.982-1.568S16 8.595 16 8h-2zm5 0v2c.9 0 1.988.153 2.756.508s1.18.754 1.248 1.576A1 1 0 0 0 24 13c.667 0 1.06.268 1.418.805S26 15.167 26 16h2c0-1.167-.276-2.341-.918-3.305-.517-.775-1.384-1.291-2.379-1.506-.369-1.147-1.143-2.052-2.109-2.498C21.412 8.146 20.1 8 19 8zM4 17v1 5h24v-6H4zm2 2h16v2H6v-2zm18 0h2v2h-2v-2z" fill="#13284c" fill-rule="evenodd"/></svg>