<?xml version="1.0" encoding="UTF-8"?>
<svg width="32px" height="32px" viewBox="0 0 32 32" version="1.1" xmlns="http://www.w3.org/2000/svg" xmlns:xlink="http://www.w3.org/1999/xlink">
    <title>Icn / Travel Restriction / Roads / Snow - Icy Road Conditions</title>
    <g id="Icn-/-Travel-Restriction-/-Roads-/-Snow---Icy-Road-Conditions" stroke="none" stroke-width="1" fill="none" fill-rule="evenodd">
        <g id="icons8-winter" transform="translate(6.000000, 6.000000)" fill="#13284C">
            <polygon id="Path" points="7.7070312 0.2929688 6.2929688 1.7070312 9 4.4140625 9 8.195312 5.7929688 6.1894531 4.9355469 2.4589844 2.9863281 2.9082031 3.7148438 6.0683594 0.5546875 6.796875 1.0039062 8.746094 4.7324219 7.8867188 8.113281 10 4.7324219 12.113281 1.0039062 11.253906 0.5546875 13.203125 3.7148438 13.931641 2.9863281 17.091797 4.9355469 17.541016 5.7929688 13.810547 9 11.806641 9 15.585938 6.2929688 18.292969 7.7070312 19.707031 10 17.414062 12.292969 19.707031 13.707031 18.292969 11 15.585938 11 11.806641 14.207031 13.810547 15.064453 17.541016 17.013672 17.091797 16.285156 13.931641 19.445312 13.203125 18.996094 11.253906 15.267578 12.113281 11.886719 10 15.267578 7.8867188 18.996094 8.746094 19.445312 6.796875 16.285156 6.0683594 17.013672 2.9082031 15.064453 2.4589844 14.207031 6.1894531 11 8.195312 11 4.4140625 13.707031 1.7070312 12.292969 0.2929688 10 2.5859375"></polygon>
        </g>
    </g>
</svg>