<?xml version="1.0" encoding="UTF-8"?>
<svg width="32px" height="32px" viewBox="0 0 32 32" version="1.1" xmlns="http://www.w3.org/2000/svg" xmlns:xlink="http://www.w3.org/1999/xlink">
    <title>Icn / Health &amp; Safety / Carbon Monoxide Alarm</title>
    <g id="Icn-/-Health-&amp;-Safety-/-Carbon-Monoxide-Alarm" stroke="none" stroke-width="1" fill="none" fill-rule="evenodd">
        <g id="alarm-warning-line" transform="translate(6.000000, 6.000000)" fill="#13284C">
            <path d="M2,18 L2,12 C2,7.581722 5.581722,4 10,4 C14.418278,4 18,7.581722 18,12 L18,18 L19,18 L19,20 L1,20 L1,18 L2,18 Z M4,18 L16,18 L16,12 C16,8.6862915 13.3137085,6 10,6 C6.6862915,6 4,8.6862915 4,12 L4,18 Z M9,0 L11,0 L11,3 L9,3 L9,0 Z M17.778,2.808 L19.192,4.222 L17.072,6.343 L15.657,4.929 L17.778,2.808 Z M0.808,4.222 L2.222,2.808 L4.343,4.928 L2.93,6.344 L0.808,4.222 Z M5,12 C5,9.23857625 7.23857625,7 10,7 L10,9 C8.34314575,9 7,10.3431458 7,12 L5,12 Z" id="Shape"></path>
        </g>
    </g>
</svg>