<?xml version="1.0" encoding="UTF-8"?>
<svg width="32px" height="32px" viewBox="0 0 32 32" version="1.1" xmlns="http://www.w3.org/2000/svg" xmlns:xlink="http://www.w3.org/1999/xlink">
    <title>Icn / Health &amp; Safety / Security Camera - Recording Device</title>
    <g id="Icn-/-Health-&amp;-Safety-/-Security-Camera---Recording-Device" stroke="none" stroke-width="1" fill="none" fill-rule="evenodd">
        <g id="vidicon-line" transform="translate(5.000000, 8.000000)" fill="#13284C">
            <path d="M16,5.2 L21.213,1.55 C21.3657981,1.44289164 21.5655248,1.42978036 21.7310137,1.51599443 C21.8965027,1.60220849 22,1.7734004 22,1.96 L22,14.04 C22,14.2265996 21.8965027,14.3977915 21.7310137,14.4840056 C21.5655248,14.5702196 21.3657981,14.5571084 21.213,14.45 L16,10.8 L16,15 C16,15.5522847 15.5522847,16 15,16 L1,16 C0.44771525,16 0,15.5522847 0,15 L0,1 C0,0.44771525 0.44771525,0 1,0 L15,0 C15.5522847,0 16,0.44771525 16,1 L16,5.2 Z M16,8.359 L20,11.159 L20,4.84 L16,7.64 L16,8.358 L16,8.359 Z M2,2 L2,14 L14,14 L14,2 L2,2 Z M4,4 L6,4 L6,6 L4,6 L4,4 Z" id="Shape"></path>
        </g>
    </g>
</svg>