<?xml version="1.0" encoding="UTF-8"?>
<svg width="32px" height="32px" viewBox="0 0 32 32" version="1.1" xmlns="http://www.w3.org/2000/svg" xmlns:xlink="http://www.w3.org/1999/xlink">
    <title>Icn / Health &amp; Safety / Fire Extinguisher</title>
    <g id="Icn-/-Health-&amp;-Safety-/-Fire-Extinguisher" stroke="none" stroke-width="1" fill="none" fill-rule="evenodd">
        <g id="icons8-fire-extinguisher" transform="translate(8.000000, 6.000000)" fill="#13284C">
            <path d="M7,0 L7,1 C3.6666667,1 1.7247257,2.8142205 0.8554688,4.5527344 C-0.0137883,6.2912483 -1.30367196e-05,8 -1.30367196e-05,8 L2,8 C2,8 2.0137882,6.7087517 2.6445312,5.4472656 C3.2752744,4.1857795 4.3333333,3 7,3 L7,3.4941406 C6.6825473,3.7342945 6.2635078,4.0724296 5.7929688,4.5429688 C4.9644012,5.3715362 4,6.5 4,8 L4,18 C4,19.093063 4.9069372,20 6,20 L12,20 C13.093063,20 14,19.093063 14,18 L14,8 C14,6.5 13.035599,5.3715362 12.207031,4.5429688 C11.736492,4.0724296 11.317453,3.7342945 11,3.4941406 L11,3 L16,4 L16,0 L11,1 L11,0 L7,0 Z M8.353516,5 L9.646484,5 C9.805321,5.1107503 10.221773,5.3858353 10.792969,5.9570312 C11.464401,6.6284638 12,7.5 12,8 L12,18 L6,18 L6,8 C6,7.5 6.5355989,6.6284638 7.207031,5.9570312 C7.778227,5.3858353 8.194679,5.1107503 8.353516,5 Z M8,10 L8,16 L10,16 L10,10 L8,10 Z" id="Shape"></path>
        </g>
    </g>
</svg>