<?xml version="1.0" encoding="UTF-8"?>
<svg width="32px" height="32px" viewBox="0 0 32 32" version="1.1" xmlns="http://www.w3.org/2000/svg" xmlns:xlink="http://www.w3.org/1999/xlink">
    <title>Icn / Health &amp; Safety / First Aid Kit</title>
    <g id="Icn-/-Health-&amp;-Safety-/-First-Aid-Kit" stroke="none" stroke-width="1" fill="none" fill-rule="evenodd">
        <g id="first-aid-kit-line" transform="translate(6.000000, 5.000000)" fill="#13284C">
            <path d="M14,0 C14.552,0 15,0.448 15,1 L15,4 L19,4 C19.552,4 20,4.448 20,5 L20,19 C20,19.552 19.552,20 19,20 L1,20 C0.448,20 0,19.552 0,19 L0,5 C0,4.448 0.448,4 1,4 L5,4 L5,1 C5,0.448 5.448,0 6,0 L14,0 Z M18,6 L2,6 L2,18 L18,18 L18,6 Z M11,8 L11,11 L14,11 L14,13 L10.999,13 L11,16 L9,16 L8.999,13 L6,13 L6,11 L9,11 L9,8 L11,8 Z M13,2 L7,2 L7,4 L13,4 L13,2 Z" id="Shape"></path>
        </g>
    </g>
</svg>