<?xml version="1.0" encoding="UTF-8"?>
<svg width="32px" height="32px" viewBox="0 0 32 32" version="1.1" xmlns="http://www.w3.org/2000/svg" xmlns:xlink="http://www.w3.org/1999/xlink">
    <title>Icn / Health &amp; Safety / Smoke Alarm</title>
    <g id="Icn-/-Health-&amp;-Safety-/-Smoke-Alarm" stroke="none" stroke-width="1" fill="none" fill-rule="evenodd">
        <g id="icons8-smoke-detector" transform="translate(6.000000, 7.000000)" fill="#13284C">
            <path d="M0,0 L0,4 C0,5.6449698 1.3550302,7 3,7 L3.21875,7 L4.21875,11 L15.78125,11 L16.78125,7 L17,7 C18.64497,7 20,5.6449698 20,4 L20,0 L0,0 Z M2,2 L5,2 L5,3 L7,3 L7,2 L9,2 L9,3 L11,3 L11,2 L13,2 L13,3 L15,3 L15,2 L18,2 L18,4 C18,4.5650302 17.56503,5 17,5 L16,5 L3,5 C2.4349698,5 2,4.5650302 2,4 L2,2 Z M5.28125,7 L14.71875,7 L14.21875,9 L5.78125,9 L5.28125,7 Z M5,13 L5,17 L7,17 L7,13 L5,13 Z M9,13 L9,19 L11,19 L11,13 L9,13 Z M13,13 L13,17 L15,17 L15,13 L13,13 Z" id="Shape"></path>
        </g>
    </g>
</svg>