<?xml version="1.0" encoding="UTF-8"?>
<svg width="32px" height="32px" viewBox="0 0 32 32" version="1.1" xmlns="http://www.w3.org/2000/svg" xmlns:xlink="http://www.w3.org/1999/xlink">
    <title>Icn / Health &amp; Safety / Social-Distancing</title>
    <g id="Icn-/-Health-&amp;-Safety-/-Social-Distancing" stroke="none" stroke-width="1" fill="none" fill-rule="evenodd">
        <g id="hand-sanitizer-line" transform="translate(7.000000, 6.000000)" fill="#13284C">
            <path d="M14,0 L14,2 L10,1.999 L10,4 L13,4 L13,6 C15.21,6 17,7.79 17,10 L17,18 C17,19.105 16.105,20 15,20 L3,20 C1.895,20 1,19.105 1,18 L1,10 C1,7.79 2.79,6 5,6 L5,4 L8,4 L8,1.999 L4.5,2 C3.87,2 3.13,2.49 2.3,3.6 L0.7,2.4 C1.87,0.84 3.13,0 4.5,0 L14,0 Z M13,8 L5,8 C3.895,8 3,8.895 3,10 L3,18 L15,18 L15,10 C15,8.895 14.105,8 13,8 Z M10,10 L10,12 L12,12 L12,14 L9.999,14 L10,16 L8,16 L7.999,14 L6,14 L6,12 L8,12 L8,10 L10,10 Z" id="Shape"></path>
        </g>
    </g>
</svg>