<?xml version="1.0" encoding="UTF-8"?>
<svg width="32px" height="32px" viewBox="0 0 32 32" version="1.1" xmlns="http://www.w3.org/2000/svg" xmlns:xlink="http://www.w3.org/1999/xlink">
    <title>Icn / Inside Height / High Top</title>
    <g id="Icn-/-Inside-Height-/-High-Top" stroke="none" stroke-width="1" fill="none" fill-rule="evenodd">
        <g id="Group" transform="translate(0.000000, 8.000000)">
            <path d="M18.724921,0.00151464207 L1.88134074,-2.66453526e-15 C1.2589498,0.0712968475 0.830456781,0.80445349 0.541534811,2.11797202 L0.462736599,2.50898478 L0.391252513,2.93115946 L0.326800976,3.38407365 L0.269100409,3.86730494 L0.217869237,4.38043093 L0.17282588,4.92302921 L0.133688762,5.49467738 L0.0854413307,6.40569415 L0.0598379073,7.04811901 L0.0305711242,8.06332079 L0.0167415363,8.7738823 L0.00381561183,9.88930903 L-2.48689958e-14,10.6653672 L0.00266233159,11.7870488 L0.0204993493,13.0666423 L0.0286203075,13.3980015 L3.67635646,14.378087 L3.79141474,14.3932748 L30.7990945,14.3932748 L30.9318518,14.2378681 C31.3853461,13.707004 31.6780426,13.1173979 31.8317019,12.472247 C32.0138595,11.7074438 32.0024859,11.0068283 31.8552725,10.0094502 L31.7446847,9.32432238 L31.6811858,9.15772944 C31.3170692,8.58535169 30.8221326,8.1092059 30.2313588,7.71913112 C29.783478,7.42340545 29.3064242,7.19359106 28.8294324,7.02058144 L28.690572,6.97174293 L28.446389,6.89388033 L28.2523153,6.84102517 C28.2245049,6.83420582 28.199052,6.82835785 28.1760914,6.82344598 L27.4850481,6.81541801 L26.8476175,6.16959213 C26.2631973,5.57992954 25.658277,4.9765877 25.0647879,4.39412524 L24.2111095,3.56377339 L23.3110825,2.70921073 L22.7247243,2.17037218 C22.6640237,2.11561689 22.6048391,2.06260317 22.5472031,2.01136739 L22.2202321,1.72557894 C22.1689212,1.68160038 22.1192242,1.63947249 22.0711736,1.59923163 L21.802889,1.38072169 C21.1062243,0.832186936 20.4198732,0.459319377 19.7670924,0.23235026 C19.3339262,0.0817402161 18.979128,0.0152134923 18.724921,0.00151464207 Z M1.93266434,0.883853096 L18.7010375,0.88770823 C19.2742033,0.919237449 20.1857618,1.2361825 21.2542586,2.07748763 L21.3770514,2.17597426 L21.6538829,2.40814148 C21.7034131,2.45066193 21.7546123,2.49506716 21.8074407,2.54131491 L22.3257978,3.00615143 L22.9256327,3.5636371 L23.3675829,3.98338487 L24.0887913,4.68007086 L24.4441676,5.02761401 C24.8373221,5.41346452 25.2359759,5.80898546 25.6304262,6.20370481 L26.9791503,7.56675842 L27.1096477,7.70047113 L28.0833316,7.70047113 L28.1832191,7.73763916 L28.4249814,7.81811638 C28.4575718,7.82940126 28.4917126,7.84145661 28.5270447,7.85427191 C28.9424133,8.00493018 29.35772,8.20499877 29.7427089,8.45919834 L29.9484118,8.60257442 C30.2821107,8.84819671 30.5694725,9.12722957 30.8008743,9.44116978 L30.8860481,9.56541801 L30.9319337,9.84442334 C31.1054286,10.9028746 31.1349563,11.5699825 30.968998,12.2667718 L30.9101589,12.4828721 C30.8008801,12.8381231 30.6349716,13.169 30.4040076,13.4786081 L30.3810481,13.506418 L3.85004812,13.506418 L0.900048122,12.714418 L0.88947492,11.7808906 L0.886834467,10.666175 L0.894462706,9.66446952 L0.911918865,8.68947621 L0.938815468,7.74662538 L0.974765041,6.84134736 L1.01938011,5.97907245 L1.0537463,5.43079477 L1.1119428,4.65225908 L1.15500451,4.16483561 L1.22570612,3.48512334 L1.27674579,3.06861021 L1.33077574,2.68327695 L1.38768116,2.33073252 L1.44734723,2.01258591 L1.50965915,1.73044611 C1.52025858,1.68651276 1.53096347,1.64414674 1.54177143,1.60338156 L1.60783687,1.3782688 C1.70873285,1.07021936 1.81758989,0.897268652 1.93266434,0.883853096 Z" id="Stroke-3" fill="#13284C" fill-rule="nonzero"></path>
            <path d="M6.32650204,15.2134799 C5.42289003,15.2134799 4.68785077,14.4784406 4.68785077,13.5748286 C4.68785077,12.6712905 5.42289003,11.9361035 6.32650204,11.9361035 C7.23011405,11.9361035 7.96515331,12.6712905 7.96515331,13.5748286 C7.96515331,14.4784406 7.23011405,15.2134799 6.32650204,15.2134799" id="Fill-5" fill="#FFFFFF"></path>
            <path d="M6.32650204,11.4927815 C5.17657132,11.4927815 4.24443275,12.4249201 4.24443275,13.5748508 C4.24443275,14.7247076 5.17657132,15.6569201 6.32650204,15.6569201 C7.47643275,15.6569201 8.40857132,14.7247076 8.40857132,13.5748508 C8.40857132,12.4249201 7.47643275,11.4927815 6.32650204,11.4927815 M6.32650204,12.3796176 C6.98556901,12.3796176 7.52173529,12.9157838 7.52173529,13.5748508 C7.52173529,14.2339178 6.98556901,14.7700841 6.32650204,14.7700841 C5.66743506,14.7700841 5.13126878,14.2339178 5.13126878,13.5748508 C5.13126878,12.9157838 5.66743506,12.3796176 6.32650204,12.3796176" id="Fill-7" fill="#13284C"></path>
            <path d="M6.32650204,10.7537515 C4.77091774,10.7537515 3.50540273,12.0192665 3.50540273,13.5748508 C3.50540273,15.1304351 4.77091774,16.3959501 6.32650204,16.3959501 C7.88208633,16.3959501 9.14760135,15.1304351 9.14760135,13.5748508 C9.14760135,12.0192665 7.88208633,10.7537515 6.32650204,10.7537515 M6.32650204,11.4927815 C7.47643275,11.4927815 8.40857132,12.4249201 8.40857132,13.5748508 C8.40857132,14.7247076 7.47643275,15.6569201 6.32650204,15.6569201 C5.17657132,15.6569201 4.24443275,14.7247076 4.24443275,13.5748508 C4.24443275,12.4249201 5.17657132,11.4927815 6.32650204,11.4927815" id="Fill-9" fill="#13284C"></path>
            <path d="M26.4262415,15.2134799 C25.5226295,15.2134799 24.7875903,14.4784406 24.7875903,13.5748286 C24.7875903,12.6712905 25.5226295,11.9361035 26.4262415,11.9361035 C27.3298535,11.9361035 28.0648928,12.6712905 28.0648928,13.5748286 C28.0648928,14.4784406 27.3298535,15.2134799 26.4262415,15.2134799" id="Fill-12" fill="#FFFFFF"></path>
            <path d="M26.4262415,11.4927815 C25.2763108,11.4927815 24.3441722,12.4249201 24.3441722,13.5748508 C24.3441722,14.7247076 25.2763108,15.6569201 26.4262415,15.6569201 C27.5761722,15.6569201 28.5083108,14.7247076 28.5083108,13.5748508 C28.5083108,12.4249201 27.5761722,11.4927815 26.4262415,11.4927815 M26.4262415,12.3796176 C27.0853085,12.3796176 27.6214748,12.9157838 27.6214748,13.5748508 C27.6214748,14.2339178 27.0853085,14.7700841 26.4262415,14.7700841 C25.7671746,14.7700841 25.2310083,14.2339178 25.2310083,13.5748508 C25.2310083,12.9157838 25.7671746,12.3796176 26.4262415,12.3796176" id="Fill-14" fill="#13284C"></path>
            <path d="M26.4262415,10.7537515 C24.8706572,10.7537515 23.6051422,12.0192665 23.6051422,13.5748508 C23.6051422,15.1304351 24.8706572,16.3959501 26.4262415,16.3959501 C27.9818258,16.3959501 29.2473408,15.1304351 29.2473408,13.5748508 C29.2473408,12.0192665 27.9818258,10.7537515 26.4262415,10.7537515 M26.4262415,11.4927815 C27.5761722,11.4927815 28.5083108,12.4249201 28.5083108,13.5748508 C28.5083108,14.7247076 27.5761722,15.6569201 26.4262415,15.6569201 C25.2763108,15.6569201 24.3441722,14.7247076 24.3441722,13.5748508 C24.3441722,12.4249201 25.2763108,11.4927815 26.4262415,11.4927815" id="Fill-16" fill="#13284C"></path>
            <polygon id="Stroke-19" fill="#13284C" fill-rule="nonzero" points="18.5634249 0.564264203 18.5634249 13.9498716 17.9722009 13.9498716 17.9722009 0.564264203"></polygon>
            <polygon id="Stroke-21" fill="#13284C" fill-rule="nonzero" points="9.75413529 0.564264203 9.75413529 13.9498716 9.16291128 13.9498716 9.16291128 0.564264203"></polygon>
            <path d="M22.0294054,3.42534681 L19.2040936,3.13313434 C19.029733,3.11510081 18.8780697,3.25188714 18.8780697,3.42717783 L18.8930878,3.62157555 L19.2799912,7.34364275 C19.2942613,7.47761442 19.3973129,7.58498846 19.5305856,7.60474805 L26.3095602,8.60982889 C26.5873345,8.65101294 26.7606413,8.31806134 26.5675643,8.1141595 L22.2136428,3.5161364 L22.0294054,3.42534681 Z M19.4990481,3.75741801 L21.8600481,4.00241801 L25.5490481,7.89941801 L19.8440481,7.05341801 L19.4990481,3.75741801 Z" id="Stroke-23" fill="#13284C" fill-rule="nonzero"></path>
            <path d="M18.254794,3.16516212 L2.15118195,3.16516212 C1.98791994,3.16516212 1.85556994,3.29751213 1.85556994,3.46077413 L1.85556994,7.47503741 C1.85556994,7.63829942 1.98791994,7.77064942 2.15118195,7.77064942 L18.254794,7.77064942 C18.418056,7.77064942 18.550406,7.63829942 18.550406,7.47503741 L18.550406,3.46077413 C18.550406,3.29751213 18.418056,3.16516212 18.254794,3.16516212 Z M17.9590481,3.75541801 L17.9590481,7.17941801 L2.44604812,7.17941801 L2.44604812,3.75541801 L17.9590481,3.75541801 Z" id="Stroke-25" fill="#13284C" fill-rule="nonzero"></path>
            <polygon id="Stroke-27" fill="#13284C" fill-rule="nonzero" points="14.7341113 3.46077413 14.7341113 7.50866328 14.1428873 7.50866328 14.1428873 3.46077413"></polygon>
            <polygon id="Stroke-28" fill="#13284C" fill-rule="nonzero" points="24.0145212 5.42231297 24.5597775 7.9463222 23.9818843 8.07116324 23.436628 5.54715401"></polygon>
            <path d="M30.9885621,8.6176739 C31.1518241,8.6176739 31.2841741,8.75002391 31.2841741,8.91328591 C31.2841741,9.05322477 31.1869374,9.17045278 31.0563432,9.2010906 L30.9885621,9.20889792 L29.4070481,9.20841801 L29.9300481,10.142418 L31.4658277,10.1428841 C31.6057665,10.1428841 31.7229945,10.2401208 31.7536324,10.370715 L31.7614397,10.4384961 C31.7614397,10.5784349 31.6642029,10.6956629 31.5336088,10.7263008 L31.4658277,10.7341081 L29.7561556,10.7341081 C29.6704971,10.7341081 29.5901955,10.6970525 29.5347493,10.6343792 L29.4981297,10.5827496 L28.6454368,9.0575394 C28.5475151,8.88238691 28.6491785,8.67106858 28.8315307,8.62627132 L28.9034628,8.6176739 L30.9885621,8.6176739 Z" id="Stroke-29" fill="#13284C" fill-rule="nonzero"></path>
            <line x1="0.809110814" y1="11.9023344" x2="23.4116789" y2="11.9023344" id="Fill-30" fill="#FFFFFF"></line>
            <polygon id="Stroke-31" fill="#13284C" fill-rule="nonzero" points="23.4116789 11.4589164 23.4116789 12.3457524 0.809110814 12.3457524 0.809110814 11.4589164"></polygon>
            <polygon id="Stroke-33" fill="#13284C" fill-rule="nonzero" points="18.2547718 2.02416351 18.2547718 2.61538753 0.950383793 2.61538753 0.950383793 2.02416351"></polygon>
        </g>
    </g>
</svg>