<?xml version="1.0" encoding="UTF-8"?>
<svg width="24px" height="24px" viewBox="0 0 24 24" version="1.1" xmlns="http://www.w3.org/2000/svg" xmlns:xlink="http://www.w3.org/1999/xlink">
    <title>Icn / Custom / Like - Green</title>
    <g id="Icn-/-Custom-/-Like---Green" stroke="none" stroke-width="1" fill="none" fill-rule="evenodd">
        <path d="M9,9 L9,18 L10.1525987,18.3841996 C11.3761964,18.7920655 12.6575468,19 13.9473319,19 L17.5405883,19 C18.9706314,19 20.2018758,17.990621 20.4823303,16.5883484 L21.231529,12.8423552 C21.5564648,11.217676 20.5028146,9.63720064 18.8781353,9.31226479 C18.6189212,9.26042196 18.353992,9.2430672 18.0902299,9.26065134 L14.5,9.5 L14.5,9.5 L14.8641964,5.49383981 C14.9326895,4.74041495 14.3774427,4.07411874 13.6240179,4.00562558 C13.5827848,4.00187712 13.5414031,4 13.5,4 C12.5694044,4 11.7070439,4.48826024 11.2282564,5.28623939 L9,9 L9,9 Z" id="Path-42" fill="#36C697"></path>
        <rect id="Rectangle-153" fill="#CFF8EB" x="2" y="8" width="5" height="11" rx="1"></rect>
    </g>
</svg>