<?xml version="1.0" encoding="UTF-8"?>
<svg width="32px" height="32px" viewBox="0 0 32 32" version="1.1" xmlns="http://www.w3.org/2000/svg" xmlns:xlink="http://www.w3.org/1999/xlink">
    <title>Icn / Inside Height / Low Top</title>
    <g id="Icn-/-Inside-Height-/-Low-Top" stroke="none" stroke-width="1" fill="none" fill-rule="evenodd">
        <g id="Group" transform="translate(0.000000, 9.000000)" fill="#13284C">
            <path d="M30.5059023,11.2081303 L29.7727166,11.3760521 L29.5801954,11.3760521 C29.5272443,9.75207818 28.1930423,8.44643648 26.5563518,8.44643648 C24.9197655,8.44643648 23.5855635,9.75207818 23.5327166,11.3760521 L21.0520391,11.3760521 L21.0520391,5.38621498 L27.7369121,5.38621498 L27.7663062,5.4076873 C28.912886,6.24218893 30.244899,7.35499674 30.5059023,7.76109446 L30.5059023,10.5124691 L30.5059023,11.2081303 Z M28.1912704,11.4752834 C28.1912704,12.3767036 27.4578762,13.1100977 26.5563518,13.1100977 C25.6549316,13.1100977 24.9216417,12.3767036 24.9216417,11.4752834 C24.9216417,10.573759 25.6549316,9.84046906 26.5563518,9.84046906 C27.4578762,9.84046906 28.1912704,10.573759 28.1912704,11.4752834 L28.1912704,11.4752834 Z M8.65532248,11.4752834 C8.65532248,12.3767036 7.92203257,13.1100977 7.02061238,13.1100977 C6.11908795,13.1100977 5.38579805,12.3767036 5.38579805,11.4752834 C5.38579805,10.573759 6.11908795,9.84046906 7.02061238,9.84046906 C7.92203257,9.84046906 8.65532248,10.573759 8.65532248,11.4752834 L8.65532248,11.4752834 Z M1.42457329,4.95614332 L2.53925733,1.39392834 L11.350202,1.39392834 L11.350202,6.25219544 L2.91325081,6.25219544 L2.91325081,7.02665798 L11.350202,7.02665798 L11.350202,11.3760521 L10.0443518,11.3760521 C9.99140065,9.75207818 8.6571987,8.44643648 7.02061238,8.44643648 C5.41727687,8.44643648 4.10454723,9.69954397 4.00187622,11.277342 L1.39934853,10.9855896 L1.42457329,4.95614332 Z M12.1245603,4.61185668 L12.1245603,1.44291857 L16.2010684,1.44291857 L20.2775765,1.44291857 L20.2775765,4.61185668 L12.1245603,4.61185668 Z M12.1245603,11.3760521 L20.2775765,11.3760521 L20.2775765,5.38621498 L12.1245603,5.38621498 L12.1245603,11.3760521 Z M27.0426059,4.61185668 L21.0520391,4.61185668 L21.0520391,1.39392834 L24.2064886,1.39392834 L27.0426059,4.61185668 Z M28.6488599,4.3260456 L24.8360651,4.35207426e-14 L7.73691205,4.35207426e-14 L2.39927036,4.35207426e-14 L1.51484039,4.35207426e-14 L0.0315830619,4.74016938 L-8.52651283e-14,12.2312964 L4.25704235,12.7086906 C4.73047557,13.7651075 5.78991531,14.5040261 7.02061238,14.5040261 C8.22827362,14.5040261 9.27030619,13.7916873 9.75624756,12.766645 L23.8219674,12.7691466 C24.30843,13.7928339 25.3495244,14.5040261 26.5563518,14.5040261 C27.7628664,14.5040261 28.8037524,13.7932508 29.2904235,12.7699805 L29.9304235,12.7700847 L31.8998306,12.3185407 L31.8998306,11.7633876 L31.8998306,10.5124691 L31.8998306,7.65467101 C31.8998306,7.36854723 31.8998306,6.70092508 28.6488599,4.3260456 L28.6488599,4.3260456 Z" id="Fill-1"></path>
            <polygon id="Fill-4" points="18.5970033 7.0266684 19.5811857 7.0266684 19.5811857 6.25220586 18.5970033 6.25220586"></polygon>
            <polygon id="Fill-6" points="21.7513485 7.0266684 22.7356352 7.0266684 22.7356352 6.25220586 21.7513485 6.25220586"></polygon>
        </g>
    </g>
</svg>