<?xml version="1.0" encoding="UTF-8"?>
<svg width="32px" height="32px" viewBox="0 0 32 32" version="1.1" xmlns="http://www.w3.org/2000/svg" xmlns:xlink="http://www.w3.org/1999/xlink">
    <title>Icn / Inside Height / Pop Top</title>
    <g id="Icn-/-Inside-Height-/-Pop-Top" stroke="none" stroke-width="1" fill="none" fill-rule="evenodd">
        <g id="Group" transform="translate(0.000000, 6.000000)" fill="#13284C">
            <path d="M30.5059023,16.8108969 L29.7728208,16.9788188 L29.5801954,16.9788188 C29.5272443,15.3548448 28.1930423,14.0492031 26.5563518,14.0492031 C24.9197655,14.0492031 23.5856678,15.3548448 23.5328208,16.9788188 L21.0521433,16.9788188 L21.0521433,10.9889816 L27.7370163,10.9889816 L27.7663062,11.0104539 C28.912886,11.8449556 30.244899,12.9577634 30.5059023,13.3638611 L30.5059023,16.1152357 L30.5059023,16.8108969 Z M28.1913746,17.0779458 C28.1913746,17.979366 27.4578762,18.7128644 26.5563518,18.7128644 C25.6549316,18.7128644 24.9216417,17.979366 24.9216417,17.0779458 C24.9216417,16.1765256 25.6549316,15.4432357 26.5563518,15.4432357 C27.4578762,15.4432357 28.1913746,16.1765256 28.1913746,17.0779458 L28.1913746,17.0779458 Z M8.65532248,17.0779458 C8.65532248,17.979366 7.92203257,18.7128644 7.02061238,18.7128644 C6.11908795,18.7128644 5.38579805,17.979366 5.38579805,17.0779458 C5.38579805,16.1765256 6.11908795,15.4432357 7.02061238,15.4432357 C7.92203257,15.4432357 8.65532248,16.1765256 8.65532248,17.0779458 L8.65532248,17.0779458 Z M1.42467752,10.55891 L2.53925733,6.99669499 L11.350202,6.99669499 L11.350202,11.8549621 L2.91325081,11.8549621 L2.91325081,12.6294246 L11.350202,12.6294246 L11.350202,16.9788188 L10.0443518,16.9788188 C9.99140065,15.3548448 8.6571987,14.0492031 7.02061238,14.0492031 C5.41738111,14.0492031 4.10465147,15.3023106 4.00187622,16.8801087 L1.39945277,16.5883562 L1.42467752,10.55891 Z M12.1245603,10.2146233 L12.1245603,7.04568522 L16.2011726,7.04568522 L20.2776808,7.04568522 L20.2776808,10.2146233 L12.1245603,10.2146233 Z M12.1245603,16.9788188 L20.2776808,16.9788188 L20.2776808,10.9889816 L12.1245603,10.9889816 L12.1245603,16.9788188 Z M27.0427101,10.2146233 L21.0521433,10.2146233 L21.0521433,6.99669499 L24.2065928,6.99669499 L27.0427101,10.2146233 Z M28.6488599,9.92881225 L24.8360651,5.60276665 L7.73701629,5.60276665 L21.8563127,1.78277968 L21.8563127,4.64672756 L22.630671,4.64672756 L22.630671,1.57316404 L23.3823062,1.36980248 C23.7539023,1.26942463 23.9737329,0.886675446 23.8731466,0.515079354 C23.7725603,0.143587498 23.3900195,-0.0761388867 23.0183192,0.024343198 L2.39927036,5.60276665 L1.51484039,5.60276665 L0.0315830619,10.342936 L2.30926389e-14,17.8340631 L4.25714658,18.3114572 C4.73047557,19.3679784 5.78991531,20.1067927 7.02061238,20.1067927 C8.22837785,20.1067927 9.27030619,19.3944539 9.75635179,18.3695158 L23.8220717,18.3719132 C24.30843,19.3956005 25.3495244,20.1067927 26.5563518,20.1067927 C27.7628664,20.1067927 28.8037524,19.3960175 29.2905277,18.3727471 L29.9305277,18.3729556 L31.8998306,17.9214116 L31.8998306,17.3662585 L31.8998306,16.1152357 L31.8998306,13.2574377 C31.8998306,12.9713139 31.8998306,12.3036917 28.6488599,9.92881225 L28.6488599,9.92881225 Z" id="Fill-1"></path>
            <polygon id="Fill-4" points="18.5971075 12.6293829 19.5811857 12.6293829 19.5811857 11.8549204 18.5971075 11.8549204"></polygon>
            <polygon id="Fill-6" points="21.7514528 12.6293829 22.7357394 12.6293829 22.7357394 11.8549204 21.7514528 11.8549204"></polygon>
        </g>
    </g>
</svg>