<?xml version="1.0" encoding="UTF-8"?>
<svg width="32px" height="32px" viewBox="0 0 32 32" version="1.1" xmlns="http://www.w3.org/2000/svg" xmlns:xlink="http://www.w3.org/1999/xlink">
    <g id="Icn-/-Inside-Height-/-Roof-Top-Tent" stroke="none" stroke-width="1" fill="none" fill-rule="evenodd">
        <g id="Group" transform="translate(0.000000, 2.000000)">
            <path d="M19.26428,13.046902 C17.2322128,13.1495377 15.3996164,13.3454457 13.8113634,13.6475187 L13.1885408,13.7736458 L9.738,16.904 L3.34171586,17.3515787 L3.16581359,17.3920722 L2.91989201,17.4967909 L2.80714082,17.5472902 C2.54204674,17.6674951 2.27663708,17.7986434 2.02647409,17.9375276 C1.60273249,18.1727783 1.26429835,18.4060448 1.02969838,18.6484892 C0.921049385,18.7607711 0.833281541,18.8764761 0.768960274,19.0005325 C0.273611529,19.9559114 -0.0723460443,21.3673662 0.0132151845,22.6725443 L0.0306314317,22.9382173 L0.542958495,23.3178648 L1.23623766,23.8049363 L1.59382029,24.0490014 L2.83639622,24.873657 L2.9800913,24.9667475 L28.9255753,24.9667475 L29.1875266,24.8284957 L29.4866075,24.6590312 C29.8086597,24.4713787 30.1309606,24.2672206 30.4340461,24.0521564 C30.9087809,23.7152929 31.293635,23.3825315 31.5626794,23.0508517 C31.767367,22.7985115 31.9062431,22.5458505 31.964,22.2817078 L31.9773683,22.1579873 L31.9773683,17.3604489 L31.9685034,17.2595021 L31.2766573,13.3507666 L30.3450349,13.2659315 L29.5548891,13.2055396 L28.8496329,13.1579871 C28.7272385,13.1502077 28.6024774,13.1425158 28.4754382,13.1349327 C25.4105906,12.9519904 22.2357204,12.8968204 19.26428,13.046902 Z M28.4064173,14.2912456 L29.4718939,14.3609336 L30.289,14.423 L30.818,17.41 L30.818,22.078 L30.7957506,22.1266441 C30.7672343,22.181012 30.7232445,22.2469242 30.6630604,22.3211195 C30.4724607,22.5560921 30.1600709,22.8261978 29.7637021,23.1074541 C29.4916062,23.3005286 29.1976413,23.4867375 28.9034277,23.6581691 L28.638,23.808 L3.323,23.808 L2.97487409,23.5792135 L2.244107,23.0903812 L1.73775878,22.7435169 L1.38357457,22.4950504 L1.158,22.333 L1.16305198,22.0491583 C1.19984441,21.1274861 1.46108,20.1822361 1.79732389,19.5337227 L1.80942095,19.5149929 L1.86214682,19.4540033 C2.00005133,19.3114877 2.25644087,19.1347706 2.58873416,18.9502897 C2.7353565,18.8688886 2.89012624,18.7894282 3.04770529,18.713445 L3.515,18.5 L10.2190227,18.0319576 L13.733,14.844 L13.5805102,14.874944 C15.2069774,14.5331128 17.1432776,14.3138773 19.3227125,14.2037983 C22.2458151,14.0561582 25.3805655,14.110631 28.4064173,14.2912456 Z" id="Stroke-1" fill="#13284C" fill-rule="nonzero"></path>
            <path d="M7.29368326,23.9277611 C7.29368326,24.8385303 6.55536652,25.5768471 5.64459729,25.5768471 C4.73382805,25.5768471 3.99565611,24.8385303 3.99565611,23.9277611 C3.99565611,23.0169919 4.73382805,22.2786751 5.64459729,22.2786751 C6.55536652,22.2786751 7.29368326,23.0169919 7.29368326,23.9277611" id="Fill-3" fill="#FFFFFF"></path>
            <path d="M5.64459729,21.844286 C4.49393738,21.844286 3.56126697,22.7770695 3.56126697,23.9277611 C3.56126697,25.0784526 4.49393738,26.0112362 5.64459729,26.0112362 C6.79527301,26.0112362 7.7280724,25.0784368 7.7280724,23.9277611 C7.7280724,22.7770854 6.79527301,21.844286 5.64459729,21.844286 Z M5.64459729,22.7130643 C6.31546002,22.7130643 6.85929412,23.2568984 6.85929412,23.9277611 C6.85929412,24.5986238 6.31546002,25.1424579 5.64459729,25.1424579 C4.97377397,25.1424579 4.43004525,24.5986632 4.43004525,23.9277611 C4.43004525,23.2568589 4.97377397,22.7130643 5.64459729,22.7130643 Z" id="Stroke-5" fill="#13284C" fill-rule="nonzero"></path>
            <g id="Group-9" transform="translate(2.751131, 21.088145)" fill="#13284C">
                <path d="M2.89352398,0.0322027149 C1.34550588,0.0322027149 0.0860669683,1.29164163 0.0860669683,2.83965973 C0.0860669683,4.38767783 1.34550588,5.64711674 2.89352398,5.64711674 C4.44139729,5.64711674 5.700981,4.38767783 5.700981,2.83965973 C5.700981,1.29164163 4.44139729,0.0322027149 2.89352398,0.0322027149 M2.89352398,1.19057376 C3.80429321,1.19057376 4.54260995,1.9288905 4.54260995,2.83965973 C4.54260995,3.75042896 3.80429321,4.4887457 2.89352398,4.4887457 C1.98275475,4.4887457 1.24443801,3.75042896 1.24443801,2.83965973 C1.24443801,1.9288905 1.98275475,1.19057376 2.89352398,1.19057376" id="Fill-7"></path>
            </g>
            <path d="M28.144362,23.9277611 C28.144362,24.8385303 27.4060452,25.5768471 26.495276,25.5768471 C25.5845068,25.5768471 24.8463348,24.8385303 24.8463348,23.9277611 C24.8463348,23.0169919 25.5845068,22.2786751 26.495276,22.2786751 C27.4060452,22.2786751 28.144362,23.0169919 28.144362,23.9277611" id="Fill-10" fill="#FFFFFF"></path>
            <path d="M26.495276,21.844286 C25.3446161,21.844286 24.4119457,22.7770695 24.4119457,23.9277611 C24.4119457,25.0784526 25.3446161,26.0112362 26.495276,26.0112362 C27.6459517,26.0112362 28.5787511,25.0784368 28.5787511,23.9277611 C28.5787511,22.7770854 27.6459517,21.844286 26.495276,21.844286 Z M26.495276,22.7130643 C27.1661388,22.7130643 27.7099729,23.2568984 27.7099729,23.9277611 C27.7099729,24.5986238 27.1661388,25.1424579 26.495276,25.1424579 C25.8244527,25.1424579 25.280724,24.5986632 25.280724,23.9277611 C25.280724,23.2568589 25.8244527,22.7130643 26.495276,22.7130643 Z" id="Stroke-12" fill="#13284C" fill-rule="nonzero"></path>
            <g id="Group-16" transform="translate(23.601810, 21.088145)" fill="#13284C">
                <path d="M2.89352398,0.0322027149 C1.34550588,0.0322027149 0.0860669683,1.29164163 0.0860669683,2.83965973 C0.0860669683,4.38767783 1.34550588,5.64711674 2.89352398,5.64711674 C4.44139729,5.64711674 5.700981,4.38767783 5.700981,2.83965973 C5.700981,1.29164163 4.44139729,0.0322027149 2.89352398,0.0322027149 M2.89352398,1.19057376 C3.80429321,1.19057376 4.54260995,1.9288905 4.54260995,2.83965973 C4.54260995,3.75042896 3.80429321,4.4887457 2.89352398,4.4887457 C1.98275475,4.4887457 1.24443801,3.75042896 1.24443801,2.83965973 C1.24443801,1.9288905 1.98275475,1.19057376 2.89352398,1.19057376" id="Fill-14"></path>
            </g>
            <polygon id="Stroke-17" fill="#13284C" fill-rule="nonzero" points="31.3982262 17.106143 31.3982262 17.8301249 9.97849774 17.8301249 9.97849774 17.106143"></polygon>
            <polygon id="Stroke-19" fill="#13284C" fill-rule="nonzero" points="18.4089339 13.7028633 18.4089339 24.3876778 17.684952 24.3876778 17.684952 13.7028633"></polygon>
            <polygon id="Stroke-21" fill="#13284C" fill-rule="nonzero" points="26.2245502 13.5408796 26.2245502 21.8742009 25.5005683 21.8742009 25.5005683 13.5408796"></polygon>
            <polygon id="Stroke-23" fill="#13284C" fill-rule="nonzero" points="10.3404887 17.4681339 10.3404887 24.3876633 9.61650679 24.3876633 9.61650679 17.4681339"></polygon>
            <polygon id="Fill-25" fill="#13284C" points="8.45509502 20.3742986 9.97849774 20.3742986 9.97849774 17.6001448 8.45509502 17.6001448"></polygon>
            <polygon id="Stroke-27" fill="#13284C" fill-rule="nonzero" points="24.846248 22.5033412 24.846248 23.2273231 7.87075475 23.2273231 7.87075475 22.5033412"></polygon>
            <path d="M26.091601,0.0320616605 L25.9696282,0.0550778363 L14.7839324,10.3337425 L14.709521,10.4233186 C14.6916698,10.4518716 14.6706485,10.4902373 14.6498198,10.5376485 C14.6232845,10.5980495 14.6029287,10.6603385 14.5916622,10.7279378 C14.5214643,11.1491248 14.8400714,11.4168579 15.2731041,11.371483 L15.3869195,11.3521423 L15.4369514,11.3302222 L15.575214,11.2471608 L15.7963106,11.0953799 L16.4554687,10.6101089 L18.7193342,8.87923229 L23.4362764,5.23430384 L27.697221,1.92955777 L27.714565,1.69653275 C27.7242417,1.47018973 27.7036184,1.20743578 27.6246763,0.944479254 C27.4232274,0.273451908 26.8971323,-0.119941581 26.091601,0.0320616605 Z M26.4442633,0.867891562 C26.6368485,0.874839332 26.7282942,0.980125648 26.7925857,1.19428089 L26.8213836,1.31264224 L26.8391547,1.43300419 L26.843,1.492 L20.6021583,6.32827812 L19.511,7.169 L26.366,0.87 L26.4442633,0.867891562 Z" id="Stroke-28" fill="#13284C" fill-rule="nonzero"></path>
            <polygon id="Stroke-29" fill="#13284C" fill-rule="nonzero" points="26.4829653 1.77914098 27.2893714 1.45589975 31.1965485 11.2033303 15.017209 11.2033303 15.017209 10.334552 29.912 10.334"></polygon>
            <path d="M23.88659,5.006581 L27.2484571,5.006581 L29.52678,10.6051632 L28.7220815,10.9326323 L26.663,5.875 L24.201,5.875 L24.1784748,5.9222115 C24.0486193,6.19866066 23.9763,6.65850677 24.0076749,7.34078956 L24.022037,7.5765091 L24.0587331,8.05406172 L24.1729216,9.41497573 L24.2975773,10.723461 L23.4335648,10.8143345 L23.3465946,9.92099353 L23.268788,9.04878619 L23.1926344,8.12224576 C23.1801721,7.96381668 23.1678477,7.80351529 23.1556958,7.64153737 C23.0841981,6.68950407 23.177521,6.00971759 23.3921272,5.55284307 C23.4915473,5.34118786 23.6071781,5.19710304 23.7188224,5.11071424 L23.7851691,5.06572549 L23.88659,5.006581 Z" id="Stroke-30" fill="#13284C" fill-rule="nonzero"></path>
            <polygon id="Stroke-31" fill="#13284C" fill-rule="nonzero" points="31.0618353 11.5286443 31.0618353 12.3974226 15.9886769 12.3974226 15.9886769 11.5286443"></polygon>
            <polygon id="Stroke-32" fill="#13284C" fill-rule="nonzero" points="18.0665087 10.7031849 18.9252886 10.8346105 18.476275 13.7686196 17.6174951 13.637194"></polygon>
            <polygon id="Stroke-33" fill="#13284C" fill-rule="nonzero" points="29.3987619 10.600948 30.6288071 13.5349571 29.827591 13.8708565 28.5975458 10.9368475"></polygon>
            <polygon id="Stroke-34" fill="#13284C" fill-rule="nonzero" points="25.6066451 10.8414773 26.284437 13.5991243 25.4407684 13.8064865 24.7629766 11.0488395"></polygon>
        </g>
    </g>
</svg>
