<?xml version="1.0" encoding="UTF-8"?>
<svg width="32px" height="32px" viewBox="0 0 32 32" version="1.1" xmlns="http://www.w3.org/2000/svg" xmlns:xlink="http://www.w3.org/1999/xlink">
    <title>Icn / Amenity / Bathroom / Indoor Shower</title>
    <g id="Icn-/-Amenity-/-Bathroom-/-Indoor-Shower" stroke="none" stroke-width="1" fill="none" fill-rule="evenodd">
        <g id="Group" transform="translate(7.000000, 3.000000)" fill="#13284C">
            <path d="M13.768,24.69125 C10.664,25.20125 7.516,25.20125 4.413,24.69125 L0.534,24.05425 L0.534,22.08625 L4.326,22.70925 C4.502,22.73725 4.678,22.75925 4.854,22.78425 C4.889,22.80025 4.926,22.81125 4.966,22.81125 C4.977,22.81125 4.986,22.80625 4.996,22.80525 C6.356,22.99625 7.723,23.09825 9.09,23.09825 C10.457,23.09825 11.825,22.99625 13.185,22.80525 C13.195,22.80625 13.204,22.81125 13.214,22.81125 C13.254,22.81125 13.291,22.80025 13.326,22.78425 C13.502,22.75925 13.678,22.73725 13.855,22.70925 L17.647,22.08625 L17.647,24.05425 L13.768,24.69125 Z M4.412,0.91625 C7.516,0.40625 10.664,0.40625 13.768,0.91625 L17.647,1.55325 L17.647,2.51525 L13.855,1.89225 C10.694,1.37325 7.487,1.37325 4.326,1.89225 L0.534,2.51525 L0.534,1.55325 L4.412,0.91625 Z M13.481,2.37825 C13.577,2.39325 13.672,2.40325 13.768,2.41925 L17.647,3.05725 L17.647,21.54525 L13.768,22.18225 C13.672,22.19725 13.577,22.20825 13.481,22.22325 L13.481,2.37825 Z M9.087,3.77425 C9.676,3.77425 10.169,4.18925 10.291,4.74125 L7.883,4.74125 C8.005,4.18925 8.499,3.77425 9.087,3.77425 L9.087,3.77425 Z M4.412,22.18225 L0.534,21.54525 L0.534,3.05725 L4.412,2.41925 C4.508,2.40325 4.603,2.39325 4.7,2.37825 L4.7,22.22325 C4.603,22.20825 4.508,22.19725 4.412,22.18225 L4.412,22.18225 Z M5.233,22.29925 L5.233,2.30125 C6.426,2.14025 7.624,2.05325 8.823,2.04225 L8.823,3.26725 C7.975,3.39625 7.32,4.12425 7.32,5.00825 C7.32,5.15525 7.44,5.27425 7.587,5.27425 L10.587,5.27425 C10.735,5.27425 10.855,5.15525 10.855,5.00825 C10.855,4.12625 10.203,3.39925 9.357,3.26825 L9.357,2.04225 C10.556,2.05325 11.754,2.14025 12.948,2.30125 L12.948,22.29925 C10.384,22.64625 7.797,22.64625 5.233,22.29925 L5.233,22.29925 Z M17.956,1.06325 L13.855,0.38925 C10.694,-0.12975 7.487,-0.12975 4.326,0.38925 L0.224,1.06325 C0.095,1.08425 3.19744231e-14,1.19525 3.19744231e-14,1.32625 L3.19744231e-14,24.28025 C3.19744231e-14,24.41125 0.095,24.52225 0.224,24.54425 L4.326,25.21825 C5.907,25.47825 7.498,25.60725 9.09,25.60725 C10.682,25.60725 12.274,25.47825 13.855,25.21825 L17.956,24.54425 C18.085,24.52225 18.18,24.41125 18.18,24.28025 L18.18,1.32625 C18.18,1.19525 18.085,1.08425 17.956,1.06325 L17.956,1.06325 Z" id="Fill-1"></path>
            <path d="M10.1342,6.03455 C9.9872,6.03455 9.8662,6.15355 9.8662,6.30155 L9.8662,6.76755 C9.8662,6.91455 9.9872,7.03455 10.1342,7.03455 C10.2812,7.03455 10.4012,6.91455 10.4012,6.76755 L10.4012,6.30155 C10.4012,6.15355 10.2812,6.03455 10.1342,6.03455" id="Fill-4"></path>
            <path d="M10.1342,7.38315 C9.9872,7.38315 9.8662,7.50315 9.8662,7.65015 L9.8662,8.11615 C9.8662,8.26315 9.9872,8.38315 10.1342,8.38315 C10.2812,8.38315 10.4012,8.26315 10.4012,8.11615 L10.4012,7.65015 C10.4012,7.50315 10.2812,7.38315 10.1342,7.38315" id="Fill-6"></path>
            <path d="M10.1342,8.73175 C9.9872,8.73175 9.8662,8.85175 9.8662,8.99875 L9.8662,9.46475 C9.8662,9.61275 9.9872,9.73175 10.1342,9.73175 C10.2812,9.73175 10.4012,9.61275 10.4012,9.46475 L10.4012,8.99875 C10.4012,8.85175 10.2812,8.73175 10.1342,8.73175" id="Fill-8"></path>
            <path d="M9.0903,6.03455 C8.9433,6.03455 8.8233,6.15355 8.8233,6.30155 L8.8233,6.76755 C8.8233,6.91455 8.9433,7.03455 9.0903,7.03455 C9.2373,7.03455 9.3573,6.91455 9.3573,6.76755 L9.3573,6.30155 C9.3573,6.15355 9.2373,6.03455 9.0903,6.03455" id="Fill-10"></path>
            <path d="M9.0903,7.38315 C8.9433,7.38315 8.8233,7.50315 8.8233,7.65015 L8.8233,8.11615 C8.8233,8.26315 8.9433,8.38315 9.0903,8.38315 C9.2373,8.38315 9.3573,8.26315 9.3573,8.11615 L9.3573,7.65015 C9.3573,7.50315 9.2373,7.38315 9.0903,7.38315" id="Fill-12"></path>
            <path d="M9.0903,8.73175 C8.9433,8.73175 8.8233,8.85175 8.8233,8.99875 L8.8233,9.46475 C8.8233,9.61275 8.9433,9.73175 9.0903,9.73175 C9.2373,9.73175 9.3573,9.61275 9.3573,9.46475 L9.3573,8.99875 C9.3573,8.85175 9.2373,8.73175 9.0903,8.73175" id="Fill-14"></path>
            <path d="M8.0463,6.03455 C7.8993,6.03455 7.7793,6.15355 7.7793,6.30155 L7.7793,6.76755 C7.7793,6.91455 7.8993,7.03455 8.0463,7.03455 C8.1933,7.03455 8.3133,6.91455 8.3133,6.76755 L8.3133,6.30155 C8.3133,6.15355 8.1933,6.03455 8.0463,6.03455" id="Fill-16"></path>
            <path d="M8.0463,7.38315 C7.8993,7.38315 7.7793,7.50315 7.7793,7.65015 L7.7793,8.11615 C7.7793,8.26315 7.8993,8.38315 8.0463,8.38315 C8.1933,8.38315 8.3133,8.26315 8.3133,8.11615 L8.3133,7.65015 C8.3133,7.50315 8.1933,7.38315 8.0463,7.38315" id="Fill-18"></path>
            <path d="M8.0463,8.73175 C7.8993,8.73175 7.7793,8.85175 7.7793,8.99875 L7.7793,9.46475 C7.7793,9.61275 7.8993,9.73175 8.0463,9.73175 C8.1933,9.73175 8.3133,9.61275 8.3133,9.46475 L8.3133,8.99875 C8.3133,8.85175 8.1933,8.73175 8.0463,8.73175" id="Fill-20"></path>
            <path d="M3.6103,11.31335 C3.4633,11.31335 3.3433,11.43335 3.3433,11.58035 L3.3433,14.02635 C3.3433,14.17335 3.4633,14.29335 3.6103,14.29335 C3.7573,14.29335 3.8773,14.17335 3.8773,14.02635 L3.8773,11.58035 C3.8773,11.43335 3.7573,11.31335 3.6103,11.31335" id="Fill-22"></path>
            <path d="M14.5698,14.29335 C14.7168,14.29335 14.8378,14.17335 14.8378,14.02635 L14.8378,11.58035 C14.8378,11.43335 14.7168,11.31335 14.5698,11.31335 C14.4238,11.31335 14.3028,11.43335 14.3028,11.58035 L14.3028,14.02635 C14.3028,14.17335 14.4238,14.29335 14.5698,14.29335" id="Fill-24"></path>
            <path d="M1.5458,4.62385 L2.1328,4.03685 C2.2368,3.93285 2.2368,3.76385 2.1328,3.65885 C2.0278,3.55485 1.8588,3.55585 1.7548,3.65985 L1.1688,4.24685 C1.0648,4.35185 1.0648,4.51985 1.1688,4.62385 C1.2208,4.67685 1.2888,4.70185 1.3578,4.70185 C1.4258,4.70185 1.4938,4.67585 1.5458,4.62385" id="Fill-26"></path>
            <path d="M3.4799,3.86365 C3.3759,3.75965 3.2069,3.76065 3.1029,3.86365 L1.3729,5.59365 C1.2689,5.69765 1.2689,5.86765 1.3729,5.97165 C1.4249,6.02365 1.4929,6.04965 1.5619,6.04965 C1.6299,6.04965 1.6979,6.02365 1.7509,5.97165 L3.4799,4.24165 C3.5839,4.13665 3.5839,3.96765 3.4799,3.86365" id="Fill-28"></path>
        </g>
    </g>
</svg>