<?xml version="1.0" encoding="UTF-8"?>
<svg width="32px" height="32px" viewBox="0 0 32 32" version="1.1" xmlns="http://www.w3.org/2000/svg" xmlns:xlink="http://www.w3.org/1999/xlink">
    <title>Icn / Amenity / Bathroom / Outdoor Shower</title>
    <g id="Icn-/-Amenity-/-Bathroom-/-Outdoor-Shower" stroke="none" stroke-width="1" fill="none" fill-rule="evenodd">
        <g id="Group" transform="translate(6.000000, 6.000000)" fill="#13284C">
            <path d="M2.5039,19.7739 C2.3379,19.7739 2.2039,19.6399 2.2039,19.4739 C2.2039,19.3089 2.3379,19.1739 2.5039,19.1739 C2.9619,19.1739 3.3349,18.8019 3.3349,18.3439 C3.3349,18.1779 3.4689,18.0439 3.6339,18.0439 C3.7999,18.0439 3.9349,18.1779 3.9349,18.3439 C3.9349,19.1319 3.2929,19.7739 2.5039,19.7739" id="Fill-1"></path>
            <path d="M2.5044,15.0048 C2.3294,15.2848 2.0834,15.6898 1.8364,16.1298 C0.9994,17.6228 0.8744,18.2218 0.8744,18.4458 C0.8744,19.0398 1.1974,19.5878 1.7194,19.8748 C1.9584,20.0068 2.2304,20.0758 2.5044,20.0758 C3.4024,20.0758 4.1344,19.3448 4.1344,18.4458 C4.1344,17.7528 3.1174,15.9838 2.5044,15.0048 M2.5044,20.6758 C2.1294,20.6758 1.7574,20.5808 1.4304,20.4008 C0.7164,20.0078 0.2744,19.2588 0.2744,18.4458 C0.2744,17.9368 0.6134,17.0828 1.3134,15.8368 C1.7834,14.9988 2.2484,14.2898 2.2534,14.2818 C2.3644,14.1138 2.6434,14.1138 2.7544,14.2818 C2.9574,14.5898 4.7334,17.3228 4.7334,18.4458 C4.7334,19.6758 3.7334,20.6758 2.5044,20.6758" id="Fill-3"></path>
            <path d="M7.5972,19.7739 C7.4312,19.7739 7.2972,19.6399 7.2972,19.4739 C7.2972,19.3089 7.4312,19.1739 7.5972,19.1739 C8.0552,19.1739 8.4282,18.8019 8.4282,18.3439 C8.4282,18.1779 8.5622,18.0439 8.7272,18.0439 C8.8932,18.0439 9.0282,18.1779 9.0282,18.3439 C9.0282,19.1319 8.3862,19.7739 7.5972,19.7739" id="Fill-5"></path>
            <path d="M7.5976,15.0048 C7.4226,15.2848 7.1766,15.6898 6.9296,16.1298 C6.0926,17.6228 5.9676,18.2218 5.9676,18.4458 C5.9676,19.0398 6.2906,19.5878 6.8126,19.8748 C7.0516,20.0068 7.3236,20.0758 7.5976,20.0758 C8.4956,20.0758 9.2266,19.3448 9.2266,18.4458 C9.2266,17.7528 8.2106,15.9838 7.5976,15.0048 M7.5976,20.6758 C7.2226,20.6758 6.8506,20.5808 6.5226,20.4008 C5.8096,20.0078 5.3676,19.2588 5.3676,18.4458 C5.3676,17.9368 5.7066,17.0828 6.4066,15.8368 C6.8766,14.9988 7.3416,14.2898 7.3466,14.2818 C7.4576,14.1138 7.7366,14.1138 7.8476,14.2818 C8.0506,14.5898 9.8266,17.3228 9.8266,18.4458 C9.8266,19.6758 8.8266,20.6758 7.5976,20.6758" id="Fill-7"></path>
            <path d="M12.6899,19.7739 C12.5249,19.7739 12.3899,19.6399 12.3899,19.4739 C12.3899,19.3089 12.5249,19.1739 12.6899,19.1739 C13.1479,19.1739 13.5209,18.8019 13.5209,18.3439 C13.5209,18.1779 13.6549,18.0439 13.8209,18.0439 C13.9869,18.0439 14.1209,18.1779 14.1209,18.3439 C14.1209,19.1319 13.4789,19.7739 12.6899,19.7739" id="Fill-9"></path>
            <path d="M12.6909,15.0048 C12.5159,15.2848 12.2699,15.6898 12.0229,16.1298 C11.1849,17.6228 11.0599,18.2218 11.0599,18.4458 C11.0599,19.0398 11.3839,19.5878 11.9059,19.8748 C12.1449,20.0068 12.4169,20.0758 12.6899,20.0758 C13.5889,20.0758 14.3209,19.3448 14.3209,18.4458 C14.3209,17.7528 13.3029,15.9838 12.6909,15.0048 M12.6899,20.6758 C12.3149,20.6758 11.9439,20.5808 11.6159,20.4008 C10.9029,20.0078 10.4599,19.2588 10.4599,18.4458 C10.4599,17.9368 10.7999,17.0828 11.4999,15.8368 C11.9689,14.9988 12.4349,14.2898 12.4399,14.2818 C12.5499,14.1138 12.8299,14.1138 12.9409,14.2818 C13.1429,14.5898 14.9199,17.3228 14.9199,18.4458 C14.9199,19.6758 13.9199,20.6758 12.6899,20.6758" id="Fill-11"></path>
            <path d="M17.7837,19.7739 C17.6177,19.7739 17.4827,19.6399 17.4827,19.4739 C17.4827,19.3089 17.6177,19.1739 17.7837,19.1739 C18.2407,19.1739 18.6137,18.8019 18.6137,18.3439 C18.6137,18.1779 18.7487,18.0439 18.9137,18.0439 C19.0797,18.0439 19.2137,18.1779 19.2137,18.3439 C19.2137,19.1319 18.5717,19.7739 17.7837,19.7739" id="Fill-13"></path>
            <path d="M17.7837,15.0048 C17.6087,15.2848 17.3627,15.6898 17.1157,16.1298 C16.2777,17.6228 16.1527,18.2218 16.1527,18.4458 C16.1527,19.0398 16.4767,19.5878 16.9987,19.8748 C17.2377,20.0068 17.5097,20.0758 17.7837,20.0758 C18.6817,20.0758 19.4137,19.3448 19.4137,18.4458 C19.4137,17.7528 18.3967,15.9838 17.7837,15.0048 M17.7837,20.6758 C17.4087,20.6758 17.0377,20.5808 16.7097,20.4008 C15.9967,20.0078 15.5537,19.2588 15.5537,18.4458 C15.5537,17.9368 15.8927,17.0828 16.5927,15.8368 C17.0627,14.9988 17.5277,14.2898 17.5327,14.2818 C17.6427,14.1138 17.9227,14.1138 18.0337,14.2818 C18.2367,14.5898 20.0127,17.3228 20.0127,18.4458 C20.0127,19.6758 19.0127,20.6758 17.7837,20.6758" id="Fill-15"></path>
            <g id="Group-19" transform="translate(0.000000, 9.676200)">
                <path d="M1.6196,1.3945 C1.0576,1.3945 0.5996,1.8525 0.5996,2.4145 C0.5996,2.9765 1.0576,3.4335 1.6196,3.4335 L18.8296,3.4335 C19.3906,3.4335 19.8486,2.9765 19.8486,2.4145 C19.8486,1.8525 19.3906,1.3945 18.8296,1.3945 L1.6196,1.3945 Z M18.8296,4.0335 L1.6196,4.0335 C0.7266,4.0335 -0.0004,3.3075 -0.0004,2.4145 C-0.0004,1.5205 0.7266,0.7945 1.6196,0.7945 L18.8296,0.7945 C19.7226,0.7945 20.4486,1.5205 20.4486,2.4145 C20.4486,3.3075 19.7226,4.0335 18.8296,4.0335 L18.8296,4.0335 Z" id="Fill-17"></path>
            </g>
            <path d="M2.3882,10.4033 L18.0602,10.4033 C17.9032,7.0953 15.1622,4.4523 11.8162,4.4523 L8.6332,4.4523 C5.2862,4.4523 2.5452,7.0953 2.3882,10.4033 M18.3672,11.0033 L2.0812,11.0033 C1.9152,11.0033 1.7812,10.8693 1.7812,10.7033 C1.7812,6.9253 4.8552,3.8523 8.6332,3.8523 L11.8162,3.8523 C15.5942,3.8523 18.6672,6.9253 18.6672,10.7033 C18.6672,10.8693 18.5332,11.0033 18.3672,11.0033" id="Fill-20"></path>
            <path d="M9.028,3.8522 L11.516,3.8522 L11.516,0.6002 L9.028,0.6002 L9.028,3.8522 Z M11.816,4.4522 L8.728,4.4522 C8.562,4.4522 8.428,4.3182 8.428,4.1522 L8.428,0.3002 C8.428,0.1342 8.562,0.0002 8.728,0.0002 L11.816,0.0002 C11.982,0.0002 12.116,0.1342 12.116,0.3002 L12.116,4.1522 C12.116,4.3182 11.982,4.4522 11.816,4.4522 L11.816,4.4522 Z" id="Fill-22"></path>
        </g>
    </g>
</svg>