<?xml version="1.0" encoding="UTF-8"?>
<svg width="32px" height="32px" viewBox="0 0 32 32" version="1.1" xmlns="http://www.w3.org/2000/svg" xmlns:xlink="http://www.w3.org/1999/xlink">
    <title>Icn / Amenity / Bathroom / Toilet (Full Use)</title>
    <g id="Icn-/-Amenity-/-Bathroom-/-Toilet-(Full-Use)" stroke="none" stroke-width="1" fill="none" fill-rule="evenodd">
        <g id="Group" transform="translate(7.000000, 3.000000)" fill="#13284C">
            <path d="M17.062,12.904 C17.044,12.905 17.027,12.907 17.009,12.911 L1.011,12.911 C0.996,12.907 0.976,12.905 0.958,12.904 C0.724,12.895 0.533,12.692 0.533,12.451 C0.533,12.206 0.744,11.998 0.994,11.998 L3.525,11.998 L14.496,11.998 L17.029,11.998 C17.277,11.998 17.488,12.206 17.488,12.451 C17.488,12.692 17.296,12.895 17.062,12.904 M12.65,19.394 C11.539,19.975 10.279,20.282 9.011,20.282 C8.689,20.282 8.373,20.264 8.06,20.227 C7.123,20.114 6.224,19.835 5.378,19.394 C3.091,18.193 1.564,15.985 1.246,13.446 L16.775,13.446 C16.457,15.98 14.933,18.188 12.65,19.394 M2.347,1.991 L15.673,1.991 C15.562,4.424 15.152,10.034 14.349,11.464 L3.673,11.464 C2.871,10.034 2.458,4.424 2.347,1.991 M1.394,0.994 C1.394,0.739 1.601,0.533 1.855,0.533 L16.167,0.533 C16.421,0.533 16.628,0.739 16.628,0.994 C16.628,1.248 16.421,1.454 16.167,1.454 L1.855,1.454 C1.601,1.454 1.394,1.248 1.394,0.994 M18.023,12.451 C18.023,11.907 17.576,11.464 17.029,11.464 L14.937,11.464 C15.824,9.377 16.146,3.307 16.207,1.984 C16.738,1.963 17.162,1.529 17.162,0.994 C17.162,0.446 16.716,1.77635684e-15 16.167,1.77635684e-15 L1.855,1.77635684e-15 C1.306,1.77635684e-15 0.861,0.446 0.861,0.994 C0.861,1.529 1.285,1.962 1.814,1.984 C1.874,3.306 2.199,9.377 3.085,11.464 L0.994,11.464 C0.445,11.464 6.92779167e-14,11.907 6.92779167e-14,12.451 C6.92779167e-14,12.894 0.306,13.262 0.712,13.382 C1.007,16.08 2.578,18.437 4.957,19.759 C4.556,21.711 4.429,25.049 4.423,25.195 C4.421,25.267 4.447,25.337 4.498,25.39 C4.548,25.442 4.617,25.471 4.691,25.471 L9.298,25.471 C9.447,25.471 9.566,25.352 9.566,25.204 C9.566,25.057 9.447,24.937 9.298,24.937 L4.968,24.937 C5.007,24.112 5.142,21.625 5.447,20.023 C5.562,20.077 5.681,20.117 5.798,20.166 C5.921,20.218 6.044,20.271 6.169,20.317 C6.353,20.383 6.541,20.437 6.728,20.489 C6.847,20.525 6.968,20.564 7.089,20.592 C7.298,20.641 7.511,20.674 7.722,20.707 C7.828,20.723 7.931,20.747 8.039,20.759 C8.359,20.796 8.683,20.817 9.011,20.817 C9.335,20.817 9.66,20.795 9.98,20.758 C10.087,20.745 10.193,20.722 10.3,20.704 C10.513,20.672 10.724,20.638 10.933,20.589 C11.058,20.56 11.181,20.521 11.304,20.486 C11.492,20.433 11.677,20.379 11.859,20.314 C11.988,20.268 12.113,20.214 12.238,20.161 C12.353,20.114 12.47,20.075 12.582,20.023 C12.88,21.625 13.019,24.111 13.06,24.937 L11.568,24.937 C11.419,24.937 11.3,25.057 11.3,25.204 C11.3,25.352 11.419,25.471 11.568,25.471 L13.339,25.471 C13.412,25.471 13.48,25.441 13.531,25.389 C13.582,25.337 13.607,25.267 13.605,25.194 C13.599,25.048 13.466,21.71 13.072,19.76 C15.447,18.431 17.013,16.075 17.31,13.384 C17.72,13.265 18.023,12.902 18.023,12.451" id="Fill-1"></path>
            <path d="M13.1772,4.7082 C12.8842,4.7082 12.6222,4.5312 12.5112,4.2562 L12.4452,4.0902 L10.5422,4.0902 C10.4862,4.0902 10.4392,4.0432 10.4392,3.9872 C10.4392,3.9322 10.4862,3.8852 10.5422,3.8852 L12.4452,3.8852 L12.5112,3.7192 C12.6222,3.4442 12.8842,3.2672 13.1772,3.2672 C13.5752,3.2672 13.8982,3.5902 13.8982,3.9872 C13.8982,4.3852 13.5752,4.7082 13.1772,4.7082 M13.1772,2.7332 C12.7282,2.7332 12.3222,2.9712 12.0992,3.3522 L10.5422,3.3522 C10.1912,3.3522 9.9062,3.6372 9.9062,3.9872 C9.9062,4.3382 10.1912,4.6242 10.5422,4.6242 L12.0992,4.6242 C12.3222,5.0042 12.7282,5.2422 13.1772,5.2422 C13.8682,5.2422 14.4312,4.6792 14.4312,3.9872 C14.4312,3.2962 13.8682,2.7332 13.1772,2.7332" id="Fill-4"></path>
        </g>
    </g>
</svg>