<?xml version="1.0" encoding="UTF-8"?>
<svg width="32px" height="32px" viewBox="0 0 32 32" version="1.1" xmlns="http://www.w3.org/2000/svg" xmlns:xlink="http://www.w3.org/1999/xlink">
    <title>Icn / Amenity / Bathroom / Toilet (Urine Only)</title>
    <g id="Icn-/-Amenity-/-Bathroom-/-Toilet-(Urine-Only)" stroke="none" stroke-width="1" fill="none" fill-rule="evenodd">
        <g id="Group" transform="translate(6.000000, 8.000000)" fill="#13284C">
            <path d="M19.289,1.631 C19.271,1.632 19.252,1.634 19.234,1.639 L1.107,1.639 C1.09,1.634 1.07,1.632 1.051,1.631 C0.766,1.62 0.535,1.374 0.535,1.082 C0.535,0.78 0.785,0.534 1.092,0.534 L19.25,0.534 C19.557,0.534 19.807,0.78 19.807,1.082 C19.807,1.374 19.574,1.62 19.289,1.631 M14.309,8.975 C13.045,9.636 11.613,9.987 10.17,9.987 C9.807,9.987 9.445,9.965 9.09,9.923 C8.025,9.796 7.002,9.478 6.041,8.975 C3.43,7.604 1.687,5.077 1.338,2.173 L19.004,2.173 C18.654,5.072 16.916,7.598 14.309,8.975 M20.34,1.082 C20.34,0.485 19.851,-4.17443857e-14 19.25,-4.17443857e-14 L1.092,-4.17443857e-14 C0.49,-4.17443857e-14 -4.08562073e-14,0.485 -4.08562073e-14,1.082 C-4.08562073e-14,1.589 0.34,2.013 0.807,2.132 C1.143,5.185 2.922,7.851 5.617,9.341 C5.162,11.545 5.018,15.349 5.012,15.515 C5.008,15.588 5.035,15.657 5.086,15.711 C5.137,15.762 5.205,15.792 5.277,15.792 L10.496,15.792 C10.644,15.792 10.764,15.672 10.764,15.525 C10.764,15.378 10.644,15.257 10.496,15.257 L5.557,15.257 C5.598,14.354 5.752,11.445 6.107,9.605 C6.234,9.665 6.367,9.709 6.496,9.762 C6.654,9.829 6.81,9.898 6.973,9.956 C7.115,10.006 7.262,10.047 7.406,10.09 C7.629,10.158 7.851,10.226 8.078,10.277 C8.1,10.282 8.123,10.285 8.144,10.289 C8.809,10.435 9.486,10.52 10.17,10.52 C10.857,10.52 11.539,10.435 12.205,10.289 C12.228,10.284 12.252,10.281 12.275,10.276 C12.5,10.225 12.717,10.159 12.937,10.091 C13.084,10.048 13.232,10.006 13.379,9.956 C13.539,9.898 13.693,9.83 13.852,9.763 C13.98,9.71 14.115,9.666 14.24,9.605 C14.59,11.445 14.75,14.353 14.793,15.257 L13.066,15.257 C12.918,15.257 12.799,15.378 12.799,15.525 C12.799,15.672 12.918,15.792 13.066,15.792 L15.072,15.792 C15.144,15.792 15.213,15.761 15.264,15.71 C15.314,15.657 15.342,15.588 15.338,15.514 C15.332,15.348 15.18,11.545 14.73,9.341 C17.424,7.845 19.199,5.18 19.533,2.132 C20,2.013 20.34,1.589 20.34,1.082" id="Fill-1"></path>
            <path d="M13.2285,7.3566 C13.2695,7.3566 13.3125,7.3466 13.3515,7.3266 C14.3025,6.8306 15.1305,6.1576 15.8145,5.3236 C15.9065,5.2106 15.8905,5.0416 15.7775,4.9486 C15.6645,4.8556 15.4965,4.8726 15.4005,4.9856 C14.7655,5.7626 13.9925,6.3906 13.1055,6.8526 C12.9745,6.9206 12.9235,7.0826 12.9925,7.2126 C13.0395,7.3046 13.1325,7.3566 13.2285,7.3566" id="Fill-4"></path>
        </g>
    </g>
</svg>