<?xml version="1.0" encoding="UTF-8"?>
<svg width="32px" height="32px" viewBox="0 0 32 32" version="1.1" xmlns="http://www.w3.org/2000/svg" xmlns:xlink="http://www.w3.org/1999/xlink">
    <title>Icn / Amenity / Kitchen / Cooking Utensils</title>
    <g id="Icn-/-Amenity-/-Kitchen-/-Cooking-Utensils" stroke="none" stroke-width="1" fill="none" fill-rule="evenodd">
        <g id="Group" transform="translate(4.000000, 4.000000)" fill="#13284C">
            <path d="M9.228,6.9693 C9.228,7.0513 9.197,7.0993 9.182,7.1123 L8.082,7.1123 C8.068,7.1023 8.035,7.0533 8.035,6.9693 L8.035,1.3663 C8.035,1.2783 8.072,1.2293 8.073,1.2243 L9.179,1.2213 C9.191,1.2293 9.228,1.2783 9.228,1.3663 L9.228,6.9693 Z M8.765,17.4253 C8.757,17.4843 8.748,17.5433 8.738,17.6013 C8.389,19.6173 6.649,21.0813 4.601,21.0813 C2.497,21.0813 0.707,19.5103 0.437,17.4253 L0.432,17.3843 L0.428,17.3783 C0.417,17.2803 0.406,16.9633 0.401,16.6993 C0.401,16.6623 0.453,16.6203 0.523,16.6203 L8.004,16.6203 L8.679,16.6203 C8.749,16.6203 8.801,16.6623 8.801,16.6993 C8.796,16.9653 8.785,17.2803 8.774,17.3783 L8.765,17.4253 Z M8.405,7.5123 L8.801,7.5123 L8.801,16.2343 C8.799,16.2333 8.796,16.2333 8.793,16.2333 C8.756,16.2253 8.718,16.2203 8.679,16.2203 L8.405,16.2203 L8.405,7.5123 Z M9.19,0.8243 L8.073,0.8243 C7.827,0.8243 7.635,1.0623 7.635,1.3663 L7.635,6.9693 C7.635,7.2453 7.793,7.4643 8.004,7.5043 L8.004,16.2203 L0.523,16.2203 C0.235,16.2203 7.81597009e-14,16.4353 7.81597009e-14,16.7033 C0.012,17.2403 0.025,17.4173 0.042,17.4933 C0.345,19.7673 2.302,21.4813 4.601,21.4813 C6.845,21.4813 8.839,19.8913 9.132,17.6693 C9.286,16.5083 9.202,7.5113 9.202,7.5113 C9.441,7.5043 9.628,7.2693 9.628,6.9693 L9.628,1.3663 C9.628,1.0623 9.436,0.8243 9.19,0.8243 L9.19,0.8243 Z" id="Fill-2"></path>
            <path d="M12.8154,6.2183 L12.8044,6.2183 C12.6754,6.2183 12.5694,6.1173 12.5644,5.9873 L12.3784,1.6403 C12.3734,1.5073 12.4764,1.3943 12.6204,1.3883 C12.7504,1.3883 12.8564,1.4893 12.8614,1.6193 L13.0464,5.9673 C13.0524,6.0993 12.9484,6.2133 12.8154,6.2183 M12.6204,0.9883 L12.5924,0.9893 C12.2394,1.0033 11.9644,1.3033 11.9794,1.6573 L12.1644,6.0053 C12.1794,6.3493 12.4604,6.6183 12.8044,6.6183 L12.8324,6.6183 C13.0034,6.6113 13.1614,6.5373 13.2774,6.4113 C13.3934,6.2853 13.4534,6.1213 13.4454,5.9493 L13.2614,1.6023 C13.2464,1.2583 12.9654,0.9883 12.6204,0.9883" id="Fill-3"></path>
            <path d="M16.1206,5.9873 C16.1146,6.1173 16.0096,6.2183 15.8796,6.2183 L15.8686,6.2183 C15.8046,6.2163 15.7446,6.1883 15.7016,6.1403 C15.6576,6.0923 15.6356,6.0313 15.6386,5.9663 L15.8236,1.6193 C15.8286,1.4903 15.9336,1.3883 16.0746,1.3883 C16.2076,1.3943 16.3106,1.5073 16.3066,1.6403 L16.1206,5.9873 Z M16.0916,0.9883 L16.0636,0.9883 C15.7196,0.9883 15.4376,1.2583 15.4236,1.6023 L15.2386,5.9503 C15.2306,6.1213 15.2906,6.2853 15.4066,6.4113 C15.5226,6.5373 15.6816,6.6113 15.8516,6.6183 L15.8796,6.6183 C16.2246,6.6183 16.5056,6.3493 16.5196,6.0053 L16.7056,1.6573 C16.7206,1.3033 16.4446,1.0043 16.0916,0.9883 L16.0916,0.9883 Z" id="Fill-4"></path>
            <path d="M14.5913,5.9795 C14.5913,6.1125 14.4833,6.2205 14.3493,6.2205 C14.2163,6.2205 14.1083,6.1125 14.1083,5.9795 L14.1123,1.6275 C14.1123,1.4945 14.2203,1.3865 14.3543,1.3865 C14.4873,1.3865 14.5953,1.4945 14.5953,1.6275 L14.5913,5.9795 Z M14.3543,0.9865 C14.0003,0.9865 13.7123,1.2735 13.7123,1.6265 L13.7083,5.9785 C13.7083,6.3325 13.9953,6.6205 14.3493,6.6205 C14.7023,6.6205 14.9903,6.3335 14.9913,5.9795 L14.9943,1.6275 C14.9943,1.2745 14.7073,0.9865 14.3543,0.9865 L14.3543,0.9865 Z" id="Fill-5"></path>
            <path d="M16.7104,7.231 C16.7104,7.396 16.5864,7.529 16.4334,7.529 L14.6844,7.529 L14.6844,16.008 L13.9324,16.008 L13.9324,7.529 L12.1874,7.529 C12.0344,7.529 11.9104,7.396 11.9094,7.217 L11.4434,0.698 C11.4434,0.534 11.5674,0.4 11.7204,0.4 L16.8964,0.4 C17.0484,0.4 17.1724,0.534 17.1734,0.684 L16.7104,7.231 Z M15.1504,22.402 C15.1504,22.552 15.0574,22.679 14.9454,22.679 L13.6744,22.679 C13.5634,22.679 13.4694,22.552 13.4694,22.402 L13.4694,16.685 C13.4694,16.534 13.5634,16.408 13.6744,16.408 L14.9454,16.408 C15.0574,16.408 15.1504,16.534 15.1504,16.685 L15.1504,22.402 Z M16.8964,0 L11.7204,0 C11.3464,0 11.0434,0.314 11.0434,0.712 L11.5104,7.231 C11.5104,7.616 11.8144,7.929 12.1874,7.929 L13.5314,7.929 L13.5314,16.028 C13.2674,16.101 13.0694,16.366 13.0694,16.685 L13.0694,22.402 C13.0694,22.775 13.3414,23.079 13.6744,23.079 L14.9454,23.079 C15.2794,23.079 15.5514,22.775 15.5514,22.402 L15.5514,16.685 C15.5514,16.364 15.3514,16.097 15.0834,16.027 L15.0834,7.929 L16.4334,7.929 C16.8064,7.929 17.1094,7.616 17.1094,7.245 L17.5724,0.698 C17.5724,0.314 17.2694,0 16.8964,0 L16.8964,0 Z" id="Fill-6"></path>
            <path d="M24.0532,7.7662 C24.0532,7.9192 23.9292,8.0432 23.7772,8.0432 L22.5192,8.0432 L22.5192,6.4992 C22.5192,6.1142 22.2162,5.8002 21.8422,5.8002 L21.3662,5.8002 C20.9932,5.8002 20.6902,6.1142 20.6902,6.4992 L20.6902,8.0432 L19.5172,8.0432 C19.3652,8.0432 19.2402,7.9192 19.2402,7.7662 L19.2402,1.2462 C19.2402,1.0942 19.3652,0.9702 19.5172,0.9702 L23.7772,0.9702 C23.9292,0.9702 24.0532,1.0942 24.0532,1.2462 L24.0532,7.7662 Z M22.1192,21.0362 C22.1192,21.2012 21.9952,21.3352 21.8422,21.3352 L21.3662,21.3352 C21.2142,21.3352 21.0902,21.2012 21.0902,21.0362 L21.0902,8.4432 L21.0902,6.4992 C21.0902,6.3342 21.2142,6.2002 21.3662,6.2002 L21.8422,6.2002 C21.9952,6.2002 22.1192,6.3342 22.1192,6.4992 L22.1192,8.4432 L22.1192,21.0362 Z M23.7772,0.5702 L19.5172,0.5702 C19.1442,0.5702 18.8402,0.8732 18.8402,1.2462 L18.8402,7.7662 C18.8402,8.1402 19.1442,8.4432 19.5172,8.4432 L20.6902,8.4432 L20.6902,21.0362 C20.6902,21.4212 20.9932,21.7352 21.3662,21.7352 L21.8422,21.7352 C22.2162,21.7352 22.5192,21.4212 22.5192,21.0362 L22.5192,8.4432 L23.7772,8.4432 C24.1502,8.4432 24.4532,8.1402 24.4532,7.7662 L24.4532,1.2462 C24.4532,0.8732 24.1502,0.5702 23.7772,0.5702 L23.7772,0.5702 Z" id="Fill-7"></path>
        </g>
    </g>
</svg>