<?xml version="1.0" encoding="UTF-8"?>
<svg width="32px" height="32px" viewBox="0 0 32 32" version="1.1" xmlns="http://www.w3.org/2000/svg" xmlns:xlink="http://www.w3.org/1999/xlink">
    <title>Icn / Amenity / Kitchen / Plates - Bowls</title>
    <g id="Icn-/-Amenity-/-Kitchen-/-Plates---Bowls" stroke="none" stroke-width="1" fill="none" fill-rule="evenodd">
        <g id="Group" transform="translate(3.000000, 9.000000)" fill="#13284C">
            <g id="Group-3" transform="translate(0.000000, 0.710400)">
                <path d="M18.8926,13.6001 C17.8506,13.6001 16.8196,13.3291 15.9146,12.8181 C14.3916,11.9571 13.3136,10.4871 12.9576,8.7841 C12.8716,8.3741 12.8286,7.9541 12.8286,7.5361 C12.8286,7.2911 12.8426,7.0481 12.8716,6.8091 C12.9566,6.0911 13.1696,5.4001 13.5076,4.7491 L13.5086,4.7461 C14.5576,2.7271 16.6196,1.4731 18.8926,1.4731 C18.9826,1.4731 19.0746,1.4751 19.1656,1.4791 C19.4396,1.4921 19.7166,1.5231 19.9906,1.5741 L19.9926,1.5741 C22.8696,2.1011 24.9546,4.6081 24.9546,7.5361 C24.9546,10.8801 22.2366,13.6001 18.8926,13.6001 M0.4016,9.1161 C0.4116,9.0641 0.4566,9.0241 0.5116,9.0241 L3.0986,9.0241 L12.6016,9.0241 C12.6096,9.0591 12.6196,9.0931 12.6276,9.1271 C12.6386,9.1681 12.6486,9.2101 12.6606,9.2511 C12.6796,9.3191 12.6986,9.3861 12.7206,9.4531 C12.7306,9.4881 12.7406,9.5241 12.7526,9.5581 C12.7836,9.6551 12.8176,9.7501 12.8536,9.8441 C12.8556,9.8491 12.8566,9.8541 12.8586,9.8591 C12.8966,9.9581 12.9386,10.0571 12.9816,10.1541 C12.9946,10.1841 13.0106,10.2141 13.0236,10.2441 C13.0546,10.3111 13.0866,10.3771 13.1186,10.4431 C13.1366,10.4771 13.1546,10.5121 13.1726,10.5461 C13.2046,10.6071 13.2376,10.6671 13.2716,10.7271 C13.2916,10.7611 13.3106,10.7951 13.3306,10.8291 C13.3666,10.8901 13.4036,10.9501 13.4416,11.0091 C13.4616,11.0391 13.4806,11.0701 13.5006,11.1001 C13.5466,11.1691 13.5936,11.2371 13.6426,11.3051 C13.6556,11.3241 13.6686,11.3431 13.6826,11.3611 C13.7456,11.4471 13.8106,11.5321 13.8786,11.6151 C13.8926,11.6321 13.9066,11.6481 13.9216,11.6651 C13.9756,11.7301 14.0296,11.7931 14.0856,11.8561 C14.1096,11.8831 14.1356,11.9091 14.1596,11.9351 C14.2076,11.9871 14.2566,12.0381 14.3066,12.0881 C14.3336,12.1171 14.3616,12.1441 14.3916,12.1721 C14.4396,12.2201 14.4896,12.2671 14.5416,12.3131 C14.5696,12.3391 14.5996,12.3661 14.6286,12.3921 C14.6836,12.4401 14.7396,12.4871 14.7966,12.5341 C14.8226,12.5551 14.8496,12.5781 14.8756,12.5991 C14.9586,12.6641 15.0426,12.7281 15.1296,12.7901 C15.1296,12.7911 15.1306,12.7911 15.1316,12.7921 L3.1866,12.7921 C1.2156,11.8491 0.4836,9.4101 0.4016,9.1161 M0.4016,4.9491 C0.4116,4.8971 0.4566,4.8571 0.5116,4.8571 L3.0986,4.8571 L13.0106,4.8571 C13.0056,4.8671 13.0016,4.8771 12.9966,4.8881 C12.9766,4.9311 12.9596,4.9741 12.9416,5.0171 C12.9116,5.0871 12.8826,5.1571 12.8546,5.2281 C12.8376,5.2751 12.8206,5.3221 12.8036,5.3691 C12.7796,5.4371 12.7556,5.5051 12.7336,5.5741 C12.7186,5.6231 12.7036,5.6721 12.6886,5.7211 C12.6686,5.7891 12.6496,5.8581 12.6326,5.9271 C12.6196,5.9761 12.6066,6.0261 12.5956,6.0761 C12.5796,6.1461 12.5646,6.2171 12.5506,6.2871 C12.5406,6.3361 12.5316,6.3861 12.5226,6.4351 C12.5106,6.5091 12.4996,6.5821 12.4896,6.6571 C12.4826,6.7041 12.4756,6.7511 12.4706,6.7981 C12.4616,6.8801 12.4556,6.9621 12.4486,7.0441 C12.4456,7.0851 12.4416,7.1251 12.4396,7.1651 C12.4326,7.2881 12.4286,7.4121 12.4286,7.5361 C12.4286,7.6391 12.4316,7.7411 12.4366,7.8441 C12.4376,7.8761 12.4406,7.9081 12.4426,7.9401 C12.4466,8.0121 12.4526,8.0831 12.4586,8.1541 C12.4626,8.1901 12.4666,8.2261 12.4706,8.2631 C12.4786,8.3321 12.4876,8.4011 12.4976,8.4691 C12.5026,8.5041 12.5076,8.5381 12.5126,8.5741 C12.5156,8.5901 12.5176,8.6071 12.5206,8.6241 L3.1866,8.6241 C1.2156,7.6821 0.4836,5.2431 0.4016,4.9491 M0.4016,0.7811 C0.4116,0.7291 0.4566,0.6891 0.5116,0.6891 L19.8636,0.6891 C19.9196,0.6891 19.9666,0.7321 19.9746,0.7871 C19.9646,0.8351 19.9376,0.9661 19.8866,1.1501 C19.8726,1.1481 19.8616,1.1481 19.8496,1.1461 C19.7046,1.1241 19.5606,1.1071 19.4176,1.0961 C19.3926,1.0931 19.3676,1.0921 19.3416,1.0901 C19.1916,1.0791 19.0406,1.0731 18.8926,1.0731 C18.7426,1.0731 18.5916,1.0781 18.4446,1.0881 C18.3936,1.0911 18.3456,1.0991 18.2956,1.1031 C18.1976,1.1121 18.1006,1.1201 18.0036,1.1331 C17.9456,1.1421 17.8896,1.1531 17.8316,1.1621 C17.7436,1.1771 17.6556,1.1901 17.5686,1.2081 C17.5096,1.2211 17.4496,1.2371 17.3916,1.2511 C17.3086,1.2711 17.2256,1.2891 17.1436,1.3121 C17.0826,1.3291 17.0226,1.3501 16.9626,1.3691 C16.8846,1.3931 16.8066,1.4161 16.7286,1.4431 C16.6686,1.4651 16.6096,1.4901 16.5496,1.5131 C16.4756,1.5421 16.3986,1.5701 16.3256,1.6011 C16.2666,1.6271 16.2076,1.6571 16.1476,1.6841 C16.0766,1.7181 16.0046,1.7501 15.9346,1.7871 C15.8756,1.8171 15.8186,1.8501 15.7616,1.8821 C15.6926,1.9201 15.6246,1.9561 15.5576,1.9971 C15.5006,2.0311 15.4446,2.0691 15.3896,2.1051 C15.3236,2.1471 15.2586,2.1881 15.1956,2.2321 C15.1406,2.2711 15.0866,2.3121 15.0326,2.3521 C14.9716,2.3981 14.9086,2.4431 14.8496,2.4921 C14.7966,2.5341 14.7456,2.5791 14.6936,2.6231 C14.6366,2.6731 14.5776,2.7221 14.5206,2.7741 C14.4706,2.8211 14.4226,2.8701 14.3726,2.9181 C14.3186,2.9711 14.2636,3.0241 14.2116,3.0791 C14.1626,3.1301 14.1176,3.1831 14.0706,3.2351 C14.0206,3.2911 13.9696,3.3481 13.9216,3.4071 C13.8766,3.4611 13.8336,3.5171 13.7906,3.5731 C13.7436,3.6331 13.6966,3.6931 13.6516,3.7551 C13.6106,3.8121 13.5706,3.8721 13.5316,3.9321 C13.4886,3.9961 13.4456,4.0581 13.4056,4.1231 C13.3676,4.1851 13.3316,4.2481 13.2956,4.3111 C13.2676,4.3601 13.2366,4.4071 13.2096,4.4571 L3.1866,4.4571 C1.2156,3.5141 0.4836,1.0751 0.4016,0.7811 M20.2796,1.2251 C20.3436,0.9911 20.3716,0.8431 20.3726,0.8351 L20.3746,0.8011 C20.3746,0.5191 20.1466,0.2891 19.8636,0.2891 L0.5116,0.2891 C0.2296,0.2891 -0.0004,0.5191 -0.0004,0.8011 L0.0066,0.8501 C0.0326,0.9561 0.6216,3.2221 2.3976,4.4571 L0.5116,4.4571 C0.2296,4.4571 -0.0004,4.6861 -0.0004,4.9691 L0.0066,5.0171 C0.0326,5.1241 0.6216,7.3901 2.3976,8.6241 L0.5116,8.6241 C0.2296,8.6241 -0.0004,8.8541 -0.0004,9.1361 L0.0066,9.1841 C0.0356,9.3041 0.7636,12.1081 3.0586,13.1731 L3.0986,13.1921 L15.7676,13.1921 C16.7206,13.7201 17.7996,14.0001 18.8926,14.0001 C22.4566,14.0001 25.3556,11.1001 25.3556,7.5361 C25.3556,4.4891 23.2346,1.8711 20.2796,1.2251" id="Fill-1"></path>
            </g>
            <path d="M19.459,11.4741 C19.27,11.5071 19.078,11.5241 18.893,11.5241 C17.544,11.5241 16.352,10.7141 15.855,9.4611 C15.703,9.0761 15.625,8.6711 15.625,8.2571 C15.625,7.1601 16.171,6.1421 17.086,5.5341 C17.433,5.3041 17.815,5.1431 18.221,5.0591 C18.441,5.0131 18.666,4.9901 18.893,4.9901 C20.693,4.9901 22.16,6.4551 22.16,8.2571 C22.16,9.8481 21.023,11.2011 19.459,11.4741 M18.893,4.5901 C18.639,4.5901 18.385,4.6161 18.139,4.6671 C17.683,4.7631 17.254,4.9421 16.865,5.2011 C15.838,5.8831 15.225,7.0261 15.225,8.2571 C15.225,8.7221 15.312,9.1771 15.483,9.6091 C16.042,11.0161 17.379,11.9241 18.893,11.9241 C19.102,11.9241 19.316,11.9051 19.527,11.8681 C21.285,11.5611 22.559,10.0421 22.559,8.2571 C22.559,6.2351 20.914,4.5901 18.893,4.5901" id="Fill-4"></path>
        </g>
    </g>
</svg>