<?xml version="1.0" encoding="UTF-8"?>
<svg width="32px" height="32px" viewBox="0 0 32 32" version="1.1" xmlns="http://www.w3.org/2000/svg" xmlns:xlink="http://www.w3.org/1999/xlink">
    <title>Icn / Amenity / Kitchen / Pots - Pans</title>
    <g id="Icn-/-Amenity-/-Kitchen-/-Pots---Pans" stroke="none" stroke-width="1" fill="none" fill-rule="evenodd">
        <g id="Group" transform="translate(2.000000, 7.000000)" fill="#13284C">
            <path d="M27.484,12.385 L23.037,12.385 C22.757,12.385 22.502,12.268 22.371,12.08 C22.314,12 22.287,11.914 22.287,11.824 C22.287,11.78 22.293,11.736 22.308,11.693 C22.322,11.65 22.343,11.608 22.371,11.568 C22.502,11.38 22.757,11.263 23.037,11.263 L27.484,11.263 C27.896,11.263 28.234,11.515 28.234,11.824 C28.234,12.134 27.896,12.385 27.484,12.385 L27.484,12.385 Z M20.963,12.074 C20.871,12.106 20.99,16.847 20.99,16.847 C20.99,17.201 20.703,17.489 20.349,17.489 L12.609,17.489 C12.255,17.489 11.968,17.201 11.968,16.847 L11.968,16.805 C11.968,16.805 11.793,11.681 11.984,11.661 C12.052,11.569 13.853,11.654 14.478,11.653 C16.334,11.651 21.904,11.653 21.904,11.653 C21.904,11.659 21.886,11.772 21.886,11.824 C21.886,11.876 21.91,12.031 21.91,12.031 C21.91,12.031 21.117,12.021 20.963,12.074 L20.963,12.074 Z M3.455,16.406 C3.099,16.406 2.812,16.117 2.812,15.764 L2.812,6.685 L3.074,6.685 C3.486,6.685 3.82,6.351 3.82,5.941 C3.82,5.531 3.486,5.197 3.074,5.197 L2.812,5.197 L2.812,4.828 C2.812,4.474 3.099,4.186 3.455,4.186 L13.636,4.186 C13.99,4.186 14.277,4.474 14.277,4.828 L14.277,5.197 L13.957,5.197 C13.546,5.197 13.213,5.531 13.213,5.941 C13.213,6.351 13.546,6.685 13.957,6.685 L14.277,6.685 L14.277,9.85 C14.267,9.853 14.255,9.855 14.246,9.858 C14.209,9.865 14.173,9.873 14.138,9.882 C14.101,9.89 14.066,9.898 14.031,9.906 C13.996,9.915 13.961,9.924 13.927,9.933 C13.892,9.942 13.857,9.95 13.824,9.96 C13.791,9.969 13.757,9.978 13.726,9.988 C13.693,9.997 13.66,10.007 13.629,10.017 C13.597,10.027 13.566,10.037 13.535,10.047 C13.504,10.057 13.472,10.068 13.443,10.078 C13.412,10.089 13.382,10.099 13.355,10.11 C13.324,10.12 13.296,10.132 13.267,10.143 C13.24,10.154 13.213,10.165 13.185,10.176 C13.156,10.187 13.13,10.199 13.103,10.211 C13.076,10.222 13.05,10.234 13.025,10.246 C13,10.258 12.974,10.27 12.949,10.283 C12.925,10.295 12.902,10.306 12.879,10.319 C12.855,10.331 12.832,10.344 12.806,10.358 C12.785,10.37 12.763,10.382 12.744,10.395 C12.72,10.408 12.699,10.422 12.677,10.436 L12.619,10.474 C12.597,10.488 12.578,10.503 12.558,10.517 C12.541,10.53 12.523,10.543 12.507,10.556 C12.488,10.571 12.47,10.586 12.453,10.602 C12.437,10.614 12.421,10.627 12.408,10.64 C12.39,10.656 12.375,10.673 12.359,10.689 C12.345,10.702 12.334,10.715 12.322,10.727 C12.306,10.745 12.291,10.762 12.277,10.78 C12.267,10.793 12.257,10.805 12.248,10.817 C12.232,10.837 12.22,10.857 12.209,10.877 C12.201,10.887 12.193,10.898 12.187,10.909 C12.17,10.94 12.154,10.971 12.14,11.003 C12.132,11.018 12.125,11.035 12.119,11.054 C12.117,11.06 12.115,11.067 12.113,11.073 C12.109,11.088 12.105,11.104 12.103,11.122 C12.101,11.13 12.099,11.138 12.099,11.147 C12.095,11.167 12.093,11.19 12.089,11.215 C12.089,11.222 12.088,11.228 12.088,11.235 L12.088,11.242 L12.084,11.242 C12.052,11.244 12.021,11.246 11.988,11.25 C11.986,11.251 11.982,11.251 11.98,11.251 C11.949,11.256 11.918,11.262 11.888,11.271 C11.882,11.273 11.877,11.275 11.873,11.276 C11.841,11.286 11.814,11.299 11.787,11.314 C11.781,11.317 11.777,11.32 11.773,11.323 C11.746,11.341 11.716,11.361 11.693,11.388 C11.58,11.508 11.546,11.68 11.552,11.968 C11.552,12.063 11.568,16.406 11.568,16.406 L3.455,16.406 Z M0.744,6.285 C0.554,6.285 0.4,6.131 0.4,5.941 C0.4,5.751 0.554,5.596 0.744,5.596 L2.412,5.596 L3.074,5.596 C3.265,5.596 3.42,5.751 3.42,5.941 C3.42,6.131 3.265,6.285 3.074,6.285 L2.412,6.285 L0.744,6.285 Z M3.261,3.786 C3.173,3.786 3.103,3.776 3.056,3.766 C3.06,3.712 3.066,3.664 3.072,3.635 L3.084,3.601 C3.326,2.956 4.773,2.371 6.683,2.145 C6.873,2.122 7.068,2.103 7.267,2.088 C8.078,2.025 8.927,2.025 9.736,2.088 C9.935,2.103 10.13,2.122 10.32,2.145 C12.173,2.365 13.576,2.912 13.892,3.539 C13.902,3.559 13.912,3.581 13.92,3.602 L13.931,3.634 C13.937,3.664 13.943,3.713 13.947,3.766 C13.9,3.776 13.83,3.786 13.742,3.786 L13.636,3.786 L3.455,3.786 L3.261,3.786 Z M6.857,1.339 C6.857,0.821 7.234,0.4 7.695,0.4 L9.306,0.4 C9.769,0.4 10.144,0.821 10.144,1.339 L10.144,1.723 C10.08,1.717 10.015,1.71 9.951,1.704 L9.951,1.339 C9.951,0.928 9.662,0.593 9.306,0.593 L7.695,0.593 C7.341,0.593 7.052,0.928 7.052,1.339 L7.052,1.704 C6.986,1.71 6.922,1.717 6.857,1.723 L6.857,1.339 Z M7.451,1.677 L7.451,1.339 C7.451,1.152 7.564,0.994 7.695,0.994 L9.306,0.994 C9.439,0.994 9.55,1.152 9.55,1.339 L9.55,1.677 C8.859,1.633 8.146,1.633 7.451,1.677 L7.451,1.677 Z M16.289,5.596 C16.478,5.596 16.632,5.751 16.632,5.941 C16.632,6.131 16.478,6.285 16.289,6.285 L14.677,6.285 L13.957,6.285 C13.767,6.285 13.613,6.131 13.613,5.941 C13.613,5.751 13.767,5.596 13.957,5.596 L14.677,5.596 L16.289,5.596 Z M15.158,10.112 C15.3,10.095 15.447,10.081 15.595,10.07 C15.671,10.063 15.748,10.058 15.826,10.054 C15.836,10.096 15.847,10.136 15.865,10.176 C15.869,10.187 15.875,10.197 15.88,10.208 C15.894,10.236 15.908,10.263 15.925,10.289 C15.933,10.302 15.943,10.315 15.953,10.327 C15.968,10.349 15.986,10.37 16.005,10.39 C16.015,10.402 16.029,10.413 16.041,10.425 C16.06,10.443 16.08,10.459 16.101,10.475 C16.115,10.485 16.129,10.494 16.142,10.504 C16.166,10.518 16.189,10.53 16.214,10.542 C16.228,10.549 16.244,10.556 16.257,10.563 C16.285,10.573 16.314,10.581 16.343,10.589 C16.357,10.593 16.371,10.597 16.384,10.6 C16.427,10.608 16.472,10.614 16.519,10.614 C16.564,10.614 16.609,10.608 16.652,10.6 C16.668,10.597 16.681,10.593 16.695,10.589 C16.724,10.581 16.752,10.573 16.779,10.563 C16.795,10.556 16.808,10.549 16.824,10.542 C16.847,10.53 16.871,10.518 16.894,10.504 C16.908,10.494 16.921,10.485 16.937,10.475 C16.957,10.459 16.978,10.443 16.996,10.425 C17.009,10.413 17.021,10.402 17.033,10.39 C17.052,10.37 17.068,10.349 17.084,10.327 C17.093,10.315 17.103,10.302 17.113,10.289 C17.13,10.263 17.144,10.236 17.158,10.207 C17.162,10.197 17.17,10.186 17.173,10.176 C17.189,10.136 17.203,10.096 17.213,10.054 C17.287,10.058 17.363,10.063 17.437,10.069 C17.586,10.081 17.73,10.095 17.873,10.112 C19.433,10.297 20.322,10.757 20.509,11.129 C20.515,11.143 20.523,11.158 20.529,11.172 L20.535,11.19 C20.537,11.201 20.539,11.218 20.541,11.235 C20.513,11.239 20.48,11.241 20.441,11.241 L14.677,11.241 L12.589,11.241 C12.55,11.241 12.517,11.239 12.49,11.235 C12.492,11.218 12.494,11.202 12.496,11.191 L12.504,11.171 C12.617,10.869 13.205,10.459 14.515,10.211 C14.734,10.17 14.945,10.137 15.158,10.112 L15.158,10.112 Z M16.211,9.252 C16.211,9.082 16.349,8.944 16.519,8.944 C16.689,8.944 16.828,9.082 16.828,9.252 L16.828,9.637 L16.828,9.905 C16.828,10.075 16.689,10.214 16.519,10.214 C16.349,10.214 16.211,10.075 16.211,9.905 L16.211,9.636 L16.211,9.252 Z M27.484,10.863 L23.037,10.863 C22.67,10.863 22.328,11.01 22.113,11.253 L20.945,11.253 C20.935,11.133 20.922,11.053 20.89,11.001 C20.882,10.984 20.875,10.967 20.867,10.95 C20.57,10.36 19.468,9.898 17.92,9.715 C17.771,9.697 17.621,9.682 17.468,9.671 C17.388,9.664 17.308,9.661 17.228,9.656 L17.228,9.252 C17.228,8.862 16.91,8.544 16.519,8.544 C16.129,8.544 15.81,8.862 15.81,9.252 L15.81,9.656 C15.728,9.661 15.644,9.664 15.564,9.671 C15.41,9.682 15.259,9.697 15.111,9.715 C14.968,9.732 14.824,9.754 14.677,9.778 L14.677,6.685 L16.289,6.685 C16.699,6.685 17.033,6.351 17.033,5.941 C17.033,5.531 16.699,5.197 16.289,5.197 L14.677,5.197 L14.677,4.828 C14.677,4.502 14.523,4.215 14.289,4.023 C14.332,3.975 14.355,3.919 14.355,3.851 C14.339,3.603 14.32,3.489 14.279,3.424 C14.269,3.403 14.259,3.382 14.25,3.36 C13.875,2.615 12.494,2.027 10.545,1.771 L10.545,1.339 C10.545,0.6 9.99,1.77635684e-15 9.306,1.77635684e-15 L7.695,1.77635684e-15 C7.013,1.77635684e-15 6.459,0.6 6.459,1.339 L6.459,1.771 C4.461,2.033 3.043,2.661 2.722,3.43 C2.681,3.497 2.662,3.615 2.648,3.863 C2.648,3.945 2.685,4.011 2.752,4.064 C2.545,4.254 2.412,4.525 2.412,4.828 L2.412,5.197 L0.744,5.197 C0.334,5.197 -1.97175609e-13,5.531 -1.97175609e-13,5.941 C-1.97175609e-13,6.351 0.334,6.685 0.744,6.685 L2.412,6.685 L2.412,15.764 C2.412,16.338 2.88,16.805 3.455,16.805 L11.568,16.805 L11.568,16.847 C11.568,17.422 12.035,17.888 12.609,17.888 L20.349,17.888 C20.923,17.888 21.39,17.422 21.39,16.847 C21.39,16.847 21.328,12.436 21.39,12.395 C21.443,12.363 22.113,12.395 22.113,12.395 C22.328,12.637 22.67,12.785 23.037,12.785 L27.484,12.785 C28.117,12.785 28.632,12.354 28.632,11.824 C28.632,11.294 28.117,10.863 27.484,10.863 L27.484,10.863 Z" id="Fill-1"></path>
        </g>
    </g>
</svg>