<?xml version="1.0" encoding="UTF-8"?>
<svg width="32px" height="32px" viewBox="0 0 32 32" version="1.1" xmlns="http://www.w3.org/2000/svg" xmlns:xlink="http://www.w3.org/1999/xlink">
    <title>Icn / Amenity / Kitchen / Toaster</title>
    <g id="Icn-/-Amenity-/-Kitchen-/-Toaster" stroke="none" stroke-width="1" fill="none" fill-rule="evenodd">
        <g id="Group" transform="translate(4.000000, 5.000000)" fill="#13284C">
            <path d="M21.8984,12.5635 L20.5604,12.5635 L20.5604,10.2385 L21.8984,10.2385 C22.5394,10.2385 23.0604,10.7605 23.0604,11.4015 C23.0604,12.0425 22.5394,12.5635 21.8984,12.5635 L21.8984,12.5635 Z M20.1604,9.8385 L20.1604,12.9635 L20.1604,13.5845 L0.3984,13.5845 L0.3984,7.7375 C0.3984,6.8385 1.1284,6.1085 2.0274,6.1085 L5.7164,6.1085 L8.3024,6.1085 L8.7034,6.1085 L16.0564,6.1085 L18.5314,6.1085 C19.4294,6.1085 20.1604,6.8385 20.1604,7.7375 L20.1604,9.8385 Z M20.1604,18.7565 C20.1604,19.6555 19.4294,20.3855 18.5314,20.3855 L2.0274,20.3855 C1.1284,20.3855 0.3984,19.6555 0.3984,18.7565 L0.3984,13.9845 L20.1604,13.9845 L20.1604,18.7565 Z M17.8674,20.7875 C17.8674,21.4105 17.3594,21.9175 16.7364,21.9175 C16.1134,21.9175 15.6054,21.4105 15.6054,20.7875 L15.6054,20.7855 L17.8674,20.7855 L17.8674,20.7875 Z M5.4024,20.9085 C5.4024,21.5315 4.8944,22.0395 4.2714,22.0395 C3.6484,22.0395 3.1404,21.5315 3.1404,20.9085 L3.1404,20.7855 L5.4024,20.7855 L5.4024,20.9085 Z M5.2384,1.7325 C5.2384,0.9985 5.8364,0.4005 6.5704,0.4005 L12.6194,0.4005 C12.9744,0.4005 13.3124,0.5435 13.5584,0.7895 L9.1564,0.7895 C8.2014,0.7895 7.4234,1.5655 7.4234,2.5215 C7.4234,3.1625 7.7734,3.7435 8.3304,4.0445 C8.3124,4.1475 8.3024,4.2495 8.3024,4.3505 L8.3024,5.7085 L6.1174,5.7085 L6.1174,3.5615 C6.1174,3.4435 6.1344,3.3205 6.1684,3.1965 C6.1684,3.1965 6.2834,3.1445 6.2124,3.0285 C6.1444,2.9175 6.0524,2.9605 6.0524,2.9605 C5.5564,2.7505 5.2384,2.2695 5.2384,1.7325 L5.2384,1.7325 Z M14.2984,1.1885 L15.2054,1.1885 C15.9394,1.1885 16.5374,1.7865 16.5374,2.5215 C16.5374,3.0575 16.2164,3.5405 15.7224,3.7495 C15.7224,3.7495 15.6034,3.7105 15.5624,3.8165 C15.5234,3.9125 15.6074,3.9855 15.6074,3.9855 C15.6404,4.1095 15.6584,4.2325 15.6584,4.3505 L15.6584,5.7085 L8.7034,5.7085 L8.7034,4.3505 C8.7034,4.2315 8.7184,4.1095 8.7524,3.9855 C8.7524,3.9855 8.8264,3.8885 8.7984,3.8165 C8.7614,3.7275 8.6364,3.7495 8.6364,3.7495 C8.1424,3.5405 7.8244,3.0575 7.8244,2.5215 C7.8244,1.7865 8.4214,1.1885 9.1564,1.1885 L14.2984,1.1885 Z M21.8984,9.8385 L20.5604,9.8385 L20.5604,7.7375 C20.5604,6.6185 19.6504,5.7085 18.5314,5.7085 L16.0564,5.7085 L16.0564,4.3505 C16.0564,4.2505 16.0484,4.1475 16.0294,4.0445 C16.5864,3.7435 16.9374,3.1625 16.9374,2.5215 C16.9374,1.5655 16.1604,0.7895 15.2054,0.7895 L14.0664,0.7895 C13.7484,0.3005 13.2054,0.0005 12.6194,0.0005 L6.5704,0.0005 C5.6154,0.0005 4.8374,0.7775 4.8374,1.7325 C4.8374,2.3745 5.1894,2.9555 5.7444,3.2555 C5.7264,3.3585 5.7164,3.4605 5.7164,3.5615 L5.7164,5.7085 L2.0274,5.7085 C0.9104,5.7085 0.0004,6.6185 0.0004,7.7375 L0.0004,18.7565 C0.0004,19.8755 0.9104,20.7855 2.0274,20.7855 L2.7404,20.7855 L2.7404,20.9085 C2.7404,21.7525 3.4274,22.4385 4.2714,22.4385 C5.1154,22.4385 5.8024,21.7525 5.8024,20.9085 L5.8024,20.7855 L15.2054,20.7855 L15.2054,20.7875 C15.2054,21.6315 15.8924,22.3175 16.7364,22.3175 C17.5804,22.3175 18.2674,21.6315 18.2674,20.7875 L18.2674,20.7855 L18.5314,20.7855 C19.6504,20.7855 20.5604,19.8755 20.5604,18.7565 L20.5604,12.9635 L21.8984,12.9635 C22.7594,12.9635 23.4604,12.2625 23.4604,11.4015 C23.4604,10.5395 22.7594,9.8385 21.8984,9.8385 L21.8984,9.8385 Z" id="Fill-1"></path>
            <path d="M3.5351,14.9961 C4.0471,14.9961 4.4631,15.4131 4.4631,15.9251 C4.4631,16.4371 4.0471,16.8541 3.5351,16.8541 C3.0211,16.8541 2.6051,16.4371 2.6051,15.9251 C2.6051,15.4131 3.0211,14.9961 3.5351,14.9961 M3.5351,17.2541 C4.2671,17.2541 4.8631,16.6581 4.8631,15.9251 C4.8631,15.1921 4.2671,14.5961 3.5351,14.5961 C2.8031,14.5961 2.2051,15.1921 2.2051,15.9251 C2.2051,16.6581 2.8031,17.2541 3.5351,17.2541" id="Fill-3"></path>
            <path d="M8.9902,2.2051 C8.9042,2.2051 8.8362,2.2741 8.8362,2.3601 C8.8362,2.4451 8.9042,2.5151 8.9902,2.5151 C9.0742,2.5151 9.1442,2.4451 9.1442,2.3601 C9.1442,2.2741 9.0742,2.2051 8.9902,2.2051" id="Fill-5"></path>
            <path d="M6.3613,2.145 C6.4473,2.145 6.5153,2.076 6.5153,1.99 C6.5153,1.905 6.4473,1.836 6.3613,1.836 C6.2773,1.836 6.2073,1.905 6.2073,1.99 C6.2073,2.076 6.2773,2.145 6.3613,2.145" id="Fill-7"></path>
            <path d="M12.1797,1.9331 C12.2657,1.9331 12.3337,1.8641 12.3337,1.7781 C12.3337,1.6931 12.2657,1.6241 12.1797,1.6241 C12.0937,1.6241 12.0257,1.6931 12.0257,1.7781 C12.0257,1.8641 12.0937,1.9331 12.1797,1.9331" id="Fill-9"></path>
            <path d="M12.4883,3.4483 C12.5743,3.4483 12.6443,3.3793 12.6443,3.2943 C12.6443,3.2083 12.5743,3.1393 12.4883,3.1393 C12.4043,3.1393 12.3343,3.2083 12.3343,3.2943 C12.3343,3.3793 12.4043,3.4483 12.4883,3.4483" id="Fill-11"></path>
            <path d="M12.1797,5.2241 C12.2657,5.2241 12.3337,5.1551 12.3337,5.0691 C12.3337,4.9841 12.2657,4.9151 12.1797,4.9151 C12.0937,4.9151 12.0257,4.9841 12.0257,5.0691 C12.0257,5.1551 12.0937,5.2241 12.1797,5.2241" id="Fill-13"></path>
            <path d="M9.7226,5.2241 C9.7226,5.3091 9.7906,5.3791 9.8766,5.3791 C9.9606,5.3791 10.0316,5.3091 10.0316,5.2241 C10.0316,5.1391 9.9606,5.0691 9.8766,5.0691 C9.7906,5.0691 9.7226,5.1391 9.7226,5.2241" id="Fill-15"></path>
            <path d="M9.7226,3.9126 C9.8066,3.9126 9.8766,3.8436 9.8766,3.7576 C9.8766,3.6726 9.8066,3.6036 9.7226,3.6036 C9.6366,3.6036 9.5686,3.6726 9.5686,3.7576 C9.5686,3.8436 9.6366,3.9126 9.7226,3.9126" id="Fill-17"></path>
            <path d="M7.08,4.8491 C7.166,4.8491 7.236,4.7801 7.236,4.6941 C7.236,4.6091 7.166,4.5401 7.08,4.5401 C6.996,4.5401 6.926,4.6091 6.926,4.6941 C6.926,4.7801 6.996,4.8491 7.08,4.8491" id="Fill-19"></path>
            <path d="M15.3476,2.5147 C15.4336,2.5147 15.5016,2.4457 15.5016,2.3597 C15.5016,2.2747 15.4336,2.2047 15.3476,2.2047 C15.2636,2.2047 15.1936,2.2747 15.1936,2.3597 C15.1936,2.4457 15.2636,2.5147 15.3476,2.5147" id="Fill-21"></path>
            <path d="M15.039,5.3789 C15.125,5.3789 15.193,5.3099 15.193,5.2239 C15.193,5.1389 15.125,5.0689 15.039,5.0689 C14.953,5.0689 14.885,5.1389 14.885,5.2239 C14.885,5.3099 14.953,5.3789 15.039,5.3789" id="Fill-23"></path>
            <path d="M14.3437,4.0674 C14.4297,4.0674 14.4977,3.9984 14.4977,3.9124 C14.4977,3.8274 14.4297,3.7574 14.3437,3.7574 C14.2577,3.7574 14.1897,3.8274 14.1897,3.9124 C14.1897,3.9984 14.2577,4.0674 14.3437,4.0674" id="Fill-25"></path>
        </g>
    </g>
</svg>