<?xml version="1.0" encoding="UTF-8"?>
<svg width="32px" height="32px" viewBox="0 0 32 32" version="1.1" xmlns="http://www.w3.org/2000/svg" xmlns:xlink="http://www.w3.org/1999/xlink">
    <title>Icn / Amenity / Bonus Features / Awning</title>
    <g id="Icn-/-Amenity-/-Bonus-Features-/-Awning" stroke="none" stroke-width="1" fill="none" fill-rule="evenodd">
        <g id="Group" transform="translate(3.000000, 9.000000)" fill="#13284C" fill-rule="nonzero">
            <path d="M26.381,-0.35 L4.26325641e-14,-0.35 C-0.193299662,-0.35 -0.35,-0.193299662 -0.35,-2.84217094e-14 L-0.35,1.993 C-0.35,2.18629966 -0.193299662,2.343 4.26325641e-14,2.343 L26.381,2.343 C26.5742997,2.343 26.731,2.18629966 26.731,1.993 L26.731,-2.84217094e-14 C26.731,-0.193299662 26.5742997,-0.35 26.381,-0.35 Z M26.031,0.349 L26.031,1.642 L0.35,1.642 L0.35,0.349 L26.031,0.349 Z" id="Stroke-3"></path>
            <path d="M24.6954,1.6426 C24.8645372,1.6426 25.0056531,1.7625737 25.0382892,1.92206279 L25.0454,1.9926 L25.0454,12.1696 C25.0454,12.3628997 24.8886997,12.5196 24.6954,12.5196 C24.5262628,12.5196 24.3851469,12.3996263 24.3525108,12.2401372 L24.3454,12.1696 L24.345,2.342 L2.035,2.342 L2.0354,12.1696 C2.0354,12.3387372 1.9154263,12.4798531 1.75593721,12.5124892 L1.6854,12.5196 C1.5162628,12.5196 1.37514695,12.3996263 1.34251076,12.2401372 L1.3354,12.1696 L1.3354,1.9926 C1.3354,1.8234628 1.4553737,1.68234695 1.61486279,1.64971076 L1.6854,1.6426 L24.6954,1.6426 Z" id="Stroke-4"></path>
            <g id="Group-17" transform="translate(1.411000, 1.027000)">
                <path d="M7.9448,10.9225 C8.13809966,10.9225 8.2948,11.0792003 8.2948,11.2725 C8.2948,12.2970568 6.41674127,12.9445 4.1098,12.9445 C1.80285873,12.9445 -0.0752,12.2970568 -0.0752,11.2725 C-0.0752,11.0792003 0.0815003376,10.9225 0.2748,10.9225 C0.468099662,10.9225 0.6248,11.0792003 0.6248,11.2725 C0.6248,11.7080235 2.18097429,12.2445 4.1098,12.2445 C5.96147268,12.2445 7.46970981,11.7500832 7.58740611,11.3252066 L7.5948,11.2725 C7.5948,11.0792003 7.75150034,10.9225 7.9448,10.9225 Z" id="Stroke-5"></path>
                <path d="M7.9448,0.6158 C8.1139372,0.6158 8.25505305,0.735773696 8.28768924,0.895262792 L8.2948,0.9658 L8.2948,10.8428 C8.2948,11.433669 9.83828757,12.0678 11.7798,12.0678 C13.6464754,12.0678 15.1445443,11.4816144 15.257019,10.9111427 L15.2638,10.8428 C15.2638,10.6495003 15.4205003,10.4928 15.6138,10.4928 C15.8070997,10.4928 15.9638,10.6495003 15.9638,10.8428 C15.9638,11.9905578 14.0726584,12.7678 11.7798,12.7678 C9.56580202,12.7678 7.72575496,12.0431954 7.60148774,10.9601909 L7.5948,10.8428 L7.5948,0.9658 C7.5948,0.772500338 7.75150034,0.6158 7.9448,0.6158 Z" id="Stroke-7"></path>
                <path d="M15.6663718,0.615799903 C15.8355068,0.616660691 15.9760135,0.737347207 16.0078419,0.89699947 L16.0145955,0.96757177 L15.9646,10.8428 C15.9646,11.433669 17.5080876,12.0678 19.4496,12.0678 C21.3164389,12.0678 22.8152814,11.4815103 22.9278154,10.9111306 L22.9346,10.8428 C22.9346,10.6495003 23.0913003,10.4928 23.2846,10.4928 C23.4778997,10.4928 23.6346,10.6495003 23.6346,10.8428 C23.6346,11.9905136 21.7426693,12.7678 19.4496,12.7678 C17.235602,12.7678 15.395555,12.0431954 15.2712918,10.9585962 L15.2646045,10.8410282 L15.3146045,0.96402823 C15.315583,0.770731044 15.4730746,0.614825963 15.6663718,0.615799903 Z" id="Stroke-9"></path>
                <path d="M7.9448,8.3141 C8.13809966,8.3141 8.2948,8.47080034 8.2948,8.6641 C8.2948,10.2332236 6.39667301,11.4281 4.1098,11.4281 C1.82292699,11.4281 -0.0752,10.2332236 -0.0752,8.6641 C-0.0752,8.47080034 0.0815003376,8.3141 0.2748,8.3141 C0.468099662,8.3141 0.6248,8.47080034 0.6248,8.6641 C0.6248,9.76111996 2.16090105,10.7281 4.1098,10.7281 C6.05869895,10.7281 7.5948,9.76111996 7.5948,8.6641 C7.5948,8.47080034 7.75150034,8.3141 7.9448,8.3141 Z" id="Stroke-11"></path>
                <path d="M15.6143,8.3141 C15.8075997,8.3141 15.9643,8.47080034 15.9643,8.6641 C15.9643,10.2333075 14.06699,11.4281 11.7803,11.4281 C9.49276851,11.4281 7.5953,10.2334229 7.5953,8.6641 C7.5953,8.47080034 7.75200034,8.3141 7.9453,8.3141 C8.13859966,8.3141 8.2953,8.47080034 8.2953,8.6641 C8.2953,9.76135553 9.83075024,10.7281 11.7803,10.7281 C13.7290006,10.7281 15.2643,9.76127631 15.2643,8.6641 C15.2643,8.47080034 15.4210003,8.3141 15.6143,8.3141 Z" id="Stroke-13"></path>
                <path d="M23.2847,8.3141 C23.4779997,8.3141 23.6347,8.47080034 23.6347,8.6641 C23.6347,10.2332236 21.736573,11.4281 19.4497,11.4281 C17.162827,11.4281 15.2647,10.2332236 15.2647,8.6641 C15.2647,8.47080034 15.4214003,8.3141 15.6147,8.3141 C15.8079997,8.3141 15.9647,8.47080034 15.9647,8.6641 C15.9647,9.76111996 17.500801,10.7281 19.4497,10.7281 C21.398599,10.7281 22.9347,9.76111996 22.9347,8.6641 C22.9347,8.47080034 23.0914003,8.3141 23.2847,8.3141 Z" id="Stroke-15"></path>
            </g>
        </g>
    </g>
</svg>