<?xml version="1.0" encoding="UTF-8"?>
<svg width="32px" height="32px" viewBox="0 0 32 32" version="1.1" xmlns="http://www.w3.org/2000/svg" xmlns:xlink="http://www.w3.org/1999/xlink">
    <title>Icn / Amenity / Bonus Features / Backup Camera</title>
    <g id="Icn-/-Amenity-/-Bonus-Features-/-Backup-Camera" stroke="none" stroke-width="1" fill="none" fill-rule="evenodd">
        <g id="Group" transform="translate(4.000000, 4.000000)" fill="#13284C">
            <path d="M20.523,2.9757 L22.812,2.9757 L22.812,0.6867 L20.523,0.6867 L20.523,2.9757 Z M23.156,3.6617 L20.182,3.6617 C19.992,3.6617 19.838,3.5087 19.838,3.3197 L19.838,0.3427 C19.838,0.1537 19.992,-0.0003 20.182,-0.0003 L23.156,-0.0003 C23.346,-0.0003 23.5,0.1537 23.5,0.3427 L23.5,3.3197 C23.5,3.5087 23.346,3.6617 23.156,3.6617 L23.156,3.6617 Z" id="Fill-1"></path>
            <path d="M0.687,3.0047 L2.976,3.0047 L2.976,0.7167 L0.687,0.7167 L0.687,3.0047 Z M3.32,3.6917 L0.346,3.6917 C0.156,3.6917 0.002,3.5377 0.002,3.3487 L0.002,0.3727 C0.002,0.1837 0.156,0.0297 0.346,0.0297 L3.32,0.0297 C3.51,0.0297 3.664,0.1837 3.664,0.3727 L3.664,3.3487 C3.664,3.5377 3.51,3.6917 3.32,3.6917 L3.32,3.6917 Z" id="Fill-3"></path>
            <path d="M20.521,22.7957 L22.812,22.7957 L22.812,20.5077 L20.521,20.5077 L20.521,22.7957 Z M23.154,23.4837 L20.178,23.4837 C19.99,23.4837 19.836,23.3287 19.836,23.1397 L19.836,20.1637 C19.836,19.9747 19.99,19.8217 20.178,19.8217 L23.154,19.8217 C23.344,19.8217 23.498,19.9747 23.498,20.1637 L23.498,23.1397 C23.498,23.3287 23.344,23.4837 23.154,23.4837 L23.154,23.4837 Z" id="Fill-4"></path>
            <path d="M0.686,22.8257 L2.975,22.8257 L2.975,20.5367 L0.686,20.5367 L0.686,22.8257 Z M3.318,23.5127 L0.342,23.5127 C0.152,23.5127 0,23.3597 0,23.1697 L0,20.1947 C0,20.0037 0.152,19.8507 0.342,19.8507 L3.318,19.8507 C3.508,19.8507 3.662,20.0037 3.662,20.1947 L3.662,23.1697 C3.662,23.3597 3.508,23.5127 3.318,23.5127 L3.318,23.5127 Z" id="Fill-5"></path>
            <path d="M21.664,22.0098 C21.643,22.0098 21.619,22.0088 21.598,22.0038 C21.576,21.9988 21.553,21.9918 21.533,21.9838 C21.512,21.9768 21.492,21.9648 21.473,21.9528 C21.455,21.9398 21.435,21.9258 21.42,21.9098 C21.404,21.8948 21.391,21.8758 21.379,21.8578 C21.365,21.8388 21.355,21.8188 21.348,21.7978 C21.338,21.7778 21.332,21.7558 21.326,21.7338 C21.322,21.7108 21.32,21.6908 21.32,21.6668 C21.32,21.6448 21.322,21.6218 21.326,21.5988 C21.332,21.5778 21.338,21.5558 21.348,21.5348 C21.355,21.5138 21.365,21.4948 21.379,21.4778 C21.391,21.4568 21.404,21.4418 21.42,21.4248 C21.435,21.4088 21.455,21.3958 21.473,21.3808 C21.492,21.3698 21.512,21.3588 21.533,21.3498 C21.553,21.3428 21.576,21.3358 21.598,21.3308 C21.643,21.3228 21.685,21.3228 21.73,21.3308 C21.752,21.3358 21.775,21.3428 21.797,21.3498 C21.816,21.3588 21.838,21.3698 21.855,21.3808 C21.873,21.3958 21.893,21.4088 21.908,21.4248 C21.924,21.4418 21.937,21.4568 21.949,21.4778 C21.963,21.4948 21.973,21.5138 21.98,21.5348 C21.99,21.5558 21.996,21.5778 22.002,21.5988 C22.004,21.6218 22.01,21.6448 22.01,21.6668 C22.01,21.7558 21.973,21.8458 21.908,21.9098 C21.893,21.9258 21.873,21.9398 21.855,21.9528 C21.838,21.9648 21.816,21.9768 21.797,21.9838 C21.775,21.9918 21.752,21.9988 21.73,22.0038 C21.709,22.0088 21.685,22.0098 21.664,22.0098" id="Fill-6"></path>
            <path d="M4.3223,21.667 C4.3223,21.478 4.4763,21.324 4.6663,21.324 C4.8553,21.324 5.0093,21.478 5.0093,21.667 C5.0093,21.857 4.8553,22.01 4.6663,22.01 C4.4763,22.01 4.3223,21.857 4.3223,21.667 M7.1563,21.667 C7.1563,21.478 7.3083,21.324 7.4983,21.324 C7.6893,21.324 7.8423,21.478 7.8423,21.667 C7.8423,21.857 7.6893,22.01 7.4983,22.01 C7.3083,22.01 7.1563,21.857 7.1563,21.667 M9.9883,21.667 C9.9883,21.478 10.1423,21.324 10.3323,21.324 C10.5233,21.324 10.6763,21.478 10.6763,21.667 C10.6763,21.857 10.5233,22.01 10.3323,22.01 C10.1423,22.01 9.9883,21.857 9.9883,21.667 M12.8223,21.667 C12.8223,21.478 12.9763,21.324 13.1663,21.324 C13.3533,21.324 13.5083,21.478 13.5083,21.667 C13.5083,21.857 13.3533,22.01 13.1663,22.01 C12.9763,22.01 12.8223,21.857 12.8223,21.667 M15.6543,21.667 C15.6543,21.478 15.8083,21.324 15.9983,21.324 C16.1853,21.324 16.3423,21.478 16.3423,21.667 C16.3423,21.857 16.1853,22.01 15.9983,22.01 C15.8083,22.01 15.6543,21.857 15.6543,21.667 M18.4883,21.667 C18.4883,21.478 18.6423,21.324 18.8323,21.324 C19.0193,21.324 19.1763,21.478 19.1763,21.667 C19.1763,21.857 19.0193,22.01 18.8323,22.01 C18.6423,22.01 18.4883,21.857 18.4883,21.667" id="Fill-7"></path>
            <path d="M1.832,22.0098 C1.811,22.0098 1.787,22.0088 1.766,22.0038 C1.744,21.9988 1.723,21.9918 1.703,21.9838 C1.68,21.9768 1.662,21.9648 1.643,21.9528 C1.623,21.9398 1.605,21.9258 1.59,21.9098 C1.574,21.8948 1.561,21.8758 1.547,21.8578 C1.535,21.8388 1.523,21.8188 1.516,21.7978 C1.506,21.7778 1.502,21.7558 1.496,21.7338 C1.492,21.7108 1.49,21.6908 1.49,21.6668 C1.49,21.5758 1.527,21.4888 1.59,21.4248 C1.605,21.4088 1.623,21.3928 1.643,21.3808 C1.662,21.3698 1.68,21.3588 1.703,21.3498 C1.723,21.3428 1.744,21.3358 1.766,21.3308 C1.877,21.3078 1.994,21.3448 2.076,21.4248 C2.141,21.4888 2.176,21.5758 2.176,21.6668 C2.176,21.6908 2.174,21.7108 2.17,21.7338 C2.166,21.7558 2.158,21.7778 2.148,21.7978 C2.141,21.8188 2.131,21.8388 2.117,21.8578 C2.105,21.8758 2.092,21.8948 2.076,21.9098 C2.012,21.9738 1.922,22.0098 1.832,22.0098" id="Fill-8"></path>
            <path d="M1.4902,4.668 C1.4902,4.479 1.6422,4.325 1.8322,4.325 C2.0232,4.325 2.1762,4.479 2.1762,4.668 C2.1762,4.858 2.0232,5.012 1.8322,5.012 C1.6422,5.012 1.4902,4.858 1.4902,4.668 M1.4902,7.502 C1.4902,7.312 1.6422,7.158 1.8322,7.158 C2.0232,7.158 2.1762,7.312 2.1762,7.502 C2.1762,7.691 2.0232,7.845 1.8322,7.845 C1.6422,7.845 1.4902,7.691 1.4902,7.502 M1.4902,10.335 C1.4902,10.145 1.6422,9.991 1.8322,9.991 C2.0232,9.991 2.1762,10.145 2.1762,10.335 C2.1762,10.524 2.0232,10.678 1.8322,10.678 C1.6422,10.678 1.4902,10.524 1.4902,10.335 M1.4902,13.168 C1.4902,12.978 1.6422,12.824 1.8322,12.824 C2.0232,12.824 2.1762,12.978 2.1762,13.168 C2.1762,13.357 2.0232,13.511 1.8322,13.511 C1.6422,13.511 1.4902,13.357 1.4902,13.168 M1.4902,16.001 C1.4902,15.811 1.6422,15.657 1.8322,15.657 C2.0232,15.657 2.1762,15.811 2.1762,16.001 C2.1762,16.191 2.0232,16.344 1.8322,16.344 C1.6422,16.344 1.4902,16.191 1.4902,16.001 M1.4902,18.834 C1.4902,18.644 1.6422,18.491 1.8322,18.491 C2.0232,18.491 2.1762,18.644 2.1762,18.834 C2.1762,19.024 2.0232,19.177 1.8322,19.177 C1.6422,19.177 1.4902,19.024 1.4902,18.834" id="Fill-9"></path>
            <path d="M1.832,2.1787 C1.811,2.1787 1.787,2.1757 1.766,2.1717 C1.744,2.1657 1.723,2.1597 1.703,2.1537 C1.68,2.1437 1.662,2.1327 1.643,2.1207 C1.623,2.1077 1.605,2.0937 1.59,2.0767 C1.574,2.0617 1.561,2.0457 1.547,2.0257 C1.535,2.0067 1.523,1.9867 1.516,1.9657 C1.506,1.9457 1.502,1.9247 1.496,1.9017 C1.492,1.8807 1.49,1.8577 1.49,1.8347 C1.49,1.8127 1.492,1.7887 1.496,1.7687 C1.502,1.7457 1.506,1.7247 1.516,1.7047 C1.523,1.6837 1.535,1.6627 1.547,1.6457 C1.561,1.6267 1.574,1.6097 1.59,1.5927 C1.605,1.5757 1.623,1.5627 1.643,1.5487 C1.662,1.5367 1.68,1.5267 1.703,1.5197 C1.723,1.5107 1.744,1.5027 1.766,1.4987 C1.877,1.4757 1.994,1.5117 2.076,1.5927 C2.141,1.6577 2.176,1.7457 2.176,1.8347 C2.176,1.9247 2.141,2.0137 2.076,2.0767 C2.012,2.1417 1.922,2.1787 1.832,2.1787" id="Fill-10"></path>
            <path d="M4.3223,1.835 C4.3223,1.646 4.4763,1.492 4.6663,1.492 C4.8553,1.492 5.0093,1.646 5.0093,1.835 C5.0093,2.025 4.8553,2.179 4.6663,2.179 C4.4763,2.179 4.3223,2.025 4.3223,1.835 M7.1563,1.835 C7.1563,1.646 7.3083,1.492 7.4983,1.492 C7.6893,1.492 7.8423,1.646 7.8423,1.835 C7.8423,2.025 7.6893,2.179 7.4983,2.179 C7.3083,2.179 7.1563,2.025 7.1563,1.835 M9.9883,1.835 C9.9883,1.646 10.1423,1.492 10.3323,1.492 C10.5193,1.492 10.6763,1.646 10.6763,1.835 C10.6763,2.025 10.5193,2.179 10.3323,2.179 C10.1423,2.179 9.9883,2.025 9.9883,1.835 M12.8223,1.835 C12.8223,1.646 12.9763,1.492 13.1663,1.492 C13.3553,1.492 13.5083,1.646 13.5083,1.835 C13.5083,2.025 13.3553,2.179 13.1663,2.179 C12.9763,2.179 12.8223,2.025 12.8223,1.835 M15.6543,1.835 C15.6543,1.646 15.8083,1.492 15.9983,1.492 C16.1853,1.492 16.3403,1.646 16.3403,1.835 C16.3403,2.025 16.1853,2.179 15.9983,2.179 C15.8083,2.179 15.6543,2.025 15.6543,1.835 M18.4883,1.835 C18.4883,1.646 18.6423,1.492 18.8323,1.492 C19.0193,1.492 19.1763,1.646 19.1763,1.835 C19.1763,2.025 19.0193,2.179 18.8323,2.179 C18.6423,2.179 18.4883,2.025 18.4883,1.835" id="Fill-11"></path>
            <path d="M21.664,2.1787 C21.643,2.1787 21.619,2.1757 21.598,2.1717 C21.576,2.1657 21.553,2.1597 21.533,2.1537 C21.512,2.1437 21.492,2.1327 21.473,2.1207 C21.455,2.1077 21.435,2.0937 21.42,2.0767 C21.404,2.0617 21.391,2.0457 21.379,2.0257 C21.365,2.0067 21.355,1.9887 21.348,1.9657 C21.338,1.9457 21.332,1.9247 21.326,1.9017 C21.322,1.8807 21.32,1.8577 21.32,1.8347 C21.32,1.8127 21.322,1.7887 21.326,1.7687 C21.332,1.7457 21.338,1.7247 21.348,1.7047 C21.355,1.6837 21.365,1.6627 21.379,1.6457 C21.391,1.6267 21.404,1.6097 21.42,1.5927 C21.435,1.5757 21.455,1.5627 21.473,1.5487 C21.492,1.5367 21.512,1.5267 21.533,1.5197 C21.553,1.5107 21.576,1.5027 21.598,1.4987 C21.643,1.4897 21.685,1.4897 21.73,1.4987 C21.752,1.5027 21.775,1.5107 21.797,1.5197 C21.816,1.5267 21.838,1.5367 21.855,1.5487 C21.873,1.5627 21.893,1.5757 21.908,1.5927 C21.924,1.6097 21.937,1.6267 21.949,1.6457 C21.963,1.6627 21.973,1.6837 21.98,1.7047 C21.99,1.7247 21.996,1.7457 22.002,1.7687 C22.004,1.7887 22.01,1.8127 22.01,1.8347 C22.01,1.9267 21.973,2.0137 21.908,2.0767 C21.893,2.0937 21.873,2.1077 21.855,2.1207 C21.838,2.1327 21.816,2.1437 21.797,2.1537 C21.775,2.1597 21.752,2.1657 21.73,2.1717 C21.709,2.1757 21.685,2.1787 21.664,2.1787" id="Fill-12"></path>
            <path d="M21.3223,4.668 C21.3223,4.479 21.4743,4.325 21.6663,4.325 C21.8533,4.325 22.0093,4.479 22.0093,4.668 C22.0093,4.858 21.8533,5.012 21.6663,5.012 C21.4743,5.012 21.3223,4.858 21.3223,4.668 M21.3223,7.502 C21.3223,7.312 21.4743,7.158 21.6663,7.158 C21.8533,7.158 22.0093,7.312 22.0093,7.502 C22.0093,7.691 21.8533,7.845 21.6663,7.845 C21.4743,7.845 21.3223,7.691 21.3223,7.502 M21.3223,10.335 C21.3223,10.145 21.4743,9.991 21.6663,9.991 C21.8533,9.991 22.0093,10.145 22.0093,10.335 C22.0093,10.524 21.8533,10.678 21.6663,10.678 C21.4743,10.678 21.3223,10.524 21.3223,10.335 M21.3223,13.168 C21.3223,12.978 21.4743,12.824 21.6663,12.824 C21.8533,12.824 22.0093,12.978 22.0093,13.168 C22.0093,13.357 21.8533,13.511 21.6663,13.511 C21.4743,13.511 21.3223,13.357 21.3223,13.168 M21.3223,16.001 C21.3223,15.811 21.4743,15.657 21.6663,15.657 C21.8533,15.657 22.0093,15.811 22.0093,16.001 C22.0093,16.191 21.8533,16.344 21.6663,16.344 C21.4743,16.344 21.3223,16.191 21.3223,16.001 M21.3223,18.834 C21.3223,18.644 21.4743,18.491 21.6663,18.491 C21.8533,18.491 22.0093,18.644 22.0093,18.834 C22.0093,19.024 21.8533,19.177 21.6663,19.177 C21.4743,19.177 21.3223,19.024 21.3223,18.834" id="Fill-13"></path>
        </g>
    </g>
</svg>