<?xml version="1.0" encoding="UTF-8"?>
<svg width="32px" height="32px" viewBox="0 0 32 32" version="1.1" xmlns="http://www.w3.org/2000/svg" xmlns:xlink="http://www.w3.org/1999/xlink">
    <title>Icn / Amenity / Bonus Features / Exterior Bike Rack</title>
    <g id="Icn-/-Amenity-/-Bonus-Features-/-Exterior-Bike-Rack" stroke="none" stroke-width="1" fill="none" fill-rule="evenodd">
        <g id="Group" transform="translate(5.000000, 6.000000)" fill="#13284C">
            <path d="M13.4414,20.0283 C13.3634,20.0283 13.2874,19.9993 13.2284,19.9403 L11.9254,18.6363 C11.8084,18.5193 11.8084,18.3303 11.9254,18.2133 C12.0434,18.0953 12.2324,18.0953 12.3494,18.2133 L13.6524,19.5163 C13.7694,19.6333 13.7694,19.8243 13.6524,19.9403 C13.5934,19.9993 13.5174,20.0283 13.4414,20.0283" id="Fill-1"></path>
            <path d="M15.7363,20.0283 C15.6603,20.0283 15.5843,19.9993 15.5253,19.9403 C15.4083,19.8243 15.4083,19.6333 15.5253,19.5163 L16.8283,18.2133 C16.9453,18.0953 17.1363,18.0953 17.2543,18.2133 C17.3713,18.3303 17.3713,18.5193 17.2543,18.6363 L15.9493,19.9403 C15.8903,19.9993 15.8143,20.0283 15.7363,20.0283" id="Fill-3"></path>
            <g id="Group-7" transform="translate(0.000000, 9.028300)">
                <path d="M4.1269,0.6767 C2.1799,0.6767 0.5959,2.2607 0.5959,4.2077 C0.5959,6.1557 2.1799,7.7397 4.1269,7.7397 C6.0759,7.7397 7.6599,6.1557 7.6599,4.2077 C7.6599,2.2607 6.0759,0.6767 4.1269,0.6767 M4.1269,8.3347 C1.8519,8.3347 -0.0001,6.4837 -0.0001,4.2077 C-0.0001,1.9327 1.8519,0.0817 4.1269,0.0817 C6.4019,0.0817 8.2539,1.9327 8.2539,4.2077 C8.2539,6.4837 6.4019,8.3347 4.1269,8.3347" id="Fill-5"></path>
            </g>
            <path d="M17.4687,9.705 C15.5217,9.705 13.9357,11.289 13.9357,13.236 C13.9357,15.184 15.5217,16.768 17.4687,16.768 C19.4157,16.768 20.9997,15.184 20.9997,13.236 C20.9997,11.289 19.4157,9.705 17.4687,9.705 M17.4687,17.363 C15.1937,17.363 13.3417,15.512 13.3417,13.236 C13.3417,10.961 15.1937,9.11 17.4687,9.11 C19.7437,9.11 21.5957,10.961 21.5957,13.236 C21.5957,15.512 19.7437,17.363 17.4687,17.363" id="Fill-8"></path>
            <g id="Group-12" transform="translate(3.000000, 0.028300)">
                <polygon id="Fill-10" points="1.4101 13.2998 0.8441 13.1178 4.7401 0.9718 7.2171 0.9718 7.2171 1.5658 5.1741 1.5658"></polygon>
            </g>
            <polygon id="Fill-13" points="11.332 13.1103 10.809 12.8283 14.008 6.8823 14.531 7.1653"></polygon>
            <path d="M11.209,12.6718 L16.971,12.6718 L14.092,7.3208 L6.756,7.3208 L11.209,12.6718 Z M17.967,13.2668 L10.93,13.2668 L5.486,6.7268 L14.447,6.7268 L17.967,13.2668 Z" id="Fill-15"></path>
            <polygon id="Fill-17" points="13.972 7.0243 14.566 7.0243 14.566 5.0763 13.972 5.0763"></polygon>
            <polygon id="Fill-19" points="12.55 5.3743 15.361 5.3743 15.361 4.7793 12.55 4.7793"></polygon>
        </g>
    </g>
</svg>