<?xml version="1.0" encoding="UTF-8"?>
<svg width="32px" height="32px" viewBox="0 0 32 32" version="1.1" xmlns="http://www.w3.org/2000/svg" xmlns:xlink="http://www.w3.org/1999/xlink">
    <title>Icn / Amenity / Bonus Features / Inside Bike / Gear Storage Tray</title>
    <g id="Icn-/-Amenity-/-Bonus-Features-/-Inside-Bike-/-Gear-Storage-Tray" stroke="none" stroke-width="1" fill="none" fill-rule="evenodd">
        <g id="Group" transform="translate(6.000000, 7.000000)" fill="#13284C">
            <path d="M20.9324211,13.7697158 L0.405263158,13.7697158 C0.211963495,13.7697158 0.0552631579,13.9264161 0.0552631579,14.1197158 L0.0552631579,18.1723474 C0.0552631579,18.365647 0.211963495,18.5223474 0.405263158,18.5223474 L20.9324211,18.5223474 C21.1257207,18.5223474 21.2824211,18.365647 21.2824211,18.1723474 L21.2824211,14.1197158 C21.2824211,13.9264161 21.1257207,13.7697158 20.9324211,13.7697158 Z M20.582,14.469 L20.582,17.822 L0.755,17.822 L0.755,14.469 L20.582,14.469 Z" id="Stroke-1" fill-rule="nonzero"></path>
            <path d="M4.81811579,7.63481053 C3.11022105,7.63481053 1.72074737,9.02428421 1.72074737,10.7321789 C1.72074737,12.4389158 3.11022105,13.8307053 4.81811579,13.8307053 C6.52716842,13.8307053 7.91664211,12.4389158 7.91664211,10.7321789 C7.91664211,9.02428421 6.52716842,7.63481053 4.81811579,7.63481053 M4.81811579,14.3517579 C2.82190526,14.3517579 1.19853684,12.7272316 1.19853684,10.7321789 C1.19853684,8.73596842 2.82190526,7.11375789 4.81811579,7.11375789 C6.81432632,7.11375789 8.43769474,8.73596842 8.43769474,10.7321789 C8.43769474,12.7272316 6.81432632,14.3517579 4.81811579,14.3517579" id="Fill-3"></path>
            <path d="M16.5196842,7.63481053 C14.8106316,7.63481053 13.4211579,9.02428421 13.4211579,10.7321789 C13.4211579,12.4389158 14.8106316,13.8307053 16.5196842,13.8307053 C18.2275789,13.8307053 19.6170526,12.4389158 19.6170526,10.7321789 C19.6170526,9.02428421 18.2275789,7.63481053 16.5196842,7.63481053 M16.5196842,14.3517579 C14.5234737,14.3517579 12.9001053,12.7272316 12.9001053,10.7321789 C12.9001053,8.73596842 14.5234737,7.11375789 16.5196842,7.11375789 C18.5158947,7.11375789 20.1392632,8.73596842 20.1392632,10.7321789 C20.1392632,12.7272316 18.5158947,14.3517579 16.5196842,14.3517579" id="Fill-4"></path>
            <polygon id="Fill-5" points="5.06625263 10.8121895 4.56951579 10.6524 7.98646316 -0.000231578947 10.1586737 -0.000231578947 10.1586737 0.520821053 8.36741053 0.520821053"></polygon>
            <polygon id="Fill-6" points="11.1367474 10.6211368 10.6782211 10.3733474 13.4838 5.15934737 13.9423263 5.40713684"></polygon>
            <path d="M11.0292947,10.2367158 L16.0823474,10.2367158 L13.5569789,5.54376842 L7.12255789,5.54376842 L11.0292947,10.2367158 Z M16.9565579,10.7577684 L10.7849789,10.7577684 L6.00982105,5.02271579 L13.8684526,5.02271579 L16.9565579,10.7577684 Z" id="Fill-7"></path>
            <polygon id="Fill-8" points="13.4524211 5.28382105 13.9746316 5.28382105 13.9746316 3.57476842 13.4524211 3.57476842"></polygon>
            <polygon id="Fill-9" points="12.2065263 3.83645263 14.6716842 3.83645263 14.6716842 3.31424211 12.2065263 3.31424211"></polygon>
            <path d="M18.7224632,15.9294211 C18.9157628,15.9294211 19.0724632,16.0861214 19.0724632,16.2794211 C19.0724632,16.4485583 18.9524895,16.5896741 18.7930004,16.6223103 L18.7224632,16.6294211 L2.70993684,16.6294211 C2.51663718,16.6294211 2.35993684,16.4727207 2.35993684,16.2794211 C2.35993684,16.1102838 2.47991054,15.969168 2.63939963,15.9365318 L2.70993684,15.9294211 L18.7224632,15.9294211 Z" id="Stroke-10" fill-rule="nonzero"></path>
        </g>
    </g>
</svg>