<?xml version="1.0" encoding="UTF-8"?>
<svg width="32px" height="32px" viewBox="0 0 32 32" version="1.1" xmlns="http://www.w3.org/2000/svg" xmlns:xlink="http://www.w3.org/1999/xlink">
    <title>Icn / Amenity / Bonus Features / Leveling Jacks</title>
    <g id="Icn-/-Amenity-/-Bonus-Features-/-Leveling-Jacks" stroke="none" stroke-width="1" fill="none" fill-rule="evenodd">
        <g id="Group" transform="translate(4.000000, 8.000000)">
            <path d="M1.08053333,1.08053333 L1.08053333,1.62986667 C1.08053333,2.0352 1.40942222,2.36408889 1.81386667,2.36408889 L22.3632,2.36408889 C22.7676444,2.36408889 23.0956444,2.0352 23.0956444,1.62986667 L23.0956444,1.08053333 L1.08053333,1.08053333 Z M22.3632,3.2672 L1.81386667,3.2672 C0.911644444,3.2672 0.177422222,2.53297778 0.177422222,1.62986667 L0.177422222,0.628977778 C0.177422222,0.380088889 0.3792,0.177422222 0.628977778,0.177422222 L23.5472,0.177422222 C23.7969778,0.177422222 23.9987556,0.380088889 23.9987556,0.628977778 L23.9987556,1.62986667 C23.9987556,2.53297778 23.2645333,3.2672 22.3632,3.2672 L22.3632,3.2672 Z" id="Fill-1" fill="#13284C"></path>
            <path d="M23.5472,0.0774222222 C23.821457,0.0774222222 24.0488114,0.277622976 24.0915397,0.539566448 L24.0987556,0.628977778 L24.0987556,1.62986667 C24.0987556,2.53749052 23.3998653,3.28467472 22.5127141,3.36081149 L22.3632,3.3672 L1.81386667,3.3672 C0.906669804,3.3672 0.159901346,2.66791665 0.0838071505,1.77958491 L0.0774222222,1.62986667 L0.0774222222,0.628977778 C0.0774222222,0.35502306 0.277350964,0.127426834 0.539484845,0.0846471362 L0.628977778,0.0774222222 L23.5472,0.0774222222 Z M23.5472,0.277422222 L0.628977778,0.277422222 C0.459042207,0.277422222 0.317334163,0.39805222 0.284562395,0.558173228 L0.277422222,0.628977778 L0.277422222,1.62986667 C0.277422222,2.43052263 0.892279974,3.09009182 1.67423177,3.16090612 L1.81386667,3.1672 L22.3632,3.1672 C23.1625431,3.1672 23.8216935,2.55199632 23.8924654,1.76958398 L23.8987556,1.62986667 L23.8987556,0.628977778 C23.8987556,0.459229521 23.7782895,0.317380991 23.618066,0.284571175 L23.5472,0.277422222 Z M23.0956444,0.980533333 L23.1956444,1.08053333 L23.1956444,1.62986667 C23.1956444,2.05497839 22.8780374,2.40608504 22.4676104,2.45758599 L22.3632,2.46408889 L1.81386667,2.46408889 C1.38940899,2.46408889 1.03850631,2.14557048 0.987032871,1.73444627 L0.980533333,1.62986667 L0.980533333,1.08053333 L1.08053333,0.980533333 L23.0956444,0.980533333 Z M22.995,1.18 L1.18,1.18 L1.18053333,1.62986667 C1.18053333,1.94803573 1.41524292,2.21186618 1.72037775,2.25720586 L1.81386667,2.26408889 L22.3632,2.26408889 C22.6805888,2.26408889 22.9435884,2.02935403 22.9887835,1.72356975 L22.9956444,1.62986667 L22.995,1.18 Z" id="Stroke-3" fill="#FFFFFF" fill-rule="nonzero"></path>
            <path d="M12.6895111,6.012 L13.6130667,7.06444444 L16.9517333,3.26711111 L15.1010667,3.26711111 L12.6895111,6.012 Z M13.6130667,8.19955556 C13.4850667,8.19955556 13.3615111,8.14266667 13.2744,8.04577778 L11.7499556,6.30977778 C11.5988444,6.14 11.5988444,5.884 11.7499556,5.71422222 L14.5597333,2.51777778 C14.6441778,2.42 14.7677333,2.364 14.8975111,2.364 L17.9481778,2.364 C18.1268444,2.364 18.2868444,2.46888889 18.3597333,2.62977778 C18.4326222,2.79155556 18.4050667,2.98088889 18.2886222,3.11333333 L13.9535111,8.04577778 C13.8664,8.14266667 13.7437333,8.19955556 13.6130667,8.19955556 L13.6130667,8.19955556 Z" id="Fill-5" fill="#13284C"></path>
            <path d="M17.9481778,2.264 C18.1653396,2.264 18.3614129,2.39115795 18.4509067,2.58869966 C18.5272155,2.75806795 18.5132094,2.9521275 18.4180404,3.10603933 L18.3637346,3.17934942 L14.0278744,8.11263655 C13.9211532,8.23133672 13.7711869,8.29955556 13.6130667,8.29955556 C13.4882304,8.29955556 13.3668346,8.25560639 13.2684384,8.17703555 L13.1992592,8.1117616 L11.6752578,6.3762627 C11.5135163,6.19454136 11.4932986,5.93206128 11.6143303,5.7304605 L11.6748482,5.64820041 L14.484051,2.45241579 C14.5667458,2.35666397 14.6800137,2.29352896 14.8033968,2.27210502 L14.8975111,2.264 L17.9481778,2.264 Z M17.9481778,2.464 L14.8975111,2.464 C14.8217567,2.464 14.7489138,2.48851136 14.689453,2.53292397 L14.6348407,2.58379959 L11.8246533,5.78070714 C11.7240464,5.89374203 11.7096739,6.05597467 11.781815,6.18338162 L11.8250963,6.24379395 L13.3487633,7.97891901 C13.417548,8.05542436 13.5143759,8.09955556 13.6130667,8.09955556 C13.6886819,8.09955556 13.7616441,8.07496464 13.8222589,8.03057433 L13.8783987,7.97976169 L18.2135209,3.04730464 C18.3038534,2.94456001 18.3254667,2.79716117 18.2686451,2.67104429 C18.2229723,2.57022997 18.1338761,2.49821022 18.0291852,2.47343489 L17.9481778,2.464 Z M16.9517333,3.16711111 L17.026834,3.33314061 L13.6881673,7.13047394 L13.5379035,7.1304027 L12.6143479,6.07795826 L12.6143479,5.94599811 L15.1010667,3.16711111 L16.9517333,3.16711111 Z M15.1761916,3.333113 L12.822,6.012 L13.613,6.912 L16.734,3.363 L15.1761916,3.333113 Z" id="Stroke-7" fill="#FFFFFF" fill-rule="nonzero"></path>
            <path d="M10.5627556,8.43128889 L5.46408889,14.2312889 C5.34231111,14.3717333 5.28186667,14.5504 5.29342222,14.7352889 C5.30408889,14.9201778 5.38942222,15.0899556 5.52808889,15.2126222 C5.66675556,15.3352889 5.84542222,15.3948444 6.0312,15.3832889 C6.2152,15.3726222 6.38586667,15.2890667 6.50764444,15.1495111 L11.4880889,9.48462222 L10.5627556,8.43128889 Z M5.98497778,16.2881778 C5.59564444,16.2881778 5.22586667,16.1495111 4.93253333,15.8908444 C4.2712,15.3086222 4.20542222,14.2979556 4.78675556,13.6357333 L10.2240889,7.44995556 C10.3947556,7.25528889 10.7289778,7.25528889 10.9014222,7.44995556 L12.4276444,9.18595556 C12.5769778,9.35662222 12.5769778,9.61084444 12.4276444,9.7824 L7.18586667,15.7450667 C6.90497778,16.0659556 6.51386667,16.2570667 6.08897778,16.2846222 C6.05431111,16.2872889 6.01964444,16.2881778 5.98497778,16.2881778 L5.98497778,16.2881778 Z" id="Fill-9" fill="#13284C"></path>
            <path d="M10.1488951,7.3840322 C10.3359566,7.17066516 10.6764585,7.14695771 10.8989175,7.31263901 L10.9762762,7.38364656 L12.5029021,9.12010509 C12.6624102,9.3024 12.6823487,9.56282669 12.5626153,9.76549783 L12.5027493,9.84842467 L7.26111142,15.8109319 C6.96339556,16.151044 6.54789796,16.3550697 6.09664743,16.3843277 L5.98497778,16.3881778 C5.57040258,16.3881778 5.1773323,16.2400394 4.86645463,15.9659018 C4.20490867,15.3834924 4.10437721,14.3980532 4.60977366,13.69755 L4.71164717,13.5697126 L10.1488951,7.3840322 Z M10.8265683,7.51626455 C10.7105483,7.38529363 10.4940723,7.36892226 10.3540233,7.46695731 L10.2991973,7.51597624 L4.8619069,13.7017051 C4.31712835,14.3222862 4.37851211,15.2698658 4.99867294,15.8158408 C5.27302794,16.057772 5.61904662,16.1881778 5.98497778,16.1881778 L6.08250602,16.1848319 C6.43209884,16.1621595 6.75598778,16.0217412 7.00752555,15.7858959 L7.11076179,15.679042 L12.3522176,9.71674343 C12.4521098,9.60198624 12.4663801,9.44008056 12.3952327,9.31252233 L12.3525418,9.2519828 L10.8265683,7.51626455 Z M10.6378835,8.36526503 L11.5632168,9.41862377 L11.5632168,9.5506502 L6.58299123,15.2152596 C6.44365925,15.374932 6.24798063,15.4708898 6.0374081,15.483096 C5.8243469,15.4963486 5.61982581,15.4272861 5.4618315,15.2875219 C5.30217421,15.1462866 5.20571361,14.9512218 5.19361696,14.7415267 C5.18306052,14.5726236 5.22523945,14.4080165 5.31388479,14.266643 L5.3889833,14.165265 L10.48765,8.36526503 L10.6378835,8.36526503 Z M10.562,8.582 L5.53964202,14.2968001 C5.43506571,14.4174064 5.38330543,14.5702983 5.39325622,14.7295292 C5.40228226,14.8859807 5.47422195,15.0314587 5.59434628,15.1377226 C5.71226562,15.2420358 5.86455577,15.2934611 6.02541262,15.2834565 C6.15127102,15.2761604 6.26959282,15.2290217 6.36526822,15.1492848 L6.43254248,15.0834831 L11.354,9.484 L10.562,8.582 Z" id="Stroke-11" fill="#FFFFFF" fill-rule="nonzero"></path>
            <path d="M7.22417778,3.2672 L17.6686222,15.1489778 C17.7904,15.2885333 17.9601778,15.3720889 18.1459556,15.3836444 C18.3299556,15.3952 18.5086222,15.3347556 18.6499556,15.2120889 C18.9361778,14.9596444 18.9655111,14.5196444 18.7121778,14.2316444 L9.07484444,3.2672 L7.22417778,3.2672 Z M18.1930667,16.2876444 C18.1584,16.2876444 18.1237333,16.2867556 18.0872889,16.2849778 C17.6615111,16.2565333 17.2730667,16.0654222 16.9895111,15.7445333 L5.88906667,3.11342222 C5.77084444,2.98097778 5.74328889,2.79164444 5.81617778,2.62986667 C5.88906667,2.46897778 6.05084444,2.36408889 6.22773333,2.36408889 L9.2784,2.36408889 C9.40817778,2.36408889 9.53173333,2.42008889 9.61795556,2.51786667 L19.3912889,13.6360889 C19.9708444,14.2974222 19.9068444,15.3089778 19.2446222,15.8903111 C18.9495111,16.1489778 18.5797333,16.2876444 18.1930667,16.2876444 L18.1930667,16.2876444 Z" id="Fill-13" fill="#13284C"></path>
            <path d="M9.2784,2.26408889 C9.4051922,2.26408889 9.52710744,2.30782671 9.62471673,2.38646252 L9.69306275,2.45184463 L19.4664964,13.5701812 C20.0829849,14.2736589 20.0136646,15.3482703 19.3105368,15.9655126 C18.9979903,16.2394615 18.6050476,16.3876444 18.1930667,16.3876444 L18.0806232,16.3847554 C17.684955,16.3583224 17.3193422,16.1993993 17.0324085,15.9318105 L16.9143957,15.8105461 L5.81446402,3.18001385 C5.67024405,3.01844411 5.63569677,2.78700789 5.7250895,2.58860015 C5.80151735,2.41989965 5.9575467,2.30198357 6.13656849,2.27173613 L6.22773333,2.26408889 L9.2784,2.26408889 Z M9.2784,2.46408889 L6.22773333,2.46408889 C6.09038168,2.46408889 5.96406873,2.54575168 5.90735117,2.67094479 C5.86175027,2.77215655 5.86667401,2.88648076 5.91751439,2.98087089 L5.96418204,3.0474095 L17.0644464,15.6783163 C17.3304964,15.9793947 17.6943775,16.1585061 18.0921611,16.1850965 L18.1930667,16.1876444 C18.5564888,16.1876444 18.9025948,16.0571242 19.1786504,15.8151598 C19.7599435,15.3048703 19.8500409,14.4394806 19.4110464,13.8221013 L19.3161817,13.7021109 L9.54295188,2.58400628 C9.49248209,2.5267725 9.42571553,2.48793586 9.35287988,2.47209465 L9.2784,2.46408889 Z M9.07484444,3.1672 L9.14995444,3.20118115 L18.7872629,14.1655973 C19.0766175,14.4945478 19.0441852,14.9977213 18.7155028,15.2876108 C18.5546474,15.4272211 18.3502817,15.4966735 18.1397475,15.4834516 C17.9698694,15.472885 17.8112793,15.4094914 17.6833808,15.302896 L17.5935148,15.2149995 L7.14907032,3.33322174 L7.22417778,3.1672 L9.07484444,3.1672 Z M9.029,3.367 L7.445,3.367 L17.743969,15.0832293 C17.8273626,15.1787972 17.9367761,15.2435139 18.0586723,15.2706451 L18.1522234,15.2838411 C18.3103107,15.2937693 18.4631164,15.2418392 18.5838088,15.1370915 C18.801936,14.944706 18.8453695,14.625495 18.7003224,14.3841275 L18.6370678,14.2976633 L9.029,3.367 Z" id="Stroke-15" fill="#FFFFFF" fill-rule="nonzero"></path>
        </g>
    </g>
</svg>