<?xml version="1.0" encoding="UTF-8"?>
<svg width="32px" height="32px" viewBox="0 0 32 32" version="1.1" xmlns="http://www.w3.org/2000/svg" xmlns:xlink="http://www.w3.org/1999/xlink">
    <title>Icn / Amenity / Bonus Features / Mosquito Door Net</title>
    <g id="Icn-/-Amenity-/-Bonus-Features-/-Mosquito-Door-Net" stroke="none" stroke-width="1" fill="none" fill-rule="evenodd">
        <g id="Group" transform="translate(8.000000, 7.000000)" fill="#13284C" fill-rule="nonzero">
            <path d="M16.733,0.263 L0.069,0.263 L-0.081,0.413 L-0.081,18.184 L0.069,18.334 L16.733,18.334 L16.883,18.184 L16.883,0.413 L16.733,0.263 Z M16.582,0.563 L16.582,18.034 L0.218,18.034 L0.218,0.563 L16.582,0.563 Z" id="Stroke-3"></path>
            <path d="M15.804,1.254 L0.999,1.254 L0.849,1.404 L0.849,17.193 L0.999,17.343 L15.804,17.343 L15.954,17.193 L15.954,1.404 L15.804,1.254 Z M15.654,1.553 L15.654,17.042 L1.149,17.042 L1.149,1.553 L15.654,1.553 Z" id="Stroke-4"></path>
            <path d="M15.804,1.254 L0.999,1.254 L0.849,1.404 L0.849,17.193 L0.999,17.343 L15.804,17.343 L15.954,17.193 L15.954,1.404 L15.804,1.254 Z M15.654,1.553 L15.654,17.042 L1.149,17.042 L1.149,1.553 L15.654,1.553 Z" id="Stroke-5"></path>
            <path d="M2.14017519,1.29899978 C2.19827567,1.23994684 2.29324727,1.23917472 2.35230022,1.29727519 C2.39954257,1.34375557 2.4094852,1.41383348 2.38182512,1.47024053 L2.35402481,1.50940022 L1.66616602,2.19826602 C1.60758737,2.25684466 1.51261263,2.25684466 1.45403398,2.19826602 C1.40717107,2.1514031 1.39779848,2.08124668 1.42591623,2.02506636 L1.45403398,1.98613398 L2.14017519,1.29899978 Z" id="Stroke-6"></path>
            <path d="M2.779574,2.74159398 C2.83817474,2.68303744 2.93314948,2.68307326 2.99170602,2.741674 C3.03855125,2.78855459 3.04789737,2.85871454 3.01975843,2.91488425 L2.991626,2.95380602 L1.665626,4.27880602 C1.60702526,4.33736256 1.51205052,4.33732674 1.45349398,4.278726 C1.40664875,4.23184541 1.39730263,4.16168546 1.42544157,4.10551575 L1.453574,4.06659398 L2.779574,2.74159398 Z" id="Stroke-7"></path>
            <path d="M4.22017519,1.29899978 C4.27827567,1.23994684 4.37324727,1.23917472 4.43230022,1.29727519 C4.47954257,1.34375557 4.4894852,1.41383348 4.46182512,1.47024053 L4.43402481,1.50940022 L3.74616602,2.19826602 C3.68758737,2.25684466 3.59261263,2.25684466 3.53403398,2.19826602 C3.48717107,2.1514031 3.47779848,2.08124668 3.50591623,2.02506636 L3.53403398,1.98613398 L4.22017519,1.29899978 Z" id="Stroke-8"></path>
            <path d="M2.779574,4.82169398 C2.83817474,4.76313744 2.93314948,4.76317326 2.99170602,4.821774 C3.03855125,4.86865459 3.04789737,4.93881454 3.01975843,4.99498425 L2.991626,5.03390602 L1.665626,6.35890602 C1.60702526,6.41746256 1.51205052,6.41742674 1.45349398,6.358826 C1.40664875,6.31194541 1.39730263,6.24178546 1.42544157,6.18561575 L1.453574,6.14669398 L2.779574,4.82169398 Z" id="Stroke-9"></path>
            <path d="M4.859574,2.74159398 C4.91817474,2.68303744 5.01314948,2.68307326 5.07170602,2.741674 C5.11855125,2.78855459 5.12789737,2.85871454 5.09975843,2.91488425 L5.071626,2.95380602 L3.745626,4.27880602 C3.68702526,4.33736256 3.59205052,4.33732674 3.53349398,4.278726 C3.48664875,4.23184541 3.47730263,4.16168546 3.50544157,4.10551575 L3.533574,4.06659398 L4.859574,2.74159398 Z" id="Stroke-10"></path>
            <path d="M6.30027519,1.29899978 C6.35837567,1.23994684 6.45334727,1.23917472 6.51240022,1.29727519 C6.55964257,1.34375557 6.5695852,1.41383348 6.54192512,1.47024053 L6.51412481,1.50940022 L5.82626602,2.19826602 C5.76768737,2.25684466 5.67271263,2.25684466 5.61413398,2.19826602 C5.56727107,2.1514031 5.55789848,2.08124668 5.58601623,2.02506636 L5.61413398,1.98613398 L6.30027519,1.29899978 Z" id="Stroke-11"></path>
            <path d="M2.77953398,6.90083398 C2.83811263,6.84225534 2.93308737,6.84225534 2.99166602,6.90083398 C3.03852893,6.9476969 3.04790152,7.01785332 3.01978377,7.07403364 L2.99166602,7.11296602 L1.66566602,8.43896602 C1.60708737,8.49754466 1.51211263,8.49754466 1.45353398,8.43896602 C1.40667107,8.3921031 1.39729848,8.32194668 1.42541623,8.26576636 L1.45353398,8.22683398 L2.77953398,6.90083398 Z" id="Stroke-12"></path>
            <path d="M4.859574,4.82169398 C4.91817474,4.76313744 5.01314948,4.76317326 5.07170602,4.821774 C5.11855125,4.86865459 5.12789737,4.93881454 5.09975843,4.99498425 L5.071626,5.03390602 L3.745626,6.35890602 C3.68702526,6.41746256 3.59205052,6.41742674 3.53349398,6.358826 C3.48664875,6.31194541 3.47730263,6.24178546 3.50544157,6.18561575 L3.533574,6.14669398 L4.859574,4.82169398 Z" id="Stroke-13"></path>
            <path d="M6.939674,2.74159398 C6.99827474,2.68303744 7.09324948,2.68307326 7.15180602,2.741674 C7.19865125,2.78855459 7.20799737,2.85871454 7.17985843,2.91488425 L7.151726,2.95380602 L5.825726,4.27880602 C5.76712526,4.33736256 5.67215052,4.33732674 5.61359398,4.278726 C5.56674875,4.23184541 5.55740263,4.16168546 5.58554157,4.10551575 L5.613674,4.06659398 L6.939674,2.74159398 Z" id="Stroke-14"></path>
            <path d="M8.38037519,1.29899978 C8.43847567,1.23994684 8.53344727,1.23917472 8.59250022,1.29727519 C8.63974257,1.34375557 8.6496852,1.41383348 8.62202512,1.47024053 L8.59422481,1.50940022 L7.90636602,2.19826602 C7.84778737,2.25684466 7.75281263,2.25684466 7.69423398,2.19826602 C7.64737107,2.1514031 7.63799848,2.08124668 7.66611623,2.02506636 L7.69423398,1.98613398 L8.38037519,1.29899978 Z" id="Stroke-15"></path>
            <path d="M2.77953398,8.98093398 C2.83811263,8.92235534 2.93308737,8.92235534 2.99166602,8.98093398 C3.03852893,9.0277969 3.04790152,9.09795332 3.01978377,9.15413364 L2.99166602,9.19306602 L1.66566602,10.519066 C1.60708737,10.5776447 1.51211263,10.5776447 1.45353398,10.519066 C1.40667107,10.4722031 1.39729848,10.4020467 1.42541623,10.3458664 L1.45353398,10.306934 L2.77953398,8.98093398 Z" id="Stroke-16"></path>
            <path d="M4.85953398,6.90083398 C4.91811263,6.84225534 5.01308737,6.84225534 5.07166602,6.90083398 C5.11852893,6.9476969 5.12790152,7.01785332 5.09978377,7.07403364 L5.07166602,7.11296602 L3.74566602,8.43896602 C3.68708737,8.49754466 3.59211263,8.49754466 3.53353398,8.43896602 C3.48667107,8.3921031 3.47729848,8.32194668 3.50541623,8.26576636 L3.53353398,8.22683398 L4.85953398,6.90083398 Z" id="Stroke-17"></path>
            <path d="M6.939674,4.82169398 C6.99827474,4.76313744 7.09324948,4.76317326 7.15180602,4.821774 C7.19865125,4.86865459 7.20799737,4.93881454 7.17985843,4.99498425 L7.151726,5.03390602 L5.825726,6.35890602 C5.76712526,6.41746256 5.67215052,6.41742674 5.61359398,6.358826 C5.56674875,6.31194541 5.55740263,6.24178546 5.58554157,6.18561575 L5.613674,6.14669398 L6.939674,4.82169398 Z" id="Stroke-18"></path>
            <path d="M9.019774,2.74159398 C9.07837474,2.68303744 9.17334948,2.68307326 9.23190602,2.741674 C9.27875125,2.78855459 9.28809737,2.85871454 9.25995843,2.91488425 L9.231826,2.95380602 L7.905826,4.27880602 C7.84722526,4.33736256 7.75225052,4.33732674 7.69369398,4.278726 C7.64684875,4.23184541 7.63750263,4.16168546 7.66564157,4.10551575 L7.693774,4.06659398 L9.019774,2.74159398 Z" id="Stroke-19"></path>
            <path d="M10.4604752,1.29899978 C10.5185757,1.23994684 10.6135473,1.23917472 10.6726002,1.29727519 C10.7198426,1.34375557 10.7297852,1.41383348 10.7021251,1.47024053 L10.6743248,1.50940022 L9.98646602,2.19826602 C9.92788737,2.25684466 9.83291263,2.25684466 9.77433398,2.19826602 C9.72747107,2.1514031 9.71809848,2.08124668 9.74621623,2.02506636 L9.77433398,1.98613398 L10.4604752,1.29899978 Z" id="Stroke-20"></path>
            <path d="M2.779574,11.060994 C2.83817474,11.0024374 2.93314948,11.0024733 2.99170602,11.061074 C3.03855125,11.1079546 3.04789737,11.1781145 3.01975843,11.2342842 L2.991626,11.273206 L1.665626,12.598206 C1.60702526,12.6567626 1.51205052,12.6567267 1.45349398,12.598126 C1.40664875,12.5512454 1.39730263,12.4810855 1.42544157,12.4249158 L1.453574,12.385994 L2.779574,11.060994 Z" id="Stroke-21"></path>
            <path d="M4.85953398,8.98093398 C4.91811263,8.92235534 5.01308737,8.92235534 5.07166602,8.98093398 C5.11852893,9.0277969 5.12790152,9.09795332 5.09978377,9.15413364 L5.07166602,9.19306602 L3.74566602,10.519066 C3.68708737,10.5776447 3.59211263,10.5776447 3.53353398,10.519066 C3.48667107,10.4722031 3.47729848,10.4020467 3.50541623,10.3458664 L3.53353398,10.306934 L4.85953398,8.98093398 Z" id="Stroke-22"></path>
            <path d="M6.93963398,6.90083398 C6.99821263,6.84225534 7.09318737,6.84225534 7.15176602,6.90083398 C7.19862893,6.9476969 7.20800152,7.01785332 7.17988377,7.07403364 L7.15176602,7.11296602 L5.82576602,8.43896602 C5.76718737,8.49754466 5.67221263,8.49754466 5.61363398,8.43896602 C5.56677107,8.3921031 5.55739848,8.32194668 5.58551623,8.26576636 L5.61363398,8.22683398 L6.93963398,6.90083398 Z" id="Stroke-23"></path>
            <path d="M9.019774,4.82169398 C9.07837474,4.76313744 9.17334948,4.76317326 9.23190602,4.821774 C9.27875125,4.86865459 9.28809737,4.93881454 9.25995843,4.99498425 L9.231826,5.03390602 L7.905826,6.35890602 C7.84722526,6.41746256 7.75225052,6.41742674 7.69369398,6.358826 C7.64684875,6.31194541 7.63750263,6.24178546 7.66564157,6.18561575 L7.693774,6.14669398 L9.019774,4.82169398 Z" id="Stroke-24"></path>
            <path d="M11.099874,2.74159398 C11.1584747,2.68303744 11.2534495,2.68307326 11.312006,2.741674 C11.3588513,2.78855459 11.3681974,2.85871454 11.3400584,2.91488425 L11.311926,2.95380602 L9.985926,4.27880602 C9.92732526,4.33736256 9.83235052,4.33732674 9.77379398,4.278726 C9.72694875,4.23184541 9.71760263,4.16168546 9.74574157,4.10551575 L9.773874,4.06659398 L11.099874,2.74159398 Z" id="Stroke-25"></path>
            <path d="M12.5405752,1.29899978 C12.5986757,1.23994684 12.6936473,1.23917472 12.7527002,1.29727519 C12.7999426,1.34375557 12.8098852,1.41383348 12.7822251,1.47024053 L12.7544248,1.50940022 L12.066566,2.19826602 C12.0079874,2.25684466 11.9130126,2.25684466 11.854434,2.19826602 C11.8075711,2.1514031 11.7981985,2.08124668 11.8263162,2.02506636 L11.854434,1.98613398 L12.5405752,1.29899978 Z" id="Stroke-26"></path>
            <path d="M2.779574,13.140994 C2.83817474,13.0824374 2.93314948,13.0824733 2.99170602,13.141074 C3.03855125,13.1879546 3.04789737,13.2581145 3.01975843,13.3142842 L2.991626,13.353206 L1.665626,14.678206 C1.60702526,14.7367626 1.51205052,14.7367267 1.45349398,14.678126 C1.40664875,14.6312454 1.39730263,14.5610855 1.42544157,14.5049158 L1.453574,14.465994 L2.779574,13.140994 Z" id="Stroke-27"></path>
            <path d="M4.859574,11.060994 C4.91817474,11.0024374 5.01314948,11.0024733 5.07170602,11.061074 C5.11855125,11.1079546 5.12789737,11.1781145 5.09975843,11.2342842 L5.071626,11.273206 L3.745626,12.598206 C3.68702526,12.6567626 3.59205052,12.6567267 3.53349398,12.598126 C3.48664875,12.5512454 3.47730263,12.4810855 3.50544157,12.4249158 L3.533574,12.385994 L4.859574,11.060994 Z" id="Stroke-28"></path>
            <path d="M6.93963398,8.98093398 C6.99821263,8.92235534 7.09318737,8.92235534 7.15176602,8.98093398 C7.19862893,9.0277969 7.20800152,9.09795332 7.17988377,9.15413364 L7.15176602,9.19306602 L5.82576602,10.519066 C5.76718737,10.5776447 5.67221263,10.5776447 5.61363398,10.519066 C5.56677107,10.4722031 5.55739848,10.4020467 5.58551623,10.3458664 L5.61363398,10.306934 L6.93963398,8.98093398 Z" id="Stroke-29"></path>
            <path d="M9.01973398,6.90083398 C9.07831263,6.84225534 9.17328737,6.84225534 9.23186602,6.90083398 C9.27872893,6.9476969 9.28810152,7.01785332 9.25998377,7.07403364 L9.23186602,7.11296602 L7.90586602,8.43896602 C7.84728737,8.49754466 7.75231263,8.49754466 7.69373398,8.43896602 C7.64687107,8.3921031 7.63749848,8.32194668 7.66561623,8.26576636 L7.69373398,8.22683398 L9.01973398,6.90083398 Z" id="Stroke-30"></path>
            <path d="M11.099874,4.82169398 C11.1584747,4.76313744 11.2534495,4.76317326 11.312006,4.821774 C11.3588513,4.86865459 11.3681974,4.93881454 11.3400584,4.99498425 L11.311926,5.03390602 L9.985926,6.35890602 C9.92732526,6.41746256 9.83235052,6.41742674 9.77379398,6.358826 C9.72694875,6.31194541 9.71760263,6.24178546 9.74574157,6.18561575 L9.773874,6.14669398 L11.099874,4.82169398 Z" id="Stroke-31"></path>
            <path d="M13.179974,2.74159398 C13.2385747,2.68303744 13.3335495,2.68307326 13.392106,2.741674 C13.4389513,2.78855459 13.4482974,2.85871454 13.4201584,2.91488425 L13.392026,2.95380602 L12.066026,4.27880602 C12.0074253,4.33736256 11.9124505,4.33732674 11.853894,4.278726 C11.8070487,4.23184541 11.7977026,4.16168546 11.8258416,4.10551575 L11.853974,4.06659398 L13.179974,2.74159398 Z" id="Stroke-32"></path>
            <path d="M14.6205752,1.29899978 C14.6786757,1.23994684 14.7736473,1.23917472 14.8327002,1.29727519 C14.8799426,1.34375557 14.8898852,1.41383348 14.8622251,1.47024053 L14.8344248,1.50940022 L14.146566,2.19826602 C14.0879874,2.25684466 13.9930126,2.25684466 13.934434,2.19826602 C13.8875711,2.1514031 13.8781985,2.08124668 13.9063162,2.02506636 L13.934434,1.98613398 L14.6205752,1.29899978 Z" id="Stroke-33"></path>
            <path d="M2.779574,15.221094 C2.83817474,15.1625374 2.93314948,15.1625733 2.99170602,15.221174 C3.03855125,15.2680546 3.04789737,15.3382145 3.01975843,15.3943842 L2.991626,15.433306 L1.665626,16.758306 C1.60702526,16.8168626 1.51205052,16.8168267 1.45349398,16.758226 C1.40664875,16.7113454 1.39730263,16.6411855 1.42544157,16.5850158 L1.453574,16.546094 L2.779574,15.221094 Z" id="Stroke-34"></path>
            <path d="M4.859574,13.140994 C4.91817474,13.0824374 5.01314948,13.0824733 5.07170602,13.141074 C5.11855125,13.1879546 5.12789737,13.2581145 5.09975843,13.3142842 L5.071626,13.353206 L3.745626,14.678206 C3.68702526,14.7367626 3.59205052,14.7367267 3.53349398,14.678126 C3.48664875,14.6312454 3.47730263,14.5610855 3.50544157,14.5049158 L3.533574,14.465994 L4.859574,13.140994 Z" id="Stroke-35"></path>
            <path d="M6.939674,11.060994 C6.99827474,11.0024374 7.09324948,11.0024733 7.15180602,11.061074 C7.19865125,11.1079546 7.20799737,11.1781145 7.17985843,11.2342842 L7.151726,11.273206 L5.825726,12.598206 C5.76712526,12.6567626 5.67215052,12.6567267 5.61359398,12.598126 C5.56674875,12.5512454 5.55740263,12.4810855 5.58554157,12.4249158 L5.613674,12.385994 L6.939674,11.060994 Z" id="Stroke-36"></path>
            <path d="M9.01973398,8.98093398 C9.07831263,8.92235534 9.17328737,8.92235534 9.23186602,8.98093398 C9.27872893,9.0277969 9.28810152,9.09795332 9.25998377,9.15413364 L9.23186602,9.19306602 L7.90586602,10.519066 C7.84728737,10.5776447 7.75231263,10.5776447 7.69373398,10.519066 C7.64687107,10.4722031 7.63749848,10.4020467 7.66561623,10.3458664 L7.69373398,10.306934 L9.01973398,8.98093398 Z" id="Stroke-37"></path>
            <path d="M11.099834,6.90083398 C11.1584126,6.84225534 11.2533874,6.84225534 11.311966,6.90083398 C11.3588289,6.9476969 11.3682015,7.01785332 11.3400838,7.07403364 L11.311966,7.11296602 L9.98596602,8.43896602 C9.92738737,8.49754466 9.83241263,8.49754466 9.77383398,8.43896602 C9.72697107,8.3921031 9.71759848,8.32194668 9.74571623,8.26576636 L9.77383398,8.22683398 L11.099834,6.90083398 Z" id="Stroke-38"></path>
            <path d="M13.179974,4.82169398 C13.2385747,4.76313744 13.3335495,4.76317326 13.392106,4.821774 C13.4389513,4.86865459 13.4482974,4.93881454 13.4201584,4.99498425 L13.392026,5.03390602 L12.066026,6.35890602 C12.0074253,6.41746256 11.9124505,6.41742674 11.853894,6.358826 C11.8070487,6.31194541 11.7977026,6.24178546 11.8258416,6.18561575 L11.853974,6.14669398 L13.179974,4.82169398 Z" id="Stroke-39"></path>
            <path d="M15.259974,2.74159398 C15.3185747,2.68303744 15.4135495,2.68307326 15.472106,2.741674 C15.5189513,2.78855459 15.5282974,2.85871454 15.5001584,2.91488425 L15.472026,2.95380602 L14.146026,4.27880602 C14.0874253,4.33736256 13.9924505,4.33732674 13.933894,4.278726 C13.8870487,4.23184541 13.8777026,4.16168546 13.9058416,4.10551575 L13.933974,4.06659398 L15.259974,2.74159398 Z" id="Stroke-40"></path>
            <path d="M4.859574,15.221094 C4.91817474,15.1625374 5.01314948,15.1625733 5.07170602,15.221174 C5.11855125,15.2680546 5.12789737,15.3382145 5.09975843,15.3943842 L5.071626,15.433306 L3.745626,16.758306 C3.68702526,16.8168626 3.59205052,16.8168267 3.53349398,16.758226 C3.48664875,16.7113454 3.47730263,16.6411855 3.50544157,16.5850158 L3.533574,16.546094 L4.859574,15.221094 Z" id="Stroke-41"></path>
            <path d="M6.939674,13.140994 C6.99827474,13.0824374 7.09324948,13.0824733 7.15180602,13.141074 C7.19865125,13.1879546 7.20799737,13.2581145 7.17985843,13.3142842 L7.151726,13.353206 L5.825726,14.678206 C5.76712526,14.7367626 5.67215052,14.7367267 5.61359398,14.678126 C5.56674875,14.6312454 5.55740263,14.5610855 5.58554157,14.5049158 L5.613674,14.465994 L6.939674,13.140994 Z" id="Stroke-42"></path>
            <path d="M9.019774,11.060994 C9.07837474,11.0024374 9.17334948,11.0024733 9.23190602,11.061074 C9.27875125,11.1079546 9.28809737,11.1781145 9.25995843,11.2342842 L9.231826,11.273206 L7.905826,12.598206 C7.84722526,12.6567626 7.75225052,12.6567267 7.69369398,12.598126 C7.64684875,12.5512454 7.63750263,12.4810855 7.66564157,12.4249158 L7.693774,12.385994 L9.019774,11.060994 Z" id="Stroke-43"></path>
            <path d="M11.099834,8.98093398 C11.1584126,8.92235534 11.2533874,8.92235534 11.311966,8.98093398 C11.3588289,9.0277969 11.3682015,9.09795332 11.3400838,9.15413364 L11.311966,9.19306602 L9.98596602,10.519066 C9.92738737,10.5776447 9.83241263,10.5776447 9.77383398,10.519066 C9.72697107,10.4722031 9.71759848,10.4020467 9.74571623,10.3458664 L9.77383398,10.306934 L11.099834,8.98093398 Z" id="Stroke-44"></path>
            <path d="M13.179934,6.90083398 C13.2385126,6.84225534 13.3334874,6.84225534 13.392066,6.90083398 C13.4389289,6.9476969 13.4483015,7.01785332 13.4201838,7.07403364 L13.392066,7.11296602 L12.066066,8.43896602 C12.0074874,8.49754466 11.9125126,8.49754466 11.853934,8.43896602 C11.8070711,8.3921031 11.7976985,8.32194668 11.8258162,8.26576636 L11.853934,8.22683398 L13.179934,6.90083398 Z" id="Stroke-45"></path>
            <path d="M15.259974,4.82169398 C15.3185747,4.76313744 15.4135495,4.76317326 15.472106,4.821774 C15.5189513,4.86865459 15.5282974,4.93881454 15.5001584,4.99498425 L15.472026,5.03390602 L14.146026,6.35890602 C14.0874253,6.41746256 13.9924505,6.41742674 13.933894,6.358826 C13.8870487,6.31194541 13.8777026,6.24178546 13.9058416,6.18561575 L13.933974,6.14669398 L15.259974,4.82169398 Z" id="Stroke-46"></path>
            <path d="M6.939674,15.221094 C6.99827474,15.1625374 7.09324948,15.1625733 7.15180602,15.221174 C7.19865125,15.2680546 7.20799737,15.3382145 7.17985843,15.3943842 L7.151726,15.433306 L5.825726,16.758306 C5.76712526,16.8168626 5.67215052,16.8168267 5.61359398,16.758226 C5.56674875,16.7113454 5.55740263,16.6411855 5.58554157,16.5850158 L5.613674,16.546094 L6.939674,15.221094 Z" id="Stroke-47"></path>
            <path d="M9.019774,13.140994 C9.07837474,13.0824374 9.17334948,13.0824733 9.23190602,13.141074 C9.27875125,13.1879546 9.28809737,13.2581145 9.25995843,13.3142842 L9.231826,13.353206 L7.905826,14.678206 C7.84722526,14.7367626 7.75225052,14.7367267 7.69369398,14.678126 C7.64684875,14.6312454 7.63750263,14.5610855 7.66564157,14.5049158 L7.693774,14.465994 L9.019774,13.140994 Z" id="Stroke-48"></path>
            <path d="M11.099874,11.060994 C11.1584747,11.0024374 11.2534495,11.0024733 11.312006,11.061074 C11.3588513,11.1079546 11.3681974,11.1781145 11.3400584,11.2342842 L11.311926,11.273206 L9.985926,12.598206 C9.92732526,12.6567626 9.83235052,12.6567267 9.77379398,12.598126 C9.72694875,12.5512454 9.71760263,12.4810855 9.74574157,12.4249158 L9.773874,12.385994 L11.099874,11.060994 Z" id="Stroke-49"></path>
            <path d="M13.179934,8.98093398 C13.2385126,8.92235534 13.3334874,8.92235534 13.392066,8.98093398 C13.4389289,9.0277969 13.4483015,9.09795332 13.4201838,9.15413364 L13.392066,9.19306602 L12.066066,10.519066 C12.0074874,10.5776447 11.9125126,10.5776447 11.853934,10.519066 C11.8070711,10.4722031 11.7976985,10.4020467 11.8258162,10.3458664 L11.853934,10.306934 L13.179934,8.98093398 Z" id="Stroke-50"></path>
            <path d="M15.259934,6.90083398 C15.3185126,6.84225534 15.4134874,6.84225534 15.472066,6.90083398 C15.5189289,6.9476969 15.5283015,7.01785332 15.5001838,7.07403364 L15.472066,7.11296602 L14.146066,8.43896602 C14.0874874,8.49754466 13.9925126,8.49754466 13.933934,8.43896602 C13.8870711,8.3921031 13.8776985,8.32194668 13.9058162,8.26576636 L13.933934,8.22683398 L15.259934,6.90083398 Z" id="Stroke-51"></path>
            <path d="M9.019774,15.221094 C9.07837474,15.1625374 9.17334948,15.1625733 9.23190602,15.221174 C9.27875125,15.2680546 9.28809737,15.3382145 9.25995843,15.3943842 L9.231826,15.433306 L7.905826,16.758306 C7.84722526,16.8168626 7.75225052,16.8168267 7.69369398,16.758226 C7.64684875,16.7113454 7.63750263,16.6411855 7.66564157,16.5850158 L7.693774,16.546094 L9.019774,15.221094 Z" id="Stroke-52"></path>
            <path d="M11.099874,13.140994 C11.1584747,13.0824374 11.2534495,13.0824733 11.312006,13.141074 C11.3588513,13.1879546 11.3681974,13.2581145 11.3400584,13.3142842 L11.311926,13.353206 L9.985926,14.678206 C9.92732526,14.7367626 9.83235052,14.7367267 9.77379398,14.678126 C9.72694875,14.6312454 9.71760263,14.5610855 9.74574157,14.5049158 L9.773874,14.465994 L11.099874,13.140994 Z" id="Stroke-53"></path>
            <path d="M13.179974,11.060994 C13.2385747,11.0024374 13.3335495,11.0024733 13.392106,11.061074 C13.4389513,11.1079546 13.4482974,11.1781145 13.4201584,11.2342842 L13.392026,11.273206 L12.066026,12.598206 C12.0074253,12.6567626 11.9124505,12.6567267 11.853894,12.598126 C11.8070487,12.5512454 11.7977026,12.4810855 11.8258416,12.4249158 L11.853974,12.385994 L13.179974,11.060994 Z" id="Stroke-54"></path>
            <path d="M15.259934,8.98093398 C15.3185126,8.92235534 15.4134874,8.92235534 15.472066,8.98093398 C15.5189289,9.0277969 15.5283015,9.09795332 15.5001838,9.15413364 L15.472066,9.19306602 L14.146066,10.519066 C14.0874874,10.5776447 13.9925126,10.5776447 13.933934,10.519066 C13.8870711,10.4722031 13.8776985,10.4020467 13.9058162,10.3458664 L13.933934,10.306934 L15.259934,8.98093398 Z" id="Stroke-55"></path>
            <path d="M11.099874,15.221094 C11.1584747,15.1625374 11.2534495,15.1625733 11.312006,15.221174 C11.3588513,15.2680546 11.3681974,15.3382145 11.3400584,15.3943842 L11.311926,15.433306 L9.985926,16.758306 C9.92732526,16.8168626 9.83235052,16.8168267 9.77379398,16.758226 C9.72694875,16.7113454 9.71760263,16.6411855 9.74574157,16.5850158 L9.773874,16.546094 L11.099874,15.221094 Z" id="Stroke-56"></path>
            <path d="M13.179974,13.140994 C13.2385747,13.0824374 13.3335495,13.0824733 13.392106,13.141074 C13.4389513,13.1879546 13.4482974,13.2581145 13.4201584,13.3142842 L13.392026,13.353206 L12.066026,14.678206 C12.0074253,14.7367626 11.9124505,14.7367267 11.853894,14.678126 C11.8070487,14.6312454 11.7977026,14.5610855 11.8258416,14.5049158 L11.853974,14.465994 L13.179974,13.140994 Z" id="Stroke-57"></path>
            <path d="M15.259974,11.060994 C15.3185747,11.0024374 15.4135495,11.0024733 15.472106,11.061074 C15.5189513,11.1079546 15.5282974,11.1781145 15.5001584,11.2342842 L15.472026,11.273206 L14.146026,12.598206 C14.0874253,12.6567626 13.9924505,12.6567267 13.933894,12.598126 C13.8870487,12.5512454 13.8777026,12.4810855 13.9058416,12.4249158 L13.933974,12.385994 L15.259974,11.060994 Z" id="Stroke-58"></path>
            <path d="M13.179974,15.221094 C13.2385747,15.1625374 13.3335495,15.1625733 13.392106,15.221174 C13.4389513,15.2680546 13.4482974,15.3382145 13.4201584,15.3943842 L13.392026,15.433306 L12.066026,16.758306 C12.0074253,16.8168626 11.9124505,16.8168267 11.853894,16.758226 C11.8070487,16.7113454 11.7977026,16.6411855 11.8258416,16.5850158 L11.853974,16.546094 L13.179974,15.221094 Z" id="Stroke-59"></path>
            <path d="M15.259974,15.221094 C15.3185747,15.1625374 15.4135495,15.1625733 15.472106,15.221174 C15.5189513,15.2680546 15.5282974,15.3382145 15.5001584,15.3943842 L15.472026,15.433306 L14.146026,16.758306 C14.0874253,16.8168626 13.9924505,16.8168267 13.933894,16.758226 C13.8870487,16.7113454 13.8777026,16.6411855 13.9058416,16.5850158 L13.933974,16.546094 L15.259974,15.221094 Z" id="Stroke-60"></path>
            <path d="M15.259974,13.140994 C15.3185747,13.0824374 15.4135495,13.0824733 15.472106,13.141074 C15.5189513,13.1879546 15.5282974,13.2581145 15.5001584,13.3142842 L15.472026,13.353206 L14.146026,14.678206 C14.0874253,14.7367626 13.9924505,14.7367267 13.933894,14.678126 C13.8870487,14.6312454 13.8777026,14.5610855 13.9058416,14.5049158 L13.933974,14.465994 L15.259974,13.140994 Z" id="Stroke-61"></path>
            <path d="M0.892933983,14.732734 C0.939796898,14.6858711 1.00995332,14.6764985 1.06613364,14.7046162 L1.10506602,14.732734 L3.46002058,17.0866886 C3.51862431,17.1452421 3.51866498,17.2402169 3.46011143,17.2988206 C3.41326859,17.3457036 3.34311619,17.3551062 3.28692384,17.3270125 L3.24797942,17.2989114 L0.892933983,14.944866 C0.834355339,14.8862874 0.834355339,14.7913126 0.892933983,14.732734 Z" id="Stroke-62"></path>
            <path d="M0.892933983,12.652634 C0.939796898,12.6057711 1.00995332,12.5963985 1.06613364,12.6245162 L1.10506602,12.652634 L5.53911147,17.0876795 C5.597665,17.1462832 5.59762429,17.2412579 5.53902054,17.2998115 C5.49213755,17.3466543 5.42197711,17.3559968 5.36580885,17.327855 L5.32688853,17.2997205 L0.892933983,12.864766 C0.834355339,12.8061874 0.834355339,12.7112126 0.892933983,12.652634 Z" id="Stroke-63"></path>
            <path d="M0.892933983,10.572534 C0.939796898,10.5256711 1.00995332,10.5162985 1.06613364,10.5444162 L1.10506602,10.572534 L7.61911147,17.0875795 C7.677665,17.1461832 7.67762429,17.2411579 7.61902054,17.2997115 C7.57213755,17.3465543 7.50197711,17.3558968 7.44580885,17.327755 L7.40688853,17.2996205 L0.892933983,10.784666 C0.834355339,10.7260874 0.834355339,10.6311126 0.892933983,10.572534 Z" id="Stroke-64"></path>
            <path d="M0.892933983,8.49243398 C0.939796898,8.44557107 1.00995332,8.43619848 1.06613364,8.46431623 L1.10506602,8.49243398 L9.69911147,17.0874795 C9.757665,17.1460832 9.75762429,17.2410579 9.69902054,17.2996115 C9.65213755,17.3464543 9.58197711,17.3557968 9.52580885,17.327655 L9.48688853,17.2995205 L0.892933983,8.70456602 C0.834355339,8.64598737 0.834355339,8.55101263 0.892933983,8.49243398 Z" id="Stroke-65"></path>
            <path d="M0.892933983,6.41233398 C0.939796898,6.36547107 1.00995332,6.35609848 1.06613364,6.38421623 L1.10506602,6.41233398 L11.7791115,17.0873795 C11.837665,17.1459832 11.8376243,17.2409579 11.7790205,17.2995115 C11.7321375,17.3463543 11.6619771,17.3556968 11.6058089,17.327555 L11.5668885,17.2994205 L0.892933983,6.62446602 C0.834355339,6.56588737 0.834355339,6.47091263 0.892933983,6.41233398 Z" id="Stroke-66"></path>
            <path d="M0.892933983,4.33233398 C0.939796898,4.28547107 1.00995332,4.27609848 1.06613364,4.30421623 L1.10506602,4.33233398 L13.8591115,17.0873795 C13.917665,17.1459832 13.9176243,17.2409579 13.8590205,17.2995115 C13.8121375,17.3463543 13.7419771,17.3556968 13.6858089,17.327555 L13.6468885,17.2994205 L0.892933983,4.54446602 C0.834355339,4.48588737 0.834355339,4.39091263 0.892933983,4.33233398 Z" id="Stroke-67"></path>
            <path d="M0.892933983,2.25223398 C0.939796898,2.20537107 1.00995332,2.19599848 1.06613364,2.22411623 L1.10506602,2.25223398 L15.9101126,17.0582806 C15.9686655,17.116885 15.9686238,17.2118597 15.9100194,17.2704126 C15.8631359,17.3172549 15.7929753,17.3265967 15.7368074,17.2984542 L15.6978874,17.2703194 L0.892933983,2.46436602 C0.834355339,2.40578737 0.834355339,2.31081263 0.892933983,2.25223398 Z" id="Stroke-68"></path>
            <path d="M2.02079978,1.29727519 C2.06804214,1.25079481 2.13827244,1.2419929 2.19422231,1.27056645 L2.23292481,1.29899978 L15.9101126,14.9781806 C15.9686655,15.036785 15.9686238,15.1317597 15.9100194,15.1903126 C15.8631359,15.2371549 15.7929753,15.2464967 15.7368074,15.2183542 L15.6978874,15.1902194 L2.01907519,1.50940022 C1.96097472,1.45034727 1.96174684,1.35537567 2.02079978,1.29727519 Z" id="Stroke-69"></path>
            <path d="M4.10089978,1.29727519 C4.14814214,1.25079481 4.21837244,1.2419929 4.27432231,1.27056645 L4.31302481,1.29899978 L15.9102126,12.8981806 C15.9687655,12.956785 15.9687238,13.0517597 15.9101194,13.1103126 C15.8632359,13.1571549 15.7930753,13.1664967 15.7369074,13.1383542 L15.6979874,13.1102194 L4.09917519,1.50940022 C4.04107472,1.45034727 4.04184684,1.35537567 4.10089978,1.29727519 Z" id="Stroke-70"></path>
            <path d="M6.18089978,1.29727519 C6.22814214,1.25079481 6.29837244,1.2419929 6.35432231,1.27056645 L6.39302481,1.29899978 L15.9102126,10.8181806 C15.9687655,10.876785 15.9687238,10.9717597 15.9101194,11.0303126 C15.8632359,11.0771549 15.7930753,11.0864967 15.7369074,11.0583542 L15.6979874,11.0302194 L6.17917519,1.50940022 C6.12107472,1.45034727 6.12184684,1.35537567 6.18089978,1.29727519 Z" id="Stroke-71"></path>
            <path d="M8.26099978,1.29727519 C8.30824214,1.25079481 8.37847244,1.2419929 8.43442231,1.27056645 L8.47312481,1.29899978 L15.909266,8.73613398 C15.9678447,8.79471263 15.9678447,8.88968737 15.909266,8.94826602 C15.8624031,8.99512893 15.7922467,9.00450152 15.7360664,8.97638377 L15.697134,8.94826602 L8.25927519,1.50940022 C8.20117472,1.45034727 8.20194684,1.35537567 8.26099978,1.29727519 Z" id="Stroke-72"></path>
            <path d="M10.3410998,1.29727519 C10.3883421,1.25079481 10.4585724,1.2419929 10.5145223,1.27056645 L10.5532248,1.29899978 L15.909366,6.65613398 C15.9679447,6.71471263 15.9679447,6.80968737 15.909366,6.86826602 C15.8625031,6.91512893 15.7923467,6.92450152 15.7361664,6.89638377 L15.697234,6.86826602 L10.3393752,1.50940022 C10.2812747,1.45034727 10.2820468,1.35537567 10.3410998,1.29727519 Z" id="Stroke-73"></path>
            <path d="M12.4211998,1.29727519 C12.4684421,1.25079481 12.5386724,1.2419929 12.5946223,1.27056645 L12.6333248,1.29899978 L15.909466,4.57613398 C15.9680447,4.63471263 15.9680447,4.72968737 15.909466,4.78826602 C15.8626031,4.83512893 15.7924467,4.84450152 15.7362664,4.81638377 L15.697334,4.78826602 L12.4194752,1.50940022 C12.3613747,1.45034727 12.3621468,1.35537567 12.4211998,1.29727519 Z" id="Stroke-74"></path>
            <path d="M14.5011998,1.29727519 C14.5484421,1.25079481 14.6186724,1.2419929 14.6746223,1.27056645 L14.7133248,1.29899978 L15.909466,2.49613398 C15.9680447,2.55471263 15.9680447,2.64968737 15.909466,2.70826602 C15.8626031,2.75512893 15.7924467,2.76450152 15.7362664,2.73638377 L15.697334,2.70826602 L14.4994752,1.50940022 C14.4413747,1.45034727 14.4421468,1.35537567 14.5011998,1.29727519 Z" id="Stroke-75"></path>
        </g>
    </g>
</svg>