<?xml version="1.0" encoding="UTF-8"?>
<svg width="32px" height="32px" viewBox="0 0 32 32" version="1.1" xmlns="http://www.w3.org/2000/svg" xmlns:xlink="http://www.w3.org/1999/xlink">
    <title>Icn / Amenity / Bonus Features / Roof Deck</title>
    <g id="Icn-/-Amenity-/-Bonus-Features-/-Roof-Deck" stroke="none" stroke-width="1" fill="none" fill-rule="evenodd">
        <g id="Group" transform="translate(7.000000, 8.000000)" fill="#13284C" fill-rule="nonzero">
            <path d="M3.004,-0.0003 L0.35,-0.0003 C0.156700338,-0.0003 5.55111512e-17,0.156400338 5.55111512e-17,0.3497 L5.55111512e-17,16.3227 C5.55111512e-17,16.5159997 0.156700338,16.6727 0.35,16.6727 L3.004,16.6727 C3.19729966,16.6727 3.354,16.5159997 3.354,16.3227 L3.354,0.3497 C3.354,0.156400338 3.19729966,-0.0003 3.004,-0.0003 Z M2.654,0.699 L2.654,15.972 L0.7,15.972 L0.7,0.699 L2.654,0.699 Z" id="Stroke-1"></path>
            <path d="M5.661,-0.0003 L3.005,-0.0003 C2.81170034,-0.0003 2.655,0.156400338 2.655,0.3497 L2.655,16.3227 C2.655,16.5159997 2.81170034,16.6727 3.005,16.6727 L5.661,16.6727 C5.85429966,16.6727 6.011,16.5159997 6.011,16.3227 L6.011,0.3497 C6.011,0.156400338 5.85429966,-0.0003 5.661,-0.0003 Z M5.311,0.699 L5.311,15.972 L3.355,15.972 L3.355,0.699 L5.311,0.699 Z" id="Stroke-3"></path>
            <path d="M8.315,-0.0003 L5.661,-0.0003 C5.46770034,-0.0003 5.311,0.156400338 5.311,0.3497 L5.311,16.3227 C5.311,16.5159997 5.46770034,16.6727 5.661,16.6727 L8.315,16.6727 C8.50829966,16.6727 8.665,16.5159997 8.665,16.3227 L8.665,0.3497 C8.665,0.156400338 8.50829966,-0.0003 8.315,-0.0003 Z M7.965,0.699 L7.965,15.972 L6.01,15.972 L6.01,0.699 L7.965,0.699 Z" id="Stroke-4"></path>
            <path d="M10.971,-0.0003 L8.315,-0.0003 C8.12170034,-0.0003 7.965,0.156400338 7.965,0.3497 L7.965,16.3227 C7.965,16.5159997 8.12170034,16.6727 8.315,16.6727 L10.971,16.6727 C11.1642997,16.6727 11.321,16.5159997 11.321,16.3227 L11.321,0.3497 C11.321,0.156400338 11.1642997,-0.0003 10.971,-0.0003 Z M10.621,0.699 L10.621,15.972 L8.665,15.972 L8.665,0.699 L10.621,0.699 Z" id="Stroke-5"></path>
            <path d="M13.627,-0.0003 L10.971,-0.0003 C10.7777003,-0.0003 10.621,0.156400338 10.621,0.3497 L10.621,16.3227 C10.621,16.5159997 10.7777003,16.6727 10.971,16.6727 L13.627,16.6727 C13.8202997,16.6727 13.977,16.5159997 13.977,16.3227 L13.977,0.3497 C13.977,0.156400338 13.8202997,-0.0003 13.627,-0.0003 Z M13.277,0.699 L13.277,15.972 L11.321,15.972 L11.321,0.699 L13.277,0.699 Z" id="Stroke-6"></path>
            <path d="M16.282,-0.0003 L13.628,-0.0003 C13.4347003,-0.0003 13.278,0.156400338 13.278,0.3497 L13.278,16.3227 C13.278,16.5159997 13.4347003,16.6727 13.628,16.6727 L16.282,16.6727 C16.4752997,16.6727 16.632,16.5159997 16.632,16.3227 L16.632,0.3497 C16.632,0.156400338 16.4752997,-0.0003 16.282,-0.0003 Z M15.932,0.699 L15.932,15.972 L13.978,15.972 L13.978,0.699 L15.932,0.699 Z" id="Stroke-7"></path>
            <path d="M18.938,-0.0003 L16.282,-0.0003 C16.0887003,-0.0003 15.932,0.156400338 15.932,0.3497 L15.932,16.3227 C15.932,16.5159997 16.0887003,16.6727 16.282,16.6727 L18.938,16.6727 C19.1312997,16.6727 19.288,16.5159997 19.288,16.3227 L19.288,0.3497 C19.288,0.156400338 19.1312997,-0.0003 18.938,-0.0003 Z M18.587,0.699 L18.587,15.972 L16.632,15.972 L16.632,0.699 L18.587,0.699 Z" id="Stroke-8"></path>
        </g>
    </g>
</svg>