<?xml version="1.0" encoding="UTF-8"?>
<svg width="32px" height="32px" viewBox="0 0 32 32" version="1.1" xmlns="http://www.w3.org/2000/svg" xmlns:xlink="http://www.w3.org/1999/xlink">
    <title>Icn / Amenity / Bonus Features / Roof Rack</title>
    <g id="Icn-/-Amenity-/-Bonus-Features-/-Roof-Rack" stroke="none" stroke-width="1" fill="none" fill-rule="evenodd">
        <g id="Group" transform="translate(7.000000, 9.000000)" fill="#13284C" fill-rule="nonzero">
            <path d="M3.4165,2.6311 C3.5856372,2.6311 3.72675305,2.7510737 3.75938924,2.91056279 L3.7665,2.9811 L3.7665,12.9811 C3.7665,13.1743997 3.60979966,13.3311 3.4165,13.3311 C3.2473628,13.3311 3.10624695,13.2111263 3.07361076,13.0516372 L3.0665,12.9811 L3.0665,2.9811 C3.0665,2.78780034 3.22320034,2.6311 3.4165,2.6311 Z" id="Stroke-1"></path>
            <path d="M16.2055,2.6311 C16.3746372,2.6311 16.5157531,2.7510737 16.5483892,2.91056279 L16.5555,2.9811 L16.5555,12.9811 C16.5555,13.1743997 16.3987997,13.3311 16.2055,13.3311 C16.0363628,13.3311 15.8952469,13.2111263 15.8626108,13.0516372 L15.8555,12.9811 L15.8555,2.9811 C15.8555,2.78780034 16.0122003,2.6311 16.2055,2.6311 Z" id="Stroke-2"></path>
            <path d="M5.8266,2.6311 C5.9957372,2.6311 6.13685305,2.7510737 6.16948924,2.91056279 L6.1766,2.9811 L6.1766,12.9811 C6.1766,13.1743997 6.01989966,13.3311 5.8266,13.3311 C5.6574628,13.3311 5.51634695,13.2111263 5.48371076,13.0516372 L5.4766,12.9811 L5.4766,2.9811 C5.4766,2.78780034 5.63330034,2.6311 5.8266,2.6311 Z" id="Stroke-3"></path>
            <path d="M13.4516,2.6311 C13.6207372,2.6311 13.7618531,2.7510737 13.7944892,2.91056279 L13.8016,2.9811 L13.8016,12.9811 C13.8016,13.1743997 13.6448997,13.3311 13.4516,13.3311 C13.2824628,13.3311 13.1413469,13.2111263 13.1087108,13.0516372 L13.1016,12.9811 L13.1016,2.9811 C13.1016,2.78780034 13.2583003,2.6311 13.4516,2.6311 Z" id="Stroke-4"></path>
            <path d="M8.4516,2.6311 C8.6207372,2.6311 8.76185305,2.7510737 8.79448924,2.91056279 L8.8016,2.9811 L8.8016,12.9811 C8.8016,13.1743997 8.64489966,13.3311 8.4516,13.3311 C8.2824628,13.3311 8.14134695,13.2111263 8.10871076,13.0516372 L8.1016,12.9811 L8.1016,2.9811 C8.1016,2.78780034 8.25830034,2.6311 8.4516,2.6311 Z" id="Stroke-5"></path>
            <path d="M10.7016,2.6311 C10.8707372,2.6311 11.0118531,2.7510737 11.0444892,2.91056279 L11.0516,2.9811 L11.0516,12.9811 C11.0516,13.1743997 10.8948997,13.3311 10.7016,13.3311 C10.5324628,13.3311 10.3913469,13.2111263 10.3587108,13.0516372 L10.3516,12.9811 L10.3516,2.9811 C10.3516,2.78780034 10.5083003,2.6311 10.7016,2.6311 Z" id="Stroke-6"></path>
            <g id="Group-10" transform="translate(0.000000, 0.888500)">
                <path d="M18.912,0.112 L0.709,0.112 C0.515700338,0.112 0.359,0.268700338 0.359,0.462 L0.359,1.883 C0.359,2.07629966 0.515700338,2.233 0.709,2.233 L18.912,2.233 C19.1052997,2.233 19.262,2.07629966 19.262,1.883 L19.262,0.462 C19.262,0.268700338 19.1052997,0.112 18.912,0.112 Z M18.561,0.811 L18.561,1.532 L1.059,1.532 L1.059,0.811 L18.561,0.811 Z" id="Stroke-7"></path>
                <path d="M18.553,11.879 L0.35,11.879 C0.156700338,11.879 -5.55111512e-17,12.0357003 -5.55111512e-17,12.229 L-5.55111512e-17,13.65 C-5.55111512e-17,13.8432997 0.156700338,14 0.35,14 L18.553,14 C18.7462997,14 18.903,13.8432997 18.903,13.65 L18.903,12.229 C18.903,12.0357003 18.7462997,11.879 18.553,11.879 Z M18.203,12.578 L18.203,13.299 L0.7,13.299 L0.7,12.578 L18.203,12.578 Z" id="Stroke-9"></path>
            </g>
        </g>
    </g>
</svg>