<?xml version="1.0" encoding="UTF-8"?>
<svg width="32px" height="32px" viewBox="0 0 32 32" version="1.1" xmlns="http://www.w3.org/2000/svg" xmlns:xlink="http://www.w3.org/1999/xlink">
    <title>Icn / Amenity / Bonus Features / Swivel Seat(s)</title>
    <g id="Icn-/-Amenity-/-Bonus-Features-/-Swivel-Seat(s)" stroke="none" stroke-width="1" fill="none" fill-rule="evenodd">
        <g id="Group" transform="translate(5.000000, 5.000000)" fill="#13284C">
            <g id="Group-3" transform="translate(0.000000, 0.791400)">
                <path d="M13.0099,12.6865 L3.7969,12.6665 C3.4059,12.5955 3.1089,12.2735 3.0699,11.8745 C3.0679,11.8585 3.0659,11.8425 3.0619,11.8275 L0.7129,2.0075 C0.6549,1.7755 0.6919,1.5345 0.8159,1.3285 C0.9399,1.1235 1.1359,0.9785 1.3689,0.9205 C1.8499,0.8025 2.3379,1.0955 2.4559,1.5745 L4.6149,10.6265 C4.6519,10.7815 4.7899,10.8895 4.9489,10.8895 L13.0099,10.8895 C13.5049,10.8895 13.9069,11.2925 13.9069,11.7885 C13.9069,12.2835 13.5049,12.6865 13.0099,12.6865 L13.0099,12.6865 Z M9.2579,20.3145 L8.3739,20.3145 L8.3739,13.3625 L9.2579,13.3645 L9.2579,20.3145 Z M13.0099,10.2045 L5.2189,10.2045 L3.1219,1.4135 C2.9129,0.5645 2.0509,0.0455 1.2049,0.2545 C0.7939,0.3575 0.4469,0.6125 0.2289,0.9745 C0.0099,1.3365 -0.0541,1.7625 0.0469,2.1695 L2.3899,11.9655 C2.4689,12.6725 3.0109,13.2405 3.7159,13.3485 C3.7329,13.3505 3.7499,13.3525 3.7679,13.3525 L7.6889,13.3605 L7.6889,20.6575 C7.6889,20.8465 7.8419,20.9995 8.0309,20.9995 L9.6009,20.9995 C9.7899,20.9995 9.9439,20.8465 9.9439,20.6575 L9.9439,13.3655 L13.0099,13.3725 C13.8829,13.3725 14.5929,12.6615 14.5929,11.7885 C14.5929,10.9145 13.8829,10.2045 13.0099,10.2045 L13.0099,10.2045 Z" id="Fill-1"></path>
            </g>
            <path d="M19.319,13.0834 C18.972,12.1584 18.221,11.3844 17.244,11.2134 C17.173,11.2054 17.118,11.1444 17.122,11.0694 C17.125,10.9954 17.189,10.9374 17.265,10.9404 C18.403,10.9934 19.551,11.4804 20.399,12.2764 C21.178,13.0074 21.707,13.9984 21.743,15.1494 C21.782,16.3524 21.328,17.4694 20.562,18.2934 C19.801,19.1144 18.733,19.6434 17.536,19.6824 L16.33,19.7214 L16.367,20.9254 C16.369,20.9514 16.362,20.9784 16.348,21.0024 C16.308,21.0664 16.222,21.0864 16.159,21.0464 L12.096,18.4974 C12.081,18.4874 12.069,18.4744 12.058,18.4594 C12.012,18.3974 12.026,18.3124 12.089,18.2694 L15.97,15.4714 C15.993,15.4514 16.022,15.4384 16.054,15.4384 C16.13,15.4364 16.194,15.4954 16.196,15.5714 L16.239,16.9044 C17.728,16.8764 18.647,16.3484 19.121,15.6254 C19.364,15.2534 19.493,14.8304 19.52,14.3934 C19.548,13.9534 19.476,13.5034 19.319,13.0834 M18.416,11.4274 C18.943,11.8104 19.345,12.3664 19.574,12.9884 C19.746,13.4424 19.824,13.9324 19.794,14.4104 C19.763,14.8934 19.621,15.3614 19.349,15.7764 C18.814,16.5924 17.78,17.1824 16.107,17.1804 C16.031,17.1804 15.972,17.1204 15.97,17.0484 L15.93,15.8384 L12.414,18.3724 L16.086,20.6774 L16.051,19.5914 C16.048,19.5164 16.109,19.4524 16.182,19.4494 L17.527,19.4064 C18.649,19.3714 19.648,18.8744 20.361,18.1044 C21.079,17.3334 21.504,16.2864 21.467,15.1584 C21.433,14.0854 20.94,13.1624 20.211,12.4764 C19.702,11.9994 19.078,11.6384 18.416,11.4274" id="Fill-4"></path>
            <path d="M17.2743045,10.7406166 C18.4623667,10.7959481 19.6549605,11.3036778 20.5358567,12.1305568 C21.3968438,12.9384921 21.9068553,13.990646 21.942895,15.1429196 C21.9826348,16.3687387 21.5316377,17.5440893 20.7086795,18.42936 C19.9430698,19.2553331 18.9097646,19.7705796 17.7848544,19.8678813 L17.5424643,19.8822955 L16.535,19.915 L16.5664109,20.9100607 L16.5643355,20.9773703 L16.5479489,21.0437191 L16.5175997,21.1083998 C16.4331067,21.2435885 16.2666862,21.2988227 16.122481,21.2493787 L16.0527118,21.215819 L11.98506,18.6638101 C11.9495696,18.6401498 11.9216566,18.6116785 11.8973804,18.5785694 C11.8002036,18.447592 11.8120813,18.2714582 11.9137878,18.158109 L11.9720378,18.1071661 L15.8387643,15.3204789 C15.8980408,15.2689341 15.9730484,15.2384 16.0487387,15.2384692 C16.2114655,15.2341869 16.351474,15.3451865 16.3872049,15.4974067 L16.395896,15.5649517 L16.432,16.696 L16.4792165,16.69499 C17.5153755,16.6335269 18.2772923,16.3066977 18.75389,15.7754872 L18.8588042,15.6492999 L18.9535585,15.5160229 C19.1713446,15.182622 19.294757,14.7957894 19.3204037,14.3806984 C19.3462633,13.9743337 19.2808267,13.5524712 19.1317425,13.1536469 C18.8105386,12.2974116 18.159599,11.651346 17.3885852,11.4486955 L17.2216065,11.4121424 C17.0449233,11.3922344 16.9126674,11.2390567 16.9221642,11.0612985 C16.9287391,10.8991176 17.0505053,10.7695861 17.2049418,10.7446359 L17.2743045,10.7406166 Z M19.295,12.04 L19.3296558,12.0860991 C19.506222,12.3409828 19.6518788,12.6210667 19.7610278,12.9175437 C19.9443687,13.4014785 20.0251754,13.9199426 19.9935893,14.4232101 C19.9594482,14.9551507 19.800114,15.4529684 19.5162566,15.8860596 C18.8906912,16.8401931 17.7280973,17.3823381 16.107,17.3804 C15.9464485,17.3804 15.8127564,17.2690957 15.778494,17.1206736 L15.7701092,17.055008 L15.742,16.219 L12.771,18.36 L15.874,20.308 L15.8511598,19.5993936 C15.8446823,19.4374558 15.9560578,19.2968482 16.108156,19.25913 L16.1756092,19.2495021 L17.5207642,19.2064972 C18.5563142,19.174194 19.5140623,18.7246795 20.2146375,17.9680988 C20.9170093,17.2138806 21.3014283,16.2112776 21.2671003,15.1647342 C21.2364243,14.1966363 20.8073181,13.312172 20.0742404,12.6223343 C19.8930027,12.4524907 19.6958214,12.2974298 19.4864436,12.1592086 L19.295,12.04 Z" id="Stroke-6" fill-rule="nonzero"></path>
        </g>
    </g>
</svg>