<?xml version="1.0" encoding="UTF-8"?>
<svg width="32px" height="32px" viewBox="0 0 32 32" version="1.1" xmlns="http://www.w3.org/2000/svg" xmlns:xlink="http://www.w3.org/1999/xlink">
    <title>Icn / Amenity / Climate Control / A-C Only While Camper is On</title>
    <g id="Icn-/-Amenity-/-Climate-Control-/-A-C-Only-While-Camper-is-On" stroke="none" stroke-width="1" fill="none" fill-rule="evenodd">
        <g id="Group" transform="translate(0.000000, 7.000000)">
            <path d="M5.4916,13.1054857 C3.90931429,13.1054857 2.62245714,14.3923429 2.62245714,15.9746286 C2.62245714,17.5563429 3.90931429,18.8443429 5.4916,18.8443429 C7.07388571,18.8443429 8.36131429,17.5563429 8.36131429,15.9746286 C8.36131429,14.3923429 7.07388571,13.1054857 5.4916,13.1054857 M5.4916,14.0249143 C6.56817143,14.0249143 7.44074286,14.8980571 7.44074286,15.9746286 C7.44074286,17.0506286 6.56817143,17.9237714 5.4916,17.9237714 C4.41502857,17.9237714 3.54245714,17.0506286 3.54245714,15.9746286 C3.54245714,14.8980571 4.41502857,14.0249143 5.4916,14.0249143" id="Fill-1" fill="#13284C"></path>
            <path d="M19.4715429,13.1155429 C17.8949714,13.1155429 16.6126857,14.3978286 16.6126857,15.9749714 C16.6126857,17.5515429 17.8949714,18.8344 19.4715429,18.8344 C21.0481143,18.8344 22.3315429,17.5515429 22.3315429,15.9749714 C22.3315429,14.3978286 21.0481143,13.1155429 19.4715429,13.1155429 M19.4715429,14.0349714 C20.5424,14.0349714 21.4109714,14.9035429 21.4109714,15.9749714 C21.4109714,17.0452571 20.5424,17.9132571 19.4715429,17.9132571 C18.4006857,17.9132571 17.5321143,17.0452571 17.5321143,15.9749714 C17.5321143,14.9035429 18.4006857,14.0349714 19.4715429,14.0349714" id="Fill-3" fill="#13284C"></path>
            <path d="M6.73828571,4.418 L6.47657143,4.898 L4.05885714,9.33057143 L2.316,9.38314286 L1.85257143,9.39742857 L1.588,9.77857143 L0.164,11.8311429 L0,12.0677143 L0,12.3557143 L0,15.9751429 L0,16.8945714 L0.92,16.8945714 L2.56342857,16.8945714 L3.48342857,16.8945714 L3.48342857,15.9751429 C3.48342857,14.8671429 4.384,13.966 5.49142857,13.966 C6.59942857,13.966 7.5,14.8671429 7.5,15.9751429 L7.5,16.8945714 L8.41942857,16.8945714 L16.5434286,16.8945714 L17.4634286,16.8945714 L17.4634286,15.9751429 C17.4634286,14.8671429 18.3645714,13.966 19.4714286,13.966 C20.5794286,13.966 21.48,14.8671429 21.48,15.9751429 L21.48,16.8945714 L22.4,16.8945714 L24.0617143,16.8945714 L24.9822857,16.8945714 L24.9822857,15.9751429 L24.9822857,6.62771429 C24.9822857,5.40885714 23.9908571,4.418 22.7725714,4.418 L7.284,4.418 L6.73828571,4.418 Z M7.284,5.33857143 L22.7725714,5.33857143 C23.4845714,5.33857143 24.0617143,5.91571429 24.0617143,6.62771429 L24.0617143,15.9751429 L22.4,15.9751429 C22.4,14.3597143 21.0862857,13.0465714 19.4714286,13.0465714 C17.8571429,13.0465714 16.5434286,14.3597143 16.5434286,15.9751429 L8.41942857,15.9751429 C8.41942857,14.3597143 7.10628571,13.0465714 5.49142857,13.0465714 C3.87714286,13.0465714 2.56342857,14.3597143 2.56342857,15.9751429 L0.92,15.9751429 L0.92,12.3557143 L2.34457143,10.3031429 L4.61371429,10.234 L7.284,5.33857143 L7.284,5.33857143 Z" id="Fill-5" fill="#13284C"></path>
            <polygon id="Fill-7" fill="#13284C" points="4.372 10.2472 24.5274286 10.2472 24.5274286 9.32777143 4.372 9.32777143"></polygon>
            <polygon id="Fill-9" fill="#13284C" points="16.8314286 9.7872 17.7508571 9.7872 17.7508571 4.92605714 16.8314286 4.92605714"></polygon>
            <polygon id="Fill-10" fill="#13284C" points="11.3817143 9.7872 12.3011429 9.7872 12.3011429 4.92605714 11.3817143 4.92605714"></polygon>
            <path d="M26.2360571,14.2516571 C26.2360571,14.5482286 26.4686286,14.7865143 26.7663429,14.7939429 C26.8834857,14.7973714 26.9817714,14.8830857 26.9989143,14.9996571 C27.0440571,15.2928 27.3109143,15.4939429 27.6046286,15.4562286 C27.8497714,15.4248 28.0429143,15.2299429 28.0732,14.9819429 C28.0852,14.8830857 28.1566286,14.8019429 28.2537714,14.7773714 C28.4960571,14.7156571 28.6652,14.4996571 28.6652,14.2516571 C28.6652,13.9550857 28.4326286,13.7168 28.1343429,13.7093714 C28.0177714,13.7059429 27.9200571,13.6202286 27.9023429,13.5036571 C27.8566286,13.2105143 27.5903429,13.0093714 27.2960571,13.0476571 C27.0509143,13.0785143 26.8577714,13.2733714 26.8274857,13.5213714 C26.8154857,13.6202286 26.7440571,13.7013714 26.6469143,13.7259429 C26.4052,13.7876571 26.2360571,14.0036571 26.2360571,14.2516571 M29.1492,14.2516571 C29.1492,14.6682286 28.8977714,15.0368 28.5229143,15.1956571 C28.4126286,15.5882286 28.0789143,15.8836571 27.6657714,15.9368 C27.1737714,15.9996571 26.7229143,15.7093714 26.5657714,15.2562286 C26.0966286,15.1585143 25.7514857,14.7482286 25.7514857,14.2516571 C25.7514857,13.8350857 26.0029143,13.4665143 26.3777714,13.3076571 C26.4880571,12.9145143 26.8223429,12.6202286 27.2349143,12.5665143 C27.7274857,12.5036571 28.1783429,12.7939429 28.3354857,13.2470857 C28.8040571,13.3448 29.1492,13.7550857 29.1492,14.2516571" id="Fill-11" fill="#13284C"></path>
            <path d="M27.9118286,11.0881714 C27.9118286,11.3173143 28.0924,11.5030286 28.3232571,11.5081714 C28.4135429,11.5110286 28.4901143,11.5778857 28.5032571,11.6676 C28.5386857,11.8956 28.7449714,12.0510286 28.9724,12.0218857 C29.1626857,11.9973143 29.3124,11.8464571 29.3358286,11.6544571 C29.3455429,11.5773143 29.4004,11.5144571 29.4758286,11.4956 C29.6632571,11.4481714 29.7946857,11.2807429 29.7946857,11.0887429 C29.7946857,10.8590286 29.6141143,10.6733143 29.3832571,10.6681714 C29.2929714,10.6658857 29.2169714,10.5990286 29.2038286,10.5087429 C29.1678286,10.2813143 28.9615429,10.1253143 28.7335429,10.1544571 C28.5432571,10.1790286 28.3941143,10.3298857 28.3706857,10.5218857 C28.3609714,10.5990286 28.3055429,10.6624571 28.2306857,10.6813143 C28.0426857,10.7287429 27.9118286,10.8956 27.9118286,11.0881714 M30.1695429,11.0887429 C30.1695429,11.4110286 29.9746857,11.6967429 29.6844,11.8196 C29.5986857,12.1236 29.3398286,12.3533143 29.0198286,12.3938857 C28.6381143,12.4424571 28.2889714,12.2184571 28.1672571,11.8664571 C27.8044,11.7904571 27.5369714,11.4727429 27.5369714,11.0881714 C27.5369714,10.7653143 27.7312571,10.4796 28.0215429,10.3567429 C28.1078286,10.0521714 28.3666857,9.82302857 28.6861143,9.78245714 C29.0678286,9.73388571 29.4175429,9.95788571 29.5392571,10.3098857 C29.9021143,10.3858857 30.1695429,10.7036 30.1695429,11.0887429" id="Fill-12" fill="#13284C"></path>
            <path d="M30.0267429,13.0541143 C30.0267429,13.2364 30.1707429,13.3832571 30.3536,13.3884 C30.4256,13.3901143 30.4861714,13.4438286 30.4964571,13.5146857 C30.5244571,13.6952571 30.6884571,13.8186857 30.8696,13.7964 C31.0204571,13.7764 31.1393143,13.6569714 31.1581714,13.5038286 C31.1656,13.4432571 31.2096,13.3929714 31.2696,13.3775429 C31.4187429,13.3398286 31.5227429,13.2072571 31.5227429,13.0541143 C31.5227429,12.8724 31.3793143,12.7249714 31.1958857,12.7204 C31.1238857,12.7181143 31.0633143,12.6649714 31.0530286,12.5941143 C31.0250286,12.4135429 30.8610286,12.2895429 30.6804571,12.3129714 C30.5290286,12.3318286 30.4101714,12.4518286 30.3913143,12.6044 C30.3838857,12.6655429 30.3398857,12.7158286 30.2798857,12.7306857 C30.1313143,12.7684 30.0267429,12.9009714 30.0267429,13.0541143 M31.8204571,13.0541143 C31.8204571,13.3106857 31.6656,13.5375429 31.4347429,13.6358286 C31.3673143,13.8764 31.1610286,14.0592571 30.9073143,14.0912571 C30.6044571,14.1301143 30.3261714,13.9512571 30.2296,13.6729714 C29.9416,13.6124 29.7290286,13.3598286 29.7290286,13.0541143 C29.7290286,12.7975429 29.8833143,12.5706857 30.1141714,12.4729714 C30.1821714,12.2318286 30.3884571,12.0495429 30.6421714,12.0175429 C30.9450286,11.9781143 31.2233143,12.1569714 31.3198857,12.4358286 C31.6084571,12.4958286 31.8204571,12.7489714 31.8204571,13.0541143" id="Fill-13" fill="#13284C"></path>
            <path d="M27.0942857,4.48994286 C27.0942857,6.80765714 25.2154286,8.68651429 22.8977143,8.68651429 C20.5805714,8.68651429 18.7011429,6.80765714 18.7011429,4.48994286 C18.7011429,2.17222857 20.5805714,0.293371429 22.8977143,0.293371429 C25.2154286,0.293371429 27.0942857,2.17222857 27.0942857,4.48994286" id="Fill-14" fill="#FEFEFE"></path>
            <path d="M22.9051429,0.381142857 C20.6897143,0.381142857 18.8874286,2.18342857 18.8874286,4.39885714 C18.8874286,6.61428571 20.6897143,8.41714286 22.9051429,8.41714286 C25.1205714,8.41714286 26.9228571,6.61428571 26.9228571,4.39885714 C26.9228571,2.18342857 25.1205714,0.381142857 22.9051429,0.381142857 M22.9051429,8.79771429 C20.48,8.79771429 18.5062857,6.82457143 18.5062857,4.39885714 C18.5062857,1.97371429 20.48,0 22.9051429,0 C25.3308571,0 27.304,1.97371429 27.304,4.39885714 C27.304,6.82457143 25.3308571,8.79771429 22.9051429,8.79771429" id="Fill-15" fill="#13284C"></path>
            <polygon id="Fill-16" fill="#13284C" points="22.7142857 4.3992 23.096 4.3992 23.096 1.4112 22.7142857 1.4112"></polygon>
            <polygon id="Fill-17" fill="#13284C" points="22.9118286 3.4152 21.9124 2.41577143 22.1821143 2.14605714 22.9118286 2.87634286 23.6409714 2.14605714 23.9112571 2.41577143"></polygon>
            <polygon id="Fill-18" fill="#13284C" points="23.0055429 4.56085714 22.8044 4.23742857 25.3415429 2.658 25.5426857 2.98142857"></polygon>
            <polygon id="Fill-19" fill="#13284C" points="25.1199429 4.19811429 23.7468 3.87868571 24.0662286 2.50554286 24.4376571 2.59182857 24.2045143 3.59354286 25.2062286 3.82725714"></polygon>
            <polygon id="Fill-20" fill="#13284C" points="22.7142857 7.3872 23.096 7.3872 23.096 4.3992 22.7142857 4.3992"></polygon>
            <polygon id="Fill-21" fill="#13284C" points="23.6411429 6.65177143 22.912 5.92205714 22.1817143 6.65177143 21.9125714 6.38205714 22.912 5.38262857 23.9114286 6.38205714"></polygon>
            <polygon id="Fill-22" fill="#13284C" points="20.4687429 6.14005714 20.2670286 5.81662857 22.8047429 4.2372 23.0053143 4.56062857"></polygon>
            <polygon id="Fill-23" fill="#13284C" points="21.7544571 6.3008 21.3830286 6.21508571 21.6190286 5.20308571 20.6076 4.96765714 20.6938857 4.5968 22.0761714 4.91851429"></polygon>
            <polygon id="Fill-24" fill="#13284C" points="22.8169714 4.56811429 20.1672571 3.18582857 20.3438286 2.84754286 22.9935429 4.22982857"></polygon>
            <polygon id="Fill-25" fill="#13284C" points="20.6852571 4.37 20.5709714 4.00542857 21.5606857 3.69457143 21.2498286 2.70428571 21.6138286 2.59 22.0395429 3.94428571"></polygon>
            <polygon id="Fill-26" fill="#13284C" points="25.4665143 5.95034286 22.8168 4.56805714 22.9933714 4.22977143 25.6436571 5.61205714"></polygon>
            <polygon id="Fill-27" fill="#13284C" points="24.2081143 6.20371429 23.7841143 4.854 25.1332571 4.43 25.2475429 4.794 24.2618286 5.10314286 24.5715429 6.08885714"></polygon>
            <path d="M14.4637143,13.9604 L11.0757143,13.9604 L11.0757143,13.5089714 L14.4637143,13.5089714 C14.9334286,13.5089714 15.3151429,13.1266857 15.3151429,12.6575429 C15.3151429,12.1878286 14.9334286,11.8055429 14.4637143,11.8055429 L10.846,11.8055429 C10.3762857,11.8055429 9.99457143,12.1878286 9.99457143,12.6575429 L9.54314286,12.6575429 C9.54314286,11.9392571 10.1271429,11.3541143 10.846,11.3541143 L14.4637143,11.3541143 C15.1825714,11.3541143 15.7665714,11.9392571 15.7665714,12.6575429 C15.7665714,13.3758286 15.1825714,13.9604 14.4637143,13.9604" id="Fill-28" fill="#13284C"></path>
            <polygon id="Fill-29" fill="#13284C" points="11.4698286 14.4475429 10.7566857 13.7344 11.4698286 13.0218286 11.7892571 13.3406857 11.3949714 13.7344 11.7892571 14.1281143"></polygon>
        </g>
    </g>
</svg>