<?xml version="1.0" encoding="UTF-8"?>
<svg width="32px" height="32px" viewBox="0 0 32 32" version="1.1" xmlns="http://www.w3.org/2000/svg" xmlns:xlink="http://www.w3.org/1999/xlink">
    <title>Icn / Amenity / Climate Control / Air Conditioner</title>
    <g id="Icn-/-Amenity-/-Climate-Control-/-Air-Conditioner" stroke="none" stroke-width="1" fill="none" fill-rule="evenodd">
        <g id="Group" transform="translate(6.000000, 5.000000)" fill="#13284C">
            <g id="Group-3" transform="translate(0.000000, 0.472200)">
                <path d="M17.5547,8.5195 L20.3277,8.5195 L20.3277,3.3405 C20.3277,2.1205 19.3357,1.1275 18.1167,1.1275 L2.8127,1.1275 C1.5927,1.1275 0.5997,2.1205 0.5997,3.3405 L0.5997,8.5195 L3.3947,8.5195 L3.3947,7.3585 C3.3947,7.1935 3.5287,7.0595 3.6947,7.0595 L17.2547,7.0595 C17.4197,7.0595 17.5547,7.1935 17.5547,7.3585 L17.5547,8.5195 Z M20.6287,9.1195 L17.2547,9.1195 C17.0887,9.1195 16.9537,8.9855 16.9537,8.8195 L16.9537,7.6595 L3.9947,7.6595 L3.9947,8.8195 C3.9947,8.9855 3.8607,9.1195 3.6947,9.1195 L0.2997,9.1195 C0.1337,9.1195 -0.0003,8.9855 -0.0003,8.8195 L-0.0003,3.3405 C-0.0003,1.7905 1.2617,0.5275 2.8127,0.5275 L18.1167,0.5275 C19.6667,0.5275 20.9287,1.7905 20.9287,3.3405 L20.9287,8.8195 C20.9287,8.9855 20.7937,9.1195 20.6287,9.1195 L20.6287,9.1195 Z" id="Fill-1"></path>
            </g>
            <path d="M3.9946,8.1313 L3.9946,9.2923 C3.9946,9.7703 4.3836,10.1583 4.8616,10.1583 L16.0876,10.1583 C16.5656,10.1583 16.9536,9.7703 16.9536,9.2923 L16.9536,8.1313 L3.9946,8.1313 Z M16.0876,10.7583 L4.8616,10.7583 C4.0526,10.7583 3.3946,10.1003 3.3946,9.2923 L3.3946,7.8313 C3.3946,7.6653 3.5286,7.5313 3.6946,7.5313 L17.2546,7.5313 C17.4196,7.5313 17.5546,7.6653 17.5546,7.8313 L17.5546,9.2923 C17.5546,10.1003 16.8966,10.7583 16.0876,10.7583 L16.0876,10.7583 Z" id="Fill-4"></path>
            <path d="M3.2442,3.7881 C2.9892,3.7881 2.7812,3.9961 2.7812,4.2501 C2.7812,4.5061 2.9892,4.7131 3.2442,4.7131 C3.4992,4.7131 3.7062,4.5061 3.7062,4.2501 C3.7062,3.9961 3.4992,3.7881 3.2442,3.7881 M3.2442,5.3131 C2.6582,5.3131 2.1822,4.8361 2.1822,4.2501 C2.1822,3.6641 2.6582,3.1881 3.2442,3.1881 C3.8302,3.1881 4.3062,3.6641 4.3062,4.2501 C4.3062,4.8361 3.8302,5.3131 3.2442,5.3131" id="Fill-6"></path>
            <path d="M5.73,4.4582 L16.954,4.4582 L16.954,3.7882 L5.73,3.7882 L5.73,4.4582 Z M17.255,5.0582 L5.431,5.0582 C5.265,5.0582 5.131,4.9242 5.131,4.7582 L5.131,3.4882 C5.131,3.3232 5.265,3.1882 5.431,3.1882 L17.255,3.1882 C17.42,3.1882 17.555,3.3232 17.555,3.4882 L17.555,4.7582 C17.555,4.9242 17.42,5.0582 17.255,5.0582 L17.255,5.0582 Z" id="Fill-8"></path>
            <path d="M6.4317,21.4722 C6.2657,21.4722 6.1317,21.3372 6.1317,21.1712 C6.1317,20.5362 6.3737,20.2102 6.5877,19.9212 C6.7757,19.6662 6.9257,19.4652 6.9257,19.0292 C6.9257,18.5912 6.7757,18.3902 6.5877,18.1352 C6.3737,17.8472 6.1317,17.5202 6.1317,16.8852 C6.1317,16.2502 6.3737,15.9232 6.5877,15.6352 C6.7757,15.3802 6.9257,15.1792 6.9257,14.7432 C6.9257,14.3062 6.7757,14.1052 6.5877,13.8502 C6.3737,13.5622 6.1317,13.2352 6.1317,12.6002 C6.1317,11.9662 6.3737,11.6392 6.5877,11.3512 C6.7757,11.0962 6.9257,10.8952 6.9257,10.4582 C6.9257,10.2932 7.0597,10.1592 7.2247,10.1592 C7.3907,10.1592 7.5257,10.2932 7.5257,10.4582 C7.5257,11.0932 7.2837,11.4192 7.0697,11.7072 C6.8807,11.9622 6.7317,12.1632 6.7317,12.6002 C6.7317,13.0362 6.8807,13.2382 7.0697,13.4932 C7.2837,13.7822 7.5257,14.1092 7.5257,14.7432 C7.5257,15.3772 7.2837,15.7042 7.0697,15.9932 C6.8807,16.2472 6.7317,16.4492 6.7317,16.8852 C6.7317,17.3222 6.8807,17.5232 7.0697,17.7782 C7.2837,18.0672 7.5257,18.3942 7.5257,19.0292 C7.5257,19.6632 7.2837,19.9902 7.0697,20.2792 C6.8807,20.5342 6.7317,20.7352 6.7317,21.1712 C6.7317,21.3372 6.5977,21.4722 6.4317,21.4722" id="Fill-10"></path>
            <path d="M8.8775,21.4722 C8.7115,21.4722 8.5775,21.3372 8.5775,21.1712 C8.5775,20.5362 8.8195,20.2102 9.0335,19.9212 C9.2225,19.6662 9.3715,19.4652 9.3715,19.0292 C9.3715,18.5912 9.2225,18.3902 9.0335,18.1352 C8.8195,17.8472 8.5775,17.5202 8.5775,16.8852 C8.5775,16.2502 8.8195,15.9232 9.0335,15.6352 C9.2225,15.3802 9.3715,15.1792 9.3715,14.7432 C9.3715,14.3062 9.2225,14.1052 9.0335,13.8502 C8.8195,13.5622 8.5775,13.2352 8.5775,12.6002 C8.5775,11.9662 8.8195,11.6392 9.0335,11.3512 C9.2225,11.0962 9.3715,10.8952 9.3715,10.4582 C9.3715,10.2932 9.5055,10.1592 9.6705,10.1592 C9.8365,10.1592 9.9715,10.2932 9.9715,10.4582 C9.9715,11.0932 9.7295,11.4192 9.5155,11.7082 C9.3265,11.9622 9.1775,12.1632 9.1775,12.6002 C9.1775,13.0362 9.3265,13.2382 9.5155,13.4932 C9.7295,13.7822 9.9715,14.1082 9.9715,14.7432 C9.9715,15.3772 9.7295,15.7042 9.5155,15.9932 C9.3265,16.2472 9.1775,16.4492 9.1775,16.8852 C9.1775,17.3222 9.3265,17.5232 9.5155,17.7782 C9.7295,18.0672 9.9715,18.3942 9.9715,19.0292 C9.9715,19.6632 9.7295,19.9902 9.5155,20.2792 C9.3265,20.5342 9.1775,20.7352 9.1775,21.1712 C9.1775,21.3372 9.0435,21.4722 8.8775,21.4722" id="Fill-11"></path>
            <path d="M11.3233,21.4722 C11.1573,21.4722 11.0233,21.3372 11.0233,21.1712 C11.0233,20.5362 11.2653,20.2102 11.4793,19.9212 C11.6683,19.6662 11.8173,19.4652 11.8173,19.0292 C11.8173,18.5912 11.6683,18.3902 11.4793,18.1352 C11.2653,17.8472 11.0233,17.5202 11.0233,16.8852 C11.0233,16.2502 11.2653,15.9232 11.4793,15.6352 C11.6683,15.3802 11.8173,15.1792 11.8173,14.7432 C11.8173,14.3062 11.6683,14.1052 11.4793,13.8502 C11.2653,13.5622 11.0233,13.2352 11.0233,12.6002 C11.0233,11.9662 11.2653,11.6392 11.4793,11.3512 C11.6683,11.0962 11.8173,10.8952 11.8173,10.4582 C11.8173,10.2932 11.9513,10.1592 12.1173,10.1592 C12.2823,10.1592 12.4173,10.2932 12.4173,10.4582 C12.4173,11.0932 12.1753,11.4192 11.9613,11.7072 C11.7723,11.9622 11.6233,12.1632 11.6233,12.6002 C11.6233,13.0362 11.7723,13.2382 11.9613,13.4932 C12.1753,13.7822 12.4173,14.1092 12.4173,14.7432 C12.4173,15.3772 12.1753,15.7042 11.9613,15.9932 C11.7723,16.2472 11.6233,16.4492 11.6233,16.8852 C11.6233,17.3222 11.7723,17.5232 11.9613,17.7782 C12.1753,18.0672 12.4173,18.3942 12.4173,19.0292 C12.4173,19.6632 12.1753,19.9902 11.9613,20.2792 C11.7723,20.5342 11.6233,20.7352 11.6233,21.1712 C11.6233,21.3372 11.4893,21.4722 11.3233,21.4722" id="Fill-12"></path>
            <path d="M13.7695,21.4722 C13.6035,21.4722 13.4695,21.3372 13.4695,21.1712 C13.4695,20.5362 13.7115,20.2102 13.9245,19.9212 C14.1145,19.6662 14.2625,19.4652 14.2625,19.0292 C14.2625,18.5912 14.1145,18.3902 13.9245,18.1352 C13.7115,17.8472 13.4695,17.5202 13.4695,16.8852 C13.4695,16.2502 13.7115,15.9232 13.9245,15.6352 C14.1145,15.3802 14.2625,15.1792 14.2625,14.7432 C14.2625,14.3062 14.1145,14.1052 13.9245,13.8502 C13.7115,13.5622 13.4695,13.2352 13.4695,12.6002 C13.4695,11.9662 13.7115,11.6392 13.9245,11.3512 C14.1145,11.0962 14.2625,10.8952 14.2625,10.4582 C14.2625,10.2932 14.3975,10.1592 14.5635,10.1592 C14.7285,10.1592 14.8635,10.2932 14.8635,10.4582 C14.8635,11.0932 14.6215,11.4192 14.4075,11.7072 C14.2185,11.9622 14.0695,12.1632 14.0695,12.6002 C14.0695,13.0362 14.2185,13.2382 14.4075,13.4932 C14.6215,13.7822 14.8635,14.1092 14.8635,14.7432 C14.8635,15.3772 14.6215,15.7042 14.4075,15.9932 C14.2185,16.2472 14.0695,16.4492 14.0695,16.8852 C14.0695,17.3222 14.2185,17.5232 14.4075,17.7782 C14.6215,18.0672 14.8635,18.3942 14.8635,19.0292 C14.8635,19.6632 14.6215,19.9902 14.4075,20.2792 C14.2185,20.5342 14.0695,20.7352 14.0695,21.1712 C14.0695,21.3372 13.9345,21.4722 13.7695,21.4722" id="Fill-13"></path>
        </g>
    </g>
</svg>