<?xml version="1.0" encoding="UTF-8"?>
<svg width="32px" height="32px" viewBox="0 0 32 32" version="1.1" xmlns="http://www.w3.org/2000/svg" xmlns:xlink="http://www.w3.org/1999/xlink">
    <title>Icn / Amenity / Climate Control / Air Heating System</title>
    <g id="Icn-/-Amenity-/-Climate-Control-/-Air-Heating-System" stroke="none" stroke-width="1" fill="none" fill-rule="evenodd">
        <g id="Group" transform="translate(4.000000, 5.000000)" fill="#13284C">
            <g id="Group-3" transform="translate(0.000000, 0.081703)">
                <path d="M20.0390414,9.79955862 L23.2047655,9.79955862 L23.2047655,3.88762759 C23.2047655,2.4948 22.0729034,1.36142069 20.6800759,1.36142069 L3.21055862,1.36142069 C1.81773103,1.36142069 0.684351724,2.4948 0.684351724,3.88762759 L0.684351724,9.79955862 L3.87511034,9.79955862 L3.87511034,8.47424828 C3.87511034,8.28535172 4.02835172,8.13211034 4.21724828,8.13211034 L19.6969034,8.13211034 C19.8850414,8.13211034 20.0390414,8.28535172 20.0390414,8.47424828 L20.0390414,9.79955862 Z M23.5484207,10.4838345 L19.6969034,10.4838345 C19.5072483,10.4838345 19.3532483,10.3313517 19.3532483,10.1416966 L19.3532483,8.81714483 L4.56014483,8.81714483 L4.56014483,10.1416966 C4.56014483,10.3313517 4.40690345,10.4838345 4.21724828,10.4838345 L0.342213793,10.4838345 C0.152558621,10.4838345 7.5862069e-05,10.3313517 7.5862069e-05,10.1416966 L7.5862069e-05,3.88762759 C7.5862069e-05,2.1170069 1.43993793,0.677144828 3.21055862,0.677144828 L20.6800759,0.677144828 C22.4506966,0.677144828 23.8905586,2.1170069 23.8905586,3.88762759 L23.8905586,10.1416966 C23.8905586,10.3313517 23.7373172,10.4838345 23.5484207,10.4838345 L23.5484207,10.4838345 Z" id="Fill-1"></path>
            </g>
            <path d="M4.55991724,8.89892414 L4.55991724,10.2234759 C4.55991724,10.7689241 5.00371034,11.2134759 5.54915862,11.2134759 L18.3645379,11.2134759 C18.9099862,11.2134759 19.3530207,10.7689241 19.3530207,10.2234759 L19.3530207,8.89892414 L4.55991724,8.89892414 Z M18.3645379,11.8977517 L5.54915862,11.8977517 C4.62591724,11.8977517 3.87488276,11.1467172 3.87488276,10.2234759 L3.87488276,8.55602759 C3.87488276,8.36713103 4.02812414,8.21388966 4.21702069,8.21388966 L19.6966759,8.21388966 C19.8855724,8.21388966 20.0388138,8.36713103 20.0388138,8.55602759 L20.0388138,10.2234759 C20.0388138,11.1467172 19.2877793,11.8977517 18.3645379,11.8977517 L18.3645379,11.8977517 Z" id="Fill-4"></path>
            <path d="M3.70351034,3.94118621 C3.4122,3.94118621 3.17475172,4.17787586 3.17475172,4.46842759 C3.17475172,4.76049655 3.4122,4.99794483 3.70351034,4.99794483 C3.99406207,4.99794483 4.23151034,4.76049655 4.23151034,4.46842759 C4.23151034,4.17787586 3.99406207,3.94118621 3.70351034,3.94118621 M3.70351034,5.68146207 C3.0344069,5.68146207 2.49047586,5.13753103 2.49047586,4.46842759 C2.49047586,3.79932414 3.0344069,3.25615172 3.70351034,3.25615172 C4.37185517,3.25615172 4.91654483,3.79932414 4.91654483,4.46842759 C4.91654483,5.13753103 4.37185517,5.68146207 3.70351034,5.68146207" id="Fill-6"></path>
            <path d="M6.54158621,4.70549655 L19.3531724,4.70549655 L19.3531724,3.9408069 L6.54158621,3.9408069 L6.54158621,4.70549655 Z M19.6968276,5.39128966 L6.19944828,5.39128966 C6.0097931,5.39128966 5.85731034,5.23804828 5.85731034,5.0483931 L5.85731034,3.59866897 C5.85731034,3.40901379 6.0097931,3.25577241 6.19944828,3.25577241 L19.6968276,3.25577241 C19.8849655,3.25577241 20.0389655,3.40901379 20.0389655,3.59866897 L20.0389655,5.0483931 C20.0389655,5.23804828 19.8849655,5.39128966 19.6968276,5.39128966 L19.6968276,5.39128966 Z" id="Fill-8"></path>
            <path d="M4.1102069,19.0751379 C4.1102069,19.4681034 4.41972414,19.7852069 4.8142069,19.795069 C4.96972414,19.7996207 5.09944828,19.9134138 5.12296552,20.0681724 C5.18365517,20.4573448 5.53641379,20.7243793 5.92710345,20.6735517 C6.25331034,20.6325862 6.50972414,20.3738966 6.54993103,20.0446552 C6.56586207,19.9134138 6.66068966,19.8056897 6.78965517,19.773069 C7.11055172,19.6911379 7.33510345,19.4043793 7.33510345,19.0751379 C7.33510345,18.6814138 7.02558621,18.365069 6.63110345,18.3552069 C6.47558621,18.3506552 6.34586207,18.2368621 6.32234483,18.0821034 C6.26165517,17.692931 5.90889655,17.4258966 5.5182069,17.4759655 C5.192,17.516931 4.93558621,17.7756207 4.89613793,18.1056207 C4.87944828,18.2368621 4.78462069,18.3445862 4.65565517,18.3772069 C4.33475862,18.4591379 4.1102069,18.7458966 4.1102069,19.0751379 M7.97765517,19.0751379 C7.97765517,19.6281724 7.64462069,20.1174828 7.1462069,20.3283793 C7.00055172,20.8495517 6.55675862,21.2417586 6.00827586,21.3115517 C5.35434483,21.3957586 4.7557931,21.0103793 4.54793103,20.4087931 C3.92510345,20.279069 3.46765517,19.7336207 3.46765517,19.0751379 C3.46765517,18.5221034 3.80068966,18.0327931 4.29910345,17.8218966 C4.44551724,17.2999655 4.88855172,16.9085172 5.43703448,16.8379655 C6.09096552,16.7545172 6.68951724,17.1398966 6.89737931,17.7414828 C7.5202069,17.8704483 7.97765517,18.4158966 7.97765517,19.0751379" id="Fill-10"></path>
            <path d="M5.37004828,13.4647586 L5.37004828,15.9553103 C5.37004828,16.1328276 5.22591034,16.2762069 5.0483931,16.2762069 C4.87087586,16.2762069 4.72673793,16.1328276 4.72673793,15.9545517 L4.72749655,13.4647586 C4.72749655,13.2872414 4.87087586,13.1431034 5.04915172,13.1431034 C5.22591034,13.1431034 5.37004828,13.2872414 5.37004828,13.4647586" id="Fill-11"></path>
            <path d="M6.68238621,13.4647586 L6.68238621,15.9553103 C6.68162759,16.1328276 6.53824828,16.2769655 6.36073103,16.2769655 C6.18245517,16.2769655 6.03907586,16.1328276 6.03907586,15.9553103 L6.03907586,13.4647586 C6.03907586,13.288 6.18321379,13.1438621 6.36073103,13.1438621 C6.53824828,13.1438621 6.68238621,13.288 6.68238621,13.4647586" id="Fill-12"></path>
            <path d="M10.3651103,18.9906276 C10.3651103,19.3851103 10.673869,19.7014552 11.0691103,19.7113172 C11.223869,19.7151103 11.3543517,19.8296621 11.377869,19.9836621 C11.4385586,20.3735931 11.7913172,20.6406276 12.1820069,20.5905586 C12.5082138,20.5488345 12.763869,20.2901448 12.8048345,19.9609034 C12.8207655,19.8289034 12.9155931,19.7211793 13.0445586,19.6885586 C13.3654552,19.6066276 13.5892483,19.3206276 13.5892483,18.9913862 C13.5892483,18.5976621 13.2804897,18.2813172 12.8860069,18.2706966 C12.7304897,18.2661448 12.6007655,18.1523517 12.5772483,17.9983517 C12.5165586,17.6084207 12.1630414,17.3413862 11.7731103,17.3922138 C11.4469034,17.4331793 11.1904897,17.6926276 11.1502828,18.021869 C11.1343517,18.1531103 11.0387655,18.2608345 10.9105586,18.2934552 C10.5896621,18.3753862 10.3651103,18.6613862 10.3651103,18.9906276 M14.2325586,18.9913862 C14.2325586,19.5436621 13.8995241,20.033731 13.4011103,20.243869 C13.2546966,20.7658 12.8116621,21.1580069 12.2631793,21.2278 C11.6092483,21.3120069 11.0106966,20.9266276 10.8028345,20.3258 C10.1800069,20.1953172 9.7218,19.649869 9.72255768,18.9906276 C9.72255768,18.4375931 10.0555931,17.9490414 10.5540069,17.7373862 C10.6996621,17.2169724 11.1434552,16.8247655 11.6919379,16.7542138 C12.3451103,16.6700069 12.9436621,17.0553862 13.1522828,17.6569724 C13.7743517,17.7874552 14.2325586,18.3321448 14.2325586,18.9913862" id="Fill-13"></path>
            <path d="M11.6245724,13.3810069 L11.6245724,15.8715586 C11.6245724,16.0498345 11.4804345,16.1932138 11.3029172,16.1932138 C11.1254,16.1932138 10.9812621,16.0490759 10.9812621,15.8715586 L10.9820207,13.3810069 C10.9820207,13.2034897 11.1261586,13.0593517 11.3036759,13.0593517 C11.4811931,13.0593517 11.6245724,13.2034897 11.6245724,13.3810069" id="Fill-14"></path>
            <path d="M12.9369862,13.3810069 L12.9369862,15.8715586 C12.9369862,16.0498345 12.7928483,16.1932138 12.615331,16.1932138 C12.4378138,16.1932138 12.2936759,16.0498345 12.2936759,15.8715586 L12.2944345,13.3810069 C12.2944345,13.2034897 12.4378138,13.0593517 12.6160897,13.0593517 C12.7936069,13.0593517 12.9369862,13.2034897 12.9369862,13.3810069" id="Fill-15"></path>
            <path d="M16.6200138,18.9069517 C16.6200138,19.3006759 16.9287724,19.6177793 17.3240138,19.6276414 C17.4787724,19.6321931 17.6092552,19.7459862 17.6327724,19.8999862 C17.6934621,20.2899172 18.0462207,20.5569517 18.4369103,20.5061241 C18.7631172,20.4651586 19.0187724,20.2057103 19.0589793,19.876469 C19.075669,19.7452276 19.1704966,19.6375034 19.2987034,19.6048828 C19.6203586,19.5229517 19.8449103,19.2369517 19.8449103,18.9077103 C19.8449103,18.5132276 19.5353931,18.1976414 19.1409103,18.1870207 C18.9853931,18.1832276 18.855669,18.0686759 18.8321517,17.9146759 C18.7707034,17.5255034 18.4179448,17.258469 18.0272552,17.3085379 C17.7018069,17.3495034 17.4453931,17.6081931 17.4051862,17.9374345 C17.3892552,18.0694345 17.2944276,18.1771586 17.1654621,18.2097793 C16.8445655,18.2909517 16.6200138,18.5777103 16.6200138,18.9069517 M20.4874621,18.9077103 C20.4874621,19.4599862 20.1544276,19.9492966 19.6560138,20.1609517 C19.5096,20.6813655 19.0665655,21.0735724 18.5180828,21.1441241 C17.8641517,21.228331 17.2656,20.8429517 17.0577379,20.2413655 C16.4349103,20.1108828 15.9774621,19.5661931 15.9774621,18.9069517 C15.9774621,18.3539172 16.3104966,17.8646069 16.8089103,17.654469 C16.9545655,17.1325379 17.3983586,16.7410897 17.9460828,16.6705379 C18.6000138,16.586331 19.1985655,16.9717103 19.4064276,17.5732966 C20.0292552,17.7030207 20.4874621,18.248469 20.4874621,18.9077103" id="Fill-16"></path>
            <path d="M17.8794759,13.2965724 L17.8794759,15.7871241 C17.8794759,15.9654 17.7353379,16.1087793 17.5578207,16.1087793 C17.3803034,16.1087793 17.2361655,15.9654 17.2361655,15.7871241 L17.2369241,13.2965724 C17.2369241,13.1198138 17.3810621,12.9749172 17.5585793,12.9749172 C17.7360966,12.9749172 17.8794759,13.1198138 17.8794759,13.2965724" id="Fill-17"></path>
            <path d="M19.1918897,13.2972552 L19.1918897,15.7878069 C19.1918897,15.9653241 19.0477517,16.1087034 18.8702345,16.1087034 C18.6927172,16.1087034 18.5485793,15.9653241 18.5485793,15.7870483 L18.5493379,13.2964966 C18.5493379,13.1197379 18.6927172,12.9756 18.8702345,12.9756 C19.0485103,12.9756 19.1918897,13.1197379 19.1918897,13.2972552" id="Fill-18"></path>
        </g>
    </g>
</svg>