<?xml version="1.0" encoding="UTF-8"?>
<svg width="32px" height="32px" viewBox="0 0 32 32" version="1.1" xmlns="http://www.w3.org/2000/svg" xmlns:xlink="http://www.w3.org/1999/xlink">
    <title>Icn / Amenity / Climate Control / Ceiling Fan</title>
    <g id="Icn-/-Amenity-/-Climate-Control-/-Ceiling-Fan" stroke="none" stroke-width="1" fill="none" fill-rule="evenodd">
        <g id="Group" transform="translate(6.000000, 6.000000)" fill="#13284C">
            <path d="M10.2664,12.0702 C9.2674,12.0702 8.4544,11.2572 8.4544,10.2582 C8.4544,10.0912 8.5884,9.9582 8.7544,9.9582 C8.9204,9.9582 9.0544,10.0912 9.0544,10.2582 C9.0544,10.9252 9.5984,11.4692 10.2664,11.4692 C10.9354,11.4692 11.4784,10.9252 11.4784,10.2582 C11.4784,9.5902 10.9354,9.0462 10.2664,9.0462 C10.1004,9.0462 9.9664,8.9112 9.9664,8.7462 C9.9664,8.5802 10.1004,8.4452 10.2664,8.4452 C11.2654,8.4452 12.0784,9.2582 12.0784,10.2582 C12.0784,11.2572 11.2654,12.0702 10.2664,12.0702" id="Fill-1"></path>
            <path d="M10.3591,2.0238 C9.1411,2.0238 8.0041,2.7158 7.9251,3.5048 C7.7411,4.9238 7.9651,6.3848 8.5721,7.7598 C9.0701,7.4208 9.6601,7.2368 10.2661,7.2368 C10.6031,7.2368 10.9391,7.2948 11.2561,7.4048 C11.1691,6.0508 11.4211,4.6608 11.9961,3.3548 C12.1771,2.9608 12.1981,2.6248 12.0561,2.4038 C11.8991,2.1588 11.5271,2.0238 11.0071,2.0238 L11.0051,2.0238 L10.3611,2.0238 L10.3591,2.0238 Z M8.4591,8.5278 C8.4401,8.5278 8.4211,8.5258 8.4011,8.5228 C8.3101,8.5048 8.2321,8.4448 8.1901,8.3608 C7.4141,6.7828 7.1161,5.0798 7.3291,3.4368 C7.4491,2.2358 8.9921,1.4238 10.3591,1.4238 L10.3611,1.4238 L11.0051,1.4238 L11.0071,1.4238 C11.9441,1.4238 12.3691,1.7798 12.5611,2.0798 C12.8171,2.4788 12.8101,3.0188 12.5431,3.6008 C11.9391,4.9708 11.7171,6.4428 11.9031,7.8518 C11.9181,7.9648 11.8671,8.0758 11.7731,8.1398 C11.6781,8.2038 11.5561,8.2078 11.4571,8.1518 C11.0931,7.9458 10.6821,7.8368 10.2661,7.8368 C9.6751,7.8368 9.1041,8.0558 8.6591,8.4518 C8.6031,8.5018 8.5321,8.5278 8.4591,8.5278 L8.4591,8.5278 Z" id="Fill-3"></path>
            <path d="M11.291,13.0976 C12.607,14.4836 14.287,15.3716 16.069,15.6146 C16.861,15.7466 17.826,14.8266 18.143,13.6506 L18.311,13.0286 C18.448,12.5266 18.415,12.1306 18.22,11.9146 C18.043,11.7206 17.714,11.6536 17.291,11.7246 C17.289,11.7246 17.288,11.7246 17.286,11.7256 C15.839,11.9446 14.392,11.8136 13.081,11.3476 C12.765,12.1616 12.107,12.8016 11.291,13.0976 L11.291,13.0976 Z M16.229,16.2286 C16.146,16.2286 16.063,16.2216 15.979,16.2076 C13.911,15.9256 11.967,14.8326 10.512,13.1286 C10.443,13.0476 10.423,12.9346 10.459,12.8326 C10.495,12.7326 10.583,12.6576 10.689,12.6396 C11.611,12.4766 12.363,11.7846 12.603,10.8786 C12.626,10.7956 12.682,10.7266 12.76,10.6876 C12.836,10.6486 12.926,10.6456 13.006,10.6776 C14.293,11.1956 15.742,11.3516 17.194,11.1326 C17.824,11.0276 18.346,11.1616 18.664,11.5126 C18.903,11.7766 19.137,12.2806 18.89,13.1856 L18.722,13.8076 C18.391,15.0346 17.341,16.2286 16.229,16.2286 L16.229,16.2286 Z" id="Fill-5"></path>
            <path d="M2.9334,11.6972 C2.6584,11.6972 2.4434,11.7712 2.3134,11.9152 C2.1184,12.1312 2.0854,12.5262 2.2214,13.0282 L2.3894,13.6502 C2.7074,14.8282 3.6744,15.7472 4.4554,15.6152 C6.2454,15.3722 7.9264,14.4832 9.2424,13.0972 C8.4254,12.8012 7.7674,12.1622 7.4524,11.3472 C6.1414,11.8132 4.6944,11.9442 3.2464,11.7252 C3.1354,11.7072 3.0304,11.6972 2.9334,11.6972 M4.2974,16.2292 C3.1934,16.2292 2.1414,15.0362 1.8104,13.8062 L1.6414,13.1852 C1.3964,12.2802 1.6304,11.7762 1.8694,11.5122 C2.1874,11.1612 2.7104,11.0262 3.3414,11.1332 C4.7894,11.3512 6.2394,11.1952 7.5274,10.6772 C7.6074,10.6452 7.6974,10.6482 7.7744,10.6872 C7.8504,10.7262 7.9074,10.7962 7.9294,10.8792 C8.1694,11.7852 8.9214,12.4762 9.8444,12.6392 C9.9504,12.6582 10.0374,12.7322 10.0744,12.8332 C10.1104,12.9342 10.0904,13.0482 10.0204,13.1292 C8.5664,14.8332 6.6214,15.9262 4.5454,16.2092 C4.4624,16.2222 4.3804,16.2292 4.2974,16.2292" id="Fill-7"></path>
            <path d="M10.2664,7.8368 C9.6754,7.8368 9.1044,8.0558 8.6594,8.4518 C8.1424,8.9128 7.8454,9.5708 7.8454,10.2578 C7.8454,10.4608 7.8734,10.6698 7.9294,10.8788 C8.1694,11.7848 8.9214,12.4768 9.8444,12.6398 C10.1454,12.6918 10.3874,12.6918 10.6894,12.6388 C11.6114,12.4768 12.3634,11.7848 12.6034,10.8788 C12.6594,10.6698 12.6874,10.4608 12.6874,10.2578 C12.6874,9.3888 12.2154,8.5818 11.4564,8.1518 L11.4564,8.1518 C11.0934,7.9458 10.6824,7.8368 10.2664,7.8368 M10.2664,13.2778 C10.0974,13.2778 9.9254,13.2628 9.7404,13.2308 C8.5874,13.0268 7.6494,12.1638 7.3494,11.0328 C7.2804,10.7738 7.2454,10.5128 7.2454,10.2578 C7.2454,9.3998 7.6154,8.5778 8.2604,8.0038 C8.8144,7.5098 9.5274,7.2368 10.2664,7.2368 C10.7864,7.2368 11.2994,7.3728 11.7534,7.6298 C12.6994,8.1668 13.2874,9.1728 13.2874,10.2578 C13.2874,10.5118 13.2514,10.7728 13.1834,11.0318 C12.8834,12.1638 11.9454,13.0268 10.7924,13.2308 C10.6074,13.2628 10.4354,13.2778 10.2664,13.2778" id="Fill-9"></path>
            <path d="M9.9671,10.2567 C9.9671,10.0927 10.1011,9.9587 10.2671,9.9587 C10.4331,9.9587 10.5671,10.0927 10.5671,10.2567 C10.5671,10.4227 10.4331,10.5587 10.2671,10.5587 C10.1011,10.5587 9.9671,10.4227 9.9671,10.2567" id="Fill-11"></path>
            <path d="M10.158,0.9164 C4.887,0.9164 0.6,5.2044 0.6,10.4744 C0.6,15.4044 4.294,19.4924 9.192,19.9844 C9.842,20.0494 10.502,20.0484 11.161,19.9804 C16.039,19.4714 19.717,15.3844 19.717,10.4744 C19.717,5.2044 15.429,0.9164 10.158,0.9164 M10.158,20.6324 C9.817,20.6324 9.471,20.6154 9.132,20.5814 C3.926,20.0584 1.42108547e-14,15.7134 1.42108547e-14,10.4744 C1.42108547e-14,4.8734 4.557,0.3164 10.158,0.3164 C15.76,0.3164 20.316,4.8734 20.316,10.4744 C20.316,15.6934 16.407,20.0364 11.223,20.5774 C10.868,20.6144 10.51,20.6324 10.158,20.6324" id="Fill-13"></path>
            <path d="M18.1238,10.7743 C17.9588,10.7743 17.8238,10.6403 17.8238,10.4743 C17.8238,7.5113 16.0898,4.7853 13.4048,3.5283 C13.2558,3.4583 13.1908,3.2793 13.2608,3.1283 C13.3308,2.9793 13.5098,2.9143 13.6598,2.9843 C16.5548,4.3393 18.4248,7.2803 18.4248,10.4743 C18.4248,10.6403 18.2898,10.7743 18.1238,10.7743" id="Fill-16"></path>
            <path d="M10.158,18.7401 C9.88,18.7401 9.599,18.7261 9.323,18.6991 C7.858,18.5521 6.456,18.0121 5.268,17.1391 C5.135,17.0411 5.106,16.8531 5.204,16.7201 C5.302,16.5871 5.49,16.5571 5.623,16.6561 C6.724,17.4661 8.025,17.9651 9.383,18.1011 C9.904,18.1541 10.433,18.1541 10.963,18.0981 C12.3,17.9591 13.582,17.4661 14.67,16.6721 C14.804,16.5741 14.992,16.6041 15.09,16.7381 C15.187,16.8721 15.158,17.0591 15.023,17.1571 C13.85,18.0121 12.468,18.5451 11.025,18.6951 C10.736,18.7251 10.444,18.7401 10.158,18.7401" id="Fill-18"></path>
            <path d="M2.1922,10.7743 C2.0262,10.7743 1.8922,10.6403 1.8922,10.4743 C1.8922,10.2853 1.8982,10.0943 1.9112,9.9073 C2.1042,7.0613 3.7982,4.4693 6.3342,3.1443 C6.4812,3.0673 6.6622,3.1253 6.7382,3.2713 C6.8152,3.4183 6.7582,3.5993 6.6112,3.6763 C4.2602,4.9053 2.6892,7.3083 2.5102,9.9473 C2.4982,10.1223 2.4922,10.2983 2.4922,10.4743 C2.4922,10.6403 2.3582,10.7743 2.1922,10.7743" id="Fill-20"></path>
            <path d="M16.155,10.7753 C16.077,10.7753 15.999,10.7433 15.943,10.6873 C15.886,10.6303 15.855,10.5523 15.855,10.4743 C15.855,10.3943 15.886,10.3183 15.943,10.2623 C16.054,10.1503 16.257,10.1503 16.367,10.2623 C16.423,10.3183 16.455,10.3943 16.455,10.4743 C16.455,10.5523 16.423,10.6303 16.367,10.6873 C16.31,10.7433 16.235,10.7753 16.155,10.7753" id="Fill-22"></path>
            <path d="M14.4431,6.7587 C14.3311,6.6367 14.3421,6.4467 14.4661,6.3367 C14.5901,6.2267 14.7811,6.2367 14.8901,6.3607 C15.0011,6.4847 14.9891,6.6747 14.8651,6.7847 C14.8081,6.8347 14.7371,6.8607 14.6671,6.8607 C14.5831,6.8607 14.5011,6.8267 14.4431,6.7587 M15.4911,8.4867 L15.4911,8.4867 C15.4321,8.3307 15.5081,8.1587 15.6651,8.0987 C15.8191,8.0407 15.9931,8.1187 16.0521,8.2727 C16.1111,8.4267 16.0331,8.6007 15.8791,8.6587 C15.8421,8.6727 15.8061,8.6787 15.7711,8.6787 C15.6511,8.6787 15.5371,8.6067 15.4911,8.4867" id="Fill-24"></path>
            <path d="M12.9871,5.5507 C12.9071,5.5507 12.8311,5.5187 12.7751,5.4627 C12.7601,5.4487 12.7491,5.4327 12.7371,5.4167 C12.7261,5.4007 12.7161,5.3827 12.7111,5.3647 C12.7031,5.3467 12.6971,5.3287 12.6931,5.3087 C12.6891,5.2907 12.6871,5.2707 12.6871,5.2507 C12.6871,5.1707 12.7181,5.0947 12.7751,5.0387 C12.7891,5.0247 12.8041,5.0107 12.8211,5.0007 C12.8371,4.9907 12.8551,4.9807 12.8731,4.9727 C12.8901,4.9647 12.9091,4.9607 12.9291,4.9567 C13.0251,4.9367 13.1291,4.9687 13.1991,5.0387 C13.2551,5.0947 13.2871,5.1707 13.2871,5.2507 C13.2871,5.2707 13.2851,5.2907 13.2811,5.3087 C13.2771,5.3287 13.2711,5.3467 13.2621,5.3647 C13.2571,5.3827 13.2471,5.4007 13.2371,5.4167 C13.2241,5.4327 13.2131,5.4487 13.1991,5.4627 C13.1851,5.4767 13.1691,5.4887 13.1531,5.5007 C13.1361,5.5107 13.1191,5.5207 13.1011,5.5267 C13.0831,5.5347 13.0641,5.5407 13.0451,5.5447 C13.0271,5.5487 13.0071,5.5507 12.9871,5.5507" id="Fill-26"></path>
            <path d="M7.5447,15.9989 C7.5267,15.9989 7.5067,15.9969 7.4867,15.9929 C7.4667,15.9889 7.4487,15.9819 7.4307,15.9749 C7.4127,15.9669 7.3947,15.9589 7.3787,15.9469 C7.3627,15.9369 7.3467,15.9249 7.3327,15.9109 C7.3187,15.8959 7.3067,15.8809 7.2967,15.8649 C7.2847,15.8489 7.2747,15.8309 7.2687,15.8119 C7.2607,15.7949 7.2547,15.7749 7.2507,15.7569 C7.2467,15.7369 7.2447,15.7169 7.2447,15.6989 C7.2447,15.6789 7.2467,15.6589 7.2507,15.6389 C7.2547,15.6209 7.2607,15.6009 7.2687,15.5829 C7.2747,15.5639 7.2847,15.5469 7.2967,15.5309 C7.3067,15.5149 7.3187,15.4989 7.3327,15.4839 C7.3467,15.4729 7.3627,15.4589 7.3787,15.4489 C7.3947,15.4369 7.4127,15.4289 7.4307,15.4209 C7.4487,15.4129 7.4667,15.4069 7.4867,15.4049 C7.5847,15.3849 7.6867,15.4169 7.7567,15.4839 C7.7707,15.4989 7.7827,15.5149 7.7947,15.5309 C7.8047,15.5469 7.8147,15.5639 7.8227,15.5829 C7.8287,15.6009 7.8347,15.6209 7.8387,15.6389 C7.8427,15.6589 7.8447,15.6789 7.8447,15.6989 C7.8447,15.7169 7.8427,15.7369 7.8387,15.7569 C7.8347,15.7749 7.8287,15.7949 7.8227,15.8119 C7.8147,15.8309 7.8047,15.8489 7.7947,15.8649 C7.7827,15.8809 7.7707,15.8959 7.7567,15.9109 C7.7007,15.9669 7.6247,15.9989 7.5447,15.9989" id="Fill-28"></path>
            <path d="M10.2449,16.663 C10.0789,16.661 9.9469,16.523 9.9489,16.359 C9.9529,16.193 10.0889,16.06 10.2549,16.062 C10.4209,16.066 10.5529,16.203 10.5489,16.369 C10.5469,16.533 10.4129,16.663 10.2489,16.663 L10.2449,16.663 Z" id="Fill-30"></path>
            <path d="M12.9568,16.0126 C12.8788,16.0126 12.8008,15.9806 12.7448,15.9246 C12.7298,15.9126 12.7188,15.8966 12.7088,15.8806 C12.6968,15.8656 12.6868,15.8466 12.6808,15.8286 C12.6728,15.8106 12.6668,15.7906 12.6628,15.7736 C12.6588,15.7526 12.6568,15.7326 12.6568,15.7126 C12.6568,15.6956 12.6588,15.6746 12.6628,15.6556 C12.6668,15.6346 12.6728,15.6166 12.6808,15.5986 C12.6868,15.5806 12.6968,15.5626 12.7088,15.5466 C12.7188,15.5316 12.7298,15.5146 12.7448,15.5006 C12.8138,15.4326 12.9188,15.3986 13.0178,15.4186 C13.0348,15.4226 13.0548,15.4286 13.0728,15.4376 C13.0908,15.4456 13.1068,15.4526 13.1228,15.4646 C13.1408,15.4746 13.1548,15.4876 13.1688,15.5006 C13.1828,15.5146 13.1948,15.5316 13.2068,15.5466 C13.2168,15.5626 13.2268,15.5806 13.2348,15.5986 C13.2408,15.6166 13.2468,15.6346 13.2508,15.6556 C13.2548,15.6746 13.2568,15.6956 13.2568,15.7126 C13.2568,15.7326 13.2548,15.7526 13.2508,15.7736 C13.2468,15.7906 13.2408,15.8106 13.2348,15.8286 C13.2268,15.8466 13.2168,15.8656 13.2068,15.8806 C13.1948,15.8966 13.1828,15.9126 13.1688,15.9246 C13.1548,15.9396 13.1408,15.9526 13.1228,15.9626 C13.1068,15.9746 13.0908,15.9826 13.0728,15.9916 C13.0548,15.9986 13.0348,16.0046 13.0178,16.0066 C12.9968,16.0106 12.9768,16.0126 12.9568,16.0126" id="Fill-32"></path>
            <path d="M6.5149,6.2367 C6.4349,6.2367 6.3569,6.2047 6.3029,6.1487 C6.2889,6.1347 6.2749,6.1187 6.2649,6.1027 C6.2549,6.0867 6.2449,6.0687 6.2369,6.0507 C6.2289,6.0327 6.2249,6.0127 6.2209,5.9947 C6.2169,5.9747 6.2149,5.9547 6.2149,5.9367 C6.2149,5.8567 6.2469,5.7787 6.3029,5.7227 C6.3169,5.7087 6.3309,5.6967 6.3469,5.6867 C6.3629,5.6747 6.3809,5.6667 6.3989,5.6587 C6.4169,5.6507 6.4369,5.6447 6.4549,5.6407 C6.4949,5.6347 6.5349,5.6327 6.5729,5.6407 C6.5929,5.6447 6.6109,5.6507 6.6289,5.6587 C6.6469,5.6667 6.6649,5.6747 6.6809,5.6867 C6.6969,5.6967 6.7129,5.7087 6.7269,5.7227 C6.7829,5.7787 6.8149,5.8567 6.8149,5.9367 C6.8149,5.9547 6.8129,5.9747 6.8089,5.9947 C6.8049,6.0127 6.7989,6.0327 6.7909,6.0507 C6.7829,6.0687 6.7749,6.0867 6.7629,6.1027 C6.7529,6.1187 6.7409,6.1347 6.7269,6.1487 C6.7129,6.1607 6.6969,6.1747 6.6809,6.1847 C6.6649,6.1967 6.6469,6.2047 6.6289,6.2127 C6.6109,6.2207 6.5929,6.2267 6.5729,6.2307 C6.5529,6.2347 6.5329,6.2367 6.5149,6.2367" id="Fill-34"></path>
            <path d="M4.8089,8.2367 C4.6589,8.1667 4.5949,7.9867 4.6669,7.8367 C4.7369,7.6887 4.9149,7.6247 5.0649,7.6947 C5.2149,7.7647 5.2789,7.9447 5.2089,8.0947 C5.1569,8.2027 5.0489,8.2667 4.9369,8.2667 C4.8949,8.2667 4.8509,8.2567 4.8089,8.2367" id="Fill-36"></path>
            <path d="M4.3767,10.7753 C4.2987,10.7753 4.2207,10.7433 4.1647,10.6873 C4.1087,10.6303 4.0767,10.5523 4.0767,10.4743 C4.0767,10.3943 4.1087,10.3183 4.1647,10.2623 C4.2347,10.1933 4.3387,10.1613 4.4367,10.1803 C4.4547,10.1843 4.4747,10.1913 4.4927,10.1973 C4.5107,10.2053 4.5287,10.2143 4.5447,10.2243 C4.5607,10.2373 4.5767,10.2493 4.5907,10.2623 C4.6027,10.2773 4.6167,10.2913 4.6267,10.3063 C4.6387,10.3253 4.6477,10.3403 4.6547,10.3593 C4.6627,10.3773 4.6687,10.3963 4.6707,10.4153 C4.6747,10.4343 4.6767,10.4553 4.6767,10.4743 C4.6767,10.5523 4.6447,10.6303 4.5907,10.6873 C4.5767,10.7013 4.5607,10.7133 4.5447,10.7243 C4.5287,10.7343 4.5107,10.7453 4.4927,10.7513 C4.4747,10.7583 4.4547,10.7643 4.4367,10.7683 C4.4167,10.7733 4.3977,10.7753 4.3767,10.7753" id="Fill-38"></path>
            <path d="M10.0061,7.7147 C9.8781,7.7147 9.7591,7.6317 9.7201,7.5037 C9.7071,7.4597 9.3921,6.4307 9.4931,5.4397 C9.5101,5.2747 9.6581,5.1547 9.8221,5.1717 C9.9871,5.1887 10.1071,5.3357 10.0901,5.4997 C10.0021,6.3677 10.2901,7.3167 10.2931,7.3257 C10.3411,7.4847 10.2531,7.6527 10.0951,7.7007 C10.0651,7.7107 10.0351,7.7147 10.0061,7.7147" id="Fill-40"></path>
            <path d="M6.4993,13.246 C6.3563,13.246 6.2293,13.143 6.2043,12.998 C6.1753,12.835 6.2843,12.679 6.4473,12.65 C7.3063,12.498 8.1403,11.963 8.1483,11.957 C8.2883,11.867 8.4733,11.907 8.5633,12.046 C8.6543,12.184 8.6143,12.37 8.4763,12.461 C8.4373,12.485 7.5333,13.067 6.5513,13.241 C6.5343,13.244 6.5163,13.246 6.4993,13.246" id="Fill-42"></path>
            <path d="M13.9558,13.3065 C13.9298,13.3065 13.9038,13.3025 13.8778,13.2955 C13.8338,13.2845 12.7968,12.9995 12.0118,12.3845 C11.8818,12.2825 11.8588,12.0935 11.9608,11.9625 C12.0628,11.8325 12.2518,11.8105 12.3828,11.9115 C13.0678,12.4515 14.0238,12.7135 14.0338,12.7165 C14.1928,12.7595 14.2888,12.9245 14.2448,13.0835 C14.2088,13.2175 14.0878,13.3065 13.9558,13.3065" id="Fill-44"></path>
        </g>
    </g>
</svg>