<?xml version="1.0" encoding="UTF-8"?>
<svg width="32px" height="32px" viewBox="0 0 32 32" version="1.1" xmlns="http://www.w3.org/2000/svg" xmlns:xlink="http://www.w3.org/1999/xlink">
    <title>Icn / Amenity / Climate Control / Heating Only While Camper is On</title>
    <g id="Icn-/-Amenity-/-Climate-Control-/-Heating-Only-While-Camper-is-On" stroke="none" stroke-width="1" fill="none" fill-rule="evenodd">
        <g id="Group" transform="translate(0.000000, 6.000000)">
            <path d="M5.4916,14.7224 C3.90931429,14.7224 2.62245714,16.0092571 2.62245714,17.5915429 C2.62245714,19.1732571 3.90931429,20.4612571 5.4916,20.4612571 C7.07388571,20.4612571 8.36131429,19.1732571 8.36131429,17.5915429 C8.36131429,16.0092571 7.07388571,14.7224 5.4916,14.7224 M5.4916,15.6418286 C6.56817143,15.6418286 7.44074286,16.5149714 7.44074286,17.5915429 C7.44074286,18.6675429 6.56817143,19.5406857 5.4916,19.5406857 C4.41502857,19.5406857 3.54245714,18.6675429 3.54245714,17.5915429 C3.54245714,16.5149714 4.41502857,15.6418286 5.4916,15.6418286" id="Fill-1" fill="#13284C"></path>
            <path d="M19.4715429,14.7324571 C17.8949714,14.7324571 16.6126857,16.0147429 16.6126857,17.5918857 C16.6126857,19.1684571 17.8949714,20.4513143 19.4715429,20.4513143 C21.0481143,20.4513143 22.3315429,19.1684571 22.3315429,17.5918857 C22.3315429,16.0147429 21.0481143,14.7324571 19.4715429,14.7324571 M19.4715429,15.6518857 C20.5424,15.6518857 21.4109714,16.5204571 21.4109714,17.5918857 C21.4109714,18.6621714 20.5424,19.5301714 19.4715429,19.5301714 C18.4006857,19.5301714 17.5321143,18.6621714 17.5321143,17.5918857 C17.5321143,16.5204571 18.4006857,15.6518857 19.4715429,15.6518857" id="Fill-3" fill="#13284C"></path>
            <path d="M6.73828571,6.03491429 L6.47657143,6.51491429 L4.05885714,10.9474857 L2.316,11.0000571 L1.85257143,11.0143429 L1.588,11.3954857 L0.164,13.4480571 L0,13.6846286 L0,13.9726286 L0,17.5920571 L0,18.5114857 L0.92,18.5114857 L2.56342857,18.5114857 L3.48342857,18.5114857 L3.48342857,17.5920571 C3.48342857,16.4840571 4.384,15.5829143 5.49142857,15.5829143 C6.59942857,15.5829143 7.5,16.4840571 7.5,17.5920571 L7.5,18.5114857 L8.41942857,18.5114857 L16.5434286,18.5114857 L17.4634286,18.5114857 L17.4634286,17.5920571 C17.4634286,16.4840571 18.3645714,15.5829143 19.4714286,15.5829143 C20.5794286,15.5829143 21.48,16.4840571 21.48,17.5920571 L21.48,18.5114857 L22.4,18.5114857 L24.0617143,18.5114857 L24.9822857,18.5114857 L24.9822857,17.5920571 L24.9822857,8.24462857 C24.9822857,7.02577143 23.9908571,6.03491429 22.7725714,6.03491429 L7.284,6.03491429 L6.73828571,6.03491429 Z M7.284,6.95548571 L22.7725714,6.95548571 C23.4845714,6.95548571 24.0617143,7.53262857 24.0617143,8.24462857 L24.0617143,17.5920571 L22.4,17.5920571 C22.4,15.9766286 21.0862857,14.6634857 19.4714286,14.6634857 C17.8571429,14.6634857 16.5434286,15.9766286 16.5434286,17.5920571 L8.41942857,17.5920571 C8.41942857,15.9766286 7.10628571,14.6634857 5.49142857,14.6634857 C3.87714286,14.6634857 2.56342857,15.9766286 2.56342857,17.5920571 L0.92,17.5920571 L0.92,13.9726286 L2.34457143,11.9200571 L4.61371429,11.8509143 L7.284,6.95548571 L7.284,6.95548571 Z" id="Fill-5" fill="#13284C"></path>
            <polygon id="Fill-7" fill="#13284C" points="4.372 11.8641143 24.5274286 11.8641143 24.5274286 10.9446857 4.372 10.9446857"></polygon>
            <polygon id="Fill-9" fill="#13284C" points="16.8314286 11.4041143 17.7508571 11.4041143 17.7508571 6.54297143 16.8314286 6.54297143"></polygon>
            <polygon id="Fill-10" fill="#13284C" points="11.3817143 11.4041143 12.3011429 11.4041143 12.3011429 6.54297143 11.3817143 6.54297143"></polygon>
            <path d="M26.2360571,15.8686286 C26.2360571,16.1652 26.4686286,16.4034857 26.7663429,16.4109143 C26.8834857,16.4143429 26.9817714,16.5000571 26.9989143,16.6166286 C27.0440571,16.9097714 27.3109143,17.1109143 27.6046286,17.0732 C27.8497714,17.0417714 28.0429143,16.8469143 28.0732,16.5989143 C28.0852,16.5000571 28.1566286,16.4189143 28.2537714,16.3943429 C28.4960571,16.3326286 28.6652,16.1166286 28.6652,15.8686286 C28.6652,15.5720571 28.4326286,15.3337714 28.1343429,15.3263429 C28.0177714,15.3229143 27.9200571,15.2372 27.9023429,15.1206286 C27.8566286,14.8274857 27.5903429,14.6263429 27.2960571,14.6646286 C27.0509143,14.6954857 26.8577714,14.8903429 26.8274857,15.1383429 C26.8154857,15.2372 26.7440571,15.3183429 26.6469143,15.3429143 C26.4052,15.4046286 26.2360571,15.6206286 26.2360571,15.8686286 M29.1492,15.8686286 C29.1492,16.2852 28.8977714,16.6537714 28.5229143,16.8126286 C28.4126286,17.2052 28.0789143,17.5006286 27.6657714,17.5537714 C27.1737714,17.6166286 26.7229143,17.3263429 26.5657714,16.8732 C26.0966286,16.7754857 25.7514857,16.3652 25.7514857,15.8686286 C25.7514857,15.4520571 26.0029143,15.0834857 26.3777714,14.9246286 C26.4880571,14.5314857 26.8223429,14.2372 27.2349143,14.1834857 C27.7274857,14.1206286 28.1783429,14.4109143 28.3354857,14.8640571 C28.8040571,14.9617714 29.1492,15.3720571 29.1492,15.8686286" id="Fill-11" fill="#13284C"></path>
            <path d="M27.9118286,12.7050857 C27.9118286,12.9342286 28.0924,13.1199429 28.3232571,13.1250857 C28.4135429,13.1279429 28.4901143,13.1948 28.5032571,13.2845143 C28.5386857,13.5125143 28.7449714,13.6679429 28.9724,13.6388 C29.1626857,13.6142286 29.3124,13.4633714 29.3358286,13.2713714 C29.3455429,13.1942286 29.4004,13.1313714 29.4758286,13.1125143 C29.6632571,13.0650857 29.7946857,12.8976571 29.7946857,12.7056571 C29.7946857,12.4759429 29.6141143,12.2902286 29.3832571,12.2850857 C29.2929714,12.2828 29.2169714,12.2159429 29.2038286,12.1256571 C29.1678286,11.8982286 28.9615429,11.7422286 28.7335429,11.7713714 C28.5432571,11.7959429 28.3941143,11.9468 28.3706857,12.1388 C28.3609714,12.2159429 28.3055429,12.2793714 28.2306857,12.2982286 C28.0426857,12.3456571 27.9118286,12.5125143 27.9118286,12.7050857 M30.1695429,12.7056571 C30.1695429,13.0279429 29.9746857,13.3136571 29.6844,13.4365143 C29.5986857,13.7405143 29.3398286,13.9702286 29.0198286,14.0108 C28.6381143,14.0593714 28.2889714,13.8353714 28.1672571,13.4833714 C27.8044,13.4073714 27.5369714,13.0896571 27.5369714,12.7050857 C27.5369714,12.3822286 27.7312571,12.0965143 28.0215429,11.9736571 C28.1078286,11.6690857 28.3666857,11.4399429 28.6861143,11.3993714 C29.0678286,11.3508 29.4175429,11.5748 29.5392571,11.9268 C29.9021143,12.0028 30.1695429,12.3205143 30.1695429,12.7056571" id="Fill-12" fill="#13284C"></path>
            <path d="M30.0267429,14.6710857 C30.0267429,14.8533714 30.1707429,15.0002286 30.3536,15.0053714 C30.4256,15.0070857 30.4861714,15.0608 30.4964571,15.1316571 C30.5244571,15.3122286 30.6884571,15.4356571 30.8696,15.4133714 C31.0204571,15.3933714 31.1393143,15.2739429 31.1581714,15.1208 C31.1656,15.0602286 31.2096,15.0099429 31.2696,14.9945143 C31.4187429,14.9568 31.5227429,14.8242286 31.5227429,14.6710857 C31.5227429,14.4893714 31.3793143,14.3419429 31.1958857,14.3373714 C31.1238857,14.3350857 31.0633143,14.2819429 31.0530286,14.2110857 C31.0250286,14.0305143 30.8610286,13.9065143 30.6804571,13.9299429 C30.5290286,13.9488 30.4101714,14.0688 30.3913143,14.2213714 C30.3838857,14.2825143 30.3398857,14.3328 30.2798857,14.3476571 C30.1313143,14.3853714 30.0267429,14.5179429 30.0267429,14.6710857 M31.8204571,14.6710857 C31.8204571,14.9276571 31.6656,15.1545143 31.4347429,15.2528 C31.3673143,15.4933714 31.1610286,15.6762286 30.9073143,15.7082286 C30.6044571,15.7470857 30.3261714,15.5682286 30.2296,15.2899429 C29.9416,15.2293714 29.7290286,14.9768 29.7290286,14.6710857 C29.7290286,14.4145143 29.8833143,14.1876571 30.1141714,14.0899429 C30.1821714,13.8488 30.3884571,13.6665143 30.6421714,13.6345143 C30.9450286,13.5950857 31.2233143,13.7739429 31.3198857,14.0528 C31.6084571,14.1128 31.8204571,14.3659429 31.8204571,14.6710857" id="Fill-13" fill="#13284C"></path>
            <path d="M26.4274286,10.8931429 C26.4274286,12.3817143 25.2205714,13.5891429 23.7314286,13.5891429 C22.2422857,13.5891429 21.0348571,12.3817143 21.0348571,10.8931429 C21.0348571,9.404 22.2422857,8.19657143 23.7314286,8.19657143 C25.2205714,8.19657143 26.4274286,9.404 26.4274286,10.8931429" id="Fill-14" fill="#FEFEFE"></path>
            <path d="M14.4637143,15.5773143 L11.0757143,15.5773143 L11.0757143,15.1258857 L14.4637143,15.1258857 C14.9334286,15.1258857 15.3151429,14.7436 15.3151429,14.2744571 C15.3151429,13.8047429 14.9334286,13.4224571 14.4637143,13.4224571 L10.846,13.4224571 C10.3762857,13.4224571 9.99457143,13.8047429 9.99457143,14.2744571 L9.54314286,14.2744571 C9.54314286,13.5561714 10.1271429,12.9710286 10.846,12.9710286 L14.4637143,12.9710286 C15.1825714,12.9710286 15.7665714,13.5561714 15.7665714,14.2744571 C15.7665714,14.9927429 15.1825714,15.5773143 14.4637143,15.5773143" id="Fill-15" fill="#13284C"></path>
            <polygon id="Fill-16" fill="#13284C" points="11.4698286 16.0644571 10.7566857 15.3513143 11.4698286 14.6387429 11.7892571 14.9576 11.3949714 15.3513143 11.7892571 15.7450286"></polygon>
            <polygon id="Fill-17" fill="#FEFEFE" points="22.416 9.4344 24.892 9.4344 24.892 4.4344 22.416 4.4344"></polygon>
            <path d="M23.5784993,1.12262094 C22.8102294,1.19197413 22.2082857,1.83799889 22.2082857,2.62445714 L22.208,8.178 L22.0308399,8.28453862 C21.1628255,8.84230944 20.6168571,9.80892008 20.6168571,10.8747429 C20.6168571,12.5751035 21.9947693,13.9536 23.6951429,13.9536 C25.3952242,13.9536 26.774,12.5748242 26.774,10.8747429 L26.767107,10.6679703 C26.6984852,9.64117885 26.1221307,8.72689972 25.2459608,8.21492975 L25.224,8.203 L25.2248571,2.62445714 C25.2248571,1.79176295 24.5488972,1.11645714 23.7157143,1.11645714 L23.5784993,1.12262094 Z M23.7157143,1.68788571 C24.2334297,1.68788571 24.6534286,2.10747816 24.6534286,2.62445714 L24.6534286,8.55027952 L24.8114949,8.62921426 C25.6569641,9.05142241 26.2025714,9.91429986 26.2025714,10.8747429 C26.2025714,12.2592329 25.0796329,13.3821714 23.6951429,13.3821714 C22.3104148,13.3821714 21.1882857,12.2595665 21.1882857,10.8747429 C21.1882857,9.89801042 21.7508754,9.02400259 22.6169961,8.61091347 L22.7797143,8.53330636 L22.7797143,2.62445714 C22.7797143,2.10724532 23.1988031,1.68788571 23.7157143,1.68788571 Z" id="Stroke-18" fill="#13284C" fill-rule="nonzero"></path>
            <path d="M23.7220571,9.58565714 C22.9984875,9.58565714 22.4112,10.1724925 22.4112,10.8959429 C22.4112,11.6203099 22.9982615,12.2073714 23.7220571,12.2073714 C24.4463113,12.2073714 25.0334857,11.6204229 25.0334857,10.8959429 C25.0334857,10.1723796 24.4460853,9.58565714 23.7220571,9.58565714 Z M23.7220571,10.1570857 C24.1306416,10.1570857 24.4620571,10.4881187 24.4620571,10.8959429 C24.4620571,11.3047824 24.1307692,11.6359429 23.7220571,11.6359429 C23.3138528,11.6359429 22.9826286,11.3047186 22.9826286,10.8959429 C22.9826286,10.4881824 23.3139803,10.1570857 23.7220571,10.1570857 Z" id="Stroke-19" fill="#13284C" fill-rule="nonzero"></path>
            <polygon id="Stroke-20" fill="#13284C" fill-rule="nonzero" points="24.0089143 2.67554286 24.0089143 9.87154286 23.4374857 9.87154286 23.4374857 2.67554286"></polygon>
            <polygon id="Stroke-21" fill="#13284C" fill-rule="nonzero" points="23.6951429 3.7196 23.6951429 4.29102857 23.1785714 4.29102857 23.1785714 3.7196"></polygon>
            <polygon id="Stroke-22" fill="#13284C" fill-rule="nonzero" points="23.6951429 5.02931429 23.6951429 5.60074286 23.1785714 5.60074286 23.1785714 5.02931429"></polygon>
            <polygon id="Stroke-23" fill="#13284C" fill-rule="nonzero" points="24.3686857 5.73525714 24.3686857 6.30668571 23.8521143 6.30668571 23.8521143 5.73525714"></polygon>
            <polygon id="Stroke-24" fill="#13284C" fill-rule="nonzero" points="24.3686857 7.14594286 24.3686857 7.71737143 23.8521143 7.71737143 23.8521143 7.14594286"></polygon>
            <polygon id="Stroke-25" fill="#13284C" fill-rule="nonzero" points="23.6951429 6.34908571 23.6951429 6.92051429 23.1785714 6.92051429 23.1785714 6.34908571"></polygon>
            <path d="M26.1042357,0.0393580909 C26.5670236,-0.212882167 27.4691934,0.889543019 27.4792407,1.74830241 C27.4817429,1.98123504 27.4425566,2.14109869 27.3422408,2.36185192 L27.2699886,2.51180152 C27.1352093,2.78065205 27.1020715,2.9000858 27.1283343,3.13267119 C27.1395943,3.23307337 27.1609266,3.33740795 27.1894074,3.43729283 L27.242,3.594 C27.2635843,3.55127612 27.2842601,3.51431411 27.3070949,3.47812653 L27.4026854,3.34667186 C27.7532734,2.9262602 28.4328961,2.68027213 28.7204536,2.9853009 C28.8543958,3.12844531 28.8480835,3.28983752 28.7752966,3.46874643 L28.6239148,3.77379782 C28.5079715,4.00748141 28.4630382,4.18538723 28.4919899,4.37571486 C28.5030839,4.44844238 28.5191902,4.4945922 28.552694,4.54621627 L28.6045487,4.61551209 L28.743455,4.78823339 C28.7915077,4.85231649 28.8351727,4.91836105 28.8762752,4.99096376 L28.9443537,5.12226431 C29.9089798,7.15992919 27.9545608,8.89822155 25.9737958,8.0732417 L25.8355965,8.01149759 L26.0817749,7.4958167 C27.6028595,8.22196007 29.0847314,7.01125662 28.4863192,5.50115031 L28.4222027,5.35496251 C28.3802062,5.26847435 28.3371526,5.19889136 28.2862794,5.13104692 L28.1440608,4.95507343 C28.0242871,4.80345658 27.957984,4.66437414 27.9270779,4.46176722 C27.8853758,4.18761907 27.9282046,3.94483557 28.0381482,3.68104044 L28.128,3.489 L28.1087858,3.50048642 C28.0404197,3.54134915 27.9649072,3.59153531 27.9010684,3.6504755 L27.8310061,3.72565934 L27.7779224,3.79212114 L27.7540603,3.83916436 L27.7208231,3.93239448 L27.6622704,4.1095246 C27.6043432,4.28488059 27.5290208,4.39351732 27.3374239,4.4174565 C26.9382057,4.46391098 26.6312771,3.82775869 26.5604899,3.19657256 C26.5251062,2.88321182 26.5641662,2.6794495 26.6893398,2.40163899 L26.7637135,2.24662341 C26.8768691,2.0208738 26.9096315,1.92074038 26.9078481,1.75471404 C26.9048561,1.49898283 26.8016092,1.22898759 26.6308987,0.98443431 L26.605,0.951 L26.6054685,1.16825729 C26.5920841,1.4616912 26.5282456,1.73956394 26.4254736,2.00653891 L26.3412746,2.20479967 L25.822954,1.9642289 C25.9696427,1.64818135 26.0495814,1.32053141 26.0349509,0.969392977 L26.020736,0.805011577 L25.9841612,0.602968699 L25.9464258,0.429172339 C25.9168845,0.258686379 25.9316499,0.133355699 26.1042357,0.0393580909 Z" id="Stroke-26" fill="#13284C" fill-rule="nonzero"></path>
            <path d="M26.0845229,3.20799165 L26.1518213,3.20574198 L26.2506502,3.23394832 C26.2613287,3.23792244 26.2700834,3.24198443 26.2783735,3.24681129 L26.3342113,3.29036684 C26.3653655,3.3204724 26.4046444,3.42157721 26.4450893,3.55076759 L26.5254721,3.83388062 L26.658847,4.36866879 C26.7025282,4.51399533 26.7493992,4.64097041 26.8006225,4.74932742 C26.8609267,4.87697628 26.9298639,4.98588066 27.0132209,5.09119838 L27.2187073,5.32436866 L27.3258231,5.44167745 C27.5473465,5.69864458 27.640114,5.94186726 27.605521,6.29439902 C27.5306842,7.06551174 26.7865338,7.57954852 26.0794502,7.31960002 L25.9682164,7.27204815 L26.2192122,6.75869471 C26.582011,6.93607924 26.9948632,6.6709507 27.0367943,6.23889782 C27.0548538,6.05485449 27.019051,5.96098475 26.8930174,5.8147858 L26.6516335,5.54800474 L26.5651542,5.44583469 C26.4557641,5.30762528 26.3636203,5.16206004 26.2839794,4.99347989 C26.2409038,4.90235856 26.2014592,4.80402573 26.1647436,4.69800699 L26.0876739,4.45046738 L26.073,4.397 L25.5354065,4.29409159 C25.6516911,3.68818757 25.8229392,3.25045509 26.0845229,3.20799165 Z" id="Stroke-27" fill="#13284C" fill-rule="nonzero"></path>
        </g>
    </g>
</svg>