<?xml version="1.0" encoding="UTF-8"?>
<svg width="32px" height="32px" viewBox="0 0 32 32" version="1.1" xmlns="http://www.w3.org/2000/svg" xmlns:xlink="http://www.w3.org/1999/xlink">
    <title>Icn / Amenity / Climate Control / Heating</title>
    <g id="Icn-/-Amenity-/-Climate-Control-/-Heating" stroke="none" stroke-width="1" fill="none" fill-rule="evenodd">
        <g id="Group" transform="translate(6.000000, 6.000000)" fill="#13284C">
            <g id="Group-3" transform="translate(0.000000, 5.566900)">
                <path d="M1.4238,0.9243 C0.9688,0.9243 0.5998,1.2933 0.5998,1.7483 L0.5998,13.5773 C0.5998,14.0313 0.9688,14.4003 1.4238,14.4003 L1.4598,14.4003 C1.9138,14.4003 2.2828,14.0313 2.2828,13.5773 L2.2828,1.7483 C2.2828,1.2933 1.9138,0.9243 1.4598,0.9243 L1.4238,0.9243 Z M1.4598,15.0003 L1.4238,15.0003 C0.6388,15.0003 -0.0002,14.3613 -0.0002,13.5773 L-0.0002,1.7483 C-0.0002,0.9633 0.6388,0.3243 1.4238,0.3243 L1.4598,0.3243 C2.2448,0.3243 2.8828,0.9633 2.8828,1.7483 L2.8828,13.5773 C2.8828,14.3613 2.2448,15.0003 1.4598,15.0003 L1.4598,15.0003 Z" id="Fill-1"></path>
            </g>
            <g id="Group-6" transform="translate(14.000000, 5.566900)">
                <path d="M1.9375,0.9243 C1.4835,0.9243 1.1135,1.2933 1.1135,1.7483 L1.1135,13.5773 C1.1135,14.0313 1.4835,14.4003 1.9375,14.4003 L1.9735,14.4003 C2.4275,14.4003 2.7965,14.0313 2.7965,13.5773 L2.7965,1.7483 C2.7965,1.2933 2.4275,0.9243 1.9735,0.9243 L1.9375,0.9243 Z M1.9735,15.0003 L1.9375,15.0003 C1.1525,15.0003 0.5135,14.3613 0.5135,13.5773 L0.5135,1.7483 C0.5135,0.9633 1.1525,0.3243 1.9375,0.3243 L1.9735,0.3243 C2.7585,0.3243 3.3975,0.9633 3.3975,1.7483 L3.3975,13.5773 C3.3975,14.3613 2.7585,15.0003 1.9735,15.0003 L1.9735,15.0003 Z" id="Fill-4"></path>
            </g>
            <path d="M17.3975,10.2407 L18.0555,10.2407 C18.4155,10.2407 18.7085,9.9487 18.7085,9.5887 L18.7085,9.4197 C18.7085,9.0597 18.4155,8.7677 18.0555,8.7677 L17.3975,8.7677 L17.3975,10.2407 Z M18.0555,10.8417 L17.0965,10.8417 C16.9315,10.8417 16.7965,10.7067 16.7965,10.5407 L16.7965,8.4677 C16.7965,8.3027 16.9315,8.1677 17.0965,8.1677 L18.0555,8.1677 C18.7465,8.1677 19.3075,8.7297 19.3075,9.4197 L19.3075,9.5887 C19.3075,10.2797 18.7465,10.8417 18.0555,10.8417 L18.0555,10.8417 Z" id="Fill-7"></path>
            <path d="M10.14,17.8299 L10.885,17.8299 L10.885,8.5099 L10.14,8.5099 L10.14,17.8299 Z M11.185,18.4289 L9.84,18.4289 C9.675,18.4289 9.54,18.2949 9.54,18.1289 L9.54,8.2099 C9.54,8.0439 9.675,7.9099 9.84,7.9099 L11.185,7.9099 C11.351,7.9099 11.485,8.0439 11.485,8.2099 L11.485,18.1289 C11.485,18.2949 11.351,18.4289 11.185,18.4289 L11.185,18.4289 Z" id="Fill-9"></path>
            <path d="M2.883,17.8299 L3.628,17.8299 L3.628,8.5099 L2.883,8.5099 L2.883,17.8299 Z M3.928,18.4289 L2.583,18.4289 C2.417,18.4289 2.283,18.2949 2.283,18.1289 L2.283,8.2099 C2.283,8.0439 2.417,7.9099 2.583,7.9099 L3.928,7.9099 C4.094,7.9099 4.229,8.0439 4.229,8.2099 L4.229,18.1289 C4.229,18.2949 4.094,18.4289 3.928,18.4289 L3.928,18.4289 Z" id="Fill-11"></path>
            <path d="M6.512,17.8299 L7.257,17.8299 L7.257,8.5099 L6.512,8.5099 L6.512,17.8299 Z M7.557,18.4289 L6.212,18.4289 C6.046,18.4289 5.912,18.2949 5.912,18.1289 L5.912,8.2099 C5.912,8.0439 6.046,7.9099 6.212,7.9099 L7.557,7.9099 C7.723,7.9099 7.857,8.0439 7.857,8.2099 L7.857,18.1289 C7.857,18.2949 7.723,18.4289 7.557,18.4289 L7.557,18.4289 Z" id="Fill-12"></path>
            <path d="M13.769,17.8299 L14.514,17.8299 L14.514,8.5099 L13.769,8.5099 L13.769,17.8299 Z M14.813,18.4289 L13.469,18.4289 C13.303,18.4289 13.169,18.2949 13.169,18.1289 L13.169,8.2099 C13.169,8.0439 13.303,7.9099 13.469,7.9099 L14.813,7.9099 C14.979,7.9099 15.113,8.0439 15.113,8.2099 L15.113,18.1289 C15.113,18.2949 14.979,18.4289 14.813,18.4289 L14.813,18.4289 Z" id="Fill-13"></path>
            <path d="M5.0376,6.4912 C4.5916,6.4912 4.2286,6.8792 4.2286,7.3572 L4.2286,19.1012 C4.2286,19.5782 4.5916,19.9672 5.0376,19.9672 L5.1026,19.9672 C5.5486,19.9672 5.9116,19.5782 5.9116,19.1012 L5.9116,7.3572 C5.9116,6.8792 5.5486,6.4912 5.1026,6.4912 L5.0376,6.4912 Z M5.1026,20.5672 L5.0376,20.5672 C4.2606,20.5672 3.6286,19.9092 3.6286,19.1012 L3.6286,7.3572 C3.6286,6.5482 4.2606,5.8912 5.0376,5.8912 L5.1026,5.8912 C5.8796,5.8912 6.5116,6.5482 6.5116,7.3572 L6.5116,19.1012 C6.5116,19.9092 5.8796,20.5672 5.1026,20.5672 L5.1026,20.5672 Z" id="Fill-14"></path>
            <path d="M8.666,6.4912 C8.22,6.4912 7.857,6.8792 7.857,7.3572 L7.857,19.1012 C7.857,19.5782 8.22,19.9672 8.666,19.9672 L8.731,19.9672 C9.177,19.9672 9.54,19.5782 9.54,19.1012 L9.54,7.3572 C9.54,6.8792 9.177,6.4912 8.731,6.4912 L8.666,6.4912 Z M8.731,20.5672 L8.666,20.5672 C7.889,20.5672 7.257,19.9092 7.257,19.1012 L7.257,7.3572 C7.257,6.5482 7.889,5.8912 8.666,5.8912 L8.731,5.8912 C9.508,5.8912 10.14,6.5482 10.14,7.3572 L10.14,19.1012 C10.14,19.9092 9.508,20.5672 8.731,20.5672 L8.731,20.5672 Z" id="Fill-15"></path>
            <path d="M12.2939,6.4912 C11.8489,6.4912 11.4849,6.8792 11.4849,7.3572 L11.4849,19.1012 C11.4849,19.5782 11.8489,19.9672 12.2939,19.9672 L12.3589,19.9672 C12.8059,19.9672 13.1689,19.5782 13.1689,19.1012 L13.1689,7.3572 C13.1689,6.8792 12.8059,6.4912 12.3589,6.4912 L12.2939,6.4912 Z M12.3589,20.5672 L12.2939,20.5672 C11.5179,20.5672 10.8849,19.9092 10.8849,19.1012 L10.8849,7.3572 C10.8849,6.5482 11.5179,5.8912 12.2939,5.8912 L12.3589,5.8912 C13.1369,5.8912 13.7689,6.5482 13.7689,7.3572 L13.7689,19.1012 C13.7689,19.9092 13.1369,20.5672 12.3589,20.5672 L12.3589,20.5672 Z" id="Fill-16"></path>
            <path d="M18.3428,20.5668 C18.1768,20.5668 18.0418,20.4328 18.0418,20.2668 C18.0418,20.1018 18.1768,19.9668 18.3428,19.9668 C19.3528,19.9668 20.1748,19.1448 20.1748,18.1338 L20.1748,11.0358 C20.1748,10.4128 19.6688,9.8988 19.0458,9.8888 L19.0028,9.8888 C18.8368,9.8858 18.7048,9.7498 18.7078,9.5838 C18.7098,9.4198 18.8448,9.2888 19.0078,9.2888 L19.0128,9.2888 L19.0558,9.2898 C20.0028,9.3038 20.7748,10.0878 20.7748,11.0358 L20.7748,18.1338 C20.7748,19.4758 19.6838,20.5668 18.3428,20.5668" id="Fill-17"></path>
            <path d="M5.8066,5.4457 C5.6406,5.4457 5.5066,5.3117 5.5066,5.1457 C5.5066,4.6357 5.7236,4.3657 5.8986,4.1497 C6.0496,3.9637 6.1586,3.8277 6.1586,3.5297 C6.1586,3.2327 6.0496,3.0977 5.8986,2.9107 C5.7236,2.6947 5.5066,2.4247 5.5066,1.9147 C5.5066,1.4047 5.7236,1.1347 5.8996,0.9187 C6.0496,0.7327 6.1586,0.5977 6.1586,0.2997 C6.1586,0.1337 6.2926,-0.0003 6.4586,-0.0003 C6.6236,-0.0003 6.7586,0.1337 6.7586,0.2997 C6.7586,0.8097 6.5406,1.0787 6.3656,1.2957 C6.2156,1.4827 6.1066,1.6167 6.1066,1.9147 C6.1066,2.2127 6.2156,2.3477 6.3666,2.5337 C6.5406,2.7507 6.7586,3.0207 6.7586,3.5297 C6.7586,4.0397 6.5406,4.3097 6.3666,4.5267 C6.2156,4.7137 6.1066,4.8477 6.1066,5.1457 C6.1066,5.3117 5.9726,5.4457 5.8066,5.4457" id="Fill-18"></path>
            <path d="M8.5239,5.4457 C8.3579,5.4457 8.2239,5.3117 8.2239,5.1457 C8.2239,4.6357 8.4409,4.3657 8.6159,4.1497 C8.7669,3.9637 8.8759,3.8277 8.8759,3.5297 C8.8759,3.2327 8.7669,3.0977 8.6159,2.9107 C8.4409,2.6947 8.2239,2.4247 8.2239,1.9147 C8.2239,1.4047 8.4409,1.1347 8.6169,0.9187 C8.7669,0.7327 8.8759,0.5977 8.8759,0.2997 C8.8759,0.1337 9.0099,-0.0003 9.1759,-0.0003 C9.3419,-0.0003 9.4759,0.1337 9.4759,0.2997 C9.4759,0.8097 9.2579,1.0787 9.0829,1.2957 C8.9329,1.4827 8.8239,1.6167 8.8239,1.9147 C8.8239,2.2127 8.9329,2.3477 9.0839,2.5337 C9.2579,2.7507 9.4759,3.0207 9.4759,3.5297 C9.4759,4.0397 9.2579,4.3097 9.0839,4.5267 C8.9329,4.7137 8.8239,4.8477 8.8239,5.1457 C8.8239,5.3117 8.6899,5.4457 8.5239,5.4457" id="Fill-19"></path>
            <path d="M11.0137,5.4457 C10.8477,5.4457 10.7137,5.3117 10.7137,5.1457 C10.7137,4.6357 10.9317,4.3657 11.1067,4.1497 C11.2567,3.9637 11.3667,3.8277 11.3667,3.5297 C11.3667,3.2327 11.2567,3.0977 11.1067,2.9107 C10.9317,2.6947 10.7137,2.4247 10.7137,1.9147 C10.7137,1.4047 10.9317,1.1347 11.1067,0.9187 C11.2567,0.7327 11.3667,0.5977 11.3667,0.2997 C11.3667,0.1337 11.4997,-0.0003 11.6657,-0.0003 C11.8307,-0.0003 11.9657,0.1337 11.9657,0.2997 C11.9657,0.8097 11.7477,1.0787 11.5737,1.2957 C11.4227,1.4827 11.3137,1.6167 11.3137,1.9147 C11.3137,2.2127 11.4227,2.3477 11.5737,2.5337 C11.7477,2.7507 11.9657,3.0207 11.9657,3.5297 C11.9657,4.0397 11.7477,4.3097 11.5737,4.5267 C11.4227,4.7137 11.3137,4.8477 11.3137,5.1457 C11.3137,5.3117 11.1797,5.4457 11.0137,5.4457" id="Fill-20"></path>
            <path d="M13.7314,5.4457 C13.5654,5.4457 13.4314,5.3117 13.4314,5.1457 C13.4314,4.6357 13.6494,4.3657 13.8244,4.1497 C13.9744,3.9637 14.0834,3.8277 14.0834,3.5297 C14.0834,3.2327 13.9744,3.0977 13.8244,2.9107 C13.6494,2.6947 13.4314,2.4247 13.4314,1.9147 C13.4314,1.4047 13.6494,1.1347 13.8244,0.9187 C13.9744,0.7327 14.0834,0.5977 14.0834,0.2997 C14.0834,0.1337 14.2174,-0.0003 14.3834,-0.0003 C14.5484,-0.0003 14.6834,0.1337 14.6834,0.2997 C14.6834,0.8097 14.4654,1.0787 14.2914,1.2957 C14.1394,1.4827 14.0314,1.6167 14.0314,1.9147 C14.0314,2.2127 14.1394,2.3477 14.2914,2.5337 C14.4654,2.7507 14.6834,3.0207 14.6834,3.5297 C14.6834,4.0397 14.4654,4.3097 14.2914,4.5267 C14.1394,4.7137 14.0314,4.8477 14.0314,5.1457 C14.0314,5.3117 13.8974,5.4457 13.7314,5.4457" id="Fill-21"></path>
        </g>
    </g>
</svg>