<?xml version="1.0" encoding="UTF-8"?>
<svg width="32px" height="32px" viewBox="0 0 32 32" version="1.1" xmlns="http://www.w3.org/2000/svg" xmlns:xlink="http://www.w3.org/1999/xlink">
    <title>Icn / Amenity / Climate Control / Hookups Required for A-C</title>
    <g id="Icn-/-Amenity-/-Climate-Control-/-Hookups-Required-for-A-C" stroke="none" stroke-width="1" fill="none" fill-rule="evenodd">
        <g id="Group" transform="translate(3.000000, 4.000000)" fill="#13284C">
            <path d="M5.67881364,18.5002409 C4.04258636,18.5002409 2.71185909,19.8309682 2.71185909,21.4671955 C2.71185909,23.1028318 4.04258636,24.4347409 5.67881364,24.4347409 C7.31504091,24.4347409 8.64635909,23.1028318 8.64635909,21.4671955 C8.64635909,19.8309682 7.31504091,18.5002409 5.67881364,18.5002409 M5.67881364,19.4510136 C6.79208636,19.4510136 7.69440455,20.3539227 7.69440455,21.4671955 C7.69440455,22.5798773 6.79208636,23.4827864 5.67881364,23.4827864 C4.56554091,23.4827864 3.66322273,22.5798773 3.66322273,21.4671955 C3.66322273,20.3539227 4.56554091,19.4510136 5.67881364,19.4510136" id="Fill-2"></path>
            <path d="M20.1353455,18.5106409 C18.5050273,18.5106409 17.1790273,19.8366409 17.1790273,21.46755 C17.1790273,23.0978682 18.5050273,24.4244591 20.1353455,24.4244591 C21.7656636,24.4244591 23.0928455,23.0978682 23.0928455,21.46755 C23.0928455,19.8366409 21.7656636,18.5106409 20.1353455,18.5106409 M20.1353455,19.4614136 C21.2427091,19.4614136 22.1408909,20.3595955 22.1408909,21.46755 C22.1408909,22.5743227 21.2427091,23.4719136 20.1353455,23.4719136 C19.0279818,23.4719136 18.1298,22.5743227 18.1298,21.46755 C18.1298,20.3595955 19.0279818,19.4614136 20.1353455,19.4614136" id="Fill-3"></path>
            <path d="M6.968,9.51659091 L6.69736364,10.0129545 L4.19722727,14.5966364 L2.39495455,14.651 L1.91572727,14.6657727 L1.64213636,15.0599091 L0.169590909,17.1824545 L1.46953157e-14,17.4270909 L1.46953157e-14,17.7249091 L1.46953157e-14,21.4677273 L1.46953157e-14,22.4185 L0.951363636,22.4185 L2.65081818,22.4185 L3.60218182,22.4185 L3.60218182,21.4677273 C3.60218182,20.3219545 4.53345455,19.3900909 5.67863636,19.3900909 C6.82440909,19.3900909 7.75568182,20.3219545 7.75568182,21.4677273 L7.75568182,22.4185 L8.70645455,22.4185 L17.1074091,22.4185 L18.0587727,22.4185 L18.0587727,21.4677273 C18.0587727,20.3219545 18.9906364,19.3900909 20.1352273,19.3900909 C21.281,19.3900909 22.2122727,20.3219545 22.2122727,21.4677273 L22.2122727,22.4185 L23.1636364,22.4185 L24.882,22.4185 L25.8339545,22.4185 L25.8339545,21.4677273 L25.8339545,11.8016364 C25.8339545,10.5412273 24.8087273,9.51659091 23.5489091,9.51659091 L7.53231818,9.51659091 L6.968,9.51659091 Z M7.53231818,10.4685455 L23.5489091,10.4685455 C24.2851818,10.4685455 24.882,11.0653636 24.882,11.8016364 L24.882,21.4677273 L23.1636364,21.4677273 C23.1636364,19.7972273 21.8051364,18.4393182 20.1352273,18.4393182 C18.4659091,18.4393182 17.1074091,19.7972273 17.1074091,21.4677273 L8.70645455,21.4677273 C8.70645455,19.7972273 7.34854545,18.4393182 5.67863636,18.4393182 C4.00931818,18.4393182 2.65081818,19.7972273 2.65081818,21.4677273 L0.951363636,21.4677273 L0.951363636,17.7249091 L2.4245,15.6023636 L4.771,15.5308636 L7.53231818,10.4685455 L7.53231818,10.4685455 Z" id="Fill-4"></path>
            <polygon id="Fill-5" points="4.5214 15.5445136 25.3639455 15.5445136 25.3639455 14.5937409 4.5214 14.5937409"></polygon>
            <polygon id="Fill-6" points="17.4049909 15.0688318 18.3557636 15.0688318 18.3557636 10.0419682 17.4049909 10.0419682"></polygon>
            <polygon id="Fill-7" points="11.7694909 15.0688318 12.7202636 15.0688318 12.7202636 10.0419682 11.7694909 10.0419682"></polygon>
            <path d="M23.1703727,4.46786364 C23.1703727,5.49781818 22.3324636,6.33572727 21.3031,6.33572727 L21.3007364,6.33572727 C20.2713727,6.33572727 19.4334636,5.49781818 19.4334636,4.46786364 L19.4334636,3.16431818 L19.9493273,3.16431818 L20.7464636,3.16431818 L21.8567818,3.16431818 L22.6545091,3.16431818 L23.1703727,3.16431818 L23.1703727,4.46786364 Z M20.1071,0.556045455 C20.1071,0.423681818 20.2158273,0.315545455 20.3487818,0.315545455 C20.4811455,0.315545455 20.5898727,0.423681818 20.5898727,0.556045455 L20.5898727,2.84936364 L20.1071,2.84936364 L20.1071,0.556045455 Z M22.0139636,0.556045455 C22.0139636,0.423681818 22.1226909,0.315545455 22.2562364,0.315545455 C22.3891909,0.315545455 22.4973273,0.423681818 22.4973273,0.556045455 L22.4973273,2.84936364 L22.0139636,2.84936364 L22.0139636,0.556045455 Z M23.3287364,2.84936364 L22.8128727,2.84936364 L22.8128727,0.556045455 C22.8128727,0.249363636 22.5623273,-1.67946465e-14 22.2550545,-1.67946465e-14 C21.9495545,-1.67946465e-14 21.6990091,0.249363636 21.6990091,0.556045455 L21.6990091,2.84936364 L20.9048273,2.84936364 L20.9048273,0.556045455 C20.9048273,0.249363636 20.6554636,-1.67946465e-14 20.3487818,-1.67946465e-14 C20.0415091,-1.67946465e-14 19.7921455,0.249363636 19.7921455,0.556045455 L19.7921455,2.84936364 L19.2751,2.84936364 C19.1888273,2.84936364 19.1185091,2.91968182 19.1185091,3.00654545 L19.1185091,4.46786364 C19.1185091,5.44759091 19.7702818,6.26836364 20.6601909,6.54431818 L20.6601909,9.74763636 C20.6601909,9.8345 20.7316909,9.90481818 20.8185545,9.90481818 C20.9048273,9.90481818 20.9763273,9.8345 20.9763273,9.74763636 L20.9763273,6.61818182 C21.0826909,6.63413636 21.1896455,6.65127273 21.3007364,6.65127273 L21.3031,6.65127273 C21.4136,6.65127273 21.5211455,6.63413636 21.6286909,6.61818182 L21.6286909,9.74763636 C21.6286909,9.8345 21.6990091,9.90481818 21.7852818,9.90481818 C21.8733273,9.90481818 21.9436455,9.8345 21.9436455,9.74763636 L21.9436455,6.54431818 C22.8335545,6.26836364 23.4865091,5.44759091 23.4865091,4.46786364 L23.4865091,3.00654545 C23.4865091,2.91968182 23.4150091,2.84936364 23.3287364,2.84936364 L23.3287364,2.84936364 Z" id="Fill-8"></path>
            <path d="M22.5667591,4.59945909 C22.4834409,4.57405 22.3959864,4.62250455 22.3717591,4.70582273 C22.2630318,5.06864091 21.9711227,5.35818636 21.6065318,5.46159545 C21.5232136,5.48523182 21.4747591,5.57209545 21.4978045,5.65600455 C21.5178955,5.72573182 21.5811227,5.77064091 21.6490773,5.77064091 C21.6644409,5.77064091 21.6780318,5.76886818 21.6928045,5.76473182 C22.1608045,5.63236818 22.5354409,5.26068636 22.6731227,4.79505 C22.6985318,4.71173182 22.6512591,4.62368636 22.5667591,4.59945909" id="Fill-9"></path>
        </g>
    </g>
</svg>