<?xml version="1.0" encoding="UTF-8"?>
<svg width="32px" height="32px" viewBox="0 0 32 32" version="1.1" xmlns="http://www.w3.org/2000/svg" xmlns:xlink="http://www.w3.org/1999/xlink">
    <title>Icn / Amenity / Climate Control / Off Grid Air Conditioner</title>
    <g id="Icn-/-Amenity-/-Climate-Control-/-Off-Grid-Air-Conditioner" stroke="none" stroke-width="1" fill="none" fill-rule="evenodd">
        <g id="Group" transform="translate(3.000000, 3.000000)" fill="#13284C">
            <path d="M11.9428947,9.91557895 L12.7872105,9.91557895 L12.7872105,7.87389474 L11.9428947,7.87389474 L11.9428947,9.91557895 Z M11.9422105,7.48184211 L12.7865263,7.48184211 L12.7865263,5.44084211 L11.9422105,5.44084211 L11.9422105,7.48184211 Z M17.3488421,9.91557895 L18.1958947,9.91557895 L18.1958947,7.87389474 L17.3488421,7.87389474 L17.3488421,9.91557895 Z M17.3488421,7.48184211 L18.1958947,7.48184211 L18.1958947,5.44084211 L17.3488421,5.44084211 L17.3488421,7.48184211 Z M13.9900526,16.3184211 L13.9900526,18.3724211 L15.0663158,18.3724211 L16.1473684,18.3724211 L16.1473684,16.3184211 L13.9900526,16.3184211 Z M15.2633684,18.7637895 L15.2633684,20.4476316 C15.2633684,20.7705789 15.1333684,21.0634211 14.9185263,21.2762105 L14.9185263,21.2789474 C14.7043684,21.4910526 14.4135789,21.6203684 14.092,21.6203684 L7.48321053,21.6203684 C7.16094737,21.6203684 6.86742105,21.4883158 6.65531579,21.2762105 C6.44321053,21.0641053 6.31115789,20.7705789 6.31115789,20.4476316 L6.31115789,4.85789474 C6.31115789,4.75321053 6.39805263,4.66289474 6.50615789,4.66289474 C6.61563158,4.66289474 6.70321053,4.75321053 6.70321053,4.85789474 L6.70321053,20.4476316 C6.70321053,20.6645263 6.79010526,20.8608947 6.92968421,21.0011579 C7.07336842,21.1421053 7.26836842,21.2324211 7.48321053,21.2324211 L14.092,21.2324211 C14.3068421,21.2324211 14.5038947,21.1421053 14.6427895,21.0011579 L14.6427895,20.9984211 C14.7864737,20.8608947 14.8740526,20.6645263 14.8740526,20.4476316 L14.8740526,18.7637895 L13.793,18.7637895 C13.6842105,18.7637895 13.5973158,18.6741579 13.5973158,18.5674211 L13.5973158,16.3184211 L11.7752632,16.3184211 C11.4536842,16.3184211 11.1622105,16.1856842 10.9501053,15.9735789 C10.7359474,15.7614737 10.6059474,15.4713684 10.6059474,15.1443158 L10.6059474,10.1112632 C10.6059474,10.0031579 10.6935263,9.91626316 10.7988947,9.91626316 L11.5501579,9.91626316 L11.5501579,7.683 L11.5501579,7.67889474 L11.5501579,7.67342105 L11.5501579,5.24447368 C11.5501579,5.13705263 11.6377368,5.04947368 11.7465263,5.04947368 L12.9808421,5.04947368 C13.0889474,5.04947368 13.1765263,5.13705263 13.1765263,5.24447368 L13.1765263,7.67342105 L13.1765263,7.67889474 L13.1765263,7.683 L13.1765263,9.91626316 L16.9602105,9.91626316 L16.9602105,7.67889474 L16.9602105,5.24447368 C16.9602105,5.13705263 17.0477895,5.04947368 17.1558947,5.04947368 L18.3895263,5.04947368 C18.4983158,5.04947368 18.5852105,5.13705263 18.5852105,5.24447368 L18.5852105,7.67342105 L18.5852105,7.67889474 L18.5852105,7.683 L18.5852105,9.91626316 L19.3385263,9.91626316 C19.4459474,9.91626316 19.5335263,10.0031579 19.5335263,10.1112632 L19.5335263,15.1443158 C19.5335263,15.4679474 19.4014737,15.7614737 19.1893684,15.9735789 C18.9745263,16.1856842 18.681,16.3184211 18.3607895,16.3184211 L16.5394211,16.3184211 L16.5394211,18.5674211 C16.5394211,18.6741579 16.4518421,18.7637895 16.3423684,18.7637895 L15.2633684,18.7637895 Z M11.7752632,15.9263684 L13.793,15.9263684 L16.3423684,15.9263684 L18.3607895,15.9263684 C18.5756316,15.9263684 18.7713158,15.8387895 18.9115789,15.6978421 C19.0538947,15.5555263 19.1414737,15.3618947 19.1414737,15.1443158 L19.1414737,10.3069474 L18.3895263,10.3069474 L17.1558947,10.3069474 L12.9808421,10.3069474 L11.7465263,10.3069474 L10.9938947,10.3069474 L10.9938947,15.1443158 C10.9938947,15.3591579 11.0814737,15.5555263 11.2251579,15.6978421 C11.3661053,15.8387895 11.5611053,15.9263684 11.7752632,15.9263684 L11.7752632,15.9263684 Z" id="Fill-1"></path>
            <path d="M12.8973684,-0.110594737 C5.71348981,-0.110594737 -0.110526316,5.71342139 -0.110526316,12.8973 C-0.110526316,20.0811786 5.71348981,25.9051947 12.8973684,25.9051947 C20.081247,25.9051947 25.9052632,20.0811786 25.9052632,12.8973 C25.9052632,5.71342139 20.081247,-0.110594737 12.8973684,-0.110594737 Z M12.8973684,0.589405263 C19.6946477,0.589405263 25.2052632,6.10002072 25.2052632,12.8973 C25.2052632,19.6945793 19.6946477,25.2051947 12.8973684,25.2051947 C6.10008914,25.2051947 0.589473684,19.6945793 0.589473684,12.8973 C0.589473684,6.10002072 6.10008914,0.589405263 12.8973684,0.589405263 Z" id="Stroke-3" fill-rule="nonzero"></path>
            <polygon id="Stroke-4" fill-rule="nonzero" points="3.71696231 3.9931554 23.2169623 20.670787 22.7619851 21.2027604 3.26198506 4.52512881"></polygon>
        </g>
    </g>
</svg>