<?xml version="1.0" encoding="UTF-8"?>
<svg width="32px" height="32px" viewBox="0 0 32 32" version="1.1" xmlns="http://www.w3.org/2000/svg" xmlns:xlink="http://www.w3.org/1999/xlink">
    <title>Icn / Amenity / Climate Control / Portable Heater</title>
    <g id="Icn-/-Amenity-/-Climate-Control-/-Portable-Heater" stroke="none" stroke-width="1" fill="none" fill-rule="evenodd">
        <g id="Group" transform="translate(3.000000, 5.000000)" fill="#13284C" fill-rule="nonzero">
            <path d="M23.9956571,-0.3 C25.1500363,-0.3 26.0968368,0.606162066 26.1769851,1.7495572 L26.1824807,1.90688235 L26.1824807,17.4298235 C26.1824807,18.5933152 25.285953,19.549556 24.1517347,19.630508 L24.025,19.635 L24.0258336,20.6981176 C24.0258336,21.2319643 23.6533176,21.6791586 23.1550242,21.7889198 L23.0379129,21.8081452 L22.9170101,21.8147059 L20.760363,21.8147059 C20.1879204,21.8147059 19.7181289,21.3787823 19.6580342,20.8196936 L19.6515395,20.6981176 L19.651,19.636 L12.432,19.636 L12.4324807,20.6981176 C12.4324807,21.2319643 12.0599647,21.6791586 11.5616712,21.7889198 L11.44456,21.8081452 L11.3236571,21.8147059 L9.16701009,21.8147059 C8.59499783,21.8147059 8.12483329,21.3786178 8.06468696,20.8196607 L8.05818656,20.6981176 L8.058,19.635 L7.93228549,19.630508 C6.90375572,19.5570993 6.07068349,18.7639237 5.9243597,17.7491332 L5.90703462,17.5871341 L5.902,17.457 L4.58389244,17.4574118 C2.90592839,17.4574118 1.52129602,16.1758884 1.33829304,14.5323464 L1.3229505,14.3482875 L1.3177748,14.1615294 L1.317,7.996 L1.20293934,7.95383791 C0.159490651,7.53695174 -0.218253487,6.6769993 -0.287640089,5.25917374 L-0.29608544,5.03065374 L-0.299649846,4.80430341 L-0.3,4.35729412 C-0.3,3.90558514 -0.0332238173,3.51590632 0.350758468,3.34019915 L0.458274471,3.29769825 L0.508,3.283 L0.508951266,2.39670588 C0.508951266,2.00281377 0.777619802,1.67109794 1.14163225,1.57835442 L1.24314205,1.55911849 L1.34859833,1.55252941 C1.77682164,1.55252941 2.12936641,1.87531407 2.1810702,2.29098584 L2.18759833,2.39670588 L2.187,3.242 L2.666,3.242 L2.66624538,2.39670588 C2.66624538,2.00280128 2.93445828,1.67109409 3.29832407,1.57835353 L3.39980211,1.55911825 L3.50524538,1.55252941 C3.93391178,1.55252941 4.28608163,1.87516853 4.33772512,2.29095225 L4.34424538,2.39670588 L4.344,3.283 L4.39508228,3.2976776 C4.75880139,3.41962849 5.03828861,3.72603331 5.12497021,4.10624279 L5.1465742,4.23556101 L5.15306885,4.3571008 L5.151,4.864 L5.19081708,4.77798845 C5.29819125,4.57520673 5.48540834,4.42157382 5.71066685,4.35991086 L5.8262727,4.33694178 L5.901,4.332 L5.9015395,1.90688235 C5.9015395,0.796192644 6.7184921,-0.126045002 7.77917411,-0.278035748 L7.93229624,-0.294446115 L8.08836303,-0.3 L23.9956571,-0.3 Z M23.9956571,0.3 L8.08836303,0.3 C7.26287284,0.3 6.58123449,0.942550985 6.50804471,1.76076347 L6.5015395,1.90688235 L6.5015395,4.93035294 L5.93171597,4.93035294 C5.80014799,4.93035294 5.69271597,5.03894398 5.69271597,5.17452941 C5.69271597,5.28801862 5.76729154,5.38237549 5.86831394,5.4106753 L5.93171597,5.41935294 L6.5015395,5.41935294 L6.5015395,15.8242353 L4.58389244,15.8242353 C3.72193916,15.8242353 3.01364675,15.1542821 2.94147734,14.3047048 L2.93542185,14.1615294 L2.93542185,7.54918866 L3.15486683,7.4880175 C4.21829922,7.19158147 4.52677523,6.45793655 4.5515937,4.88064085 L4.55306891,4.35729412 C4.55306891,4.10296746 4.37276266,3.8926086 4.1356038,3.84900202 L4.04424538,3.84070588 L3.74424538,3.84070588 L3.74424538,2.39670588 C3.74424538,2.26112045 3.63681337,2.15252941 3.50524538,2.15252941 C3.3956054,2.15252941 3.3027265,2.22793985 3.27481242,2.33154046 L3.26624538,2.39670588 L3.26624538,3.84264706 L1.58759833,3.84264706 L1.58759833,2.39670588 C1.58759833,2.26140139 1.47979898,2.15252941 1.34859833,2.15252941 C1.23876182,2.15252941 1.14556459,2.22810308 1.11754986,2.33162207 L1.10895127,2.39670588 L1.10895127,3.84070588 L0.808951266,3.84070588 C0.559816588,3.84070588 0.351453671,4.0230444 0.308226472,4.26413673 L0.299999908,4.35705906 L0.300343947,4.80215301 C0.310113273,6.33228855 0.593390345,7.11475894 1.55615559,7.44403721 L1.69835968,7.48802582 L1.9177748,7.5492131 L1.9177748,14.1615294 C1.9177748,15.5917431 3.02406778,16.7640406 4.41559287,16.8521017 L4.58389244,16.8574118 L6.5015395,16.8574118 L6.5015395,17.4298235 C6.5015395,18.2669408 7.13718016,18.9555588 7.94425327,19.0294882 L8.08836303,19.0360588 L8.65818656,19.0360588 L8.65818656,20.6981176 C8.65818656,20.9522111 8.83879786,21.1627513 9.07575336,21.2064011 L9.16701009,21.2147059 L11.3236571,21.2147059 C11.572757,21.2147059 11.7810461,21.0323982 11.8242572,20.7911202 L11.8324807,20.6981176 L11.8324807,19.0360588 L20.2515395,19.0360588 L20.2515395,20.6981176 C20.2515395,20.9524443 20.4318458,21.1628032 20.6690046,21.2064097 L20.760363,21.2147059 L22.9170101,21.2147059 C23.16611,21.2147059 23.374399,21.0323982 23.4176102,20.7911202 L23.4258336,20.6981176 L23.4258336,19.0360588 L23.9956571,19.0360588 C24.8212925,19.0360588 25.5028018,18.3939474 25.5759768,17.5759137 L25.5824807,17.4298235 L25.5824807,1.90688235 C25.5824807,1.06961934 24.9467029,0.380553747 24.1397441,0.306575048 L23.9956571,0.3 Z M22.4081866,19.0360588 L22.4081866,20.1808824 L21.2691866,20.1808824 L21.2691866,19.0360588 L22.4081866,19.0360588 Z M10.8148336,19.0360588 L10.8148336,20.1808824 L9.67583362,20.1808824 L9.67583362,19.0360588 L10.8148336,19.0360588 Z M23.9956571,1.33447059 C24.2771404,1.33447059 24.5129867,1.54456776 24.5573412,1.81478792 L24.5648336,1.90688235 L24.5648336,17.4298235 C24.5648336,17.7110732 24.3570478,17.949727 24.0875682,17.9946453 L23.9956571,18.0022353 L8.08836303,18.0022353 C7.80697732,18.0022353 7.57105295,17.7917064 7.52668193,17.5217885 L7.51918656,17.4298235 L7.51918656,1.90688235 C7.51918656,1.62515307 7.72688458,1.38688297 7.99642561,1.34204624 L8.08836303,1.33447059 L23.9956571,1.33447059 Z M23.964,1.934 L8.119,1.934 L8.119,17.402 L23.964,17.402 L23.964,1.934 Z M5.129,5.417 L5.12176293,5.53664881 C5.02347184,6.73780412 4.6759093,7.47851218 3.8146692,7.8838798 L3.64710247,7.955987 L3.535,7.995 L3.53542185,14.1615294 C3.53542185,14.6696411 3.88951535,15.0952361 4.35957477,15.199695 L4.4700002,15.2179916 L4.58389244,15.2242353 L5.901,15.224 L5.901,6.017 L5.82624226,6.01276128 C5.55425114,5.97850346 5.32334496,5.813471 5.19673653,5.58248346 L5.14904564,5.47963971 L5.129,5.417 Z M1.31776552,4.87647059 L3.53607819,4.87647059 L3.52487418,5.18727799 C3.48688452,6.24113952 3.2592629,6.51771202 2.41042318,6.56179892 C1.63947459,6.52017102 1.39402461,6.27133341 1.33712243,5.35584798 L1.32896953,5.18727799 L1.31776552,4.87647059 Z M2.911,5.476 L1.941,5.476 L1.94482879,5.5207605 C1.96890907,5.86331088 2.02272411,5.92713305 2.24926843,5.95102401 L2.41042318,5.96267167 L2.58107123,5.95122178 C2.80150758,5.92982356 2.87036646,5.876421 2.9001466,5.61552576 L2.911,5.476 Z" id="Stroke-2"></path>
            <path d="M14.9634924,2.76427647 L9.57155127,2.76427647 C9.10683139,2.76427647 8.73190421,3.14262055 8.73190421,3.6091 C8.73190421,4.07510141 9.10699715,4.45392353 9.57155127,4.45392353 L14.9634924,4.45392353 C15.4275558,4.45392353 15.8024924,4.07494533 15.8024924,3.6091 C15.8024924,3.1427766 15.4277214,2.76427647 14.9634924,2.76427647 Z M9.57155127,3.36427647 L14.9634924,3.36427647 C15.0950134,3.36427647 15.2024924,3.47282492 15.2024924,3.6091 C15.2024924,3.74500597 15.0947364,3.85392353 14.9634924,3.85392353 L9.57155127,3.85392353 C9.43970399,3.85392353 9.33190421,3.745052 9.33190421,3.6091 C9.33190421,3.47277902 9.43942685,3.36427647 9.57155127,3.36427647 Z" id="Stroke-3"></path>
            <path d="M14.9634924,5.03150588 L9.57155127,5.03150588 C9.10683139,5.03150588 8.73190421,5.40984996 8.73190421,5.87632941 C8.73190421,6.34233082 9.10699715,6.72115294 9.57155127,6.72115294 L14.9634924,6.72115294 C15.4275558,6.72115294 15.8024924,6.34217474 15.8024924,5.87632941 C15.8024924,5.41000601 15.4277214,5.03150588 14.9634924,5.03150588 Z M9.57155127,5.63150588 L14.9634924,5.63150588 C15.0950134,5.63150588 15.2024924,5.74005433 15.2024924,5.87632941 C15.2024924,6.01223538 15.0947364,6.12115294 14.9634924,6.12115294 L9.57155127,6.12115294 C9.43970399,6.12115294 9.33190421,6.01228141 9.33190421,5.87632941 C9.33190421,5.74000843 9.43942685,5.63150588 9.57155127,5.63150588 Z" id="Stroke-4"></path>
            <path d="M14.9634924,7.32655882 L9.57155127,7.32655882 C9.10683139,7.32655882 8.73190421,7.70490291 8.73190421,8.17138235 C8.73190421,8.63738376 9.10699715,9.01620588 9.57155127,9.01620588 L14.9634924,9.01620588 C15.4275558,9.01620588 15.8024924,8.63722768 15.8024924,8.17138235 C15.8024924,7.70505895 15.4277214,7.32655882 14.9634924,7.32655882 Z M9.57155127,7.92655882 L14.9634924,7.92655882 C15.0950134,7.92655882 15.2024924,8.03510727 15.2024924,8.17138235 C15.2024924,8.30728832 15.0947364,8.41620588 14.9634924,8.41620588 L9.57155127,8.41620588 C9.43970399,8.41620588 9.33190421,8.30733436 9.33190421,8.17138235 C9.33190421,8.03506137 9.43942685,7.92655882 9.57155127,7.92655882 Z" id="Stroke-5"></path>
            <path d="M22.5124042,2.76427647 L17.120463,2.76427647 C16.6557432,2.76427647 16.280816,3.14262055 16.280816,3.6091 C16.280816,4.07510141 16.6559089,4.45392353 17.120463,4.45392353 L22.5124042,4.45392353 C22.9769476,4.45392353 23.3514042,4.07511637 23.3514042,3.6091 C23.3514042,3.14260579 22.9771129,2.76427647 22.5124042,2.76427647 Z M17.120463,3.36427647 L22.5124042,3.36427647 C22.6442923,3.36427647 22.7514042,3.47254398 22.7514042,3.6091 C22.7514042,3.74528704 22.6440154,3.85392353 22.5124042,3.85392353 L17.120463,3.85392353 C16.9886158,3.85392353 16.880816,3.745052 16.880816,3.6091 C16.880816,3.47277902 16.9883386,3.36427647 17.120463,3.36427647 Z" id="Stroke-6"></path>
            <path d="M22.5124042,5.04541765 L17.120463,5.04541765 C16.6557432,5.04541765 16.280816,5.42376173 16.280816,5.89024118 C16.280816,6.35624258 16.6559089,6.73506471 17.120463,6.73506471 L22.5124042,6.73506471 C22.9769476,6.73506471 23.3514042,6.35625755 23.3514042,5.89024118 C23.3514042,5.42374697 22.9771129,5.04541765 22.5124042,5.04541765 Z M17.120463,5.64541765 L22.5124042,5.64541765 C22.6442923,5.64541765 22.7514042,5.75368515 22.7514042,5.89024118 C22.7514042,6.02642822 22.6440154,6.13506471 22.5124042,6.13506471 L17.120463,6.13506471 C16.9886158,6.13506471 16.880816,6.02619318 16.880816,5.89024118 C16.880816,5.7539202 16.9883386,5.64541765 17.120463,5.64541765 Z" id="Stroke-7"></path>
            <path d="M22.5124042,7.32655882 L17.120463,7.32655882 C16.6557432,7.32655882 16.280816,7.70490291 16.280816,8.17138235 C16.280816,8.63738376 16.6559089,9.01620588 17.120463,9.01620588 L22.5124042,9.01620588 C22.9769476,9.01620588 23.3514042,8.63739873 23.3514042,8.17138235 C23.3514042,7.70488814 22.9771129,7.32655882 22.5124042,7.32655882 Z M17.120463,7.92655882 L22.5124042,7.92655882 C22.6442923,7.92655882 22.7514042,8.03482633 22.7514042,8.17138235 C22.7514042,8.3075694 22.6440154,8.41620588 22.5124042,8.41620588 L17.120463,8.41620588 C16.9886158,8.41620588 16.880816,8.30733436 16.880816,8.17138235 C16.880816,8.03506137 16.9883386,7.92655882 17.120463,7.92655882 Z" id="Stroke-8"></path>
        </g>
    </g>
</svg>